%TF.GenerationSoftware,KiCad,Pcbnew,7.0.7*%
%TF.CreationDate,2023-10-01T14:50:08+02:00*%
%TF.ProjectId,MultiSwitch_Mcp23017_MiniSwitch,4d756c74-6953-4776-9974-63685f4d6370,1.0*%
%TF.SameCoordinates,Original*%
%TF.FileFunction,Drillmap*%
%TF.FilePolarity,Positive*%
%FSLAX45Y45*%
G04 Gerber Fmt 4.5, Leading zero omitted, Abs format (unit mm)*
G04 Created by KiCad (PCBNEW 7.0.7) date 2023-10-01 14:50:08*
%MOMM*%
%LPD*%
G01*
G04 APERTURE LIST*
%ADD10C,0.050000*%
%ADD11C,0.200000*%
%ADD12C,0.060000*%
%ADD13C,0.070000*%
%ADD14C,0.100000*%
G04 APERTURE END LIST*
D10*
X21805900Y-9842500D02*
G75*
G03*
X22034500Y-10071100I228600J0D01*
G01*
X21805900Y-13208000D02*
X21805900Y-13462000D01*
X22034500Y-12979400D02*
X22288500Y-12979400D01*
X21805900Y-13462000D02*
X14262100Y-13462000D01*
X14262452Y-13208000D02*
X14262452Y-13462000D01*
X14033500Y-12979047D02*
X13779500Y-12979047D01*
X22034500Y-12979400D02*
G75*
G03*
X21805900Y-13208000I0J-228600D01*
G01*
X14262100Y-9588500D02*
X21805900Y-9588500D01*
X22288500Y-10071100D02*
X22034500Y-10071100D01*
X14033500Y-10071100D02*
X13779500Y-10071100D01*
X14262100Y-9842500D02*
X14262100Y-9588500D01*
X22288500Y-12979400D02*
X22288500Y-10071100D01*
X14033500Y-10071100D02*
G75*
G03*
X14262100Y-9842500I0J228600D01*
G01*
X14262452Y-13208000D02*
G75*
G03*
X14033500Y-12979047I-228953J0D01*
G01*
X13779500Y-12979400D02*
X13779500Y-10071100D01*
X21805900Y-9842500D02*
X21805900Y-9588500D01*
D11*
D12*
X15692600Y-12860500D02*
X15752600Y-12920500D01*
X15752600Y-12860500D02*
X15692600Y-12920500D01*
X15692600Y-13051000D02*
X15752600Y-13111000D01*
X15752600Y-13051000D02*
X15692600Y-13111000D01*
X15692600Y-13241500D02*
X15752600Y-13301500D01*
X15752600Y-13241500D02*
X15692600Y-13301500D01*
X16226000Y-12733500D02*
X16286000Y-12793500D01*
X16286000Y-12733500D02*
X16226000Y-12793500D01*
X16289500Y-12606500D02*
X16349500Y-12666500D01*
X16349500Y-12606500D02*
X16289500Y-12666500D01*
X16353000Y-10892000D02*
X16413000Y-10952000D01*
X16413000Y-10892000D02*
X16353000Y-10952000D01*
X19185100Y-12733500D02*
X19245100Y-12793500D01*
X19245100Y-12733500D02*
X19185100Y-12793500D01*
X19522500Y-11438100D02*
X19582500Y-11498100D01*
X19582500Y-11438100D02*
X19522500Y-11498100D01*
X19782000Y-11146000D02*
X19842000Y-11206000D01*
X19842000Y-11146000D02*
X19782000Y-11206000D01*
X19782000Y-12289000D02*
X19842000Y-12349000D01*
X19842000Y-12289000D02*
X19782000Y-12349000D01*
X20861500Y-10599900D02*
X20921500Y-10659900D01*
X20921500Y-10599900D02*
X20861500Y-10659900D01*
D13*
X15148000Y-10414000D02*
G75*
G03*
X15148000Y-10414000I-35000J0D01*
G01*
D11*
X15063000Y-10449000D02*
X15163000Y-10449000D01*
X15163000Y-10449000D02*
G75*
G03*
X15163000Y-10379000I0J35000D01*
G01*
X15163000Y-10379000D02*
X15063000Y-10379000D01*
X15063000Y-10379000D02*
G75*
G03*
X15063000Y-10449000I0J-35000D01*
G01*
D13*
X15148000Y-10922000D02*
G75*
G03*
X15148000Y-10922000I-35000J0D01*
G01*
D11*
X15063000Y-10957000D02*
X15163000Y-10957000D01*
X15163000Y-10957000D02*
G75*
G03*
X15163000Y-10887000I0J35000D01*
G01*
X15163000Y-10887000D02*
X15063000Y-10887000D01*
X15063000Y-10887000D02*
G75*
G03*
X15063000Y-10957000I0J-35000D01*
G01*
D13*
X15148000Y-12128500D02*
G75*
G03*
X15148000Y-12128500I-35000J0D01*
G01*
D11*
X15163000Y-12093500D02*
X15063000Y-12093500D01*
X15063000Y-12093500D02*
G75*
G03*
X15063000Y-12163500I0J-35000D01*
G01*
X15063000Y-12163500D02*
X15163000Y-12163500D01*
X15163000Y-12163500D02*
G75*
G03*
X15163000Y-12093500I0J35000D01*
G01*
D13*
X15148000Y-12636500D02*
G75*
G03*
X15148000Y-12636500I-35000J0D01*
G01*
D11*
X15163000Y-12601500D02*
X15063000Y-12601500D01*
X15063000Y-12601500D02*
G75*
G03*
X15063000Y-12671500I0J-35000D01*
G01*
X15063000Y-12671500D02*
X15163000Y-12671500D01*
X15163000Y-12671500D02*
G75*
G03*
X15163000Y-12601500I0J35000D01*
G01*
D13*
X15910000Y-10414000D02*
G75*
G03*
X15910000Y-10414000I-35000J0D01*
G01*
D11*
X15825000Y-10449000D02*
X15925000Y-10449000D01*
X15925000Y-10449000D02*
G75*
G03*
X15925000Y-10379000I0J35000D01*
G01*
X15925000Y-10379000D02*
X15825000Y-10379000D01*
X15825000Y-10379000D02*
G75*
G03*
X15825000Y-10449000I0J-35000D01*
G01*
D13*
X15910000Y-10922000D02*
G75*
G03*
X15910000Y-10922000I-35000J0D01*
G01*
D11*
X15825000Y-10957000D02*
X15925000Y-10957000D01*
X15925000Y-10957000D02*
G75*
G03*
X15925000Y-10887000I0J35000D01*
G01*
X15925000Y-10887000D02*
X15825000Y-10887000D01*
X15825000Y-10887000D02*
G75*
G03*
X15825000Y-10957000I0J-35000D01*
G01*
D13*
X15910000Y-12128500D02*
G75*
G03*
X15910000Y-12128500I-35000J0D01*
G01*
D11*
X15925000Y-12093500D02*
X15825000Y-12093500D01*
X15825000Y-12093500D02*
G75*
G03*
X15825000Y-12163500I0J-35000D01*
G01*
X15825000Y-12163500D02*
X15925000Y-12163500D01*
X15925000Y-12163500D02*
G75*
G03*
X15925000Y-12093500I0J35000D01*
G01*
D13*
X15910000Y-12636500D02*
G75*
G03*
X15910000Y-12636500I-35000J0D01*
G01*
D11*
X15925000Y-12601500D02*
X15825000Y-12601500D01*
X15825000Y-12601500D02*
G75*
G03*
X15825000Y-12671500I0J-35000D01*
G01*
X15825000Y-12671500D02*
X15925000Y-12671500D01*
X15925000Y-12671500D02*
G75*
G03*
X15925000Y-12601500I0J35000D01*
G01*
D13*
X16672000Y-10414000D02*
G75*
G03*
X16672000Y-10414000I-35000J0D01*
G01*
D11*
X16587000Y-10449000D02*
X16687000Y-10449000D01*
X16687000Y-10449000D02*
G75*
G03*
X16687000Y-10379000I0J35000D01*
G01*
X16687000Y-10379000D02*
X16587000Y-10379000D01*
X16587000Y-10379000D02*
G75*
G03*
X16587000Y-10449000I0J-35000D01*
G01*
D13*
X16672000Y-10922000D02*
G75*
G03*
X16672000Y-10922000I-35000J0D01*
G01*
D11*
X16587000Y-10957000D02*
X16687000Y-10957000D01*
X16687000Y-10957000D02*
G75*
G03*
X16687000Y-10887000I0J35000D01*
G01*
X16687000Y-10887000D02*
X16587000Y-10887000D01*
X16587000Y-10887000D02*
G75*
G03*
X16587000Y-10957000I0J-35000D01*
G01*
D13*
X16672000Y-12128500D02*
G75*
G03*
X16672000Y-12128500I-35000J0D01*
G01*
D11*
X16687000Y-12093500D02*
X16587000Y-12093500D01*
X16587000Y-12093500D02*
G75*
G03*
X16587000Y-12163500I0J-35000D01*
G01*
X16587000Y-12163500D02*
X16687000Y-12163500D01*
X16687000Y-12163500D02*
G75*
G03*
X16687000Y-12093500I0J35000D01*
G01*
D13*
X16672000Y-12636500D02*
G75*
G03*
X16672000Y-12636500I-35000J0D01*
G01*
D11*
X16687000Y-12601500D02*
X16587000Y-12601500D01*
X16587000Y-12601500D02*
G75*
G03*
X16587000Y-12671500I0J-35000D01*
G01*
X16587000Y-12671500D02*
X16687000Y-12671500D01*
X16687000Y-12671500D02*
G75*
G03*
X16687000Y-12601500I0J35000D01*
G01*
D13*
X17434000Y-10414000D02*
G75*
G03*
X17434000Y-10414000I-35000J0D01*
G01*
D11*
X17349000Y-10449000D02*
X17449000Y-10449000D01*
X17449000Y-10449000D02*
G75*
G03*
X17449000Y-10379000I0J35000D01*
G01*
X17449000Y-10379000D02*
X17349000Y-10379000D01*
X17349000Y-10379000D02*
G75*
G03*
X17349000Y-10449000I0J-35000D01*
G01*
D13*
X17434000Y-10922000D02*
G75*
G03*
X17434000Y-10922000I-35000J0D01*
G01*
D11*
X17349000Y-10957000D02*
X17449000Y-10957000D01*
X17449000Y-10957000D02*
G75*
G03*
X17449000Y-10887000I0J35000D01*
G01*
X17449000Y-10887000D02*
X17349000Y-10887000D01*
X17349000Y-10887000D02*
G75*
G03*
X17349000Y-10957000I0J-35000D01*
G01*
D13*
X17434000Y-12128500D02*
G75*
G03*
X17434000Y-12128500I-35000J0D01*
G01*
D11*
X17449000Y-12093500D02*
X17349000Y-12093500D01*
X17349000Y-12093500D02*
G75*
G03*
X17349000Y-12163500I0J-35000D01*
G01*
X17349000Y-12163500D02*
X17449000Y-12163500D01*
X17449000Y-12163500D02*
G75*
G03*
X17449000Y-12093500I0J35000D01*
G01*
D13*
X17434000Y-12636500D02*
G75*
G03*
X17434000Y-12636500I-35000J0D01*
G01*
D11*
X17449000Y-12601500D02*
X17349000Y-12601500D01*
X17349000Y-12601500D02*
G75*
G03*
X17349000Y-12671500I0J-35000D01*
G01*
X17349000Y-12671500D02*
X17449000Y-12671500D01*
X17449000Y-12671500D02*
G75*
G03*
X17449000Y-12601500I0J35000D01*
G01*
D13*
X18196000Y-10414000D02*
G75*
G03*
X18196000Y-10414000I-35000J0D01*
G01*
D11*
X18111000Y-10449000D02*
X18211000Y-10449000D01*
X18211000Y-10449000D02*
G75*
G03*
X18211000Y-10379000I0J35000D01*
G01*
X18211000Y-10379000D02*
X18111000Y-10379000D01*
X18111000Y-10379000D02*
G75*
G03*
X18111000Y-10449000I0J-35000D01*
G01*
D13*
X18196000Y-10922000D02*
G75*
G03*
X18196000Y-10922000I-35000J0D01*
G01*
D11*
X18111000Y-10957000D02*
X18211000Y-10957000D01*
X18211000Y-10957000D02*
G75*
G03*
X18211000Y-10887000I0J35000D01*
G01*
X18211000Y-10887000D02*
X18111000Y-10887000D01*
X18111000Y-10887000D02*
G75*
G03*
X18111000Y-10957000I0J-35000D01*
G01*
D13*
X18196000Y-12128500D02*
G75*
G03*
X18196000Y-12128500I-35000J0D01*
G01*
D11*
X18211000Y-12093500D02*
X18111000Y-12093500D01*
X18111000Y-12093500D02*
G75*
G03*
X18111000Y-12163500I0J-35000D01*
G01*
X18111000Y-12163500D02*
X18211000Y-12163500D01*
X18211000Y-12163500D02*
G75*
G03*
X18211000Y-12093500I0J35000D01*
G01*
D13*
X18196000Y-12636500D02*
G75*
G03*
X18196000Y-12636500I-35000J0D01*
G01*
D11*
X18211000Y-12601500D02*
X18111000Y-12601500D01*
X18111000Y-12601500D02*
G75*
G03*
X18111000Y-12671500I0J-35000D01*
G01*
X18111000Y-12671500D02*
X18211000Y-12671500D01*
X18211000Y-12671500D02*
G75*
G03*
X18211000Y-12601500I0J35000D01*
G01*
D13*
X18958000Y-10414000D02*
G75*
G03*
X18958000Y-10414000I-35000J0D01*
G01*
D11*
X18873000Y-10449000D02*
X18973000Y-10449000D01*
X18973000Y-10449000D02*
G75*
G03*
X18973000Y-10379000I0J35000D01*
G01*
X18973000Y-10379000D02*
X18873000Y-10379000D01*
X18873000Y-10379000D02*
G75*
G03*
X18873000Y-10449000I0J-35000D01*
G01*
D13*
X18958000Y-10922000D02*
G75*
G03*
X18958000Y-10922000I-35000J0D01*
G01*
D11*
X18873000Y-10957000D02*
X18973000Y-10957000D01*
X18973000Y-10957000D02*
G75*
G03*
X18973000Y-10887000I0J35000D01*
G01*
X18973000Y-10887000D02*
X18873000Y-10887000D01*
X18873000Y-10887000D02*
G75*
G03*
X18873000Y-10957000I0J-35000D01*
G01*
D13*
X18958000Y-12128500D02*
G75*
G03*
X18958000Y-12128500I-35000J0D01*
G01*
D11*
X18973000Y-12093500D02*
X18873000Y-12093500D01*
X18873000Y-12093500D02*
G75*
G03*
X18873000Y-12163500I0J-35000D01*
G01*
X18873000Y-12163500D02*
X18973000Y-12163500D01*
X18973000Y-12163500D02*
G75*
G03*
X18973000Y-12093500I0J35000D01*
G01*
D13*
X18958000Y-12636500D02*
G75*
G03*
X18958000Y-12636500I-35000J0D01*
G01*
D11*
X18973000Y-12601500D02*
X18873000Y-12601500D01*
X18873000Y-12601500D02*
G75*
G03*
X18873000Y-12671500I0J-35000D01*
G01*
X18873000Y-12671500D02*
X18973000Y-12671500D01*
X18973000Y-12671500D02*
G75*
G03*
X18973000Y-12601500I0J35000D01*
G01*
D13*
X19720000Y-10414000D02*
G75*
G03*
X19720000Y-10414000I-35000J0D01*
G01*
D11*
X19635000Y-10449000D02*
X19735000Y-10449000D01*
X19735000Y-10449000D02*
G75*
G03*
X19735000Y-10379000I0J35000D01*
G01*
X19735000Y-10379000D02*
X19635000Y-10379000D01*
X19635000Y-10379000D02*
G75*
G03*
X19635000Y-10449000I0J-35000D01*
G01*
D13*
X19720000Y-10922000D02*
G75*
G03*
X19720000Y-10922000I-35000J0D01*
G01*
D11*
X19635000Y-10957000D02*
X19735000Y-10957000D01*
X19735000Y-10957000D02*
G75*
G03*
X19735000Y-10887000I0J35000D01*
G01*
X19735000Y-10887000D02*
X19635000Y-10887000D01*
X19635000Y-10887000D02*
G75*
G03*
X19635000Y-10957000I0J-35000D01*
G01*
D13*
X19720000Y-12128500D02*
G75*
G03*
X19720000Y-12128500I-35000J0D01*
G01*
D11*
X19735000Y-12093500D02*
X19635000Y-12093500D01*
X19635000Y-12093500D02*
G75*
G03*
X19635000Y-12163500I0J-35000D01*
G01*
X19635000Y-12163500D02*
X19735000Y-12163500D01*
X19735000Y-12163500D02*
G75*
G03*
X19735000Y-12093500I0J35000D01*
G01*
D13*
X19720000Y-12636500D02*
G75*
G03*
X19720000Y-12636500I-35000J0D01*
G01*
D11*
X19735000Y-12601500D02*
X19635000Y-12601500D01*
X19635000Y-12601500D02*
G75*
G03*
X19635000Y-12671500I0J-35000D01*
G01*
X19635000Y-12671500D02*
X19735000Y-12671500D01*
X19735000Y-12671500D02*
G75*
G03*
X19735000Y-12601500I0J35000D01*
G01*
D13*
X20482000Y-10414000D02*
G75*
G03*
X20482000Y-10414000I-35000J0D01*
G01*
D11*
X20397000Y-10449000D02*
X20497000Y-10449000D01*
X20497000Y-10449000D02*
G75*
G03*
X20497000Y-10379000I0J35000D01*
G01*
X20497000Y-10379000D02*
X20397000Y-10379000D01*
X20397000Y-10379000D02*
G75*
G03*
X20397000Y-10449000I0J-35000D01*
G01*
D13*
X20482000Y-10922000D02*
G75*
G03*
X20482000Y-10922000I-35000J0D01*
G01*
D11*
X20397000Y-10957000D02*
X20497000Y-10957000D01*
X20497000Y-10957000D02*
G75*
G03*
X20497000Y-10887000I0J35000D01*
G01*
X20497000Y-10887000D02*
X20397000Y-10887000D01*
X20397000Y-10887000D02*
G75*
G03*
X20397000Y-10957000I0J-35000D01*
G01*
D13*
X20482000Y-12128500D02*
G75*
G03*
X20482000Y-12128500I-35000J0D01*
G01*
D11*
X20497000Y-12093500D02*
X20397000Y-12093500D01*
X20397000Y-12093500D02*
G75*
G03*
X20397000Y-12163500I0J-35000D01*
G01*
X20397000Y-12163500D02*
X20497000Y-12163500D01*
X20497000Y-12163500D02*
G75*
G03*
X20497000Y-12093500I0J35000D01*
G01*
D13*
X20482000Y-12636500D02*
G75*
G03*
X20482000Y-12636500I-35000J0D01*
G01*
D11*
X20497000Y-12601500D02*
X20397000Y-12601500D01*
X20397000Y-12601500D02*
G75*
G03*
X20397000Y-12671500I0J-35000D01*
G01*
X20397000Y-12671500D02*
X20497000Y-12671500D01*
X20497000Y-12671500D02*
G75*
G03*
X20497000Y-12601500I0J35000D01*
G01*
D14*
X13970000Y-10808500D02*
X13970000Y-10908500D01*
X13920000Y-10858500D02*
X14020000Y-10858500D01*
X13970000Y-11062500D02*
X13970000Y-11162500D01*
X13920000Y-11112500D02*
X14020000Y-11112500D01*
X13970000Y-11316500D02*
X13970000Y-11416500D01*
X13920000Y-11366500D02*
X14020000Y-11366500D01*
X13970000Y-11570500D02*
X13970000Y-11670500D01*
X13920000Y-11620500D02*
X14020000Y-11620500D01*
X16179800Y-10986300D02*
X16179800Y-11086300D01*
X16129800Y-11036300D02*
X16229800Y-11036300D01*
X16179800Y-11240300D02*
X16179800Y-11340300D01*
X16129800Y-11290300D02*
X16229800Y-11290300D01*
X16179800Y-11494300D02*
X16179800Y-11594300D01*
X16129800Y-11544300D02*
X16229800Y-11544300D01*
X16179800Y-11748300D02*
X16179800Y-11848300D01*
X16129800Y-11798300D02*
X16229800Y-11798300D01*
X16179800Y-12002300D02*
X16179800Y-12102300D01*
X16129800Y-12052300D02*
X16229800Y-12052300D01*
X16497300Y-10605300D02*
X16497300Y-10705300D01*
X16447300Y-10655300D02*
X16547300Y-10655300D01*
X16497300Y-12383300D02*
X16497300Y-12483300D01*
X16447300Y-12433300D02*
X16547300Y-12433300D01*
X16497300Y-12764300D02*
X16497300Y-12864300D01*
X16447300Y-12814300D02*
X16547300Y-12814300D01*
X16510000Y-11253000D02*
X16510000Y-11353000D01*
X16460000Y-11303000D02*
X16560000Y-11303000D01*
X16510000Y-11507000D02*
X16510000Y-11607000D01*
X16460000Y-11557000D02*
X16560000Y-11557000D01*
X16510000Y-13094500D02*
X16510000Y-13194500D01*
X16460000Y-13144500D02*
X16560000Y-13144500D01*
X16751300Y-10605300D02*
X16751300Y-10705300D01*
X16701300Y-10655300D02*
X16801300Y-10655300D01*
X16751300Y-12383300D02*
X16751300Y-12483300D01*
X16701300Y-12433300D02*
X16801300Y-12433300D01*
X16751300Y-12764300D02*
X16751300Y-12864300D01*
X16701300Y-12814300D02*
X16801300Y-12814300D01*
X16764000Y-9983000D02*
X16764000Y-10083000D01*
X16714000Y-10033000D02*
X16814000Y-10033000D01*
X16764000Y-11253000D02*
X16764000Y-11353000D01*
X16714000Y-11303000D02*
X16814000Y-11303000D01*
X16764000Y-11507000D02*
X16764000Y-11607000D01*
X16714000Y-11557000D02*
X16814000Y-11557000D01*
X16764000Y-11735600D02*
X16764000Y-11835600D01*
X16714000Y-11785600D02*
X16814000Y-11785600D01*
X16764000Y-13094500D02*
X16764000Y-13194500D01*
X16714000Y-13144500D02*
X16814000Y-13144500D01*
X17005300Y-10605300D02*
X17005300Y-10705300D01*
X16955300Y-10655300D02*
X17055300Y-10655300D01*
X17005300Y-12383300D02*
X17005300Y-12483300D01*
X16955300Y-12433300D02*
X17055300Y-12433300D01*
X17005300Y-12764300D02*
X17005300Y-12864300D01*
X16955300Y-12814300D02*
X17055300Y-12814300D01*
X17018000Y-9983000D02*
X17018000Y-10083000D01*
X16968000Y-10033000D02*
X17068000Y-10033000D01*
X17018000Y-11253000D02*
X17018000Y-11353000D01*
X16968000Y-11303000D02*
X17068000Y-11303000D01*
X17018000Y-11507000D02*
X17018000Y-11607000D01*
X16968000Y-11557000D02*
X17068000Y-11557000D01*
X17018000Y-11735600D02*
X17018000Y-11835600D01*
X16968000Y-11785600D02*
X17068000Y-11785600D01*
X17018000Y-13094500D02*
X17018000Y-13194500D01*
X16968000Y-13144500D02*
X17068000Y-13144500D01*
X17259300Y-10605300D02*
X17259300Y-10705300D01*
X17209300Y-10655300D02*
X17309300Y-10655300D01*
X17259300Y-12383300D02*
X17259300Y-12483300D01*
X17209300Y-12433300D02*
X17309300Y-12433300D01*
X17259300Y-12764300D02*
X17259300Y-12864300D01*
X17209300Y-12814300D02*
X17309300Y-12814300D01*
X17272000Y-9983000D02*
X17272000Y-10083000D01*
X17222000Y-10033000D02*
X17322000Y-10033000D01*
X17272000Y-11253000D02*
X17272000Y-11353000D01*
X17222000Y-11303000D02*
X17322000Y-11303000D01*
X17272000Y-11507000D02*
X17272000Y-11607000D01*
X17222000Y-11557000D02*
X17322000Y-11557000D01*
X17272000Y-11735600D02*
X17272000Y-11835600D01*
X17222000Y-11785600D02*
X17322000Y-11785600D01*
X17272000Y-13094500D02*
X17272000Y-13194500D01*
X17222000Y-13144500D02*
X17322000Y-13144500D01*
X17513300Y-10605300D02*
X17513300Y-10705300D01*
X17463300Y-10655300D02*
X17563300Y-10655300D01*
X17513300Y-12383300D02*
X17513300Y-12483300D01*
X17463300Y-12433300D02*
X17563300Y-12433300D01*
X17513300Y-12764300D02*
X17513300Y-12864300D01*
X17463300Y-12814300D02*
X17563300Y-12814300D01*
X17526000Y-9983000D02*
X17526000Y-10083000D01*
X17476000Y-10033000D02*
X17576000Y-10033000D01*
X17526000Y-11253000D02*
X17526000Y-11353000D01*
X17476000Y-11303000D02*
X17576000Y-11303000D01*
X17526000Y-11507000D02*
X17526000Y-11607000D01*
X17476000Y-11557000D02*
X17576000Y-11557000D01*
X17526000Y-11735600D02*
X17526000Y-11835600D01*
X17476000Y-11785600D02*
X17576000Y-11785600D01*
X17526000Y-13094500D02*
X17526000Y-13194500D01*
X17476000Y-13144500D02*
X17576000Y-13144500D01*
X17767300Y-10605300D02*
X17767300Y-10705300D01*
X17717300Y-10655300D02*
X17817300Y-10655300D01*
X17767300Y-12383300D02*
X17767300Y-12483300D01*
X17717300Y-12433300D02*
X17817300Y-12433300D01*
X17767300Y-12764300D02*
X17767300Y-12864300D01*
X17717300Y-12814300D02*
X17817300Y-12814300D01*
X17780000Y-9983000D02*
X17780000Y-10083000D01*
X17730000Y-10033000D02*
X17830000Y-10033000D01*
X17780000Y-11253000D02*
X17780000Y-11353000D01*
X17730000Y-11303000D02*
X17830000Y-11303000D01*
X17780000Y-11507000D02*
X17780000Y-11607000D01*
X17730000Y-11557000D02*
X17830000Y-11557000D01*
X17780000Y-11735600D02*
X17780000Y-11835600D01*
X17730000Y-11785600D02*
X17830000Y-11785600D01*
X17780000Y-13094500D02*
X17780000Y-13194500D01*
X17730000Y-13144500D02*
X17830000Y-13144500D01*
X18021300Y-10605300D02*
X18021300Y-10705300D01*
X17971300Y-10655300D02*
X18071300Y-10655300D01*
X18021300Y-12383300D02*
X18021300Y-12483300D01*
X17971300Y-12433300D02*
X18071300Y-12433300D01*
X18021300Y-12764300D02*
X18021300Y-12864300D01*
X17971300Y-12814300D02*
X18071300Y-12814300D01*
X18034000Y-9983000D02*
X18034000Y-10083000D01*
X17984000Y-10033000D02*
X18084000Y-10033000D01*
X18034000Y-11253000D02*
X18034000Y-11353000D01*
X17984000Y-11303000D02*
X18084000Y-11303000D01*
X18034000Y-11507000D02*
X18034000Y-11607000D01*
X17984000Y-11557000D02*
X18084000Y-11557000D01*
X18034000Y-11735600D02*
X18034000Y-11835600D01*
X17984000Y-11785600D02*
X18084000Y-11785600D01*
X18034000Y-13094500D02*
X18034000Y-13194500D01*
X17984000Y-13144500D02*
X18084000Y-13144500D01*
X18275300Y-10605300D02*
X18275300Y-10705300D01*
X18225300Y-10655300D02*
X18325300Y-10655300D01*
X18275300Y-12383300D02*
X18275300Y-12483300D01*
X18225300Y-12433300D02*
X18325300Y-12433300D01*
X18275300Y-12764300D02*
X18275300Y-12864300D01*
X18225300Y-12814300D02*
X18325300Y-12814300D01*
X18288000Y-9983000D02*
X18288000Y-10083000D01*
X18238000Y-10033000D02*
X18338000Y-10033000D01*
X18288000Y-11253000D02*
X18288000Y-11353000D01*
X18238000Y-11303000D02*
X18338000Y-11303000D01*
X18288000Y-11507000D02*
X18288000Y-11607000D01*
X18238000Y-11557000D02*
X18338000Y-11557000D01*
X18288000Y-11735600D02*
X18288000Y-11835600D01*
X18238000Y-11785600D02*
X18338000Y-11785600D01*
X18288000Y-13094500D02*
X18288000Y-13194500D01*
X18238000Y-13144500D02*
X18338000Y-13144500D01*
X18529300Y-10605300D02*
X18529300Y-10705300D01*
X18479300Y-10655300D02*
X18579300Y-10655300D01*
X18529300Y-12383300D02*
X18529300Y-12483300D01*
X18479300Y-12433300D02*
X18579300Y-12433300D01*
X18529300Y-12764300D02*
X18529300Y-12864300D01*
X18479300Y-12814300D02*
X18579300Y-12814300D01*
X18542000Y-9983000D02*
X18542000Y-10083000D01*
X18492000Y-10033000D02*
X18592000Y-10033000D01*
X18542000Y-11253000D02*
X18542000Y-11353000D01*
X18492000Y-11303000D02*
X18592000Y-11303000D01*
X18542000Y-11507000D02*
X18542000Y-11607000D01*
X18492000Y-11557000D02*
X18592000Y-11557000D01*
X18542000Y-11735600D02*
X18542000Y-11835600D01*
X18492000Y-11785600D02*
X18592000Y-11785600D01*
X18542000Y-13094500D02*
X18542000Y-13194500D01*
X18492000Y-13144500D02*
X18592000Y-13144500D01*
X18783300Y-10605300D02*
X18783300Y-10705300D01*
X18733300Y-10655300D02*
X18833300Y-10655300D01*
X18783300Y-12383300D02*
X18783300Y-12483300D01*
X18733300Y-12433300D02*
X18833300Y-12433300D01*
X18783300Y-12764300D02*
X18783300Y-12864300D01*
X18733300Y-12814300D02*
X18833300Y-12814300D01*
X18796000Y-9983000D02*
X18796000Y-10083000D01*
X18746000Y-10033000D02*
X18846000Y-10033000D01*
X18796000Y-11253000D02*
X18796000Y-11353000D01*
X18746000Y-11303000D02*
X18846000Y-11303000D01*
X18796000Y-11507000D02*
X18796000Y-11607000D01*
X18746000Y-11557000D02*
X18846000Y-11557000D01*
X18796000Y-11735600D02*
X18796000Y-11835600D01*
X18746000Y-11785600D02*
X18846000Y-11785600D01*
X18796000Y-13094500D02*
X18796000Y-13194500D01*
X18746000Y-13144500D02*
X18846000Y-13144500D01*
X19164300Y-11176800D02*
X19164300Y-11276800D01*
X19114300Y-11226800D02*
X19214300Y-11226800D01*
X19164300Y-11430800D02*
X19164300Y-11530800D01*
X19114300Y-11480800D02*
X19214300Y-11480800D01*
X19164300Y-11684800D02*
X19164300Y-11784800D01*
X19114300Y-11734800D02*
X19214300Y-11734800D01*
X19164300Y-11938800D02*
X19164300Y-12038800D01*
X19114300Y-11988800D02*
X19214300Y-11988800D01*
X19164300Y-12192800D02*
X19164300Y-12292800D01*
X19114300Y-12242800D02*
X19214300Y-12242800D01*
X19377000Y-10237000D02*
X19377000Y-10337000D01*
X19327000Y-10287000D02*
X19427000Y-10287000D01*
X19377000Y-10491000D02*
X19377000Y-10591000D01*
X19327000Y-10541000D02*
X19427000Y-10541000D01*
X19377000Y-10745000D02*
X19377000Y-10845000D01*
X19327000Y-10795000D02*
X19427000Y-10795000D01*
X19377000Y-10999000D02*
X19377000Y-11099000D01*
X19327000Y-11049000D02*
X19427000Y-11049000D01*
X19377000Y-11989600D02*
X19377000Y-12089600D01*
X19327000Y-12039600D02*
X19427000Y-12039600D01*
X19377000Y-12243600D02*
X19377000Y-12343600D01*
X19327000Y-12293600D02*
X19427000Y-12293600D01*
X19377000Y-12497600D02*
X19377000Y-12597600D01*
X19327000Y-12547600D02*
X19427000Y-12547600D01*
X19377000Y-12751600D02*
X19377000Y-12851600D01*
X19327000Y-12801600D02*
X19427000Y-12801600D01*
X20891500Y-10364000D02*
X20891500Y-10464000D01*
X20841500Y-10414000D02*
X20941500Y-10414000D01*
X20891500Y-13158000D02*
X20891500Y-13258000D01*
X20841500Y-13208000D02*
X20941500Y-13208000D01*
X21145500Y-10364000D02*
X21145500Y-10464000D01*
X21095500Y-10414000D02*
X21195500Y-10414000D01*
X21145500Y-13158000D02*
X21145500Y-13258000D01*
X21095500Y-13208000D02*
X21195500Y-13208000D01*
X21399500Y-10364000D02*
X21399500Y-10464000D01*
X21349500Y-10414000D02*
X21449500Y-10414000D01*
X21399500Y-10808500D02*
X21399500Y-10908500D01*
X21349500Y-10858500D02*
X21449500Y-10858500D01*
X21399500Y-11062500D02*
X21399500Y-11162500D01*
X21349500Y-11112500D02*
X21449500Y-11112500D01*
X21399500Y-11316500D02*
X21399500Y-11416500D01*
X21349500Y-11366500D02*
X21449500Y-11366500D01*
X21399500Y-11570500D02*
X21399500Y-11670500D01*
X21349500Y-11620500D02*
X21449500Y-11620500D01*
X21399500Y-13158000D02*
X21399500Y-13258000D01*
X21349500Y-13208000D02*
X21449500Y-13208000D01*
X21653500Y-10364000D02*
X21653500Y-10464000D01*
X21603500Y-10414000D02*
X21703500Y-10414000D01*
X21653500Y-13158000D02*
X21653500Y-13258000D01*
X21603500Y-13208000D02*
X21703500Y-13208000D01*
D11*
X14037777Y-13775984D02*
X14037777Y-13575984D01*
X14037777Y-13575984D02*
X14085396Y-13575984D01*
X14085396Y-13575984D02*
X14113967Y-13585508D01*
X14113967Y-13585508D02*
X14133015Y-13604555D01*
X14133015Y-13604555D02*
X14142539Y-13623603D01*
X14142539Y-13623603D02*
X14152062Y-13661698D01*
X14152062Y-13661698D02*
X14152062Y-13690269D01*
X14152062Y-13690269D02*
X14142539Y-13728365D01*
X14142539Y-13728365D02*
X14133015Y-13747412D01*
X14133015Y-13747412D02*
X14113967Y-13766460D01*
X14113967Y-13766460D02*
X14085396Y-13775984D01*
X14085396Y-13775984D02*
X14037777Y-13775984D01*
X14237777Y-13775984D02*
X14237777Y-13642650D01*
X14237777Y-13680746D02*
X14247301Y-13661698D01*
X14247301Y-13661698D02*
X14256824Y-13652174D01*
X14256824Y-13652174D02*
X14275872Y-13642650D01*
X14275872Y-13642650D02*
X14294920Y-13642650D01*
X14361586Y-13775984D02*
X14361586Y-13642650D01*
X14361586Y-13575984D02*
X14352062Y-13585508D01*
X14352062Y-13585508D02*
X14361586Y-13595031D01*
X14361586Y-13595031D02*
X14371110Y-13585508D01*
X14371110Y-13585508D02*
X14361586Y-13575984D01*
X14361586Y-13575984D02*
X14361586Y-13595031D01*
X14485396Y-13775984D02*
X14466348Y-13766460D01*
X14466348Y-13766460D02*
X14456824Y-13747412D01*
X14456824Y-13747412D02*
X14456824Y-13575984D01*
X14590158Y-13775984D02*
X14571110Y-13766460D01*
X14571110Y-13766460D02*
X14561586Y-13747412D01*
X14561586Y-13747412D02*
X14561586Y-13575984D01*
X14818729Y-13775984D02*
X14818729Y-13575984D01*
X14818729Y-13575984D02*
X14885396Y-13718841D01*
X14885396Y-13718841D02*
X14952062Y-13575984D01*
X14952062Y-13575984D02*
X14952062Y-13775984D01*
X15133015Y-13775984D02*
X15133015Y-13671222D01*
X15133015Y-13671222D02*
X15123491Y-13652174D01*
X15123491Y-13652174D02*
X15104443Y-13642650D01*
X15104443Y-13642650D02*
X15066348Y-13642650D01*
X15066348Y-13642650D02*
X15047301Y-13652174D01*
X15133015Y-13766460D02*
X15113967Y-13775984D01*
X15113967Y-13775984D02*
X15066348Y-13775984D01*
X15066348Y-13775984D02*
X15047301Y-13766460D01*
X15047301Y-13766460D02*
X15037777Y-13747412D01*
X15037777Y-13747412D02*
X15037777Y-13728365D01*
X15037777Y-13728365D02*
X15047301Y-13709317D01*
X15047301Y-13709317D02*
X15066348Y-13699793D01*
X15066348Y-13699793D02*
X15113967Y-13699793D01*
X15113967Y-13699793D02*
X15133015Y-13690269D01*
X15228253Y-13642650D02*
X15228253Y-13842650D01*
X15228253Y-13652174D02*
X15247301Y-13642650D01*
X15247301Y-13642650D02*
X15285396Y-13642650D01*
X15285396Y-13642650D02*
X15304443Y-13652174D01*
X15304443Y-13652174D02*
X15313967Y-13661698D01*
X15313967Y-13661698D02*
X15323491Y-13680746D01*
X15323491Y-13680746D02*
X15323491Y-13737888D01*
X15323491Y-13737888D02*
X15313967Y-13756936D01*
X15313967Y-13756936D02*
X15304443Y-13766460D01*
X15304443Y-13766460D02*
X15285396Y-13775984D01*
X15285396Y-13775984D02*
X15247301Y-13775984D01*
X15247301Y-13775984D02*
X15228253Y-13766460D01*
X15409205Y-13756936D02*
X15418729Y-13766460D01*
X15418729Y-13766460D02*
X15409205Y-13775984D01*
X15409205Y-13775984D02*
X15399682Y-13766460D01*
X15399682Y-13766460D02*
X15409205Y-13756936D01*
X15409205Y-13756936D02*
X15409205Y-13775984D01*
X15409205Y-13652174D02*
X15418729Y-13661698D01*
X15418729Y-13661698D02*
X15409205Y-13671222D01*
X15409205Y-13671222D02*
X15399682Y-13661698D01*
X15399682Y-13661698D02*
X15409205Y-13652174D01*
X15409205Y-13652174D02*
X15409205Y-13671222D01*
D12*
X13717000Y-14074500D02*
X13777000Y-14134500D01*
X13777000Y-14074500D02*
X13717000Y-14134500D01*
D11*
X14075872Y-13995984D02*
X14094920Y-13995984D01*
X14094920Y-13995984D02*
X14113967Y-14005508D01*
X14113967Y-14005508D02*
X14123491Y-14015031D01*
X14123491Y-14015031D02*
X14133015Y-14034079D01*
X14133015Y-14034079D02*
X14142539Y-14072174D01*
X14142539Y-14072174D02*
X14142539Y-14119793D01*
X14142539Y-14119793D02*
X14133015Y-14157888D01*
X14133015Y-14157888D02*
X14123491Y-14176936D01*
X14123491Y-14176936D02*
X14113967Y-14186460D01*
X14113967Y-14186460D02*
X14094920Y-14195984D01*
X14094920Y-14195984D02*
X14075872Y-14195984D01*
X14075872Y-14195984D02*
X14056824Y-14186460D01*
X14056824Y-14186460D02*
X14047301Y-14176936D01*
X14047301Y-14176936D02*
X14037777Y-14157888D01*
X14037777Y-14157888D02*
X14028253Y-14119793D01*
X14028253Y-14119793D02*
X14028253Y-14072174D01*
X14028253Y-14072174D02*
X14037777Y-14034079D01*
X14037777Y-14034079D02*
X14047301Y-14015031D01*
X14047301Y-14015031D02*
X14056824Y-14005508D01*
X14056824Y-14005508D02*
X14075872Y-13995984D01*
X14228253Y-14176936D02*
X14237777Y-14186460D01*
X14237777Y-14186460D02*
X14228253Y-14195984D01*
X14228253Y-14195984D02*
X14218729Y-14186460D01*
X14218729Y-14186460D02*
X14228253Y-14176936D01*
X14228253Y-14176936D02*
X14228253Y-14195984D01*
X14409205Y-13995984D02*
X14371110Y-13995984D01*
X14371110Y-13995984D02*
X14352062Y-14005508D01*
X14352062Y-14005508D02*
X14342539Y-14015031D01*
X14342539Y-14015031D02*
X14323491Y-14043603D01*
X14323491Y-14043603D02*
X14313967Y-14081698D01*
X14313967Y-14081698D02*
X14313967Y-14157888D01*
X14313967Y-14157888D02*
X14323491Y-14176936D01*
X14323491Y-14176936D02*
X14333015Y-14186460D01*
X14333015Y-14186460D02*
X14352062Y-14195984D01*
X14352062Y-14195984D02*
X14390158Y-14195984D01*
X14390158Y-14195984D02*
X14409205Y-14186460D01*
X14409205Y-14186460D02*
X14418729Y-14176936D01*
X14418729Y-14176936D02*
X14428253Y-14157888D01*
X14428253Y-14157888D02*
X14428253Y-14110269D01*
X14428253Y-14110269D02*
X14418729Y-14091222D01*
X14418729Y-14091222D02*
X14409205Y-14081698D01*
X14409205Y-14081698D02*
X14390158Y-14072174D01*
X14390158Y-14072174D02*
X14352062Y-14072174D01*
X14352062Y-14072174D02*
X14333015Y-14081698D01*
X14333015Y-14081698D02*
X14323491Y-14091222D01*
X14323491Y-14091222D02*
X14313967Y-14110269D01*
X14552062Y-13995984D02*
X14571110Y-13995984D01*
X14571110Y-13995984D02*
X14590158Y-14005508D01*
X14590158Y-14005508D02*
X14599682Y-14015031D01*
X14599682Y-14015031D02*
X14609205Y-14034079D01*
X14609205Y-14034079D02*
X14618729Y-14072174D01*
X14618729Y-14072174D02*
X14618729Y-14119793D01*
X14618729Y-14119793D02*
X14609205Y-14157888D01*
X14609205Y-14157888D02*
X14599682Y-14176936D01*
X14599682Y-14176936D02*
X14590158Y-14186460D01*
X14590158Y-14186460D02*
X14571110Y-14195984D01*
X14571110Y-14195984D02*
X14552062Y-14195984D01*
X14552062Y-14195984D02*
X14533015Y-14186460D01*
X14533015Y-14186460D02*
X14523491Y-14176936D01*
X14523491Y-14176936D02*
X14513967Y-14157888D01*
X14513967Y-14157888D02*
X14504443Y-14119793D01*
X14504443Y-14119793D02*
X14504443Y-14072174D01*
X14504443Y-14072174D02*
X14513967Y-14034079D01*
X14513967Y-14034079D02*
X14523491Y-14015031D01*
X14523491Y-14015031D02*
X14533015Y-14005508D01*
X14533015Y-14005508D02*
X14552062Y-13995984D01*
X14742539Y-13995984D02*
X14761586Y-13995984D01*
X14761586Y-13995984D02*
X14780634Y-14005508D01*
X14780634Y-14005508D02*
X14790158Y-14015031D01*
X14790158Y-14015031D02*
X14799682Y-14034079D01*
X14799682Y-14034079D02*
X14809205Y-14072174D01*
X14809205Y-14072174D02*
X14809205Y-14119793D01*
X14809205Y-14119793D02*
X14799682Y-14157888D01*
X14799682Y-14157888D02*
X14790158Y-14176936D01*
X14790158Y-14176936D02*
X14780634Y-14186460D01*
X14780634Y-14186460D02*
X14761586Y-14195984D01*
X14761586Y-14195984D02*
X14742539Y-14195984D01*
X14742539Y-14195984D02*
X14723491Y-14186460D01*
X14723491Y-14186460D02*
X14713967Y-14176936D01*
X14713967Y-14176936D02*
X14704443Y-14157888D01*
X14704443Y-14157888D02*
X14694920Y-14119793D01*
X14694920Y-14119793D02*
X14694920Y-14072174D01*
X14694920Y-14072174D02*
X14704443Y-14034079D01*
X14704443Y-14034079D02*
X14713967Y-14015031D01*
X14713967Y-14015031D02*
X14723491Y-14005508D01*
X14723491Y-14005508D02*
X14742539Y-13995984D01*
X14894920Y-14195984D02*
X14894920Y-14062650D01*
X14894920Y-14081698D02*
X14904443Y-14072174D01*
X14904443Y-14072174D02*
X14923491Y-14062650D01*
X14923491Y-14062650D02*
X14952063Y-14062650D01*
X14952063Y-14062650D02*
X14971110Y-14072174D01*
X14971110Y-14072174D02*
X14980634Y-14091222D01*
X14980634Y-14091222D02*
X14980634Y-14195984D01*
X14980634Y-14091222D02*
X14990158Y-14072174D01*
X14990158Y-14072174D02*
X15009205Y-14062650D01*
X15009205Y-14062650D02*
X15037777Y-14062650D01*
X15037777Y-14062650D02*
X15056824Y-14072174D01*
X15056824Y-14072174D02*
X15066348Y-14091222D01*
X15066348Y-14091222D02*
X15066348Y-14195984D01*
X15161586Y-14195984D02*
X15161586Y-14062650D01*
X15161586Y-14081698D02*
X15171110Y-14072174D01*
X15171110Y-14072174D02*
X15190158Y-14062650D01*
X15190158Y-14062650D02*
X15218729Y-14062650D01*
X15218729Y-14062650D02*
X15237777Y-14072174D01*
X15237777Y-14072174D02*
X15247301Y-14091222D01*
X15247301Y-14091222D02*
X15247301Y-14195984D01*
X15247301Y-14091222D02*
X15256824Y-14072174D01*
X15256824Y-14072174D02*
X15275872Y-14062650D01*
X15275872Y-14062650D02*
X15304443Y-14062650D01*
X15304443Y-14062650D02*
X15323491Y-14072174D01*
X15323491Y-14072174D02*
X15333015Y-14091222D01*
X15333015Y-14091222D02*
X15333015Y-14195984D01*
X15723491Y-13986460D02*
X15552063Y-14243603D01*
X15980634Y-13995984D02*
X15999682Y-13995984D01*
X15999682Y-13995984D02*
X16018729Y-14005508D01*
X16018729Y-14005508D02*
X16028253Y-14015031D01*
X16028253Y-14015031D02*
X16037777Y-14034079D01*
X16037777Y-14034079D02*
X16047301Y-14072174D01*
X16047301Y-14072174D02*
X16047301Y-14119793D01*
X16047301Y-14119793D02*
X16037777Y-14157888D01*
X16037777Y-14157888D02*
X16028253Y-14176936D01*
X16028253Y-14176936D02*
X16018729Y-14186460D01*
X16018729Y-14186460D02*
X15999682Y-14195984D01*
X15999682Y-14195984D02*
X15980634Y-14195984D01*
X15980634Y-14195984D02*
X15961586Y-14186460D01*
X15961586Y-14186460D02*
X15952063Y-14176936D01*
X15952063Y-14176936D02*
X15942539Y-14157888D01*
X15942539Y-14157888D02*
X15933015Y-14119793D01*
X15933015Y-14119793D02*
X15933015Y-14072174D01*
X15933015Y-14072174D02*
X15942539Y-14034079D01*
X15942539Y-14034079D02*
X15952063Y-14015031D01*
X15952063Y-14015031D02*
X15961586Y-14005508D01*
X15961586Y-14005508D02*
X15980634Y-13995984D01*
X16133015Y-14176936D02*
X16142539Y-14186460D01*
X16142539Y-14186460D02*
X16133015Y-14195984D01*
X16133015Y-14195984D02*
X16123491Y-14186460D01*
X16123491Y-14186460D02*
X16133015Y-14176936D01*
X16133015Y-14176936D02*
X16133015Y-14195984D01*
X16266348Y-13995984D02*
X16285396Y-13995984D01*
X16285396Y-13995984D02*
X16304444Y-14005508D01*
X16304444Y-14005508D02*
X16313967Y-14015031D01*
X16313967Y-14015031D02*
X16323491Y-14034079D01*
X16323491Y-14034079D02*
X16333015Y-14072174D01*
X16333015Y-14072174D02*
X16333015Y-14119793D01*
X16333015Y-14119793D02*
X16323491Y-14157888D01*
X16323491Y-14157888D02*
X16313967Y-14176936D01*
X16313967Y-14176936D02*
X16304444Y-14186460D01*
X16304444Y-14186460D02*
X16285396Y-14195984D01*
X16285396Y-14195984D02*
X16266348Y-14195984D01*
X16266348Y-14195984D02*
X16247301Y-14186460D01*
X16247301Y-14186460D02*
X16237777Y-14176936D01*
X16237777Y-14176936D02*
X16228253Y-14157888D01*
X16228253Y-14157888D02*
X16218729Y-14119793D01*
X16218729Y-14119793D02*
X16218729Y-14072174D01*
X16218729Y-14072174D02*
X16228253Y-14034079D01*
X16228253Y-14034079D02*
X16237777Y-14015031D01*
X16237777Y-14015031D02*
X16247301Y-14005508D01*
X16247301Y-14005508D02*
X16266348Y-13995984D01*
X16409206Y-14015031D02*
X16418729Y-14005508D01*
X16418729Y-14005508D02*
X16437777Y-13995984D01*
X16437777Y-13995984D02*
X16485396Y-13995984D01*
X16485396Y-13995984D02*
X16504444Y-14005508D01*
X16504444Y-14005508D02*
X16513967Y-14015031D01*
X16513967Y-14015031D02*
X16523491Y-14034079D01*
X16523491Y-14034079D02*
X16523491Y-14053127D01*
X16523491Y-14053127D02*
X16513967Y-14081698D01*
X16513967Y-14081698D02*
X16399682Y-14195984D01*
X16399682Y-14195984D02*
X16523491Y-14195984D01*
X16590158Y-13995984D02*
X16713967Y-13995984D01*
X16713967Y-13995984D02*
X16647301Y-14072174D01*
X16647301Y-14072174D02*
X16675872Y-14072174D01*
X16675872Y-14072174D02*
X16694920Y-14081698D01*
X16694920Y-14081698D02*
X16704444Y-14091222D01*
X16704444Y-14091222D02*
X16713967Y-14110269D01*
X16713967Y-14110269D02*
X16713967Y-14157888D01*
X16713967Y-14157888D02*
X16704444Y-14176936D01*
X16704444Y-14176936D02*
X16694920Y-14186460D01*
X16694920Y-14186460D02*
X16675872Y-14195984D01*
X16675872Y-14195984D02*
X16618729Y-14195984D01*
X16618729Y-14195984D02*
X16599682Y-14186460D01*
X16599682Y-14186460D02*
X16590158Y-14176936D01*
X16885396Y-13995984D02*
X16847301Y-13995984D01*
X16847301Y-13995984D02*
X16828253Y-14005508D01*
X16828253Y-14005508D02*
X16818729Y-14015031D01*
X16818729Y-14015031D02*
X16799682Y-14043603D01*
X16799682Y-14043603D02*
X16790158Y-14081698D01*
X16790158Y-14081698D02*
X16790158Y-14157888D01*
X16790158Y-14157888D02*
X16799682Y-14176936D01*
X16799682Y-14176936D02*
X16809206Y-14186460D01*
X16809206Y-14186460D02*
X16828253Y-14195984D01*
X16828253Y-14195984D02*
X16866349Y-14195984D01*
X16866349Y-14195984D02*
X16885396Y-14186460D01*
X16885396Y-14186460D02*
X16894920Y-14176936D01*
X16894920Y-14176936D02*
X16904444Y-14157888D01*
X16904444Y-14157888D02*
X16904444Y-14110269D01*
X16904444Y-14110269D02*
X16894920Y-14091222D01*
X16894920Y-14091222D02*
X16885396Y-14081698D01*
X16885396Y-14081698D02*
X16866349Y-14072174D01*
X16866349Y-14072174D02*
X16828253Y-14072174D01*
X16828253Y-14072174D02*
X16809206Y-14081698D01*
X16809206Y-14081698D02*
X16799682Y-14091222D01*
X16799682Y-14091222D02*
X16790158Y-14110269D01*
X16980634Y-13995984D02*
X16980634Y-14034079D01*
X17056825Y-13995984D02*
X17056825Y-14034079D01*
X17352063Y-14272174D02*
X17342539Y-14262650D01*
X17342539Y-14262650D02*
X17323491Y-14234079D01*
X17323491Y-14234079D02*
X17313968Y-14215031D01*
X17313968Y-14215031D02*
X17304444Y-14186460D01*
X17304444Y-14186460D02*
X17294920Y-14138841D01*
X17294920Y-14138841D02*
X17294920Y-14100746D01*
X17294920Y-14100746D02*
X17304444Y-14053127D01*
X17304444Y-14053127D02*
X17313968Y-14024555D01*
X17313968Y-14024555D02*
X17323491Y-14005508D01*
X17323491Y-14005508D02*
X17342539Y-13976936D01*
X17342539Y-13976936D02*
X17352063Y-13967412D01*
X17533015Y-14195984D02*
X17418730Y-14195984D01*
X17475872Y-14195984D02*
X17475872Y-13995984D01*
X17475872Y-13995984D02*
X17456825Y-14024555D01*
X17456825Y-14024555D02*
X17437777Y-14043603D01*
X17437777Y-14043603D02*
X17418730Y-14053127D01*
X17723491Y-14195984D02*
X17609206Y-14195984D01*
X17666349Y-14195984D02*
X17666349Y-13995984D01*
X17666349Y-13995984D02*
X17647301Y-14024555D01*
X17647301Y-14024555D02*
X17628253Y-14043603D01*
X17628253Y-14043603D02*
X17609206Y-14053127D01*
X17961587Y-14195984D02*
X17961587Y-13995984D01*
X18047301Y-14195984D02*
X18047301Y-14091222D01*
X18047301Y-14091222D02*
X18037777Y-14072174D01*
X18037777Y-14072174D02*
X18018730Y-14062650D01*
X18018730Y-14062650D02*
X17990158Y-14062650D01*
X17990158Y-14062650D02*
X17971111Y-14072174D01*
X17971111Y-14072174D02*
X17961587Y-14081698D01*
X18171111Y-14195984D02*
X18152063Y-14186460D01*
X18152063Y-14186460D02*
X18142539Y-14176936D01*
X18142539Y-14176936D02*
X18133015Y-14157888D01*
X18133015Y-14157888D02*
X18133015Y-14100746D01*
X18133015Y-14100746D02*
X18142539Y-14081698D01*
X18142539Y-14081698D02*
X18152063Y-14072174D01*
X18152063Y-14072174D02*
X18171111Y-14062650D01*
X18171111Y-14062650D02*
X18199682Y-14062650D01*
X18199682Y-14062650D02*
X18218730Y-14072174D01*
X18218730Y-14072174D02*
X18228253Y-14081698D01*
X18228253Y-14081698D02*
X18237777Y-14100746D01*
X18237777Y-14100746D02*
X18237777Y-14157888D01*
X18237777Y-14157888D02*
X18228253Y-14176936D01*
X18228253Y-14176936D02*
X18218730Y-14186460D01*
X18218730Y-14186460D02*
X18199682Y-14195984D01*
X18199682Y-14195984D02*
X18171111Y-14195984D01*
X18352063Y-14195984D02*
X18333015Y-14186460D01*
X18333015Y-14186460D02*
X18323492Y-14167412D01*
X18323492Y-14167412D02*
X18323492Y-13995984D01*
X18504444Y-14186460D02*
X18485396Y-14195984D01*
X18485396Y-14195984D02*
X18447301Y-14195984D01*
X18447301Y-14195984D02*
X18428253Y-14186460D01*
X18428253Y-14186460D02*
X18418730Y-14167412D01*
X18418730Y-14167412D02*
X18418730Y-14091222D01*
X18418730Y-14091222D02*
X18428253Y-14072174D01*
X18428253Y-14072174D02*
X18447301Y-14062650D01*
X18447301Y-14062650D02*
X18485396Y-14062650D01*
X18485396Y-14062650D02*
X18504444Y-14072174D01*
X18504444Y-14072174D02*
X18513968Y-14091222D01*
X18513968Y-14091222D02*
X18513968Y-14110269D01*
X18513968Y-14110269D02*
X18418730Y-14129317D01*
X18590158Y-14186460D02*
X18609206Y-14195984D01*
X18609206Y-14195984D02*
X18647301Y-14195984D01*
X18647301Y-14195984D02*
X18666349Y-14186460D01*
X18666349Y-14186460D02*
X18675873Y-14167412D01*
X18675873Y-14167412D02*
X18675873Y-14157888D01*
X18675873Y-14157888D02*
X18666349Y-14138841D01*
X18666349Y-14138841D02*
X18647301Y-14129317D01*
X18647301Y-14129317D02*
X18618730Y-14129317D01*
X18618730Y-14129317D02*
X18599682Y-14119793D01*
X18599682Y-14119793D02*
X18590158Y-14100746D01*
X18590158Y-14100746D02*
X18590158Y-14091222D01*
X18590158Y-14091222D02*
X18599682Y-14072174D01*
X18599682Y-14072174D02*
X18618730Y-14062650D01*
X18618730Y-14062650D02*
X18647301Y-14062650D01*
X18647301Y-14062650D02*
X18666349Y-14072174D01*
X18742539Y-14272174D02*
X18752063Y-14262650D01*
X18752063Y-14262650D02*
X18771111Y-14234079D01*
X18771111Y-14234079D02*
X18780634Y-14215031D01*
X18780634Y-14215031D02*
X18790158Y-14186460D01*
X18790158Y-14186460D02*
X18799682Y-14138841D01*
X18799682Y-14138841D02*
X18799682Y-14100746D01*
X18799682Y-14100746D02*
X18790158Y-14053127D01*
X18790158Y-14053127D02*
X18780634Y-14024555D01*
X18780634Y-14024555D02*
X18771111Y-14005508D01*
X18771111Y-14005508D02*
X18752063Y-13976936D01*
X18752063Y-13976936D02*
X18742539Y-13967412D01*
D13*
X13777000Y-14368500D02*
G75*
G03*
X13777000Y-14368500I-35000J0D01*
G01*
D11*
X14075872Y-14259984D02*
X14094920Y-14259984D01*
X14094920Y-14259984D02*
X14113967Y-14269508D01*
X14113967Y-14269508D02*
X14123491Y-14279031D01*
X14123491Y-14279031D02*
X14133015Y-14298079D01*
X14133015Y-14298079D02*
X14142539Y-14336174D01*
X14142539Y-14336174D02*
X14142539Y-14383793D01*
X14142539Y-14383793D02*
X14133015Y-14421888D01*
X14133015Y-14421888D02*
X14123491Y-14440936D01*
X14123491Y-14440936D02*
X14113967Y-14450460D01*
X14113967Y-14450460D02*
X14094920Y-14459984D01*
X14094920Y-14459984D02*
X14075872Y-14459984D01*
X14075872Y-14459984D02*
X14056824Y-14450460D01*
X14056824Y-14450460D02*
X14047301Y-14440936D01*
X14047301Y-14440936D02*
X14037777Y-14421888D01*
X14037777Y-14421888D02*
X14028253Y-14383793D01*
X14028253Y-14383793D02*
X14028253Y-14336174D01*
X14028253Y-14336174D02*
X14037777Y-14298079D01*
X14037777Y-14298079D02*
X14047301Y-14279031D01*
X14047301Y-14279031D02*
X14056824Y-14269508D01*
X14056824Y-14269508D02*
X14075872Y-14259984D01*
X14228253Y-14440936D02*
X14237777Y-14450460D01*
X14237777Y-14450460D02*
X14228253Y-14459984D01*
X14228253Y-14459984D02*
X14218729Y-14450460D01*
X14218729Y-14450460D02*
X14228253Y-14440936D01*
X14228253Y-14440936D02*
X14228253Y-14459984D01*
X14304443Y-14259984D02*
X14437777Y-14259984D01*
X14437777Y-14259984D02*
X14352062Y-14459984D01*
X14552062Y-14259984D02*
X14571110Y-14259984D01*
X14571110Y-14259984D02*
X14590158Y-14269508D01*
X14590158Y-14269508D02*
X14599682Y-14279031D01*
X14599682Y-14279031D02*
X14609205Y-14298079D01*
X14609205Y-14298079D02*
X14618729Y-14336174D01*
X14618729Y-14336174D02*
X14618729Y-14383793D01*
X14618729Y-14383793D02*
X14609205Y-14421888D01*
X14609205Y-14421888D02*
X14599682Y-14440936D01*
X14599682Y-14440936D02*
X14590158Y-14450460D01*
X14590158Y-14450460D02*
X14571110Y-14459984D01*
X14571110Y-14459984D02*
X14552062Y-14459984D01*
X14552062Y-14459984D02*
X14533015Y-14450460D01*
X14533015Y-14450460D02*
X14523491Y-14440936D01*
X14523491Y-14440936D02*
X14513967Y-14421888D01*
X14513967Y-14421888D02*
X14504443Y-14383793D01*
X14504443Y-14383793D02*
X14504443Y-14336174D01*
X14504443Y-14336174D02*
X14513967Y-14298079D01*
X14513967Y-14298079D02*
X14523491Y-14279031D01*
X14523491Y-14279031D02*
X14533015Y-14269508D01*
X14533015Y-14269508D02*
X14552062Y-14259984D01*
X14742539Y-14259984D02*
X14761586Y-14259984D01*
X14761586Y-14259984D02*
X14780634Y-14269508D01*
X14780634Y-14269508D02*
X14790158Y-14279031D01*
X14790158Y-14279031D02*
X14799682Y-14298079D01*
X14799682Y-14298079D02*
X14809205Y-14336174D01*
X14809205Y-14336174D02*
X14809205Y-14383793D01*
X14809205Y-14383793D02*
X14799682Y-14421888D01*
X14799682Y-14421888D02*
X14790158Y-14440936D01*
X14790158Y-14440936D02*
X14780634Y-14450460D01*
X14780634Y-14450460D02*
X14761586Y-14459984D01*
X14761586Y-14459984D02*
X14742539Y-14459984D01*
X14742539Y-14459984D02*
X14723491Y-14450460D01*
X14723491Y-14450460D02*
X14713967Y-14440936D01*
X14713967Y-14440936D02*
X14704443Y-14421888D01*
X14704443Y-14421888D02*
X14694920Y-14383793D01*
X14694920Y-14383793D02*
X14694920Y-14336174D01*
X14694920Y-14336174D02*
X14704443Y-14298079D01*
X14704443Y-14298079D02*
X14713967Y-14279031D01*
X14713967Y-14279031D02*
X14723491Y-14269508D01*
X14723491Y-14269508D02*
X14742539Y-14259984D01*
X14894920Y-14459984D02*
X14894920Y-14326650D01*
X14894920Y-14345698D02*
X14904443Y-14336174D01*
X14904443Y-14336174D02*
X14923491Y-14326650D01*
X14923491Y-14326650D02*
X14952063Y-14326650D01*
X14952063Y-14326650D02*
X14971110Y-14336174D01*
X14971110Y-14336174D02*
X14980634Y-14355222D01*
X14980634Y-14355222D02*
X14980634Y-14459984D01*
X14980634Y-14355222D02*
X14990158Y-14336174D01*
X14990158Y-14336174D02*
X15009205Y-14326650D01*
X15009205Y-14326650D02*
X15037777Y-14326650D01*
X15037777Y-14326650D02*
X15056824Y-14336174D01*
X15056824Y-14336174D02*
X15066348Y-14355222D01*
X15066348Y-14355222D02*
X15066348Y-14459984D01*
X15161586Y-14459984D02*
X15161586Y-14326650D01*
X15161586Y-14345698D02*
X15171110Y-14336174D01*
X15171110Y-14336174D02*
X15190158Y-14326650D01*
X15190158Y-14326650D02*
X15218729Y-14326650D01*
X15218729Y-14326650D02*
X15237777Y-14336174D01*
X15237777Y-14336174D02*
X15247301Y-14355222D01*
X15247301Y-14355222D02*
X15247301Y-14459984D01*
X15247301Y-14355222D02*
X15256824Y-14336174D01*
X15256824Y-14336174D02*
X15275872Y-14326650D01*
X15275872Y-14326650D02*
X15304443Y-14326650D01*
X15304443Y-14326650D02*
X15323491Y-14336174D01*
X15323491Y-14336174D02*
X15333015Y-14355222D01*
X15333015Y-14355222D02*
X15333015Y-14459984D01*
X15723491Y-14250460D02*
X15552063Y-14507603D01*
X15980634Y-14259984D02*
X15999682Y-14259984D01*
X15999682Y-14259984D02*
X16018729Y-14269508D01*
X16018729Y-14269508D02*
X16028253Y-14279031D01*
X16028253Y-14279031D02*
X16037777Y-14298079D01*
X16037777Y-14298079D02*
X16047301Y-14336174D01*
X16047301Y-14336174D02*
X16047301Y-14383793D01*
X16047301Y-14383793D02*
X16037777Y-14421888D01*
X16037777Y-14421888D02*
X16028253Y-14440936D01*
X16028253Y-14440936D02*
X16018729Y-14450460D01*
X16018729Y-14450460D02*
X15999682Y-14459984D01*
X15999682Y-14459984D02*
X15980634Y-14459984D01*
X15980634Y-14459984D02*
X15961586Y-14450460D01*
X15961586Y-14450460D02*
X15952063Y-14440936D01*
X15952063Y-14440936D02*
X15942539Y-14421888D01*
X15942539Y-14421888D02*
X15933015Y-14383793D01*
X15933015Y-14383793D02*
X15933015Y-14336174D01*
X15933015Y-14336174D02*
X15942539Y-14298079D01*
X15942539Y-14298079D02*
X15952063Y-14279031D01*
X15952063Y-14279031D02*
X15961586Y-14269508D01*
X15961586Y-14269508D02*
X15980634Y-14259984D01*
X16133015Y-14440936D02*
X16142539Y-14450460D01*
X16142539Y-14450460D02*
X16133015Y-14459984D01*
X16133015Y-14459984D02*
X16123491Y-14450460D01*
X16123491Y-14450460D02*
X16133015Y-14440936D01*
X16133015Y-14440936D02*
X16133015Y-14459984D01*
X16266348Y-14259984D02*
X16285396Y-14259984D01*
X16285396Y-14259984D02*
X16304444Y-14269508D01*
X16304444Y-14269508D02*
X16313967Y-14279031D01*
X16313967Y-14279031D02*
X16323491Y-14298079D01*
X16323491Y-14298079D02*
X16333015Y-14336174D01*
X16333015Y-14336174D02*
X16333015Y-14383793D01*
X16333015Y-14383793D02*
X16323491Y-14421888D01*
X16323491Y-14421888D02*
X16313967Y-14440936D01*
X16313967Y-14440936D02*
X16304444Y-14450460D01*
X16304444Y-14450460D02*
X16285396Y-14459984D01*
X16285396Y-14459984D02*
X16266348Y-14459984D01*
X16266348Y-14459984D02*
X16247301Y-14450460D01*
X16247301Y-14450460D02*
X16237777Y-14440936D01*
X16237777Y-14440936D02*
X16228253Y-14421888D01*
X16228253Y-14421888D02*
X16218729Y-14383793D01*
X16218729Y-14383793D02*
X16218729Y-14336174D01*
X16218729Y-14336174D02*
X16228253Y-14298079D01*
X16228253Y-14298079D02*
X16237777Y-14279031D01*
X16237777Y-14279031D02*
X16247301Y-14269508D01*
X16247301Y-14269508D02*
X16266348Y-14259984D01*
X16409206Y-14279031D02*
X16418729Y-14269508D01*
X16418729Y-14269508D02*
X16437777Y-14259984D01*
X16437777Y-14259984D02*
X16485396Y-14259984D01*
X16485396Y-14259984D02*
X16504444Y-14269508D01*
X16504444Y-14269508D02*
X16513967Y-14279031D01*
X16513967Y-14279031D02*
X16523491Y-14298079D01*
X16523491Y-14298079D02*
X16523491Y-14317127D01*
X16523491Y-14317127D02*
X16513967Y-14345698D01*
X16513967Y-14345698D02*
X16399682Y-14459984D01*
X16399682Y-14459984D02*
X16523491Y-14459984D01*
X16590158Y-14259984D02*
X16723491Y-14259984D01*
X16723491Y-14259984D02*
X16637777Y-14459984D01*
X16885396Y-14259984D02*
X16847301Y-14259984D01*
X16847301Y-14259984D02*
X16828253Y-14269508D01*
X16828253Y-14269508D02*
X16818729Y-14279031D01*
X16818729Y-14279031D02*
X16799682Y-14307603D01*
X16799682Y-14307603D02*
X16790158Y-14345698D01*
X16790158Y-14345698D02*
X16790158Y-14421888D01*
X16790158Y-14421888D02*
X16799682Y-14440936D01*
X16799682Y-14440936D02*
X16809206Y-14450460D01*
X16809206Y-14450460D02*
X16828253Y-14459984D01*
X16828253Y-14459984D02*
X16866349Y-14459984D01*
X16866349Y-14459984D02*
X16885396Y-14450460D01*
X16885396Y-14450460D02*
X16894920Y-14440936D01*
X16894920Y-14440936D02*
X16904444Y-14421888D01*
X16904444Y-14421888D02*
X16904444Y-14374269D01*
X16904444Y-14374269D02*
X16894920Y-14355222D01*
X16894920Y-14355222D02*
X16885396Y-14345698D01*
X16885396Y-14345698D02*
X16866349Y-14336174D01*
X16866349Y-14336174D02*
X16828253Y-14336174D01*
X16828253Y-14336174D02*
X16809206Y-14345698D01*
X16809206Y-14345698D02*
X16799682Y-14355222D01*
X16799682Y-14355222D02*
X16790158Y-14374269D01*
X16980634Y-14259984D02*
X16980634Y-14298079D01*
X17056825Y-14259984D02*
X17056825Y-14298079D01*
X17352063Y-14536174D02*
X17342539Y-14526650D01*
X17342539Y-14526650D02*
X17323491Y-14498079D01*
X17323491Y-14498079D02*
X17313968Y-14479031D01*
X17313968Y-14479031D02*
X17304444Y-14450460D01*
X17304444Y-14450460D02*
X17294920Y-14402841D01*
X17294920Y-14402841D02*
X17294920Y-14364746D01*
X17294920Y-14364746D02*
X17304444Y-14317127D01*
X17304444Y-14317127D02*
X17313968Y-14288555D01*
X17313968Y-14288555D02*
X17323491Y-14269508D01*
X17323491Y-14269508D02*
X17342539Y-14240936D01*
X17342539Y-14240936D02*
X17352063Y-14231412D01*
X17466349Y-14259984D02*
X17485396Y-14259984D01*
X17485396Y-14259984D02*
X17504444Y-14269508D01*
X17504444Y-14269508D02*
X17513968Y-14279031D01*
X17513968Y-14279031D02*
X17523491Y-14298079D01*
X17523491Y-14298079D02*
X17533015Y-14336174D01*
X17533015Y-14336174D02*
X17533015Y-14383793D01*
X17533015Y-14383793D02*
X17523491Y-14421888D01*
X17523491Y-14421888D02*
X17513968Y-14440936D01*
X17513968Y-14440936D02*
X17504444Y-14450460D01*
X17504444Y-14450460D02*
X17485396Y-14459984D01*
X17485396Y-14459984D02*
X17466349Y-14459984D01*
X17466349Y-14459984D02*
X17447301Y-14450460D01*
X17447301Y-14450460D02*
X17437777Y-14440936D01*
X17437777Y-14440936D02*
X17428253Y-14421888D01*
X17428253Y-14421888D02*
X17418730Y-14383793D01*
X17418730Y-14383793D02*
X17418730Y-14336174D01*
X17418730Y-14336174D02*
X17428253Y-14298079D01*
X17428253Y-14298079D02*
X17437777Y-14279031D01*
X17437777Y-14279031D02*
X17447301Y-14269508D01*
X17447301Y-14269508D02*
X17466349Y-14259984D01*
X17771111Y-14459984D02*
X17771111Y-14259984D01*
X17856825Y-14459984D02*
X17856825Y-14355222D01*
X17856825Y-14355222D02*
X17847301Y-14336174D01*
X17847301Y-14336174D02*
X17828253Y-14326650D01*
X17828253Y-14326650D02*
X17799682Y-14326650D01*
X17799682Y-14326650D02*
X17780634Y-14336174D01*
X17780634Y-14336174D02*
X17771111Y-14345698D01*
X17980634Y-14459984D02*
X17961587Y-14450460D01*
X17961587Y-14450460D02*
X17952063Y-14440936D01*
X17952063Y-14440936D02*
X17942539Y-14421888D01*
X17942539Y-14421888D02*
X17942539Y-14364746D01*
X17942539Y-14364746D02*
X17952063Y-14345698D01*
X17952063Y-14345698D02*
X17961587Y-14336174D01*
X17961587Y-14336174D02*
X17980634Y-14326650D01*
X17980634Y-14326650D02*
X18009206Y-14326650D01*
X18009206Y-14326650D02*
X18028253Y-14336174D01*
X18028253Y-14336174D02*
X18037777Y-14345698D01*
X18037777Y-14345698D02*
X18047301Y-14364746D01*
X18047301Y-14364746D02*
X18047301Y-14421888D01*
X18047301Y-14421888D02*
X18037777Y-14440936D01*
X18037777Y-14440936D02*
X18028253Y-14450460D01*
X18028253Y-14450460D02*
X18009206Y-14459984D01*
X18009206Y-14459984D02*
X17980634Y-14459984D01*
X18161587Y-14459984D02*
X18142539Y-14450460D01*
X18142539Y-14450460D02*
X18133015Y-14431412D01*
X18133015Y-14431412D02*
X18133015Y-14259984D01*
X18313968Y-14450460D02*
X18294920Y-14459984D01*
X18294920Y-14459984D02*
X18256825Y-14459984D01*
X18256825Y-14459984D02*
X18237777Y-14450460D01*
X18237777Y-14450460D02*
X18228253Y-14431412D01*
X18228253Y-14431412D02*
X18228253Y-14355222D01*
X18228253Y-14355222D02*
X18237777Y-14336174D01*
X18237777Y-14336174D02*
X18256825Y-14326650D01*
X18256825Y-14326650D02*
X18294920Y-14326650D01*
X18294920Y-14326650D02*
X18313968Y-14336174D01*
X18313968Y-14336174D02*
X18323492Y-14355222D01*
X18323492Y-14355222D02*
X18323492Y-14374269D01*
X18323492Y-14374269D02*
X18228253Y-14393317D01*
X18399682Y-14450460D02*
X18418730Y-14459984D01*
X18418730Y-14459984D02*
X18456825Y-14459984D01*
X18456825Y-14459984D02*
X18475873Y-14450460D01*
X18475873Y-14450460D02*
X18485396Y-14431412D01*
X18485396Y-14431412D02*
X18485396Y-14421888D01*
X18485396Y-14421888D02*
X18475873Y-14402841D01*
X18475873Y-14402841D02*
X18456825Y-14393317D01*
X18456825Y-14393317D02*
X18428253Y-14393317D01*
X18428253Y-14393317D02*
X18409206Y-14383793D01*
X18409206Y-14383793D02*
X18399682Y-14364746D01*
X18399682Y-14364746D02*
X18399682Y-14355222D01*
X18399682Y-14355222D02*
X18409206Y-14336174D01*
X18409206Y-14336174D02*
X18428253Y-14326650D01*
X18428253Y-14326650D02*
X18456825Y-14326650D01*
X18456825Y-14326650D02*
X18475873Y-14336174D01*
X18723492Y-14383793D02*
X18875873Y-14383793D01*
X18799682Y-14459984D02*
X18799682Y-14307603D01*
X19104444Y-14259984D02*
X19228254Y-14259984D01*
X19228254Y-14259984D02*
X19161587Y-14336174D01*
X19161587Y-14336174D02*
X19190158Y-14336174D01*
X19190158Y-14336174D02*
X19209206Y-14345698D01*
X19209206Y-14345698D02*
X19218730Y-14355222D01*
X19218730Y-14355222D02*
X19228254Y-14374269D01*
X19228254Y-14374269D02*
X19228254Y-14421888D01*
X19228254Y-14421888D02*
X19218730Y-14440936D01*
X19218730Y-14440936D02*
X19209206Y-14450460D01*
X19209206Y-14450460D02*
X19190158Y-14459984D01*
X19190158Y-14459984D02*
X19133015Y-14459984D01*
X19133015Y-14459984D02*
X19113968Y-14450460D01*
X19113968Y-14450460D02*
X19104444Y-14440936D01*
X19304444Y-14279031D02*
X19313968Y-14269508D01*
X19313968Y-14269508D02*
X19333015Y-14259984D01*
X19333015Y-14259984D02*
X19380635Y-14259984D01*
X19380635Y-14259984D02*
X19399682Y-14269508D01*
X19399682Y-14269508D02*
X19409206Y-14279031D01*
X19409206Y-14279031D02*
X19418730Y-14298079D01*
X19418730Y-14298079D02*
X19418730Y-14317127D01*
X19418730Y-14317127D02*
X19409206Y-14345698D01*
X19409206Y-14345698D02*
X19294920Y-14459984D01*
X19294920Y-14459984D02*
X19418730Y-14459984D01*
X19647301Y-14450460D02*
X19666349Y-14459984D01*
X19666349Y-14459984D02*
X19704444Y-14459984D01*
X19704444Y-14459984D02*
X19723492Y-14450460D01*
X19723492Y-14450460D02*
X19733016Y-14431412D01*
X19733016Y-14431412D02*
X19733016Y-14421888D01*
X19733016Y-14421888D02*
X19723492Y-14402841D01*
X19723492Y-14402841D02*
X19704444Y-14393317D01*
X19704444Y-14393317D02*
X19675873Y-14393317D01*
X19675873Y-14393317D02*
X19656825Y-14383793D01*
X19656825Y-14383793D02*
X19647301Y-14364746D01*
X19647301Y-14364746D02*
X19647301Y-14355222D01*
X19647301Y-14355222D02*
X19656825Y-14336174D01*
X19656825Y-14336174D02*
X19675873Y-14326650D01*
X19675873Y-14326650D02*
X19704444Y-14326650D01*
X19704444Y-14326650D02*
X19723492Y-14336174D01*
X19847301Y-14459984D02*
X19828254Y-14450460D01*
X19828254Y-14450460D02*
X19818730Y-14431412D01*
X19818730Y-14431412D02*
X19818730Y-14259984D01*
X19952063Y-14459984D02*
X19933016Y-14450460D01*
X19933016Y-14450460D02*
X19923492Y-14440936D01*
X19923492Y-14440936D02*
X19913968Y-14421888D01*
X19913968Y-14421888D02*
X19913968Y-14364746D01*
X19913968Y-14364746D02*
X19923492Y-14345698D01*
X19923492Y-14345698D02*
X19933016Y-14336174D01*
X19933016Y-14336174D02*
X19952063Y-14326650D01*
X19952063Y-14326650D02*
X19980635Y-14326650D01*
X19980635Y-14326650D02*
X19999682Y-14336174D01*
X19999682Y-14336174D02*
X20009206Y-14345698D01*
X20009206Y-14345698D02*
X20018730Y-14364746D01*
X20018730Y-14364746D02*
X20018730Y-14421888D01*
X20018730Y-14421888D02*
X20009206Y-14440936D01*
X20009206Y-14440936D02*
X19999682Y-14450460D01*
X19999682Y-14450460D02*
X19980635Y-14459984D01*
X19980635Y-14459984D02*
X19952063Y-14459984D01*
X20075873Y-14326650D02*
X20152063Y-14326650D01*
X20104444Y-14259984D02*
X20104444Y-14431412D01*
X20104444Y-14431412D02*
X20113968Y-14450460D01*
X20113968Y-14450460D02*
X20133016Y-14459984D01*
X20133016Y-14459984D02*
X20152063Y-14459984D01*
X20209206Y-14450460D02*
X20228254Y-14459984D01*
X20228254Y-14459984D02*
X20266349Y-14459984D01*
X20266349Y-14459984D02*
X20285397Y-14450460D01*
X20285397Y-14450460D02*
X20294920Y-14431412D01*
X20294920Y-14431412D02*
X20294920Y-14421888D01*
X20294920Y-14421888D02*
X20285397Y-14402841D01*
X20285397Y-14402841D02*
X20266349Y-14393317D01*
X20266349Y-14393317D02*
X20237777Y-14393317D01*
X20237777Y-14393317D02*
X20218730Y-14383793D01*
X20218730Y-14383793D02*
X20209206Y-14364746D01*
X20209206Y-14364746D02*
X20209206Y-14355222D01*
X20209206Y-14355222D02*
X20218730Y-14336174D01*
X20218730Y-14336174D02*
X20237777Y-14326650D01*
X20237777Y-14326650D02*
X20266349Y-14326650D01*
X20266349Y-14326650D02*
X20285397Y-14336174D01*
X20361587Y-14536174D02*
X20371111Y-14526650D01*
X20371111Y-14526650D02*
X20390158Y-14498079D01*
X20390158Y-14498079D02*
X20399682Y-14479031D01*
X20399682Y-14479031D02*
X20409206Y-14450460D01*
X20409206Y-14450460D02*
X20418730Y-14402841D01*
X20418730Y-14402841D02*
X20418730Y-14364746D01*
X20418730Y-14364746D02*
X20409206Y-14317127D01*
X20409206Y-14317127D02*
X20399682Y-14288555D01*
X20399682Y-14288555D02*
X20390158Y-14269508D01*
X20390158Y-14269508D02*
X20371111Y-14240936D01*
X20371111Y-14240936D02*
X20361587Y-14231412D01*
D14*
X13727000Y-14582500D02*
X13727000Y-14682500D01*
X13677000Y-14632500D02*
X13777000Y-14632500D01*
D11*
X14142539Y-14723984D02*
X14028253Y-14723984D01*
X14085396Y-14723984D02*
X14085396Y-14523984D01*
X14085396Y-14523984D02*
X14066348Y-14552555D01*
X14066348Y-14552555D02*
X14047301Y-14571603D01*
X14047301Y-14571603D02*
X14028253Y-14581127D01*
X14228253Y-14704936D02*
X14237777Y-14714460D01*
X14237777Y-14714460D02*
X14228253Y-14723984D01*
X14228253Y-14723984D02*
X14218729Y-14714460D01*
X14218729Y-14714460D02*
X14228253Y-14704936D01*
X14228253Y-14704936D02*
X14228253Y-14723984D01*
X14361586Y-14523984D02*
X14380634Y-14523984D01*
X14380634Y-14523984D02*
X14399682Y-14533508D01*
X14399682Y-14533508D02*
X14409205Y-14543031D01*
X14409205Y-14543031D02*
X14418729Y-14562079D01*
X14418729Y-14562079D02*
X14428253Y-14600174D01*
X14428253Y-14600174D02*
X14428253Y-14647793D01*
X14428253Y-14647793D02*
X14418729Y-14685888D01*
X14418729Y-14685888D02*
X14409205Y-14704936D01*
X14409205Y-14704936D02*
X14399682Y-14714460D01*
X14399682Y-14714460D02*
X14380634Y-14723984D01*
X14380634Y-14723984D02*
X14361586Y-14723984D01*
X14361586Y-14723984D02*
X14342539Y-14714460D01*
X14342539Y-14714460D02*
X14333015Y-14704936D01*
X14333015Y-14704936D02*
X14323491Y-14685888D01*
X14323491Y-14685888D02*
X14313967Y-14647793D01*
X14313967Y-14647793D02*
X14313967Y-14600174D01*
X14313967Y-14600174D02*
X14323491Y-14562079D01*
X14323491Y-14562079D02*
X14333015Y-14543031D01*
X14333015Y-14543031D02*
X14342539Y-14533508D01*
X14342539Y-14533508D02*
X14361586Y-14523984D01*
X14552062Y-14523984D02*
X14571110Y-14523984D01*
X14571110Y-14523984D02*
X14590158Y-14533508D01*
X14590158Y-14533508D02*
X14599682Y-14543031D01*
X14599682Y-14543031D02*
X14609205Y-14562079D01*
X14609205Y-14562079D02*
X14618729Y-14600174D01*
X14618729Y-14600174D02*
X14618729Y-14647793D01*
X14618729Y-14647793D02*
X14609205Y-14685888D01*
X14609205Y-14685888D02*
X14599682Y-14704936D01*
X14599682Y-14704936D02*
X14590158Y-14714460D01*
X14590158Y-14714460D02*
X14571110Y-14723984D01*
X14571110Y-14723984D02*
X14552062Y-14723984D01*
X14552062Y-14723984D02*
X14533015Y-14714460D01*
X14533015Y-14714460D02*
X14523491Y-14704936D01*
X14523491Y-14704936D02*
X14513967Y-14685888D01*
X14513967Y-14685888D02*
X14504443Y-14647793D01*
X14504443Y-14647793D02*
X14504443Y-14600174D01*
X14504443Y-14600174D02*
X14513967Y-14562079D01*
X14513967Y-14562079D02*
X14523491Y-14543031D01*
X14523491Y-14543031D02*
X14533015Y-14533508D01*
X14533015Y-14533508D02*
X14552062Y-14523984D01*
X14742539Y-14523984D02*
X14761586Y-14523984D01*
X14761586Y-14523984D02*
X14780634Y-14533508D01*
X14780634Y-14533508D02*
X14790158Y-14543031D01*
X14790158Y-14543031D02*
X14799682Y-14562079D01*
X14799682Y-14562079D02*
X14809205Y-14600174D01*
X14809205Y-14600174D02*
X14809205Y-14647793D01*
X14809205Y-14647793D02*
X14799682Y-14685888D01*
X14799682Y-14685888D02*
X14790158Y-14704936D01*
X14790158Y-14704936D02*
X14780634Y-14714460D01*
X14780634Y-14714460D02*
X14761586Y-14723984D01*
X14761586Y-14723984D02*
X14742539Y-14723984D01*
X14742539Y-14723984D02*
X14723491Y-14714460D01*
X14723491Y-14714460D02*
X14713967Y-14704936D01*
X14713967Y-14704936D02*
X14704443Y-14685888D01*
X14704443Y-14685888D02*
X14694920Y-14647793D01*
X14694920Y-14647793D02*
X14694920Y-14600174D01*
X14694920Y-14600174D02*
X14704443Y-14562079D01*
X14704443Y-14562079D02*
X14713967Y-14543031D01*
X14713967Y-14543031D02*
X14723491Y-14533508D01*
X14723491Y-14533508D02*
X14742539Y-14523984D01*
X14894920Y-14723984D02*
X14894920Y-14590650D01*
X14894920Y-14609698D02*
X14904443Y-14600174D01*
X14904443Y-14600174D02*
X14923491Y-14590650D01*
X14923491Y-14590650D02*
X14952063Y-14590650D01*
X14952063Y-14590650D02*
X14971110Y-14600174D01*
X14971110Y-14600174D02*
X14980634Y-14619222D01*
X14980634Y-14619222D02*
X14980634Y-14723984D01*
X14980634Y-14619222D02*
X14990158Y-14600174D01*
X14990158Y-14600174D02*
X15009205Y-14590650D01*
X15009205Y-14590650D02*
X15037777Y-14590650D01*
X15037777Y-14590650D02*
X15056824Y-14600174D01*
X15056824Y-14600174D02*
X15066348Y-14619222D01*
X15066348Y-14619222D02*
X15066348Y-14723984D01*
X15161586Y-14723984D02*
X15161586Y-14590650D01*
X15161586Y-14609698D02*
X15171110Y-14600174D01*
X15171110Y-14600174D02*
X15190158Y-14590650D01*
X15190158Y-14590650D02*
X15218729Y-14590650D01*
X15218729Y-14590650D02*
X15237777Y-14600174D01*
X15237777Y-14600174D02*
X15247301Y-14619222D01*
X15247301Y-14619222D02*
X15247301Y-14723984D01*
X15247301Y-14619222D02*
X15256824Y-14600174D01*
X15256824Y-14600174D02*
X15275872Y-14590650D01*
X15275872Y-14590650D02*
X15304443Y-14590650D01*
X15304443Y-14590650D02*
X15323491Y-14600174D01*
X15323491Y-14600174D02*
X15333015Y-14619222D01*
X15333015Y-14619222D02*
X15333015Y-14723984D01*
X15723491Y-14514460D02*
X15552063Y-14771603D01*
X15980634Y-14523984D02*
X15999682Y-14523984D01*
X15999682Y-14523984D02*
X16018729Y-14533508D01*
X16018729Y-14533508D02*
X16028253Y-14543031D01*
X16028253Y-14543031D02*
X16037777Y-14562079D01*
X16037777Y-14562079D02*
X16047301Y-14600174D01*
X16047301Y-14600174D02*
X16047301Y-14647793D01*
X16047301Y-14647793D02*
X16037777Y-14685888D01*
X16037777Y-14685888D02*
X16028253Y-14704936D01*
X16028253Y-14704936D02*
X16018729Y-14714460D01*
X16018729Y-14714460D02*
X15999682Y-14723984D01*
X15999682Y-14723984D02*
X15980634Y-14723984D01*
X15980634Y-14723984D02*
X15961586Y-14714460D01*
X15961586Y-14714460D02*
X15952063Y-14704936D01*
X15952063Y-14704936D02*
X15942539Y-14685888D01*
X15942539Y-14685888D02*
X15933015Y-14647793D01*
X15933015Y-14647793D02*
X15933015Y-14600174D01*
X15933015Y-14600174D02*
X15942539Y-14562079D01*
X15942539Y-14562079D02*
X15952063Y-14543031D01*
X15952063Y-14543031D02*
X15961586Y-14533508D01*
X15961586Y-14533508D02*
X15980634Y-14523984D01*
X16133015Y-14704936D02*
X16142539Y-14714460D01*
X16142539Y-14714460D02*
X16133015Y-14723984D01*
X16133015Y-14723984D02*
X16123491Y-14714460D01*
X16123491Y-14714460D02*
X16133015Y-14704936D01*
X16133015Y-14704936D02*
X16133015Y-14723984D01*
X16266348Y-14523984D02*
X16285396Y-14523984D01*
X16285396Y-14523984D02*
X16304444Y-14533508D01*
X16304444Y-14533508D02*
X16313967Y-14543031D01*
X16313967Y-14543031D02*
X16323491Y-14562079D01*
X16323491Y-14562079D02*
X16333015Y-14600174D01*
X16333015Y-14600174D02*
X16333015Y-14647793D01*
X16333015Y-14647793D02*
X16323491Y-14685888D01*
X16323491Y-14685888D02*
X16313967Y-14704936D01*
X16313967Y-14704936D02*
X16304444Y-14714460D01*
X16304444Y-14714460D02*
X16285396Y-14723984D01*
X16285396Y-14723984D02*
X16266348Y-14723984D01*
X16266348Y-14723984D02*
X16247301Y-14714460D01*
X16247301Y-14714460D02*
X16237777Y-14704936D01*
X16237777Y-14704936D02*
X16228253Y-14685888D01*
X16228253Y-14685888D02*
X16218729Y-14647793D01*
X16218729Y-14647793D02*
X16218729Y-14600174D01*
X16218729Y-14600174D02*
X16228253Y-14562079D01*
X16228253Y-14562079D02*
X16237777Y-14543031D01*
X16237777Y-14543031D02*
X16247301Y-14533508D01*
X16247301Y-14533508D02*
X16266348Y-14523984D01*
X16399682Y-14523984D02*
X16523491Y-14523984D01*
X16523491Y-14523984D02*
X16456825Y-14600174D01*
X16456825Y-14600174D02*
X16485396Y-14600174D01*
X16485396Y-14600174D02*
X16504444Y-14609698D01*
X16504444Y-14609698D02*
X16513967Y-14619222D01*
X16513967Y-14619222D02*
X16523491Y-14638269D01*
X16523491Y-14638269D02*
X16523491Y-14685888D01*
X16523491Y-14685888D02*
X16513967Y-14704936D01*
X16513967Y-14704936D02*
X16504444Y-14714460D01*
X16504444Y-14714460D02*
X16485396Y-14723984D01*
X16485396Y-14723984D02*
X16428253Y-14723984D01*
X16428253Y-14723984D02*
X16409206Y-14714460D01*
X16409206Y-14714460D02*
X16399682Y-14704936D01*
X16618729Y-14723984D02*
X16656825Y-14723984D01*
X16656825Y-14723984D02*
X16675872Y-14714460D01*
X16675872Y-14714460D02*
X16685396Y-14704936D01*
X16685396Y-14704936D02*
X16704444Y-14676365D01*
X16704444Y-14676365D02*
X16713967Y-14638269D01*
X16713967Y-14638269D02*
X16713967Y-14562079D01*
X16713967Y-14562079D02*
X16704444Y-14543031D01*
X16704444Y-14543031D02*
X16694920Y-14533508D01*
X16694920Y-14533508D02*
X16675872Y-14523984D01*
X16675872Y-14523984D02*
X16637777Y-14523984D01*
X16637777Y-14523984D02*
X16618729Y-14533508D01*
X16618729Y-14533508D02*
X16609206Y-14543031D01*
X16609206Y-14543031D02*
X16599682Y-14562079D01*
X16599682Y-14562079D02*
X16599682Y-14609698D01*
X16599682Y-14609698D02*
X16609206Y-14628746D01*
X16609206Y-14628746D02*
X16618729Y-14638269D01*
X16618729Y-14638269D02*
X16637777Y-14647793D01*
X16637777Y-14647793D02*
X16675872Y-14647793D01*
X16675872Y-14647793D02*
X16694920Y-14638269D01*
X16694920Y-14638269D02*
X16704444Y-14628746D01*
X16704444Y-14628746D02*
X16713967Y-14609698D01*
X16885396Y-14590650D02*
X16885396Y-14723984D01*
X16837777Y-14514460D02*
X16790158Y-14657317D01*
X16790158Y-14657317D02*
X16913968Y-14657317D01*
X16980634Y-14523984D02*
X16980634Y-14562079D01*
X17056825Y-14523984D02*
X17056825Y-14562079D01*
X17352063Y-14800174D02*
X17342539Y-14790650D01*
X17342539Y-14790650D02*
X17323491Y-14762079D01*
X17323491Y-14762079D02*
X17313968Y-14743031D01*
X17313968Y-14743031D02*
X17304444Y-14714460D01*
X17304444Y-14714460D02*
X17294920Y-14666841D01*
X17294920Y-14666841D02*
X17294920Y-14628746D01*
X17294920Y-14628746D02*
X17304444Y-14581127D01*
X17304444Y-14581127D02*
X17313968Y-14552555D01*
X17313968Y-14552555D02*
X17323491Y-14533508D01*
X17323491Y-14533508D02*
X17342539Y-14504936D01*
X17342539Y-14504936D02*
X17352063Y-14495412D01*
X17533015Y-14723984D02*
X17418730Y-14723984D01*
X17475872Y-14723984D02*
X17475872Y-14523984D01*
X17475872Y-14523984D02*
X17456825Y-14552555D01*
X17456825Y-14552555D02*
X17437777Y-14571603D01*
X17437777Y-14571603D02*
X17418730Y-14581127D01*
X17723491Y-14723984D02*
X17609206Y-14723984D01*
X17666349Y-14723984D02*
X17666349Y-14523984D01*
X17666349Y-14523984D02*
X17647301Y-14552555D01*
X17647301Y-14552555D02*
X17628253Y-14571603D01*
X17628253Y-14571603D02*
X17609206Y-14581127D01*
X17799682Y-14543031D02*
X17809206Y-14533508D01*
X17809206Y-14533508D02*
X17828253Y-14523984D01*
X17828253Y-14523984D02*
X17875872Y-14523984D01*
X17875872Y-14523984D02*
X17894920Y-14533508D01*
X17894920Y-14533508D02*
X17904444Y-14543031D01*
X17904444Y-14543031D02*
X17913968Y-14562079D01*
X17913968Y-14562079D02*
X17913968Y-14581127D01*
X17913968Y-14581127D02*
X17904444Y-14609698D01*
X17904444Y-14609698D02*
X17790158Y-14723984D01*
X17790158Y-14723984D02*
X17913968Y-14723984D01*
X18152063Y-14723984D02*
X18152063Y-14523984D01*
X18237777Y-14723984D02*
X18237777Y-14619222D01*
X18237777Y-14619222D02*
X18228253Y-14600174D01*
X18228253Y-14600174D02*
X18209206Y-14590650D01*
X18209206Y-14590650D02*
X18180634Y-14590650D01*
X18180634Y-14590650D02*
X18161587Y-14600174D01*
X18161587Y-14600174D02*
X18152063Y-14609698D01*
X18361587Y-14723984D02*
X18342539Y-14714460D01*
X18342539Y-14714460D02*
X18333015Y-14704936D01*
X18333015Y-14704936D02*
X18323492Y-14685888D01*
X18323492Y-14685888D02*
X18323492Y-14628746D01*
X18323492Y-14628746D02*
X18333015Y-14609698D01*
X18333015Y-14609698D02*
X18342539Y-14600174D01*
X18342539Y-14600174D02*
X18361587Y-14590650D01*
X18361587Y-14590650D02*
X18390158Y-14590650D01*
X18390158Y-14590650D02*
X18409206Y-14600174D01*
X18409206Y-14600174D02*
X18418730Y-14609698D01*
X18418730Y-14609698D02*
X18428253Y-14628746D01*
X18428253Y-14628746D02*
X18428253Y-14685888D01*
X18428253Y-14685888D02*
X18418730Y-14704936D01*
X18418730Y-14704936D02*
X18409206Y-14714460D01*
X18409206Y-14714460D02*
X18390158Y-14723984D01*
X18390158Y-14723984D02*
X18361587Y-14723984D01*
X18542539Y-14723984D02*
X18523492Y-14714460D01*
X18523492Y-14714460D02*
X18513968Y-14695412D01*
X18513968Y-14695412D02*
X18513968Y-14523984D01*
X18694920Y-14714460D02*
X18675873Y-14723984D01*
X18675873Y-14723984D02*
X18637777Y-14723984D01*
X18637777Y-14723984D02*
X18618730Y-14714460D01*
X18618730Y-14714460D02*
X18609206Y-14695412D01*
X18609206Y-14695412D02*
X18609206Y-14619222D01*
X18609206Y-14619222D02*
X18618730Y-14600174D01*
X18618730Y-14600174D02*
X18637777Y-14590650D01*
X18637777Y-14590650D02*
X18675873Y-14590650D01*
X18675873Y-14590650D02*
X18694920Y-14600174D01*
X18694920Y-14600174D02*
X18704444Y-14619222D01*
X18704444Y-14619222D02*
X18704444Y-14638269D01*
X18704444Y-14638269D02*
X18609206Y-14657317D01*
X18780634Y-14714460D02*
X18799682Y-14723984D01*
X18799682Y-14723984D02*
X18837777Y-14723984D01*
X18837777Y-14723984D02*
X18856825Y-14714460D01*
X18856825Y-14714460D02*
X18866349Y-14695412D01*
X18866349Y-14695412D02*
X18866349Y-14685888D01*
X18866349Y-14685888D02*
X18856825Y-14666841D01*
X18856825Y-14666841D02*
X18837777Y-14657317D01*
X18837777Y-14657317D02*
X18809206Y-14657317D01*
X18809206Y-14657317D02*
X18790158Y-14647793D01*
X18790158Y-14647793D02*
X18780634Y-14628746D01*
X18780634Y-14628746D02*
X18780634Y-14619222D01*
X18780634Y-14619222D02*
X18790158Y-14600174D01*
X18790158Y-14600174D02*
X18809206Y-14590650D01*
X18809206Y-14590650D02*
X18837777Y-14590650D01*
X18837777Y-14590650D02*
X18856825Y-14600174D01*
X18933015Y-14800174D02*
X18942539Y-14790650D01*
X18942539Y-14790650D02*
X18961587Y-14762079D01*
X18961587Y-14762079D02*
X18971111Y-14743031D01*
X18971111Y-14743031D02*
X18980634Y-14714460D01*
X18980634Y-14714460D02*
X18990158Y-14666841D01*
X18990158Y-14666841D02*
X18990158Y-14628746D01*
X18990158Y-14628746D02*
X18980634Y-14581127D01*
X18980634Y-14581127D02*
X18971111Y-14552555D01*
X18971111Y-14552555D02*
X18961587Y-14533508D01*
X18961587Y-14533508D02*
X18942539Y-14504936D01*
X18942539Y-14504936D02*
X18933015Y-14495412D01*
M02*
