%TF.GenerationSoftware,KiCad,Pcbnew,7.0.7*%
%TF.CreationDate,2023-10-01T14:50:05+02:00*%
%TF.ProjectId,MultiSwitch_Mcp23017_MiniSwitch,4d756c74-6953-4776-9974-63685f4d6370,1.0*%
%TF.SameCoordinates,Original*%
%TF.FileFunction,AssemblyDrawing,Bot*%
%FSLAX46Y46*%
G04 Gerber Fmt 4.6, Leading zero omitted, Abs format (unit mm)*
G04 Created by KiCad (PCBNEW 7.0.7) date 2023-10-01 14:50:05*
%MOMM*%
%LPD*%
G01*
G04 APERTURE LIST*
%ADD10C,0.100000*%
%ADD11C,0.150000*%
G04 APERTURE END LIST*
D10*
X218054000Y-132080000D02*
X218054000Y-134600000D01*
X220340000Y-129794000D02*
X222895000Y-129794000D01*
X140330000Y-100711000D02*
G75*
G03*
X142616000Y-98425000I0J2286000D01*
G01*
X142619525Y-132080000D02*
G75*
G03*
X140330000Y-129790475I-2289525J0D01*
G01*
X142619525Y-132080000D02*
X142619525Y-134620000D01*
X140330000Y-100711000D02*
X137795000Y-100711000D01*
X142616000Y-98425000D02*
X142616000Y-95885000D01*
X137795000Y-129794000D02*
X137795000Y-100711000D01*
X220340000Y-100711000D02*
X222880000Y-100711000D01*
X220340000Y-129794000D02*
G75*
G03*
X218054000Y-132080000I0J-2286000D01*
G01*
X218054000Y-98425000D02*
X218054000Y-95885000D01*
X218054000Y-98425000D02*
G75*
G03*
X220340000Y-100711000I2286000J0D01*
G01*
X142616000Y-95885000D02*
X218054000Y-95885000D01*
X222895000Y-100711000D02*
X222895000Y-129794000D01*
X140330000Y-129790475D02*
X137790000Y-129790475D01*
X142619525Y-134620000D02*
X218054000Y-134620000D01*
D11*
X216288808Y-100829819D02*
X216288808Y-99829819D01*
X215860237Y-99925057D02*
X215812618Y-99877438D01*
X215812618Y-99877438D02*
X215717380Y-99829819D01*
X215717380Y-99829819D02*
X215479285Y-99829819D01*
X215479285Y-99829819D02*
X215384047Y-99877438D01*
X215384047Y-99877438D02*
X215336428Y-99925057D01*
X215336428Y-99925057D02*
X215288809Y-100020295D01*
X215288809Y-100020295D02*
X215288809Y-100115533D01*
X215288809Y-100115533D02*
X215336428Y-100258390D01*
X215336428Y-100258390D02*
X215907856Y-100829819D01*
X215907856Y-100829819D02*
X215288809Y-100829819D01*
X214288809Y-100734580D02*
X214336428Y-100782200D01*
X214336428Y-100782200D02*
X214479285Y-100829819D01*
X214479285Y-100829819D02*
X214574523Y-100829819D01*
X214574523Y-100829819D02*
X214717380Y-100782200D01*
X214717380Y-100782200D02*
X214812618Y-100686961D01*
X214812618Y-100686961D02*
X214860237Y-100591723D01*
X214860237Y-100591723D02*
X214907856Y-100401247D01*
X214907856Y-100401247D02*
X214907856Y-100258390D01*
X214907856Y-100258390D02*
X214860237Y-100067914D01*
X214860237Y-100067914D02*
X214812618Y-99972676D01*
X214812618Y-99972676D02*
X214717380Y-99877438D01*
X214717380Y-99877438D02*
X214574523Y-99829819D01*
X214574523Y-99829819D02*
X214479285Y-99829819D01*
X214479285Y-99829819D02*
X214336428Y-99877438D01*
X214336428Y-99877438D02*
X214288809Y-99925057D01*
X214098333Y-100925057D02*
X213336428Y-100925057D01*
X213098332Y-100829819D02*
X213098332Y-99829819D01*
X212622142Y-100829819D02*
X212622142Y-99829819D01*
X212622142Y-99829819D02*
X212050714Y-100829819D01*
X212050714Y-100829819D02*
X212050714Y-99829819D01*
X211574523Y-100829819D02*
X211574523Y-99829819D01*
X211574523Y-99829819D02*
X211193571Y-99829819D01*
X211193571Y-99829819D02*
X211098333Y-99877438D01*
X211098333Y-99877438D02*
X211050714Y-99925057D01*
X211050714Y-99925057D02*
X211003095Y-100020295D01*
X211003095Y-100020295D02*
X211003095Y-100163152D01*
X211003095Y-100163152D02*
X211050714Y-100258390D01*
X211050714Y-100258390D02*
X211098333Y-100306009D01*
X211098333Y-100306009D02*
X211193571Y-100353628D01*
X211193571Y-100353628D02*
X211574523Y-100353628D01*
X210574523Y-99829819D02*
X210574523Y-100639342D01*
X210574523Y-100639342D02*
X210526904Y-100734580D01*
X210526904Y-100734580D02*
X210479285Y-100782200D01*
X210479285Y-100782200D02*
X210384047Y-100829819D01*
X210384047Y-100829819D02*
X210193571Y-100829819D01*
X210193571Y-100829819D02*
X210098333Y-100782200D01*
X210098333Y-100782200D02*
X210050714Y-100734580D01*
X210050714Y-100734580D02*
X210003095Y-100639342D01*
X210003095Y-100639342D02*
X210003095Y-99829819D01*
X209669761Y-99829819D02*
X209098333Y-99829819D01*
X209384047Y-100829819D02*
X209384047Y-99829819D01*
X213058333Y-97819819D02*
X213058333Y-98534104D01*
X213058333Y-98534104D02*
X213105952Y-98676961D01*
X213105952Y-98676961D02*
X213201190Y-98772200D01*
X213201190Y-98772200D02*
X213344047Y-98819819D01*
X213344047Y-98819819D02*
X213439285Y-98819819D01*
X212677380Y-97819819D02*
X212058333Y-97819819D01*
X212058333Y-97819819D02*
X212391666Y-98200771D01*
X212391666Y-98200771D02*
X212248809Y-98200771D01*
X212248809Y-98200771D02*
X212153571Y-98248390D01*
X212153571Y-98248390D02*
X212105952Y-98296009D01*
X212105952Y-98296009D02*
X212058333Y-98391247D01*
X212058333Y-98391247D02*
X212058333Y-98629342D01*
X212058333Y-98629342D02*
X212105952Y-98724580D01*
X212105952Y-98724580D02*
X212153571Y-98772200D01*
X212153571Y-98772200D02*
X212248809Y-98819819D01*
X212248809Y-98819819D02*
X212534523Y-98819819D01*
X212534523Y-98819819D02*
X212629761Y-98772200D01*
X212629761Y-98772200D02*
X212677380Y-98724580D01*
X180260237Y-104594819D02*
X180260237Y-103594819D01*
X180260237Y-103594819D02*
X179879285Y-103594819D01*
X179879285Y-103594819D02*
X179784047Y-103642438D01*
X179784047Y-103642438D02*
X179736428Y-103690057D01*
X179736428Y-103690057D02*
X179688809Y-103785295D01*
X179688809Y-103785295D02*
X179688809Y-103928152D01*
X179688809Y-103928152D02*
X179736428Y-104023390D01*
X179736428Y-104023390D02*
X179784047Y-104071009D01*
X179784047Y-104071009D02*
X179879285Y-104118628D01*
X179879285Y-104118628D02*
X180260237Y-104118628D01*
X178688809Y-104499580D02*
X178736428Y-104547200D01*
X178736428Y-104547200D02*
X178879285Y-104594819D01*
X178879285Y-104594819D02*
X178974523Y-104594819D01*
X178974523Y-104594819D02*
X179117380Y-104547200D01*
X179117380Y-104547200D02*
X179212618Y-104451961D01*
X179212618Y-104451961D02*
X179260237Y-104356723D01*
X179260237Y-104356723D02*
X179307856Y-104166247D01*
X179307856Y-104166247D02*
X179307856Y-104023390D01*
X179307856Y-104023390D02*
X179260237Y-103832914D01*
X179260237Y-103832914D02*
X179212618Y-103737676D01*
X179212618Y-103737676D02*
X179117380Y-103642438D01*
X179117380Y-103642438D02*
X178974523Y-103594819D01*
X178974523Y-103594819D02*
X178879285Y-103594819D01*
X178879285Y-103594819D02*
X178736428Y-103642438D01*
X178736428Y-103642438D02*
X178688809Y-103690057D01*
X177926904Y-104071009D02*
X178260237Y-104071009D01*
X178260237Y-104594819D02*
X178260237Y-103594819D01*
X178260237Y-103594819D02*
X177784047Y-103594819D01*
X177260237Y-104023390D02*
X177355475Y-103975771D01*
X177355475Y-103975771D02*
X177403094Y-103928152D01*
X177403094Y-103928152D02*
X177450713Y-103832914D01*
X177450713Y-103832914D02*
X177450713Y-103785295D01*
X177450713Y-103785295D02*
X177403094Y-103690057D01*
X177403094Y-103690057D02*
X177355475Y-103642438D01*
X177355475Y-103642438D02*
X177260237Y-103594819D01*
X177260237Y-103594819D02*
X177069761Y-103594819D01*
X177069761Y-103594819D02*
X176974523Y-103642438D01*
X176974523Y-103642438D02*
X176926904Y-103690057D01*
X176926904Y-103690057D02*
X176879285Y-103785295D01*
X176879285Y-103785295D02*
X176879285Y-103832914D01*
X176879285Y-103832914D02*
X176926904Y-103928152D01*
X176926904Y-103928152D02*
X176974523Y-103975771D01*
X176974523Y-103975771D02*
X177069761Y-104023390D01*
X177069761Y-104023390D02*
X177260237Y-104023390D01*
X177260237Y-104023390D02*
X177355475Y-104071009D01*
X177355475Y-104071009D02*
X177403094Y-104118628D01*
X177403094Y-104118628D02*
X177450713Y-104213866D01*
X177450713Y-104213866D02*
X177450713Y-104404342D01*
X177450713Y-104404342D02*
X177403094Y-104499580D01*
X177403094Y-104499580D02*
X177355475Y-104547200D01*
X177355475Y-104547200D02*
X177260237Y-104594819D01*
X177260237Y-104594819D02*
X177069761Y-104594819D01*
X177069761Y-104594819D02*
X176974523Y-104547200D01*
X176974523Y-104547200D02*
X176926904Y-104499580D01*
X176926904Y-104499580D02*
X176879285Y-104404342D01*
X176879285Y-104404342D02*
X176879285Y-104213866D01*
X176879285Y-104213866D02*
X176926904Y-104118628D01*
X176926904Y-104118628D02*
X176974523Y-104071009D01*
X176974523Y-104071009D02*
X177069761Y-104023390D01*
X175974523Y-103594819D02*
X176450713Y-103594819D01*
X176450713Y-103594819D02*
X176498332Y-104071009D01*
X176498332Y-104071009D02*
X176450713Y-104023390D01*
X176450713Y-104023390D02*
X176355475Y-103975771D01*
X176355475Y-103975771D02*
X176117380Y-103975771D01*
X176117380Y-103975771D02*
X176022142Y-104023390D01*
X176022142Y-104023390D02*
X175974523Y-104071009D01*
X175974523Y-104071009D02*
X175926904Y-104166247D01*
X175926904Y-104166247D02*
X175926904Y-104404342D01*
X175926904Y-104404342D02*
X175974523Y-104499580D01*
X175974523Y-104499580D02*
X176022142Y-104547200D01*
X176022142Y-104547200D02*
X176117380Y-104594819D01*
X176117380Y-104594819D02*
X176355475Y-104594819D01*
X176355475Y-104594819D02*
X176450713Y-104547200D01*
X176450713Y-104547200D02*
X176498332Y-104499580D01*
X175593570Y-103594819D02*
X174926904Y-103594819D01*
X174926904Y-103594819D02*
X175355475Y-104594819D01*
X174069761Y-103594819D02*
X174545951Y-103594819D01*
X174545951Y-103594819D02*
X174593570Y-104071009D01*
X174593570Y-104071009D02*
X174545951Y-104023390D01*
X174545951Y-104023390D02*
X174450713Y-103975771D01*
X174450713Y-103975771D02*
X174212618Y-103975771D01*
X174212618Y-103975771D02*
X174117380Y-104023390D01*
X174117380Y-104023390D02*
X174069761Y-104071009D01*
X174069761Y-104071009D02*
X174022142Y-104166247D01*
X174022142Y-104166247D02*
X174022142Y-104404342D01*
X174022142Y-104404342D02*
X174069761Y-104499580D01*
X174069761Y-104499580D02*
X174117380Y-104547200D01*
X174117380Y-104547200D02*
X174212618Y-104594819D01*
X174212618Y-104594819D02*
X174450713Y-104594819D01*
X174450713Y-104594819D02*
X174545951Y-104547200D01*
X174545951Y-104547200D02*
X174593570Y-104499580D01*
X177371333Y-101562819D02*
X177371333Y-102277104D01*
X177371333Y-102277104D02*
X177418952Y-102419961D01*
X177418952Y-102419961D02*
X177514190Y-102515200D01*
X177514190Y-102515200D02*
X177657047Y-102562819D01*
X177657047Y-102562819D02*
X177752285Y-102562819D01*
X176752285Y-101991390D02*
X176847523Y-101943771D01*
X176847523Y-101943771D02*
X176895142Y-101896152D01*
X176895142Y-101896152D02*
X176942761Y-101800914D01*
X176942761Y-101800914D02*
X176942761Y-101753295D01*
X176942761Y-101753295D02*
X176895142Y-101658057D01*
X176895142Y-101658057D02*
X176847523Y-101610438D01*
X176847523Y-101610438D02*
X176752285Y-101562819D01*
X176752285Y-101562819D02*
X176561809Y-101562819D01*
X176561809Y-101562819D02*
X176466571Y-101610438D01*
X176466571Y-101610438D02*
X176418952Y-101658057D01*
X176418952Y-101658057D02*
X176371333Y-101753295D01*
X176371333Y-101753295D02*
X176371333Y-101800914D01*
X176371333Y-101800914D02*
X176418952Y-101896152D01*
X176418952Y-101896152D02*
X176466571Y-101943771D01*
X176466571Y-101943771D02*
X176561809Y-101991390D01*
X176561809Y-101991390D02*
X176752285Y-101991390D01*
X176752285Y-101991390D02*
X176847523Y-102039009D01*
X176847523Y-102039009D02*
X176895142Y-102086628D01*
X176895142Y-102086628D02*
X176942761Y-102181866D01*
X176942761Y-102181866D02*
X176942761Y-102372342D01*
X176942761Y-102372342D02*
X176895142Y-102467580D01*
X176895142Y-102467580D02*
X176847523Y-102515200D01*
X176847523Y-102515200D02*
X176752285Y-102562819D01*
X176752285Y-102562819D02*
X176561809Y-102562819D01*
X176561809Y-102562819D02*
X176466571Y-102515200D01*
X176466571Y-102515200D02*
X176418952Y-102467580D01*
X176418952Y-102467580D02*
X176371333Y-102372342D01*
X176371333Y-102372342D02*
X176371333Y-102181866D01*
X176371333Y-102181866D02*
X176418952Y-102086628D01*
X176418952Y-102086628D02*
X176466571Y-102039009D01*
X176466571Y-102039009D02*
X176561809Y-101991390D01*
X164904009Y-104084428D02*
X164951628Y-104227285D01*
X164951628Y-104227285D02*
X164999247Y-104274904D01*
X164999247Y-104274904D02*
X165094485Y-104322523D01*
X165094485Y-104322523D02*
X165237342Y-104322523D01*
X165237342Y-104322523D02*
X165332580Y-104274904D01*
X165332580Y-104274904D02*
X165380200Y-104227285D01*
X165380200Y-104227285D02*
X165427819Y-104132047D01*
X165427819Y-104132047D02*
X165427819Y-103751095D01*
X165427819Y-103751095D02*
X164427819Y-103751095D01*
X164427819Y-103751095D02*
X164427819Y-104084428D01*
X164427819Y-104084428D02*
X164475438Y-104179666D01*
X164475438Y-104179666D02*
X164523057Y-104227285D01*
X164523057Y-104227285D02*
X164618295Y-104274904D01*
X164618295Y-104274904D02*
X164713533Y-104274904D01*
X164713533Y-104274904D02*
X164808771Y-104227285D01*
X164808771Y-104227285D02*
X164856390Y-104179666D01*
X164856390Y-104179666D02*
X164904009Y-104084428D01*
X164904009Y-104084428D02*
X164904009Y-103751095D01*
X184363428Y-111071819D02*
X184363428Y-110071819D01*
X184363428Y-110071819D02*
X184030095Y-110786104D01*
X184030095Y-110786104D02*
X183696762Y-110071819D01*
X183696762Y-110071819D02*
X183696762Y-111071819D01*
X183220571Y-111071819D02*
X183220571Y-110071819D01*
X183220571Y-110071819D02*
X182839619Y-110071819D01*
X182839619Y-110071819D02*
X182744381Y-110119438D01*
X182744381Y-110119438D02*
X182696762Y-110167057D01*
X182696762Y-110167057D02*
X182649143Y-110262295D01*
X182649143Y-110262295D02*
X182649143Y-110405152D01*
X182649143Y-110405152D02*
X182696762Y-110500390D01*
X182696762Y-110500390D02*
X182744381Y-110548009D01*
X182744381Y-110548009D02*
X182839619Y-110595628D01*
X182839619Y-110595628D02*
X183220571Y-110595628D01*
X181649143Y-110976580D02*
X181696762Y-111024200D01*
X181696762Y-111024200D02*
X181839619Y-111071819D01*
X181839619Y-111071819D02*
X181934857Y-111071819D01*
X181934857Y-111071819D02*
X182077714Y-111024200D01*
X182077714Y-111024200D02*
X182172952Y-110928961D01*
X182172952Y-110928961D02*
X182220571Y-110833723D01*
X182220571Y-110833723D02*
X182268190Y-110643247D01*
X182268190Y-110643247D02*
X182268190Y-110500390D01*
X182268190Y-110500390D02*
X182220571Y-110309914D01*
X182220571Y-110309914D02*
X182172952Y-110214676D01*
X182172952Y-110214676D02*
X182077714Y-110119438D01*
X182077714Y-110119438D02*
X181934857Y-110071819D01*
X181934857Y-110071819D02*
X181839619Y-110071819D01*
X181839619Y-110071819D02*
X181696762Y-110119438D01*
X181696762Y-110119438D02*
X181649143Y-110167057D01*
X181268190Y-110167057D02*
X181220571Y-110119438D01*
X181220571Y-110119438D02*
X181125333Y-110071819D01*
X181125333Y-110071819D02*
X180887238Y-110071819D01*
X180887238Y-110071819D02*
X180792000Y-110119438D01*
X180792000Y-110119438D02*
X180744381Y-110167057D01*
X180744381Y-110167057D02*
X180696762Y-110262295D01*
X180696762Y-110262295D02*
X180696762Y-110357533D01*
X180696762Y-110357533D02*
X180744381Y-110500390D01*
X180744381Y-110500390D02*
X181315809Y-111071819D01*
X181315809Y-111071819D02*
X180696762Y-111071819D01*
X180363428Y-110071819D02*
X179744381Y-110071819D01*
X179744381Y-110071819D02*
X180077714Y-110452771D01*
X180077714Y-110452771D02*
X179934857Y-110452771D01*
X179934857Y-110452771D02*
X179839619Y-110500390D01*
X179839619Y-110500390D02*
X179792000Y-110548009D01*
X179792000Y-110548009D02*
X179744381Y-110643247D01*
X179744381Y-110643247D02*
X179744381Y-110881342D01*
X179744381Y-110881342D02*
X179792000Y-110976580D01*
X179792000Y-110976580D02*
X179839619Y-111024200D01*
X179839619Y-111024200D02*
X179934857Y-111071819D01*
X179934857Y-111071819D02*
X180220571Y-111071819D01*
X180220571Y-111071819D02*
X180315809Y-111024200D01*
X180315809Y-111024200D02*
X180363428Y-110976580D01*
X179125333Y-110071819D02*
X179030095Y-110071819D01*
X179030095Y-110071819D02*
X178934857Y-110119438D01*
X178934857Y-110119438D02*
X178887238Y-110167057D01*
X178887238Y-110167057D02*
X178839619Y-110262295D01*
X178839619Y-110262295D02*
X178792000Y-110452771D01*
X178792000Y-110452771D02*
X178792000Y-110690866D01*
X178792000Y-110690866D02*
X178839619Y-110881342D01*
X178839619Y-110881342D02*
X178887238Y-110976580D01*
X178887238Y-110976580D02*
X178934857Y-111024200D01*
X178934857Y-111024200D02*
X179030095Y-111071819D01*
X179030095Y-111071819D02*
X179125333Y-111071819D01*
X179125333Y-111071819D02*
X179220571Y-111024200D01*
X179220571Y-111024200D02*
X179268190Y-110976580D01*
X179268190Y-110976580D02*
X179315809Y-110881342D01*
X179315809Y-110881342D02*
X179363428Y-110690866D01*
X179363428Y-110690866D02*
X179363428Y-110452771D01*
X179363428Y-110452771D02*
X179315809Y-110262295D01*
X179315809Y-110262295D02*
X179268190Y-110167057D01*
X179268190Y-110167057D02*
X179220571Y-110119438D01*
X179220571Y-110119438D02*
X179125333Y-110071819D01*
X177839619Y-111071819D02*
X178411047Y-111071819D01*
X178125333Y-111071819D02*
X178125333Y-110071819D01*
X178125333Y-110071819D02*
X178220571Y-110214676D01*
X178220571Y-110214676D02*
X178315809Y-110309914D01*
X178315809Y-110309914D02*
X178411047Y-110357533D01*
X177506285Y-110071819D02*
X176839619Y-110071819D01*
X176839619Y-110071819D02*
X177268190Y-111071819D01*
X176696762Y-111167057D02*
X175934857Y-111167057D01*
X175696761Y-111071819D02*
X175696761Y-110071819D01*
X175696761Y-110071819D02*
X175363428Y-110786104D01*
X175363428Y-110786104D02*
X175030095Y-110071819D01*
X175030095Y-110071819D02*
X175030095Y-111071819D01*
X174363428Y-110071819D02*
X174172952Y-110071819D01*
X174172952Y-110071819D02*
X174077714Y-110119438D01*
X174077714Y-110119438D02*
X173982476Y-110214676D01*
X173982476Y-110214676D02*
X173934857Y-110405152D01*
X173934857Y-110405152D02*
X173934857Y-110738485D01*
X173934857Y-110738485D02*
X173982476Y-110928961D01*
X173982476Y-110928961D02*
X174077714Y-111024200D01*
X174077714Y-111024200D02*
X174172952Y-111071819D01*
X174172952Y-111071819D02*
X174363428Y-111071819D01*
X174363428Y-111071819D02*
X174458666Y-111024200D01*
X174458666Y-111024200D02*
X174553904Y-110928961D01*
X174553904Y-110928961D02*
X174601523Y-110738485D01*
X174601523Y-110738485D02*
X174601523Y-110405152D01*
X174601523Y-110405152D02*
X174553904Y-110214676D01*
X174553904Y-110214676D02*
X174458666Y-110119438D01*
X174458666Y-110119438D02*
X174363428Y-110071819D01*
X173506285Y-111071819D02*
X173506285Y-110071819D01*
X173506285Y-110071819D02*
X173268190Y-110071819D01*
X173268190Y-110071819D02*
X173125333Y-110119438D01*
X173125333Y-110119438D02*
X173030095Y-110214676D01*
X173030095Y-110214676D02*
X172982476Y-110309914D01*
X172982476Y-110309914D02*
X172934857Y-110500390D01*
X172934857Y-110500390D02*
X172934857Y-110643247D01*
X172934857Y-110643247D02*
X172982476Y-110833723D01*
X172982476Y-110833723D02*
X173030095Y-110928961D01*
X173030095Y-110928961D02*
X173125333Y-111024200D01*
X173125333Y-111024200D02*
X173268190Y-111071819D01*
X173268190Y-111071819D02*
X173506285Y-111071819D01*
X172506285Y-110071819D02*
X172506285Y-110881342D01*
X172506285Y-110881342D02*
X172458666Y-110976580D01*
X172458666Y-110976580D02*
X172411047Y-111024200D01*
X172411047Y-111024200D02*
X172315809Y-111071819D01*
X172315809Y-111071819D02*
X172125333Y-111071819D01*
X172125333Y-111071819D02*
X172030095Y-111024200D01*
X172030095Y-111024200D02*
X171982476Y-110976580D01*
X171982476Y-110976580D02*
X171934857Y-110881342D01*
X171934857Y-110881342D02*
X171934857Y-110071819D01*
X170982476Y-111071819D02*
X171458666Y-111071819D01*
X171458666Y-111071819D02*
X171458666Y-110071819D01*
X170649142Y-110548009D02*
X170315809Y-110548009D01*
X170172952Y-111071819D02*
X170649142Y-111071819D01*
X170649142Y-111071819D02*
X170649142Y-110071819D01*
X170649142Y-110071819D02*
X170172952Y-110071819D01*
X163074819Y-112696666D02*
X163789104Y-112696666D01*
X163789104Y-112696666D02*
X163931961Y-112649047D01*
X163931961Y-112649047D02*
X164027200Y-112553809D01*
X164027200Y-112553809D02*
X164074819Y-112410952D01*
X164074819Y-112410952D02*
X164074819Y-112315714D01*
X164074819Y-113696666D02*
X164074819Y-113125238D01*
X164074819Y-113410952D02*
X163074819Y-113410952D01*
X163074819Y-113410952D02*
X163217676Y-113315714D01*
X163217676Y-113315714D02*
X163312914Y-113220476D01*
X163312914Y-113220476D02*
X163360533Y-113125238D01*
X176863333Y-130899819D02*
X176863333Y-131614104D01*
X176863333Y-131614104D02*
X176910952Y-131756961D01*
X176910952Y-131756961D02*
X177006190Y-131852200D01*
X177006190Y-131852200D02*
X177149047Y-131899819D01*
X177149047Y-131899819D02*
X177244285Y-131899819D01*
X175863333Y-131899819D02*
X176434761Y-131899819D01*
X176149047Y-131899819D02*
X176149047Y-130899819D01*
X176149047Y-130899819D02*
X176244285Y-131042676D01*
X176244285Y-131042676D02*
X176339523Y-131137914D01*
X176339523Y-131137914D02*
X176434761Y-131185533D01*
X231488808Y-112849819D02*
X231488808Y-111849819D01*
X231060237Y-111945057D02*
X231012618Y-111897438D01*
X231012618Y-111897438D02*
X230917380Y-111849819D01*
X230917380Y-111849819D02*
X230679285Y-111849819D01*
X230679285Y-111849819D02*
X230584047Y-111897438D01*
X230584047Y-111897438D02*
X230536428Y-111945057D01*
X230536428Y-111945057D02*
X230488809Y-112040295D01*
X230488809Y-112040295D02*
X230488809Y-112135533D01*
X230488809Y-112135533D02*
X230536428Y-112278390D01*
X230536428Y-112278390D02*
X231107856Y-112849819D01*
X231107856Y-112849819D02*
X230488809Y-112849819D01*
X229488809Y-112754580D02*
X229536428Y-112802200D01*
X229536428Y-112802200D02*
X229679285Y-112849819D01*
X229679285Y-112849819D02*
X229774523Y-112849819D01*
X229774523Y-112849819D02*
X229917380Y-112802200D01*
X229917380Y-112802200D02*
X230012618Y-112706961D01*
X230012618Y-112706961D02*
X230060237Y-112611723D01*
X230060237Y-112611723D02*
X230107856Y-112421247D01*
X230107856Y-112421247D02*
X230107856Y-112278390D01*
X230107856Y-112278390D02*
X230060237Y-112087914D01*
X230060237Y-112087914D02*
X230012618Y-111992676D01*
X230012618Y-111992676D02*
X229917380Y-111897438D01*
X229917380Y-111897438D02*
X229774523Y-111849819D01*
X229774523Y-111849819D02*
X229679285Y-111849819D01*
X229679285Y-111849819D02*
X229536428Y-111897438D01*
X229536428Y-111897438D02*
X229488809Y-111945057D01*
X229298333Y-112945057D02*
X228536428Y-112945057D01*
X228298332Y-112849819D02*
X228298332Y-111849819D01*
X227822142Y-112849819D02*
X227822142Y-111849819D01*
X227822142Y-111849819D02*
X227250714Y-112849819D01*
X227250714Y-112849819D02*
X227250714Y-111849819D01*
X226774523Y-112849819D02*
X226774523Y-111849819D01*
X226774523Y-111849819D02*
X226393571Y-111849819D01*
X226393571Y-111849819D02*
X226298333Y-111897438D01*
X226298333Y-111897438D02*
X226250714Y-111945057D01*
X226250714Y-111945057D02*
X226203095Y-112040295D01*
X226203095Y-112040295D02*
X226203095Y-112183152D01*
X226203095Y-112183152D02*
X226250714Y-112278390D01*
X226250714Y-112278390D02*
X226298333Y-112326009D01*
X226298333Y-112326009D02*
X226393571Y-112373628D01*
X226393571Y-112373628D02*
X226774523Y-112373628D01*
X225774523Y-111849819D02*
X225774523Y-112659342D01*
X225774523Y-112659342D02*
X225726904Y-112754580D01*
X225726904Y-112754580D02*
X225679285Y-112802200D01*
X225679285Y-112802200D02*
X225584047Y-112849819D01*
X225584047Y-112849819D02*
X225393571Y-112849819D01*
X225393571Y-112849819D02*
X225298333Y-112802200D01*
X225298333Y-112802200D02*
X225250714Y-112754580D01*
X225250714Y-112754580D02*
X225203095Y-112659342D01*
X225203095Y-112659342D02*
X225203095Y-111849819D01*
X224869761Y-111849819D02*
X224298333Y-111849819D01*
X224584047Y-112849819D02*
X224584047Y-111849819D01*
X220170333Y-111849819D02*
X220170333Y-112564104D01*
X220170333Y-112564104D02*
X220217952Y-112706961D01*
X220217952Y-112706961D02*
X220313190Y-112802200D01*
X220313190Y-112802200D02*
X220456047Y-112849819D01*
X220456047Y-112849819D02*
X220551285Y-112849819D01*
X219217952Y-111849819D02*
X219694142Y-111849819D01*
X219694142Y-111849819D02*
X219741761Y-112326009D01*
X219741761Y-112326009D02*
X219694142Y-112278390D01*
X219694142Y-112278390D02*
X219598904Y-112230771D01*
X219598904Y-112230771D02*
X219360809Y-112230771D01*
X219360809Y-112230771D02*
X219265571Y-112278390D01*
X219265571Y-112278390D02*
X219217952Y-112326009D01*
X219217952Y-112326009D02*
X219170333Y-112421247D01*
X219170333Y-112421247D02*
X219170333Y-112659342D01*
X219170333Y-112659342D02*
X219217952Y-112754580D01*
X219217952Y-112754580D02*
X219265571Y-112802200D01*
X219265571Y-112802200D02*
X219360809Y-112849819D01*
X219360809Y-112849819D02*
X219598904Y-112849819D01*
X219598904Y-112849819D02*
X219694142Y-112802200D01*
X219694142Y-112802200D02*
X219741761Y-112754580D01*
X187340237Y-123644819D02*
X187340237Y-122644819D01*
X187340237Y-122644819D02*
X186959285Y-122644819D01*
X186959285Y-122644819D02*
X186864047Y-122692438D01*
X186864047Y-122692438D02*
X186816428Y-122740057D01*
X186816428Y-122740057D02*
X186768809Y-122835295D01*
X186768809Y-122835295D02*
X186768809Y-122978152D01*
X186768809Y-122978152D02*
X186816428Y-123073390D01*
X186816428Y-123073390D02*
X186864047Y-123121009D01*
X186864047Y-123121009D02*
X186959285Y-123168628D01*
X186959285Y-123168628D02*
X187340237Y-123168628D01*
X185768809Y-123549580D02*
X185816428Y-123597200D01*
X185816428Y-123597200D02*
X185959285Y-123644819D01*
X185959285Y-123644819D02*
X186054523Y-123644819D01*
X186054523Y-123644819D02*
X186197380Y-123597200D01*
X186197380Y-123597200D02*
X186292618Y-123501961D01*
X186292618Y-123501961D02*
X186340237Y-123406723D01*
X186340237Y-123406723D02*
X186387856Y-123216247D01*
X186387856Y-123216247D02*
X186387856Y-123073390D01*
X186387856Y-123073390D02*
X186340237Y-122882914D01*
X186340237Y-122882914D02*
X186292618Y-122787676D01*
X186292618Y-122787676D02*
X186197380Y-122692438D01*
X186197380Y-122692438D02*
X186054523Y-122644819D01*
X186054523Y-122644819D02*
X185959285Y-122644819D01*
X185959285Y-122644819D02*
X185816428Y-122692438D01*
X185816428Y-122692438D02*
X185768809Y-122740057D01*
X185006904Y-123121009D02*
X185340237Y-123121009D01*
X185340237Y-123644819D02*
X185340237Y-122644819D01*
X185340237Y-122644819D02*
X184864047Y-122644819D01*
X184340237Y-123073390D02*
X184435475Y-123025771D01*
X184435475Y-123025771D02*
X184483094Y-122978152D01*
X184483094Y-122978152D02*
X184530713Y-122882914D01*
X184530713Y-122882914D02*
X184530713Y-122835295D01*
X184530713Y-122835295D02*
X184483094Y-122740057D01*
X184483094Y-122740057D02*
X184435475Y-122692438D01*
X184435475Y-122692438D02*
X184340237Y-122644819D01*
X184340237Y-122644819D02*
X184149761Y-122644819D01*
X184149761Y-122644819D02*
X184054523Y-122692438D01*
X184054523Y-122692438D02*
X184006904Y-122740057D01*
X184006904Y-122740057D02*
X183959285Y-122835295D01*
X183959285Y-122835295D02*
X183959285Y-122882914D01*
X183959285Y-122882914D02*
X184006904Y-122978152D01*
X184006904Y-122978152D02*
X184054523Y-123025771D01*
X184054523Y-123025771D02*
X184149761Y-123073390D01*
X184149761Y-123073390D02*
X184340237Y-123073390D01*
X184340237Y-123073390D02*
X184435475Y-123121009D01*
X184435475Y-123121009D02*
X184483094Y-123168628D01*
X184483094Y-123168628D02*
X184530713Y-123263866D01*
X184530713Y-123263866D02*
X184530713Y-123454342D01*
X184530713Y-123454342D02*
X184483094Y-123549580D01*
X184483094Y-123549580D02*
X184435475Y-123597200D01*
X184435475Y-123597200D02*
X184340237Y-123644819D01*
X184340237Y-123644819D02*
X184149761Y-123644819D01*
X184149761Y-123644819D02*
X184054523Y-123597200D01*
X184054523Y-123597200D02*
X184006904Y-123549580D01*
X184006904Y-123549580D02*
X183959285Y-123454342D01*
X183959285Y-123454342D02*
X183959285Y-123263866D01*
X183959285Y-123263866D02*
X184006904Y-123168628D01*
X184006904Y-123168628D02*
X184054523Y-123121009D01*
X184054523Y-123121009D02*
X184149761Y-123073390D01*
X183054523Y-122644819D02*
X183530713Y-122644819D01*
X183530713Y-122644819D02*
X183578332Y-123121009D01*
X183578332Y-123121009D02*
X183530713Y-123073390D01*
X183530713Y-123073390D02*
X183435475Y-123025771D01*
X183435475Y-123025771D02*
X183197380Y-123025771D01*
X183197380Y-123025771D02*
X183102142Y-123073390D01*
X183102142Y-123073390D02*
X183054523Y-123121009D01*
X183054523Y-123121009D02*
X183006904Y-123216247D01*
X183006904Y-123216247D02*
X183006904Y-123454342D01*
X183006904Y-123454342D02*
X183054523Y-123549580D01*
X183054523Y-123549580D02*
X183102142Y-123597200D01*
X183102142Y-123597200D02*
X183197380Y-123644819D01*
X183197380Y-123644819D02*
X183435475Y-123644819D01*
X183435475Y-123644819D02*
X183530713Y-123597200D01*
X183530713Y-123597200D02*
X183578332Y-123549580D01*
X182673570Y-122644819D02*
X182006904Y-122644819D01*
X182006904Y-122644819D02*
X182435475Y-123644819D01*
X181197380Y-122978152D02*
X181197380Y-123644819D01*
X181435475Y-122597200D02*
X181673570Y-123311485D01*
X181673570Y-123311485D02*
X181054523Y-123311485D01*
X173053333Y-117310819D02*
X173053333Y-118025104D01*
X173053333Y-118025104D02*
X173100952Y-118167961D01*
X173100952Y-118167961D02*
X173196190Y-118263200D01*
X173196190Y-118263200D02*
X173339047Y-118310819D01*
X173339047Y-118310819D02*
X173434285Y-118310819D01*
X172672380Y-117310819D02*
X172005714Y-117310819D01*
X172005714Y-117310819D02*
X172434285Y-118310819D01*
X191055237Y-133594819D02*
X191055237Y-132594819D01*
X191055237Y-132594819D02*
X190674285Y-132594819D01*
X190674285Y-132594819D02*
X190579047Y-132642438D01*
X190579047Y-132642438D02*
X190531428Y-132690057D01*
X190531428Y-132690057D02*
X190483809Y-132785295D01*
X190483809Y-132785295D02*
X190483809Y-132928152D01*
X190483809Y-132928152D02*
X190531428Y-133023390D01*
X190531428Y-133023390D02*
X190579047Y-133071009D01*
X190579047Y-133071009D02*
X190674285Y-133118628D01*
X190674285Y-133118628D02*
X191055237Y-133118628D01*
X189483809Y-133499580D02*
X189531428Y-133547200D01*
X189531428Y-133547200D02*
X189674285Y-133594819D01*
X189674285Y-133594819D02*
X189769523Y-133594819D01*
X189769523Y-133594819D02*
X189912380Y-133547200D01*
X189912380Y-133547200D02*
X190007618Y-133451961D01*
X190007618Y-133451961D02*
X190055237Y-133356723D01*
X190055237Y-133356723D02*
X190102856Y-133166247D01*
X190102856Y-133166247D02*
X190102856Y-133023390D01*
X190102856Y-133023390D02*
X190055237Y-132832914D01*
X190055237Y-132832914D02*
X190007618Y-132737676D01*
X190007618Y-132737676D02*
X189912380Y-132642438D01*
X189912380Y-132642438D02*
X189769523Y-132594819D01*
X189769523Y-132594819D02*
X189674285Y-132594819D01*
X189674285Y-132594819D02*
X189531428Y-132642438D01*
X189531428Y-132642438D02*
X189483809Y-132690057D01*
X188721904Y-133071009D02*
X189055237Y-133071009D01*
X189055237Y-133594819D02*
X189055237Y-132594819D01*
X189055237Y-132594819D02*
X188579047Y-132594819D01*
X188055237Y-133023390D02*
X188150475Y-132975771D01*
X188150475Y-132975771D02*
X188198094Y-132928152D01*
X188198094Y-132928152D02*
X188245713Y-132832914D01*
X188245713Y-132832914D02*
X188245713Y-132785295D01*
X188245713Y-132785295D02*
X188198094Y-132690057D01*
X188198094Y-132690057D02*
X188150475Y-132642438D01*
X188150475Y-132642438D02*
X188055237Y-132594819D01*
X188055237Y-132594819D02*
X187864761Y-132594819D01*
X187864761Y-132594819D02*
X187769523Y-132642438D01*
X187769523Y-132642438D02*
X187721904Y-132690057D01*
X187721904Y-132690057D02*
X187674285Y-132785295D01*
X187674285Y-132785295D02*
X187674285Y-132832914D01*
X187674285Y-132832914D02*
X187721904Y-132928152D01*
X187721904Y-132928152D02*
X187769523Y-132975771D01*
X187769523Y-132975771D02*
X187864761Y-133023390D01*
X187864761Y-133023390D02*
X188055237Y-133023390D01*
X188055237Y-133023390D02*
X188150475Y-133071009D01*
X188150475Y-133071009D02*
X188198094Y-133118628D01*
X188198094Y-133118628D02*
X188245713Y-133213866D01*
X188245713Y-133213866D02*
X188245713Y-133404342D01*
X188245713Y-133404342D02*
X188198094Y-133499580D01*
X188198094Y-133499580D02*
X188150475Y-133547200D01*
X188150475Y-133547200D02*
X188055237Y-133594819D01*
X188055237Y-133594819D02*
X187864761Y-133594819D01*
X187864761Y-133594819D02*
X187769523Y-133547200D01*
X187769523Y-133547200D02*
X187721904Y-133499580D01*
X187721904Y-133499580D02*
X187674285Y-133404342D01*
X187674285Y-133404342D02*
X187674285Y-133213866D01*
X187674285Y-133213866D02*
X187721904Y-133118628D01*
X187721904Y-133118628D02*
X187769523Y-133071009D01*
X187769523Y-133071009D02*
X187864761Y-133023390D01*
X186769523Y-132594819D02*
X187245713Y-132594819D01*
X187245713Y-132594819D02*
X187293332Y-133071009D01*
X187293332Y-133071009D02*
X187245713Y-133023390D01*
X187245713Y-133023390D02*
X187150475Y-132975771D01*
X187150475Y-132975771D02*
X186912380Y-132975771D01*
X186912380Y-132975771D02*
X186817142Y-133023390D01*
X186817142Y-133023390D02*
X186769523Y-133071009D01*
X186769523Y-133071009D02*
X186721904Y-133166247D01*
X186721904Y-133166247D02*
X186721904Y-133404342D01*
X186721904Y-133404342D02*
X186769523Y-133499580D01*
X186769523Y-133499580D02*
X186817142Y-133547200D01*
X186817142Y-133547200D02*
X186912380Y-133594819D01*
X186912380Y-133594819D02*
X187150475Y-133594819D01*
X187150475Y-133594819D02*
X187245713Y-133547200D01*
X187245713Y-133547200D02*
X187293332Y-133499580D01*
X186388570Y-132594819D02*
X185721904Y-132594819D01*
X185721904Y-132594819D02*
X186150475Y-133594819D01*
X184912380Y-132928152D02*
X184912380Y-133594819D01*
X185150475Y-132547200D02*
X185388570Y-133261485D01*
X185388570Y-133261485D02*
X184769523Y-133261485D01*
X173053333Y-99784819D02*
X173053333Y-100499104D01*
X173053333Y-100499104D02*
X173100952Y-100641961D01*
X173100952Y-100641961D02*
X173196190Y-100737200D01*
X173196190Y-100737200D02*
X173339047Y-100784819D01*
X173339047Y-100784819D02*
X173434285Y-100784819D01*
X172148571Y-99784819D02*
X172339047Y-99784819D01*
X172339047Y-99784819D02*
X172434285Y-99832438D01*
X172434285Y-99832438D02*
X172481904Y-99880057D01*
X172481904Y-99880057D02*
X172577142Y-100022914D01*
X172577142Y-100022914D02*
X172624761Y-100213390D01*
X172624761Y-100213390D02*
X172624761Y-100594342D01*
X172624761Y-100594342D02*
X172577142Y-100689580D01*
X172577142Y-100689580D02*
X172529523Y-100737200D01*
X172529523Y-100737200D02*
X172434285Y-100784819D01*
X172434285Y-100784819D02*
X172243809Y-100784819D01*
X172243809Y-100784819D02*
X172148571Y-100737200D01*
X172148571Y-100737200D02*
X172100952Y-100689580D01*
X172100952Y-100689580D02*
X172053333Y-100594342D01*
X172053333Y-100594342D02*
X172053333Y-100356247D01*
X172053333Y-100356247D02*
X172100952Y-100261009D01*
X172100952Y-100261009D02*
X172148571Y-100213390D01*
X172148571Y-100213390D02*
X172243809Y-100165771D01*
X172243809Y-100165771D02*
X172434285Y-100165771D01*
X172434285Y-100165771D02*
X172529523Y-100213390D01*
X172529523Y-100213390D02*
X172577142Y-100261009D01*
X172577142Y-100261009D02*
X172624761Y-100356247D01*
X134333808Y-112976819D02*
X134333808Y-111976819D01*
X133905237Y-112072057D02*
X133857618Y-112024438D01*
X133857618Y-112024438D02*
X133762380Y-111976819D01*
X133762380Y-111976819D02*
X133524285Y-111976819D01*
X133524285Y-111976819D02*
X133429047Y-112024438D01*
X133429047Y-112024438D02*
X133381428Y-112072057D01*
X133381428Y-112072057D02*
X133333809Y-112167295D01*
X133333809Y-112167295D02*
X133333809Y-112262533D01*
X133333809Y-112262533D02*
X133381428Y-112405390D01*
X133381428Y-112405390D02*
X133952856Y-112976819D01*
X133952856Y-112976819D02*
X133333809Y-112976819D01*
X132333809Y-112881580D02*
X132381428Y-112929200D01*
X132381428Y-112929200D02*
X132524285Y-112976819D01*
X132524285Y-112976819D02*
X132619523Y-112976819D01*
X132619523Y-112976819D02*
X132762380Y-112929200D01*
X132762380Y-112929200D02*
X132857618Y-112833961D01*
X132857618Y-112833961D02*
X132905237Y-112738723D01*
X132905237Y-112738723D02*
X132952856Y-112548247D01*
X132952856Y-112548247D02*
X132952856Y-112405390D01*
X132952856Y-112405390D02*
X132905237Y-112214914D01*
X132905237Y-112214914D02*
X132857618Y-112119676D01*
X132857618Y-112119676D02*
X132762380Y-112024438D01*
X132762380Y-112024438D02*
X132619523Y-111976819D01*
X132619523Y-111976819D02*
X132524285Y-111976819D01*
X132524285Y-111976819D02*
X132381428Y-112024438D01*
X132381428Y-112024438D02*
X132333809Y-112072057D01*
X132143333Y-113072057D02*
X131381428Y-113072057D01*
X131143332Y-112976819D02*
X131143332Y-111976819D01*
X130667142Y-112976819D02*
X130667142Y-111976819D01*
X130667142Y-111976819D02*
X130095714Y-112976819D01*
X130095714Y-112976819D02*
X130095714Y-111976819D01*
X129619523Y-112976819D02*
X129619523Y-111976819D01*
X129619523Y-111976819D02*
X129238571Y-111976819D01*
X129238571Y-111976819D02*
X129143333Y-112024438D01*
X129143333Y-112024438D02*
X129095714Y-112072057D01*
X129095714Y-112072057D02*
X129048095Y-112167295D01*
X129048095Y-112167295D02*
X129048095Y-112310152D01*
X129048095Y-112310152D02*
X129095714Y-112405390D01*
X129095714Y-112405390D02*
X129143333Y-112453009D01*
X129143333Y-112453009D02*
X129238571Y-112500628D01*
X129238571Y-112500628D02*
X129619523Y-112500628D01*
X128619523Y-111976819D02*
X128619523Y-112786342D01*
X128619523Y-112786342D02*
X128571904Y-112881580D01*
X128571904Y-112881580D02*
X128524285Y-112929200D01*
X128524285Y-112929200D02*
X128429047Y-112976819D01*
X128429047Y-112976819D02*
X128238571Y-112976819D01*
X128238571Y-112976819D02*
X128143333Y-112929200D01*
X128143333Y-112929200D02*
X128095714Y-112881580D01*
X128095714Y-112881580D02*
X128048095Y-112786342D01*
X128048095Y-112786342D02*
X128048095Y-111976819D01*
X127714761Y-111976819D02*
X127143333Y-111976819D01*
X127429047Y-112976819D02*
X127429047Y-111976819D01*
X141938333Y-115659819D02*
X141938333Y-116374104D01*
X141938333Y-116374104D02*
X141985952Y-116516961D01*
X141985952Y-116516961D02*
X142081190Y-116612200D01*
X142081190Y-116612200D02*
X142224047Y-116659819D01*
X142224047Y-116659819D02*
X142319285Y-116659819D01*
X141033571Y-115993152D02*
X141033571Y-116659819D01*
X141271666Y-115612200D02*
X141509761Y-116326485D01*
X141509761Y-116326485D02*
X140890714Y-116326485D01*
X216502808Y-135836819D02*
X216502808Y-134836819D01*
X216074237Y-134932057D02*
X216026618Y-134884438D01*
X216026618Y-134884438D02*
X215931380Y-134836819D01*
X215931380Y-134836819D02*
X215693285Y-134836819D01*
X215693285Y-134836819D02*
X215598047Y-134884438D01*
X215598047Y-134884438D02*
X215550428Y-134932057D01*
X215550428Y-134932057D02*
X215502809Y-135027295D01*
X215502809Y-135027295D02*
X215502809Y-135122533D01*
X215502809Y-135122533D02*
X215550428Y-135265390D01*
X215550428Y-135265390D02*
X216121856Y-135836819D01*
X216121856Y-135836819D02*
X215502809Y-135836819D01*
X214502809Y-135741580D02*
X214550428Y-135789200D01*
X214550428Y-135789200D02*
X214693285Y-135836819D01*
X214693285Y-135836819D02*
X214788523Y-135836819D01*
X214788523Y-135836819D02*
X214931380Y-135789200D01*
X214931380Y-135789200D02*
X215026618Y-135693961D01*
X215026618Y-135693961D02*
X215074237Y-135598723D01*
X215074237Y-135598723D02*
X215121856Y-135408247D01*
X215121856Y-135408247D02*
X215121856Y-135265390D01*
X215121856Y-135265390D02*
X215074237Y-135074914D01*
X215074237Y-135074914D02*
X215026618Y-134979676D01*
X215026618Y-134979676D02*
X214931380Y-134884438D01*
X214931380Y-134884438D02*
X214788523Y-134836819D01*
X214788523Y-134836819D02*
X214693285Y-134836819D01*
X214693285Y-134836819D02*
X214550428Y-134884438D01*
X214550428Y-134884438D02*
X214502809Y-134932057D01*
X214312333Y-135932057D02*
X213550428Y-135932057D01*
X213312332Y-135836819D02*
X213312332Y-134836819D01*
X212836142Y-135836819D02*
X212836142Y-134836819D01*
X212836142Y-134836819D02*
X212264714Y-135836819D01*
X212264714Y-135836819D02*
X212264714Y-134836819D01*
X211788523Y-135836819D02*
X211788523Y-134836819D01*
X211788523Y-134836819D02*
X211407571Y-134836819D01*
X211407571Y-134836819D02*
X211312333Y-134884438D01*
X211312333Y-134884438D02*
X211264714Y-134932057D01*
X211264714Y-134932057D02*
X211217095Y-135027295D01*
X211217095Y-135027295D02*
X211217095Y-135170152D01*
X211217095Y-135170152D02*
X211264714Y-135265390D01*
X211264714Y-135265390D02*
X211312333Y-135313009D01*
X211312333Y-135313009D02*
X211407571Y-135360628D01*
X211407571Y-135360628D02*
X211788523Y-135360628D01*
X210788523Y-134836819D02*
X210788523Y-135646342D01*
X210788523Y-135646342D02*
X210740904Y-135741580D01*
X210740904Y-135741580D02*
X210693285Y-135789200D01*
X210693285Y-135789200D02*
X210598047Y-135836819D01*
X210598047Y-135836819D02*
X210407571Y-135836819D01*
X210407571Y-135836819D02*
X210312333Y-135789200D01*
X210312333Y-135789200D02*
X210264714Y-135741580D01*
X210264714Y-135741580D02*
X210217095Y-135646342D01*
X210217095Y-135646342D02*
X210217095Y-134836819D01*
X209883761Y-134836819D02*
X209312333Y-134836819D01*
X209598047Y-135836819D02*
X209598047Y-134836819D01*
X213058333Y-130137819D02*
X213058333Y-130852104D01*
X213058333Y-130852104D02*
X213105952Y-130994961D01*
X213105952Y-130994961D02*
X213201190Y-131090200D01*
X213201190Y-131090200D02*
X213344047Y-131137819D01*
X213344047Y-131137819D02*
X213439285Y-131137819D01*
X212629761Y-130233057D02*
X212582142Y-130185438D01*
X212582142Y-130185438D02*
X212486904Y-130137819D01*
X212486904Y-130137819D02*
X212248809Y-130137819D01*
X212248809Y-130137819D02*
X212153571Y-130185438D01*
X212153571Y-130185438D02*
X212105952Y-130233057D01*
X212105952Y-130233057D02*
X212058333Y-130328295D01*
X212058333Y-130328295D02*
X212058333Y-130423533D01*
X212058333Y-130423533D02*
X212105952Y-130566390D01*
X212105952Y-130566390D02*
X212677380Y-131137819D01*
X212677380Y-131137819D02*
X212058333Y-131137819D01*
D10*
%TO.C,J3*%
X217805000Y-94110000D02*
X207645000Y-94110000D01*
X207645000Y-94110000D02*
X207645000Y-101650000D01*
X207645000Y-101650000D02*
X208615000Y-102620000D01*
X217805000Y-102620000D02*
X217805000Y-94110000D01*
X216835000Y-102620000D02*
X216835000Y-104140000D01*
X214295000Y-102620000D02*
X214295000Y-104140000D01*
X211755000Y-102620000D02*
X211755000Y-104140000D01*
X209215000Y-102620000D02*
X209215000Y-104140000D01*
X208615000Y-102620000D02*
X217805000Y-102620000D01*
X216835000Y-104140000D02*
X216235000Y-104140000D01*
X216235000Y-104140000D02*
X216235000Y-102620000D01*
X214295000Y-104140000D02*
X213695000Y-104140000D01*
X213695000Y-104140000D02*
X213695000Y-102620000D01*
X211755000Y-104140000D02*
X211155000Y-104140000D01*
X211155000Y-104140000D02*
X211155000Y-102620000D01*
X209215000Y-104140000D02*
X208615000Y-104140000D01*
X208615000Y-104140000D02*
X208615000Y-102620000D01*
%TO.C,J8*%
X189103000Y-105283000D02*
X189103000Y-125603000D01*
X160528000Y-105283000D02*
X189103000Y-105283000D01*
X160528000Y-105283000D02*
X160528000Y-125603000D01*
X189103000Y-125603000D02*
X160528000Y-125603000D01*
%TO.C,J1*%
X190100000Y-111530000D02*
X190100000Y-133030000D01*
X163100000Y-111530000D02*
X190100000Y-111530000D01*
X163100000Y-111530000D02*
X163100000Y-133030000D01*
X190100000Y-133030000D02*
X163100000Y-133030000D01*
%TO.C,J5*%
X224025000Y-117475000D02*
X224025000Y-107315000D01*
X224025000Y-107315000D02*
X216485000Y-107315000D01*
X216485000Y-107315000D02*
X215515000Y-108285000D01*
X215515000Y-117475000D02*
X224025000Y-117475000D01*
X215515000Y-116505000D02*
X213995000Y-116505000D01*
X215515000Y-113965000D02*
X213995000Y-113965000D01*
X215515000Y-111425000D02*
X213995000Y-111425000D01*
X215515000Y-108885000D02*
X213995000Y-108885000D01*
X215515000Y-108285000D02*
X215515000Y-117475000D01*
X213995000Y-116505000D02*
X213995000Y-115905000D01*
X213995000Y-115905000D02*
X215515000Y-115905000D01*
X213995000Y-113965000D02*
X213995000Y-113365000D01*
X213995000Y-113365000D02*
X215515000Y-113365000D01*
X213995000Y-111425000D02*
X213995000Y-110825000D01*
X213995000Y-110825000D02*
X215515000Y-110825000D01*
X213995000Y-108885000D02*
X213995000Y-108285000D01*
X213995000Y-108285000D02*
X215515000Y-108285000D01*
%TO.C,J7*%
X189230000Y-116586000D02*
X189230000Y-119126000D01*
X189230000Y-116586000D02*
X166370000Y-116586000D01*
X167005000Y-119126000D02*
X189230000Y-119126000D01*
X167005000Y-119126000D02*
X166370000Y-118491000D01*
X166370000Y-118491000D02*
X166370000Y-116586000D01*
%TO.C,J6*%
X189230000Y-99060000D02*
X189230000Y-101600000D01*
X189230000Y-99060000D02*
X166370000Y-99060000D01*
X167005000Y-101600000D02*
X189230000Y-101600000D01*
X167005000Y-101600000D02*
X166370000Y-100965000D01*
X166370000Y-100965000D02*
X166370000Y-99060000D01*
%TO.C,J4*%
X140020000Y-116525000D02*
X138200000Y-116525000D01*
X140020000Y-115885000D02*
X140020000Y-116525000D01*
X140020000Y-115885000D02*
X138200000Y-115885000D01*
X140020000Y-113985000D02*
X138200000Y-113985000D01*
X140020000Y-113345000D02*
X140020000Y-113985000D01*
X140020000Y-113345000D02*
X138200000Y-113345000D01*
X140020000Y-111445000D02*
X138200000Y-111445000D01*
X140020000Y-110805000D02*
X140020000Y-111445000D01*
X140020000Y-110805000D02*
X138200000Y-110805000D01*
X140020000Y-108905000D02*
X138200000Y-108905000D01*
X140020000Y-108265000D02*
X140020000Y-108905000D01*
X140020000Y-108265000D02*
X138200000Y-108265000D01*
X138200000Y-117475000D02*
X138200000Y-107950000D01*
X138200000Y-107950000D02*
X137565000Y-107315000D01*
X137565000Y-107315000D02*
X135660000Y-107315000D01*
X135660000Y-117475000D02*
X138200000Y-117475000D01*
X135660000Y-116525000D02*
X129660000Y-116525000D01*
X135660000Y-115885000D02*
X129660000Y-115885000D01*
X135660000Y-113985000D02*
X129660000Y-113985000D01*
X135660000Y-113345000D02*
X129660000Y-113345000D01*
X135660000Y-111445000D02*
X129660000Y-111445000D01*
X135660000Y-110805000D02*
X129660000Y-110805000D01*
X135660000Y-108905000D02*
X129660000Y-108905000D01*
X135660000Y-108265000D02*
X129660000Y-108265000D01*
X135660000Y-107315000D02*
X135660000Y-117475000D01*
X129660000Y-115885000D02*
X129660000Y-116525000D01*
X129660000Y-113345000D02*
X129660000Y-113985000D01*
X129660000Y-110805000D02*
X129660000Y-111445000D01*
X129660000Y-108265000D02*
X129660000Y-108905000D01*
%TO.C,J2*%
X216855000Y-131760000D02*
X216855000Y-133580000D01*
X216215000Y-131760000D02*
X216855000Y-131760000D01*
X216215000Y-131760000D02*
X216215000Y-133580000D01*
X214315000Y-131760000D02*
X214315000Y-133580000D01*
X213675000Y-131760000D02*
X214315000Y-131760000D01*
X213675000Y-131760000D02*
X213675000Y-133580000D01*
X211775000Y-131760000D02*
X211775000Y-133580000D01*
X211135000Y-131760000D02*
X211775000Y-131760000D01*
X211135000Y-131760000D02*
X211135000Y-133580000D01*
X209235000Y-131760000D02*
X209235000Y-133580000D01*
X208595000Y-131760000D02*
X209235000Y-131760000D01*
X208595000Y-131760000D02*
X208595000Y-133580000D01*
X217805000Y-133580000D02*
X208280000Y-133580000D01*
X208280000Y-133580000D02*
X207645000Y-134215000D01*
X207645000Y-134215000D02*
X207645000Y-136120000D01*
X217805000Y-136120000D02*
X217805000Y-133580000D01*
X216855000Y-136120000D02*
X216855000Y-142120000D01*
X216215000Y-136120000D02*
X216215000Y-142120000D01*
X214315000Y-136120000D02*
X214315000Y-142120000D01*
X213675000Y-136120000D02*
X213675000Y-142120000D01*
X211775000Y-136120000D02*
X211775000Y-142120000D01*
X211135000Y-136120000D02*
X211135000Y-142120000D01*
X209235000Y-136120000D02*
X209235000Y-142120000D01*
X208595000Y-136120000D02*
X208595000Y-142120000D01*
X207645000Y-136120000D02*
X217805000Y-136120000D01*
X216215000Y-142120000D02*
X216855000Y-142120000D01*
X213675000Y-142120000D02*
X214315000Y-142120000D01*
X211135000Y-142120000D02*
X211775000Y-142120000D01*
X208595000Y-142120000D02*
X209235000Y-142120000D01*
%TD*%
M02*
