M48
; DRILL file {KiCad 7.0.7} date Sun Oct  1 14:50:08 2023
; FORMAT={-:-/ absolute / inch / decimal}
; #@! TF.CreationDate,2023-10-01T14:50:08+02:00
; #@! TF.GenerationSoftware,Kicad,Pcbnew,7.0.7
; #@! TF.FileFunction,Plated,1,2,PTH
FMAT,2
INCH
; #@! TA.AperFunction,Plated,PTH,ViaDrill
T1C0.0236
; #@! TA.AperFunction,Plated,PTH,ComponentDrill
T2C0.0276
; #@! TA.AperFunction,Plated,PTH,ComponentDrill
T3C0.0394
%
G90
G05
T1
X6.19Y-5.075
X6.19Y-5.15
X6.19Y-5.225
X6.4Y-5.025
X6.425Y-4.975
X6.45Y-4.3
X7.565Y-5.025
X7.6978Y-4.515
X7.8Y-4.4
X7.8Y-4.85
X8.225Y-4.185
T3
X5.5Y-4.275
X5.5Y-4.375
X5.5Y-4.475
X5.5Y-4.575
X6.37Y-4.345
X6.37Y-4.445
X6.37Y-4.545
X6.37Y-4.645
X6.37Y-4.745
X6.495Y-4.195
X6.495Y-4.895
X6.495Y-5.045
X6.5Y-4.45
X6.5Y-4.55
X6.5Y-5.175
X6.595Y-4.195
X6.595Y-4.895
X6.595Y-5.045
X6.6Y-3.95
X6.6Y-4.45
X6.6Y-4.55
X6.6Y-4.64
X6.6Y-5.175
X6.695Y-4.195
X6.695Y-4.895
X6.695Y-5.045
X6.7Y-3.95
X6.7Y-4.45
X6.7Y-4.55
X6.7Y-4.64
X6.7Y-5.175
X6.795Y-4.195
X6.795Y-4.895
X6.795Y-5.045
X6.8Y-3.95
X6.8Y-4.45
X6.8Y-4.55
X6.8Y-4.64
X6.8Y-5.175
X6.895Y-4.195
X6.895Y-4.895
X6.895Y-5.045
X6.9Y-3.95
X6.9Y-4.45
X6.9Y-4.55
X6.9Y-4.64
X6.9Y-5.175
X6.995Y-4.195
X6.995Y-4.895
X6.995Y-5.045
X7.0Y-3.95
X7.0Y-4.45
X7.0Y-4.55
X7.0Y-4.64
X7.0Y-5.175
X7.095Y-4.195
X7.095Y-4.895
X7.095Y-5.045
X7.1Y-3.95
X7.1Y-4.45
X7.1Y-4.55
X7.1Y-4.64
X7.1Y-5.175
X7.195Y-4.195
X7.195Y-4.895
X7.195Y-5.045
X7.2Y-3.95
X7.2Y-4.45
X7.2Y-4.55
X7.2Y-4.64
X7.2Y-5.175
X7.295Y-4.195
X7.295Y-4.895
X7.295Y-5.045
X7.3Y-3.95
X7.3Y-4.45
X7.3Y-4.55
X7.3Y-4.64
X7.3Y-5.175
X7.395Y-4.195
X7.395Y-4.895
X7.395Y-5.045
X7.4Y-3.95
X7.4Y-4.45
X7.4Y-4.55
X7.4Y-4.64
X7.4Y-5.175
X7.545Y-4.42
X7.545Y-4.52
X7.545Y-4.62
X7.545Y-4.72
X7.545Y-4.82
X7.6287Y-4.05
X7.6287Y-4.15
X7.6287Y-4.25
X7.6287Y-4.35
X7.6287Y-4.74
X7.6287Y-4.84
X7.6287Y-4.94
X7.6287Y-5.04
X8.225Y-4.1
X8.225Y-5.2
X8.325Y-4.1
X8.325Y-5.2
X8.425Y-4.1
X8.425Y-4.275
X8.425Y-4.375
X8.425Y-4.475
X8.425Y-4.575
X8.425Y-5.2
X8.525Y-4.1
X8.525Y-5.2
T2
G00X5.9303Y-4.1
M15
G01X5.9697Y-4.1
M16
G05
G00X5.9303Y-4.3
M15
G01X5.9697Y-4.3
M16
G05
G00X5.9697Y-4.775
M15
G01X5.9303Y-4.775
M16
G05
G00X5.9697Y-4.975
M15
G01X5.9303Y-4.975
M16
G05
G00X6.2303Y-4.1
M15
G01X6.2697Y-4.1
M16
G05
G00X6.2303Y-4.3
M15
G01X6.2697Y-4.3
M16
G05
G00X6.2697Y-4.775
M15
G01X6.2303Y-4.775
M16
G05
G00X6.2697Y-4.975
M15
G01X6.2303Y-4.975
M16
G05
G00X6.5303Y-4.1
M15
G01X6.5697Y-4.1
M16
G05
G00X6.5303Y-4.3
M15
G01X6.5697Y-4.3
M16
G05
G00X6.5697Y-4.775
M15
G01X6.5303Y-4.775
M16
G05
G00X6.5697Y-4.975
M15
G01X6.5303Y-4.975
M16
G05
G00X6.8303Y-4.1
M15
G01X6.8697Y-4.1
M16
G05
G00X6.8303Y-4.3
M15
G01X6.8697Y-4.3
M16
G05
G00X6.8697Y-4.775
M15
G01X6.8303Y-4.775
M16
G05
G00X6.8697Y-4.975
M15
G01X6.8303Y-4.975
M16
G05
G00X7.1303Y-4.1
M15
G01X7.1697Y-4.1
M16
G05
G00X7.1303Y-4.3
M15
G01X7.1697Y-4.3
M16
G05
G00X7.1697Y-4.775
M15
G01X7.1303Y-4.775
M16
G05
G00X7.1697Y-4.975
M15
G01X7.1303Y-4.975
M16
G05
G00X7.4303Y-4.1
M15
G01X7.4697Y-4.1
M16
G05
G00X7.4303Y-4.3
M15
G01X7.4697Y-4.3
M16
G05
G00X7.4697Y-4.775
M15
G01X7.4303Y-4.775
M16
G05
G00X7.4697Y-4.975
M15
G01X7.4303Y-4.975
M16
G05
G00X7.7303Y-4.1
M15
G01X7.7697Y-4.1
M16
G05
G00X7.7303Y-4.3
M15
G01X7.7697Y-4.3
M16
G05
G00X7.7697Y-4.775
M15
G01X7.7303Y-4.775
M16
G05
G00X7.7697Y-4.975
M15
G01X7.7303Y-4.975
M16
G05
G00X8.0303Y-4.1
M15
G01X8.0697Y-4.1
M16
G05
G00X8.0303Y-4.3
M15
G01X8.0697Y-4.3
M16
G05
G00X8.0697Y-4.775
M15
G01X8.0303Y-4.775
M16
G05
G00X8.0697Y-4.975
M15
G01X8.0303Y-4.975
M16
G05
T0
M30
