%TF.GenerationSoftware,KiCad,Pcbnew,7.0.7*%
%TF.CreationDate,2023-10-01T14:50:05+02:00*%
%TF.ProjectId,MultiSwitch_Mcp23017_MiniSwitch,4d756c74-6953-4776-9974-63685f4d6370,1.0*%
%TF.SameCoordinates,Original*%
%TF.FileFunction,Legend,Bot*%
%TF.FilePolarity,Positive*%
%FSLAX46Y46*%
G04 Gerber Fmt 4.6, Leading zero omitted, Abs format (unit mm)*
G04 Created by KiCad (PCBNEW 7.0.7) date 2023-10-01 14:50:05*
%MOMM*%
%LPD*%
G01*
G04 APERTURE LIST*
%ADD10C,0.120000*%
%ADD11C,0.150000*%
G04 APERTURE END LIST*
D10*
X160655000Y-130556000D02*
X163195000Y-130556000D01*
X157734000Y-117729000D02*
X160528000Y-117729000D01*
D11*
X141236819Y-113588969D02*
X141236819Y-113112779D01*
X141236819Y-113112779D02*
X141713009Y-113065160D01*
X141713009Y-113065160D02*
X141665390Y-113112779D01*
X141665390Y-113112779D02*
X141617771Y-113208017D01*
X141617771Y-113208017D02*
X141617771Y-113446112D01*
X141617771Y-113446112D02*
X141665390Y-113541350D01*
X141665390Y-113541350D02*
X141713009Y-113588969D01*
X141713009Y-113588969D02*
X141808247Y-113636588D01*
X141808247Y-113636588D02*
X142046342Y-113636588D01*
X142046342Y-113636588D02*
X142141580Y-113588969D01*
X142141580Y-113588969D02*
X142189200Y-113541350D01*
X142189200Y-113541350D02*
X142236819Y-113446112D01*
X142236819Y-113446112D02*
X142236819Y-113208017D01*
X142236819Y-113208017D02*
X142189200Y-113112779D01*
X142189200Y-113112779D02*
X142141580Y-113065160D01*
X141236819Y-113922303D02*
X142236819Y-114255636D01*
X142236819Y-114255636D02*
X141236819Y-114588969D01*
X209895839Y-106375200D02*
X209752982Y-106422819D01*
X209752982Y-106422819D02*
X209514887Y-106422819D01*
X209514887Y-106422819D02*
X209419649Y-106375200D01*
X209419649Y-106375200D02*
X209372030Y-106327580D01*
X209372030Y-106327580D02*
X209324411Y-106232342D01*
X209324411Y-106232342D02*
X209324411Y-106137104D01*
X209324411Y-106137104D02*
X209372030Y-106041866D01*
X209372030Y-106041866D02*
X209419649Y-105994247D01*
X209419649Y-105994247D02*
X209514887Y-105946628D01*
X209514887Y-105946628D02*
X209705363Y-105899009D01*
X209705363Y-105899009D02*
X209800601Y-105851390D01*
X209800601Y-105851390D02*
X209848220Y-105803771D01*
X209848220Y-105803771D02*
X209895839Y-105708533D01*
X209895839Y-105708533D02*
X209895839Y-105613295D01*
X209895839Y-105613295D02*
X209848220Y-105518057D01*
X209848220Y-105518057D02*
X209800601Y-105470438D01*
X209800601Y-105470438D02*
X209705363Y-105422819D01*
X209705363Y-105422819D02*
X209467268Y-105422819D01*
X209467268Y-105422819D02*
X209324411Y-105470438D01*
X208895839Y-106422819D02*
X208895839Y-105422819D01*
X208895839Y-105422819D02*
X208657744Y-105422819D01*
X208657744Y-105422819D02*
X208514887Y-105470438D01*
X208514887Y-105470438D02*
X208419649Y-105565676D01*
X208419649Y-105565676D02*
X208372030Y-105660914D01*
X208372030Y-105660914D02*
X208324411Y-105851390D01*
X208324411Y-105851390D02*
X208324411Y-105994247D01*
X208324411Y-105994247D02*
X208372030Y-106184723D01*
X208372030Y-106184723D02*
X208419649Y-106279961D01*
X208419649Y-106279961D02*
X208514887Y-106375200D01*
X208514887Y-106375200D02*
X208657744Y-106422819D01*
X208657744Y-106422819D02*
X208895839Y-106422819D01*
X207943458Y-106137104D02*
X207467268Y-106137104D01*
X208038696Y-106422819D02*
X207705363Y-105422819D01*
X207705363Y-105422819D02*
X207372030Y-106422819D01*
X142189200Y-107096160D02*
X142236819Y-107239017D01*
X142236819Y-107239017D02*
X142236819Y-107477112D01*
X142236819Y-107477112D02*
X142189200Y-107572350D01*
X142189200Y-107572350D02*
X142141580Y-107619969D01*
X142141580Y-107619969D02*
X142046342Y-107667588D01*
X142046342Y-107667588D02*
X141951104Y-107667588D01*
X141951104Y-107667588D02*
X141855866Y-107619969D01*
X141855866Y-107619969D02*
X141808247Y-107572350D01*
X141808247Y-107572350D02*
X141760628Y-107477112D01*
X141760628Y-107477112D02*
X141713009Y-107286636D01*
X141713009Y-107286636D02*
X141665390Y-107191398D01*
X141665390Y-107191398D02*
X141617771Y-107143779D01*
X141617771Y-107143779D02*
X141522533Y-107096160D01*
X141522533Y-107096160D02*
X141427295Y-107096160D01*
X141427295Y-107096160D02*
X141332057Y-107143779D01*
X141332057Y-107143779D02*
X141284438Y-107191398D01*
X141284438Y-107191398D02*
X141236819Y-107286636D01*
X141236819Y-107286636D02*
X141236819Y-107524731D01*
X141236819Y-107524731D02*
X141284438Y-107667588D01*
X142236819Y-108096160D02*
X141236819Y-108096160D01*
X141236819Y-108096160D02*
X141236819Y-108334255D01*
X141236819Y-108334255D02*
X141284438Y-108477112D01*
X141284438Y-108477112D02*
X141379676Y-108572350D01*
X141379676Y-108572350D02*
X141474914Y-108619969D01*
X141474914Y-108619969D02*
X141665390Y-108667588D01*
X141665390Y-108667588D02*
X141808247Y-108667588D01*
X141808247Y-108667588D02*
X141998723Y-108619969D01*
X141998723Y-108619969D02*
X142093961Y-108572350D01*
X142093961Y-108572350D02*
X142189200Y-108477112D01*
X142189200Y-108477112D02*
X142236819Y-108334255D01*
X142236819Y-108334255D02*
X142236819Y-108096160D01*
X141951104Y-109048541D02*
X141951104Y-109524731D01*
X142236819Y-108953303D02*
X141236819Y-109286636D01*
X141236819Y-109286636D02*
X142236819Y-109619969D01*
X200407438Y-117930826D02*
X198407438Y-117930826D01*
X198407438Y-117930826D02*
X198407438Y-118502255D01*
X198407438Y-118502255D02*
X198502676Y-118645112D01*
X198502676Y-118645112D02*
X198597914Y-118716541D01*
X198597914Y-118716541D02*
X198788390Y-118787969D01*
X198788390Y-118787969D02*
X199074104Y-118787969D01*
X199074104Y-118787969D02*
X199264580Y-118716541D01*
X199264580Y-118716541D02*
X199359819Y-118645112D01*
X199359819Y-118645112D02*
X199455057Y-118502255D01*
X199455057Y-118502255D02*
X199455057Y-117930826D01*
X200216961Y-120287969D02*
X200312200Y-120216541D01*
X200312200Y-120216541D02*
X200407438Y-120002255D01*
X200407438Y-120002255D02*
X200407438Y-119859398D01*
X200407438Y-119859398D02*
X200312200Y-119645112D01*
X200312200Y-119645112D02*
X200121723Y-119502255D01*
X200121723Y-119502255D02*
X199931247Y-119430826D01*
X199931247Y-119430826D02*
X199550295Y-119359398D01*
X199550295Y-119359398D02*
X199264580Y-119359398D01*
X199264580Y-119359398D02*
X198883628Y-119430826D01*
X198883628Y-119430826D02*
X198693152Y-119502255D01*
X198693152Y-119502255D02*
X198502676Y-119645112D01*
X198502676Y-119645112D02*
X198407438Y-119859398D01*
X198407438Y-119859398D02*
X198407438Y-120002255D01*
X198407438Y-120002255D02*
X198502676Y-120216541D01*
X198502676Y-120216541D02*
X198597914Y-120287969D01*
X199359819Y-121430826D02*
X199359819Y-120930826D01*
X200407438Y-120930826D02*
X198407438Y-120930826D01*
X198407438Y-120930826D02*
X198407438Y-121645112D01*
X199264580Y-122430826D02*
X199169342Y-122287969D01*
X199169342Y-122287969D02*
X199074104Y-122216540D01*
X199074104Y-122216540D02*
X198883628Y-122145112D01*
X198883628Y-122145112D02*
X198788390Y-122145112D01*
X198788390Y-122145112D02*
X198597914Y-122216540D01*
X198597914Y-122216540D02*
X198502676Y-122287969D01*
X198502676Y-122287969D02*
X198407438Y-122430826D01*
X198407438Y-122430826D02*
X198407438Y-122716540D01*
X198407438Y-122716540D02*
X198502676Y-122859398D01*
X198502676Y-122859398D02*
X198597914Y-122930826D01*
X198597914Y-122930826D02*
X198788390Y-123002255D01*
X198788390Y-123002255D02*
X198883628Y-123002255D01*
X198883628Y-123002255D02*
X199074104Y-122930826D01*
X199074104Y-122930826D02*
X199169342Y-122859398D01*
X199169342Y-122859398D02*
X199264580Y-122716540D01*
X199264580Y-122716540D02*
X199264580Y-122430826D01*
X199264580Y-122430826D02*
X199359819Y-122287969D01*
X199359819Y-122287969D02*
X199455057Y-122216540D01*
X199455057Y-122216540D02*
X199645533Y-122145112D01*
X199645533Y-122145112D02*
X200026485Y-122145112D01*
X200026485Y-122145112D02*
X200216961Y-122216540D01*
X200216961Y-122216540D02*
X200312200Y-122287969D01*
X200312200Y-122287969D02*
X200407438Y-122430826D01*
X200407438Y-122430826D02*
X200407438Y-122716540D01*
X200407438Y-122716540D02*
X200312200Y-122859398D01*
X200312200Y-122859398D02*
X200216961Y-122930826D01*
X200216961Y-122930826D02*
X200026485Y-123002255D01*
X200026485Y-123002255D02*
X199645533Y-123002255D01*
X199645533Y-123002255D02*
X199455057Y-122930826D01*
X199455057Y-122930826D02*
X199359819Y-122859398D01*
X199359819Y-122859398D02*
X199264580Y-122716540D01*
X198407438Y-124359397D02*
X198407438Y-123645111D01*
X198407438Y-123645111D02*
X199359819Y-123573683D01*
X199359819Y-123573683D02*
X199264580Y-123645111D01*
X199264580Y-123645111D02*
X199169342Y-123787969D01*
X199169342Y-123787969D02*
X199169342Y-124145111D01*
X199169342Y-124145111D02*
X199264580Y-124287969D01*
X199264580Y-124287969D02*
X199359819Y-124359397D01*
X199359819Y-124359397D02*
X199550295Y-124430826D01*
X199550295Y-124430826D02*
X200026485Y-124430826D01*
X200026485Y-124430826D02*
X200216961Y-124359397D01*
X200216961Y-124359397D02*
X200312200Y-124287969D01*
X200312200Y-124287969D02*
X200407438Y-124145111D01*
X200407438Y-124145111D02*
X200407438Y-123787969D01*
X200407438Y-123787969D02*
X200312200Y-123645111D01*
X200312200Y-123645111D02*
X200216961Y-123573683D01*
X198407438Y-124930825D02*
X198407438Y-125930825D01*
X198407438Y-125930825D02*
X200407438Y-125287968D01*
X199074104Y-127145111D02*
X200407438Y-127145111D01*
X198312200Y-126787968D02*
X199740771Y-126430825D01*
X199740771Y-126430825D02*
X199740771Y-127359396D01*
X159767438Y-110691826D02*
X157767438Y-110691826D01*
X157767438Y-110691826D02*
X157767438Y-111263255D01*
X157767438Y-111263255D02*
X157862676Y-111406112D01*
X157862676Y-111406112D02*
X157957914Y-111477541D01*
X157957914Y-111477541D02*
X158148390Y-111548969D01*
X158148390Y-111548969D02*
X158434104Y-111548969D01*
X158434104Y-111548969D02*
X158624580Y-111477541D01*
X158624580Y-111477541D02*
X158719819Y-111406112D01*
X158719819Y-111406112D02*
X158815057Y-111263255D01*
X158815057Y-111263255D02*
X158815057Y-110691826D01*
X159576961Y-113048969D02*
X159672200Y-112977541D01*
X159672200Y-112977541D02*
X159767438Y-112763255D01*
X159767438Y-112763255D02*
X159767438Y-112620398D01*
X159767438Y-112620398D02*
X159672200Y-112406112D01*
X159672200Y-112406112D02*
X159481723Y-112263255D01*
X159481723Y-112263255D02*
X159291247Y-112191826D01*
X159291247Y-112191826D02*
X158910295Y-112120398D01*
X158910295Y-112120398D02*
X158624580Y-112120398D01*
X158624580Y-112120398D02*
X158243628Y-112191826D01*
X158243628Y-112191826D02*
X158053152Y-112263255D01*
X158053152Y-112263255D02*
X157862676Y-112406112D01*
X157862676Y-112406112D02*
X157767438Y-112620398D01*
X157767438Y-112620398D02*
X157767438Y-112763255D01*
X157767438Y-112763255D02*
X157862676Y-112977541D01*
X157862676Y-112977541D02*
X157957914Y-113048969D01*
X158719819Y-114191826D02*
X158719819Y-113691826D01*
X159767438Y-113691826D02*
X157767438Y-113691826D01*
X157767438Y-113691826D02*
X157767438Y-114406112D01*
X158624580Y-115191826D02*
X158529342Y-115048969D01*
X158529342Y-115048969D02*
X158434104Y-114977540D01*
X158434104Y-114977540D02*
X158243628Y-114906112D01*
X158243628Y-114906112D02*
X158148390Y-114906112D01*
X158148390Y-114906112D02*
X157957914Y-114977540D01*
X157957914Y-114977540D02*
X157862676Y-115048969D01*
X157862676Y-115048969D02*
X157767438Y-115191826D01*
X157767438Y-115191826D02*
X157767438Y-115477540D01*
X157767438Y-115477540D02*
X157862676Y-115620398D01*
X157862676Y-115620398D02*
X157957914Y-115691826D01*
X157957914Y-115691826D02*
X158148390Y-115763255D01*
X158148390Y-115763255D02*
X158243628Y-115763255D01*
X158243628Y-115763255D02*
X158434104Y-115691826D01*
X158434104Y-115691826D02*
X158529342Y-115620398D01*
X158529342Y-115620398D02*
X158624580Y-115477540D01*
X158624580Y-115477540D02*
X158624580Y-115191826D01*
X158624580Y-115191826D02*
X158719819Y-115048969D01*
X158719819Y-115048969D02*
X158815057Y-114977540D01*
X158815057Y-114977540D02*
X159005533Y-114906112D01*
X159005533Y-114906112D02*
X159386485Y-114906112D01*
X159386485Y-114906112D02*
X159576961Y-114977540D01*
X159576961Y-114977540D02*
X159672200Y-115048969D01*
X159672200Y-115048969D02*
X159767438Y-115191826D01*
X159767438Y-115191826D02*
X159767438Y-115477540D01*
X159767438Y-115477540D02*
X159672200Y-115620398D01*
X159672200Y-115620398D02*
X159576961Y-115691826D01*
X159576961Y-115691826D02*
X159386485Y-115763255D01*
X159386485Y-115763255D02*
X159005533Y-115763255D01*
X159005533Y-115763255D02*
X158815057Y-115691826D01*
X158815057Y-115691826D02*
X158719819Y-115620398D01*
X158719819Y-115620398D02*
X158624580Y-115477540D01*
X157767438Y-117120397D02*
X157767438Y-116406111D01*
X157767438Y-116406111D02*
X158719819Y-116334683D01*
X158719819Y-116334683D02*
X158624580Y-116406111D01*
X158624580Y-116406111D02*
X158529342Y-116548969D01*
X158529342Y-116548969D02*
X158529342Y-116906111D01*
X158529342Y-116906111D02*
X158624580Y-117048969D01*
X158624580Y-117048969D02*
X158719819Y-117120397D01*
X158719819Y-117120397D02*
X158910295Y-117191826D01*
X158910295Y-117191826D02*
X159386485Y-117191826D01*
X159386485Y-117191826D02*
X159576961Y-117120397D01*
X159576961Y-117120397D02*
X159672200Y-117048969D01*
X159672200Y-117048969D02*
X159767438Y-116906111D01*
X159767438Y-116906111D02*
X159767438Y-116548969D01*
X159767438Y-116548969D02*
X159672200Y-116406111D01*
X159672200Y-116406111D02*
X159576961Y-116334683D01*
X157767438Y-117691825D02*
X157767438Y-118691825D01*
X157767438Y-118691825D02*
X159767438Y-118048968D01*
X157767438Y-119977539D02*
X157767438Y-119263253D01*
X157767438Y-119263253D02*
X158719819Y-119191825D01*
X158719819Y-119191825D02*
X158624580Y-119263253D01*
X158624580Y-119263253D02*
X158529342Y-119406111D01*
X158529342Y-119406111D02*
X158529342Y-119763253D01*
X158529342Y-119763253D02*
X158624580Y-119906111D01*
X158624580Y-119906111D02*
X158719819Y-119977539D01*
X158719819Y-119977539D02*
X158910295Y-120048968D01*
X158910295Y-120048968D02*
X159386485Y-120048968D01*
X159386485Y-120048968D02*
X159576961Y-119977539D01*
X159576961Y-119977539D02*
X159672200Y-119906111D01*
X159672200Y-119906111D02*
X159767438Y-119763253D01*
X159767438Y-119763253D02*
X159767438Y-119406111D01*
X159767438Y-119406111D02*
X159672200Y-119263253D01*
X159672200Y-119263253D02*
X159576961Y-119191825D01*
X217452411Y-105470438D02*
X217547649Y-105422819D01*
X217547649Y-105422819D02*
X217690506Y-105422819D01*
X217690506Y-105422819D02*
X217833363Y-105470438D01*
X217833363Y-105470438D02*
X217928601Y-105565676D01*
X217928601Y-105565676D02*
X217976220Y-105660914D01*
X217976220Y-105660914D02*
X218023839Y-105851390D01*
X218023839Y-105851390D02*
X218023839Y-105994247D01*
X218023839Y-105994247D02*
X217976220Y-106184723D01*
X217976220Y-106184723D02*
X217928601Y-106279961D01*
X217928601Y-106279961D02*
X217833363Y-106375200D01*
X217833363Y-106375200D02*
X217690506Y-106422819D01*
X217690506Y-106422819D02*
X217595268Y-106422819D01*
X217595268Y-106422819D02*
X217452411Y-106375200D01*
X217452411Y-106375200D02*
X217404792Y-106327580D01*
X217404792Y-106327580D02*
X217404792Y-105994247D01*
X217404792Y-105994247D02*
X217595268Y-105994247D01*
X216976220Y-106422819D02*
X216976220Y-105422819D01*
X216976220Y-105422819D02*
X216404792Y-106422819D01*
X216404792Y-106422819D02*
X216404792Y-105422819D01*
X215928601Y-106422819D02*
X215928601Y-105422819D01*
X215928601Y-105422819D02*
X215690506Y-105422819D01*
X215690506Y-105422819D02*
X215547649Y-105470438D01*
X215547649Y-105470438D02*
X215452411Y-105565676D01*
X215452411Y-105565676D02*
X215404792Y-105660914D01*
X215404792Y-105660914D02*
X215357173Y-105851390D01*
X215357173Y-105851390D02*
X215357173Y-105994247D01*
X215357173Y-105994247D02*
X215404792Y-106184723D01*
X215404792Y-106184723D02*
X215452411Y-106279961D01*
X215452411Y-106279961D02*
X215547649Y-106375200D01*
X215547649Y-106375200D02*
X215690506Y-106422819D01*
X215690506Y-106422819D02*
X215928601Y-106422819D01*
X214198030Y-129679819D02*
X214674220Y-129679819D01*
X214674220Y-129679819D02*
X214721839Y-130156009D01*
X214721839Y-130156009D02*
X214674220Y-130108390D01*
X214674220Y-130108390D02*
X214578982Y-130060771D01*
X214578982Y-130060771D02*
X214340887Y-130060771D01*
X214340887Y-130060771D02*
X214245649Y-130108390D01*
X214245649Y-130108390D02*
X214198030Y-130156009D01*
X214198030Y-130156009D02*
X214150411Y-130251247D01*
X214150411Y-130251247D02*
X214150411Y-130489342D01*
X214150411Y-130489342D02*
X214198030Y-130584580D01*
X214198030Y-130584580D02*
X214245649Y-130632200D01*
X214245649Y-130632200D02*
X214340887Y-130679819D01*
X214340887Y-130679819D02*
X214578982Y-130679819D01*
X214578982Y-130679819D02*
X214674220Y-130632200D01*
X214674220Y-130632200D02*
X214721839Y-130584580D01*
X213864696Y-129679819D02*
X213531363Y-130679819D01*
X213531363Y-130679819D02*
X213198030Y-129679819D01*
X141284438Y-115541588D02*
X141236819Y-115446350D01*
X141236819Y-115446350D02*
X141236819Y-115303493D01*
X141236819Y-115303493D02*
X141284438Y-115160636D01*
X141284438Y-115160636D02*
X141379676Y-115065398D01*
X141379676Y-115065398D02*
X141474914Y-115017779D01*
X141474914Y-115017779D02*
X141665390Y-114970160D01*
X141665390Y-114970160D02*
X141808247Y-114970160D01*
X141808247Y-114970160D02*
X141998723Y-115017779D01*
X141998723Y-115017779D02*
X142093961Y-115065398D01*
X142093961Y-115065398D02*
X142189200Y-115160636D01*
X142189200Y-115160636D02*
X142236819Y-115303493D01*
X142236819Y-115303493D02*
X142236819Y-115398731D01*
X142236819Y-115398731D02*
X142189200Y-115541588D01*
X142189200Y-115541588D02*
X142141580Y-115589207D01*
X142141580Y-115589207D02*
X141808247Y-115589207D01*
X141808247Y-115589207D02*
X141808247Y-115398731D01*
X142236819Y-116017779D02*
X141236819Y-116017779D01*
X141236819Y-116017779D02*
X142236819Y-116589207D01*
X142236819Y-116589207D02*
X141236819Y-116589207D01*
X142236819Y-117065398D02*
X141236819Y-117065398D01*
X141236819Y-117065398D02*
X141236819Y-117303493D01*
X141236819Y-117303493D02*
X141284438Y-117446350D01*
X141284438Y-117446350D02*
X141379676Y-117541588D01*
X141379676Y-117541588D02*
X141474914Y-117589207D01*
X141474914Y-117589207D02*
X141665390Y-117636826D01*
X141665390Y-117636826D02*
X141808247Y-117636826D01*
X141808247Y-117636826D02*
X141998723Y-117589207D01*
X141998723Y-117589207D02*
X142093961Y-117541588D01*
X142093961Y-117541588D02*
X142189200Y-117446350D01*
X142189200Y-117446350D02*
X142236819Y-117303493D01*
X142236819Y-117303493D02*
X142236819Y-117065398D01*
X160199173Y-130557438D02*
X160199173Y-128557438D01*
X160199173Y-128557438D02*
X159699173Y-129986009D01*
X159699173Y-129986009D02*
X159199173Y-128557438D01*
X159199173Y-128557438D02*
X159199173Y-130557438D01*
X157627744Y-130366961D02*
X157699172Y-130462200D01*
X157699172Y-130462200D02*
X157913458Y-130557438D01*
X157913458Y-130557438D02*
X158056315Y-130557438D01*
X158056315Y-130557438D02*
X158270601Y-130462200D01*
X158270601Y-130462200D02*
X158413458Y-130271723D01*
X158413458Y-130271723D02*
X158484887Y-130081247D01*
X158484887Y-130081247D02*
X158556315Y-129700295D01*
X158556315Y-129700295D02*
X158556315Y-129414580D01*
X158556315Y-129414580D02*
X158484887Y-129033628D01*
X158484887Y-129033628D02*
X158413458Y-128843152D01*
X158413458Y-128843152D02*
X158270601Y-128652676D01*
X158270601Y-128652676D02*
X158056315Y-128557438D01*
X158056315Y-128557438D02*
X157913458Y-128557438D01*
X157913458Y-128557438D02*
X157699172Y-128652676D01*
X157699172Y-128652676D02*
X157627744Y-128747914D01*
X156984887Y-130557438D02*
X156984887Y-128557438D01*
X156984887Y-128557438D02*
X156413458Y-128557438D01*
X156413458Y-128557438D02*
X156270601Y-128652676D01*
X156270601Y-128652676D02*
X156199172Y-128747914D01*
X156199172Y-128747914D02*
X156127744Y-128938390D01*
X156127744Y-128938390D02*
X156127744Y-129224104D01*
X156127744Y-129224104D02*
X156199172Y-129414580D01*
X156199172Y-129414580D02*
X156270601Y-129509819D01*
X156270601Y-129509819D02*
X156413458Y-129605057D01*
X156413458Y-129605057D02*
X156984887Y-129605057D01*
X155556315Y-128747914D02*
X155484887Y-128652676D01*
X155484887Y-128652676D02*
X155342030Y-128557438D01*
X155342030Y-128557438D02*
X154984887Y-128557438D01*
X154984887Y-128557438D02*
X154842030Y-128652676D01*
X154842030Y-128652676D02*
X154770601Y-128747914D01*
X154770601Y-128747914D02*
X154699172Y-128938390D01*
X154699172Y-128938390D02*
X154699172Y-129128866D01*
X154699172Y-129128866D02*
X154770601Y-129414580D01*
X154770601Y-129414580D02*
X155627744Y-130557438D01*
X155627744Y-130557438D02*
X154699172Y-130557438D01*
X154199173Y-128557438D02*
X153270601Y-128557438D01*
X153270601Y-128557438D02*
X153770601Y-129319342D01*
X153770601Y-129319342D02*
X153556316Y-129319342D01*
X153556316Y-129319342D02*
X153413459Y-129414580D01*
X153413459Y-129414580D02*
X153342030Y-129509819D01*
X153342030Y-129509819D02*
X153270601Y-129700295D01*
X153270601Y-129700295D02*
X153270601Y-130176485D01*
X153270601Y-130176485D02*
X153342030Y-130366961D01*
X153342030Y-130366961D02*
X153413459Y-130462200D01*
X153413459Y-130462200D02*
X153556316Y-130557438D01*
X153556316Y-130557438D02*
X153984887Y-130557438D01*
X153984887Y-130557438D02*
X154127744Y-130462200D01*
X154127744Y-130462200D02*
X154199173Y-130366961D01*
X152342030Y-128557438D02*
X152199173Y-128557438D01*
X152199173Y-128557438D02*
X152056316Y-128652676D01*
X152056316Y-128652676D02*
X151984888Y-128747914D01*
X151984888Y-128747914D02*
X151913459Y-128938390D01*
X151913459Y-128938390D02*
X151842030Y-129319342D01*
X151842030Y-129319342D02*
X151842030Y-129795533D01*
X151842030Y-129795533D02*
X151913459Y-130176485D01*
X151913459Y-130176485D02*
X151984888Y-130366961D01*
X151984888Y-130366961D02*
X152056316Y-130462200D01*
X152056316Y-130462200D02*
X152199173Y-130557438D01*
X152199173Y-130557438D02*
X152342030Y-130557438D01*
X152342030Y-130557438D02*
X152484888Y-130462200D01*
X152484888Y-130462200D02*
X152556316Y-130366961D01*
X152556316Y-130366961D02*
X152627745Y-130176485D01*
X152627745Y-130176485D02*
X152699173Y-129795533D01*
X152699173Y-129795533D02*
X152699173Y-129319342D01*
X152699173Y-129319342D02*
X152627745Y-128938390D01*
X152627745Y-128938390D02*
X152556316Y-128747914D01*
X152556316Y-128747914D02*
X152484888Y-128652676D01*
X152484888Y-128652676D02*
X152342030Y-128557438D01*
X150413459Y-130557438D02*
X151270602Y-130557438D01*
X150842031Y-130557438D02*
X150842031Y-128557438D01*
X150842031Y-128557438D02*
X150984888Y-128843152D01*
X150984888Y-128843152D02*
X151127745Y-129033628D01*
X151127745Y-129033628D02*
X151270602Y-129128866D01*
X149913460Y-128557438D02*
X148913460Y-128557438D01*
X148913460Y-128557438D02*
X149556317Y-130557438D01*
X211251800Y-112359839D02*
X211204180Y-112216982D01*
X211204180Y-112216982D02*
X211204180Y-111978887D01*
X211204180Y-111978887D02*
X211251800Y-111883649D01*
X211251800Y-111883649D02*
X211299419Y-111836030D01*
X211299419Y-111836030D02*
X211394657Y-111788411D01*
X211394657Y-111788411D02*
X211489895Y-111788411D01*
X211489895Y-111788411D02*
X211585133Y-111836030D01*
X211585133Y-111836030D02*
X211632752Y-111883649D01*
X211632752Y-111883649D02*
X211680371Y-111978887D01*
X211680371Y-111978887D02*
X211727990Y-112169363D01*
X211727990Y-112169363D02*
X211775609Y-112264601D01*
X211775609Y-112264601D02*
X211823228Y-112312220D01*
X211823228Y-112312220D02*
X211918466Y-112359839D01*
X211918466Y-112359839D02*
X212013704Y-112359839D01*
X212013704Y-112359839D02*
X212108942Y-112312220D01*
X212108942Y-112312220D02*
X212156561Y-112264601D01*
X212156561Y-112264601D02*
X212204180Y-112169363D01*
X212204180Y-112169363D02*
X212204180Y-111931268D01*
X212204180Y-111931268D02*
X212156561Y-111788411D01*
X211299419Y-110788411D02*
X211251800Y-110836030D01*
X211251800Y-110836030D02*
X211204180Y-110978887D01*
X211204180Y-110978887D02*
X211204180Y-111074125D01*
X211204180Y-111074125D02*
X211251800Y-111216982D01*
X211251800Y-111216982D02*
X211347038Y-111312220D01*
X211347038Y-111312220D02*
X211442276Y-111359839D01*
X211442276Y-111359839D02*
X211632752Y-111407458D01*
X211632752Y-111407458D02*
X211775609Y-111407458D01*
X211775609Y-111407458D02*
X211966085Y-111359839D01*
X211966085Y-111359839D02*
X212061323Y-111312220D01*
X212061323Y-111312220D02*
X212156561Y-111216982D01*
X212156561Y-111216982D02*
X212204180Y-111074125D01*
X212204180Y-111074125D02*
X212204180Y-110978887D01*
X212204180Y-110978887D02*
X212156561Y-110836030D01*
X212156561Y-110836030D02*
X212108942Y-110788411D01*
X211204180Y-109883649D02*
X211204180Y-110359839D01*
X211204180Y-110359839D02*
X212204180Y-110359839D01*
X209768839Y-130632200D02*
X209625982Y-130679819D01*
X209625982Y-130679819D02*
X209387887Y-130679819D01*
X209387887Y-130679819D02*
X209292649Y-130632200D01*
X209292649Y-130632200D02*
X209245030Y-130584580D01*
X209245030Y-130584580D02*
X209197411Y-130489342D01*
X209197411Y-130489342D02*
X209197411Y-130394104D01*
X209197411Y-130394104D02*
X209245030Y-130298866D01*
X209245030Y-130298866D02*
X209292649Y-130251247D01*
X209292649Y-130251247D02*
X209387887Y-130203628D01*
X209387887Y-130203628D02*
X209578363Y-130156009D01*
X209578363Y-130156009D02*
X209673601Y-130108390D01*
X209673601Y-130108390D02*
X209721220Y-130060771D01*
X209721220Y-130060771D02*
X209768839Y-129965533D01*
X209768839Y-129965533D02*
X209768839Y-129870295D01*
X209768839Y-129870295D02*
X209721220Y-129775057D01*
X209721220Y-129775057D02*
X209673601Y-129727438D01*
X209673601Y-129727438D02*
X209578363Y-129679819D01*
X209578363Y-129679819D02*
X209340268Y-129679819D01*
X209340268Y-129679819D02*
X209197411Y-129727438D01*
X208768839Y-130679819D02*
X208768839Y-129679819D01*
X208768839Y-129679819D02*
X208530744Y-129679819D01*
X208530744Y-129679819D02*
X208387887Y-129727438D01*
X208387887Y-129727438D02*
X208292649Y-129822676D01*
X208292649Y-129822676D02*
X208245030Y-129917914D01*
X208245030Y-129917914D02*
X208197411Y-130108390D01*
X208197411Y-130108390D02*
X208197411Y-130251247D01*
X208197411Y-130251247D02*
X208245030Y-130441723D01*
X208245030Y-130441723D02*
X208292649Y-130536961D01*
X208292649Y-130536961D02*
X208387887Y-130632200D01*
X208387887Y-130632200D02*
X208530744Y-130679819D01*
X208530744Y-130679819D02*
X208768839Y-130679819D01*
X207816458Y-130394104D02*
X207340268Y-130394104D01*
X207911696Y-130679819D02*
X207578363Y-129679819D01*
X207578363Y-129679819D02*
X207245030Y-130679819D01*
X212689839Y-130632200D02*
X212546982Y-130679819D01*
X212546982Y-130679819D02*
X212308887Y-130679819D01*
X212308887Y-130679819D02*
X212213649Y-130632200D01*
X212213649Y-130632200D02*
X212166030Y-130584580D01*
X212166030Y-130584580D02*
X212118411Y-130489342D01*
X212118411Y-130489342D02*
X212118411Y-130394104D01*
X212118411Y-130394104D02*
X212166030Y-130298866D01*
X212166030Y-130298866D02*
X212213649Y-130251247D01*
X212213649Y-130251247D02*
X212308887Y-130203628D01*
X212308887Y-130203628D02*
X212499363Y-130156009D01*
X212499363Y-130156009D02*
X212594601Y-130108390D01*
X212594601Y-130108390D02*
X212642220Y-130060771D01*
X212642220Y-130060771D02*
X212689839Y-129965533D01*
X212689839Y-129965533D02*
X212689839Y-129870295D01*
X212689839Y-129870295D02*
X212642220Y-129775057D01*
X212642220Y-129775057D02*
X212594601Y-129727438D01*
X212594601Y-129727438D02*
X212499363Y-129679819D01*
X212499363Y-129679819D02*
X212261268Y-129679819D01*
X212261268Y-129679819D02*
X212118411Y-129727438D01*
X211118411Y-130584580D02*
X211166030Y-130632200D01*
X211166030Y-130632200D02*
X211308887Y-130679819D01*
X211308887Y-130679819D02*
X211404125Y-130679819D01*
X211404125Y-130679819D02*
X211546982Y-130632200D01*
X211546982Y-130632200D02*
X211642220Y-130536961D01*
X211642220Y-130536961D02*
X211689839Y-130441723D01*
X211689839Y-130441723D02*
X211737458Y-130251247D01*
X211737458Y-130251247D02*
X211737458Y-130108390D01*
X211737458Y-130108390D02*
X211689839Y-129917914D01*
X211689839Y-129917914D02*
X211642220Y-129822676D01*
X211642220Y-129822676D02*
X211546982Y-129727438D01*
X211546982Y-129727438D02*
X211404125Y-129679819D01*
X211404125Y-129679819D02*
X211308887Y-129679819D01*
X211308887Y-129679819D02*
X211166030Y-129727438D01*
X211166030Y-129727438D02*
X211118411Y-129775057D01*
X210213649Y-130679819D02*
X210689839Y-130679819D01*
X210689839Y-130679819D02*
X210689839Y-129679819D01*
X212204180Y-113868030D02*
X212204180Y-114344220D01*
X212204180Y-114344220D02*
X211727990Y-114391839D01*
X211727990Y-114391839D02*
X211775609Y-114344220D01*
X211775609Y-114344220D02*
X211823228Y-114248982D01*
X211823228Y-114248982D02*
X211823228Y-114010887D01*
X211823228Y-114010887D02*
X211775609Y-113915649D01*
X211775609Y-113915649D02*
X211727990Y-113868030D01*
X211727990Y-113868030D02*
X211632752Y-113820411D01*
X211632752Y-113820411D02*
X211394657Y-113820411D01*
X211394657Y-113820411D02*
X211299419Y-113868030D01*
X211299419Y-113868030D02*
X211251800Y-113915649D01*
X211251800Y-113915649D02*
X211204180Y-114010887D01*
X211204180Y-114010887D02*
X211204180Y-114248982D01*
X211204180Y-114248982D02*
X211251800Y-114344220D01*
X211251800Y-114344220D02*
X211299419Y-114391839D01*
X212204180Y-113534696D02*
X211204180Y-113201363D01*
X211204180Y-113201363D02*
X212204180Y-112868030D01*
X212816839Y-106375200D02*
X212673982Y-106422819D01*
X212673982Y-106422819D02*
X212435887Y-106422819D01*
X212435887Y-106422819D02*
X212340649Y-106375200D01*
X212340649Y-106375200D02*
X212293030Y-106327580D01*
X212293030Y-106327580D02*
X212245411Y-106232342D01*
X212245411Y-106232342D02*
X212245411Y-106137104D01*
X212245411Y-106137104D02*
X212293030Y-106041866D01*
X212293030Y-106041866D02*
X212340649Y-105994247D01*
X212340649Y-105994247D02*
X212435887Y-105946628D01*
X212435887Y-105946628D02*
X212626363Y-105899009D01*
X212626363Y-105899009D02*
X212721601Y-105851390D01*
X212721601Y-105851390D02*
X212769220Y-105803771D01*
X212769220Y-105803771D02*
X212816839Y-105708533D01*
X212816839Y-105708533D02*
X212816839Y-105613295D01*
X212816839Y-105613295D02*
X212769220Y-105518057D01*
X212769220Y-105518057D02*
X212721601Y-105470438D01*
X212721601Y-105470438D02*
X212626363Y-105422819D01*
X212626363Y-105422819D02*
X212388268Y-105422819D01*
X212388268Y-105422819D02*
X212245411Y-105470438D01*
X211245411Y-106327580D02*
X211293030Y-106375200D01*
X211293030Y-106375200D02*
X211435887Y-106422819D01*
X211435887Y-106422819D02*
X211531125Y-106422819D01*
X211531125Y-106422819D02*
X211673982Y-106375200D01*
X211673982Y-106375200D02*
X211769220Y-106279961D01*
X211769220Y-106279961D02*
X211816839Y-106184723D01*
X211816839Y-106184723D02*
X211864458Y-105994247D01*
X211864458Y-105994247D02*
X211864458Y-105851390D01*
X211864458Y-105851390D02*
X211816839Y-105660914D01*
X211816839Y-105660914D02*
X211769220Y-105565676D01*
X211769220Y-105565676D02*
X211673982Y-105470438D01*
X211673982Y-105470438D02*
X211531125Y-105422819D01*
X211531125Y-105422819D02*
X211435887Y-105422819D01*
X211435887Y-105422819D02*
X211293030Y-105470438D01*
X211293030Y-105470438D02*
X211245411Y-105518057D01*
X210340649Y-106422819D02*
X210816839Y-106422819D01*
X210816839Y-106422819D02*
X210816839Y-105422819D01*
X200407438Y-102690826D02*
X198407438Y-102690826D01*
X198407438Y-102690826D02*
X198407438Y-103262255D01*
X198407438Y-103262255D02*
X198502676Y-103405112D01*
X198502676Y-103405112D02*
X198597914Y-103476541D01*
X198597914Y-103476541D02*
X198788390Y-103547969D01*
X198788390Y-103547969D02*
X199074104Y-103547969D01*
X199074104Y-103547969D02*
X199264580Y-103476541D01*
X199264580Y-103476541D02*
X199359819Y-103405112D01*
X199359819Y-103405112D02*
X199455057Y-103262255D01*
X199455057Y-103262255D02*
X199455057Y-102690826D01*
X200216961Y-105047969D02*
X200312200Y-104976541D01*
X200312200Y-104976541D02*
X200407438Y-104762255D01*
X200407438Y-104762255D02*
X200407438Y-104619398D01*
X200407438Y-104619398D02*
X200312200Y-104405112D01*
X200312200Y-104405112D02*
X200121723Y-104262255D01*
X200121723Y-104262255D02*
X199931247Y-104190826D01*
X199931247Y-104190826D02*
X199550295Y-104119398D01*
X199550295Y-104119398D02*
X199264580Y-104119398D01*
X199264580Y-104119398D02*
X198883628Y-104190826D01*
X198883628Y-104190826D02*
X198693152Y-104262255D01*
X198693152Y-104262255D02*
X198502676Y-104405112D01*
X198502676Y-104405112D02*
X198407438Y-104619398D01*
X198407438Y-104619398D02*
X198407438Y-104762255D01*
X198407438Y-104762255D02*
X198502676Y-104976541D01*
X198502676Y-104976541D02*
X198597914Y-105047969D01*
X199359819Y-106190826D02*
X199359819Y-105690826D01*
X200407438Y-105690826D02*
X198407438Y-105690826D01*
X198407438Y-105690826D02*
X198407438Y-106405112D01*
X199264580Y-107190826D02*
X199169342Y-107047969D01*
X199169342Y-107047969D02*
X199074104Y-106976540D01*
X199074104Y-106976540D02*
X198883628Y-106905112D01*
X198883628Y-106905112D02*
X198788390Y-106905112D01*
X198788390Y-106905112D02*
X198597914Y-106976540D01*
X198597914Y-106976540D02*
X198502676Y-107047969D01*
X198502676Y-107047969D02*
X198407438Y-107190826D01*
X198407438Y-107190826D02*
X198407438Y-107476540D01*
X198407438Y-107476540D02*
X198502676Y-107619398D01*
X198502676Y-107619398D02*
X198597914Y-107690826D01*
X198597914Y-107690826D02*
X198788390Y-107762255D01*
X198788390Y-107762255D02*
X198883628Y-107762255D01*
X198883628Y-107762255D02*
X199074104Y-107690826D01*
X199074104Y-107690826D02*
X199169342Y-107619398D01*
X199169342Y-107619398D02*
X199264580Y-107476540D01*
X199264580Y-107476540D02*
X199264580Y-107190826D01*
X199264580Y-107190826D02*
X199359819Y-107047969D01*
X199359819Y-107047969D02*
X199455057Y-106976540D01*
X199455057Y-106976540D02*
X199645533Y-106905112D01*
X199645533Y-106905112D02*
X200026485Y-106905112D01*
X200026485Y-106905112D02*
X200216961Y-106976540D01*
X200216961Y-106976540D02*
X200312200Y-107047969D01*
X200312200Y-107047969D02*
X200407438Y-107190826D01*
X200407438Y-107190826D02*
X200407438Y-107476540D01*
X200407438Y-107476540D02*
X200312200Y-107619398D01*
X200312200Y-107619398D02*
X200216961Y-107690826D01*
X200216961Y-107690826D02*
X200026485Y-107762255D01*
X200026485Y-107762255D02*
X199645533Y-107762255D01*
X199645533Y-107762255D02*
X199455057Y-107690826D01*
X199455057Y-107690826D02*
X199359819Y-107619398D01*
X199359819Y-107619398D02*
X199264580Y-107476540D01*
X198407438Y-109119397D02*
X198407438Y-108405111D01*
X198407438Y-108405111D02*
X199359819Y-108333683D01*
X199359819Y-108333683D02*
X199264580Y-108405111D01*
X199264580Y-108405111D02*
X199169342Y-108547969D01*
X199169342Y-108547969D02*
X199169342Y-108905111D01*
X199169342Y-108905111D02*
X199264580Y-109047969D01*
X199264580Y-109047969D02*
X199359819Y-109119397D01*
X199359819Y-109119397D02*
X199550295Y-109190826D01*
X199550295Y-109190826D02*
X200026485Y-109190826D01*
X200026485Y-109190826D02*
X200216961Y-109119397D01*
X200216961Y-109119397D02*
X200312200Y-109047969D01*
X200312200Y-109047969D02*
X200407438Y-108905111D01*
X200407438Y-108905111D02*
X200407438Y-108547969D01*
X200407438Y-108547969D02*
X200312200Y-108405111D01*
X200312200Y-108405111D02*
X200216961Y-108333683D01*
X198407438Y-109690825D02*
X198407438Y-110690825D01*
X198407438Y-110690825D02*
X200407438Y-110047968D01*
X199074104Y-111905111D02*
X200407438Y-111905111D01*
X198312200Y-111547968D02*
X199740771Y-111190825D01*
X199740771Y-111190825D02*
X199740771Y-112119396D01*
X217325411Y-129727438D02*
X217420649Y-129679819D01*
X217420649Y-129679819D02*
X217563506Y-129679819D01*
X217563506Y-129679819D02*
X217706363Y-129727438D01*
X217706363Y-129727438D02*
X217801601Y-129822676D01*
X217801601Y-129822676D02*
X217849220Y-129917914D01*
X217849220Y-129917914D02*
X217896839Y-130108390D01*
X217896839Y-130108390D02*
X217896839Y-130251247D01*
X217896839Y-130251247D02*
X217849220Y-130441723D01*
X217849220Y-130441723D02*
X217801601Y-130536961D01*
X217801601Y-130536961D02*
X217706363Y-130632200D01*
X217706363Y-130632200D02*
X217563506Y-130679819D01*
X217563506Y-130679819D02*
X217468268Y-130679819D01*
X217468268Y-130679819D02*
X217325411Y-130632200D01*
X217325411Y-130632200D02*
X217277792Y-130584580D01*
X217277792Y-130584580D02*
X217277792Y-130251247D01*
X217277792Y-130251247D02*
X217468268Y-130251247D01*
X216849220Y-130679819D02*
X216849220Y-129679819D01*
X216849220Y-129679819D02*
X216277792Y-130679819D01*
X216277792Y-130679819D02*
X216277792Y-129679819D01*
X215801601Y-130679819D02*
X215801601Y-129679819D01*
X215801601Y-129679819D02*
X215563506Y-129679819D01*
X215563506Y-129679819D02*
X215420649Y-129727438D01*
X215420649Y-129727438D02*
X215325411Y-129822676D01*
X215325411Y-129822676D02*
X215277792Y-129917914D01*
X215277792Y-129917914D02*
X215230173Y-130108390D01*
X215230173Y-130108390D02*
X215230173Y-130251247D01*
X215230173Y-130251247D02*
X215277792Y-130441723D01*
X215277792Y-130441723D02*
X215325411Y-130536961D01*
X215325411Y-130536961D02*
X215420649Y-130632200D01*
X215420649Y-130632200D02*
X215563506Y-130679819D01*
X215563506Y-130679819D02*
X215801601Y-130679819D01*
X212156561Y-116995411D02*
X212204180Y-117090649D01*
X212204180Y-117090649D02*
X212204180Y-117233506D01*
X212204180Y-117233506D02*
X212156561Y-117376363D01*
X212156561Y-117376363D02*
X212061323Y-117471601D01*
X212061323Y-117471601D02*
X211966085Y-117519220D01*
X211966085Y-117519220D02*
X211775609Y-117566839D01*
X211775609Y-117566839D02*
X211632752Y-117566839D01*
X211632752Y-117566839D02*
X211442276Y-117519220D01*
X211442276Y-117519220D02*
X211347038Y-117471601D01*
X211347038Y-117471601D02*
X211251800Y-117376363D01*
X211251800Y-117376363D02*
X211204180Y-117233506D01*
X211204180Y-117233506D02*
X211204180Y-117138268D01*
X211204180Y-117138268D02*
X211251800Y-116995411D01*
X211251800Y-116995411D02*
X211299419Y-116947792D01*
X211299419Y-116947792D02*
X211632752Y-116947792D01*
X211632752Y-116947792D02*
X211632752Y-117138268D01*
X211204180Y-116519220D02*
X212204180Y-116519220D01*
X212204180Y-116519220D02*
X211204180Y-115947792D01*
X211204180Y-115947792D02*
X212204180Y-115947792D01*
X211204180Y-115471601D02*
X212204180Y-115471601D01*
X212204180Y-115471601D02*
X212204180Y-115233506D01*
X212204180Y-115233506D02*
X212156561Y-115090649D01*
X212156561Y-115090649D02*
X212061323Y-114995411D01*
X212061323Y-114995411D02*
X211966085Y-114947792D01*
X211966085Y-114947792D02*
X211775609Y-114900173D01*
X211775609Y-114900173D02*
X211632752Y-114900173D01*
X211632752Y-114900173D02*
X211442276Y-114947792D01*
X211442276Y-114947792D02*
X211347038Y-114995411D01*
X211347038Y-114995411D02*
X211251800Y-115090649D01*
X211251800Y-115090649D02*
X211204180Y-115233506D01*
X211204180Y-115233506D02*
X211204180Y-115471601D01*
X214325030Y-105422819D02*
X214801220Y-105422819D01*
X214801220Y-105422819D02*
X214848839Y-105899009D01*
X214848839Y-105899009D02*
X214801220Y-105851390D01*
X214801220Y-105851390D02*
X214705982Y-105803771D01*
X214705982Y-105803771D02*
X214467887Y-105803771D01*
X214467887Y-105803771D02*
X214372649Y-105851390D01*
X214372649Y-105851390D02*
X214325030Y-105899009D01*
X214325030Y-105899009D02*
X214277411Y-105994247D01*
X214277411Y-105994247D02*
X214277411Y-106232342D01*
X214277411Y-106232342D02*
X214325030Y-106327580D01*
X214325030Y-106327580D02*
X214372649Y-106375200D01*
X214372649Y-106375200D02*
X214467887Y-106422819D01*
X214467887Y-106422819D02*
X214705982Y-106422819D01*
X214705982Y-106422819D02*
X214801220Y-106375200D01*
X214801220Y-106375200D02*
X214848839Y-106327580D01*
X213991696Y-105422819D02*
X213658363Y-106422819D01*
X213658363Y-106422819D02*
X213325030Y-105422819D01*
X142189200Y-110144160D02*
X142236819Y-110287017D01*
X142236819Y-110287017D02*
X142236819Y-110525112D01*
X142236819Y-110525112D02*
X142189200Y-110620350D01*
X142189200Y-110620350D02*
X142141580Y-110667969D01*
X142141580Y-110667969D02*
X142046342Y-110715588D01*
X142046342Y-110715588D02*
X141951104Y-110715588D01*
X141951104Y-110715588D02*
X141855866Y-110667969D01*
X141855866Y-110667969D02*
X141808247Y-110620350D01*
X141808247Y-110620350D02*
X141760628Y-110525112D01*
X141760628Y-110525112D02*
X141713009Y-110334636D01*
X141713009Y-110334636D02*
X141665390Y-110239398D01*
X141665390Y-110239398D02*
X141617771Y-110191779D01*
X141617771Y-110191779D02*
X141522533Y-110144160D01*
X141522533Y-110144160D02*
X141427295Y-110144160D01*
X141427295Y-110144160D02*
X141332057Y-110191779D01*
X141332057Y-110191779D02*
X141284438Y-110239398D01*
X141284438Y-110239398D02*
X141236819Y-110334636D01*
X141236819Y-110334636D02*
X141236819Y-110572731D01*
X141236819Y-110572731D02*
X141284438Y-110715588D01*
X142141580Y-111715588D02*
X142189200Y-111667969D01*
X142189200Y-111667969D02*
X142236819Y-111525112D01*
X142236819Y-111525112D02*
X142236819Y-111429874D01*
X142236819Y-111429874D02*
X142189200Y-111287017D01*
X142189200Y-111287017D02*
X142093961Y-111191779D01*
X142093961Y-111191779D02*
X141998723Y-111144160D01*
X141998723Y-111144160D02*
X141808247Y-111096541D01*
X141808247Y-111096541D02*
X141665390Y-111096541D01*
X141665390Y-111096541D02*
X141474914Y-111144160D01*
X141474914Y-111144160D02*
X141379676Y-111191779D01*
X141379676Y-111191779D02*
X141284438Y-111287017D01*
X141284438Y-111287017D02*
X141236819Y-111429874D01*
X141236819Y-111429874D02*
X141236819Y-111525112D01*
X141236819Y-111525112D02*
X141284438Y-111667969D01*
X141284438Y-111667969D02*
X141332057Y-111715588D01*
X142236819Y-112620350D02*
X142236819Y-112144160D01*
X142236819Y-112144160D02*
X141236819Y-112144160D01*
X211251800Y-109438839D02*
X211204180Y-109295982D01*
X211204180Y-109295982D02*
X211204180Y-109057887D01*
X211204180Y-109057887D02*
X211251800Y-108962649D01*
X211251800Y-108962649D02*
X211299419Y-108915030D01*
X211299419Y-108915030D02*
X211394657Y-108867411D01*
X211394657Y-108867411D02*
X211489895Y-108867411D01*
X211489895Y-108867411D02*
X211585133Y-108915030D01*
X211585133Y-108915030D02*
X211632752Y-108962649D01*
X211632752Y-108962649D02*
X211680371Y-109057887D01*
X211680371Y-109057887D02*
X211727990Y-109248363D01*
X211727990Y-109248363D02*
X211775609Y-109343601D01*
X211775609Y-109343601D02*
X211823228Y-109391220D01*
X211823228Y-109391220D02*
X211918466Y-109438839D01*
X211918466Y-109438839D02*
X212013704Y-109438839D01*
X212013704Y-109438839D02*
X212108942Y-109391220D01*
X212108942Y-109391220D02*
X212156561Y-109343601D01*
X212156561Y-109343601D02*
X212204180Y-109248363D01*
X212204180Y-109248363D02*
X212204180Y-109010268D01*
X212204180Y-109010268D02*
X212156561Y-108867411D01*
X211204180Y-108438839D02*
X212204180Y-108438839D01*
X212204180Y-108438839D02*
X212204180Y-108200744D01*
X212204180Y-108200744D02*
X212156561Y-108057887D01*
X212156561Y-108057887D02*
X212061323Y-107962649D01*
X212061323Y-107962649D02*
X211966085Y-107915030D01*
X211966085Y-107915030D02*
X211775609Y-107867411D01*
X211775609Y-107867411D02*
X211632752Y-107867411D01*
X211632752Y-107867411D02*
X211442276Y-107915030D01*
X211442276Y-107915030D02*
X211347038Y-107962649D01*
X211347038Y-107962649D02*
X211251800Y-108057887D01*
X211251800Y-108057887D02*
X211204180Y-108200744D01*
X211204180Y-108200744D02*
X211204180Y-108438839D01*
X211489895Y-107486458D02*
X211489895Y-107010268D01*
X211204180Y-107581696D02*
X212204180Y-107248363D01*
X212204180Y-107248363D02*
X211204180Y-106915030D01*
X219281333Y-103467819D02*
X219281333Y-104182104D01*
X219281333Y-104182104D02*
X219328952Y-104324961D01*
X219328952Y-104324961D02*
X219424190Y-104420200D01*
X219424190Y-104420200D02*
X219567047Y-104467819D01*
X219567047Y-104467819D02*
X219662285Y-104467819D01*
X218900380Y-103467819D02*
X218281333Y-103467819D01*
X218281333Y-103467819D02*
X218614666Y-103848771D01*
X218614666Y-103848771D02*
X218471809Y-103848771D01*
X218471809Y-103848771D02*
X218376571Y-103896390D01*
X218376571Y-103896390D02*
X218328952Y-103944009D01*
X218328952Y-103944009D02*
X218281333Y-104039247D01*
X218281333Y-104039247D02*
X218281333Y-104277342D01*
X218281333Y-104277342D02*
X218328952Y-104372580D01*
X218328952Y-104372580D02*
X218376571Y-104420200D01*
X218376571Y-104420200D02*
X218471809Y-104467819D01*
X218471809Y-104467819D02*
X218757523Y-104467819D01*
X218757523Y-104467819D02*
X218852761Y-104420200D01*
X218852761Y-104420200D02*
X218900380Y-104372580D01*
X156670333Y-114770819D02*
X156670333Y-115485104D01*
X156670333Y-115485104D02*
X156717952Y-115627961D01*
X156717952Y-115627961D02*
X156813190Y-115723200D01*
X156813190Y-115723200D02*
X156956047Y-115770819D01*
X156956047Y-115770819D02*
X157051285Y-115770819D01*
X156051285Y-115199390D02*
X156146523Y-115151771D01*
X156146523Y-115151771D02*
X156194142Y-115104152D01*
X156194142Y-115104152D02*
X156241761Y-115008914D01*
X156241761Y-115008914D02*
X156241761Y-114961295D01*
X156241761Y-114961295D02*
X156194142Y-114866057D01*
X156194142Y-114866057D02*
X156146523Y-114818438D01*
X156146523Y-114818438D02*
X156051285Y-114770819D01*
X156051285Y-114770819D02*
X155860809Y-114770819D01*
X155860809Y-114770819D02*
X155765571Y-114818438D01*
X155765571Y-114818438D02*
X155717952Y-114866057D01*
X155717952Y-114866057D02*
X155670333Y-114961295D01*
X155670333Y-114961295D02*
X155670333Y-115008914D01*
X155670333Y-115008914D02*
X155717952Y-115104152D01*
X155717952Y-115104152D02*
X155765571Y-115151771D01*
X155765571Y-115151771D02*
X155860809Y-115199390D01*
X155860809Y-115199390D02*
X156051285Y-115199390D01*
X156051285Y-115199390D02*
X156146523Y-115247009D01*
X156146523Y-115247009D02*
X156194142Y-115294628D01*
X156194142Y-115294628D02*
X156241761Y-115389866D01*
X156241761Y-115389866D02*
X156241761Y-115580342D01*
X156241761Y-115580342D02*
X156194142Y-115675580D01*
X156194142Y-115675580D02*
X156146523Y-115723200D01*
X156146523Y-115723200D02*
X156051285Y-115770819D01*
X156051285Y-115770819D02*
X155860809Y-115770819D01*
X155860809Y-115770819D02*
X155765571Y-115723200D01*
X155765571Y-115723200D02*
X155717952Y-115675580D01*
X155717952Y-115675580D02*
X155670333Y-115580342D01*
X155670333Y-115580342D02*
X155670333Y-115389866D01*
X155670333Y-115389866D02*
X155717952Y-115294628D01*
X155717952Y-115294628D02*
X155765571Y-115247009D01*
X155765571Y-115247009D02*
X155860809Y-115199390D01*
X162258333Y-129248819D02*
X162258333Y-129963104D01*
X162258333Y-129963104D02*
X162305952Y-130105961D01*
X162305952Y-130105961D02*
X162401190Y-130201200D01*
X162401190Y-130201200D02*
X162544047Y-130248819D01*
X162544047Y-130248819D02*
X162639285Y-130248819D01*
X161258333Y-130248819D02*
X161829761Y-130248819D01*
X161544047Y-130248819D02*
X161544047Y-129248819D01*
X161544047Y-129248819D02*
X161639285Y-129391676D01*
X161639285Y-129391676D02*
X161734523Y-129486914D01*
X161734523Y-129486914D02*
X161829761Y-129534533D01*
X210391333Y-111976819D02*
X210391333Y-112691104D01*
X210391333Y-112691104D02*
X210438952Y-112833961D01*
X210438952Y-112833961D02*
X210534190Y-112929200D01*
X210534190Y-112929200D02*
X210677047Y-112976819D01*
X210677047Y-112976819D02*
X210772285Y-112976819D01*
X209438952Y-111976819D02*
X209915142Y-111976819D01*
X209915142Y-111976819D02*
X209962761Y-112453009D01*
X209962761Y-112453009D02*
X209915142Y-112405390D01*
X209915142Y-112405390D02*
X209819904Y-112357771D01*
X209819904Y-112357771D02*
X209581809Y-112357771D01*
X209581809Y-112357771D02*
X209486571Y-112405390D01*
X209486571Y-112405390D02*
X209438952Y-112453009D01*
X209438952Y-112453009D02*
X209391333Y-112548247D01*
X209391333Y-112548247D02*
X209391333Y-112786342D01*
X209391333Y-112786342D02*
X209438952Y-112881580D01*
X209438952Y-112881580D02*
X209486571Y-112929200D01*
X209486571Y-112929200D02*
X209581809Y-112976819D01*
X209581809Y-112976819D02*
X209819904Y-112976819D01*
X209819904Y-112976819D02*
X209915142Y-112929200D01*
X209915142Y-112929200D02*
X209962761Y-112881580D01*
X202009333Y-123152819D02*
X202009333Y-123867104D01*
X202009333Y-123867104D02*
X202056952Y-124009961D01*
X202056952Y-124009961D02*
X202152190Y-124105200D01*
X202152190Y-124105200D02*
X202295047Y-124152819D01*
X202295047Y-124152819D02*
X202390285Y-124152819D01*
X201628380Y-123152819D02*
X200961714Y-123152819D01*
X200961714Y-123152819D02*
X201390285Y-124152819D01*
X202263333Y-106642819D02*
X202263333Y-107357104D01*
X202263333Y-107357104D02*
X202310952Y-107499961D01*
X202310952Y-107499961D02*
X202406190Y-107595200D01*
X202406190Y-107595200D02*
X202549047Y-107642819D01*
X202549047Y-107642819D02*
X202644285Y-107642819D01*
X201358571Y-106642819D02*
X201549047Y-106642819D01*
X201549047Y-106642819D02*
X201644285Y-106690438D01*
X201644285Y-106690438D02*
X201691904Y-106738057D01*
X201691904Y-106738057D02*
X201787142Y-106880914D01*
X201787142Y-106880914D02*
X201834761Y-107071390D01*
X201834761Y-107071390D02*
X201834761Y-107452342D01*
X201834761Y-107452342D02*
X201787142Y-107547580D01*
X201787142Y-107547580D02*
X201739523Y-107595200D01*
X201739523Y-107595200D02*
X201644285Y-107642819D01*
X201644285Y-107642819D02*
X201453809Y-107642819D01*
X201453809Y-107642819D02*
X201358571Y-107595200D01*
X201358571Y-107595200D02*
X201310952Y-107547580D01*
X201310952Y-107547580D02*
X201263333Y-107452342D01*
X201263333Y-107452342D02*
X201263333Y-107214247D01*
X201263333Y-107214247D02*
X201310952Y-107119009D01*
X201310952Y-107119009D02*
X201358571Y-107071390D01*
X201358571Y-107071390D02*
X201453809Y-107023771D01*
X201453809Y-107023771D02*
X201644285Y-107023771D01*
X201644285Y-107023771D02*
X201739523Y-107071390D01*
X201739523Y-107071390D02*
X201787142Y-107119009D01*
X201787142Y-107119009D02*
X201834761Y-107214247D01*
X140160333Y-105753819D02*
X140160333Y-106468104D01*
X140160333Y-106468104D02*
X140207952Y-106610961D01*
X140207952Y-106610961D02*
X140303190Y-106706200D01*
X140303190Y-106706200D02*
X140446047Y-106753819D01*
X140446047Y-106753819D02*
X140541285Y-106753819D01*
X139255571Y-106087152D02*
X139255571Y-106753819D01*
X139493666Y-105706200D02*
X139731761Y-106420485D01*
X139731761Y-106420485D02*
X139112714Y-106420485D01*
X213058333Y-127978819D02*
X213058333Y-128693104D01*
X213058333Y-128693104D02*
X213105952Y-128835961D01*
X213105952Y-128835961D02*
X213201190Y-128931200D01*
X213201190Y-128931200D02*
X213344047Y-128978819D01*
X213344047Y-128978819D02*
X213439285Y-128978819D01*
X212629761Y-128074057D02*
X212582142Y-128026438D01*
X212582142Y-128026438D02*
X212486904Y-127978819D01*
X212486904Y-127978819D02*
X212248809Y-127978819D01*
X212248809Y-127978819D02*
X212153571Y-128026438D01*
X212153571Y-128026438D02*
X212105952Y-128074057D01*
X212105952Y-128074057D02*
X212058333Y-128169295D01*
X212058333Y-128169295D02*
X212058333Y-128264533D01*
X212058333Y-128264533D02*
X212105952Y-128407390D01*
X212105952Y-128407390D02*
X212677380Y-128978819D01*
X212677380Y-128978819D02*
X212058333Y-128978819D01*
D10*
%TO.C,J3*%
X217865000Y-94050000D02*
X217865000Y-102680000D01*
X215265000Y-94050000D02*
X215265000Y-102680000D01*
X212725000Y-94050000D02*
X212725000Y-102680000D01*
X210185000Y-94050000D02*
X210185000Y-102680000D01*
X210066900Y-94050000D02*
X210066900Y-102680000D01*
X209948805Y-94050000D02*
X209948805Y-102680000D01*
X209830710Y-94050000D02*
X209830710Y-102680000D01*
X209712615Y-94050000D02*
X209712615Y-102680000D01*
X209594520Y-94050000D02*
X209594520Y-102680000D01*
X209476425Y-94050000D02*
X209476425Y-102680000D01*
X209358330Y-94050000D02*
X209358330Y-102680000D01*
X209240235Y-94050000D02*
X209240235Y-102680000D01*
X209122140Y-94050000D02*
X209122140Y-102680000D01*
X209004045Y-94050000D02*
X209004045Y-102680000D01*
X208885950Y-94050000D02*
X208885950Y-102680000D01*
X208767855Y-94050000D02*
X208767855Y-102680000D01*
X208649760Y-94050000D02*
X208649760Y-102680000D01*
X208531665Y-94050000D02*
X208531665Y-102680000D01*
X208413570Y-94050000D02*
X208413570Y-102680000D01*
X208295475Y-94050000D02*
X208295475Y-102680000D01*
X208177380Y-94050000D02*
X208177380Y-102680000D01*
X208059285Y-94050000D02*
X208059285Y-102680000D01*
X207941190Y-94050000D02*
X207941190Y-102680000D01*
X207823095Y-94050000D02*
X207823095Y-102680000D01*
X207705000Y-94050000D02*
X207705000Y-102680000D01*
X207585000Y-94050000D02*
X217865000Y-94050000D01*
X207585000Y-94050000D02*
X207585000Y-102680000D01*
X216895000Y-102680000D02*
X216895000Y-103090000D01*
X216175000Y-102680000D02*
X216175000Y-103090000D01*
X214355000Y-102680000D02*
X214355000Y-103090000D01*
X213635000Y-102680000D02*
X213635000Y-103090000D01*
X211815000Y-102680000D02*
X211815000Y-103090000D01*
X211095000Y-102680000D02*
X211095000Y-103090000D01*
X209275000Y-102680000D02*
X209275000Y-103030000D01*
X208555000Y-102680000D02*
X208555000Y-103030000D01*
X207585000Y-102680000D02*
X217865000Y-102680000D01*
X207585000Y-104140000D02*
X207585000Y-105250000D01*
X207585000Y-105250000D02*
X208915000Y-105250000D01*
%TO.C,J8*%
X189103000Y-105283000D02*
X189103000Y-125603000D01*
X160528000Y-105283000D02*
X189103000Y-105283000D01*
X189103000Y-125603000D02*
X163068000Y-125603000D01*
X163068000Y-125603000D02*
X160528000Y-125603000D01*
X160528000Y-125603000D02*
X160528000Y-105283000D01*
%TO.C,J1*%
X189865000Y-111760000D02*
X189865000Y-132715000D01*
X163195000Y-111760000D02*
X189865000Y-111760000D01*
X189865000Y-132715000D02*
X163195000Y-132715000D01*
X163195000Y-132715000D02*
X163195000Y-111760000D01*
%TO.C,J5*%
X224085000Y-117535000D02*
X215455000Y-117535000D01*
X224085000Y-114935000D02*
X215455000Y-114935000D01*
X224085000Y-112395000D02*
X215455000Y-112395000D01*
X224085000Y-109855000D02*
X215455000Y-109855000D01*
X224085000Y-109736900D02*
X215455000Y-109736900D01*
X224085000Y-109618805D02*
X215455000Y-109618805D01*
X224085000Y-109500710D02*
X215455000Y-109500710D01*
X224085000Y-109382615D02*
X215455000Y-109382615D01*
X224085000Y-109264520D02*
X215455000Y-109264520D01*
X224085000Y-109146425D02*
X215455000Y-109146425D01*
X224085000Y-109028330D02*
X215455000Y-109028330D01*
X224085000Y-108910235D02*
X215455000Y-108910235D01*
X224085000Y-108792140D02*
X215455000Y-108792140D01*
X224085000Y-108674045D02*
X215455000Y-108674045D01*
X224085000Y-108555950D02*
X215455000Y-108555950D01*
X224085000Y-108437855D02*
X215455000Y-108437855D01*
X224085000Y-108319760D02*
X215455000Y-108319760D01*
X224085000Y-108201665D02*
X215455000Y-108201665D01*
X224085000Y-108083570D02*
X215455000Y-108083570D01*
X224085000Y-107965475D02*
X215455000Y-107965475D01*
X224085000Y-107847380D02*
X215455000Y-107847380D01*
X224085000Y-107729285D02*
X215455000Y-107729285D01*
X224085000Y-107611190D02*
X215455000Y-107611190D01*
X224085000Y-107493095D02*
X215455000Y-107493095D01*
X224085000Y-107375000D02*
X215455000Y-107375000D01*
X224085000Y-107255000D02*
X224085000Y-117535000D01*
X224085000Y-107255000D02*
X215455000Y-107255000D01*
X215455000Y-116565000D02*
X215045000Y-116565000D01*
X215455000Y-115845000D02*
X215045000Y-115845000D01*
X215455000Y-114025000D02*
X215045000Y-114025000D01*
X215455000Y-113305000D02*
X215045000Y-113305000D01*
X215455000Y-111485000D02*
X215045000Y-111485000D01*
X215455000Y-110765000D02*
X215045000Y-110765000D01*
X215455000Y-108945000D02*
X215105000Y-108945000D01*
X215455000Y-108225000D02*
X215105000Y-108225000D01*
X215455000Y-107255000D02*
X215455000Y-117535000D01*
X213995000Y-107255000D02*
X212885000Y-107255000D01*
X212885000Y-107255000D02*
X212885000Y-108585000D01*
%TO.C,J7*%
X196850000Y-132076000D02*
X196850000Y-115951000D01*
X196850000Y-132076000D02*
X149220000Y-132076000D01*
X196850000Y-115951000D02*
X149220000Y-115951000D01*
X193675000Y-129286000D02*
X196850000Y-129286000D01*
X193675000Y-119126000D02*
X196850000Y-119126000D01*
X192405000Y-121666000D02*
X196850000Y-121666000D01*
X192405000Y-120396000D02*
X192405000Y-128016000D01*
X189230000Y-119126000D02*
X189230000Y-116586000D01*
X189230000Y-119126000D02*
X168910000Y-119126000D01*
X189230000Y-116586000D02*
X166370000Y-116586000D01*
X168910000Y-119126000D02*
X168910000Y-116586000D01*
X167640000Y-119126000D02*
X166370000Y-119126000D01*
X166370000Y-119126000D02*
X166370000Y-117856000D01*
X149220000Y-132076000D02*
X149220000Y-115951000D01*
X192405000Y-128016000D02*
G75*
G03*
X193675000Y-129286000I1269999J-1D01*
G01*
X193675000Y-119126000D02*
G75*
G03*
X192405000Y-120396000I-1J-1269999D01*
G01*
%TO.C,J6*%
X196850000Y-114550000D02*
X196850000Y-98425000D01*
X196850000Y-114550000D02*
X149220000Y-114550000D01*
X196850000Y-98425000D02*
X149220000Y-98425000D01*
X193675000Y-111760000D02*
X196850000Y-111760000D01*
X193675000Y-101600000D02*
X196850000Y-101600000D01*
X192405000Y-104140000D02*
X196850000Y-104140000D01*
X192405000Y-102870000D02*
X192405000Y-110490000D01*
X189230000Y-101600000D02*
X189230000Y-99060000D01*
X189230000Y-101600000D02*
X168910000Y-101600000D01*
X189230000Y-99060000D02*
X166370000Y-99060000D01*
X168910000Y-101600000D02*
X168910000Y-99060000D01*
X167640000Y-101600000D02*
X166370000Y-101600000D01*
X166370000Y-101600000D02*
X166370000Y-100330000D01*
X149220000Y-114550000D02*
X149220000Y-98425000D01*
X192405000Y-110490000D02*
G75*
G03*
X193675000Y-111760000I1269999J-1D01*
G01*
X193675000Y-101600000D02*
G75*
G03*
X192405000Y-102870000I-1J-1269999D01*
G01*
%TO.C,J4*%
X140970000Y-108585000D02*
X140970000Y-107315000D01*
X140970000Y-107315000D02*
X139700000Y-107315000D01*
X138657071Y-116585000D02*
X138260000Y-116585000D01*
X138657071Y-115825000D02*
X138260000Y-115825000D01*
X138657071Y-114045000D02*
X138260000Y-114045000D01*
X138657071Y-113285000D02*
X138260000Y-113285000D01*
X138657071Y-111505000D02*
X138260000Y-111505000D01*
X138657071Y-110745000D02*
X138260000Y-110745000D01*
X138590000Y-108965000D02*
X138260000Y-108965000D01*
X138590000Y-108205000D02*
X138260000Y-108205000D01*
X138260000Y-117535000D02*
X135600000Y-117535000D01*
X138260000Y-114935000D02*
X135600000Y-114935000D01*
X138260000Y-112395000D02*
X135600000Y-112395000D01*
X138260000Y-109855000D02*
X135600000Y-109855000D01*
X138260000Y-107255000D02*
X138260000Y-117535000D01*
X135600000Y-117535000D02*
X135600000Y-107255000D01*
X135600000Y-115825000D02*
X129600000Y-115825000D01*
X135600000Y-113285000D02*
X129600000Y-113285000D01*
X135600000Y-110745000D02*
X129600000Y-110745000D01*
X135600000Y-108865000D02*
X129600000Y-108865000D01*
X135600000Y-108745000D02*
X129600000Y-108745000D01*
X135600000Y-108625000D02*
X129600000Y-108625000D01*
X135600000Y-108505000D02*
X129600000Y-108505000D01*
X135600000Y-108385000D02*
X129600000Y-108385000D01*
X135600000Y-108265000D02*
X129600000Y-108265000D01*
X135600000Y-108205000D02*
X129600000Y-108205000D01*
X135600000Y-107255000D02*
X138260000Y-107255000D01*
X129600000Y-116585000D02*
X135600000Y-116585000D01*
X129600000Y-115825000D02*
X129600000Y-116585000D01*
X129600000Y-114045000D02*
X135600000Y-114045000D01*
X129600000Y-113285000D02*
X129600000Y-114045000D01*
X129600000Y-111505000D02*
X135600000Y-111505000D01*
X129600000Y-110745000D02*
X129600000Y-111505000D01*
X129600000Y-108965000D02*
X135600000Y-108965000D01*
X129600000Y-108205000D02*
X129600000Y-108965000D01*
%TO.C,J2*%
X208915000Y-130810000D02*
X207645000Y-130810000D01*
X207645000Y-130810000D02*
X207645000Y-132080000D01*
X216915000Y-133122929D02*
X216915000Y-133520000D01*
X216155000Y-133122929D02*
X216155000Y-133520000D01*
X214375000Y-133122929D02*
X214375000Y-133520000D01*
X213615000Y-133122929D02*
X213615000Y-133520000D01*
X211835000Y-133122929D02*
X211835000Y-133520000D01*
X211075000Y-133122929D02*
X211075000Y-133520000D01*
X209295000Y-133190000D02*
X209295000Y-133520000D01*
X208535000Y-133190000D02*
X208535000Y-133520000D01*
X217865000Y-133520000D02*
X217865000Y-136180000D01*
X215265000Y-133520000D02*
X215265000Y-136180000D01*
X212725000Y-133520000D02*
X212725000Y-136180000D01*
X210185000Y-133520000D02*
X210185000Y-136180000D01*
X207585000Y-133520000D02*
X217865000Y-133520000D01*
X217865000Y-136180000D02*
X207585000Y-136180000D01*
X216155000Y-136180000D02*
X216155000Y-142180000D01*
X213615000Y-136180000D02*
X213615000Y-142180000D01*
X211075000Y-136180000D02*
X211075000Y-142180000D01*
X209195000Y-136180000D02*
X209195000Y-142180000D01*
X209075000Y-136180000D02*
X209075000Y-142180000D01*
X208955000Y-136180000D02*
X208955000Y-142180000D01*
X208835000Y-136180000D02*
X208835000Y-142180000D01*
X208715000Y-136180000D02*
X208715000Y-142180000D01*
X208595000Y-136180000D02*
X208595000Y-142180000D01*
X208535000Y-136180000D02*
X208535000Y-142180000D01*
X207585000Y-136180000D02*
X207585000Y-133520000D01*
X216915000Y-142180000D02*
X216915000Y-136180000D01*
X216155000Y-142180000D02*
X216915000Y-142180000D01*
X214375000Y-142180000D02*
X214375000Y-136180000D01*
X213615000Y-142180000D02*
X214375000Y-142180000D01*
X211835000Y-142180000D02*
X211835000Y-136180000D01*
X211075000Y-142180000D02*
X211835000Y-142180000D01*
X209295000Y-142180000D02*
X209295000Y-136180000D01*
X208535000Y-142180000D02*
X209295000Y-142180000D01*
%TD*%
M02*
