%TF.GenerationSoftware,KiCad,Pcbnew,7.0.7*%
%TF.CreationDate,2023-10-01T14:50:05+02:00*%
%TF.ProjectId,MultiSwitch_Mcp23017_MiniSwitch,4d756c74-6953-4776-9974-63685f4d6370,1.0*%
%TF.SameCoordinates,Original*%
%TF.FileFunction,AssemblyDrawing,Top*%
%FSLAX46Y46*%
G04 Gerber Fmt 4.6, Leading zero omitted, Abs format (unit mm)*
G04 Created by KiCad (PCBNEW 7.0.7) date 2023-10-01 14:50:05*
%MOMM*%
%LPD*%
G01*
G04 APERTURE LIST*
%ADD10C,0.100000*%
%ADD11C,0.150000*%
%ADD12C,0.080000*%
G04 APERTURE END LIST*
D10*
X142624525Y-132080000D02*
G75*
G03*
X140335000Y-129790475I-2289525J0D01*
G01*
X137800000Y-129794000D02*
X137800000Y-100711000D01*
X218059000Y-98425000D02*
G75*
G03*
X220345000Y-100711000I2286000J0D01*
G01*
X142621000Y-98425000D02*
X142621000Y-95885000D01*
X142624525Y-132080000D02*
X142624525Y-134620000D01*
X220345000Y-100711000D02*
X222885000Y-100711000D01*
X140335000Y-100711000D02*
X137795000Y-100711000D01*
X222900000Y-100711000D02*
X222900000Y-129794000D01*
X142624525Y-134620000D02*
X218059000Y-134620000D01*
X140335000Y-129790475D02*
X137795000Y-129790475D01*
X142621000Y-95885000D02*
X218059000Y-95885000D01*
X218059000Y-98425000D02*
G75*
G03*
X220345000Y-100711000I2286000J0D01*
G01*
X218059000Y-98425000D02*
X218059000Y-95885000D01*
X218059000Y-132080000D02*
X218059000Y-134600000D01*
X140335000Y-100711000D02*
G75*
G03*
X142621000Y-98425000I0J2286000D01*
G01*
X220345000Y-129794000D02*
X222900000Y-129794000D01*
X220345000Y-129794000D02*
G75*
G03*
X218059000Y-132080000I0J-2286000D01*
G01*
D11*
X224044333Y-135671152D02*
X224044333Y-136337819D01*
X223806238Y-135290200D02*
X223568143Y-136004485D01*
X223568143Y-136004485D02*
X224187190Y-136004485D01*
X224615762Y-136290200D02*
X224615762Y-136337819D01*
X224615762Y-136337819D02*
X224568143Y-136433057D01*
X224568143Y-136433057D02*
X224520524Y-136480676D01*
X225187190Y-135766390D02*
X225091952Y-135718771D01*
X225091952Y-135718771D02*
X225044333Y-135671152D01*
X225044333Y-135671152D02*
X224996714Y-135575914D01*
X224996714Y-135575914D02*
X224996714Y-135528295D01*
X224996714Y-135528295D02*
X225044333Y-135433057D01*
X225044333Y-135433057D02*
X225091952Y-135385438D01*
X225091952Y-135385438D02*
X225187190Y-135337819D01*
X225187190Y-135337819D02*
X225377666Y-135337819D01*
X225377666Y-135337819D02*
X225472904Y-135385438D01*
X225472904Y-135385438D02*
X225520523Y-135433057D01*
X225520523Y-135433057D02*
X225568142Y-135528295D01*
X225568142Y-135528295D02*
X225568142Y-135575914D01*
X225568142Y-135575914D02*
X225520523Y-135671152D01*
X225520523Y-135671152D02*
X225472904Y-135718771D01*
X225472904Y-135718771D02*
X225377666Y-135766390D01*
X225377666Y-135766390D02*
X225187190Y-135766390D01*
X225187190Y-135766390D02*
X225091952Y-135814009D01*
X225091952Y-135814009D02*
X225044333Y-135861628D01*
X225044333Y-135861628D02*
X224996714Y-135956866D01*
X224996714Y-135956866D02*
X224996714Y-136147342D01*
X224996714Y-136147342D02*
X225044333Y-136242580D01*
X225044333Y-136242580D02*
X225091952Y-136290200D01*
X225091952Y-136290200D02*
X225187190Y-136337819D01*
X225187190Y-136337819D02*
X225377666Y-136337819D01*
X225377666Y-136337819D02*
X225472904Y-136290200D01*
X225472904Y-136290200D02*
X225520523Y-136242580D01*
X225520523Y-136242580D02*
X225568142Y-136147342D01*
X225568142Y-136147342D02*
X225568142Y-135956866D01*
X225568142Y-135956866D02*
X225520523Y-135861628D01*
X225520523Y-135861628D02*
X225472904Y-135814009D01*
X225472904Y-135814009D02*
X225377666Y-135766390D01*
X225901476Y-135337819D02*
X226520523Y-135337819D01*
X226520523Y-135337819D02*
X226187190Y-135718771D01*
X226187190Y-135718771D02*
X226330047Y-135718771D01*
X226330047Y-135718771D02*
X226425285Y-135766390D01*
X226425285Y-135766390D02*
X226472904Y-135814009D01*
X226472904Y-135814009D02*
X226520523Y-135909247D01*
X226520523Y-135909247D02*
X226520523Y-136147342D01*
X226520523Y-136147342D02*
X226472904Y-136242580D01*
X226472904Y-136242580D02*
X226425285Y-136290200D01*
X226425285Y-136290200D02*
X226330047Y-136337819D01*
X226330047Y-136337819D02*
X226044333Y-136337819D01*
X226044333Y-136337819D02*
X225949095Y-136290200D01*
X225949095Y-136290200D02*
X225901476Y-136242580D01*
X227472904Y-136337819D02*
X226901476Y-136337819D01*
X227187190Y-136337819D02*
X227187190Y-135337819D01*
X227187190Y-135337819D02*
X227091952Y-135480676D01*
X227091952Y-135480676D02*
X226996714Y-135575914D01*
X226996714Y-135575914D02*
X226901476Y-135623533D01*
X228091952Y-135337819D02*
X228187190Y-135337819D01*
X228187190Y-135337819D02*
X228282428Y-135385438D01*
X228282428Y-135385438D02*
X228330047Y-135433057D01*
X228330047Y-135433057D02*
X228377666Y-135528295D01*
X228377666Y-135528295D02*
X228425285Y-135718771D01*
X228425285Y-135718771D02*
X228425285Y-135956866D01*
X228425285Y-135956866D02*
X228377666Y-136147342D01*
X228377666Y-136147342D02*
X228330047Y-136242580D01*
X228330047Y-136242580D02*
X228282428Y-136290200D01*
X228282428Y-136290200D02*
X228187190Y-136337819D01*
X228187190Y-136337819D02*
X228091952Y-136337819D01*
X228091952Y-136337819D02*
X227996714Y-136290200D01*
X227996714Y-136290200D02*
X227949095Y-136242580D01*
X227949095Y-136242580D02*
X227901476Y-136147342D01*
X227901476Y-136147342D02*
X227853857Y-135956866D01*
X227853857Y-135956866D02*
X227853857Y-135718771D01*
X227853857Y-135718771D02*
X227901476Y-135528295D01*
X227901476Y-135528295D02*
X227949095Y-135433057D01*
X227949095Y-135433057D02*
X227996714Y-135385438D01*
X227996714Y-135385438D02*
X228091952Y-135337819D01*
X229615762Y-136337819D02*
X229615762Y-135671152D01*
X229615762Y-135766390D02*
X229663381Y-135718771D01*
X229663381Y-135718771D02*
X229758619Y-135671152D01*
X229758619Y-135671152D02*
X229901476Y-135671152D01*
X229901476Y-135671152D02*
X229996714Y-135718771D01*
X229996714Y-135718771D02*
X230044333Y-135814009D01*
X230044333Y-135814009D02*
X230044333Y-136337819D01*
X230044333Y-135814009D02*
X230091952Y-135718771D01*
X230091952Y-135718771D02*
X230187190Y-135671152D01*
X230187190Y-135671152D02*
X230330047Y-135671152D01*
X230330047Y-135671152D02*
X230425286Y-135718771D01*
X230425286Y-135718771D02*
X230472905Y-135814009D01*
X230472905Y-135814009D02*
X230472905Y-136337819D01*
X230949095Y-136337819D02*
X230949095Y-135671152D01*
X230949095Y-135766390D02*
X230996714Y-135718771D01*
X230996714Y-135718771D02*
X231091952Y-135671152D01*
X231091952Y-135671152D02*
X231234809Y-135671152D01*
X231234809Y-135671152D02*
X231330047Y-135718771D01*
X231330047Y-135718771D02*
X231377666Y-135814009D01*
X231377666Y-135814009D02*
X231377666Y-136337819D01*
X231377666Y-135814009D02*
X231425285Y-135718771D01*
X231425285Y-135718771D02*
X231520523Y-135671152D01*
X231520523Y-135671152D02*
X231663380Y-135671152D01*
X231663380Y-135671152D02*
X231758619Y-135718771D01*
X231758619Y-135718771D02*
X231806238Y-135814009D01*
X231806238Y-135814009D02*
X231806238Y-136337819D01*
D10*
X218054000Y-135120000D02*
X218054000Y-137619420D01*
X222885000Y-135120000D02*
X222885000Y-137619420D01*
X218054000Y-137033000D02*
X222885000Y-137033000D01*
X218054000Y-137033000D02*
X222885000Y-137033000D01*
X218054000Y-137033000D02*
X219180504Y-136446579D01*
X218054000Y-137033000D02*
X219180504Y-137619421D01*
X222885000Y-137033000D02*
X221758496Y-137619421D01*
X222885000Y-137033000D02*
X221758496Y-136446579D01*
D11*
X224063152Y-128761666D02*
X224729819Y-128761666D01*
X223682200Y-128999761D02*
X224396485Y-129237856D01*
X224396485Y-129237856D02*
X224396485Y-128618809D01*
X224682200Y-128190237D02*
X224729819Y-128190237D01*
X224729819Y-128190237D02*
X224825057Y-128237856D01*
X224825057Y-128237856D02*
X224872676Y-128285475D01*
X224158390Y-127618809D02*
X224110771Y-127714047D01*
X224110771Y-127714047D02*
X224063152Y-127761666D01*
X224063152Y-127761666D02*
X223967914Y-127809285D01*
X223967914Y-127809285D02*
X223920295Y-127809285D01*
X223920295Y-127809285D02*
X223825057Y-127761666D01*
X223825057Y-127761666D02*
X223777438Y-127714047D01*
X223777438Y-127714047D02*
X223729819Y-127618809D01*
X223729819Y-127618809D02*
X223729819Y-127428333D01*
X223729819Y-127428333D02*
X223777438Y-127333095D01*
X223777438Y-127333095D02*
X223825057Y-127285476D01*
X223825057Y-127285476D02*
X223920295Y-127237857D01*
X223920295Y-127237857D02*
X223967914Y-127237857D01*
X223967914Y-127237857D02*
X224063152Y-127285476D01*
X224063152Y-127285476D02*
X224110771Y-127333095D01*
X224110771Y-127333095D02*
X224158390Y-127428333D01*
X224158390Y-127428333D02*
X224158390Y-127618809D01*
X224158390Y-127618809D02*
X224206009Y-127714047D01*
X224206009Y-127714047D02*
X224253628Y-127761666D01*
X224253628Y-127761666D02*
X224348866Y-127809285D01*
X224348866Y-127809285D02*
X224539342Y-127809285D01*
X224539342Y-127809285D02*
X224634580Y-127761666D01*
X224634580Y-127761666D02*
X224682200Y-127714047D01*
X224682200Y-127714047D02*
X224729819Y-127618809D01*
X224729819Y-127618809D02*
X224729819Y-127428333D01*
X224729819Y-127428333D02*
X224682200Y-127333095D01*
X224682200Y-127333095D02*
X224634580Y-127285476D01*
X224634580Y-127285476D02*
X224539342Y-127237857D01*
X224539342Y-127237857D02*
X224348866Y-127237857D01*
X224348866Y-127237857D02*
X224253628Y-127285476D01*
X224253628Y-127285476D02*
X224206009Y-127333095D01*
X224206009Y-127333095D02*
X224158390Y-127428333D01*
X223825057Y-126856904D02*
X223777438Y-126809285D01*
X223777438Y-126809285D02*
X223729819Y-126714047D01*
X223729819Y-126714047D02*
X223729819Y-126475952D01*
X223729819Y-126475952D02*
X223777438Y-126380714D01*
X223777438Y-126380714D02*
X223825057Y-126333095D01*
X223825057Y-126333095D02*
X223920295Y-126285476D01*
X223920295Y-126285476D02*
X224015533Y-126285476D01*
X224015533Y-126285476D02*
X224158390Y-126333095D01*
X224158390Y-126333095D02*
X224729819Y-126904523D01*
X224729819Y-126904523D02*
X224729819Y-126285476D01*
X223729819Y-125428333D02*
X223729819Y-125618809D01*
X223729819Y-125618809D02*
X223777438Y-125714047D01*
X223777438Y-125714047D02*
X223825057Y-125761666D01*
X223825057Y-125761666D02*
X223967914Y-125856904D01*
X223967914Y-125856904D02*
X224158390Y-125904523D01*
X224158390Y-125904523D02*
X224539342Y-125904523D01*
X224539342Y-125904523D02*
X224634580Y-125856904D01*
X224634580Y-125856904D02*
X224682200Y-125809285D01*
X224682200Y-125809285D02*
X224729819Y-125714047D01*
X224729819Y-125714047D02*
X224729819Y-125523571D01*
X224729819Y-125523571D02*
X224682200Y-125428333D01*
X224682200Y-125428333D02*
X224634580Y-125380714D01*
X224634580Y-125380714D02*
X224539342Y-125333095D01*
X224539342Y-125333095D02*
X224301247Y-125333095D01*
X224301247Y-125333095D02*
X224206009Y-125380714D01*
X224206009Y-125380714D02*
X224158390Y-125428333D01*
X224158390Y-125428333D02*
X224110771Y-125523571D01*
X224110771Y-125523571D02*
X224110771Y-125714047D01*
X224110771Y-125714047D02*
X224158390Y-125809285D01*
X224158390Y-125809285D02*
X224206009Y-125856904D01*
X224206009Y-125856904D02*
X224301247Y-125904523D01*
X223729819Y-124714047D02*
X223729819Y-124618809D01*
X223729819Y-124618809D02*
X223777438Y-124523571D01*
X223777438Y-124523571D02*
X223825057Y-124475952D01*
X223825057Y-124475952D02*
X223920295Y-124428333D01*
X223920295Y-124428333D02*
X224110771Y-124380714D01*
X224110771Y-124380714D02*
X224348866Y-124380714D01*
X224348866Y-124380714D02*
X224539342Y-124428333D01*
X224539342Y-124428333D02*
X224634580Y-124475952D01*
X224634580Y-124475952D02*
X224682200Y-124523571D01*
X224682200Y-124523571D02*
X224729819Y-124618809D01*
X224729819Y-124618809D02*
X224729819Y-124714047D01*
X224729819Y-124714047D02*
X224682200Y-124809285D01*
X224682200Y-124809285D02*
X224634580Y-124856904D01*
X224634580Y-124856904D02*
X224539342Y-124904523D01*
X224539342Y-124904523D02*
X224348866Y-124952142D01*
X224348866Y-124952142D02*
X224110771Y-124952142D01*
X224110771Y-124952142D02*
X223920295Y-124904523D01*
X223920295Y-124904523D02*
X223825057Y-124856904D01*
X223825057Y-124856904D02*
X223777438Y-124809285D01*
X223777438Y-124809285D02*
X223729819Y-124714047D01*
X224729819Y-123190237D02*
X224063152Y-123190237D01*
X224158390Y-123190237D02*
X224110771Y-123142618D01*
X224110771Y-123142618D02*
X224063152Y-123047380D01*
X224063152Y-123047380D02*
X224063152Y-122904523D01*
X224063152Y-122904523D02*
X224110771Y-122809285D01*
X224110771Y-122809285D02*
X224206009Y-122761666D01*
X224206009Y-122761666D02*
X224729819Y-122761666D01*
X224206009Y-122761666D02*
X224110771Y-122714047D01*
X224110771Y-122714047D02*
X224063152Y-122618809D01*
X224063152Y-122618809D02*
X224063152Y-122475952D01*
X224063152Y-122475952D02*
X224110771Y-122380713D01*
X224110771Y-122380713D02*
X224206009Y-122333094D01*
X224206009Y-122333094D02*
X224729819Y-122333094D01*
X224729819Y-121856904D02*
X224063152Y-121856904D01*
X224158390Y-121856904D02*
X224110771Y-121809285D01*
X224110771Y-121809285D02*
X224063152Y-121714047D01*
X224063152Y-121714047D02*
X224063152Y-121571190D01*
X224063152Y-121571190D02*
X224110771Y-121475952D01*
X224110771Y-121475952D02*
X224206009Y-121428333D01*
X224206009Y-121428333D02*
X224729819Y-121428333D01*
X224206009Y-121428333D02*
X224110771Y-121380714D01*
X224110771Y-121380714D02*
X224063152Y-121285476D01*
X224063152Y-121285476D02*
X224063152Y-121142619D01*
X224063152Y-121142619D02*
X224110771Y-121047380D01*
X224110771Y-121047380D02*
X224206009Y-120999761D01*
X224206009Y-120999761D02*
X224729819Y-120999761D01*
D10*
X218559000Y-134620000D02*
X226011420Y-134620000D01*
X218559000Y-129794000D02*
X226011420Y-129794000D01*
X225425000Y-134620000D02*
X225425000Y-129794000D01*
X225425000Y-134620000D02*
X225425000Y-129794000D01*
X225425000Y-134620000D02*
X224838579Y-133493496D01*
X225425000Y-134620000D02*
X226011421Y-133493496D01*
X225425000Y-129794000D02*
X226011421Y-130920504D01*
X225425000Y-129794000D02*
X224838579Y-130920504D01*
D11*
X226015819Y-119919165D02*
X226015819Y-119300118D01*
X226015819Y-119300118D02*
X226396771Y-119633451D01*
X226396771Y-119633451D02*
X226396771Y-119490594D01*
X226396771Y-119490594D02*
X226444390Y-119395356D01*
X226444390Y-119395356D02*
X226492009Y-119347737D01*
X226492009Y-119347737D02*
X226587247Y-119300118D01*
X226587247Y-119300118D02*
X226825342Y-119300118D01*
X226825342Y-119300118D02*
X226920580Y-119347737D01*
X226920580Y-119347737D02*
X226968200Y-119395356D01*
X226968200Y-119395356D02*
X227015819Y-119490594D01*
X227015819Y-119490594D02*
X227015819Y-119776308D01*
X227015819Y-119776308D02*
X226968200Y-119871546D01*
X226968200Y-119871546D02*
X226920580Y-119919165D01*
X226444390Y-118728689D02*
X226396771Y-118823927D01*
X226396771Y-118823927D02*
X226349152Y-118871546D01*
X226349152Y-118871546D02*
X226253914Y-118919165D01*
X226253914Y-118919165D02*
X226206295Y-118919165D01*
X226206295Y-118919165D02*
X226111057Y-118871546D01*
X226111057Y-118871546D02*
X226063438Y-118823927D01*
X226063438Y-118823927D02*
X226015819Y-118728689D01*
X226015819Y-118728689D02*
X226015819Y-118538213D01*
X226015819Y-118538213D02*
X226063438Y-118442975D01*
X226063438Y-118442975D02*
X226111057Y-118395356D01*
X226111057Y-118395356D02*
X226206295Y-118347737D01*
X226206295Y-118347737D02*
X226253914Y-118347737D01*
X226253914Y-118347737D02*
X226349152Y-118395356D01*
X226349152Y-118395356D02*
X226396771Y-118442975D01*
X226396771Y-118442975D02*
X226444390Y-118538213D01*
X226444390Y-118538213D02*
X226444390Y-118728689D01*
X226444390Y-118728689D02*
X226492009Y-118823927D01*
X226492009Y-118823927D02*
X226539628Y-118871546D01*
X226539628Y-118871546D02*
X226634866Y-118919165D01*
X226634866Y-118919165D02*
X226825342Y-118919165D01*
X226825342Y-118919165D02*
X226920580Y-118871546D01*
X226920580Y-118871546D02*
X226968200Y-118823927D01*
X226968200Y-118823927D02*
X227015819Y-118728689D01*
X227015819Y-118728689D02*
X227015819Y-118538213D01*
X227015819Y-118538213D02*
X226968200Y-118442975D01*
X226968200Y-118442975D02*
X226920580Y-118395356D01*
X226920580Y-118395356D02*
X226825342Y-118347737D01*
X226825342Y-118347737D02*
X226634866Y-118347737D01*
X226634866Y-118347737D02*
X226539628Y-118395356D01*
X226539628Y-118395356D02*
X226492009Y-118442975D01*
X226492009Y-118442975D02*
X226444390Y-118538213D01*
X226968200Y-117871546D02*
X227015819Y-117871546D01*
X227015819Y-117871546D02*
X227111057Y-117919165D01*
X227111057Y-117919165D02*
X227158676Y-117966784D01*
X226015819Y-117538213D02*
X226015819Y-116871547D01*
X226015819Y-116871547D02*
X227015819Y-117300118D01*
X226015819Y-116585832D02*
X226015819Y-115966785D01*
X226015819Y-115966785D02*
X226396771Y-116300118D01*
X226396771Y-116300118D02*
X226396771Y-116157261D01*
X226396771Y-116157261D02*
X226444390Y-116062023D01*
X226444390Y-116062023D02*
X226492009Y-116014404D01*
X226492009Y-116014404D02*
X226587247Y-115966785D01*
X226587247Y-115966785D02*
X226825342Y-115966785D01*
X226825342Y-115966785D02*
X226920580Y-116014404D01*
X226920580Y-116014404D02*
X226968200Y-116062023D01*
X226968200Y-116062023D02*
X227015819Y-116157261D01*
X227015819Y-116157261D02*
X227015819Y-116442975D01*
X227015819Y-116442975D02*
X226968200Y-116538213D01*
X226968200Y-116538213D02*
X226920580Y-116585832D01*
X226015819Y-115062023D02*
X226015819Y-115538213D01*
X226015819Y-115538213D02*
X226492009Y-115585832D01*
X226492009Y-115585832D02*
X226444390Y-115538213D01*
X226444390Y-115538213D02*
X226396771Y-115442975D01*
X226396771Y-115442975D02*
X226396771Y-115204880D01*
X226396771Y-115204880D02*
X226444390Y-115109642D01*
X226444390Y-115109642D02*
X226492009Y-115062023D01*
X226492009Y-115062023D02*
X226587247Y-115014404D01*
X226587247Y-115014404D02*
X226825342Y-115014404D01*
X226825342Y-115014404D02*
X226920580Y-115062023D01*
X226920580Y-115062023D02*
X226968200Y-115109642D01*
X226968200Y-115109642D02*
X227015819Y-115204880D01*
X227015819Y-115204880D02*
X227015819Y-115442975D01*
X227015819Y-115442975D02*
X226968200Y-115538213D01*
X226968200Y-115538213D02*
X226920580Y-115585832D01*
X226015819Y-114395356D02*
X226015819Y-114300118D01*
X226015819Y-114300118D02*
X226063438Y-114204880D01*
X226063438Y-114204880D02*
X226111057Y-114157261D01*
X226111057Y-114157261D02*
X226206295Y-114109642D01*
X226206295Y-114109642D02*
X226396771Y-114062023D01*
X226396771Y-114062023D02*
X226634866Y-114062023D01*
X226634866Y-114062023D02*
X226825342Y-114109642D01*
X226825342Y-114109642D02*
X226920580Y-114157261D01*
X226920580Y-114157261D02*
X226968200Y-114204880D01*
X226968200Y-114204880D02*
X227015819Y-114300118D01*
X227015819Y-114300118D02*
X227015819Y-114395356D01*
X227015819Y-114395356D02*
X226968200Y-114490594D01*
X226968200Y-114490594D02*
X226920580Y-114538213D01*
X226920580Y-114538213D02*
X226825342Y-114585832D01*
X226825342Y-114585832D02*
X226634866Y-114633451D01*
X226634866Y-114633451D02*
X226396771Y-114633451D01*
X226396771Y-114633451D02*
X226206295Y-114585832D01*
X226206295Y-114585832D02*
X226111057Y-114538213D01*
X226111057Y-114538213D02*
X226063438Y-114490594D01*
X226063438Y-114490594D02*
X226015819Y-114395356D01*
X227015819Y-112871546D02*
X226349152Y-112871546D01*
X226444390Y-112871546D02*
X226396771Y-112823927D01*
X226396771Y-112823927D02*
X226349152Y-112728689D01*
X226349152Y-112728689D02*
X226349152Y-112585832D01*
X226349152Y-112585832D02*
X226396771Y-112490594D01*
X226396771Y-112490594D02*
X226492009Y-112442975D01*
X226492009Y-112442975D02*
X227015819Y-112442975D01*
X226492009Y-112442975D02*
X226396771Y-112395356D01*
X226396771Y-112395356D02*
X226349152Y-112300118D01*
X226349152Y-112300118D02*
X226349152Y-112157261D01*
X226349152Y-112157261D02*
X226396771Y-112062022D01*
X226396771Y-112062022D02*
X226492009Y-112014403D01*
X226492009Y-112014403D02*
X227015819Y-112014403D01*
X227015819Y-111538213D02*
X226349152Y-111538213D01*
X226444390Y-111538213D02*
X226396771Y-111490594D01*
X226396771Y-111490594D02*
X226349152Y-111395356D01*
X226349152Y-111395356D02*
X226349152Y-111252499D01*
X226349152Y-111252499D02*
X226396771Y-111157261D01*
X226396771Y-111157261D02*
X226492009Y-111109642D01*
X226492009Y-111109642D02*
X227015819Y-111109642D01*
X226492009Y-111109642D02*
X226396771Y-111062023D01*
X226396771Y-111062023D02*
X226349152Y-110966785D01*
X226349152Y-110966785D02*
X226349152Y-110823928D01*
X226349152Y-110823928D02*
X226396771Y-110728689D01*
X226396771Y-110728689D02*
X226492009Y-110681070D01*
X226492009Y-110681070D02*
X227015819Y-110681070D01*
D10*
X218554000Y-134620000D02*
X228297420Y-134620000D01*
X218554000Y-95885000D02*
X228297420Y-95885000D01*
X227711000Y-134620000D02*
X227711000Y-95885000D01*
X227711000Y-134620000D02*
X227711000Y-95885000D01*
X227711000Y-134620000D02*
X227124579Y-133493496D01*
X227711000Y-134620000D02*
X228297421Y-133493496D01*
X227711000Y-95885000D02*
X228297421Y-97011504D01*
X227711000Y-95885000D02*
X227124579Y-97011504D01*
D11*
X224063152Y-109076666D02*
X224729819Y-109076666D01*
X223682200Y-109314761D02*
X224396485Y-109552856D01*
X224396485Y-109552856D02*
X224396485Y-108933809D01*
X224682200Y-108505237D02*
X224729819Y-108505237D01*
X224729819Y-108505237D02*
X224825057Y-108552856D01*
X224825057Y-108552856D02*
X224872676Y-108600475D01*
X224158390Y-107933809D02*
X224110771Y-108029047D01*
X224110771Y-108029047D02*
X224063152Y-108076666D01*
X224063152Y-108076666D02*
X223967914Y-108124285D01*
X223967914Y-108124285D02*
X223920295Y-108124285D01*
X223920295Y-108124285D02*
X223825057Y-108076666D01*
X223825057Y-108076666D02*
X223777438Y-108029047D01*
X223777438Y-108029047D02*
X223729819Y-107933809D01*
X223729819Y-107933809D02*
X223729819Y-107743333D01*
X223729819Y-107743333D02*
X223777438Y-107648095D01*
X223777438Y-107648095D02*
X223825057Y-107600476D01*
X223825057Y-107600476D02*
X223920295Y-107552857D01*
X223920295Y-107552857D02*
X223967914Y-107552857D01*
X223967914Y-107552857D02*
X224063152Y-107600476D01*
X224063152Y-107600476D02*
X224110771Y-107648095D01*
X224110771Y-107648095D02*
X224158390Y-107743333D01*
X224158390Y-107743333D02*
X224158390Y-107933809D01*
X224158390Y-107933809D02*
X224206009Y-108029047D01*
X224206009Y-108029047D02*
X224253628Y-108076666D01*
X224253628Y-108076666D02*
X224348866Y-108124285D01*
X224348866Y-108124285D02*
X224539342Y-108124285D01*
X224539342Y-108124285D02*
X224634580Y-108076666D01*
X224634580Y-108076666D02*
X224682200Y-108029047D01*
X224682200Y-108029047D02*
X224729819Y-107933809D01*
X224729819Y-107933809D02*
X224729819Y-107743333D01*
X224729819Y-107743333D02*
X224682200Y-107648095D01*
X224682200Y-107648095D02*
X224634580Y-107600476D01*
X224634580Y-107600476D02*
X224539342Y-107552857D01*
X224539342Y-107552857D02*
X224348866Y-107552857D01*
X224348866Y-107552857D02*
X224253628Y-107600476D01*
X224253628Y-107600476D02*
X224206009Y-107648095D01*
X224206009Y-107648095D02*
X224158390Y-107743333D01*
X223825057Y-107171904D02*
X223777438Y-107124285D01*
X223777438Y-107124285D02*
X223729819Y-107029047D01*
X223729819Y-107029047D02*
X223729819Y-106790952D01*
X223729819Y-106790952D02*
X223777438Y-106695714D01*
X223777438Y-106695714D02*
X223825057Y-106648095D01*
X223825057Y-106648095D02*
X223920295Y-106600476D01*
X223920295Y-106600476D02*
X224015533Y-106600476D01*
X224015533Y-106600476D02*
X224158390Y-106648095D01*
X224158390Y-106648095D02*
X224729819Y-107219523D01*
X224729819Y-107219523D02*
X224729819Y-106600476D01*
X223729819Y-105743333D02*
X223729819Y-105933809D01*
X223729819Y-105933809D02*
X223777438Y-106029047D01*
X223777438Y-106029047D02*
X223825057Y-106076666D01*
X223825057Y-106076666D02*
X223967914Y-106171904D01*
X223967914Y-106171904D02*
X224158390Y-106219523D01*
X224158390Y-106219523D02*
X224539342Y-106219523D01*
X224539342Y-106219523D02*
X224634580Y-106171904D01*
X224634580Y-106171904D02*
X224682200Y-106124285D01*
X224682200Y-106124285D02*
X224729819Y-106029047D01*
X224729819Y-106029047D02*
X224729819Y-105838571D01*
X224729819Y-105838571D02*
X224682200Y-105743333D01*
X224682200Y-105743333D02*
X224634580Y-105695714D01*
X224634580Y-105695714D02*
X224539342Y-105648095D01*
X224539342Y-105648095D02*
X224301247Y-105648095D01*
X224301247Y-105648095D02*
X224206009Y-105695714D01*
X224206009Y-105695714D02*
X224158390Y-105743333D01*
X224158390Y-105743333D02*
X224110771Y-105838571D01*
X224110771Y-105838571D02*
X224110771Y-106029047D01*
X224110771Y-106029047D02*
X224158390Y-106124285D01*
X224158390Y-106124285D02*
X224206009Y-106171904D01*
X224206009Y-106171904D02*
X224301247Y-106219523D01*
X223729819Y-105029047D02*
X223729819Y-104933809D01*
X223729819Y-104933809D02*
X223777438Y-104838571D01*
X223777438Y-104838571D02*
X223825057Y-104790952D01*
X223825057Y-104790952D02*
X223920295Y-104743333D01*
X223920295Y-104743333D02*
X224110771Y-104695714D01*
X224110771Y-104695714D02*
X224348866Y-104695714D01*
X224348866Y-104695714D02*
X224539342Y-104743333D01*
X224539342Y-104743333D02*
X224634580Y-104790952D01*
X224634580Y-104790952D02*
X224682200Y-104838571D01*
X224682200Y-104838571D02*
X224729819Y-104933809D01*
X224729819Y-104933809D02*
X224729819Y-105029047D01*
X224729819Y-105029047D02*
X224682200Y-105124285D01*
X224682200Y-105124285D02*
X224634580Y-105171904D01*
X224634580Y-105171904D02*
X224539342Y-105219523D01*
X224539342Y-105219523D02*
X224348866Y-105267142D01*
X224348866Y-105267142D02*
X224110771Y-105267142D01*
X224110771Y-105267142D02*
X223920295Y-105219523D01*
X223920295Y-105219523D02*
X223825057Y-105171904D01*
X223825057Y-105171904D02*
X223777438Y-105124285D01*
X223777438Y-105124285D02*
X223729819Y-105029047D01*
X224729819Y-103505237D02*
X224063152Y-103505237D01*
X224158390Y-103505237D02*
X224110771Y-103457618D01*
X224110771Y-103457618D02*
X224063152Y-103362380D01*
X224063152Y-103362380D02*
X224063152Y-103219523D01*
X224063152Y-103219523D02*
X224110771Y-103124285D01*
X224110771Y-103124285D02*
X224206009Y-103076666D01*
X224206009Y-103076666D02*
X224729819Y-103076666D01*
X224206009Y-103076666D02*
X224110771Y-103029047D01*
X224110771Y-103029047D02*
X224063152Y-102933809D01*
X224063152Y-102933809D02*
X224063152Y-102790952D01*
X224063152Y-102790952D02*
X224110771Y-102695713D01*
X224110771Y-102695713D02*
X224206009Y-102648094D01*
X224206009Y-102648094D02*
X224729819Y-102648094D01*
X224729819Y-102171904D02*
X224063152Y-102171904D01*
X224158390Y-102171904D02*
X224110771Y-102124285D01*
X224110771Y-102124285D02*
X224063152Y-102029047D01*
X224063152Y-102029047D02*
X224063152Y-101886190D01*
X224063152Y-101886190D02*
X224110771Y-101790952D01*
X224110771Y-101790952D02*
X224206009Y-101743333D01*
X224206009Y-101743333D02*
X224729819Y-101743333D01*
X224206009Y-101743333D02*
X224110771Y-101695714D01*
X224110771Y-101695714D02*
X224063152Y-101600476D01*
X224063152Y-101600476D02*
X224063152Y-101457619D01*
X224063152Y-101457619D02*
X224110771Y-101362380D01*
X224110771Y-101362380D02*
X224206009Y-101314761D01*
X224206009Y-101314761D02*
X224729819Y-101314761D01*
D10*
X223385000Y-100711000D02*
X226011420Y-100711000D01*
X223385000Y-95885000D02*
X226011420Y-95885000D01*
X225425000Y-100711000D02*
X225425000Y-95885000D01*
X225425000Y-100711000D02*
X225425000Y-95885000D01*
X225425000Y-100711000D02*
X224838579Y-99584496D01*
X225425000Y-100711000D02*
X226011421Y-99584496D01*
X225425000Y-95885000D02*
X226011421Y-97011504D01*
X225425000Y-95885000D02*
X224838579Y-97011504D01*
D11*
X143526333Y-135925152D02*
X143526333Y-136591819D01*
X143288238Y-135544200D02*
X143050143Y-136258485D01*
X143050143Y-136258485D02*
X143669190Y-136258485D01*
X144097762Y-136544200D02*
X144097762Y-136591819D01*
X144097762Y-136591819D02*
X144050143Y-136687057D01*
X144050143Y-136687057D02*
X144002524Y-136734676D01*
X144669190Y-136020390D02*
X144573952Y-135972771D01*
X144573952Y-135972771D02*
X144526333Y-135925152D01*
X144526333Y-135925152D02*
X144478714Y-135829914D01*
X144478714Y-135829914D02*
X144478714Y-135782295D01*
X144478714Y-135782295D02*
X144526333Y-135687057D01*
X144526333Y-135687057D02*
X144573952Y-135639438D01*
X144573952Y-135639438D02*
X144669190Y-135591819D01*
X144669190Y-135591819D02*
X144859666Y-135591819D01*
X144859666Y-135591819D02*
X144954904Y-135639438D01*
X144954904Y-135639438D02*
X145002523Y-135687057D01*
X145002523Y-135687057D02*
X145050142Y-135782295D01*
X145050142Y-135782295D02*
X145050142Y-135829914D01*
X145050142Y-135829914D02*
X145002523Y-135925152D01*
X145002523Y-135925152D02*
X144954904Y-135972771D01*
X144954904Y-135972771D02*
X144859666Y-136020390D01*
X144859666Y-136020390D02*
X144669190Y-136020390D01*
X144669190Y-136020390D02*
X144573952Y-136068009D01*
X144573952Y-136068009D02*
X144526333Y-136115628D01*
X144526333Y-136115628D02*
X144478714Y-136210866D01*
X144478714Y-136210866D02*
X144478714Y-136401342D01*
X144478714Y-136401342D02*
X144526333Y-136496580D01*
X144526333Y-136496580D02*
X144573952Y-136544200D01*
X144573952Y-136544200D02*
X144669190Y-136591819D01*
X144669190Y-136591819D02*
X144859666Y-136591819D01*
X144859666Y-136591819D02*
X144954904Y-136544200D01*
X144954904Y-136544200D02*
X145002523Y-136496580D01*
X145002523Y-136496580D02*
X145050142Y-136401342D01*
X145050142Y-136401342D02*
X145050142Y-136210866D01*
X145050142Y-136210866D02*
X145002523Y-136115628D01*
X145002523Y-136115628D02*
X144954904Y-136068009D01*
X144954904Y-136068009D02*
X144859666Y-136020390D01*
X145431095Y-135687057D02*
X145478714Y-135639438D01*
X145478714Y-135639438D02*
X145573952Y-135591819D01*
X145573952Y-135591819D02*
X145812047Y-135591819D01*
X145812047Y-135591819D02*
X145907285Y-135639438D01*
X145907285Y-135639438D02*
X145954904Y-135687057D01*
X145954904Y-135687057D02*
X146002523Y-135782295D01*
X146002523Y-135782295D02*
X146002523Y-135877533D01*
X146002523Y-135877533D02*
X145954904Y-136020390D01*
X145954904Y-136020390D02*
X145383476Y-136591819D01*
X145383476Y-136591819D02*
X146002523Y-136591819D01*
X146859666Y-135591819D02*
X146669190Y-135591819D01*
X146669190Y-135591819D02*
X146573952Y-135639438D01*
X146573952Y-135639438D02*
X146526333Y-135687057D01*
X146526333Y-135687057D02*
X146431095Y-135829914D01*
X146431095Y-135829914D02*
X146383476Y-136020390D01*
X146383476Y-136020390D02*
X146383476Y-136401342D01*
X146383476Y-136401342D02*
X146431095Y-136496580D01*
X146431095Y-136496580D02*
X146478714Y-136544200D01*
X146478714Y-136544200D02*
X146573952Y-136591819D01*
X146573952Y-136591819D02*
X146764428Y-136591819D01*
X146764428Y-136591819D02*
X146859666Y-136544200D01*
X146859666Y-136544200D02*
X146907285Y-136496580D01*
X146907285Y-136496580D02*
X146954904Y-136401342D01*
X146954904Y-136401342D02*
X146954904Y-136163247D01*
X146954904Y-136163247D02*
X146907285Y-136068009D01*
X146907285Y-136068009D02*
X146859666Y-136020390D01*
X146859666Y-136020390D02*
X146764428Y-135972771D01*
X146764428Y-135972771D02*
X146573952Y-135972771D01*
X146573952Y-135972771D02*
X146478714Y-136020390D01*
X146478714Y-136020390D02*
X146431095Y-136068009D01*
X146431095Y-136068009D02*
X146383476Y-136163247D01*
X147573952Y-135591819D02*
X147669190Y-135591819D01*
X147669190Y-135591819D02*
X147764428Y-135639438D01*
X147764428Y-135639438D02*
X147812047Y-135687057D01*
X147812047Y-135687057D02*
X147859666Y-135782295D01*
X147859666Y-135782295D02*
X147907285Y-135972771D01*
X147907285Y-135972771D02*
X147907285Y-136210866D01*
X147907285Y-136210866D02*
X147859666Y-136401342D01*
X147859666Y-136401342D02*
X147812047Y-136496580D01*
X147812047Y-136496580D02*
X147764428Y-136544200D01*
X147764428Y-136544200D02*
X147669190Y-136591819D01*
X147669190Y-136591819D02*
X147573952Y-136591819D01*
X147573952Y-136591819D02*
X147478714Y-136544200D01*
X147478714Y-136544200D02*
X147431095Y-136496580D01*
X147431095Y-136496580D02*
X147383476Y-136401342D01*
X147383476Y-136401342D02*
X147335857Y-136210866D01*
X147335857Y-136210866D02*
X147335857Y-135972771D01*
X147335857Y-135972771D02*
X147383476Y-135782295D01*
X147383476Y-135782295D02*
X147431095Y-135687057D01*
X147431095Y-135687057D02*
X147478714Y-135639438D01*
X147478714Y-135639438D02*
X147573952Y-135591819D01*
X149097762Y-136591819D02*
X149097762Y-135925152D01*
X149097762Y-136020390D02*
X149145381Y-135972771D01*
X149145381Y-135972771D02*
X149240619Y-135925152D01*
X149240619Y-135925152D02*
X149383476Y-135925152D01*
X149383476Y-135925152D02*
X149478714Y-135972771D01*
X149478714Y-135972771D02*
X149526333Y-136068009D01*
X149526333Y-136068009D02*
X149526333Y-136591819D01*
X149526333Y-136068009D02*
X149573952Y-135972771D01*
X149573952Y-135972771D02*
X149669190Y-135925152D01*
X149669190Y-135925152D02*
X149812047Y-135925152D01*
X149812047Y-135925152D02*
X149907286Y-135972771D01*
X149907286Y-135972771D02*
X149954905Y-136068009D01*
X149954905Y-136068009D02*
X149954905Y-136591819D01*
X150431095Y-136591819D02*
X150431095Y-135925152D01*
X150431095Y-136020390D02*
X150478714Y-135972771D01*
X150478714Y-135972771D02*
X150573952Y-135925152D01*
X150573952Y-135925152D02*
X150716809Y-135925152D01*
X150716809Y-135925152D02*
X150812047Y-135972771D01*
X150812047Y-135972771D02*
X150859666Y-136068009D01*
X150859666Y-136068009D02*
X150859666Y-136591819D01*
X150859666Y-136068009D02*
X150907285Y-135972771D01*
X150907285Y-135972771D02*
X151002523Y-135925152D01*
X151002523Y-135925152D02*
X151145380Y-135925152D01*
X151145380Y-135925152D02*
X151240619Y-135972771D01*
X151240619Y-135972771D02*
X151288238Y-136068009D01*
X151288238Y-136068009D02*
X151288238Y-136591819D01*
D10*
X142621000Y-135120000D02*
X142621000Y-137873420D01*
X137795000Y-135120000D02*
X137795000Y-137873420D01*
X142621000Y-137287000D02*
X137795000Y-137287000D01*
X142621000Y-137287000D02*
X137795000Y-137287000D01*
X142621000Y-137287000D02*
X141494496Y-137873421D01*
X142621000Y-137287000D02*
X141494496Y-136700579D01*
X137795000Y-137287000D02*
X138921504Y-136700579D01*
X137795000Y-137287000D02*
X138921504Y-137873421D01*
D11*
X175913929Y-137671390D02*
X175818691Y-137623771D01*
X175818691Y-137623771D02*
X175771072Y-137576152D01*
X175771072Y-137576152D02*
X175723453Y-137480914D01*
X175723453Y-137480914D02*
X175723453Y-137433295D01*
X175723453Y-137433295D02*
X175771072Y-137338057D01*
X175771072Y-137338057D02*
X175818691Y-137290438D01*
X175818691Y-137290438D02*
X175913929Y-137242819D01*
X175913929Y-137242819D02*
X176104405Y-137242819D01*
X176104405Y-137242819D02*
X176199643Y-137290438D01*
X176199643Y-137290438D02*
X176247262Y-137338057D01*
X176247262Y-137338057D02*
X176294881Y-137433295D01*
X176294881Y-137433295D02*
X176294881Y-137480914D01*
X176294881Y-137480914D02*
X176247262Y-137576152D01*
X176247262Y-137576152D02*
X176199643Y-137623771D01*
X176199643Y-137623771D02*
X176104405Y-137671390D01*
X176104405Y-137671390D02*
X175913929Y-137671390D01*
X175913929Y-137671390D02*
X175818691Y-137719009D01*
X175818691Y-137719009D02*
X175771072Y-137766628D01*
X175771072Y-137766628D02*
X175723453Y-137861866D01*
X175723453Y-137861866D02*
X175723453Y-138052342D01*
X175723453Y-138052342D02*
X175771072Y-138147580D01*
X175771072Y-138147580D02*
X175818691Y-138195200D01*
X175818691Y-138195200D02*
X175913929Y-138242819D01*
X175913929Y-138242819D02*
X176104405Y-138242819D01*
X176104405Y-138242819D02*
X176199643Y-138195200D01*
X176199643Y-138195200D02*
X176247262Y-138147580D01*
X176247262Y-138147580D02*
X176294881Y-138052342D01*
X176294881Y-138052342D02*
X176294881Y-137861866D01*
X176294881Y-137861866D02*
X176247262Y-137766628D01*
X176247262Y-137766628D02*
X176199643Y-137719009D01*
X176199643Y-137719009D02*
X176104405Y-137671390D01*
X177199643Y-137242819D02*
X176723453Y-137242819D01*
X176723453Y-137242819D02*
X176675834Y-137719009D01*
X176675834Y-137719009D02*
X176723453Y-137671390D01*
X176723453Y-137671390D02*
X176818691Y-137623771D01*
X176818691Y-137623771D02*
X177056786Y-137623771D01*
X177056786Y-137623771D02*
X177152024Y-137671390D01*
X177152024Y-137671390D02*
X177199643Y-137719009D01*
X177199643Y-137719009D02*
X177247262Y-137814247D01*
X177247262Y-137814247D02*
X177247262Y-138052342D01*
X177247262Y-138052342D02*
X177199643Y-138147580D01*
X177199643Y-138147580D02*
X177152024Y-138195200D01*
X177152024Y-138195200D02*
X177056786Y-138242819D01*
X177056786Y-138242819D02*
X176818691Y-138242819D01*
X176818691Y-138242819D02*
X176723453Y-138195200D01*
X176723453Y-138195200D02*
X176675834Y-138147580D01*
X177723453Y-138195200D02*
X177723453Y-138242819D01*
X177723453Y-138242819D02*
X177675834Y-138338057D01*
X177675834Y-138338057D02*
X177628215Y-138385676D01*
X178342500Y-137242819D02*
X178437738Y-137242819D01*
X178437738Y-137242819D02*
X178532976Y-137290438D01*
X178532976Y-137290438D02*
X178580595Y-137338057D01*
X178580595Y-137338057D02*
X178628214Y-137433295D01*
X178628214Y-137433295D02*
X178675833Y-137623771D01*
X178675833Y-137623771D02*
X178675833Y-137861866D01*
X178675833Y-137861866D02*
X178628214Y-138052342D01*
X178628214Y-138052342D02*
X178580595Y-138147580D01*
X178580595Y-138147580D02*
X178532976Y-138195200D01*
X178532976Y-138195200D02*
X178437738Y-138242819D01*
X178437738Y-138242819D02*
X178342500Y-138242819D01*
X178342500Y-138242819D02*
X178247262Y-138195200D01*
X178247262Y-138195200D02*
X178199643Y-138147580D01*
X178199643Y-138147580D02*
X178152024Y-138052342D01*
X178152024Y-138052342D02*
X178104405Y-137861866D01*
X178104405Y-137861866D02*
X178104405Y-137623771D01*
X178104405Y-137623771D02*
X178152024Y-137433295D01*
X178152024Y-137433295D02*
X178199643Y-137338057D01*
X178199643Y-137338057D02*
X178247262Y-137290438D01*
X178247262Y-137290438D02*
X178342500Y-137242819D01*
X179247262Y-137671390D02*
X179152024Y-137623771D01*
X179152024Y-137623771D02*
X179104405Y-137576152D01*
X179104405Y-137576152D02*
X179056786Y-137480914D01*
X179056786Y-137480914D02*
X179056786Y-137433295D01*
X179056786Y-137433295D02*
X179104405Y-137338057D01*
X179104405Y-137338057D02*
X179152024Y-137290438D01*
X179152024Y-137290438D02*
X179247262Y-137242819D01*
X179247262Y-137242819D02*
X179437738Y-137242819D01*
X179437738Y-137242819D02*
X179532976Y-137290438D01*
X179532976Y-137290438D02*
X179580595Y-137338057D01*
X179580595Y-137338057D02*
X179628214Y-137433295D01*
X179628214Y-137433295D02*
X179628214Y-137480914D01*
X179628214Y-137480914D02*
X179580595Y-137576152D01*
X179580595Y-137576152D02*
X179532976Y-137623771D01*
X179532976Y-137623771D02*
X179437738Y-137671390D01*
X179437738Y-137671390D02*
X179247262Y-137671390D01*
X179247262Y-137671390D02*
X179152024Y-137719009D01*
X179152024Y-137719009D02*
X179104405Y-137766628D01*
X179104405Y-137766628D02*
X179056786Y-137861866D01*
X179056786Y-137861866D02*
X179056786Y-138052342D01*
X179056786Y-138052342D02*
X179104405Y-138147580D01*
X179104405Y-138147580D02*
X179152024Y-138195200D01*
X179152024Y-138195200D02*
X179247262Y-138242819D01*
X179247262Y-138242819D02*
X179437738Y-138242819D01*
X179437738Y-138242819D02*
X179532976Y-138195200D01*
X179532976Y-138195200D02*
X179580595Y-138147580D01*
X179580595Y-138147580D02*
X179628214Y-138052342D01*
X179628214Y-138052342D02*
X179628214Y-137861866D01*
X179628214Y-137861866D02*
X179580595Y-137766628D01*
X179580595Y-137766628D02*
X179532976Y-137719009D01*
X179532976Y-137719009D02*
X179437738Y-137671390D01*
X180532976Y-137242819D02*
X180056786Y-137242819D01*
X180056786Y-137242819D02*
X180009167Y-137719009D01*
X180009167Y-137719009D02*
X180056786Y-137671390D01*
X180056786Y-137671390D02*
X180152024Y-137623771D01*
X180152024Y-137623771D02*
X180390119Y-137623771D01*
X180390119Y-137623771D02*
X180485357Y-137671390D01*
X180485357Y-137671390D02*
X180532976Y-137719009D01*
X180532976Y-137719009D02*
X180580595Y-137814247D01*
X180580595Y-137814247D02*
X180580595Y-138052342D01*
X180580595Y-138052342D02*
X180532976Y-138147580D01*
X180532976Y-138147580D02*
X180485357Y-138195200D01*
X180485357Y-138195200D02*
X180390119Y-138242819D01*
X180390119Y-138242819D02*
X180152024Y-138242819D01*
X180152024Y-138242819D02*
X180056786Y-138195200D01*
X180056786Y-138195200D02*
X180009167Y-138147580D01*
X181199643Y-137242819D02*
X181294881Y-137242819D01*
X181294881Y-137242819D02*
X181390119Y-137290438D01*
X181390119Y-137290438D02*
X181437738Y-137338057D01*
X181437738Y-137338057D02*
X181485357Y-137433295D01*
X181485357Y-137433295D02*
X181532976Y-137623771D01*
X181532976Y-137623771D02*
X181532976Y-137861866D01*
X181532976Y-137861866D02*
X181485357Y-138052342D01*
X181485357Y-138052342D02*
X181437738Y-138147580D01*
X181437738Y-138147580D02*
X181390119Y-138195200D01*
X181390119Y-138195200D02*
X181294881Y-138242819D01*
X181294881Y-138242819D02*
X181199643Y-138242819D01*
X181199643Y-138242819D02*
X181104405Y-138195200D01*
X181104405Y-138195200D02*
X181056786Y-138147580D01*
X181056786Y-138147580D02*
X181009167Y-138052342D01*
X181009167Y-138052342D02*
X180961548Y-137861866D01*
X180961548Y-137861866D02*
X180961548Y-137623771D01*
X180961548Y-137623771D02*
X181009167Y-137433295D01*
X181009167Y-137433295D02*
X181056786Y-137338057D01*
X181056786Y-137338057D02*
X181104405Y-137290438D01*
X181104405Y-137290438D02*
X181199643Y-137242819D01*
X182723453Y-138242819D02*
X182723453Y-137576152D01*
X182723453Y-137671390D02*
X182771072Y-137623771D01*
X182771072Y-137623771D02*
X182866310Y-137576152D01*
X182866310Y-137576152D02*
X183009167Y-137576152D01*
X183009167Y-137576152D02*
X183104405Y-137623771D01*
X183104405Y-137623771D02*
X183152024Y-137719009D01*
X183152024Y-137719009D02*
X183152024Y-138242819D01*
X183152024Y-137719009D02*
X183199643Y-137623771D01*
X183199643Y-137623771D02*
X183294881Y-137576152D01*
X183294881Y-137576152D02*
X183437738Y-137576152D01*
X183437738Y-137576152D02*
X183532977Y-137623771D01*
X183532977Y-137623771D02*
X183580596Y-137719009D01*
X183580596Y-137719009D02*
X183580596Y-138242819D01*
X184056786Y-138242819D02*
X184056786Y-137576152D01*
X184056786Y-137671390D02*
X184104405Y-137623771D01*
X184104405Y-137623771D02*
X184199643Y-137576152D01*
X184199643Y-137576152D02*
X184342500Y-137576152D01*
X184342500Y-137576152D02*
X184437738Y-137623771D01*
X184437738Y-137623771D02*
X184485357Y-137719009D01*
X184485357Y-137719009D02*
X184485357Y-138242819D01*
X184485357Y-137719009D02*
X184532976Y-137623771D01*
X184532976Y-137623771D02*
X184628214Y-137576152D01*
X184628214Y-137576152D02*
X184771071Y-137576152D01*
X184771071Y-137576152D02*
X184866310Y-137623771D01*
X184866310Y-137623771D02*
X184913929Y-137719009D01*
X184913929Y-137719009D02*
X184913929Y-138242819D01*
D10*
X222885000Y-130294000D02*
X222885000Y-139524420D01*
X137800000Y-130294000D02*
X137800000Y-139524420D01*
X222885000Y-138938000D02*
X137800000Y-138938000D01*
X222885000Y-138938000D02*
X137800000Y-138938000D01*
X222885000Y-138938000D02*
X221758496Y-139524421D01*
X222885000Y-138938000D02*
X221758496Y-138351579D01*
X137800000Y-138938000D02*
X138926504Y-138351579D01*
X137800000Y-138938000D02*
X138926504Y-139524421D01*
D11*
X184681428Y-122417800D02*
X184538571Y-122370180D01*
X184538571Y-122370180D02*
X184300476Y-122370180D01*
X184300476Y-122370180D02*
X184205238Y-122417800D01*
X184205238Y-122417800D02*
X184157619Y-122465419D01*
X184157619Y-122465419D02*
X184110000Y-122560657D01*
X184110000Y-122560657D02*
X184110000Y-122655895D01*
X184110000Y-122655895D02*
X184157619Y-122751133D01*
X184157619Y-122751133D02*
X184205238Y-122798752D01*
X184205238Y-122798752D02*
X184300476Y-122846371D01*
X184300476Y-122846371D02*
X184490952Y-122893990D01*
X184490952Y-122893990D02*
X184586190Y-122941609D01*
X184586190Y-122941609D02*
X184633809Y-122989228D01*
X184633809Y-122989228D02*
X184681428Y-123084466D01*
X184681428Y-123084466D02*
X184681428Y-123179704D01*
X184681428Y-123179704D02*
X184633809Y-123274942D01*
X184633809Y-123274942D02*
X184586190Y-123322561D01*
X184586190Y-123322561D02*
X184490952Y-123370180D01*
X184490952Y-123370180D02*
X184252857Y-123370180D01*
X184252857Y-123370180D02*
X184110000Y-123322561D01*
X183776666Y-123370180D02*
X183538571Y-122370180D01*
X183538571Y-122370180D02*
X183348095Y-123084466D01*
X183348095Y-123084466D02*
X183157619Y-122370180D01*
X183157619Y-122370180D02*
X182919524Y-123370180D01*
X182776667Y-122274942D02*
X182014762Y-122274942D01*
X181824285Y-122417800D02*
X181681428Y-122370180D01*
X181681428Y-122370180D02*
X181443333Y-122370180D01*
X181443333Y-122370180D02*
X181348095Y-122417800D01*
X181348095Y-122417800D02*
X181300476Y-122465419D01*
X181300476Y-122465419D02*
X181252857Y-122560657D01*
X181252857Y-122560657D02*
X181252857Y-122655895D01*
X181252857Y-122655895D02*
X181300476Y-122751133D01*
X181300476Y-122751133D02*
X181348095Y-122798752D01*
X181348095Y-122798752D02*
X181443333Y-122846371D01*
X181443333Y-122846371D02*
X181633809Y-122893990D01*
X181633809Y-122893990D02*
X181729047Y-122941609D01*
X181729047Y-122941609D02*
X181776666Y-122989228D01*
X181776666Y-122989228D02*
X181824285Y-123084466D01*
X181824285Y-123084466D02*
X181824285Y-123179704D01*
X181824285Y-123179704D02*
X181776666Y-123274942D01*
X181776666Y-123274942D02*
X181729047Y-123322561D01*
X181729047Y-123322561D02*
X181633809Y-123370180D01*
X181633809Y-123370180D02*
X181395714Y-123370180D01*
X181395714Y-123370180D02*
X181252857Y-123322561D01*
X180824285Y-122370180D02*
X180824285Y-123370180D01*
X180824285Y-123370180D02*
X180443333Y-123370180D01*
X180443333Y-123370180D02*
X180348095Y-123322561D01*
X180348095Y-123322561D02*
X180300476Y-123274942D01*
X180300476Y-123274942D02*
X180252857Y-123179704D01*
X180252857Y-123179704D02*
X180252857Y-123036847D01*
X180252857Y-123036847D02*
X180300476Y-122941609D01*
X180300476Y-122941609D02*
X180348095Y-122893990D01*
X180348095Y-122893990D02*
X180443333Y-122846371D01*
X180443333Y-122846371D02*
X180824285Y-122846371D01*
X179871904Y-122417800D02*
X179729047Y-122370180D01*
X179729047Y-122370180D02*
X179490952Y-122370180D01*
X179490952Y-122370180D02*
X179395714Y-122417800D01*
X179395714Y-122417800D02*
X179348095Y-122465419D01*
X179348095Y-122465419D02*
X179300476Y-122560657D01*
X179300476Y-122560657D02*
X179300476Y-122655895D01*
X179300476Y-122655895D02*
X179348095Y-122751133D01*
X179348095Y-122751133D02*
X179395714Y-122798752D01*
X179395714Y-122798752D02*
X179490952Y-122846371D01*
X179490952Y-122846371D02*
X179681428Y-122893990D01*
X179681428Y-122893990D02*
X179776666Y-122941609D01*
X179776666Y-122941609D02*
X179824285Y-122989228D01*
X179824285Y-122989228D02*
X179871904Y-123084466D01*
X179871904Y-123084466D02*
X179871904Y-123179704D01*
X179871904Y-123179704D02*
X179824285Y-123274942D01*
X179824285Y-123274942D02*
X179776666Y-123322561D01*
X179776666Y-123322561D02*
X179681428Y-123370180D01*
X179681428Y-123370180D02*
X179443333Y-123370180D01*
X179443333Y-123370180D02*
X179300476Y-123322561D01*
X179014761Y-123370180D02*
X178443333Y-123370180D01*
X178729047Y-122370180D02*
X178729047Y-123370180D01*
X183419523Y-120917800D02*
X183276666Y-120870180D01*
X183276666Y-120870180D02*
X183038571Y-120870180D01*
X183038571Y-120870180D02*
X182943333Y-120917800D01*
X182943333Y-120917800D02*
X182895714Y-120965419D01*
X182895714Y-120965419D02*
X182848095Y-121060657D01*
X182848095Y-121060657D02*
X182848095Y-121155895D01*
X182848095Y-121155895D02*
X182895714Y-121251133D01*
X182895714Y-121251133D02*
X182943333Y-121298752D01*
X182943333Y-121298752D02*
X183038571Y-121346371D01*
X183038571Y-121346371D02*
X183229047Y-121393990D01*
X183229047Y-121393990D02*
X183324285Y-121441609D01*
X183324285Y-121441609D02*
X183371904Y-121489228D01*
X183371904Y-121489228D02*
X183419523Y-121584466D01*
X183419523Y-121584466D02*
X183419523Y-121679704D01*
X183419523Y-121679704D02*
X183371904Y-121774942D01*
X183371904Y-121774942D02*
X183324285Y-121822561D01*
X183324285Y-121822561D02*
X183229047Y-121870180D01*
X183229047Y-121870180D02*
X182990952Y-121870180D01*
X182990952Y-121870180D02*
X182848095Y-121822561D01*
X182514761Y-121870180D02*
X182276666Y-120870180D01*
X182276666Y-120870180D02*
X182086190Y-121584466D01*
X182086190Y-121584466D02*
X181895714Y-120870180D01*
X181895714Y-120870180D02*
X181657619Y-121870180D01*
X180752857Y-120870180D02*
X181324285Y-120870180D01*
X181038571Y-120870180D02*
X181038571Y-121870180D01*
X181038571Y-121870180D02*
X181133809Y-121727323D01*
X181133809Y-121727323D02*
X181229047Y-121632085D01*
X181229047Y-121632085D02*
X181324285Y-121584466D01*
X180419523Y-121870180D02*
X179800476Y-121870180D01*
X179800476Y-121870180D02*
X180133809Y-121489228D01*
X180133809Y-121489228D02*
X179990952Y-121489228D01*
X179990952Y-121489228D02*
X179895714Y-121441609D01*
X179895714Y-121441609D02*
X179848095Y-121393990D01*
X179848095Y-121393990D02*
X179800476Y-121298752D01*
X179800476Y-121298752D02*
X179800476Y-121060657D01*
X179800476Y-121060657D02*
X179848095Y-120965419D01*
X179848095Y-120965419D02*
X179895714Y-120917800D01*
X179895714Y-120917800D02*
X179990952Y-120870180D01*
X179990952Y-120870180D02*
X180276666Y-120870180D01*
X180276666Y-120870180D02*
X180371904Y-120917800D01*
X180371904Y-120917800D02*
X180419523Y-120965419D01*
X199921428Y-122417800D02*
X199778571Y-122370180D01*
X199778571Y-122370180D02*
X199540476Y-122370180D01*
X199540476Y-122370180D02*
X199445238Y-122417800D01*
X199445238Y-122417800D02*
X199397619Y-122465419D01*
X199397619Y-122465419D02*
X199350000Y-122560657D01*
X199350000Y-122560657D02*
X199350000Y-122655895D01*
X199350000Y-122655895D02*
X199397619Y-122751133D01*
X199397619Y-122751133D02*
X199445238Y-122798752D01*
X199445238Y-122798752D02*
X199540476Y-122846371D01*
X199540476Y-122846371D02*
X199730952Y-122893990D01*
X199730952Y-122893990D02*
X199826190Y-122941609D01*
X199826190Y-122941609D02*
X199873809Y-122989228D01*
X199873809Y-122989228D02*
X199921428Y-123084466D01*
X199921428Y-123084466D02*
X199921428Y-123179704D01*
X199921428Y-123179704D02*
X199873809Y-123274942D01*
X199873809Y-123274942D02*
X199826190Y-123322561D01*
X199826190Y-123322561D02*
X199730952Y-123370180D01*
X199730952Y-123370180D02*
X199492857Y-123370180D01*
X199492857Y-123370180D02*
X199350000Y-123322561D01*
X199016666Y-123370180D02*
X198778571Y-122370180D01*
X198778571Y-122370180D02*
X198588095Y-123084466D01*
X198588095Y-123084466D02*
X198397619Y-122370180D01*
X198397619Y-122370180D02*
X198159524Y-123370180D01*
X198016667Y-122274942D02*
X197254762Y-122274942D01*
X197064285Y-122417800D02*
X196921428Y-122370180D01*
X196921428Y-122370180D02*
X196683333Y-122370180D01*
X196683333Y-122370180D02*
X196588095Y-122417800D01*
X196588095Y-122417800D02*
X196540476Y-122465419D01*
X196540476Y-122465419D02*
X196492857Y-122560657D01*
X196492857Y-122560657D02*
X196492857Y-122655895D01*
X196492857Y-122655895D02*
X196540476Y-122751133D01*
X196540476Y-122751133D02*
X196588095Y-122798752D01*
X196588095Y-122798752D02*
X196683333Y-122846371D01*
X196683333Y-122846371D02*
X196873809Y-122893990D01*
X196873809Y-122893990D02*
X196969047Y-122941609D01*
X196969047Y-122941609D02*
X197016666Y-122989228D01*
X197016666Y-122989228D02*
X197064285Y-123084466D01*
X197064285Y-123084466D02*
X197064285Y-123179704D01*
X197064285Y-123179704D02*
X197016666Y-123274942D01*
X197016666Y-123274942D02*
X196969047Y-123322561D01*
X196969047Y-123322561D02*
X196873809Y-123370180D01*
X196873809Y-123370180D02*
X196635714Y-123370180D01*
X196635714Y-123370180D02*
X196492857Y-123322561D01*
X196064285Y-122370180D02*
X196064285Y-123370180D01*
X196064285Y-123370180D02*
X195683333Y-123370180D01*
X195683333Y-123370180D02*
X195588095Y-123322561D01*
X195588095Y-123322561D02*
X195540476Y-123274942D01*
X195540476Y-123274942D02*
X195492857Y-123179704D01*
X195492857Y-123179704D02*
X195492857Y-123036847D01*
X195492857Y-123036847D02*
X195540476Y-122941609D01*
X195540476Y-122941609D02*
X195588095Y-122893990D01*
X195588095Y-122893990D02*
X195683333Y-122846371D01*
X195683333Y-122846371D02*
X196064285Y-122846371D01*
X195111904Y-122417800D02*
X194969047Y-122370180D01*
X194969047Y-122370180D02*
X194730952Y-122370180D01*
X194730952Y-122370180D02*
X194635714Y-122417800D01*
X194635714Y-122417800D02*
X194588095Y-122465419D01*
X194588095Y-122465419D02*
X194540476Y-122560657D01*
X194540476Y-122560657D02*
X194540476Y-122655895D01*
X194540476Y-122655895D02*
X194588095Y-122751133D01*
X194588095Y-122751133D02*
X194635714Y-122798752D01*
X194635714Y-122798752D02*
X194730952Y-122846371D01*
X194730952Y-122846371D02*
X194921428Y-122893990D01*
X194921428Y-122893990D02*
X195016666Y-122941609D01*
X195016666Y-122941609D02*
X195064285Y-122989228D01*
X195064285Y-122989228D02*
X195111904Y-123084466D01*
X195111904Y-123084466D02*
X195111904Y-123179704D01*
X195111904Y-123179704D02*
X195064285Y-123274942D01*
X195064285Y-123274942D02*
X195016666Y-123322561D01*
X195016666Y-123322561D02*
X194921428Y-123370180D01*
X194921428Y-123370180D02*
X194683333Y-123370180D01*
X194683333Y-123370180D02*
X194540476Y-123322561D01*
X194254761Y-123370180D02*
X193683333Y-123370180D01*
X193969047Y-122370180D02*
X193969047Y-123370180D01*
X198659523Y-120917800D02*
X198516666Y-120870180D01*
X198516666Y-120870180D02*
X198278571Y-120870180D01*
X198278571Y-120870180D02*
X198183333Y-120917800D01*
X198183333Y-120917800D02*
X198135714Y-120965419D01*
X198135714Y-120965419D02*
X198088095Y-121060657D01*
X198088095Y-121060657D02*
X198088095Y-121155895D01*
X198088095Y-121155895D02*
X198135714Y-121251133D01*
X198135714Y-121251133D02*
X198183333Y-121298752D01*
X198183333Y-121298752D02*
X198278571Y-121346371D01*
X198278571Y-121346371D02*
X198469047Y-121393990D01*
X198469047Y-121393990D02*
X198564285Y-121441609D01*
X198564285Y-121441609D02*
X198611904Y-121489228D01*
X198611904Y-121489228D02*
X198659523Y-121584466D01*
X198659523Y-121584466D02*
X198659523Y-121679704D01*
X198659523Y-121679704D02*
X198611904Y-121774942D01*
X198611904Y-121774942D02*
X198564285Y-121822561D01*
X198564285Y-121822561D02*
X198469047Y-121870180D01*
X198469047Y-121870180D02*
X198230952Y-121870180D01*
X198230952Y-121870180D02*
X198088095Y-121822561D01*
X197754761Y-121870180D02*
X197516666Y-120870180D01*
X197516666Y-120870180D02*
X197326190Y-121584466D01*
X197326190Y-121584466D02*
X197135714Y-120870180D01*
X197135714Y-120870180D02*
X196897619Y-121870180D01*
X195992857Y-120870180D02*
X196564285Y-120870180D01*
X196278571Y-120870180D02*
X196278571Y-121870180D01*
X196278571Y-121870180D02*
X196373809Y-121727323D01*
X196373809Y-121727323D02*
X196469047Y-121632085D01*
X196469047Y-121632085D02*
X196564285Y-121584466D01*
X195088095Y-121870180D02*
X195564285Y-121870180D01*
X195564285Y-121870180D02*
X195611904Y-121393990D01*
X195611904Y-121393990D02*
X195564285Y-121441609D01*
X195564285Y-121441609D02*
X195469047Y-121489228D01*
X195469047Y-121489228D02*
X195230952Y-121489228D01*
X195230952Y-121489228D02*
X195135714Y-121441609D01*
X195135714Y-121441609D02*
X195088095Y-121393990D01*
X195088095Y-121393990D02*
X195040476Y-121298752D01*
X195040476Y-121298752D02*
X195040476Y-121060657D01*
X195040476Y-121060657D02*
X195088095Y-120965419D01*
X195088095Y-120965419D02*
X195135714Y-120917800D01*
X195135714Y-120917800D02*
X195230952Y-120870180D01*
X195230952Y-120870180D02*
X195469047Y-120870180D01*
X195469047Y-120870180D02*
X195564285Y-120917800D01*
X195564285Y-120917800D02*
X195611904Y-120965419D01*
X159972381Y-126709819D02*
X160067619Y-126709819D01*
X160067619Y-126709819D02*
X160162857Y-126757438D01*
X160162857Y-126757438D02*
X160210476Y-126805057D01*
X160210476Y-126805057D02*
X160258095Y-126900295D01*
X160258095Y-126900295D02*
X160305714Y-127090771D01*
X160305714Y-127090771D02*
X160305714Y-127328866D01*
X160305714Y-127328866D02*
X160258095Y-127519342D01*
X160258095Y-127519342D02*
X160210476Y-127614580D01*
X160210476Y-127614580D02*
X160162857Y-127662200D01*
X160162857Y-127662200D02*
X160067619Y-127709819D01*
X160067619Y-127709819D02*
X159972381Y-127709819D01*
X159972381Y-127709819D02*
X159877143Y-127662200D01*
X159877143Y-127662200D02*
X159829524Y-127614580D01*
X159829524Y-127614580D02*
X159781905Y-127519342D01*
X159781905Y-127519342D02*
X159734286Y-127328866D01*
X159734286Y-127328866D02*
X159734286Y-127090771D01*
X159734286Y-127090771D02*
X159781905Y-126900295D01*
X159781905Y-126900295D02*
X159829524Y-126805057D01*
X159829524Y-126805057D02*
X159877143Y-126757438D01*
X159877143Y-126757438D02*
X159972381Y-126709819D01*
D12*
X159936666Y-129132149D02*
X159770000Y-128894054D01*
X159650952Y-129132149D02*
X159650952Y-128632149D01*
X159650952Y-128632149D02*
X159841428Y-128632149D01*
X159841428Y-128632149D02*
X159889047Y-128655959D01*
X159889047Y-128655959D02*
X159912857Y-128679768D01*
X159912857Y-128679768D02*
X159936666Y-128727387D01*
X159936666Y-128727387D02*
X159936666Y-128798816D01*
X159936666Y-128798816D02*
X159912857Y-128846435D01*
X159912857Y-128846435D02*
X159889047Y-128870244D01*
X159889047Y-128870244D02*
X159841428Y-128894054D01*
X159841428Y-128894054D02*
X159650952Y-128894054D01*
X160127143Y-128679768D02*
X160150952Y-128655959D01*
X160150952Y-128655959D02*
X160198571Y-128632149D01*
X160198571Y-128632149D02*
X160317619Y-128632149D01*
X160317619Y-128632149D02*
X160365238Y-128655959D01*
X160365238Y-128655959D02*
X160389047Y-128679768D01*
X160389047Y-128679768D02*
X160412857Y-128727387D01*
X160412857Y-128727387D02*
X160412857Y-128775006D01*
X160412857Y-128775006D02*
X160389047Y-128846435D01*
X160389047Y-128846435D02*
X160103333Y-129132149D01*
X160103333Y-129132149D02*
X160412857Y-129132149D01*
D11*
X170918571Y-108087200D02*
X171061428Y-108134819D01*
X171061428Y-108134819D02*
X171299523Y-108134819D01*
X171299523Y-108134819D02*
X171394761Y-108087200D01*
X171394761Y-108087200D02*
X171442380Y-108039580D01*
X171442380Y-108039580D02*
X171489999Y-107944342D01*
X171489999Y-107944342D02*
X171489999Y-107849104D01*
X171489999Y-107849104D02*
X171442380Y-107753866D01*
X171442380Y-107753866D02*
X171394761Y-107706247D01*
X171394761Y-107706247D02*
X171299523Y-107658628D01*
X171299523Y-107658628D02*
X171109047Y-107611009D01*
X171109047Y-107611009D02*
X171013809Y-107563390D01*
X171013809Y-107563390D02*
X170966190Y-107515771D01*
X170966190Y-107515771D02*
X170918571Y-107420533D01*
X170918571Y-107420533D02*
X170918571Y-107325295D01*
X170918571Y-107325295D02*
X170966190Y-107230057D01*
X170966190Y-107230057D02*
X171013809Y-107182438D01*
X171013809Y-107182438D02*
X171109047Y-107134819D01*
X171109047Y-107134819D02*
X171347142Y-107134819D01*
X171347142Y-107134819D02*
X171489999Y-107182438D01*
X171823333Y-107134819D02*
X172061428Y-108134819D01*
X172061428Y-108134819D02*
X172251904Y-107420533D01*
X172251904Y-107420533D02*
X172442380Y-108134819D01*
X172442380Y-108134819D02*
X172680476Y-107134819D01*
X172823333Y-108230057D02*
X173585237Y-108230057D01*
X173775714Y-108087200D02*
X173918571Y-108134819D01*
X173918571Y-108134819D02*
X174156666Y-108134819D01*
X174156666Y-108134819D02*
X174251904Y-108087200D01*
X174251904Y-108087200D02*
X174299523Y-108039580D01*
X174299523Y-108039580D02*
X174347142Y-107944342D01*
X174347142Y-107944342D02*
X174347142Y-107849104D01*
X174347142Y-107849104D02*
X174299523Y-107753866D01*
X174299523Y-107753866D02*
X174251904Y-107706247D01*
X174251904Y-107706247D02*
X174156666Y-107658628D01*
X174156666Y-107658628D02*
X173966190Y-107611009D01*
X173966190Y-107611009D02*
X173870952Y-107563390D01*
X173870952Y-107563390D02*
X173823333Y-107515771D01*
X173823333Y-107515771D02*
X173775714Y-107420533D01*
X173775714Y-107420533D02*
X173775714Y-107325295D01*
X173775714Y-107325295D02*
X173823333Y-107230057D01*
X173823333Y-107230057D02*
X173870952Y-107182438D01*
X173870952Y-107182438D02*
X173966190Y-107134819D01*
X173966190Y-107134819D02*
X174204285Y-107134819D01*
X174204285Y-107134819D02*
X174347142Y-107182438D01*
X174775714Y-108134819D02*
X174775714Y-107134819D01*
X174775714Y-107134819D02*
X175156666Y-107134819D01*
X175156666Y-107134819D02*
X175251904Y-107182438D01*
X175251904Y-107182438D02*
X175299523Y-107230057D01*
X175299523Y-107230057D02*
X175347142Y-107325295D01*
X175347142Y-107325295D02*
X175347142Y-107468152D01*
X175347142Y-107468152D02*
X175299523Y-107563390D01*
X175299523Y-107563390D02*
X175251904Y-107611009D01*
X175251904Y-107611009D02*
X175156666Y-107658628D01*
X175156666Y-107658628D02*
X174775714Y-107658628D01*
X175728095Y-108087200D02*
X175870952Y-108134819D01*
X175870952Y-108134819D02*
X176109047Y-108134819D01*
X176109047Y-108134819D02*
X176204285Y-108087200D01*
X176204285Y-108087200D02*
X176251904Y-108039580D01*
X176251904Y-108039580D02*
X176299523Y-107944342D01*
X176299523Y-107944342D02*
X176299523Y-107849104D01*
X176299523Y-107849104D02*
X176251904Y-107753866D01*
X176251904Y-107753866D02*
X176204285Y-107706247D01*
X176204285Y-107706247D02*
X176109047Y-107658628D01*
X176109047Y-107658628D02*
X175918571Y-107611009D01*
X175918571Y-107611009D02*
X175823333Y-107563390D01*
X175823333Y-107563390D02*
X175775714Y-107515771D01*
X175775714Y-107515771D02*
X175728095Y-107420533D01*
X175728095Y-107420533D02*
X175728095Y-107325295D01*
X175728095Y-107325295D02*
X175775714Y-107230057D01*
X175775714Y-107230057D02*
X175823333Y-107182438D01*
X175823333Y-107182438D02*
X175918571Y-107134819D01*
X175918571Y-107134819D02*
X176156666Y-107134819D01*
X176156666Y-107134819D02*
X176299523Y-107182438D01*
X176585238Y-107134819D02*
X177156666Y-107134819D01*
X176870952Y-108134819D02*
X176870952Y-107134819D01*
X172656667Y-109587200D02*
X172799524Y-109634819D01*
X172799524Y-109634819D02*
X173037619Y-109634819D01*
X173037619Y-109634819D02*
X173132857Y-109587200D01*
X173132857Y-109587200D02*
X173180476Y-109539580D01*
X173180476Y-109539580D02*
X173228095Y-109444342D01*
X173228095Y-109444342D02*
X173228095Y-109349104D01*
X173228095Y-109349104D02*
X173180476Y-109253866D01*
X173180476Y-109253866D02*
X173132857Y-109206247D01*
X173132857Y-109206247D02*
X173037619Y-109158628D01*
X173037619Y-109158628D02*
X172847143Y-109111009D01*
X172847143Y-109111009D02*
X172751905Y-109063390D01*
X172751905Y-109063390D02*
X172704286Y-109015771D01*
X172704286Y-109015771D02*
X172656667Y-108920533D01*
X172656667Y-108920533D02*
X172656667Y-108825295D01*
X172656667Y-108825295D02*
X172704286Y-108730057D01*
X172704286Y-108730057D02*
X172751905Y-108682438D01*
X172751905Y-108682438D02*
X172847143Y-108634819D01*
X172847143Y-108634819D02*
X173085238Y-108634819D01*
X173085238Y-108634819D02*
X173228095Y-108682438D01*
X173561429Y-108634819D02*
X173799524Y-109634819D01*
X173799524Y-109634819D02*
X173990000Y-108920533D01*
X173990000Y-108920533D02*
X174180476Y-109634819D01*
X174180476Y-109634819D02*
X174418572Y-108634819D01*
X175228095Y-108968152D02*
X175228095Y-109634819D01*
X174990000Y-108587200D02*
X174751905Y-109301485D01*
X174751905Y-109301485D02*
X175370952Y-109301485D01*
X155678571Y-108087200D02*
X155821428Y-108134819D01*
X155821428Y-108134819D02*
X156059523Y-108134819D01*
X156059523Y-108134819D02*
X156154761Y-108087200D01*
X156154761Y-108087200D02*
X156202380Y-108039580D01*
X156202380Y-108039580D02*
X156249999Y-107944342D01*
X156249999Y-107944342D02*
X156249999Y-107849104D01*
X156249999Y-107849104D02*
X156202380Y-107753866D01*
X156202380Y-107753866D02*
X156154761Y-107706247D01*
X156154761Y-107706247D02*
X156059523Y-107658628D01*
X156059523Y-107658628D02*
X155869047Y-107611009D01*
X155869047Y-107611009D02*
X155773809Y-107563390D01*
X155773809Y-107563390D02*
X155726190Y-107515771D01*
X155726190Y-107515771D02*
X155678571Y-107420533D01*
X155678571Y-107420533D02*
X155678571Y-107325295D01*
X155678571Y-107325295D02*
X155726190Y-107230057D01*
X155726190Y-107230057D02*
X155773809Y-107182438D01*
X155773809Y-107182438D02*
X155869047Y-107134819D01*
X155869047Y-107134819D02*
X156107142Y-107134819D01*
X156107142Y-107134819D02*
X156249999Y-107182438D01*
X156583333Y-107134819D02*
X156821428Y-108134819D01*
X156821428Y-108134819D02*
X157011904Y-107420533D01*
X157011904Y-107420533D02*
X157202380Y-108134819D01*
X157202380Y-108134819D02*
X157440476Y-107134819D01*
X157583333Y-108230057D02*
X158345237Y-108230057D01*
X158535714Y-108087200D02*
X158678571Y-108134819D01*
X158678571Y-108134819D02*
X158916666Y-108134819D01*
X158916666Y-108134819D02*
X159011904Y-108087200D01*
X159011904Y-108087200D02*
X159059523Y-108039580D01*
X159059523Y-108039580D02*
X159107142Y-107944342D01*
X159107142Y-107944342D02*
X159107142Y-107849104D01*
X159107142Y-107849104D02*
X159059523Y-107753866D01*
X159059523Y-107753866D02*
X159011904Y-107706247D01*
X159011904Y-107706247D02*
X158916666Y-107658628D01*
X158916666Y-107658628D02*
X158726190Y-107611009D01*
X158726190Y-107611009D02*
X158630952Y-107563390D01*
X158630952Y-107563390D02*
X158583333Y-107515771D01*
X158583333Y-107515771D02*
X158535714Y-107420533D01*
X158535714Y-107420533D02*
X158535714Y-107325295D01*
X158535714Y-107325295D02*
X158583333Y-107230057D01*
X158583333Y-107230057D02*
X158630952Y-107182438D01*
X158630952Y-107182438D02*
X158726190Y-107134819D01*
X158726190Y-107134819D02*
X158964285Y-107134819D01*
X158964285Y-107134819D02*
X159107142Y-107182438D01*
X159535714Y-108134819D02*
X159535714Y-107134819D01*
X159535714Y-107134819D02*
X159916666Y-107134819D01*
X159916666Y-107134819D02*
X160011904Y-107182438D01*
X160011904Y-107182438D02*
X160059523Y-107230057D01*
X160059523Y-107230057D02*
X160107142Y-107325295D01*
X160107142Y-107325295D02*
X160107142Y-107468152D01*
X160107142Y-107468152D02*
X160059523Y-107563390D01*
X160059523Y-107563390D02*
X160011904Y-107611009D01*
X160011904Y-107611009D02*
X159916666Y-107658628D01*
X159916666Y-107658628D02*
X159535714Y-107658628D01*
X160488095Y-108087200D02*
X160630952Y-108134819D01*
X160630952Y-108134819D02*
X160869047Y-108134819D01*
X160869047Y-108134819D02*
X160964285Y-108087200D01*
X160964285Y-108087200D02*
X161011904Y-108039580D01*
X161011904Y-108039580D02*
X161059523Y-107944342D01*
X161059523Y-107944342D02*
X161059523Y-107849104D01*
X161059523Y-107849104D02*
X161011904Y-107753866D01*
X161011904Y-107753866D02*
X160964285Y-107706247D01*
X160964285Y-107706247D02*
X160869047Y-107658628D01*
X160869047Y-107658628D02*
X160678571Y-107611009D01*
X160678571Y-107611009D02*
X160583333Y-107563390D01*
X160583333Y-107563390D02*
X160535714Y-107515771D01*
X160535714Y-107515771D02*
X160488095Y-107420533D01*
X160488095Y-107420533D02*
X160488095Y-107325295D01*
X160488095Y-107325295D02*
X160535714Y-107230057D01*
X160535714Y-107230057D02*
X160583333Y-107182438D01*
X160583333Y-107182438D02*
X160678571Y-107134819D01*
X160678571Y-107134819D02*
X160916666Y-107134819D01*
X160916666Y-107134819D02*
X161059523Y-107182438D01*
X161345238Y-107134819D02*
X161916666Y-107134819D01*
X161630952Y-108134819D02*
X161630952Y-107134819D01*
X157416667Y-109587200D02*
X157559524Y-109634819D01*
X157559524Y-109634819D02*
X157797619Y-109634819D01*
X157797619Y-109634819D02*
X157892857Y-109587200D01*
X157892857Y-109587200D02*
X157940476Y-109539580D01*
X157940476Y-109539580D02*
X157988095Y-109444342D01*
X157988095Y-109444342D02*
X157988095Y-109349104D01*
X157988095Y-109349104D02*
X157940476Y-109253866D01*
X157940476Y-109253866D02*
X157892857Y-109206247D01*
X157892857Y-109206247D02*
X157797619Y-109158628D01*
X157797619Y-109158628D02*
X157607143Y-109111009D01*
X157607143Y-109111009D02*
X157511905Y-109063390D01*
X157511905Y-109063390D02*
X157464286Y-109015771D01*
X157464286Y-109015771D02*
X157416667Y-108920533D01*
X157416667Y-108920533D02*
X157416667Y-108825295D01*
X157416667Y-108825295D02*
X157464286Y-108730057D01*
X157464286Y-108730057D02*
X157511905Y-108682438D01*
X157511905Y-108682438D02*
X157607143Y-108634819D01*
X157607143Y-108634819D02*
X157845238Y-108634819D01*
X157845238Y-108634819D02*
X157988095Y-108682438D01*
X158321429Y-108634819D02*
X158559524Y-109634819D01*
X158559524Y-109634819D02*
X158750000Y-108920533D01*
X158750000Y-108920533D02*
X158940476Y-109634819D01*
X158940476Y-109634819D02*
X159178572Y-108634819D01*
X159511905Y-108730057D02*
X159559524Y-108682438D01*
X159559524Y-108682438D02*
X159654762Y-108634819D01*
X159654762Y-108634819D02*
X159892857Y-108634819D01*
X159892857Y-108634819D02*
X159988095Y-108682438D01*
X159988095Y-108682438D02*
X160035714Y-108730057D01*
X160035714Y-108730057D02*
X160083333Y-108825295D01*
X160083333Y-108825295D02*
X160083333Y-108920533D01*
X160083333Y-108920533D02*
X160035714Y-109063390D01*
X160035714Y-109063390D02*
X159464286Y-109634819D01*
X159464286Y-109634819D02*
X160083333Y-109634819D01*
X178538571Y-108087200D02*
X178681428Y-108134819D01*
X178681428Y-108134819D02*
X178919523Y-108134819D01*
X178919523Y-108134819D02*
X179014761Y-108087200D01*
X179014761Y-108087200D02*
X179062380Y-108039580D01*
X179062380Y-108039580D02*
X179109999Y-107944342D01*
X179109999Y-107944342D02*
X179109999Y-107849104D01*
X179109999Y-107849104D02*
X179062380Y-107753866D01*
X179062380Y-107753866D02*
X179014761Y-107706247D01*
X179014761Y-107706247D02*
X178919523Y-107658628D01*
X178919523Y-107658628D02*
X178729047Y-107611009D01*
X178729047Y-107611009D02*
X178633809Y-107563390D01*
X178633809Y-107563390D02*
X178586190Y-107515771D01*
X178586190Y-107515771D02*
X178538571Y-107420533D01*
X178538571Y-107420533D02*
X178538571Y-107325295D01*
X178538571Y-107325295D02*
X178586190Y-107230057D01*
X178586190Y-107230057D02*
X178633809Y-107182438D01*
X178633809Y-107182438D02*
X178729047Y-107134819D01*
X178729047Y-107134819D02*
X178967142Y-107134819D01*
X178967142Y-107134819D02*
X179109999Y-107182438D01*
X179443333Y-107134819D02*
X179681428Y-108134819D01*
X179681428Y-108134819D02*
X179871904Y-107420533D01*
X179871904Y-107420533D02*
X180062380Y-108134819D01*
X180062380Y-108134819D02*
X180300476Y-107134819D01*
X180443333Y-108230057D02*
X181205237Y-108230057D01*
X181395714Y-108087200D02*
X181538571Y-108134819D01*
X181538571Y-108134819D02*
X181776666Y-108134819D01*
X181776666Y-108134819D02*
X181871904Y-108087200D01*
X181871904Y-108087200D02*
X181919523Y-108039580D01*
X181919523Y-108039580D02*
X181967142Y-107944342D01*
X181967142Y-107944342D02*
X181967142Y-107849104D01*
X181967142Y-107849104D02*
X181919523Y-107753866D01*
X181919523Y-107753866D02*
X181871904Y-107706247D01*
X181871904Y-107706247D02*
X181776666Y-107658628D01*
X181776666Y-107658628D02*
X181586190Y-107611009D01*
X181586190Y-107611009D02*
X181490952Y-107563390D01*
X181490952Y-107563390D02*
X181443333Y-107515771D01*
X181443333Y-107515771D02*
X181395714Y-107420533D01*
X181395714Y-107420533D02*
X181395714Y-107325295D01*
X181395714Y-107325295D02*
X181443333Y-107230057D01*
X181443333Y-107230057D02*
X181490952Y-107182438D01*
X181490952Y-107182438D02*
X181586190Y-107134819D01*
X181586190Y-107134819D02*
X181824285Y-107134819D01*
X181824285Y-107134819D02*
X181967142Y-107182438D01*
X182395714Y-108134819D02*
X182395714Y-107134819D01*
X182395714Y-107134819D02*
X182776666Y-107134819D01*
X182776666Y-107134819D02*
X182871904Y-107182438D01*
X182871904Y-107182438D02*
X182919523Y-107230057D01*
X182919523Y-107230057D02*
X182967142Y-107325295D01*
X182967142Y-107325295D02*
X182967142Y-107468152D01*
X182967142Y-107468152D02*
X182919523Y-107563390D01*
X182919523Y-107563390D02*
X182871904Y-107611009D01*
X182871904Y-107611009D02*
X182776666Y-107658628D01*
X182776666Y-107658628D02*
X182395714Y-107658628D01*
X183348095Y-108087200D02*
X183490952Y-108134819D01*
X183490952Y-108134819D02*
X183729047Y-108134819D01*
X183729047Y-108134819D02*
X183824285Y-108087200D01*
X183824285Y-108087200D02*
X183871904Y-108039580D01*
X183871904Y-108039580D02*
X183919523Y-107944342D01*
X183919523Y-107944342D02*
X183919523Y-107849104D01*
X183919523Y-107849104D02*
X183871904Y-107753866D01*
X183871904Y-107753866D02*
X183824285Y-107706247D01*
X183824285Y-107706247D02*
X183729047Y-107658628D01*
X183729047Y-107658628D02*
X183538571Y-107611009D01*
X183538571Y-107611009D02*
X183443333Y-107563390D01*
X183443333Y-107563390D02*
X183395714Y-107515771D01*
X183395714Y-107515771D02*
X183348095Y-107420533D01*
X183348095Y-107420533D02*
X183348095Y-107325295D01*
X183348095Y-107325295D02*
X183395714Y-107230057D01*
X183395714Y-107230057D02*
X183443333Y-107182438D01*
X183443333Y-107182438D02*
X183538571Y-107134819D01*
X183538571Y-107134819D02*
X183776666Y-107134819D01*
X183776666Y-107134819D02*
X183919523Y-107182438D01*
X184205238Y-107134819D02*
X184776666Y-107134819D01*
X184490952Y-108134819D02*
X184490952Y-107134819D01*
X180276667Y-109587200D02*
X180419524Y-109634819D01*
X180419524Y-109634819D02*
X180657619Y-109634819D01*
X180657619Y-109634819D02*
X180752857Y-109587200D01*
X180752857Y-109587200D02*
X180800476Y-109539580D01*
X180800476Y-109539580D02*
X180848095Y-109444342D01*
X180848095Y-109444342D02*
X180848095Y-109349104D01*
X180848095Y-109349104D02*
X180800476Y-109253866D01*
X180800476Y-109253866D02*
X180752857Y-109206247D01*
X180752857Y-109206247D02*
X180657619Y-109158628D01*
X180657619Y-109158628D02*
X180467143Y-109111009D01*
X180467143Y-109111009D02*
X180371905Y-109063390D01*
X180371905Y-109063390D02*
X180324286Y-109015771D01*
X180324286Y-109015771D02*
X180276667Y-108920533D01*
X180276667Y-108920533D02*
X180276667Y-108825295D01*
X180276667Y-108825295D02*
X180324286Y-108730057D01*
X180324286Y-108730057D02*
X180371905Y-108682438D01*
X180371905Y-108682438D02*
X180467143Y-108634819D01*
X180467143Y-108634819D02*
X180705238Y-108634819D01*
X180705238Y-108634819D02*
X180848095Y-108682438D01*
X181181429Y-108634819D02*
X181419524Y-109634819D01*
X181419524Y-109634819D02*
X181610000Y-108920533D01*
X181610000Y-108920533D02*
X181800476Y-109634819D01*
X181800476Y-109634819D02*
X182038572Y-108634819D01*
X182895714Y-108634819D02*
X182419524Y-108634819D01*
X182419524Y-108634819D02*
X182371905Y-109111009D01*
X182371905Y-109111009D02*
X182419524Y-109063390D01*
X182419524Y-109063390D02*
X182514762Y-109015771D01*
X182514762Y-109015771D02*
X182752857Y-109015771D01*
X182752857Y-109015771D02*
X182848095Y-109063390D01*
X182848095Y-109063390D02*
X182895714Y-109111009D01*
X182895714Y-109111009D02*
X182943333Y-109206247D01*
X182943333Y-109206247D02*
X182943333Y-109444342D01*
X182943333Y-109444342D02*
X182895714Y-109539580D01*
X182895714Y-109539580D02*
X182848095Y-109587200D01*
X182848095Y-109587200D02*
X182752857Y-109634819D01*
X182752857Y-109634819D02*
X182514762Y-109634819D01*
X182514762Y-109634819D02*
X182419524Y-109587200D01*
X182419524Y-109587200D02*
X182371905Y-109539580D01*
X159972381Y-130519819D02*
X160067619Y-130519819D01*
X160067619Y-130519819D02*
X160162857Y-130567438D01*
X160162857Y-130567438D02*
X160210476Y-130615057D01*
X160210476Y-130615057D02*
X160258095Y-130710295D01*
X160258095Y-130710295D02*
X160305714Y-130900771D01*
X160305714Y-130900771D02*
X160305714Y-131138866D01*
X160305714Y-131138866D02*
X160258095Y-131329342D01*
X160258095Y-131329342D02*
X160210476Y-131424580D01*
X160210476Y-131424580D02*
X160162857Y-131472200D01*
X160162857Y-131472200D02*
X160067619Y-131519819D01*
X160067619Y-131519819D02*
X159972381Y-131519819D01*
X159972381Y-131519819D02*
X159877143Y-131472200D01*
X159877143Y-131472200D02*
X159829524Y-131424580D01*
X159829524Y-131424580D02*
X159781905Y-131329342D01*
X159781905Y-131329342D02*
X159734286Y-131138866D01*
X159734286Y-131138866D02*
X159734286Y-130900771D01*
X159734286Y-130900771D02*
X159781905Y-130710295D01*
X159781905Y-130710295D02*
X159829524Y-130615057D01*
X159829524Y-130615057D02*
X159877143Y-130567438D01*
X159877143Y-130567438D02*
X159972381Y-130519819D01*
D12*
X159936666Y-132942149D02*
X159770000Y-132704054D01*
X159650952Y-132942149D02*
X159650952Y-132442149D01*
X159650952Y-132442149D02*
X159841428Y-132442149D01*
X159841428Y-132442149D02*
X159889047Y-132465959D01*
X159889047Y-132465959D02*
X159912857Y-132489768D01*
X159912857Y-132489768D02*
X159936666Y-132537387D01*
X159936666Y-132537387D02*
X159936666Y-132608816D01*
X159936666Y-132608816D02*
X159912857Y-132656435D01*
X159912857Y-132656435D02*
X159889047Y-132680244D01*
X159889047Y-132680244D02*
X159841428Y-132704054D01*
X159841428Y-132704054D02*
X159650952Y-132704054D01*
X160103333Y-132442149D02*
X160412857Y-132442149D01*
X160412857Y-132442149D02*
X160246190Y-132632625D01*
X160246190Y-132632625D02*
X160317619Y-132632625D01*
X160317619Y-132632625D02*
X160365238Y-132656435D01*
X160365238Y-132656435D02*
X160389047Y-132680244D01*
X160389047Y-132680244D02*
X160412857Y-132727863D01*
X160412857Y-132727863D02*
X160412857Y-132846911D01*
X160412857Y-132846911D02*
X160389047Y-132894530D01*
X160389047Y-132894530D02*
X160365238Y-132918340D01*
X160365238Y-132918340D02*
X160317619Y-132942149D01*
X160317619Y-132942149D02*
X160174762Y-132942149D01*
X160174762Y-132942149D02*
X160127143Y-132918340D01*
X160127143Y-132918340D02*
X160103333Y-132894530D01*
D11*
X161821428Y-122417800D02*
X161678571Y-122370180D01*
X161678571Y-122370180D02*
X161440476Y-122370180D01*
X161440476Y-122370180D02*
X161345238Y-122417800D01*
X161345238Y-122417800D02*
X161297619Y-122465419D01*
X161297619Y-122465419D02*
X161250000Y-122560657D01*
X161250000Y-122560657D02*
X161250000Y-122655895D01*
X161250000Y-122655895D02*
X161297619Y-122751133D01*
X161297619Y-122751133D02*
X161345238Y-122798752D01*
X161345238Y-122798752D02*
X161440476Y-122846371D01*
X161440476Y-122846371D02*
X161630952Y-122893990D01*
X161630952Y-122893990D02*
X161726190Y-122941609D01*
X161726190Y-122941609D02*
X161773809Y-122989228D01*
X161773809Y-122989228D02*
X161821428Y-123084466D01*
X161821428Y-123084466D02*
X161821428Y-123179704D01*
X161821428Y-123179704D02*
X161773809Y-123274942D01*
X161773809Y-123274942D02*
X161726190Y-123322561D01*
X161726190Y-123322561D02*
X161630952Y-123370180D01*
X161630952Y-123370180D02*
X161392857Y-123370180D01*
X161392857Y-123370180D02*
X161250000Y-123322561D01*
X160916666Y-123370180D02*
X160678571Y-122370180D01*
X160678571Y-122370180D02*
X160488095Y-123084466D01*
X160488095Y-123084466D02*
X160297619Y-122370180D01*
X160297619Y-122370180D02*
X160059524Y-123370180D01*
X159916667Y-122274942D02*
X159154762Y-122274942D01*
X158964285Y-122417800D02*
X158821428Y-122370180D01*
X158821428Y-122370180D02*
X158583333Y-122370180D01*
X158583333Y-122370180D02*
X158488095Y-122417800D01*
X158488095Y-122417800D02*
X158440476Y-122465419D01*
X158440476Y-122465419D02*
X158392857Y-122560657D01*
X158392857Y-122560657D02*
X158392857Y-122655895D01*
X158392857Y-122655895D02*
X158440476Y-122751133D01*
X158440476Y-122751133D02*
X158488095Y-122798752D01*
X158488095Y-122798752D02*
X158583333Y-122846371D01*
X158583333Y-122846371D02*
X158773809Y-122893990D01*
X158773809Y-122893990D02*
X158869047Y-122941609D01*
X158869047Y-122941609D02*
X158916666Y-122989228D01*
X158916666Y-122989228D02*
X158964285Y-123084466D01*
X158964285Y-123084466D02*
X158964285Y-123179704D01*
X158964285Y-123179704D02*
X158916666Y-123274942D01*
X158916666Y-123274942D02*
X158869047Y-123322561D01*
X158869047Y-123322561D02*
X158773809Y-123370180D01*
X158773809Y-123370180D02*
X158535714Y-123370180D01*
X158535714Y-123370180D02*
X158392857Y-123322561D01*
X157964285Y-122370180D02*
X157964285Y-123370180D01*
X157964285Y-123370180D02*
X157583333Y-123370180D01*
X157583333Y-123370180D02*
X157488095Y-123322561D01*
X157488095Y-123322561D02*
X157440476Y-123274942D01*
X157440476Y-123274942D02*
X157392857Y-123179704D01*
X157392857Y-123179704D02*
X157392857Y-123036847D01*
X157392857Y-123036847D02*
X157440476Y-122941609D01*
X157440476Y-122941609D02*
X157488095Y-122893990D01*
X157488095Y-122893990D02*
X157583333Y-122846371D01*
X157583333Y-122846371D02*
X157964285Y-122846371D01*
X157011904Y-122417800D02*
X156869047Y-122370180D01*
X156869047Y-122370180D02*
X156630952Y-122370180D01*
X156630952Y-122370180D02*
X156535714Y-122417800D01*
X156535714Y-122417800D02*
X156488095Y-122465419D01*
X156488095Y-122465419D02*
X156440476Y-122560657D01*
X156440476Y-122560657D02*
X156440476Y-122655895D01*
X156440476Y-122655895D02*
X156488095Y-122751133D01*
X156488095Y-122751133D02*
X156535714Y-122798752D01*
X156535714Y-122798752D02*
X156630952Y-122846371D01*
X156630952Y-122846371D02*
X156821428Y-122893990D01*
X156821428Y-122893990D02*
X156916666Y-122941609D01*
X156916666Y-122941609D02*
X156964285Y-122989228D01*
X156964285Y-122989228D02*
X157011904Y-123084466D01*
X157011904Y-123084466D02*
X157011904Y-123179704D01*
X157011904Y-123179704D02*
X156964285Y-123274942D01*
X156964285Y-123274942D02*
X156916666Y-123322561D01*
X156916666Y-123322561D02*
X156821428Y-123370180D01*
X156821428Y-123370180D02*
X156583333Y-123370180D01*
X156583333Y-123370180D02*
X156440476Y-123322561D01*
X156154761Y-123370180D02*
X155583333Y-123370180D01*
X155869047Y-122370180D02*
X155869047Y-123370180D01*
X160559523Y-120917800D02*
X160416666Y-120870180D01*
X160416666Y-120870180D02*
X160178571Y-120870180D01*
X160178571Y-120870180D02*
X160083333Y-120917800D01*
X160083333Y-120917800D02*
X160035714Y-120965419D01*
X160035714Y-120965419D02*
X159988095Y-121060657D01*
X159988095Y-121060657D02*
X159988095Y-121155895D01*
X159988095Y-121155895D02*
X160035714Y-121251133D01*
X160035714Y-121251133D02*
X160083333Y-121298752D01*
X160083333Y-121298752D02*
X160178571Y-121346371D01*
X160178571Y-121346371D02*
X160369047Y-121393990D01*
X160369047Y-121393990D02*
X160464285Y-121441609D01*
X160464285Y-121441609D02*
X160511904Y-121489228D01*
X160511904Y-121489228D02*
X160559523Y-121584466D01*
X160559523Y-121584466D02*
X160559523Y-121679704D01*
X160559523Y-121679704D02*
X160511904Y-121774942D01*
X160511904Y-121774942D02*
X160464285Y-121822561D01*
X160464285Y-121822561D02*
X160369047Y-121870180D01*
X160369047Y-121870180D02*
X160130952Y-121870180D01*
X160130952Y-121870180D02*
X159988095Y-121822561D01*
X159654761Y-121870180D02*
X159416666Y-120870180D01*
X159416666Y-120870180D02*
X159226190Y-121584466D01*
X159226190Y-121584466D02*
X159035714Y-120870180D01*
X159035714Y-120870180D02*
X158797619Y-121870180D01*
X157892857Y-120870180D02*
X158464285Y-120870180D01*
X158178571Y-120870180D02*
X158178571Y-121870180D01*
X158178571Y-121870180D02*
X158273809Y-121727323D01*
X158273809Y-121727323D02*
X158369047Y-121632085D01*
X158369047Y-121632085D02*
X158464285Y-121584466D01*
X157273809Y-121870180D02*
X157178571Y-121870180D01*
X157178571Y-121870180D02*
X157083333Y-121822561D01*
X157083333Y-121822561D02*
X157035714Y-121774942D01*
X157035714Y-121774942D02*
X156988095Y-121679704D01*
X156988095Y-121679704D02*
X156940476Y-121489228D01*
X156940476Y-121489228D02*
X156940476Y-121251133D01*
X156940476Y-121251133D02*
X156988095Y-121060657D01*
X156988095Y-121060657D02*
X157035714Y-120965419D01*
X157035714Y-120965419D02*
X157083333Y-120917800D01*
X157083333Y-120917800D02*
X157178571Y-120870180D01*
X157178571Y-120870180D02*
X157273809Y-120870180D01*
X157273809Y-120870180D02*
X157369047Y-120917800D01*
X157369047Y-120917800D02*
X157416666Y-120965419D01*
X157416666Y-120965419D02*
X157464285Y-121060657D01*
X157464285Y-121060657D02*
X157511904Y-121251133D01*
X157511904Y-121251133D02*
X157511904Y-121489228D01*
X157511904Y-121489228D02*
X157464285Y-121679704D01*
X157464285Y-121679704D02*
X157416666Y-121774942D01*
X157416666Y-121774942D02*
X157369047Y-121822561D01*
X157369047Y-121822561D02*
X157273809Y-121870180D01*
X192301428Y-122417800D02*
X192158571Y-122370180D01*
X192158571Y-122370180D02*
X191920476Y-122370180D01*
X191920476Y-122370180D02*
X191825238Y-122417800D01*
X191825238Y-122417800D02*
X191777619Y-122465419D01*
X191777619Y-122465419D02*
X191730000Y-122560657D01*
X191730000Y-122560657D02*
X191730000Y-122655895D01*
X191730000Y-122655895D02*
X191777619Y-122751133D01*
X191777619Y-122751133D02*
X191825238Y-122798752D01*
X191825238Y-122798752D02*
X191920476Y-122846371D01*
X191920476Y-122846371D02*
X192110952Y-122893990D01*
X192110952Y-122893990D02*
X192206190Y-122941609D01*
X192206190Y-122941609D02*
X192253809Y-122989228D01*
X192253809Y-122989228D02*
X192301428Y-123084466D01*
X192301428Y-123084466D02*
X192301428Y-123179704D01*
X192301428Y-123179704D02*
X192253809Y-123274942D01*
X192253809Y-123274942D02*
X192206190Y-123322561D01*
X192206190Y-123322561D02*
X192110952Y-123370180D01*
X192110952Y-123370180D02*
X191872857Y-123370180D01*
X191872857Y-123370180D02*
X191730000Y-123322561D01*
X191396666Y-123370180D02*
X191158571Y-122370180D01*
X191158571Y-122370180D02*
X190968095Y-123084466D01*
X190968095Y-123084466D02*
X190777619Y-122370180D01*
X190777619Y-122370180D02*
X190539524Y-123370180D01*
X190396667Y-122274942D02*
X189634762Y-122274942D01*
X189444285Y-122417800D02*
X189301428Y-122370180D01*
X189301428Y-122370180D02*
X189063333Y-122370180D01*
X189063333Y-122370180D02*
X188968095Y-122417800D01*
X188968095Y-122417800D02*
X188920476Y-122465419D01*
X188920476Y-122465419D02*
X188872857Y-122560657D01*
X188872857Y-122560657D02*
X188872857Y-122655895D01*
X188872857Y-122655895D02*
X188920476Y-122751133D01*
X188920476Y-122751133D02*
X188968095Y-122798752D01*
X188968095Y-122798752D02*
X189063333Y-122846371D01*
X189063333Y-122846371D02*
X189253809Y-122893990D01*
X189253809Y-122893990D02*
X189349047Y-122941609D01*
X189349047Y-122941609D02*
X189396666Y-122989228D01*
X189396666Y-122989228D02*
X189444285Y-123084466D01*
X189444285Y-123084466D02*
X189444285Y-123179704D01*
X189444285Y-123179704D02*
X189396666Y-123274942D01*
X189396666Y-123274942D02*
X189349047Y-123322561D01*
X189349047Y-123322561D02*
X189253809Y-123370180D01*
X189253809Y-123370180D02*
X189015714Y-123370180D01*
X189015714Y-123370180D02*
X188872857Y-123322561D01*
X188444285Y-122370180D02*
X188444285Y-123370180D01*
X188444285Y-123370180D02*
X188063333Y-123370180D01*
X188063333Y-123370180D02*
X187968095Y-123322561D01*
X187968095Y-123322561D02*
X187920476Y-123274942D01*
X187920476Y-123274942D02*
X187872857Y-123179704D01*
X187872857Y-123179704D02*
X187872857Y-123036847D01*
X187872857Y-123036847D02*
X187920476Y-122941609D01*
X187920476Y-122941609D02*
X187968095Y-122893990D01*
X187968095Y-122893990D02*
X188063333Y-122846371D01*
X188063333Y-122846371D02*
X188444285Y-122846371D01*
X187491904Y-122417800D02*
X187349047Y-122370180D01*
X187349047Y-122370180D02*
X187110952Y-122370180D01*
X187110952Y-122370180D02*
X187015714Y-122417800D01*
X187015714Y-122417800D02*
X186968095Y-122465419D01*
X186968095Y-122465419D02*
X186920476Y-122560657D01*
X186920476Y-122560657D02*
X186920476Y-122655895D01*
X186920476Y-122655895D02*
X186968095Y-122751133D01*
X186968095Y-122751133D02*
X187015714Y-122798752D01*
X187015714Y-122798752D02*
X187110952Y-122846371D01*
X187110952Y-122846371D02*
X187301428Y-122893990D01*
X187301428Y-122893990D02*
X187396666Y-122941609D01*
X187396666Y-122941609D02*
X187444285Y-122989228D01*
X187444285Y-122989228D02*
X187491904Y-123084466D01*
X187491904Y-123084466D02*
X187491904Y-123179704D01*
X187491904Y-123179704D02*
X187444285Y-123274942D01*
X187444285Y-123274942D02*
X187396666Y-123322561D01*
X187396666Y-123322561D02*
X187301428Y-123370180D01*
X187301428Y-123370180D02*
X187063333Y-123370180D01*
X187063333Y-123370180D02*
X186920476Y-123322561D01*
X186634761Y-123370180D02*
X186063333Y-123370180D01*
X186349047Y-122370180D02*
X186349047Y-123370180D01*
X191039523Y-120917800D02*
X190896666Y-120870180D01*
X190896666Y-120870180D02*
X190658571Y-120870180D01*
X190658571Y-120870180D02*
X190563333Y-120917800D01*
X190563333Y-120917800D02*
X190515714Y-120965419D01*
X190515714Y-120965419D02*
X190468095Y-121060657D01*
X190468095Y-121060657D02*
X190468095Y-121155895D01*
X190468095Y-121155895D02*
X190515714Y-121251133D01*
X190515714Y-121251133D02*
X190563333Y-121298752D01*
X190563333Y-121298752D02*
X190658571Y-121346371D01*
X190658571Y-121346371D02*
X190849047Y-121393990D01*
X190849047Y-121393990D02*
X190944285Y-121441609D01*
X190944285Y-121441609D02*
X190991904Y-121489228D01*
X190991904Y-121489228D02*
X191039523Y-121584466D01*
X191039523Y-121584466D02*
X191039523Y-121679704D01*
X191039523Y-121679704D02*
X190991904Y-121774942D01*
X190991904Y-121774942D02*
X190944285Y-121822561D01*
X190944285Y-121822561D02*
X190849047Y-121870180D01*
X190849047Y-121870180D02*
X190610952Y-121870180D01*
X190610952Y-121870180D02*
X190468095Y-121822561D01*
X190134761Y-121870180D02*
X189896666Y-120870180D01*
X189896666Y-120870180D02*
X189706190Y-121584466D01*
X189706190Y-121584466D02*
X189515714Y-120870180D01*
X189515714Y-120870180D02*
X189277619Y-121870180D01*
X188372857Y-120870180D02*
X188944285Y-120870180D01*
X188658571Y-120870180D02*
X188658571Y-121870180D01*
X188658571Y-121870180D02*
X188753809Y-121727323D01*
X188753809Y-121727323D02*
X188849047Y-121632085D01*
X188849047Y-121632085D02*
X188944285Y-121584466D01*
X187515714Y-121536847D02*
X187515714Y-120870180D01*
X187753809Y-121917800D02*
X187991904Y-121203514D01*
X187991904Y-121203514D02*
X187372857Y-121203514D01*
X163298571Y-108087200D02*
X163441428Y-108134819D01*
X163441428Y-108134819D02*
X163679523Y-108134819D01*
X163679523Y-108134819D02*
X163774761Y-108087200D01*
X163774761Y-108087200D02*
X163822380Y-108039580D01*
X163822380Y-108039580D02*
X163869999Y-107944342D01*
X163869999Y-107944342D02*
X163869999Y-107849104D01*
X163869999Y-107849104D02*
X163822380Y-107753866D01*
X163822380Y-107753866D02*
X163774761Y-107706247D01*
X163774761Y-107706247D02*
X163679523Y-107658628D01*
X163679523Y-107658628D02*
X163489047Y-107611009D01*
X163489047Y-107611009D02*
X163393809Y-107563390D01*
X163393809Y-107563390D02*
X163346190Y-107515771D01*
X163346190Y-107515771D02*
X163298571Y-107420533D01*
X163298571Y-107420533D02*
X163298571Y-107325295D01*
X163298571Y-107325295D02*
X163346190Y-107230057D01*
X163346190Y-107230057D02*
X163393809Y-107182438D01*
X163393809Y-107182438D02*
X163489047Y-107134819D01*
X163489047Y-107134819D02*
X163727142Y-107134819D01*
X163727142Y-107134819D02*
X163869999Y-107182438D01*
X164203333Y-107134819D02*
X164441428Y-108134819D01*
X164441428Y-108134819D02*
X164631904Y-107420533D01*
X164631904Y-107420533D02*
X164822380Y-108134819D01*
X164822380Y-108134819D02*
X165060476Y-107134819D01*
X165203333Y-108230057D02*
X165965237Y-108230057D01*
X166155714Y-108087200D02*
X166298571Y-108134819D01*
X166298571Y-108134819D02*
X166536666Y-108134819D01*
X166536666Y-108134819D02*
X166631904Y-108087200D01*
X166631904Y-108087200D02*
X166679523Y-108039580D01*
X166679523Y-108039580D02*
X166727142Y-107944342D01*
X166727142Y-107944342D02*
X166727142Y-107849104D01*
X166727142Y-107849104D02*
X166679523Y-107753866D01*
X166679523Y-107753866D02*
X166631904Y-107706247D01*
X166631904Y-107706247D02*
X166536666Y-107658628D01*
X166536666Y-107658628D02*
X166346190Y-107611009D01*
X166346190Y-107611009D02*
X166250952Y-107563390D01*
X166250952Y-107563390D02*
X166203333Y-107515771D01*
X166203333Y-107515771D02*
X166155714Y-107420533D01*
X166155714Y-107420533D02*
X166155714Y-107325295D01*
X166155714Y-107325295D02*
X166203333Y-107230057D01*
X166203333Y-107230057D02*
X166250952Y-107182438D01*
X166250952Y-107182438D02*
X166346190Y-107134819D01*
X166346190Y-107134819D02*
X166584285Y-107134819D01*
X166584285Y-107134819D02*
X166727142Y-107182438D01*
X167155714Y-108134819D02*
X167155714Y-107134819D01*
X167155714Y-107134819D02*
X167536666Y-107134819D01*
X167536666Y-107134819D02*
X167631904Y-107182438D01*
X167631904Y-107182438D02*
X167679523Y-107230057D01*
X167679523Y-107230057D02*
X167727142Y-107325295D01*
X167727142Y-107325295D02*
X167727142Y-107468152D01*
X167727142Y-107468152D02*
X167679523Y-107563390D01*
X167679523Y-107563390D02*
X167631904Y-107611009D01*
X167631904Y-107611009D02*
X167536666Y-107658628D01*
X167536666Y-107658628D02*
X167155714Y-107658628D01*
X168108095Y-108087200D02*
X168250952Y-108134819D01*
X168250952Y-108134819D02*
X168489047Y-108134819D01*
X168489047Y-108134819D02*
X168584285Y-108087200D01*
X168584285Y-108087200D02*
X168631904Y-108039580D01*
X168631904Y-108039580D02*
X168679523Y-107944342D01*
X168679523Y-107944342D02*
X168679523Y-107849104D01*
X168679523Y-107849104D02*
X168631904Y-107753866D01*
X168631904Y-107753866D02*
X168584285Y-107706247D01*
X168584285Y-107706247D02*
X168489047Y-107658628D01*
X168489047Y-107658628D02*
X168298571Y-107611009D01*
X168298571Y-107611009D02*
X168203333Y-107563390D01*
X168203333Y-107563390D02*
X168155714Y-107515771D01*
X168155714Y-107515771D02*
X168108095Y-107420533D01*
X168108095Y-107420533D02*
X168108095Y-107325295D01*
X168108095Y-107325295D02*
X168155714Y-107230057D01*
X168155714Y-107230057D02*
X168203333Y-107182438D01*
X168203333Y-107182438D02*
X168298571Y-107134819D01*
X168298571Y-107134819D02*
X168536666Y-107134819D01*
X168536666Y-107134819D02*
X168679523Y-107182438D01*
X168965238Y-107134819D02*
X169536666Y-107134819D01*
X169250952Y-108134819D02*
X169250952Y-107134819D01*
X165036667Y-109587200D02*
X165179524Y-109634819D01*
X165179524Y-109634819D02*
X165417619Y-109634819D01*
X165417619Y-109634819D02*
X165512857Y-109587200D01*
X165512857Y-109587200D02*
X165560476Y-109539580D01*
X165560476Y-109539580D02*
X165608095Y-109444342D01*
X165608095Y-109444342D02*
X165608095Y-109349104D01*
X165608095Y-109349104D02*
X165560476Y-109253866D01*
X165560476Y-109253866D02*
X165512857Y-109206247D01*
X165512857Y-109206247D02*
X165417619Y-109158628D01*
X165417619Y-109158628D02*
X165227143Y-109111009D01*
X165227143Y-109111009D02*
X165131905Y-109063390D01*
X165131905Y-109063390D02*
X165084286Y-109015771D01*
X165084286Y-109015771D02*
X165036667Y-108920533D01*
X165036667Y-108920533D02*
X165036667Y-108825295D01*
X165036667Y-108825295D02*
X165084286Y-108730057D01*
X165084286Y-108730057D02*
X165131905Y-108682438D01*
X165131905Y-108682438D02*
X165227143Y-108634819D01*
X165227143Y-108634819D02*
X165465238Y-108634819D01*
X165465238Y-108634819D02*
X165608095Y-108682438D01*
X165941429Y-108634819D02*
X166179524Y-109634819D01*
X166179524Y-109634819D02*
X166370000Y-108920533D01*
X166370000Y-108920533D02*
X166560476Y-109634819D01*
X166560476Y-109634819D02*
X166798572Y-108634819D01*
X167084286Y-108634819D02*
X167703333Y-108634819D01*
X167703333Y-108634819D02*
X167370000Y-109015771D01*
X167370000Y-109015771D02*
X167512857Y-109015771D01*
X167512857Y-109015771D02*
X167608095Y-109063390D01*
X167608095Y-109063390D02*
X167655714Y-109111009D01*
X167655714Y-109111009D02*
X167703333Y-109206247D01*
X167703333Y-109206247D02*
X167703333Y-109444342D01*
X167703333Y-109444342D02*
X167655714Y-109539580D01*
X167655714Y-109539580D02*
X167608095Y-109587200D01*
X167608095Y-109587200D02*
X167512857Y-109634819D01*
X167512857Y-109634819D02*
X167227143Y-109634819D01*
X167227143Y-109634819D02*
X167131905Y-109587200D01*
X167131905Y-109587200D02*
X167084286Y-109539580D01*
X186158571Y-108087200D02*
X186301428Y-108134819D01*
X186301428Y-108134819D02*
X186539523Y-108134819D01*
X186539523Y-108134819D02*
X186634761Y-108087200D01*
X186634761Y-108087200D02*
X186682380Y-108039580D01*
X186682380Y-108039580D02*
X186729999Y-107944342D01*
X186729999Y-107944342D02*
X186729999Y-107849104D01*
X186729999Y-107849104D02*
X186682380Y-107753866D01*
X186682380Y-107753866D02*
X186634761Y-107706247D01*
X186634761Y-107706247D02*
X186539523Y-107658628D01*
X186539523Y-107658628D02*
X186349047Y-107611009D01*
X186349047Y-107611009D02*
X186253809Y-107563390D01*
X186253809Y-107563390D02*
X186206190Y-107515771D01*
X186206190Y-107515771D02*
X186158571Y-107420533D01*
X186158571Y-107420533D02*
X186158571Y-107325295D01*
X186158571Y-107325295D02*
X186206190Y-107230057D01*
X186206190Y-107230057D02*
X186253809Y-107182438D01*
X186253809Y-107182438D02*
X186349047Y-107134819D01*
X186349047Y-107134819D02*
X186587142Y-107134819D01*
X186587142Y-107134819D02*
X186729999Y-107182438D01*
X187063333Y-107134819D02*
X187301428Y-108134819D01*
X187301428Y-108134819D02*
X187491904Y-107420533D01*
X187491904Y-107420533D02*
X187682380Y-108134819D01*
X187682380Y-108134819D02*
X187920476Y-107134819D01*
X188063333Y-108230057D02*
X188825237Y-108230057D01*
X189015714Y-108087200D02*
X189158571Y-108134819D01*
X189158571Y-108134819D02*
X189396666Y-108134819D01*
X189396666Y-108134819D02*
X189491904Y-108087200D01*
X189491904Y-108087200D02*
X189539523Y-108039580D01*
X189539523Y-108039580D02*
X189587142Y-107944342D01*
X189587142Y-107944342D02*
X189587142Y-107849104D01*
X189587142Y-107849104D02*
X189539523Y-107753866D01*
X189539523Y-107753866D02*
X189491904Y-107706247D01*
X189491904Y-107706247D02*
X189396666Y-107658628D01*
X189396666Y-107658628D02*
X189206190Y-107611009D01*
X189206190Y-107611009D02*
X189110952Y-107563390D01*
X189110952Y-107563390D02*
X189063333Y-107515771D01*
X189063333Y-107515771D02*
X189015714Y-107420533D01*
X189015714Y-107420533D02*
X189015714Y-107325295D01*
X189015714Y-107325295D02*
X189063333Y-107230057D01*
X189063333Y-107230057D02*
X189110952Y-107182438D01*
X189110952Y-107182438D02*
X189206190Y-107134819D01*
X189206190Y-107134819D02*
X189444285Y-107134819D01*
X189444285Y-107134819D02*
X189587142Y-107182438D01*
X190015714Y-108134819D02*
X190015714Y-107134819D01*
X190015714Y-107134819D02*
X190396666Y-107134819D01*
X190396666Y-107134819D02*
X190491904Y-107182438D01*
X190491904Y-107182438D02*
X190539523Y-107230057D01*
X190539523Y-107230057D02*
X190587142Y-107325295D01*
X190587142Y-107325295D02*
X190587142Y-107468152D01*
X190587142Y-107468152D02*
X190539523Y-107563390D01*
X190539523Y-107563390D02*
X190491904Y-107611009D01*
X190491904Y-107611009D02*
X190396666Y-107658628D01*
X190396666Y-107658628D02*
X190015714Y-107658628D01*
X190968095Y-108087200D02*
X191110952Y-108134819D01*
X191110952Y-108134819D02*
X191349047Y-108134819D01*
X191349047Y-108134819D02*
X191444285Y-108087200D01*
X191444285Y-108087200D02*
X191491904Y-108039580D01*
X191491904Y-108039580D02*
X191539523Y-107944342D01*
X191539523Y-107944342D02*
X191539523Y-107849104D01*
X191539523Y-107849104D02*
X191491904Y-107753866D01*
X191491904Y-107753866D02*
X191444285Y-107706247D01*
X191444285Y-107706247D02*
X191349047Y-107658628D01*
X191349047Y-107658628D02*
X191158571Y-107611009D01*
X191158571Y-107611009D02*
X191063333Y-107563390D01*
X191063333Y-107563390D02*
X191015714Y-107515771D01*
X191015714Y-107515771D02*
X190968095Y-107420533D01*
X190968095Y-107420533D02*
X190968095Y-107325295D01*
X190968095Y-107325295D02*
X191015714Y-107230057D01*
X191015714Y-107230057D02*
X191063333Y-107182438D01*
X191063333Y-107182438D02*
X191158571Y-107134819D01*
X191158571Y-107134819D02*
X191396666Y-107134819D01*
X191396666Y-107134819D02*
X191539523Y-107182438D01*
X191825238Y-107134819D02*
X192396666Y-107134819D01*
X192110952Y-108134819D02*
X192110952Y-107134819D01*
X187896667Y-109587200D02*
X188039524Y-109634819D01*
X188039524Y-109634819D02*
X188277619Y-109634819D01*
X188277619Y-109634819D02*
X188372857Y-109587200D01*
X188372857Y-109587200D02*
X188420476Y-109539580D01*
X188420476Y-109539580D02*
X188468095Y-109444342D01*
X188468095Y-109444342D02*
X188468095Y-109349104D01*
X188468095Y-109349104D02*
X188420476Y-109253866D01*
X188420476Y-109253866D02*
X188372857Y-109206247D01*
X188372857Y-109206247D02*
X188277619Y-109158628D01*
X188277619Y-109158628D02*
X188087143Y-109111009D01*
X188087143Y-109111009D02*
X187991905Y-109063390D01*
X187991905Y-109063390D02*
X187944286Y-109015771D01*
X187944286Y-109015771D02*
X187896667Y-108920533D01*
X187896667Y-108920533D02*
X187896667Y-108825295D01*
X187896667Y-108825295D02*
X187944286Y-108730057D01*
X187944286Y-108730057D02*
X187991905Y-108682438D01*
X187991905Y-108682438D02*
X188087143Y-108634819D01*
X188087143Y-108634819D02*
X188325238Y-108634819D01*
X188325238Y-108634819D02*
X188468095Y-108682438D01*
X188801429Y-108634819D02*
X189039524Y-109634819D01*
X189039524Y-109634819D02*
X189230000Y-108920533D01*
X189230000Y-108920533D02*
X189420476Y-109634819D01*
X189420476Y-109634819D02*
X189658572Y-108634819D01*
X190468095Y-108634819D02*
X190277619Y-108634819D01*
X190277619Y-108634819D02*
X190182381Y-108682438D01*
X190182381Y-108682438D02*
X190134762Y-108730057D01*
X190134762Y-108730057D02*
X190039524Y-108872914D01*
X190039524Y-108872914D02*
X189991905Y-109063390D01*
X189991905Y-109063390D02*
X189991905Y-109444342D01*
X189991905Y-109444342D02*
X190039524Y-109539580D01*
X190039524Y-109539580D02*
X190087143Y-109587200D01*
X190087143Y-109587200D02*
X190182381Y-109634819D01*
X190182381Y-109634819D02*
X190372857Y-109634819D01*
X190372857Y-109634819D02*
X190468095Y-109587200D01*
X190468095Y-109587200D02*
X190515714Y-109539580D01*
X190515714Y-109539580D02*
X190563333Y-109444342D01*
X190563333Y-109444342D02*
X190563333Y-109206247D01*
X190563333Y-109206247D02*
X190515714Y-109111009D01*
X190515714Y-109111009D02*
X190468095Y-109063390D01*
X190468095Y-109063390D02*
X190372857Y-109015771D01*
X190372857Y-109015771D02*
X190182381Y-109015771D01*
X190182381Y-109015771D02*
X190087143Y-109063390D01*
X190087143Y-109063390D02*
X190039524Y-109111009D01*
X190039524Y-109111009D02*
X189991905Y-109206247D01*
X148058571Y-108087200D02*
X148201428Y-108134819D01*
X148201428Y-108134819D02*
X148439523Y-108134819D01*
X148439523Y-108134819D02*
X148534761Y-108087200D01*
X148534761Y-108087200D02*
X148582380Y-108039580D01*
X148582380Y-108039580D02*
X148629999Y-107944342D01*
X148629999Y-107944342D02*
X148629999Y-107849104D01*
X148629999Y-107849104D02*
X148582380Y-107753866D01*
X148582380Y-107753866D02*
X148534761Y-107706247D01*
X148534761Y-107706247D02*
X148439523Y-107658628D01*
X148439523Y-107658628D02*
X148249047Y-107611009D01*
X148249047Y-107611009D02*
X148153809Y-107563390D01*
X148153809Y-107563390D02*
X148106190Y-107515771D01*
X148106190Y-107515771D02*
X148058571Y-107420533D01*
X148058571Y-107420533D02*
X148058571Y-107325295D01*
X148058571Y-107325295D02*
X148106190Y-107230057D01*
X148106190Y-107230057D02*
X148153809Y-107182438D01*
X148153809Y-107182438D02*
X148249047Y-107134819D01*
X148249047Y-107134819D02*
X148487142Y-107134819D01*
X148487142Y-107134819D02*
X148629999Y-107182438D01*
X148963333Y-107134819D02*
X149201428Y-108134819D01*
X149201428Y-108134819D02*
X149391904Y-107420533D01*
X149391904Y-107420533D02*
X149582380Y-108134819D01*
X149582380Y-108134819D02*
X149820476Y-107134819D01*
X149963333Y-108230057D02*
X150725237Y-108230057D01*
X150915714Y-108087200D02*
X151058571Y-108134819D01*
X151058571Y-108134819D02*
X151296666Y-108134819D01*
X151296666Y-108134819D02*
X151391904Y-108087200D01*
X151391904Y-108087200D02*
X151439523Y-108039580D01*
X151439523Y-108039580D02*
X151487142Y-107944342D01*
X151487142Y-107944342D02*
X151487142Y-107849104D01*
X151487142Y-107849104D02*
X151439523Y-107753866D01*
X151439523Y-107753866D02*
X151391904Y-107706247D01*
X151391904Y-107706247D02*
X151296666Y-107658628D01*
X151296666Y-107658628D02*
X151106190Y-107611009D01*
X151106190Y-107611009D02*
X151010952Y-107563390D01*
X151010952Y-107563390D02*
X150963333Y-107515771D01*
X150963333Y-107515771D02*
X150915714Y-107420533D01*
X150915714Y-107420533D02*
X150915714Y-107325295D01*
X150915714Y-107325295D02*
X150963333Y-107230057D01*
X150963333Y-107230057D02*
X151010952Y-107182438D01*
X151010952Y-107182438D02*
X151106190Y-107134819D01*
X151106190Y-107134819D02*
X151344285Y-107134819D01*
X151344285Y-107134819D02*
X151487142Y-107182438D01*
X151915714Y-108134819D02*
X151915714Y-107134819D01*
X151915714Y-107134819D02*
X152296666Y-107134819D01*
X152296666Y-107134819D02*
X152391904Y-107182438D01*
X152391904Y-107182438D02*
X152439523Y-107230057D01*
X152439523Y-107230057D02*
X152487142Y-107325295D01*
X152487142Y-107325295D02*
X152487142Y-107468152D01*
X152487142Y-107468152D02*
X152439523Y-107563390D01*
X152439523Y-107563390D02*
X152391904Y-107611009D01*
X152391904Y-107611009D02*
X152296666Y-107658628D01*
X152296666Y-107658628D02*
X151915714Y-107658628D01*
X152868095Y-108087200D02*
X153010952Y-108134819D01*
X153010952Y-108134819D02*
X153249047Y-108134819D01*
X153249047Y-108134819D02*
X153344285Y-108087200D01*
X153344285Y-108087200D02*
X153391904Y-108039580D01*
X153391904Y-108039580D02*
X153439523Y-107944342D01*
X153439523Y-107944342D02*
X153439523Y-107849104D01*
X153439523Y-107849104D02*
X153391904Y-107753866D01*
X153391904Y-107753866D02*
X153344285Y-107706247D01*
X153344285Y-107706247D02*
X153249047Y-107658628D01*
X153249047Y-107658628D02*
X153058571Y-107611009D01*
X153058571Y-107611009D02*
X152963333Y-107563390D01*
X152963333Y-107563390D02*
X152915714Y-107515771D01*
X152915714Y-107515771D02*
X152868095Y-107420533D01*
X152868095Y-107420533D02*
X152868095Y-107325295D01*
X152868095Y-107325295D02*
X152915714Y-107230057D01*
X152915714Y-107230057D02*
X152963333Y-107182438D01*
X152963333Y-107182438D02*
X153058571Y-107134819D01*
X153058571Y-107134819D02*
X153296666Y-107134819D01*
X153296666Y-107134819D02*
X153439523Y-107182438D01*
X153725238Y-107134819D02*
X154296666Y-107134819D01*
X154010952Y-108134819D02*
X154010952Y-107134819D01*
X149796667Y-109587200D02*
X149939524Y-109634819D01*
X149939524Y-109634819D02*
X150177619Y-109634819D01*
X150177619Y-109634819D02*
X150272857Y-109587200D01*
X150272857Y-109587200D02*
X150320476Y-109539580D01*
X150320476Y-109539580D02*
X150368095Y-109444342D01*
X150368095Y-109444342D02*
X150368095Y-109349104D01*
X150368095Y-109349104D02*
X150320476Y-109253866D01*
X150320476Y-109253866D02*
X150272857Y-109206247D01*
X150272857Y-109206247D02*
X150177619Y-109158628D01*
X150177619Y-109158628D02*
X149987143Y-109111009D01*
X149987143Y-109111009D02*
X149891905Y-109063390D01*
X149891905Y-109063390D02*
X149844286Y-109015771D01*
X149844286Y-109015771D02*
X149796667Y-108920533D01*
X149796667Y-108920533D02*
X149796667Y-108825295D01*
X149796667Y-108825295D02*
X149844286Y-108730057D01*
X149844286Y-108730057D02*
X149891905Y-108682438D01*
X149891905Y-108682438D02*
X149987143Y-108634819D01*
X149987143Y-108634819D02*
X150225238Y-108634819D01*
X150225238Y-108634819D02*
X150368095Y-108682438D01*
X150701429Y-108634819D02*
X150939524Y-109634819D01*
X150939524Y-109634819D02*
X151130000Y-108920533D01*
X151130000Y-108920533D02*
X151320476Y-109634819D01*
X151320476Y-109634819D02*
X151558572Y-108634819D01*
X152463333Y-109634819D02*
X151891905Y-109634819D01*
X152177619Y-109634819D02*
X152177619Y-108634819D01*
X152177619Y-108634819D02*
X152082381Y-108777676D01*
X152082381Y-108777676D02*
X151987143Y-108872914D01*
X151987143Y-108872914D02*
X151891905Y-108920533D01*
X169441428Y-122417800D02*
X169298571Y-122370180D01*
X169298571Y-122370180D02*
X169060476Y-122370180D01*
X169060476Y-122370180D02*
X168965238Y-122417800D01*
X168965238Y-122417800D02*
X168917619Y-122465419D01*
X168917619Y-122465419D02*
X168870000Y-122560657D01*
X168870000Y-122560657D02*
X168870000Y-122655895D01*
X168870000Y-122655895D02*
X168917619Y-122751133D01*
X168917619Y-122751133D02*
X168965238Y-122798752D01*
X168965238Y-122798752D02*
X169060476Y-122846371D01*
X169060476Y-122846371D02*
X169250952Y-122893990D01*
X169250952Y-122893990D02*
X169346190Y-122941609D01*
X169346190Y-122941609D02*
X169393809Y-122989228D01*
X169393809Y-122989228D02*
X169441428Y-123084466D01*
X169441428Y-123084466D02*
X169441428Y-123179704D01*
X169441428Y-123179704D02*
X169393809Y-123274942D01*
X169393809Y-123274942D02*
X169346190Y-123322561D01*
X169346190Y-123322561D02*
X169250952Y-123370180D01*
X169250952Y-123370180D02*
X169012857Y-123370180D01*
X169012857Y-123370180D02*
X168870000Y-123322561D01*
X168536666Y-123370180D02*
X168298571Y-122370180D01*
X168298571Y-122370180D02*
X168108095Y-123084466D01*
X168108095Y-123084466D02*
X167917619Y-122370180D01*
X167917619Y-122370180D02*
X167679524Y-123370180D01*
X167536667Y-122274942D02*
X166774762Y-122274942D01*
X166584285Y-122417800D02*
X166441428Y-122370180D01*
X166441428Y-122370180D02*
X166203333Y-122370180D01*
X166203333Y-122370180D02*
X166108095Y-122417800D01*
X166108095Y-122417800D02*
X166060476Y-122465419D01*
X166060476Y-122465419D02*
X166012857Y-122560657D01*
X166012857Y-122560657D02*
X166012857Y-122655895D01*
X166012857Y-122655895D02*
X166060476Y-122751133D01*
X166060476Y-122751133D02*
X166108095Y-122798752D01*
X166108095Y-122798752D02*
X166203333Y-122846371D01*
X166203333Y-122846371D02*
X166393809Y-122893990D01*
X166393809Y-122893990D02*
X166489047Y-122941609D01*
X166489047Y-122941609D02*
X166536666Y-122989228D01*
X166536666Y-122989228D02*
X166584285Y-123084466D01*
X166584285Y-123084466D02*
X166584285Y-123179704D01*
X166584285Y-123179704D02*
X166536666Y-123274942D01*
X166536666Y-123274942D02*
X166489047Y-123322561D01*
X166489047Y-123322561D02*
X166393809Y-123370180D01*
X166393809Y-123370180D02*
X166155714Y-123370180D01*
X166155714Y-123370180D02*
X166012857Y-123322561D01*
X165584285Y-122370180D02*
X165584285Y-123370180D01*
X165584285Y-123370180D02*
X165203333Y-123370180D01*
X165203333Y-123370180D02*
X165108095Y-123322561D01*
X165108095Y-123322561D02*
X165060476Y-123274942D01*
X165060476Y-123274942D02*
X165012857Y-123179704D01*
X165012857Y-123179704D02*
X165012857Y-123036847D01*
X165012857Y-123036847D02*
X165060476Y-122941609D01*
X165060476Y-122941609D02*
X165108095Y-122893990D01*
X165108095Y-122893990D02*
X165203333Y-122846371D01*
X165203333Y-122846371D02*
X165584285Y-122846371D01*
X164631904Y-122417800D02*
X164489047Y-122370180D01*
X164489047Y-122370180D02*
X164250952Y-122370180D01*
X164250952Y-122370180D02*
X164155714Y-122417800D01*
X164155714Y-122417800D02*
X164108095Y-122465419D01*
X164108095Y-122465419D02*
X164060476Y-122560657D01*
X164060476Y-122560657D02*
X164060476Y-122655895D01*
X164060476Y-122655895D02*
X164108095Y-122751133D01*
X164108095Y-122751133D02*
X164155714Y-122798752D01*
X164155714Y-122798752D02*
X164250952Y-122846371D01*
X164250952Y-122846371D02*
X164441428Y-122893990D01*
X164441428Y-122893990D02*
X164536666Y-122941609D01*
X164536666Y-122941609D02*
X164584285Y-122989228D01*
X164584285Y-122989228D02*
X164631904Y-123084466D01*
X164631904Y-123084466D02*
X164631904Y-123179704D01*
X164631904Y-123179704D02*
X164584285Y-123274942D01*
X164584285Y-123274942D02*
X164536666Y-123322561D01*
X164536666Y-123322561D02*
X164441428Y-123370180D01*
X164441428Y-123370180D02*
X164203333Y-123370180D01*
X164203333Y-123370180D02*
X164060476Y-123322561D01*
X163774761Y-123370180D02*
X163203333Y-123370180D01*
X163489047Y-122370180D02*
X163489047Y-123370180D01*
X168179523Y-120917800D02*
X168036666Y-120870180D01*
X168036666Y-120870180D02*
X167798571Y-120870180D01*
X167798571Y-120870180D02*
X167703333Y-120917800D01*
X167703333Y-120917800D02*
X167655714Y-120965419D01*
X167655714Y-120965419D02*
X167608095Y-121060657D01*
X167608095Y-121060657D02*
X167608095Y-121155895D01*
X167608095Y-121155895D02*
X167655714Y-121251133D01*
X167655714Y-121251133D02*
X167703333Y-121298752D01*
X167703333Y-121298752D02*
X167798571Y-121346371D01*
X167798571Y-121346371D02*
X167989047Y-121393990D01*
X167989047Y-121393990D02*
X168084285Y-121441609D01*
X168084285Y-121441609D02*
X168131904Y-121489228D01*
X168131904Y-121489228D02*
X168179523Y-121584466D01*
X168179523Y-121584466D02*
X168179523Y-121679704D01*
X168179523Y-121679704D02*
X168131904Y-121774942D01*
X168131904Y-121774942D02*
X168084285Y-121822561D01*
X168084285Y-121822561D02*
X167989047Y-121870180D01*
X167989047Y-121870180D02*
X167750952Y-121870180D01*
X167750952Y-121870180D02*
X167608095Y-121822561D01*
X167274761Y-121870180D02*
X167036666Y-120870180D01*
X167036666Y-120870180D02*
X166846190Y-121584466D01*
X166846190Y-121584466D02*
X166655714Y-120870180D01*
X166655714Y-120870180D02*
X166417619Y-121870180D01*
X165512857Y-120870180D02*
X166084285Y-120870180D01*
X165798571Y-120870180D02*
X165798571Y-121870180D01*
X165798571Y-121870180D02*
X165893809Y-121727323D01*
X165893809Y-121727323D02*
X165989047Y-121632085D01*
X165989047Y-121632085D02*
X166084285Y-121584466D01*
X164560476Y-120870180D02*
X165131904Y-120870180D01*
X164846190Y-120870180D02*
X164846190Y-121870180D01*
X164846190Y-121870180D02*
X164941428Y-121727323D01*
X164941428Y-121727323D02*
X165036666Y-121632085D01*
X165036666Y-121632085D02*
X165131904Y-121584466D01*
X207541428Y-122417800D02*
X207398571Y-122370180D01*
X207398571Y-122370180D02*
X207160476Y-122370180D01*
X207160476Y-122370180D02*
X207065238Y-122417800D01*
X207065238Y-122417800D02*
X207017619Y-122465419D01*
X207017619Y-122465419D02*
X206970000Y-122560657D01*
X206970000Y-122560657D02*
X206970000Y-122655895D01*
X206970000Y-122655895D02*
X207017619Y-122751133D01*
X207017619Y-122751133D02*
X207065238Y-122798752D01*
X207065238Y-122798752D02*
X207160476Y-122846371D01*
X207160476Y-122846371D02*
X207350952Y-122893990D01*
X207350952Y-122893990D02*
X207446190Y-122941609D01*
X207446190Y-122941609D02*
X207493809Y-122989228D01*
X207493809Y-122989228D02*
X207541428Y-123084466D01*
X207541428Y-123084466D02*
X207541428Y-123179704D01*
X207541428Y-123179704D02*
X207493809Y-123274942D01*
X207493809Y-123274942D02*
X207446190Y-123322561D01*
X207446190Y-123322561D02*
X207350952Y-123370180D01*
X207350952Y-123370180D02*
X207112857Y-123370180D01*
X207112857Y-123370180D02*
X206970000Y-123322561D01*
X206636666Y-123370180D02*
X206398571Y-122370180D01*
X206398571Y-122370180D02*
X206208095Y-123084466D01*
X206208095Y-123084466D02*
X206017619Y-122370180D01*
X206017619Y-122370180D02*
X205779524Y-123370180D01*
X205636667Y-122274942D02*
X204874762Y-122274942D01*
X204684285Y-122417800D02*
X204541428Y-122370180D01*
X204541428Y-122370180D02*
X204303333Y-122370180D01*
X204303333Y-122370180D02*
X204208095Y-122417800D01*
X204208095Y-122417800D02*
X204160476Y-122465419D01*
X204160476Y-122465419D02*
X204112857Y-122560657D01*
X204112857Y-122560657D02*
X204112857Y-122655895D01*
X204112857Y-122655895D02*
X204160476Y-122751133D01*
X204160476Y-122751133D02*
X204208095Y-122798752D01*
X204208095Y-122798752D02*
X204303333Y-122846371D01*
X204303333Y-122846371D02*
X204493809Y-122893990D01*
X204493809Y-122893990D02*
X204589047Y-122941609D01*
X204589047Y-122941609D02*
X204636666Y-122989228D01*
X204636666Y-122989228D02*
X204684285Y-123084466D01*
X204684285Y-123084466D02*
X204684285Y-123179704D01*
X204684285Y-123179704D02*
X204636666Y-123274942D01*
X204636666Y-123274942D02*
X204589047Y-123322561D01*
X204589047Y-123322561D02*
X204493809Y-123370180D01*
X204493809Y-123370180D02*
X204255714Y-123370180D01*
X204255714Y-123370180D02*
X204112857Y-123322561D01*
X203684285Y-122370180D02*
X203684285Y-123370180D01*
X203684285Y-123370180D02*
X203303333Y-123370180D01*
X203303333Y-123370180D02*
X203208095Y-123322561D01*
X203208095Y-123322561D02*
X203160476Y-123274942D01*
X203160476Y-123274942D02*
X203112857Y-123179704D01*
X203112857Y-123179704D02*
X203112857Y-123036847D01*
X203112857Y-123036847D02*
X203160476Y-122941609D01*
X203160476Y-122941609D02*
X203208095Y-122893990D01*
X203208095Y-122893990D02*
X203303333Y-122846371D01*
X203303333Y-122846371D02*
X203684285Y-122846371D01*
X202731904Y-122417800D02*
X202589047Y-122370180D01*
X202589047Y-122370180D02*
X202350952Y-122370180D01*
X202350952Y-122370180D02*
X202255714Y-122417800D01*
X202255714Y-122417800D02*
X202208095Y-122465419D01*
X202208095Y-122465419D02*
X202160476Y-122560657D01*
X202160476Y-122560657D02*
X202160476Y-122655895D01*
X202160476Y-122655895D02*
X202208095Y-122751133D01*
X202208095Y-122751133D02*
X202255714Y-122798752D01*
X202255714Y-122798752D02*
X202350952Y-122846371D01*
X202350952Y-122846371D02*
X202541428Y-122893990D01*
X202541428Y-122893990D02*
X202636666Y-122941609D01*
X202636666Y-122941609D02*
X202684285Y-122989228D01*
X202684285Y-122989228D02*
X202731904Y-123084466D01*
X202731904Y-123084466D02*
X202731904Y-123179704D01*
X202731904Y-123179704D02*
X202684285Y-123274942D01*
X202684285Y-123274942D02*
X202636666Y-123322561D01*
X202636666Y-123322561D02*
X202541428Y-123370180D01*
X202541428Y-123370180D02*
X202303333Y-123370180D01*
X202303333Y-123370180D02*
X202160476Y-123322561D01*
X201874761Y-123370180D02*
X201303333Y-123370180D01*
X201589047Y-122370180D02*
X201589047Y-123370180D01*
X206279523Y-120917800D02*
X206136666Y-120870180D01*
X206136666Y-120870180D02*
X205898571Y-120870180D01*
X205898571Y-120870180D02*
X205803333Y-120917800D01*
X205803333Y-120917800D02*
X205755714Y-120965419D01*
X205755714Y-120965419D02*
X205708095Y-121060657D01*
X205708095Y-121060657D02*
X205708095Y-121155895D01*
X205708095Y-121155895D02*
X205755714Y-121251133D01*
X205755714Y-121251133D02*
X205803333Y-121298752D01*
X205803333Y-121298752D02*
X205898571Y-121346371D01*
X205898571Y-121346371D02*
X206089047Y-121393990D01*
X206089047Y-121393990D02*
X206184285Y-121441609D01*
X206184285Y-121441609D02*
X206231904Y-121489228D01*
X206231904Y-121489228D02*
X206279523Y-121584466D01*
X206279523Y-121584466D02*
X206279523Y-121679704D01*
X206279523Y-121679704D02*
X206231904Y-121774942D01*
X206231904Y-121774942D02*
X206184285Y-121822561D01*
X206184285Y-121822561D02*
X206089047Y-121870180D01*
X206089047Y-121870180D02*
X205850952Y-121870180D01*
X205850952Y-121870180D02*
X205708095Y-121822561D01*
X205374761Y-121870180D02*
X205136666Y-120870180D01*
X205136666Y-120870180D02*
X204946190Y-121584466D01*
X204946190Y-121584466D02*
X204755714Y-120870180D01*
X204755714Y-120870180D02*
X204517619Y-121870180D01*
X203612857Y-120870180D02*
X204184285Y-120870180D01*
X203898571Y-120870180D02*
X203898571Y-121870180D01*
X203898571Y-121870180D02*
X203993809Y-121727323D01*
X203993809Y-121727323D02*
X204089047Y-121632085D01*
X204089047Y-121632085D02*
X204184285Y-121584466D01*
X202755714Y-121870180D02*
X202946190Y-121870180D01*
X202946190Y-121870180D02*
X203041428Y-121822561D01*
X203041428Y-121822561D02*
X203089047Y-121774942D01*
X203089047Y-121774942D02*
X203184285Y-121632085D01*
X203184285Y-121632085D02*
X203231904Y-121441609D01*
X203231904Y-121441609D02*
X203231904Y-121060657D01*
X203231904Y-121060657D02*
X203184285Y-120965419D01*
X203184285Y-120965419D02*
X203136666Y-120917800D01*
X203136666Y-120917800D02*
X203041428Y-120870180D01*
X203041428Y-120870180D02*
X202850952Y-120870180D01*
X202850952Y-120870180D02*
X202755714Y-120917800D01*
X202755714Y-120917800D02*
X202708095Y-120965419D01*
X202708095Y-120965419D02*
X202660476Y-121060657D01*
X202660476Y-121060657D02*
X202660476Y-121298752D01*
X202660476Y-121298752D02*
X202708095Y-121393990D01*
X202708095Y-121393990D02*
X202755714Y-121441609D01*
X202755714Y-121441609D02*
X202850952Y-121489228D01*
X202850952Y-121489228D02*
X203041428Y-121489228D01*
X203041428Y-121489228D02*
X203136666Y-121441609D01*
X203136666Y-121441609D02*
X203184285Y-121393990D01*
X203184285Y-121393990D02*
X203231904Y-121298752D01*
X154201428Y-122417800D02*
X154058571Y-122370180D01*
X154058571Y-122370180D02*
X153820476Y-122370180D01*
X153820476Y-122370180D02*
X153725238Y-122417800D01*
X153725238Y-122417800D02*
X153677619Y-122465419D01*
X153677619Y-122465419D02*
X153630000Y-122560657D01*
X153630000Y-122560657D02*
X153630000Y-122655895D01*
X153630000Y-122655895D02*
X153677619Y-122751133D01*
X153677619Y-122751133D02*
X153725238Y-122798752D01*
X153725238Y-122798752D02*
X153820476Y-122846371D01*
X153820476Y-122846371D02*
X154010952Y-122893990D01*
X154010952Y-122893990D02*
X154106190Y-122941609D01*
X154106190Y-122941609D02*
X154153809Y-122989228D01*
X154153809Y-122989228D02*
X154201428Y-123084466D01*
X154201428Y-123084466D02*
X154201428Y-123179704D01*
X154201428Y-123179704D02*
X154153809Y-123274942D01*
X154153809Y-123274942D02*
X154106190Y-123322561D01*
X154106190Y-123322561D02*
X154010952Y-123370180D01*
X154010952Y-123370180D02*
X153772857Y-123370180D01*
X153772857Y-123370180D02*
X153630000Y-123322561D01*
X153296666Y-123370180D02*
X153058571Y-122370180D01*
X153058571Y-122370180D02*
X152868095Y-123084466D01*
X152868095Y-123084466D02*
X152677619Y-122370180D01*
X152677619Y-122370180D02*
X152439524Y-123370180D01*
X152296667Y-122274942D02*
X151534762Y-122274942D01*
X151344285Y-122417800D02*
X151201428Y-122370180D01*
X151201428Y-122370180D02*
X150963333Y-122370180D01*
X150963333Y-122370180D02*
X150868095Y-122417800D01*
X150868095Y-122417800D02*
X150820476Y-122465419D01*
X150820476Y-122465419D02*
X150772857Y-122560657D01*
X150772857Y-122560657D02*
X150772857Y-122655895D01*
X150772857Y-122655895D02*
X150820476Y-122751133D01*
X150820476Y-122751133D02*
X150868095Y-122798752D01*
X150868095Y-122798752D02*
X150963333Y-122846371D01*
X150963333Y-122846371D02*
X151153809Y-122893990D01*
X151153809Y-122893990D02*
X151249047Y-122941609D01*
X151249047Y-122941609D02*
X151296666Y-122989228D01*
X151296666Y-122989228D02*
X151344285Y-123084466D01*
X151344285Y-123084466D02*
X151344285Y-123179704D01*
X151344285Y-123179704D02*
X151296666Y-123274942D01*
X151296666Y-123274942D02*
X151249047Y-123322561D01*
X151249047Y-123322561D02*
X151153809Y-123370180D01*
X151153809Y-123370180D02*
X150915714Y-123370180D01*
X150915714Y-123370180D02*
X150772857Y-123322561D01*
X150344285Y-122370180D02*
X150344285Y-123370180D01*
X150344285Y-123370180D02*
X149963333Y-123370180D01*
X149963333Y-123370180D02*
X149868095Y-123322561D01*
X149868095Y-123322561D02*
X149820476Y-123274942D01*
X149820476Y-123274942D02*
X149772857Y-123179704D01*
X149772857Y-123179704D02*
X149772857Y-123036847D01*
X149772857Y-123036847D02*
X149820476Y-122941609D01*
X149820476Y-122941609D02*
X149868095Y-122893990D01*
X149868095Y-122893990D02*
X149963333Y-122846371D01*
X149963333Y-122846371D02*
X150344285Y-122846371D01*
X149391904Y-122417800D02*
X149249047Y-122370180D01*
X149249047Y-122370180D02*
X149010952Y-122370180D01*
X149010952Y-122370180D02*
X148915714Y-122417800D01*
X148915714Y-122417800D02*
X148868095Y-122465419D01*
X148868095Y-122465419D02*
X148820476Y-122560657D01*
X148820476Y-122560657D02*
X148820476Y-122655895D01*
X148820476Y-122655895D02*
X148868095Y-122751133D01*
X148868095Y-122751133D02*
X148915714Y-122798752D01*
X148915714Y-122798752D02*
X149010952Y-122846371D01*
X149010952Y-122846371D02*
X149201428Y-122893990D01*
X149201428Y-122893990D02*
X149296666Y-122941609D01*
X149296666Y-122941609D02*
X149344285Y-122989228D01*
X149344285Y-122989228D02*
X149391904Y-123084466D01*
X149391904Y-123084466D02*
X149391904Y-123179704D01*
X149391904Y-123179704D02*
X149344285Y-123274942D01*
X149344285Y-123274942D02*
X149296666Y-123322561D01*
X149296666Y-123322561D02*
X149201428Y-123370180D01*
X149201428Y-123370180D02*
X148963333Y-123370180D01*
X148963333Y-123370180D02*
X148820476Y-123322561D01*
X148534761Y-123370180D02*
X147963333Y-123370180D01*
X148249047Y-122370180D02*
X148249047Y-123370180D01*
X152463332Y-120917800D02*
X152320475Y-120870180D01*
X152320475Y-120870180D02*
X152082380Y-120870180D01*
X152082380Y-120870180D02*
X151987142Y-120917800D01*
X151987142Y-120917800D02*
X151939523Y-120965419D01*
X151939523Y-120965419D02*
X151891904Y-121060657D01*
X151891904Y-121060657D02*
X151891904Y-121155895D01*
X151891904Y-121155895D02*
X151939523Y-121251133D01*
X151939523Y-121251133D02*
X151987142Y-121298752D01*
X151987142Y-121298752D02*
X152082380Y-121346371D01*
X152082380Y-121346371D02*
X152272856Y-121393990D01*
X152272856Y-121393990D02*
X152368094Y-121441609D01*
X152368094Y-121441609D02*
X152415713Y-121489228D01*
X152415713Y-121489228D02*
X152463332Y-121584466D01*
X152463332Y-121584466D02*
X152463332Y-121679704D01*
X152463332Y-121679704D02*
X152415713Y-121774942D01*
X152415713Y-121774942D02*
X152368094Y-121822561D01*
X152368094Y-121822561D02*
X152272856Y-121870180D01*
X152272856Y-121870180D02*
X152034761Y-121870180D01*
X152034761Y-121870180D02*
X151891904Y-121822561D01*
X151558570Y-121870180D02*
X151320475Y-120870180D01*
X151320475Y-120870180D02*
X151129999Y-121584466D01*
X151129999Y-121584466D02*
X150939523Y-120870180D01*
X150939523Y-120870180D02*
X150701428Y-121870180D01*
X150272856Y-120870180D02*
X150082380Y-120870180D01*
X150082380Y-120870180D02*
X149987142Y-120917800D01*
X149987142Y-120917800D02*
X149939523Y-120965419D01*
X149939523Y-120965419D02*
X149844285Y-121108276D01*
X149844285Y-121108276D02*
X149796666Y-121298752D01*
X149796666Y-121298752D02*
X149796666Y-121679704D01*
X149796666Y-121679704D02*
X149844285Y-121774942D01*
X149844285Y-121774942D02*
X149891904Y-121822561D01*
X149891904Y-121822561D02*
X149987142Y-121870180D01*
X149987142Y-121870180D02*
X150177618Y-121870180D01*
X150177618Y-121870180D02*
X150272856Y-121822561D01*
X150272856Y-121822561D02*
X150320475Y-121774942D01*
X150320475Y-121774942D02*
X150368094Y-121679704D01*
X150368094Y-121679704D02*
X150368094Y-121441609D01*
X150368094Y-121441609D02*
X150320475Y-121346371D01*
X150320475Y-121346371D02*
X150272856Y-121298752D01*
X150272856Y-121298752D02*
X150177618Y-121251133D01*
X150177618Y-121251133D02*
X149987142Y-121251133D01*
X149987142Y-121251133D02*
X149891904Y-121298752D01*
X149891904Y-121298752D02*
X149844285Y-121346371D01*
X149844285Y-121346371D02*
X149796666Y-121441609D01*
X193778571Y-108087200D02*
X193921428Y-108134819D01*
X193921428Y-108134819D02*
X194159523Y-108134819D01*
X194159523Y-108134819D02*
X194254761Y-108087200D01*
X194254761Y-108087200D02*
X194302380Y-108039580D01*
X194302380Y-108039580D02*
X194349999Y-107944342D01*
X194349999Y-107944342D02*
X194349999Y-107849104D01*
X194349999Y-107849104D02*
X194302380Y-107753866D01*
X194302380Y-107753866D02*
X194254761Y-107706247D01*
X194254761Y-107706247D02*
X194159523Y-107658628D01*
X194159523Y-107658628D02*
X193969047Y-107611009D01*
X193969047Y-107611009D02*
X193873809Y-107563390D01*
X193873809Y-107563390D02*
X193826190Y-107515771D01*
X193826190Y-107515771D02*
X193778571Y-107420533D01*
X193778571Y-107420533D02*
X193778571Y-107325295D01*
X193778571Y-107325295D02*
X193826190Y-107230057D01*
X193826190Y-107230057D02*
X193873809Y-107182438D01*
X193873809Y-107182438D02*
X193969047Y-107134819D01*
X193969047Y-107134819D02*
X194207142Y-107134819D01*
X194207142Y-107134819D02*
X194349999Y-107182438D01*
X194683333Y-107134819D02*
X194921428Y-108134819D01*
X194921428Y-108134819D02*
X195111904Y-107420533D01*
X195111904Y-107420533D02*
X195302380Y-108134819D01*
X195302380Y-108134819D02*
X195540476Y-107134819D01*
X195683333Y-108230057D02*
X196445237Y-108230057D01*
X196635714Y-108087200D02*
X196778571Y-108134819D01*
X196778571Y-108134819D02*
X197016666Y-108134819D01*
X197016666Y-108134819D02*
X197111904Y-108087200D01*
X197111904Y-108087200D02*
X197159523Y-108039580D01*
X197159523Y-108039580D02*
X197207142Y-107944342D01*
X197207142Y-107944342D02*
X197207142Y-107849104D01*
X197207142Y-107849104D02*
X197159523Y-107753866D01*
X197159523Y-107753866D02*
X197111904Y-107706247D01*
X197111904Y-107706247D02*
X197016666Y-107658628D01*
X197016666Y-107658628D02*
X196826190Y-107611009D01*
X196826190Y-107611009D02*
X196730952Y-107563390D01*
X196730952Y-107563390D02*
X196683333Y-107515771D01*
X196683333Y-107515771D02*
X196635714Y-107420533D01*
X196635714Y-107420533D02*
X196635714Y-107325295D01*
X196635714Y-107325295D02*
X196683333Y-107230057D01*
X196683333Y-107230057D02*
X196730952Y-107182438D01*
X196730952Y-107182438D02*
X196826190Y-107134819D01*
X196826190Y-107134819D02*
X197064285Y-107134819D01*
X197064285Y-107134819D02*
X197207142Y-107182438D01*
X197635714Y-108134819D02*
X197635714Y-107134819D01*
X197635714Y-107134819D02*
X198016666Y-107134819D01*
X198016666Y-107134819D02*
X198111904Y-107182438D01*
X198111904Y-107182438D02*
X198159523Y-107230057D01*
X198159523Y-107230057D02*
X198207142Y-107325295D01*
X198207142Y-107325295D02*
X198207142Y-107468152D01*
X198207142Y-107468152D02*
X198159523Y-107563390D01*
X198159523Y-107563390D02*
X198111904Y-107611009D01*
X198111904Y-107611009D02*
X198016666Y-107658628D01*
X198016666Y-107658628D02*
X197635714Y-107658628D01*
X198588095Y-108087200D02*
X198730952Y-108134819D01*
X198730952Y-108134819D02*
X198969047Y-108134819D01*
X198969047Y-108134819D02*
X199064285Y-108087200D01*
X199064285Y-108087200D02*
X199111904Y-108039580D01*
X199111904Y-108039580D02*
X199159523Y-107944342D01*
X199159523Y-107944342D02*
X199159523Y-107849104D01*
X199159523Y-107849104D02*
X199111904Y-107753866D01*
X199111904Y-107753866D02*
X199064285Y-107706247D01*
X199064285Y-107706247D02*
X198969047Y-107658628D01*
X198969047Y-107658628D02*
X198778571Y-107611009D01*
X198778571Y-107611009D02*
X198683333Y-107563390D01*
X198683333Y-107563390D02*
X198635714Y-107515771D01*
X198635714Y-107515771D02*
X198588095Y-107420533D01*
X198588095Y-107420533D02*
X198588095Y-107325295D01*
X198588095Y-107325295D02*
X198635714Y-107230057D01*
X198635714Y-107230057D02*
X198683333Y-107182438D01*
X198683333Y-107182438D02*
X198778571Y-107134819D01*
X198778571Y-107134819D02*
X199016666Y-107134819D01*
X199016666Y-107134819D02*
X199159523Y-107182438D01*
X199445238Y-107134819D02*
X200016666Y-107134819D01*
X199730952Y-108134819D02*
X199730952Y-107134819D01*
X195516667Y-109587200D02*
X195659524Y-109634819D01*
X195659524Y-109634819D02*
X195897619Y-109634819D01*
X195897619Y-109634819D02*
X195992857Y-109587200D01*
X195992857Y-109587200D02*
X196040476Y-109539580D01*
X196040476Y-109539580D02*
X196088095Y-109444342D01*
X196088095Y-109444342D02*
X196088095Y-109349104D01*
X196088095Y-109349104D02*
X196040476Y-109253866D01*
X196040476Y-109253866D02*
X195992857Y-109206247D01*
X195992857Y-109206247D02*
X195897619Y-109158628D01*
X195897619Y-109158628D02*
X195707143Y-109111009D01*
X195707143Y-109111009D02*
X195611905Y-109063390D01*
X195611905Y-109063390D02*
X195564286Y-109015771D01*
X195564286Y-109015771D02*
X195516667Y-108920533D01*
X195516667Y-108920533D02*
X195516667Y-108825295D01*
X195516667Y-108825295D02*
X195564286Y-108730057D01*
X195564286Y-108730057D02*
X195611905Y-108682438D01*
X195611905Y-108682438D02*
X195707143Y-108634819D01*
X195707143Y-108634819D02*
X195945238Y-108634819D01*
X195945238Y-108634819D02*
X196088095Y-108682438D01*
X196421429Y-108634819D02*
X196659524Y-109634819D01*
X196659524Y-109634819D02*
X196850000Y-108920533D01*
X196850000Y-108920533D02*
X197040476Y-109634819D01*
X197040476Y-109634819D02*
X197278572Y-108634819D01*
X197564286Y-108634819D02*
X198230952Y-108634819D01*
X198230952Y-108634819D02*
X197802381Y-109634819D01*
X159972381Y-128614819D02*
X160067619Y-128614819D01*
X160067619Y-128614819D02*
X160162857Y-128662438D01*
X160162857Y-128662438D02*
X160210476Y-128710057D01*
X160210476Y-128710057D02*
X160258095Y-128805295D01*
X160258095Y-128805295D02*
X160305714Y-128995771D01*
X160305714Y-128995771D02*
X160305714Y-129233866D01*
X160305714Y-129233866D02*
X160258095Y-129424342D01*
X160258095Y-129424342D02*
X160210476Y-129519580D01*
X160210476Y-129519580D02*
X160162857Y-129567200D01*
X160162857Y-129567200D02*
X160067619Y-129614819D01*
X160067619Y-129614819D02*
X159972381Y-129614819D01*
X159972381Y-129614819D02*
X159877143Y-129567200D01*
X159877143Y-129567200D02*
X159829524Y-129519580D01*
X159829524Y-129519580D02*
X159781905Y-129424342D01*
X159781905Y-129424342D02*
X159734286Y-129233866D01*
X159734286Y-129233866D02*
X159734286Y-128995771D01*
X159734286Y-128995771D02*
X159781905Y-128805295D01*
X159781905Y-128805295D02*
X159829524Y-128710057D01*
X159829524Y-128710057D02*
X159877143Y-128662438D01*
X159877143Y-128662438D02*
X159972381Y-128614819D01*
D12*
X159936666Y-131037149D02*
X159770000Y-130799054D01*
X159650952Y-131037149D02*
X159650952Y-130537149D01*
X159650952Y-130537149D02*
X159841428Y-130537149D01*
X159841428Y-130537149D02*
X159889047Y-130560959D01*
X159889047Y-130560959D02*
X159912857Y-130584768D01*
X159912857Y-130584768D02*
X159936666Y-130632387D01*
X159936666Y-130632387D02*
X159936666Y-130703816D01*
X159936666Y-130703816D02*
X159912857Y-130751435D01*
X159912857Y-130751435D02*
X159889047Y-130775244D01*
X159889047Y-130775244D02*
X159841428Y-130799054D01*
X159841428Y-130799054D02*
X159650952Y-130799054D01*
X160412857Y-131037149D02*
X160127143Y-131037149D01*
X160270000Y-131037149D02*
X160270000Y-130537149D01*
X160270000Y-130537149D02*
X160222381Y-130608578D01*
X160222381Y-130608578D02*
X160174762Y-130656197D01*
X160174762Y-130656197D02*
X160127143Y-130680006D01*
D11*
X177061428Y-122417800D02*
X176918571Y-122370180D01*
X176918571Y-122370180D02*
X176680476Y-122370180D01*
X176680476Y-122370180D02*
X176585238Y-122417800D01*
X176585238Y-122417800D02*
X176537619Y-122465419D01*
X176537619Y-122465419D02*
X176490000Y-122560657D01*
X176490000Y-122560657D02*
X176490000Y-122655895D01*
X176490000Y-122655895D02*
X176537619Y-122751133D01*
X176537619Y-122751133D02*
X176585238Y-122798752D01*
X176585238Y-122798752D02*
X176680476Y-122846371D01*
X176680476Y-122846371D02*
X176870952Y-122893990D01*
X176870952Y-122893990D02*
X176966190Y-122941609D01*
X176966190Y-122941609D02*
X177013809Y-122989228D01*
X177013809Y-122989228D02*
X177061428Y-123084466D01*
X177061428Y-123084466D02*
X177061428Y-123179704D01*
X177061428Y-123179704D02*
X177013809Y-123274942D01*
X177013809Y-123274942D02*
X176966190Y-123322561D01*
X176966190Y-123322561D02*
X176870952Y-123370180D01*
X176870952Y-123370180D02*
X176632857Y-123370180D01*
X176632857Y-123370180D02*
X176490000Y-123322561D01*
X176156666Y-123370180D02*
X175918571Y-122370180D01*
X175918571Y-122370180D02*
X175728095Y-123084466D01*
X175728095Y-123084466D02*
X175537619Y-122370180D01*
X175537619Y-122370180D02*
X175299524Y-123370180D01*
X175156667Y-122274942D02*
X174394762Y-122274942D01*
X174204285Y-122417800D02*
X174061428Y-122370180D01*
X174061428Y-122370180D02*
X173823333Y-122370180D01*
X173823333Y-122370180D02*
X173728095Y-122417800D01*
X173728095Y-122417800D02*
X173680476Y-122465419D01*
X173680476Y-122465419D02*
X173632857Y-122560657D01*
X173632857Y-122560657D02*
X173632857Y-122655895D01*
X173632857Y-122655895D02*
X173680476Y-122751133D01*
X173680476Y-122751133D02*
X173728095Y-122798752D01*
X173728095Y-122798752D02*
X173823333Y-122846371D01*
X173823333Y-122846371D02*
X174013809Y-122893990D01*
X174013809Y-122893990D02*
X174109047Y-122941609D01*
X174109047Y-122941609D02*
X174156666Y-122989228D01*
X174156666Y-122989228D02*
X174204285Y-123084466D01*
X174204285Y-123084466D02*
X174204285Y-123179704D01*
X174204285Y-123179704D02*
X174156666Y-123274942D01*
X174156666Y-123274942D02*
X174109047Y-123322561D01*
X174109047Y-123322561D02*
X174013809Y-123370180D01*
X174013809Y-123370180D02*
X173775714Y-123370180D01*
X173775714Y-123370180D02*
X173632857Y-123322561D01*
X173204285Y-122370180D02*
X173204285Y-123370180D01*
X173204285Y-123370180D02*
X172823333Y-123370180D01*
X172823333Y-123370180D02*
X172728095Y-123322561D01*
X172728095Y-123322561D02*
X172680476Y-123274942D01*
X172680476Y-123274942D02*
X172632857Y-123179704D01*
X172632857Y-123179704D02*
X172632857Y-123036847D01*
X172632857Y-123036847D02*
X172680476Y-122941609D01*
X172680476Y-122941609D02*
X172728095Y-122893990D01*
X172728095Y-122893990D02*
X172823333Y-122846371D01*
X172823333Y-122846371D02*
X173204285Y-122846371D01*
X172251904Y-122417800D02*
X172109047Y-122370180D01*
X172109047Y-122370180D02*
X171870952Y-122370180D01*
X171870952Y-122370180D02*
X171775714Y-122417800D01*
X171775714Y-122417800D02*
X171728095Y-122465419D01*
X171728095Y-122465419D02*
X171680476Y-122560657D01*
X171680476Y-122560657D02*
X171680476Y-122655895D01*
X171680476Y-122655895D02*
X171728095Y-122751133D01*
X171728095Y-122751133D02*
X171775714Y-122798752D01*
X171775714Y-122798752D02*
X171870952Y-122846371D01*
X171870952Y-122846371D02*
X172061428Y-122893990D01*
X172061428Y-122893990D02*
X172156666Y-122941609D01*
X172156666Y-122941609D02*
X172204285Y-122989228D01*
X172204285Y-122989228D02*
X172251904Y-123084466D01*
X172251904Y-123084466D02*
X172251904Y-123179704D01*
X172251904Y-123179704D02*
X172204285Y-123274942D01*
X172204285Y-123274942D02*
X172156666Y-123322561D01*
X172156666Y-123322561D02*
X172061428Y-123370180D01*
X172061428Y-123370180D02*
X171823333Y-123370180D01*
X171823333Y-123370180D02*
X171680476Y-123322561D01*
X171394761Y-123370180D02*
X170823333Y-123370180D01*
X171109047Y-122370180D02*
X171109047Y-123370180D01*
X175799523Y-120917800D02*
X175656666Y-120870180D01*
X175656666Y-120870180D02*
X175418571Y-120870180D01*
X175418571Y-120870180D02*
X175323333Y-120917800D01*
X175323333Y-120917800D02*
X175275714Y-120965419D01*
X175275714Y-120965419D02*
X175228095Y-121060657D01*
X175228095Y-121060657D02*
X175228095Y-121155895D01*
X175228095Y-121155895D02*
X175275714Y-121251133D01*
X175275714Y-121251133D02*
X175323333Y-121298752D01*
X175323333Y-121298752D02*
X175418571Y-121346371D01*
X175418571Y-121346371D02*
X175609047Y-121393990D01*
X175609047Y-121393990D02*
X175704285Y-121441609D01*
X175704285Y-121441609D02*
X175751904Y-121489228D01*
X175751904Y-121489228D02*
X175799523Y-121584466D01*
X175799523Y-121584466D02*
X175799523Y-121679704D01*
X175799523Y-121679704D02*
X175751904Y-121774942D01*
X175751904Y-121774942D02*
X175704285Y-121822561D01*
X175704285Y-121822561D02*
X175609047Y-121870180D01*
X175609047Y-121870180D02*
X175370952Y-121870180D01*
X175370952Y-121870180D02*
X175228095Y-121822561D01*
X174894761Y-121870180D02*
X174656666Y-120870180D01*
X174656666Y-120870180D02*
X174466190Y-121584466D01*
X174466190Y-121584466D02*
X174275714Y-120870180D01*
X174275714Y-120870180D02*
X174037619Y-121870180D01*
X173132857Y-120870180D02*
X173704285Y-120870180D01*
X173418571Y-120870180D02*
X173418571Y-121870180D01*
X173418571Y-121870180D02*
X173513809Y-121727323D01*
X173513809Y-121727323D02*
X173609047Y-121632085D01*
X173609047Y-121632085D02*
X173704285Y-121584466D01*
X172751904Y-121774942D02*
X172704285Y-121822561D01*
X172704285Y-121822561D02*
X172609047Y-121870180D01*
X172609047Y-121870180D02*
X172370952Y-121870180D01*
X172370952Y-121870180D02*
X172275714Y-121822561D01*
X172275714Y-121822561D02*
X172228095Y-121774942D01*
X172228095Y-121774942D02*
X172180476Y-121679704D01*
X172180476Y-121679704D02*
X172180476Y-121584466D01*
X172180476Y-121584466D02*
X172228095Y-121441609D01*
X172228095Y-121441609D02*
X172799523Y-120870180D01*
X172799523Y-120870180D02*
X172180476Y-120870180D01*
X201398571Y-108087200D02*
X201541428Y-108134819D01*
X201541428Y-108134819D02*
X201779523Y-108134819D01*
X201779523Y-108134819D02*
X201874761Y-108087200D01*
X201874761Y-108087200D02*
X201922380Y-108039580D01*
X201922380Y-108039580D02*
X201969999Y-107944342D01*
X201969999Y-107944342D02*
X201969999Y-107849104D01*
X201969999Y-107849104D02*
X201922380Y-107753866D01*
X201922380Y-107753866D02*
X201874761Y-107706247D01*
X201874761Y-107706247D02*
X201779523Y-107658628D01*
X201779523Y-107658628D02*
X201589047Y-107611009D01*
X201589047Y-107611009D02*
X201493809Y-107563390D01*
X201493809Y-107563390D02*
X201446190Y-107515771D01*
X201446190Y-107515771D02*
X201398571Y-107420533D01*
X201398571Y-107420533D02*
X201398571Y-107325295D01*
X201398571Y-107325295D02*
X201446190Y-107230057D01*
X201446190Y-107230057D02*
X201493809Y-107182438D01*
X201493809Y-107182438D02*
X201589047Y-107134819D01*
X201589047Y-107134819D02*
X201827142Y-107134819D01*
X201827142Y-107134819D02*
X201969999Y-107182438D01*
X202303333Y-107134819D02*
X202541428Y-108134819D01*
X202541428Y-108134819D02*
X202731904Y-107420533D01*
X202731904Y-107420533D02*
X202922380Y-108134819D01*
X202922380Y-108134819D02*
X203160476Y-107134819D01*
X203303333Y-108230057D02*
X204065237Y-108230057D01*
X204255714Y-108087200D02*
X204398571Y-108134819D01*
X204398571Y-108134819D02*
X204636666Y-108134819D01*
X204636666Y-108134819D02*
X204731904Y-108087200D01*
X204731904Y-108087200D02*
X204779523Y-108039580D01*
X204779523Y-108039580D02*
X204827142Y-107944342D01*
X204827142Y-107944342D02*
X204827142Y-107849104D01*
X204827142Y-107849104D02*
X204779523Y-107753866D01*
X204779523Y-107753866D02*
X204731904Y-107706247D01*
X204731904Y-107706247D02*
X204636666Y-107658628D01*
X204636666Y-107658628D02*
X204446190Y-107611009D01*
X204446190Y-107611009D02*
X204350952Y-107563390D01*
X204350952Y-107563390D02*
X204303333Y-107515771D01*
X204303333Y-107515771D02*
X204255714Y-107420533D01*
X204255714Y-107420533D02*
X204255714Y-107325295D01*
X204255714Y-107325295D02*
X204303333Y-107230057D01*
X204303333Y-107230057D02*
X204350952Y-107182438D01*
X204350952Y-107182438D02*
X204446190Y-107134819D01*
X204446190Y-107134819D02*
X204684285Y-107134819D01*
X204684285Y-107134819D02*
X204827142Y-107182438D01*
X205255714Y-108134819D02*
X205255714Y-107134819D01*
X205255714Y-107134819D02*
X205636666Y-107134819D01*
X205636666Y-107134819D02*
X205731904Y-107182438D01*
X205731904Y-107182438D02*
X205779523Y-107230057D01*
X205779523Y-107230057D02*
X205827142Y-107325295D01*
X205827142Y-107325295D02*
X205827142Y-107468152D01*
X205827142Y-107468152D02*
X205779523Y-107563390D01*
X205779523Y-107563390D02*
X205731904Y-107611009D01*
X205731904Y-107611009D02*
X205636666Y-107658628D01*
X205636666Y-107658628D02*
X205255714Y-107658628D01*
X206208095Y-108087200D02*
X206350952Y-108134819D01*
X206350952Y-108134819D02*
X206589047Y-108134819D01*
X206589047Y-108134819D02*
X206684285Y-108087200D01*
X206684285Y-108087200D02*
X206731904Y-108039580D01*
X206731904Y-108039580D02*
X206779523Y-107944342D01*
X206779523Y-107944342D02*
X206779523Y-107849104D01*
X206779523Y-107849104D02*
X206731904Y-107753866D01*
X206731904Y-107753866D02*
X206684285Y-107706247D01*
X206684285Y-107706247D02*
X206589047Y-107658628D01*
X206589047Y-107658628D02*
X206398571Y-107611009D01*
X206398571Y-107611009D02*
X206303333Y-107563390D01*
X206303333Y-107563390D02*
X206255714Y-107515771D01*
X206255714Y-107515771D02*
X206208095Y-107420533D01*
X206208095Y-107420533D02*
X206208095Y-107325295D01*
X206208095Y-107325295D02*
X206255714Y-107230057D01*
X206255714Y-107230057D02*
X206303333Y-107182438D01*
X206303333Y-107182438D02*
X206398571Y-107134819D01*
X206398571Y-107134819D02*
X206636666Y-107134819D01*
X206636666Y-107134819D02*
X206779523Y-107182438D01*
X207065238Y-107134819D02*
X207636666Y-107134819D01*
X207350952Y-108134819D02*
X207350952Y-107134819D01*
X203136667Y-109587200D02*
X203279524Y-109634819D01*
X203279524Y-109634819D02*
X203517619Y-109634819D01*
X203517619Y-109634819D02*
X203612857Y-109587200D01*
X203612857Y-109587200D02*
X203660476Y-109539580D01*
X203660476Y-109539580D02*
X203708095Y-109444342D01*
X203708095Y-109444342D02*
X203708095Y-109349104D01*
X203708095Y-109349104D02*
X203660476Y-109253866D01*
X203660476Y-109253866D02*
X203612857Y-109206247D01*
X203612857Y-109206247D02*
X203517619Y-109158628D01*
X203517619Y-109158628D02*
X203327143Y-109111009D01*
X203327143Y-109111009D02*
X203231905Y-109063390D01*
X203231905Y-109063390D02*
X203184286Y-109015771D01*
X203184286Y-109015771D02*
X203136667Y-108920533D01*
X203136667Y-108920533D02*
X203136667Y-108825295D01*
X203136667Y-108825295D02*
X203184286Y-108730057D01*
X203184286Y-108730057D02*
X203231905Y-108682438D01*
X203231905Y-108682438D02*
X203327143Y-108634819D01*
X203327143Y-108634819D02*
X203565238Y-108634819D01*
X203565238Y-108634819D02*
X203708095Y-108682438D01*
X204041429Y-108634819D02*
X204279524Y-109634819D01*
X204279524Y-109634819D02*
X204470000Y-108920533D01*
X204470000Y-108920533D02*
X204660476Y-109634819D01*
X204660476Y-109634819D02*
X204898572Y-108634819D01*
X205422381Y-109063390D02*
X205327143Y-109015771D01*
X205327143Y-109015771D02*
X205279524Y-108968152D01*
X205279524Y-108968152D02*
X205231905Y-108872914D01*
X205231905Y-108872914D02*
X205231905Y-108825295D01*
X205231905Y-108825295D02*
X205279524Y-108730057D01*
X205279524Y-108730057D02*
X205327143Y-108682438D01*
X205327143Y-108682438D02*
X205422381Y-108634819D01*
X205422381Y-108634819D02*
X205612857Y-108634819D01*
X205612857Y-108634819D02*
X205708095Y-108682438D01*
X205708095Y-108682438D02*
X205755714Y-108730057D01*
X205755714Y-108730057D02*
X205803333Y-108825295D01*
X205803333Y-108825295D02*
X205803333Y-108872914D01*
X205803333Y-108872914D02*
X205755714Y-108968152D01*
X205755714Y-108968152D02*
X205708095Y-109015771D01*
X205708095Y-109015771D02*
X205612857Y-109063390D01*
X205612857Y-109063390D02*
X205422381Y-109063390D01*
X205422381Y-109063390D02*
X205327143Y-109111009D01*
X205327143Y-109111009D02*
X205279524Y-109158628D01*
X205279524Y-109158628D02*
X205231905Y-109253866D01*
X205231905Y-109253866D02*
X205231905Y-109444342D01*
X205231905Y-109444342D02*
X205279524Y-109539580D01*
X205279524Y-109539580D02*
X205327143Y-109587200D01*
X205327143Y-109587200D02*
X205422381Y-109634819D01*
X205422381Y-109634819D02*
X205612857Y-109634819D01*
X205612857Y-109634819D02*
X205708095Y-109587200D01*
X205708095Y-109587200D02*
X205755714Y-109539580D01*
X205755714Y-109539580D02*
X205803333Y-109444342D01*
X205803333Y-109444342D02*
X205803333Y-109253866D01*
X205803333Y-109253866D02*
X205755714Y-109158628D01*
X205755714Y-109158628D02*
X205708095Y-109111009D01*
X205708095Y-109111009D02*
X205612857Y-109063390D01*
D10*
%TO.C,R2*%
X161020000Y-129530000D02*
X159020000Y-129530000D01*
X161020000Y-128280000D02*
X161020000Y-129530000D01*
X159020000Y-129530000D02*
X159020000Y-128280000D01*
X159020000Y-128280000D02*
X161020000Y-128280000D01*
%TO.C,R3*%
X161020000Y-133340000D02*
X159020000Y-133340000D01*
X161020000Y-132090000D02*
X161020000Y-133340000D01*
X159020000Y-133340000D02*
X159020000Y-132090000D01*
X159020000Y-132090000D02*
X161020000Y-132090000D01*
%TO.C,R1*%
X161020000Y-131435000D02*
X159020000Y-131435000D01*
X161020000Y-130185000D02*
X161020000Y-131435000D01*
X159020000Y-131435000D02*
X159020000Y-130185000D01*
X159020000Y-130185000D02*
X161020000Y-130185000D01*
%TD*%
M02*
