%TF.GenerationSoftware,KiCad,Pcbnew,7.0.7*%
%TF.CreationDate,2023-10-01T14:50:08+02:00*%
%TF.ProjectId,MultiSwitch_Mcp23017_MiniSwitch,4d756c74-6953-4776-9974-63685f4d6370,1.0*%
%TF.SameCoordinates,Original*%
%TF.FileFunction,Drillmap*%
%TF.FilePolarity,Positive*%
%FSLAX45Y45*%
G04 Gerber Fmt 4.5, Leading zero omitted, Abs format (unit mm)*
G04 Created by KiCad (PCBNEW 7.0.7) date 2023-10-01 14:50:08*
%MOMM*%
%LPD*%
G01*
G04 APERTURE LIST*
%ADD10C,0.050000*%
%ADD11C,0.200000*%
G04 APERTURE END LIST*
D10*
X21805900Y-9842500D02*
G75*
G03*
X22034500Y-10071100I228600J0D01*
G01*
X21805900Y-13208000D02*
X21805900Y-13462000D01*
X22034500Y-12979400D02*
X22288500Y-12979400D01*
X21805900Y-13462000D02*
X14262100Y-13462000D01*
X14262452Y-13208000D02*
X14262452Y-13462000D01*
X14033500Y-12979047D02*
X13779500Y-12979047D01*
X22034500Y-12979400D02*
G75*
G03*
X21805900Y-13208000I0J-228600D01*
G01*
X14262100Y-9588500D02*
X21805900Y-9588500D01*
X22288500Y-10071100D02*
X22034500Y-10071100D01*
X14033500Y-10071100D02*
X13779500Y-10071100D01*
X14262100Y-9842500D02*
X14262100Y-9588500D01*
X22288500Y-12979400D02*
X22288500Y-10071100D01*
X14033500Y-10071100D02*
G75*
G03*
X14262100Y-9842500I0J228600D01*
G01*
X14262452Y-13208000D02*
G75*
G03*
X14033500Y-12979047I-228953J0D01*
G01*
X13779500Y-12979400D02*
X13779500Y-10071100D01*
X21805900Y-9842500D02*
X21805900Y-9588500D01*
D11*
X14037777Y-13775984D02*
X14037777Y-13575984D01*
X14037777Y-13575984D02*
X14085396Y-13575984D01*
X14085396Y-13575984D02*
X14113967Y-13585508D01*
X14113967Y-13585508D02*
X14133015Y-13604555D01*
X14133015Y-13604555D02*
X14142539Y-13623603D01*
X14142539Y-13623603D02*
X14152062Y-13661698D01*
X14152062Y-13661698D02*
X14152062Y-13690269D01*
X14152062Y-13690269D02*
X14142539Y-13728365D01*
X14142539Y-13728365D02*
X14133015Y-13747412D01*
X14133015Y-13747412D02*
X14113967Y-13766460D01*
X14113967Y-13766460D02*
X14085396Y-13775984D01*
X14085396Y-13775984D02*
X14037777Y-13775984D01*
X14237777Y-13775984D02*
X14237777Y-13642650D01*
X14237777Y-13680746D02*
X14247301Y-13661698D01*
X14247301Y-13661698D02*
X14256824Y-13652174D01*
X14256824Y-13652174D02*
X14275872Y-13642650D01*
X14275872Y-13642650D02*
X14294920Y-13642650D01*
X14361586Y-13775984D02*
X14361586Y-13642650D01*
X14361586Y-13575984D02*
X14352062Y-13585508D01*
X14352062Y-13585508D02*
X14361586Y-13595031D01*
X14361586Y-13595031D02*
X14371110Y-13585508D01*
X14371110Y-13585508D02*
X14361586Y-13575984D01*
X14361586Y-13575984D02*
X14361586Y-13595031D01*
X14485396Y-13775984D02*
X14466348Y-13766460D01*
X14466348Y-13766460D02*
X14456824Y-13747412D01*
X14456824Y-13747412D02*
X14456824Y-13575984D01*
X14590158Y-13775984D02*
X14571110Y-13766460D01*
X14571110Y-13766460D02*
X14561586Y-13747412D01*
X14561586Y-13747412D02*
X14561586Y-13575984D01*
X14818729Y-13775984D02*
X14818729Y-13575984D01*
X14818729Y-13575984D02*
X14885396Y-13718841D01*
X14885396Y-13718841D02*
X14952062Y-13575984D01*
X14952062Y-13575984D02*
X14952062Y-13775984D01*
X15133015Y-13775984D02*
X15133015Y-13671222D01*
X15133015Y-13671222D02*
X15123491Y-13652174D01*
X15123491Y-13652174D02*
X15104443Y-13642650D01*
X15104443Y-13642650D02*
X15066348Y-13642650D01*
X15066348Y-13642650D02*
X15047301Y-13652174D01*
X15133015Y-13766460D02*
X15113967Y-13775984D01*
X15113967Y-13775984D02*
X15066348Y-13775984D01*
X15066348Y-13775984D02*
X15047301Y-13766460D01*
X15047301Y-13766460D02*
X15037777Y-13747412D01*
X15037777Y-13747412D02*
X15037777Y-13728365D01*
X15037777Y-13728365D02*
X15047301Y-13709317D01*
X15047301Y-13709317D02*
X15066348Y-13699793D01*
X15066348Y-13699793D02*
X15113967Y-13699793D01*
X15113967Y-13699793D02*
X15133015Y-13690269D01*
X15228253Y-13642650D02*
X15228253Y-13842650D01*
X15228253Y-13652174D02*
X15247301Y-13642650D01*
X15247301Y-13642650D02*
X15285396Y-13642650D01*
X15285396Y-13642650D02*
X15304443Y-13652174D01*
X15304443Y-13652174D02*
X15313967Y-13661698D01*
X15313967Y-13661698D02*
X15323491Y-13680746D01*
X15323491Y-13680746D02*
X15323491Y-13737888D01*
X15323491Y-13737888D02*
X15313967Y-13756936D01*
X15313967Y-13756936D02*
X15304443Y-13766460D01*
X15304443Y-13766460D02*
X15285396Y-13775984D01*
X15285396Y-13775984D02*
X15247301Y-13775984D01*
X15247301Y-13775984D02*
X15228253Y-13766460D01*
X15409205Y-13756936D02*
X15418729Y-13766460D01*
X15418729Y-13766460D02*
X15409205Y-13775984D01*
X15409205Y-13775984D02*
X15399682Y-13766460D01*
X15399682Y-13766460D02*
X15409205Y-13756936D01*
X15409205Y-13756936D02*
X15409205Y-13775984D01*
X15409205Y-13652174D02*
X15418729Y-13661698D01*
X15418729Y-13661698D02*
X15409205Y-13671222D01*
X15409205Y-13671222D02*
X15399682Y-13661698D01*
X15399682Y-13661698D02*
X15409205Y-13652174D01*
X15409205Y-13652174D02*
X15409205Y-13671222D01*
M02*
