%TF.GenerationSoftware,KiCad,Pcbnew,7.0.5*%
%TF.CreationDate,2023-08-30T18:26:20+02:00*%
%TF.ProjectId,Angle&Ana,416e676c-6526-4416-9e61-2e6b69636164,1.0*%
%TF.SameCoordinates,Original*%
%TF.FileFunction,Legend,Bot*%
%TF.FilePolarity,Positive*%
%FSLAX46Y46*%
G04 Gerber Fmt 4.6, Leading zero omitted, Abs format (unit mm)*
G04 Created by KiCad (PCBNEW 7.0.5) date 2023-08-30 18:26:20*
%MOMM*%
%LPD*%
G01*
G04 APERTURE LIST*
G04 Aperture macros list*
%AMRoundRect*
0 Rectangle with rounded corners*
0 $1 Rounding radius*
0 $2 $3 $4 $5 $6 $7 $8 $9 X,Y pos of 4 corners*
0 Add a 4 corners polygon primitive as box body*
4,1,4,$2,$3,$4,$5,$6,$7,$8,$9,$2,$3,0*
0 Add four circle primitives for the rounded corners*
1,1,$1+$1,$2,$3*
1,1,$1+$1,$4,$5*
1,1,$1+$1,$6,$7*
1,1,$1+$1,$8,$9*
0 Add four rect primitives between the rounded corners*
20,1,$1+$1,$2,$3,$4,$5,0*
20,1,$1+$1,$4,$5,$6,$7,0*
20,1,$1+$1,$6,$7,$8,$9,0*
20,1,$1+$1,$8,$9,$2,$3,0*%
%AMHorizOval*
0 Thick line with rounded ends*
0 $1 width*
0 $2 $3 position (X,Y) of the first rounded end (center of the circle)*
0 $4 $5 position (X,Y) of the second rounded end (center of the circle)*
0 Add line between two ends*
20,1,$1,$2,$3,$4,$5,0*
0 Add two circle primitives to create the rounded ends*
1,1,$1,$2,$3*
1,1,$1,$4,$5*%
%AMRotRect*
0 Rectangle, with rotation*
0 The origin of the aperture is its center*
0 $1 length*
0 $2 width*
0 $3 Rotation angle, in degrees counterclockwise*
0 Add horizontal line*
21,1,$1,$2,0,0,$3*%
G04 Aperture macros list end*
%ADD10C,0.150000*%
%ADD11C,0.120000*%
%ADD12HorizOval,1.700000X0.000000X0.000000X0.000000X0.000000X0*%
%ADD13RotRect,1.700000X1.700000X315.000000*%
%ADD14C,1.524000*%
%ADD15O,1.700000X1.700000*%
%ADD16R,1.700000X1.700000*%
%ADD17C,1.600000*%
%ADD18O,1.600000X1.600000*%
%ADD19R,1.600000X1.600000*%
%ADD20O,1.200000X1.750000*%
%ADD21RoundRect,0.250000X-0.350000X-0.625000X0.350000X-0.625000X0.350000X0.625000X-0.350000X0.625000X0*%
%ADD22O,1.750000X1.200000*%
%ADD23RoundRect,0.250000X-0.625000X0.350000X-0.625000X-0.350000X0.625000X-0.350000X0.625000X0.350000X0*%
%ADD24C,1.800000*%
%ADD25R,1.800000X1.800000*%
%ADD26C,2.000000*%
%ADD27C,1.727200*%
%ADD28R,1.727200X1.727200*%
%ADD29O,1.400000X1.400000*%
%ADD30C,1.400000*%
G04 APERTURE END LIST*
D10*
X30016220Y22736134D02*
X29254316Y22736134D01*
X29635268Y22355181D02*
X29635268Y23117086D01*
X28301935Y23355181D02*
X28778125Y23355181D01*
X28778125Y23355181D02*
X28825744Y22878991D01*
X28825744Y22878991D02*
X28778125Y22926610D01*
X28778125Y22926610D02*
X28682887Y22974229D01*
X28682887Y22974229D02*
X28444792Y22974229D01*
X28444792Y22974229D02*
X28349554Y22926610D01*
X28349554Y22926610D02*
X28301935Y22878991D01*
X28301935Y22878991D02*
X28254316Y22783753D01*
X28254316Y22783753D02*
X28254316Y22545658D01*
X28254316Y22545658D02*
X28301935Y22450420D01*
X28301935Y22450420D02*
X28349554Y22402800D01*
X28349554Y22402800D02*
X28444792Y22355181D01*
X28444792Y22355181D02*
X28682887Y22355181D01*
X28682887Y22355181D02*
X28778125Y22402800D01*
X28778125Y22402800D02*
X28825744Y22450420D01*
X27968601Y23355181D02*
X27635268Y22355181D01*
X27635268Y22355181D02*
X27301935Y23355181D01*
X44224580Y23221793D02*
X44272200Y23269412D01*
X44272200Y23269412D02*
X44319819Y23412269D01*
X44319819Y23412269D02*
X44319819Y23507507D01*
X44319819Y23507507D02*
X44272200Y23650364D01*
X44272200Y23650364D02*
X44176961Y23745602D01*
X44176961Y23745602D02*
X44081723Y23793221D01*
X44081723Y23793221D02*
X43891247Y23840840D01*
X43891247Y23840840D02*
X43748390Y23840840D01*
X43748390Y23840840D02*
X43557914Y23793221D01*
X43557914Y23793221D02*
X43462676Y23745602D01*
X43462676Y23745602D02*
X43367438Y23650364D01*
X43367438Y23650364D02*
X43319819Y23507507D01*
X43319819Y23507507D02*
X43319819Y23412269D01*
X43319819Y23412269D02*
X43367438Y23269412D01*
X43367438Y23269412D02*
X43415057Y23221793D01*
X44319819Y22793221D02*
X43319819Y22793221D01*
X43319819Y22793221D02*
X43319819Y22412269D01*
X43319819Y22412269D02*
X43367438Y22317031D01*
X43367438Y22317031D02*
X43415057Y22269412D01*
X43415057Y22269412D02*
X43510295Y22221793D01*
X43510295Y22221793D02*
X43653152Y22221793D01*
X43653152Y22221793D02*
X43748390Y22269412D01*
X43748390Y22269412D02*
X43796009Y22317031D01*
X43796009Y22317031D02*
X43843628Y22412269D01*
X43843628Y22412269D02*
X43843628Y22793221D01*
X44319819Y21793221D02*
X43319819Y21793221D01*
X43319819Y21793221D02*
X43319819Y21412269D01*
X43319819Y21412269D02*
X43367438Y21317031D01*
X43367438Y21317031D02*
X43415057Y21269412D01*
X43415057Y21269412D02*
X43510295Y21221793D01*
X43510295Y21221793D02*
X43653152Y21221793D01*
X43653152Y21221793D02*
X43748390Y21269412D01*
X43748390Y21269412D02*
X43796009Y21317031D01*
X43796009Y21317031D02*
X43843628Y21412269D01*
X43843628Y21412269D02*
X43843628Y21793221D01*
X44319819Y20793221D02*
X43319819Y20793221D01*
X43319819Y20793221D02*
X44034104Y20459888D01*
X44034104Y20459888D02*
X43319819Y20126555D01*
X43319819Y20126555D02*
X44319819Y20126555D01*
X44415057Y19888459D02*
X44415057Y19126555D01*
X44319819Y18888459D02*
X43319819Y18888459D01*
X44319819Y18412269D02*
X43319819Y18412269D01*
X43319819Y18412269D02*
X44319819Y17840841D01*
X44319819Y17840841D02*
X43319819Y17840841D01*
X41684580Y23221793D02*
X41732200Y23269412D01*
X41732200Y23269412D02*
X41779819Y23412269D01*
X41779819Y23412269D02*
X41779819Y23507507D01*
X41779819Y23507507D02*
X41732200Y23650364D01*
X41732200Y23650364D02*
X41636961Y23745602D01*
X41636961Y23745602D02*
X41541723Y23793221D01*
X41541723Y23793221D02*
X41351247Y23840840D01*
X41351247Y23840840D02*
X41208390Y23840840D01*
X41208390Y23840840D02*
X41017914Y23793221D01*
X41017914Y23793221D02*
X40922676Y23745602D01*
X40922676Y23745602D02*
X40827438Y23650364D01*
X40827438Y23650364D02*
X40779819Y23507507D01*
X40779819Y23507507D02*
X40779819Y23412269D01*
X40779819Y23412269D02*
X40827438Y23269412D01*
X40827438Y23269412D02*
X40875057Y23221793D01*
X41779819Y22793221D02*
X40779819Y22793221D01*
X40779819Y22793221D02*
X40779819Y22412269D01*
X40779819Y22412269D02*
X40827438Y22317031D01*
X40827438Y22317031D02*
X40875057Y22269412D01*
X40875057Y22269412D02*
X40970295Y22221793D01*
X40970295Y22221793D02*
X41113152Y22221793D01*
X41113152Y22221793D02*
X41208390Y22269412D01*
X41208390Y22269412D02*
X41256009Y22317031D01*
X41256009Y22317031D02*
X41303628Y22412269D01*
X41303628Y22412269D02*
X41303628Y22793221D01*
X41779819Y21793221D02*
X40779819Y21793221D01*
X40779819Y21793221D02*
X40779819Y21412269D01*
X40779819Y21412269D02*
X40827438Y21317031D01*
X40827438Y21317031D02*
X40875057Y21269412D01*
X40875057Y21269412D02*
X40970295Y21221793D01*
X40970295Y21221793D02*
X41113152Y21221793D01*
X41113152Y21221793D02*
X41208390Y21269412D01*
X41208390Y21269412D02*
X41256009Y21317031D01*
X41256009Y21317031D02*
X41303628Y21412269D01*
X41303628Y21412269D02*
X41303628Y21793221D01*
X41779819Y20793221D02*
X40779819Y20793221D01*
X40779819Y20793221D02*
X41494104Y20459888D01*
X41494104Y20459888D02*
X40779819Y20126555D01*
X40779819Y20126555D02*
X41779819Y20126555D01*
X41875057Y19888459D02*
X41875057Y19126555D01*
X40779819Y18697983D02*
X40779819Y18507507D01*
X40779819Y18507507D02*
X40827438Y18412269D01*
X40827438Y18412269D02*
X40922676Y18317031D01*
X40922676Y18317031D02*
X41113152Y18269412D01*
X41113152Y18269412D02*
X41446485Y18269412D01*
X41446485Y18269412D02*
X41636961Y18317031D01*
X41636961Y18317031D02*
X41732200Y18412269D01*
X41732200Y18412269D02*
X41779819Y18507507D01*
X41779819Y18507507D02*
X41779819Y18697983D01*
X41779819Y18697983D02*
X41732200Y18793221D01*
X41732200Y18793221D02*
X41636961Y18888459D01*
X41636961Y18888459D02*
X41446485Y18936078D01*
X41446485Y18936078D02*
X41113152Y18936078D01*
X41113152Y18936078D02*
X40922676Y18888459D01*
X40922676Y18888459D02*
X40827438Y18793221D01*
X40827438Y18793221D02*
X40779819Y18697983D01*
X40779819Y17840840D02*
X41589342Y17840840D01*
X41589342Y17840840D02*
X41684580Y17793221D01*
X41684580Y17793221D02*
X41732200Y17745602D01*
X41732200Y17745602D02*
X41779819Y17650364D01*
X41779819Y17650364D02*
X41779819Y17459888D01*
X41779819Y17459888D02*
X41732200Y17364650D01*
X41732200Y17364650D02*
X41684580Y17317031D01*
X41684580Y17317031D02*
X41589342Y17269412D01*
X41589342Y17269412D02*
X40779819Y17269412D01*
X40779819Y16936078D02*
X40779819Y16364650D01*
X41779819Y16650364D02*
X40779819Y16650364D01*
X38287438Y23269412D02*
X38239819Y23364650D01*
X38239819Y23364650D02*
X38239819Y23507507D01*
X38239819Y23507507D02*
X38287438Y23650364D01*
X38287438Y23650364D02*
X38382676Y23745602D01*
X38382676Y23745602D02*
X38477914Y23793221D01*
X38477914Y23793221D02*
X38668390Y23840840D01*
X38668390Y23840840D02*
X38811247Y23840840D01*
X38811247Y23840840D02*
X39001723Y23793221D01*
X39001723Y23793221D02*
X39096961Y23745602D01*
X39096961Y23745602D02*
X39192200Y23650364D01*
X39192200Y23650364D02*
X39239819Y23507507D01*
X39239819Y23507507D02*
X39239819Y23412269D01*
X39239819Y23412269D02*
X39192200Y23269412D01*
X39192200Y23269412D02*
X39144580Y23221793D01*
X39144580Y23221793D02*
X38811247Y23221793D01*
X38811247Y23221793D02*
X38811247Y23412269D01*
X39239819Y22793221D02*
X38239819Y22793221D01*
X38239819Y22793221D02*
X39239819Y22221793D01*
X39239819Y22221793D02*
X38239819Y22221793D01*
X39239819Y21745602D02*
X38239819Y21745602D01*
X38239819Y21745602D02*
X38239819Y21507507D01*
X38239819Y21507507D02*
X38287438Y21364650D01*
X38287438Y21364650D02*
X38382676Y21269412D01*
X38382676Y21269412D02*
X38477914Y21221793D01*
X38477914Y21221793D02*
X38668390Y21174174D01*
X38668390Y21174174D02*
X38811247Y21174174D01*
X38811247Y21174174D02*
X39001723Y21221793D01*
X39001723Y21221793D02*
X39096961Y21269412D01*
X39096961Y21269412D02*
X39192200Y21364650D01*
X39192200Y21364650D02*
X39239819Y21507507D01*
X39239819Y21507507D02*
X39239819Y21745602D01*
X25571220Y22863134D02*
X24809316Y22863134D01*
X25190268Y22482181D02*
X25190268Y23244086D01*
X24475982Y23482181D02*
X24142649Y22482181D01*
X24142649Y22482181D02*
X23809316Y23482181D01*
X23475982Y23005991D02*
X23142649Y23005991D01*
X22999792Y22482181D02*
X23475982Y22482181D01*
X23475982Y22482181D02*
X23475982Y23482181D01*
X23475982Y23482181D02*
X22999792Y23482181D01*
X22666458Y23482181D02*
X21999792Y22482181D01*
X21999792Y23482181D02*
X22666458Y22482181D01*
X21761696Y23482181D02*
X21190268Y23482181D01*
X21475982Y22482181D02*
X21475982Y23482181D01*
X37652077Y24117181D02*
X37318744Y23117181D01*
X37318744Y23117181D02*
X36985411Y24117181D01*
X36652077Y23640991D02*
X36318744Y23640991D01*
X36175887Y23117181D02*
X36652077Y23117181D01*
X36652077Y23117181D02*
X36652077Y24117181D01*
X36652077Y24117181D02*
X36175887Y24117181D01*
X35842553Y24117181D02*
X35175887Y23117181D01*
X35175887Y24117181D02*
X35842553Y23117181D01*
X34937791Y24117181D02*
X34366363Y24117181D01*
X34652077Y23117181D02*
X34652077Y24117181D01*
%TO.C,J7*%
X2619333Y14388181D02*
X2619333Y13673896D01*
X2619333Y13673896D02*
X2666952Y13531039D01*
X2666952Y13531039D02*
X2762190Y13435800D01*
X2762190Y13435800D02*
X2905047Y13388181D01*
X2905047Y13388181D02*
X3000285Y13388181D01*
X2238380Y14388181D02*
X1571714Y14388181D01*
X1571714Y14388181D02*
X2000285Y13388181D01*
%TO.C,C2*%
X53506666Y8022420D02*
X53554285Y7974800D01*
X53554285Y7974800D02*
X53697142Y7927181D01*
X53697142Y7927181D02*
X53792380Y7927181D01*
X53792380Y7927181D02*
X53935237Y7974800D01*
X53935237Y7974800D02*
X54030475Y8070039D01*
X54030475Y8070039D02*
X54078094Y8165277D01*
X54078094Y8165277D02*
X54125713Y8355753D01*
X54125713Y8355753D02*
X54125713Y8498610D01*
X54125713Y8498610D02*
X54078094Y8689086D01*
X54078094Y8689086D02*
X54030475Y8784324D01*
X54030475Y8784324D02*
X53935237Y8879562D01*
X53935237Y8879562D02*
X53792380Y8927181D01*
X53792380Y8927181D02*
X53697142Y8927181D01*
X53697142Y8927181D02*
X53554285Y8879562D01*
X53554285Y8879562D02*
X53506666Y8831943D01*
X53125713Y8831943D02*
X53078094Y8879562D01*
X53078094Y8879562D02*
X52982856Y8927181D01*
X52982856Y8927181D02*
X52744761Y8927181D01*
X52744761Y8927181D02*
X52649523Y8879562D01*
X52649523Y8879562D02*
X52601904Y8831943D01*
X52601904Y8831943D02*
X52554285Y8736705D01*
X52554285Y8736705D02*
X52554285Y8641467D01*
X52554285Y8641467D02*
X52601904Y8498610D01*
X52601904Y8498610D02*
X53173332Y7927181D01*
X53173332Y7927181D02*
X52554285Y7927181D01*
%TO.C,C3*%
X28868666Y34565420D02*
X28916285Y34517800D01*
X28916285Y34517800D02*
X29059142Y34470181D01*
X29059142Y34470181D02*
X29154380Y34470181D01*
X29154380Y34470181D02*
X29297237Y34517800D01*
X29297237Y34517800D02*
X29392475Y34613039D01*
X29392475Y34613039D02*
X29440094Y34708277D01*
X29440094Y34708277D02*
X29487713Y34898753D01*
X29487713Y34898753D02*
X29487713Y35041610D01*
X29487713Y35041610D02*
X29440094Y35232086D01*
X29440094Y35232086D02*
X29392475Y35327324D01*
X29392475Y35327324D02*
X29297237Y35422562D01*
X29297237Y35422562D02*
X29154380Y35470181D01*
X29154380Y35470181D02*
X29059142Y35470181D01*
X29059142Y35470181D02*
X28916285Y35422562D01*
X28916285Y35422562D02*
X28868666Y35374943D01*
X28535332Y35470181D02*
X27916285Y35470181D01*
X27916285Y35470181D02*
X28249618Y35089229D01*
X28249618Y35089229D02*
X28106761Y35089229D01*
X28106761Y35089229D02*
X28011523Y35041610D01*
X28011523Y35041610D02*
X27963904Y34993991D01*
X27963904Y34993991D02*
X27916285Y34898753D01*
X27916285Y34898753D02*
X27916285Y34660658D01*
X27916285Y34660658D02*
X27963904Y34565420D01*
X27963904Y34565420D02*
X28011523Y34517800D01*
X28011523Y34517800D02*
X28106761Y34470181D01*
X28106761Y34470181D02*
X28392475Y34470181D01*
X28392475Y34470181D02*
X28487713Y34517800D01*
X28487713Y34517800D02*
X28535332Y34565420D01*
%TO.C,U1*%
X57784904Y9562181D02*
X57784904Y8752658D01*
X57784904Y8752658D02*
X57737285Y8657420D01*
X57737285Y8657420D02*
X57689666Y8609800D01*
X57689666Y8609800D02*
X57594428Y8562181D01*
X57594428Y8562181D02*
X57403952Y8562181D01*
X57403952Y8562181D02*
X57308714Y8609800D01*
X57308714Y8609800D02*
X57261095Y8657420D01*
X57261095Y8657420D02*
X57213476Y8752658D01*
X57213476Y8752658D02*
X57213476Y9562181D01*
X56213476Y8562181D02*
X56784904Y8562181D01*
X56499190Y8562181D02*
X56499190Y9562181D01*
X56499190Y9562181D02*
X56594428Y9419324D01*
X56594428Y9419324D02*
X56689666Y9324086D01*
X56689666Y9324086D02*
X56784904Y9276467D01*
%TO.C,J10*%
X20367523Y4355181D02*
X20367523Y3640896D01*
X20367523Y3640896D02*
X20415142Y3498039D01*
X20415142Y3498039D02*
X20510380Y3402800D01*
X20510380Y3402800D02*
X20653237Y3355181D01*
X20653237Y3355181D02*
X20748475Y3355181D01*
X19367523Y3355181D02*
X19938951Y3355181D01*
X19653237Y3355181D02*
X19653237Y4355181D01*
X19653237Y4355181D02*
X19748475Y4212324D01*
X19748475Y4212324D02*
X19843713Y4117086D01*
X19843713Y4117086D02*
X19938951Y4069467D01*
X18748475Y4355181D02*
X18653237Y4355181D01*
X18653237Y4355181D02*
X18557999Y4307562D01*
X18557999Y4307562D02*
X18510380Y4259943D01*
X18510380Y4259943D02*
X18462761Y4164705D01*
X18462761Y4164705D02*
X18415142Y3974229D01*
X18415142Y3974229D02*
X18415142Y3736134D01*
X18415142Y3736134D02*
X18462761Y3545658D01*
X18462761Y3545658D02*
X18510380Y3450420D01*
X18510380Y3450420D02*
X18557999Y3402800D01*
X18557999Y3402800D02*
X18653237Y3355181D01*
X18653237Y3355181D02*
X18748475Y3355181D01*
X18748475Y3355181D02*
X18843713Y3402800D01*
X18843713Y3402800D02*
X18891332Y3450420D01*
X18891332Y3450420D02*
X18938951Y3545658D01*
X18938951Y3545658D02*
X18986570Y3736134D01*
X18986570Y3736134D02*
X18986570Y3974229D01*
X18986570Y3974229D02*
X18938951Y4164705D01*
X18938951Y4164705D02*
X18891332Y4259943D01*
X18891332Y4259943D02*
X18843713Y4307562D01*
X18843713Y4307562D02*
X18748475Y4355181D01*
%TO.C,SW2*%
X21780332Y24992800D02*
X21637475Y24945181D01*
X21637475Y24945181D02*
X21399380Y24945181D01*
X21399380Y24945181D02*
X21304142Y24992800D01*
X21304142Y24992800D02*
X21256523Y25040420D01*
X21256523Y25040420D02*
X21208904Y25135658D01*
X21208904Y25135658D02*
X21208904Y25230896D01*
X21208904Y25230896D02*
X21256523Y25326134D01*
X21256523Y25326134D02*
X21304142Y25373753D01*
X21304142Y25373753D02*
X21399380Y25421372D01*
X21399380Y25421372D02*
X21589856Y25468991D01*
X21589856Y25468991D02*
X21685094Y25516610D01*
X21685094Y25516610D02*
X21732713Y25564229D01*
X21732713Y25564229D02*
X21780332Y25659467D01*
X21780332Y25659467D02*
X21780332Y25754705D01*
X21780332Y25754705D02*
X21732713Y25849943D01*
X21732713Y25849943D02*
X21685094Y25897562D01*
X21685094Y25897562D02*
X21589856Y25945181D01*
X21589856Y25945181D02*
X21351761Y25945181D01*
X21351761Y25945181D02*
X21208904Y25897562D01*
X20875570Y25945181D02*
X20637475Y24945181D01*
X20637475Y24945181D02*
X20446999Y25659467D01*
X20446999Y25659467D02*
X20256523Y24945181D01*
X20256523Y24945181D02*
X20018428Y25945181D01*
X19685094Y25849943D02*
X19637475Y25897562D01*
X19637475Y25897562D02*
X19542237Y25945181D01*
X19542237Y25945181D02*
X19304142Y25945181D01*
X19304142Y25945181D02*
X19208904Y25897562D01*
X19208904Y25897562D02*
X19161285Y25849943D01*
X19161285Y25849943D02*
X19113666Y25754705D01*
X19113666Y25754705D02*
X19113666Y25659467D01*
X19113666Y25659467D02*
X19161285Y25516610D01*
X19161285Y25516610D02*
X19732713Y24945181D01*
X19732713Y24945181D02*
X19113666Y24945181D01*
%TO.C,J3*%
X78946333Y28612181D02*
X78946333Y27897896D01*
X78946333Y27897896D02*
X78993952Y27755039D01*
X78993952Y27755039D02*
X79089190Y27659800D01*
X79089190Y27659800D02*
X79232047Y27612181D01*
X79232047Y27612181D02*
X79327285Y27612181D01*
X78565380Y28612181D02*
X77946333Y28612181D01*
X77946333Y28612181D02*
X78279666Y28231229D01*
X78279666Y28231229D02*
X78136809Y28231229D01*
X78136809Y28231229D02*
X78041571Y28183610D01*
X78041571Y28183610D02*
X77993952Y28135991D01*
X77993952Y28135991D02*
X77946333Y28040753D01*
X77946333Y28040753D02*
X77946333Y27802658D01*
X77946333Y27802658D02*
X77993952Y27707420D01*
X77993952Y27707420D02*
X78041571Y27659800D01*
X78041571Y27659800D02*
X78136809Y27612181D01*
X78136809Y27612181D02*
X78422523Y27612181D01*
X78422523Y27612181D02*
X78517761Y27659800D01*
X78517761Y27659800D02*
X78565380Y27707420D01*
%TO.C,C1*%
X17184666Y30628420D02*
X17232285Y30580800D01*
X17232285Y30580800D02*
X17375142Y30533181D01*
X17375142Y30533181D02*
X17470380Y30533181D01*
X17470380Y30533181D02*
X17613237Y30580800D01*
X17613237Y30580800D02*
X17708475Y30676039D01*
X17708475Y30676039D02*
X17756094Y30771277D01*
X17756094Y30771277D02*
X17803713Y30961753D01*
X17803713Y30961753D02*
X17803713Y31104610D01*
X17803713Y31104610D02*
X17756094Y31295086D01*
X17756094Y31295086D02*
X17708475Y31390324D01*
X17708475Y31390324D02*
X17613237Y31485562D01*
X17613237Y31485562D02*
X17470380Y31533181D01*
X17470380Y31533181D02*
X17375142Y31533181D01*
X17375142Y31533181D02*
X17232285Y31485562D01*
X17232285Y31485562D02*
X17184666Y31437943D01*
X16232285Y30533181D02*
X16803713Y30533181D01*
X16517999Y30533181D02*
X16517999Y31533181D01*
X16517999Y31533181D02*
X16613237Y31390324D01*
X16613237Y31390324D02*
X16708475Y31295086D01*
X16708475Y31295086D02*
X16803713Y31247467D01*
%TO.C,J9*%
X10112333Y10197181D02*
X10112333Y9482896D01*
X10112333Y9482896D02*
X10159952Y9340039D01*
X10159952Y9340039D02*
X10255190Y9244800D01*
X10255190Y9244800D02*
X10398047Y9197181D01*
X10398047Y9197181D02*
X10493285Y9197181D01*
X9588523Y9197181D02*
X9398047Y9197181D01*
X9398047Y9197181D02*
X9302809Y9244800D01*
X9302809Y9244800D02*
X9255190Y9292420D01*
X9255190Y9292420D02*
X9159952Y9435277D01*
X9159952Y9435277D02*
X9112333Y9625753D01*
X9112333Y9625753D02*
X9112333Y10006705D01*
X9112333Y10006705D02*
X9159952Y10101943D01*
X9159952Y10101943D02*
X9207571Y10149562D01*
X9207571Y10149562D02*
X9302809Y10197181D01*
X9302809Y10197181D02*
X9493285Y10197181D01*
X9493285Y10197181D02*
X9588523Y10149562D01*
X9588523Y10149562D02*
X9636142Y10101943D01*
X9636142Y10101943D02*
X9683761Y10006705D01*
X9683761Y10006705D02*
X9683761Y9768610D01*
X9683761Y9768610D02*
X9636142Y9673372D01*
X9636142Y9673372D02*
X9588523Y9625753D01*
X9588523Y9625753D02*
X9493285Y9578134D01*
X9493285Y9578134D02*
X9302809Y9578134D01*
X9302809Y9578134D02*
X9207571Y9625753D01*
X9207571Y9625753D02*
X9159952Y9673372D01*
X9159952Y9673372D02*
X9112333Y9768610D01*
%TO.C,J6*%
X71072333Y14261181D02*
X71072333Y13546896D01*
X71072333Y13546896D02*
X71119952Y13404039D01*
X71119952Y13404039D02*
X71215190Y13308800D01*
X71215190Y13308800D02*
X71358047Y13261181D01*
X71358047Y13261181D02*
X71453285Y13261181D01*
X70167571Y14261181D02*
X70358047Y14261181D01*
X70358047Y14261181D02*
X70453285Y14213562D01*
X70453285Y14213562D02*
X70500904Y14165943D01*
X70500904Y14165943D02*
X70596142Y14023086D01*
X70596142Y14023086D02*
X70643761Y13832610D01*
X70643761Y13832610D02*
X70643761Y13451658D01*
X70643761Y13451658D02*
X70596142Y13356420D01*
X70596142Y13356420D02*
X70548523Y13308800D01*
X70548523Y13308800D02*
X70453285Y13261181D01*
X70453285Y13261181D02*
X70262809Y13261181D01*
X70262809Y13261181D02*
X70167571Y13308800D01*
X70167571Y13308800D02*
X70119952Y13356420D01*
X70119952Y13356420D02*
X70072333Y13451658D01*
X70072333Y13451658D02*
X70072333Y13689753D01*
X70072333Y13689753D02*
X70119952Y13784991D01*
X70119952Y13784991D02*
X70167571Y13832610D01*
X70167571Y13832610D02*
X70262809Y13880229D01*
X70262809Y13880229D02*
X70453285Y13880229D01*
X70453285Y13880229D02*
X70548523Y13832610D01*
X70548523Y13832610D02*
X70596142Y13784991D01*
X70596142Y13784991D02*
X70643761Y13689753D01*
%TO.C,D1*%
X64258094Y26510181D02*
X64258094Y27510181D01*
X64258094Y27510181D02*
X64019999Y27510181D01*
X64019999Y27510181D02*
X63877142Y27462562D01*
X63877142Y27462562D02*
X63781904Y27367324D01*
X63781904Y27367324D02*
X63734285Y27272086D01*
X63734285Y27272086D02*
X63686666Y27081610D01*
X63686666Y27081610D02*
X63686666Y26938753D01*
X63686666Y26938753D02*
X63734285Y26748277D01*
X63734285Y26748277D02*
X63781904Y26653039D01*
X63781904Y26653039D02*
X63877142Y26557800D01*
X63877142Y26557800D02*
X64019999Y26510181D01*
X64019999Y26510181D02*
X64258094Y26510181D01*
X62734285Y26510181D02*
X63305713Y26510181D01*
X63019999Y26510181D02*
X63019999Y27510181D01*
X63019999Y27510181D02*
X63115237Y27367324D01*
X63115237Y27367324D02*
X63210475Y27272086D01*
X63210475Y27272086D02*
X63305713Y27224467D01*
%TO.C,SW1*%
X56253332Y26937800D02*
X56110475Y26890181D01*
X56110475Y26890181D02*
X55872380Y26890181D01*
X55872380Y26890181D02*
X55777142Y26937800D01*
X55777142Y26937800D02*
X55729523Y26985420D01*
X55729523Y26985420D02*
X55681904Y27080658D01*
X55681904Y27080658D02*
X55681904Y27175896D01*
X55681904Y27175896D02*
X55729523Y27271134D01*
X55729523Y27271134D02*
X55777142Y27318753D01*
X55777142Y27318753D02*
X55872380Y27366372D01*
X55872380Y27366372D02*
X56062856Y27413991D01*
X56062856Y27413991D02*
X56158094Y27461610D01*
X56158094Y27461610D02*
X56205713Y27509229D01*
X56205713Y27509229D02*
X56253332Y27604467D01*
X56253332Y27604467D02*
X56253332Y27699705D01*
X56253332Y27699705D02*
X56205713Y27794943D01*
X56205713Y27794943D02*
X56158094Y27842562D01*
X56158094Y27842562D02*
X56062856Y27890181D01*
X56062856Y27890181D02*
X55824761Y27890181D01*
X55824761Y27890181D02*
X55681904Y27842562D01*
X55348570Y27890181D02*
X55110475Y26890181D01*
X55110475Y26890181D02*
X54919999Y27604467D01*
X54919999Y27604467D02*
X54729523Y26890181D01*
X54729523Y26890181D02*
X54491428Y27890181D01*
X53586666Y26890181D02*
X54158094Y26890181D01*
X53872380Y26890181D02*
X53872380Y27890181D01*
X53872380Y27890181D02*
X53967618Y27747324D01*
X53967618Y27747324D02*
X54062856Y27652086D01*
X54062856Y27652086D02*
X54158094Y27604467D01*
%TO.C,U3*%
X47624904Y35851181D02*
X47624904Y35041658D01*
X47624904Y35041658D02*
X47577285Y34946420D01*
X47577285Y34946420D02*
X47529666Y34898800D01*
X47529666Y34898800D02*
X47434428Y34851181D01*
X47434428Y34851181D02*
X47243952Y34851181D01*
X47243952Y34851181D02*
X47148714Y34898800D01*
X47148714Y34898800D02*
X47101095Y34946420D01*
X47101095Y34946420D02*
X47053476Y35041658D01*
X47053476Y35041658D02*
X47053476Y35851181D01*
X46672523Y35851181D02*
X46053476Y35851181D01*
X46053476Y35851181D02*
X46386809Y35470229D01*
X46386809Y35470229D02*
X46243952Y35470229D01*
X46243952Y35470229D02*
X46148714Y35422610D01*
X46148714Y35422610D02*
X46101095Y35374991D01*
X46101095Y35374991D02*
X46053476Y35279753D01*
X46053476Y35279753D02*
X46053476Y35041658D01*
X46053476Y35041658D02*
X46101095Y34946420D01*
X46101095Y34946420D02*
X46148714Y34898800D01*
X46148714Y34898800D02*
X46243952Y34851181D01*
X46243952Y34851181D02*
X46529666Y34851181D01*
X46529666Y34851181D02*
X46624904Y34898800D01*
X46624904Y34898800D02*
X46672523Y34946420D01*
%TO.C,J1*%
X40211333Y31660181D02*
X40211333Y30945896D01*
X40211333Y30945896D02*
X40258952Y30803039D01*
X40258952Y30803039D02*
X40354190Y30707800D01*
X40354190Y30707800D02*
X40497047Y30660181D01*
X40497047Y30660181D02*
X40592285Y30660181D01*
X39211333Y30660181D02*
X39782761Y30660181D01*
X39497047Y30660181D02*
X39497047Y31660181D01*
X39497047Y31660181D02*
X39592285Y31517324D01*
X39592285Y31517324D02*
X39687523Y31422086D01*
X39687523Y31422086D02*
X39782761Y31374467D01*
%TO.C,J5*%
X71834333Y22262181D02*
X71834333Y21547896D01*
X71834333Y21547896D02*
X71881952Y21405039D01*
X71881952Y21405039D02*
X71977190Y21309800D01*
X71977190Y21309800D02*
X72120047Y21262181D01*
X72120047Y21262181D02*
X72215285Y21262181D01*
X70881952Y22262181D02*
X71358142Y22262181D01*
X71358142Y22262181D02*
X71405761Y21785991D01*
X71405761Y21785991D02*
X71358142Y21833610D01*
X71358142Y21833610D02*
X71262904Y21881229D01*
X71262904Y21881229D02*
X71024809Y21881229D01*
X71024809Y21881229D02*
X70929571Y21833610D01*
X70929571Y21833610D02*
X70881952Y21785991D01*
X70881952Y21785991D02*
X70834333Y21690753D01*
X70834333Y21690753D02*
X70834333Y21452658D01*
X70834333Y21452658D02*
X70881952Y21357420D01*
X70881952Y21357420D02*
X70929571Y21309800D01*
X70929571Y21309800D02*
X71024809Y21262181D01*
X71024809Y21262181D02*
X71262904Y21262181D01*
X71262904Y21262181D02*
X71358142Y21309800D01*
X71358142Y21309800D02*
X71405761Y21357420D01*
%TO.C,R1*%
X67476666Y21755181D02*
X67809999Y22231372D01*
X68048094Y21755181D02*
X68048094Y22755181D01*
X68048094Y22755181D02*
X67667142Y22755181D01*
X67667142Y22755181D02*
X67571904Y22707562D01*
X67571904Y22707562D02*
X67524285Y22659943D01*
X67524285Y22659943D02*
X67476666Y22564705D01*
X67476666Y22564705D02*
X67476666Y22421848D01*
X67476666Y22421848D02*
X67524285Y22326610D01*
X67524285Y22326610D02*
X67571904Y22278991D01*
X67571904Y22278991D02*
X67667142Y22231372D01*
X67667142Y22231372D02*
X68048094Y22231372D01*
X66524285Y21755181D02*
X67095713Y21755181D01*
X66809999Y21755181D02*
X66809999Y22755181D01*
X66809999Y22755181D02*
X66905237Y22612324D01*
X66905237Y22612324D02*
X67000475Y22517086D01*
X67000475Y22517086D02*
X67095713Y22469467D01*
%TO.C,J4*%
X-174667Y26326181D02*
X-174667Y25611896D01*
X-174667Y25611896D02*
X-127048Y25469039D01*
X-127048Y25469039D02*
X-31810Y25373800D01*
X-31810Y25373800D02*
X111047Y25326181D01*
X111047Y25326181D02*
X206285Y25326181D01*
X-1079429Y25992848D02*
X-1079429Y25326181D01*
X-841334Y26373800D02*
X-603239Y25659515D01*
X-603239Y25659515D02*
X-1222286Y25659515D01*
%TO.C,J2*%
X68532333Y2704181D02*
X68532333Y1989896D01*
X68532333Y1989896D02*
X68579952Y1847039D01*
X68579952Y1847039D02*
X68675190Y1751800D01*
X68675190Y1751800D02*
X68818047Y1704181D01*
X68818047Y1704181D02*
X68913285Y1704181D01*
X68103761Y2608943D02*
X68056142Y2656562D01*
X68056142Y2656562D02*
X67960904Y2704181D01*
X67960904Y2704181D02*
X67722809Y2704181D01*
X67722809Y2704181D02*
X67627571Y2656562D01*
X67627571Y2656562D02*
X67579952Y2608943D01*
X67579952Y2608943D02*
X67532333Y2513705D01*
X67532333Y2513705D02*
X67532333Y2418467D01*
X67532333Y2418467D02*
X67579952Y2275610D01*
X67579952Y2275610D02*
X68151380Y1704181D01*
X68151380Y1704181D02*
X67532333Y1704181D01*
D11*
%TO.C,J7*%
X-10800000Y11810000D02*
X-10800000Y11050000D01*
X-10800000Y11050000D02*
X-4800000Y11050000D01*
X-10800000Y9270000D02*
X-10800000Y8510000D01*
X-10800000Y8510000D02*
X-4800000Y8510000D01*
X-10800000Y6730000D02*
X-10800000Y5970000D01*
X-10800000Y5970000D02*
X-4800000Y5970000D01*
X-10800000Y4190000D02*
X-10800000Y3430000D01*
X-10800000Y3430000D02*
X-4800000Y3430000D01*
X-4800000Y12760000D02*
X-2140000Y12760000D01*
X-4800000Y11810000D02*
X-10800000Y11810000D01*
X-4800000Y11750000D02*
X-10800000Y11750000D01*
X-4800000Y11630000D02*
X-10800000Y11630000D01*
X-4800000Y11510000D02*
X-10800000Y11510000D01*
X-4800000Y11390000D02*
X-10800000Y11390000D01*
X-4800000Y11270000D02*
X-10800000Y11270000D01*
X-4800000Y11150000D02*
X-10800000Y11150000D01*
X-4800000Y9270000D02*
X-10800000Y9270000D01*
X-4800000Y6730000D02*
X-10800000Y6730000D01*
X-4800000Y4190000D02*
X-10800000Y4190000D01*
X-4800000Y2480000D02*
X-4800000Y12760000D01*
X-2140000Y12760000D02*
X-2140000Y2480000D01*
X-2140000Y10160000D02*
X-4800000Y10160000D01*
X-2140000Y7620000D02*
X-4800000Y7620000D01*
X-2140000Y5080000D02*
X-4800000Y5080000D01*
X-2140000Y2480000D02*
X-4800000Y2480000D01*
X-1742929Y11810000D02*
X-2140000Y11810000D01*
X-1742929Y11050000D02*
X-2140000Y11050000D01*
X-1742929Y9270000D02*
X-2140000Y9270000D01*
X-1742929Y8510000D02*
X-2140000Y8510000D01*
X-1742929Y6730000D02*
X-2140000Y6730000D01*
X-1742929Y5970000D02*
X-2140000Y5970000D01*
X-1742929Y4190000D02*
X-2140000Y4190000D01*
X-1742929Y3430000D02*
X-2140000Y3430000D01*
X730000Y11810000D02*
X342929Y11810000D01*
X730000Y11050000D02*
X342929Y11050000D01*
X797071Y9270000D02*
X342929Y9270000D01*
X797071Y8510000D02*
X342929Y8510000D01*
X797071Y6730000D02*
X342929Y6730000D01*
X797071Y5970000D02*
X342929Y5970000D01*
X797071Y4190000D02*
X342929Y4190000D01*
X797071Y3430000D02*
X342929Y3430000D01*
X3110000Y12700000D02*
X1840000Y12700000D01*
X3110000Y11430000D02*
X3110000Y12700000D01*
%TO.C,C2*%
X55210000Y7390000D02*
X51470000Y7390000D01*
X55210000Y150000D02*
X55210000Y7390000D01*
X55210000Y150000D02*
X51470000Y150000D01*
X51470000Y150000D02*
X51470000Y7390000D01*
%TO.C,C3*%
X26832000Y26860000D02*
X30572000Y26860000D01*
X26832000Y34100000D02*
X26832000Y26860000D01*
X26832000Y34100000D02*
X30572000Y34100000D01*
X30572000Y34100000D02*
X30572000Y26860000D01*
%TO.C,U1*%
X55820000Y2175000D02*
G75*
G03*
X55820000Y4175000I0J1000000D01*
G01*
X55820000Y525000D02*
X55820000Y2175000D01*
X66100000Y525000D02*
X55820000Y525000D01*
X55820000Y4175000D02*
X55820000Y5825000D01*
X55820000Y5825000D02*
X66100000Y5825000D01*
X66100000Y5825000D02*
X66100000Y525000D01*
%TO.C,J10*%
X30000000Y-1810000D02*
X9880000Y-1810000D01*
X30000000Y-500000D02*
X29390000Y-500000D01*
X30000000Y800000D02*
X29390000Y800000D01*
X30000000Y2910000D02*
X30000000Y-1810000D01*
X29390000Y-1200000D02*
X27440000Y-1200000D01*
X29390000Y2300000D02*
X29390000Y-1200000D01*
X27440000Y-1200000D02*
X27440000Y-1810000D01*
X27040000Y1800000D02*
X27040000Y2300000D01*
X26940000Y2300000D02*
X26940000Y1800000D01*
X26840000Y1800000D02*
X27040000Y1800000D01*
X26840000Y2300000D02*
X26840000Y1800000D01*
X25040000Y1800000D02*
X25040000Y2300000D01*
X24940000Y2300000D02*
X24940000Y1800000D01*
X24840000Y1800000D02*
X25040000Y1800000D01*
X24840000Y2300000D02*
X24840000Y1800000D01*
X23040000Y1800000D02*
X23040000Y2300000D01*
X22940000Y2300000D02*
X22940000Y1800000D01*
X22840000Y1800000D02*
X23040000Y1800000D01*
X22840000Y2300000D02*
X22840000Y1800000D01*
X21040000Y1800000D02*
X21040000Y2300000D01*
X20940000Y2300000D02*
X20940000Y1800000D01*
X20840000Y1800000D02*
X21040000Y1800000D01*
X20840000Y2300000D02*
X20840000Y1800000D01*
X19040000Y1800000D02*
X19040000Y2300000D01*
X18940000Y2300000D02*
X18940000Y1800000D01*
X18840000Y1800000D02*
X19040000Y1800000D01*
X18840000Y2300000D02*
X18840000Y1800000D01*
X17040000Y1800000D02*
X17040000Y2300000D01*
X16940000Y2300000D02*
X16940000Y1800000D01*
X16840000Y1800000D02*
X17040000Y1800000D01*
X16840000Y2300000D02*
X16840000Y1800000D01*
X15040000Y1800000D02*
X15040000Y2300000D01*
X14940000Y2300000D02*
X14940000Y1800000D01*
X14840000Y1800000D02*
X15040000Y1800000D01*
X14840000Y2300000D02*
X14840000Y1800000D01*
X13040000Y1800000D02*
X13040000Y2300000D01*
X12940000Y2300000D02*
X12940000Y1800000D01*
X12840000Y1800000D02*
X13040000Y1800000D01*
X12840000Y2300000D02*
X12840000Y1800000D01*
X12440000Y-1810000D02*
X12440000Y-1200000D01*
X12440000Y-1200000D02*
X10490000Y-1200000D01*
X11640000Y-2010000D02*
X11340000Y-2010000D01*
X11640000Y-1910000D02*
X11340000Y-1910000D01*
X11640000Y-1810000D02*
X11640000Y-2010000D01*
X11340000Y-2010000D02*
X11340000Y-1810000D01*
X10830000Y-2110000D02*
X9580000Y-2110000D01*
X10490000Y-1200000D02*
X10490000Y2300000D01*
X10490000Y2300000D02*
X29390000Y2300000D01*
X9880000Y-1810000D02*
X9880000Y2910000D01*
X9880000Y-500000D02*
X10490000Y-500000D01*
X9880000Y800000D02*
X10490000Y800000D01*
X9880000Y2910000D02*
X30000000Y2910000D01*
X9580000Y-2110000D02*
X9580000Y-860000D01*
%TO.C,SW2*%
X27417000Y26730000D02*
X22277000Y26730000D01*
X30017000Y24070000D02*
X30017000Y25400000D01*
X28687000Y24070000D02*
X30017000Y24070000D01*
X27417000Y24070000D02*
X27417000Y26730000D01*
X27417000Y24070000D02*
X22277000Y24070000D01*
X22277000Y24070000D02*
X22277000Y26730000D01*
%TO.C,J3*%
X67250000Y26830000D02*
X68580000Y26830000D01*
X67250000Y27940000D02*
X67250000Y26830000D01*
X67250000Y29400000D02*
X77530000Y29400000D01*
X68220000Y29400000D02*
X68220000Y29050000D01*
X68940000Y29400000D02*
X68940000Y29050000D01*
X70760000Y29400000D02*
X70760000Y28990000D01*
X71480000Y29400000D02*
X71480000Y28990000D01*
X73300000Y29400000D02*
X73300000Y28990000D01*
X74020000Y29400000D02*
X74020000Y28990000D01*
X75840000Y29400000D02*
X75840000Y28990000D01*
X76560000Y29400000D02*
X76560000Y28990000D01*
X67250000Y38030000D02*
X67250000Y29400000D01*
X67250000Y38030000D02*
X77530000Y38030000D01*
X67370000Y38030000D02*
X67370000Y29400000D01*
X67488095Y38030000D02*
X67488095Y29400000D01*
X67606190Y38030000D02*
X67606190Y29400000D01*
X67724285Y38030000D02*
X67724285Y29400000D01*
X67842380Y38030000D02*
X67842380Y29400000D01*
X67960475Y38030000D02*
X67960475Y29400000D01*
X68078570Y38030000D02*
X68078570Y29400000D01*
X68196665Y38030000D02*
X68196665Y29400000D01*
X68314760Y38030000D02*
X68314760Y29400000D01*
X68432855Y38030000D02*
X68432855Y29400000D01*
X68550950Y38030000D02*
X68550950Y29400000D01*
X68669045Y38030000D02*
X68669045Y29400000D01*
X68787140Y38030000D02*
X68787140Y29400000D01*
X68905235Y38030000D02*
X68905235Y29400000D01*
X69023330Y38030000D02*
X69023330Y29400000D01*
X69141425Y38030000D02*
X69141425Y29400000D01*
X69259520Y38030000D02*
X69259520Y29400000D01*
X69377615Y38030000D02*
X69377615Y29400000D01*
X69495710Y38030000D02*
X69495710Y29400000D01*
X69613805Y38030000D02*
X69613805Y29400000D01*
X69731900Y38030000D02*
X69731900Y29400000D01*
X69850000Y38030000D02*
X69850000Y29400000D01*
X72390000Y38030000D02*
X72390000Y29400000D01*
X74930000Y38030000D02*
X74930000Y29400000D01*
X77530000Y38030000D02*
X77530000Y29400000D01*
%TO.C,C1*%
X26472000Y31242000D02*
G75*
G03*
X26472000Y31242000I-4120000J0D01*
G01*
%TO.C,J9*%
X3905000Y-790000D02*
X3905000Y19330000D01*
X5215000Y-790000D02*
X5215000Y-180000D01*
X6515000Y-790000D02*
X6515000Y-180000D01*
X8625000Y-790000D02*
X3905000Y-790000D01*
X4515000Y-180000D02*
X4515000Y1770000D01*
X8015000Y-180000D02*
X4515000Y-180000D01*
X4515000Y1770000D02*
X3905000Y1770000D01*
X7515000Y2170000D02*
X8015000Y2170000D01*
X8015000Y2270000D02*
X7515000Y2270000D01*
X7515000Y2370000D02*
X7515000Y2170000D01*
X8015000Y2370000D02*
X7515000Y2370000D01*
X7515000Y4170000D02*
X8015000Y4170000D01*
X8015000Y4270000D02*
X7515000Y4270000D01*
X7515000Y4370000D02*
X7515000Y4170000D01*
X8015000Y4370000D02*
X7515000Y4370000D01*
X7515000Y6170000D02*
X8015000Y6170000D01*
X8015000Y6270000D02*
X7515000Y6270000D01*
X7515000Y6370000D02*
X7515000Y6170000D01*
X8015000Y6370000D02*
X7515000Y6370000D01*
X7515000Y8170000D02*
X8015000Y8170000D01*
X8015000Y8270000D02*
X7515000Y8270000D01*
X7515000Y8370000D02*
X7515000Y8170000D01*
X8015000Y8370000D02*
X7515000Y8370000D01*
X7515000Y10170000D02*
X8015000Y10170000D01*
X8015000Y10270000D02*
X7515000Y10270000D01*
X7515000Y10370000D02*
X7515000Y10170000D01*
X8015000Y10370000D02*
X7515000Y10370000D01*
X7515000Y12170000D02*
X8015000Y12170000D01*
X8015000Y12270000D02*
X7515000Y12270000D01*
X7515000Y12370000D02*
X7515000Y12170000D01*
X8015000Y12370000D02*
X7515000Y12370000D01*
X7515000Y14170000D02*
X8015000Y14170000D01*
X8015000Y14270000D02*
X7515000Y14270000D01*
X7515000Y14370000D02*
X7515000Y14170000D01*
X8015000Y14370000D02*
X7515000Y14370000D01*
X7515000Y16170000D02*
X8015000Y16170000D01*
X8015000Y16270000D02*
X7515000Y16270000D01*
X7515000Y16370000D02*
X7515000Y16170000D01*
X8015000Y16370000D02*
X7515000Y16370000D01*
X3905000Y16770000D02*
X4515000Y16770000D01*
X4515000Y16770000D02*
X4515000Y18720000D01*
X3705000Y17570000D02*
X3705000Y17870000D01*
X3805000Y17570000D02*
X3805000Y17870000D01*
X3905000Y17570000D02*
X3705000Y17570000D01*
X3705000Y17870000D02*
X3905000Y17870000D01*
X3605000Y18380000D02*
X3605000Y19630000D01*
X4515000Y18720000D02*
X8015000Y18720000D01*
X8015000Y18720000D02*
X8015000Y-180000D01*
X3905000Y19330000D02*
X8625000Y19330000D01*
X5215000Y19330000D02*
X5215000Y18720000D01*
X6515000Y19330000D02*
X6515000Y18720000D01*
X8625000Y19330000D02*
X8625000Y-790000D01*
X3605000Y19630000D02*
X4855000Y19630000D01*
%TO.C,J6*%
X70100000Y12760000D02*
X70100000Y11430000D01*
X71210000Y12760000D02*
X70100000Y12760000D01*
X72700000Y11790000D02*
X72320000Y11790000D01*
X72700000Y11070000D02*
X72320000Y11070000D01*
X72700000Y9250000D02*
X72260000Y9250000D01*
X72700000Y8530000D02*
X72260000Y8530000D01*
X72700000Y6710000D02*
X72260000Y6710000D01*
X72700000Y5990000D02*
X72260000Y5990000D01*
X72700000Y4170000D02*
X72260000Y4170000D01*
X72700000Y3450000D02*
X72260000Y3450000D01*
X75210000Y12760000D02*
X75210000Y2480000D01*
X75210000Y11790000D02*
X74800000Y11790000D01*
X75210000Y11070000D02*
X74800000Y11070000D01*
X75210000Y9250000D02*
X74800000Y9250000D01*
X75210000Y8530000D02*
X74800000Y8530000D01*
X75210000Y6710000D02*
X74800000Y6710000D01*
X75210000Y5990000D02*
X74800000Y5990000D01*
X75210000Y4170000D02*
X74800000Y4170000D01*
X75210000Y3450000D02*
X74800000Y3450000D01*
X83840000Y12760000D02*
X75210000Y12760000D01*
X83840000Y12760000D02*
X83840000Y2480000D01*
X83840000Y12640000D02*
X75210000Y12640000D01*
X83840000Y12521905D02*
X75210000Y12521905D01*
X83840000Y12403810D02*
X75210000Y12403810D01*
X83840000Y12285715D02*
X75210000Y12285715D01*
X83840000Y12167620D02*
X75210000Y12167620D01*
X83840000Y12049525D02*
X75210000Y12049525D01*
X83840000Y11931430D02*
X75210000Y11931430D01*
X83840000Y11813335D02*
X75210000Y11813335D01*
X83840000Y11695240D02*
X75210000Y11695240D01*
X83840000Y11577145D02*
X75210000Y11577145D01*
X83840000Y11459050D02*
X75210000Y11459050D01*
X83840000Y11340955D02*
X75210000Y11340955D01*
X83840000Y11222860D02*
X75210000Y11222860D01*
X83840000Y11104765D02*
X75210000Y11104765D01*
X83840000Y10986670D02*
X75210000Y10986670D01*
X83840000Y10868575D02*
X75210000Y10868575D01*
X83840000Y10750480D02*
X75210000Y10750480D01*
X83840000Y10632385D02*
X75210000Y10632385D01*
X83840000Y10514290D02*
X75210000Y10514290D01*
X83840000Y10396195D02*
X75210000Y10396195D01*
X83840000Y10278100D02*
X75210000Y10278100D01*
X83840000Y10160000D02*
X75210000Y10160000D01*
X83840000Y7620000D02*
X75210000Y7620000D01*
X83840000Y5080000D02*
X75210000Y5080000D01*
X83840000Y2480000D02*
X75210000Y2480000D01*
%TO.C,D1*%
X65080000Y33995000D02*
G75*
G03*
X61960000Y33995000I-1560000J0D01*
G01*
X65480000Y30135000D02*
X65480000Y31255000D01*
X65480000Y31255000D02*
X65080000Y31255000D01*
X65080000Y30135000D02*
X65480000Y30135000D01*
X65080000Y30135000D02*
X65080000Y33995000D01*
X65080000Y31255000D02*
X65080000Y30135000D01*
X64790000Y30005000D02*
X64790000Y30005000D01*
X64790000Y30005000D02*
X64790000Y30135000D01*
X64790000Y30135000D02*
X64790000Y30005000D01*
X64790000Y30135000D02*
X64790000Y30135000D01*
X62250000Y30005000D02*
X62250000Y30005000D01*
X62250000Y30005000D02*
X62250000Y30135000D01*
X62250000Y30135000D02*
X62250000Y30005000D01*
X62250000Y30135000D02*
X62250000Y30135000D01*
X61960000Y30135000D02*
X65080000Y30135000D01*
X61960000Y30135000D02*
X61960000Y33995000D01*
%TO.C,SW1*%
X51170000Y33845000D02*
X51170000Y28345000D01*
X51170000Y28345000D02*
X58670000Y28345000D01*
X53170000Y35095000D02*
X53170000Y33845000D01*
X56670000Y35095000D02*
X53170000Y35095000D01*
X56670000Y33845000D02*
X56670000Y35095000D01*
X58670000Y33845000D02*
X51170000Y33845000D01*
X58670000Y28345000D02*
X58670000Y33845000D01*
D10*
%TO.C,U3*%
X31115000Y34290000D02*
X31115000Y1270000D01*
X31115000Y34290000D02*
X48895000Y34290000D01*
X31115000Y1270000D02*
X48895000Y1270000D01*
X48895000Y34290000D02*
X48895000Y1270000D01*
D11*
%TO.C,J1*%
X44195000Y35500000D02*
X43435000Y35500000D01*
X43435000Y35500000D02*
X43435000Y29500000D01*
X41655000Y35500000D02*
X40895000Y35500000D01*
X40895000Y35500000D02*
X40895000Y29500000D01*
X39115000Y35500000D02*
X38355000Y35500000D01*
X38355000Y35500000D02*
X38355000Y29500000D01*
X36575000Y35500000D02*
X35815000Y35500000D01*
X35815000Y35500000D02*
X35815000Y29500000D01*
X45145000Y29500000D02*
X45145000Y26840000D01*
X44195000Y29500000D02*
X44195000Y35500000D01*
X44135000Y29500000D02*
X44135000Y35500000D01*
X44015000Y29500000D02*
X44015000Y35500000D01*
X43895000Y29500000D02*
X43895000Y35500000D01*
X43775000Y29500000D02*
X43775000Y35500000D01*
X43655000Y29500000D02*
X43655000Y35500000D01*
X43535000Y29500000D02*
X43535000Y35500000D01*
X41655000Y29500000D02*
X41655000Y35500000D01*
X39115000Y29500000D02*
X39115000Y35500000D01*
X36575000Y29500000D02*
X36575000Y35500000D01*
X34865000Y29500000D02*
X45145000Y29500000D01*
X45145000Y26840000D02*
X34865000Y26840000D01*
X42545000Y26840000D02*
X42545000Y29500000D01*
X40005000Y26840000D02*
X40005000Y29500000D01*
X37465000Y26840000D02*
X37465000Y29500000D01*
X34865000Y26840000D02*
X34865000Y29500000D01*
X44195000Y26510000D02*
X44195000Y26840000D01*
X43435000Y26510000D02*
X43435000Y26840000D01*
X41655000Y26442929D02*
X41655000Y26840000D01*
X40895000Y26442929D02*
X40895000Y26840000D01*
X39115000Y26442929D02*
X39115000Y26840000D01*
X38355000Y26442929D02*
X38355000Y26840000D01*
X36575000Y26442929D02*
X36575000Y26840000D01*
X35815000Y26442929D02*
X35815000Y26840000D01*
X45085000Y24130000D02*
X45085000Y25400000D01*
X43815000Y24130000D02*
X45085000Y24130000D01*
%TO.C,J5*%
X72550000Y24825000D02*
X72550000Y23495000D01*
X73660000Y24825000D02*
X72550000Y24825000D01*
X75120000Y24825000D02*
X75120000Y14545000D01*
X75120000Y23855000D02*
X74770000Y23855000D01*
X75120000Y23135000D02*
X74770000Y23135000D01*
X75120000Y21315000D02*
X74710000Y21315000D01*
X75120000Y20595000D02*
X74710000Y20595000D01*
X75120000Y18775000D02*
X74710000Y18775000D01*
X75120000Y18055000D02*
X74710000Y18055000D01*
X75120000Y16235000D02*
X74710000Y16235000D01*
X75120000Y15515000D02*
X74710000Y15515000D01*
X83750000Y24825000D02*
X75120000Y24825000D01*
X83750000Y24825000D02*
X83750000Y14545000D01*
X83750000Y24705000D02*
X75120000Y24705000D01*
X83750000Y24586905D02*
X75120000Y24586905D01*
X83750000Y24468810D02*
X75120000Y24468810D01*
X83750000Y24350715D02*
X75120000Y24350715D01*
X83750000Y24232620D02*
X75120000Y24232620D01*
X83750000Y24114525D02*
X75120000Y24114525D01*
X83750000Y23996430D02*
X75120000Y23996430D01*
X83750000Y23878335D02*
X75120000Y23878335D01*
X83750000Y23760240D02*
X75120000Y23760240D01*
X83750000Y23642145D02*
X75120000Y23642145D01*
X83750000Y23524050D02*
X75120000Y23524050D01*
X83750000Y23405955D02*
X75120000Y23405955D01*
X83750000Y23287860D02*
X75120000Y23287860D01*
X83750000Y23169765D02*
X75120000Y23169765D01*
X83750000Y23051670D02*
X75120000Y23051670D01*
X83750000Y22933575D02*
X75120000Y22933575D01*
X83750000Y22815480D02*
X75120000Y22815480D01*
X83750000Y22697385D02*
X75120000Y22697385D01*
X83750000Y22579290D02*
X75120000Y22579290D01*
X83750000Y22461195D02*
X75120000Y22461195D01*
X83750000Y22343100D02*
X75120000Y22343100D01*
X83750000Y22225000D02*
X75120000Y22225000D01*
X83750000Y19685000D02*
X75120000Y19685000D01*
X83750000Y17145000D02*
X75120000Y17145000D01*
X83750000Y14545000D02*
X75120000Y14545000D01*
%TO.C,R1*%
X65390000Y23210000D02*
X69230000Y23210000D01*
X65390000Y25050000D02*
X69230000Y25050000D01*
%TO.C,J4*%
X-10735000Y23875000D02*
X-10735000Y23115000D01*
X-10735000Y23115000D02*
X-4735000Y23115000D01*
X-10735000Y21335000D02*
X-10735000Y20575000D01*
X-10735000Y20575000D02*
X-4735000Y20575000D01*
X-10735000Y18795000D02*
X-10735000Y18035000D01*
X-10735000Y18035000D02*
X-4735000Y18035000D01*
X-10735000Y16255000D02*
X-10735000Y15495000D01*
X-10735000Y15495000D02*
X-4735000Y15495000D01*
X-4735000Y24825000D02*
X-2075000Y24825000D01*
X-4735000Y23875000D02*
X-10735000Y23875000D01*
X-4735000Y23815000D02*
X-10735000Y23815000D01*
X-4735000Y23695000D02*
X-10735000Y23695000D01*
X-4735000Y23575000D02*
X-10735000Y23575000D01*
X-4735000Y23455000D02*
X-10735000Y23455000D01*
X-4735000Y23335000D02*
X-10735000Y23335000D01*
X-4735000Y23215000D02*
X-10735000Y23215000D01*
X-4735000Y21335000D02*
X-10735000Y21335000D01*
X-4735000Y18795000D02*
X-10735000Y18795000D01*
X-4735000Y16255000D02*
X-10735000Y16255000D01*
X-4735000Y14545000D02*
X-4735000Y24825000D01*
X-2075000Y24825000D02*
X-2075000Y14545000D01*
X-2075000Y22225000D02*
X-4735000Y22225000D01*
X-2075000Y19685000D02*
X-4735000Y19685000D01*
X-2075000Y17145000D02*
X-4735000Y17145000D01*
X-2075000Y14545000D02*
X-4735000Y14545000D01*
X-1745000Y23875000D02*
X-2075000Y23875000D01*
X-1745000Y23115000D02*
X-2075000Y23115000D01*
X-1677929Y21335000D02*
X-2075000Y21335000D01*
X-1677929Y20575000D02*
X-2075000Y20575000D01*
X-1677929Y18795000D02*
X-2075000Y18795000D01*
X-1677929Y18035000D02*
X-2075000Y18035000D01*
X-1677929Y16255000D02*
X-2075000Y16255000D01*
X-1677929Y15495000D02*
X-2075000Y15495000D01*
X635000Y24765000D02*
X-635000Y24765000D01*
X635000Y23495000D02*
X635000Y24765000D01*
%TO.C,J2*%
X68200000Y-10100000D02*
X68960000Y-10100000D01*
X68960000Y-10100000D02*
X68960000Y-4100000D01*
X70740000Y-10100000D02*
X71500000Y-10100000D01*
X71500000Y-10100000D02*
X71500000Y-4100000D01*
X73280000Y-10100000D02*
X74040000Y-10100000D01*
X74040000Y-10100000D02*
X74040000Y-4100000D01*
X75820000Y-10100000D02*
X76580000Y-10100000D01*
X76580000Y-10100000D02*
X76580000Y-4100000D01*
X67250000Y-4100000D02*
X67250000Y-1440000D01*
X68200000Y-4100000D02*
X68200000Y-10100000D01*
X68260000Y-4100000D02*
X68260000Y-10100000D01*
X68380000Y-4100000D02*
X68380000Y-10100000D01*
X68500000Y-4100000D02*
X68500000Y-10100000D01*
X68620000Y-4100000D02*
X68620000Y-10100000D01*
X68740000Y-4100000D02*
X68740000Y-10100000D01*
X68860000Y-4100000D02*
X68860000Y-10100000D01*
X70740000Y-4100000D02*
X70740000Y-10100000D01*
X73280000Y-4100000D02*
X73280000Y-10100000D01*
X75820000Y-4100000D02*
X75820000Y-10100000D01*
X77530000Y-4100000D02*
X67250000Y-4100000D01*
X67250000Y-1440000D02*
X77530000Y-1440000D01*
X69850000Y-1440000D02*
X69850000Y-4100000D01*
X72390000Y-1440000D02*
X72390000Y-4100000D01*
X74930000Y-1440000D02*
X74930000Y-4100000D01*
X77530000Y-1440000D02*
X77530000Y-4100000D01*
X68200000Y-1110000D02*
X68200000Y-1440000D01*
X68960000Y-1110000D02*
X68960000Y-1440000D01*
X70740000Y-1042929D02*
X70740000Y-1440000D01*
X71500000Y-1042929D02*
X71500000Y-1440000D01*
X73280000Y-1042929D02*
X73280000Y-1440000D01*
X74040000Y-1042929D02*
X74040000Y-1440000D01*
X75820000Y-1042929D02*
X75820000Y-1440000D01*
X76580000Y-1042929D02*
X76580000Y-1440000D01*
X67310000Y1270000D02*
X67310000Y0D01*
X68580000Y1270000D02*
X67310000Y1270000D01*
%TD*%
%LPC*%
D12*
%TO.C,U2*%
X52338954Y20903943D03*
X54135005Y22699995D03*
D13*
X55931057Y24496046D03*
%TD*%
D12*
%TO.C,U4*%
X10430454Y20903943D03*
X12226505Y22699995D03*
D13*
X14022557Y24496046D03*
%TD*%
D14*
%TO.C,RV1*%
X44255000Y29350000D03*
X44255000Y4150000D03*
X35755000Y28150000D03*
X35755000Y5350000D03*
X38255000Y33500000D03*
X41755000Y0D03*
X38255000Y0D03*
%TD*%
D15*
%TO.C,J7*%
X-700000Y3810000D03*
X1840000Y3810000D03*
X-700000Y6350000D03*
X1840000Y6350000D03*
X-700000Y8890000D03*
X1840000Y8890000D03*
X-700000Y11430000D03*
D16*
X1840000Y11430000D03*
%TD*%
D17*
%TO.C,C2*%
X53340000Y6270000D03*
X53340000Y1270000D03*
%TD*%
%TO.C,C3*%
X28702000Y27980000D03*
X28702000Y32980000D03*
%TD*%
D18*
%TO.C,U1*%
X57150000Y-635000D03*
X59690000Y-635000D03*
X62230000Y-635000D03*
X64770000Y-635000D03*
X64770000Y6985000D03*
X62230000Y6985000D03*
X59690000Y6985000D03*
D19*
X57150000Y6985000D03*
%TD*%
D20*
%TO.C,J10*%
X27940000Y0D03*
X25940000Y0D03*
X23940000Y0D03*
X21940000Y0D03*
X19940000Y0D03*
X17940000Y0D03*
X15940000Y0D03*
X13940000Y0D03*
D21*
X11940000Y0D03*
%TD*%
D15*
%TO.C,SW2*%
X23607000Y25400000D03*
X26147000Y25400000D03*
D16*
X28687000Y25400000D03*
%TD*%
D15*
%TO.C,J3*%
X76200000Y27940000D03*
X73660000Y27940000D03*
X71120000Y27940000D03*
D16*
X68580000Y27940000D03*
%TD*%
D17*
%TO.C,C1*%
X22352000Y29492000D03*
X22352000Y32992000D03*
%TD*%
D22*
%TO.C,J9*%
X5715000Y1270000D03*
X5715000Y3270000D03*
X5715000Y5270000D03*
X5715000Y7270000D03*
X5715000Y9270000D03*
X5715000Y11270000D03*
X5715000Y13270000D03*
X5715000Y15270000D03*
D23*
X5715000Y17270000D03*
%TD*%
D15*
%TO.C,J6*%
X73750000Y3810000D03*
X71210000Y3810000D03*
X73750000Y6350000D03*
X71210000Y6350000D03*
X73750000Y8890000D03*
X71210000Y8890000D03*
X73750000Y11430000D03*
D16*
X71210000Y11430000D03*
%TD*%
D24*
%TO.C,D1*%
X64790000Y28925000D03*
D25*
X62250000Y28925000D03*
%TD*%
D26*
%TO.C,SW1*%
X51420000Y29845000D03*
X58420000Y29845000D03*
X52670000Y32345000D03*
X57170000Y32345000D03*
%TD*%
D27*
%TO.C,U3*%
X32385000Y22860000D03*
X32385000Y25400000D03*
X47625000Y25400000D03*
X32385000Y30480000D03*
D28*
X32385000Y27940000D03*
D27*
X40005000Y2540000D03*
D28*
X47625000Y22860000D03*
D27*
X32385000Y10160000D03*
X32385000Y7620000D03*
X32385000Y5080000D03*
X32385000Y2540000D03*
X47625000Y2540000D03*
X47625000Y5080000D03*
X47625000Y7620000D03*
X47625000Y10160000D03*
X47625000Y12700000D03*
X47625000Y15240000D03*
X47625000Y17780000D03*
X47625000Y20320000D03*
X47625000Y30480000D03*
X47625000Y27940000D03*
X34925000Y2540000D03*
X35310900Y11296000D03*
X35310900Y8755400D03*
X37465000Y2540000D03*
X35310900Y21709400D03*
X35310900Y19169400D03*
X32385000Y20320000D03*
X32385000Y17780000D03*
X32385000Y15240000D03*
X32385000Y12700000D03*
%TD*%
D15*
%TO.C,J1*%
X36195000Y25400000D03*
X38735000Y25400000D03*
X41275000Y25400000D03*
D16*
X43815000Y25400000D03*
%TD*%
D15*
%TO.C,J5*%
X73660000Y15875000D03*
X73660000Y18415000D03*
X73660000Y20955000D03*
D16*
X73660000Y23495000D03*
%TD*%
D29*
%TO.C,R1*%
X69850000Y24130000D03*
D30*
X64770000Y24130000D03*
%TD*%
D15*
%TO.C,J4*%
X-635000Y15875000D03*
X-635000Y18415000D03*
X-635000Y20955000D03*
D16*
X-635000Y23495000D03*
%TD*%
D15*
%TO.C,J2*%
X76200000Y0D03*
X73660000Y0D03*
X71120000Y0D03*
D16*
X68580000Y0D03*
%TD*%
%LPD*%
M02*
