%TF.GenerationSoftware,KiCad,Pcbnew,7.0.5*%
%TF.CreationDate,2023-08-30T18:26:20+02:00*%
%TF.ProjectId,Angle&Ana,416e676c-6526-4416-9e61-2e6b69636164,1.0*%
%TF.SameCoordinates,Original*%
%TF.FileFunction,Legend,Top*%
%TF.FilePolarity,Positive*%
%FSLAX46Y46*%
G04 Gerber Fmt 4.6, Leading zero omitted, Abs format (unit mm)*
G04 Created by KiCad (PCBNEW 7.0.5) date 2023-08-30 18:26:20*
%MOMM*%
%LPD*%
G01*
G04 APERTURE LIST*
G04 Aperture macros list*
%AMRoundRect*
0 Rectangle with rounded corners*
0 $1 Rounding radius*
0 $2 $3 $4 $5 $6 $7 $8 $9 X,Y pos of 4 corners*
0 Add a 4 corners polygon primitive as box body*
4,1,4,$2,$3,$4,$5,$6,$7,$8,$9,$2,$3,0*
0 Add four circle primitives for the rounded corners*
1,1,$1+$1,$2,$3*
1,1,$1+$1,$4,$5*
1,1,$1+$1,$6,$7*
1,1,$1+$1,$8,$9*
0 Add four rect primitives between the rounded corners*
20,1,$1+$1,$2,$3,$4,$5,0*
20,1,$1+$1,$4,$5,$6,$7,0*
20,1,$1+$1,$6,$7,$8,$9,0*
20,1,$1+$1,$8,$9,$2,$3,0*%
%AMHorizOval*
0 Thick line with rounded ends*
0 $1 width*
0 $2 $3 position (X,Y) of the first rounded end (center of the circle)*
0 $4 $5 position (X,Y) of the second rounded end (center of the circle)*
0 Add line between two ends*
20,1,$1,$2,$3,$4,$5,0*
0 Add two circle primitives to create the rounded ends*
1,1,$1,$2,$3*
1,1,$1,$4,$5*%
%AMRotRect*
0 Rectangle, with rotation*
0 The origin of the aperture is its center*
0 $1 length*
0 $2 width*
0 $3 Rotation angle, in degrees counterclockwise*
0 Add horizontal line*
21,1,$1,$2,0,0,$3*%
G04 Aperture macros list end*
%ADD10C,0.150000*%
%ADD11C,0.075000*%
%ADD12C,0.010000*%
%ADD13C,0.120000*%
%ADD14HorizOval,1.700000X0.000000X0.000000X0.000000X0.000000X0*%
%ADD15RotRect,1.700000X1.700000X315.000000*%
%ADD16C,1.524000*%
%ADD17O,1.700000X1.700000*%
%ADD18R,1.700000X1.700000*%
%ADD19C,1.600000*%
%ADD20O,1.600000X1.600000*%
%ADD21R,1.600000X1.600000*%
%ADD22O,1.200000X1.750000*%
%ADD23RoundRect,0.250000X-0.350000X-0.625000X0.350000X-0.625000X0.350000X0.625000X-0.350000X0.625000X0*%
%ADD24O,1.750000X1.200000*%
%ADD25RoundRect,0.250000X-0.625000X0.350000X-0.625000X-0.350000X0.625000X-0.350000X0.625000X0.350000X0*%
%ADD26C,1.800000*%
%ADD27R,1.800000X1.800000*%
%ADD28C,2.000000*%
%ADD29C,1.727200*%
%ADD30R,1.727200X1.727200*%
%ADD31O,1.400000X1.400000*%
%ADD32C,1.400000*%
G04 APERTURE END LIST*
D10*
%TO.C,U2*%
X57425368Y27067855D02*
X56852948Y26495435D01*
X56852948Y26495435D02*
X56819276Y26394420D01*
X56819276Y26394420D02*
X56819276Y26327076D01*
X56819276Y26327076D02*
X56852948Y26226061D01*
X56852948Y26226061D02*
X56987635Y26091374D01*
X56987635Y26091374D02*
X57088650Y26057702D01*
X57088650Y26057702D02*
X57155994Y26057702D01*
X57155994Y26057702D02*
X57257009Y26091374D01*
X57257009Y26091374D02*
X57829429Y26663794D01*
X58065131Y26293404D02*
X58132474Y26293404D01*
X58132474Y26293404D02*
X58233490Y26259733D01*
X58233490Y26259733D02*
X58401848Y26091374D01*
X58401848Y26091374D02*
X58435520Y25990359D01*
X58435520Y25990359D02*
X58435520Y25923015D01*
X58435520Y25923015D02*
X58401848Y25822000D01*
X58401848Y25822000D02*
X58334505Y25754656D01*
X58334505Y25754656D02*
X58199818Y25687313D01*
X58199818Y25687313D02*
X57391696Y25687313D01*
X57391696Y25687313D02*
X57829429Y25249580D01*
%TO.C,U4*%
X15516868Y27067855D02*
X14944448Y26495435D01*
X14944448Y26495435D02*
X14910776Y26394420D01*
X14910776Y26394420D02*
X14910776Y26327076D01*
X14910776Y26327076D02*
X14944448Y26226061D01*
X14944448Y26226061D02*
X15079135Y26091374D01*
X15079135Y26091374D02*
X15180150Y26057702D01*
X15180150Y26057702D02*
X15247494Y26057702D01*
X15247494Y26057702D02*
X15348509Y26091374D01*
X15348509Y26091374D02*
X15920929Y26663794D01*
X16324990Y25788328D02*
X15853585Y25316924D01*
X16426005Y26226061D02*
X15752570Y25889343D01*
X15752570Y25889343D02*
X16190303Y25451611D01*
%TO.C,RV1*%
X45759761Y32565181D02*
X45426428Y33041372D01*
X45188333Y32565181D02*
X45188333Y33565181D01*
X45188333Y33565181D02*
X45569285Y33565181D01*
X45569285Y33565181D02*
X45664523Y33517562D01*
X45664523Y33517562D02*
X45712142Y33469943D01*
X45712142Y33469943D02*
X45759761Y33374705D01*
X45759761Y33374705D02*
X45759761Y33231848D01*
X45759761Y33231848D02*
X45712142Y33136610D01*
X45712142Y33136610D02*
X45664523Y33088991D01*
X45664523Y33088991D02*
X45569285Y33041372D01*
X45569285Y33041372D02*
X45188333Y33041372D01*
X46045476Y33565181D02*
X46378809Y32565181D01*
X46378809Y32565181D02*
X46712142Y33565181D01*
X47569285Y32565181D02*
X46997857Y32565181D01*
X47283571Y32565181D02*
X47283571Y33565181D01*
X47283571Y33565181D02*
X47188333Y33422324D01*
X47188333Y33422324D02*
X47093095Y33327086D01*
X47093095Y33327086D02*
X46997857Y33279467D01*
D11*
%TO.C,U3*%
X45947409Y27570953D02*
X45447409Y27570953D01*
X45447409Y27570953D02*
X45447409Y27690001D01*
X45447409Y27690001D02*
X45471219Y27761429D01*
X45471219Y27761429D02*
X45518838Y27809048D01*
X45518838Y27809048D02*
X45566457Y27832858D01*
X45566457Y27832858D02*
X45661695Y27856667D01*
X45661695Y27856667D02*
X45733123Y27856667D01*
X45733123Y27856667D02*
X45828361Y27832858D01*
X45828361Y27832858D02*
X45875980Y27809048D01*
X45875980Y27809048D02*
X45923600Y27761429D01*
X45923600Y27761429D02*
X45947409Y27690001D01*
X45947409Y27690001D02*
X45947409Y27570953D01*
X45447409Y28166191D02*
X45447409Y28213810D01*
X45447409Y28213810D02*
X45471219Y28261429D01*
X45471219Y28261429D02*
X45495028Y28285239D01*
X45495028Y28285239D02*
X45542647Y28309048D01*
X45542647Y28309048D02*
X45637885Y28332858D01*
X45637885Y28332858D02*
X45756933Y28332858D01*
X45756933Y28332858D02*
X45852171Y28309048D01*
X45852171Y28309048D02*
X45899790Y28285239D01*
X45899790Y28285239D02*
X45923600Y28261429D01*
X45923600Y28261429D02*
X45947409Y28213810D01*
X45947409Y28213810D02*
X45947409Y28166191D01*
X45947409Y28166191D02*
X45923600Y28118572D01*
X45923600Y28118572D02*
X45899790Y28094763D01*
X45899790Y28094763D02*
X45852171Y28070953D01*
X45852171Y28070953D02*
X45756933Y28047144D01*
X45756933Y28047144D02*
X45637885Y28047144D01*
X45637885Y28047144D02*
X45542647Y28070953D01*
X45542647Y28070953D02*
X45495028Y28094763D01*
X45495028Y28094763D02*
X45471219Y28118572D01*
X45471219Y28118572D02*
X45447409Y28166191D01*
%TO.C,REF\u002A\u002A*%
D12*
X6559528Y31769381D02*
X6570908Y31750307D01*
X6596488Y31706579D01*
X6635002Y31640381D01*
X6685186Y31553898D01*
X6745775Y31449315D01*
X6815503Y31328817D01*
X6893107Y31194588D01*
X6977320Y31048813D01*
X7066879Y30893677D01*
X7158998Y30734000D01*
X7253076Y30570883D01*
X7343402Y30414291D01*
X7428665Y30266494D01*
X7507557Y30129760D01*
X7578769Y30006358D01*
X7640991Y29898556D01*
X7692913Y29808623D01*
X7733228Y29738827D01*
X7760624Y29691436D01*
X7773507Y29669214D01*
X7794507Y29631670D01*
X7805925Y29608169D01*
X7806551Y29604080D01*
X7792636Y29611758D01*
X7753941Y29633797D01*
X7692487Y29669029D01*
X7610298Y29716289D01*
X7509396Y29774411D01*
X7391805Y29842229D01*
X7259546Y29918576D01*
X7114642Y30002286D01*
X6959117Y30092194D01*
X6794992Y30187133D01*
X6732549Y30223268D01*
X6565487Y30319917D01*
X6406074Y30412062D01*
X6256355Y30498525D01*
X6118376Y30578129D01*
X5994185Y30649695D01*
X5885827Y30712045D01*
X5795348Y30764002D01*
X5724796Y30804387D01*
X5676215Y30832022D01*
X5651654Y30845728D01*
X5649085Y30847026D01*
X5656569Y30858780D01*
X5682614Y30890205D01*
X5724559Y30938406D01*
X5779746Y31000490D01*
X5845517Y31073561D01*
X5919212Y31154724D01*
X5998173Y31241084D01*
X6079740Y31329747D01*
X6161254Y31417818D01*
X6240057Y31502401D01*
X6313490Y31580603D01*
X6378893Y31649528D01*
X6433608Y31706281D01*
X6474977Y31747968D01*
X6489164Y31761637D01*
X6536180Y31805799D01*
X6559528Y31769381D01*
G36*
X6559528Y31769381D02*
G01*
X6570908Y31750307D01*
X6596488Y31706579D01*
X6635002Y31640381D01*
X6685186Y31553898D01*
X6745775Y31449315D01*
X6815503Y31328817D01*
X6893107Y31194588D01*
X6977320Y31048813D01*
X7066879Y30893677D01*
X7158998Y30734000D01*
X7253076Y30570883D01*
X7343402Y30414291D01*
X7428665Y30266494D01*
X7507557Y30129760D01*
X7578769Y30006358D01*
X7640991Y29898556D01*
X7692913Y29808623D01*
X7733228Y29738827D01*
X7760624Y29691436D01*
X7773507Y29669214D01*
X7794507Y29631670D01*
X7805925Y29608169D01*
X7806551Y29604080D01*
X7792636Y29611758D01*
X7753941Y29633797D01*
X7692487Y29669029D01*
X7610298Y29716289D01*
X7509396Y29774411D01*
X7391805Y29842229D01*
X7259546Y29918576D01*
X7114642Y30002286D01*
X6959117Y30092194D01*
X6794992Y30187133D01*
X6732549Y30223268D01*
X6565487Y30319917D01*
X6406074Y30412062D01*
X6256355Y30498525D01*
X6118376Y30578129D01*
X5994185Y30649695D01*
X5885827Y30712045D01*
X5795348Y30764002D01*
X5724796Y30804387D01*
X5676215Y30832022D01*
X5651654Y30845728D01*
X5649085Y30847026D01*
X5656569Y30858780D01*
X5682614Y30890205D01*
X5724559Y30938406D01*
X5779746Y31000490D01*
X5845517Y31073561D01*
X5919212Y31154724D01*
X5998173Y31241084D01*
X6079740Y31329747D01*
X6161254Y31417818D01*
X6240057Y31502401D01*
X6313490Y31580603D01*
X6378893Y31649528D01*
X6433608Y31706281D01*
X6474977Y31747968D01*
X6489164Y31761637D01*
X6536180Y31805799D01*
X6559528Y31769381D01*
G37*
X4736043Y34918165D02*
X4759065Y34880755D01*
X4794534Y34821486D01*
X4840996Y34742882D01*
X4896996Y34647462D01*
X4961081Y34537750D01*
X5031796Y34416266D01*
X5107687Y34285532D01*
X5187299Y34148070D01*
X5269178Y34006402D01*
X5351870Y33863049D01*
X5433921Y33720533D01*
X5513876Y33581376D01*
X5590281Y33448099D01*
X5661682Y33323224D01*
X5726624Y33209273D01*
X5783653Y33108767D01*
X5831315Y33024228D01*
X5868155Y32958178D01*
X5892720Y32913138D01*
X5903554Y32891630D01*
X5903951Y32890286D01*
X5890501Y32872035D01*
X5853114Y32844118D01*
X5796235Y32809275D01*
X5724312Y32770246D01*
X5649015Y32733157D01*
X5546560Y32688183D01*
X5438817Y32647774D01*
X5322073Y32611031D01*
X5192618Y32577058D01*
X5046740Y32544956D01*
X4880726Y32513827D01*
X4690866Y32482773D01*
X4494469Y32453855D01*
X4323834Y32428200D01*
X4180545Y32402802D01*
X4061008Y32376398D01*
X3961630Y32347727D01*
X3878818Y32315527D01*
X3808978Y32278535D01*
X3748518Y32235488D01*
X3693845Y32185125D01*
X3676214Y32166417D01*
X3638000Y32122861D01*
X3609732Y32087318D01*
X3596618Y32066417D01*
X3596268Y32064703D01*
X3591680Y32054194D01*
X3575758Y32054076D01*
X3545266Y32065746D01*
X3496968Y32090604D01*
X3427627Y32130048D01*
X3379439Y32158413D01*
X3307583Y32202753D01*
X3251742Y32240721D01*
X3215667Y32269584D01*
X3203113Y32286612D01*
X3203121Y32286736D01*
X3210906Y32302963D01*
X3232892Y32343600D01*
X3267803Y32406433D01*
X3314363Y32489248D01*
X3371295Y32589828D01*
X3437323Y32705960D01*
X3511172Y32835429D01*
X3591564Y32976020D01*
X3677224Y33125518D01*
X3766876Y33281708D01*
X3859243Y33442376D01*
X3953049Y33605307D01*
X4047018Y33768287D01*
X4139874Y33929100D01*
X4230340Y34085532D01*
X4317141Y34235367D01*
X4399000Y34376392D01*
X4474641Y34506391D01*
X4542787Y34623151D01*
X4602163Y34724455D01*
X4651493Y34808089D01*
X4689500Y34871838D01*
X4714907Y34913489D01*
X4726440Y34930825D01*
X4726923Y34931195D01*
X4736043Y34918165D01*
G36*
X4736043Y34918165D02*
G01*
X4759065Y34880755D01*
X4794534Y34821486D01*
X4840996Y34742882D01*
X4896996Y34647462D01*
X4961081Y34537750D01*
X5031796Y34416266D01*
X5107687Y34285532D01*
X5187299Y34148070D01*
X5269178Y34006402D01*
X5351870Y33863049D01*
X5433921Y33720533D01*
X5513876Y33581376D01*
X5590281Y33448099D01*
X5661682Y33323224D01*
X5726624Y33209273D01*
X5783653Y33108767D01*
X5831315Y33024228D01*
X5868155Y32958178D01*
X5892720Y32913138D01*
X5903554Y32891630D01*
X5903951Y32890286D01*
X5890501Y32872035D01*
X5853114Y32844118D01*
X5796235Y32809275D01*
X5724312Y32770246D01*
X5649015Y32733157D01*
X5546560Y32688183D01*
X5438817Y32647774D01*
X5322073Y32611031D01*
X5192618Y32577058D01*
X5046740Y32544956D01*
X4880726Y32513827D01*
X4690866Y32482773D01*
X4494469Y32453855D01*
X4323834Y32428200D01*
X4180545Y32402802D01*
X4061008Y32376398D01*
X3961630Y32347727D01*
X3878818Y32315527D01*
X3808978Y32278535D01*
X3748518Y32235488D01*
X3693845Y32185125D01*
X3676214Y32166417D01*
X3638000Y32122861D01*
X3609732Y32087318D01*
X3596618Y32066417D01*
X3596268Y32064703D01*
X3591680Y32054194D01*
X3575758Y32054076D01*
X3545266Y32065746D01*
X3496968Y32090604D01*
X3427627Y32130048D01*
X3379439Y32158413D01*
X3307583Y32202753D01*
X3251742Y32240721D01*
X3215667Y32269584D01*
X3203113Y32286612D01*
X3203121Y32286736D01*
X3210906Y32302963D01*
X3232892Y32343600D01*
X3267803Y32406433D01*
X3314363Y32489248D01*
X3371295Y32589828D01*
X3437323Y32705960D01*
X3511172Y32835429D01*
X3591564Y32976020D01*
X3677224Y33125518D01*
X3766876Y33281708D01*
X3859243Y33442376D01*
X3953049Y33605307D01*
X4047018Y33768287D01*
X4139874Y33929100D01*
X4230340Y34085532D01*
X4317141Y34235367D01*
X4399000Y34376392D01*
X4474641Y34506391D01*
X4542787Y34623151D01*
X4602163Y34724455D01*
X4651493Y34808089D01*
X4689500Y34871838D01*
X4714907Y34913489D01*
X4726440Y34930825D01*
X4726923Y34931195D01*
X4736043Y34918165D01*
G37*
X2894094Y31712842D02*
X2926619Y31700264D01*
X2976193Y31675288D01*
X3047374Y31636124D01*
X3052916Y31633012D01*
X3118474Y31595524D01*
X3173798Y31562681D01*
X3213455Y31537795D01*
X3232012Y31524180D01*
X3232531Y31523513D01*
X3228048Y31504610D01*
X3207486Y31462395D01*
X3172183Y31399168D01*
X3123480Y31317228D01*
X3062718Y31218878D01*
X2991236Y31106415D01*
X2973445Y31078835D01*
X2927093Y31002301D01*
X2893342Y30936444D01*
X2875153Y30887218D01*
X2873286Y30877493D01*
X2874115Y30834688D01*
X2883394Y30766791D01*
X2899968Y30678157D01*
X2922680Y30573141D01*
X2950373Y30456098D01*
X2981890Y30331384D01*
X3016075Y30203355D01*
X3051771Y30076366D01*
X3087821Y29954772D01*
X3123068Y29842928D01*
X3156356Y29745190D01*
X3186528Y29665913D01*
X3207561Y29618878D01*
X3232337Y29568775D01*
X3255730Y29520832D01*
X3256997Y29518207D01*
X3295699Y29469780D01*
X3352184Y29437172D01*
X3417939Y29421546D01*
X3484451Y29424063D01*
X3543205Y29445886D01*
X3576258Y29474618D01*
X3623859Y29553417D01*
X3658739Y29651622D01*
X3677877Y29759221D01*
X3680588Y29820220D01*
X3669670Y29934065D01*
X3637624Y30028340D01*
X3582726Y30107621D01*
X3565607Y30125267D01*
X3514661Y30174765D01*
X3511163Y30524638D01*
X3507664Y30874511D01*
X3596818Y31009469D01*
X3638654Y31070555D01*
X3678945Y31125507D01*
X3711943Y31166664D01*
X3726126Y31181808D01*
X3766281Y31219190D01*
X3820665Y31189902D01*
X3855039Y31168916D01*
X3873846Y31152622D01*
X3875049Y31149693D01*
X3887903Y31137272D01*
X3909896Y31128023D01*
X3931150Y31119687D01*
X3963694Y31103851D01*
X4010322Y31078967D01*
X4073829Y31043491D01*
X4157008Y30995877D01*
X4262653Y30934578D01*
X4320062Y30901068D01*
X4387594Y30860929D01*
X4431885Y30832341D01*
X4456855Y30811961D01*
X4466423Y30796447D01*
X4464508Y30782454D01*
X4462911Y30779204D01*
X4447376Y30758734D01*
X4414136Y30720335D01*
X4367062Y30668304D01*
X4310028Y30606934D01*
X4260700Y30554910D01*
X4147030Y30431433D01*
X4058105Y30324409D01*
X3993134Y30232760D01*
X3951321Y30155412D01*
X3937217Y30116134D01*
X3931392Y30081751D01*
X3925375Y30023101D01*
X3919696Y29946883D01*
X3914884Y29859798D01*
X3912619Y29804732D01*
X3909459Y29709536D01*
X3908069Y29639938D01*
X3908858Y29590591D01*
X3912235Y29556146D01*
X3918608Y29531257D01*
X3928387Y29510575D01*
X3936067Y29497947D01*
X3980421Y29449274D01*
X4037574Y29415355D01*
X4097708Y29400562D01*
X4142773Y29405914D01*
X4183576Y29429070D01*
X4234724Y29470538D01*
X4289042Y29523088D01*
X4339357Y29579484D01*
X4378494Y29632495D01*
X4392905Y29658111D01*
X4414491Y29693186D01*
X4453753Y29746611D01*
X4507102Y29814211D01*
X4570952Y29891810D01*
X4641715Y29975232D01*
X4715804Y30060302D01*
X4789632Y30142845D01*
X4859611Y30218684D01*
X4922155Y30283644D01*
X4971260Y30331331D01*
X5025779Y30378968D01*
X5071642Y30414092D01*
X5103811Y30433051D01*
X5114489Y30435136D01*
X5130853Y30426726D01*
X5171671Y30404154D01*
X5234586Y30368776D01*
X5317244Y30321946D01*
X5417289Y30265019D01*
X5532366Y30199351D01*
X5660119Y30126297D01*
X5798194Y30047212D01*
X5944234Y29963452D01*
X6095884Y29876371D01*
X6250790Y29787324D01*
X6406595Y29697668D01*
X6560944Y29608757D01*
X6711482Y29521946D01*
X6855854Y29438591D01*
X6991704Y29360046D01*
X7116677Y29287667D01*
X7228417Y29222810D01*
X7324570Y29166829D01*
X7402779Y29121080D01*
X7460689Y29086917D01*
X7495946Y29065696D01*
X7506165Y29059037D01*
X7492402Y29057720D01*
X7449104Y29056441D01*
X7377714Y29055204D01*
X7279673Y29054017D01*
X7156422Y29052885D01*
X7009403Y29051814D01*
X6840057Y29050811D01*
X6649826Y29049881D01*
X6440151Y29049032D01*
X6212473Y29048268D01*
X5968235Y29047597D01*
X5708877Y29047024D01*
X5435841Y29046556D01*
X5150568Y29046198D01*
X4854500Y29045958D01*
X4549079Y29045841D01*
X4420924Y29045829D01*
X1320970Y29045829D01*
X1542053Y29429153D01*
X1588856Y29510320D01*
X1649102Y29614834D01*
X1720778Y29739199D01*
X1801869Y29879918D01*
X1890362Y30033497D01*
X1984240Y30196438D01*
X2081491Y30365246D01*
X2180100Y30536425D01*
X2278053Y30706479D01*
X2302825Y30749488D01*
X2393152Y30906143D01*
X2479289Y31055197D01*
X2559942Y31194432D01*
X2633816Y31321629D01*
X2699617Y31434568D01*
X2756050Y31531032D01*
X2801821Y31608800D01*
X2835635Y31665654D01*
X2856198Y31699375D01*
X2861953Y31707960D01*
X2874058Y31714811D01*
X2894094Y31712842D01*
G36*
X2894094Y31712842D02*
G01*
X2926619Y31700264D01*
X2976193Y31675288D01*
X3047374Y31636124D01*
X3052916Y31633012D01*
X3118474Y31595524D01*
X3173798Y31562681D01*
X3213455Y31537795D01*
X3232012Y31524180D01*
X3232531Y31523513D01*
X3228048Y31504610D01*
X3207486Y31462395D01*
X3172183Y31399168D01*
X3123480Y31317228D01*
X3062718Y31218878D01*
X2991236Y31106415D01*
X2973445Y31078835D01*
X2927093Y31002301D01*
X2893342Y30936444D01*
X2875153Y30887218D01*
X2873286Y30877493D01*
X2874115Y30834688D01*
X2883394Y30766791D01*
X2899968Y30678157D01*
X2922680Y30573141D01*
X2950373Y30456098D01*
X2981890Y30331384D01*
X3016075Y30203355D01*
X3051771Y30076366D01*
X3087821Y29954772D01*
X3123068Y29842928D01*
X3156356Y29745190D01*
X3186528Y29665913D01*
X3207561Y29618878D01*
X3232337Y29568775D01*
X3255730Y29520832D01*
X3256997Y29518207D01*
X3295699Y29469780D01*
X3352184Y29437172D01*
X3417939Y29421546D01*
X3484451Y29424063D01*
X3543205Y29445886D01*
X3576258Y29474618D01*
X3623859Y29553417D01*
X3658739Y29651622D01*
X3677877Y29759221D01*
X3680588Y29820220D01*
X3669670Y29934065D01*
X3637624Y30028340D01*
X3582726Y30107621D01*
X3565607Y30125267D01*
X3514661Y30174765D01*
X3511163Y30524638D01*
X3507664Y30874511D01*
X3596818Y31009469D01*
X3638654Y31070555D01*
X3678945Y31125507D01*
X3711943Y31166664D01*
X3726126Y31181808D01*
X3766281Y31219190D01*
X3820665Y31189902D01*
X3855039Y31168916D01*
X3873846Y31152622D01*
X3875049Y31149693D01*
X3887903Y31137272D01*
X3909896Y31128023D01*
X3931150Y31119687D01*
X3963694Y31103851D01*
X4010322Y31078967D01*
X4073829Y31043491D01*
X4157008Y30995877D01*
X4262653Y30934578D01*
X4320062Y30901068D01*
X4387594Y30860929D01*
X4431885Y30832341D01*
X4456855Y30811961D01*
X4466423Y30796447D01*
X4464508Y30782454D01*
X4462911Y30779204D01*
X4447376Y30758734D01*
X4414136Y30720335D01*
X4367062Y30668304D01*
X4310028Y30606934D01*
X4260700Y30554910D01*
X4147030Y30431433D01*
X4058105Y30324409D01*
X3993134Y30232760D01*
X3951321Y30155412D01*
X3937217Y30116134D01*
X3931392Y30081751D01*
X3925375Y30023101D01*
X3919696Y29946883D01*
X3914884Y29859798D01*
X3912619Y29804732D01*
X3909459Y29709536D01*
X3908069Y29639938D01*
X3908858Y29590591D01*
X3912235Y29556146D01*
X3918608Y29531257D01*
X3928387Y29510575D01*
X3936067Y29497947D01*
X3980421Y29449274D01*
X4037574Y29415355D01*
X4097708Y29400562D01*
X4142773Y29405914D01*
X4183576Y29429070D01*
X4234724Y29470538D01*
X4289042Y29523088D01*
X4339357Y29579484D01*
X4378494Y29632495D01*
X4392905Y29658111D01*
X4414491Y29693186D01*
X4453753Y29746611D01*
X4507102Y29814211D01*
X4570952Y29891810D01*
X4641715Y29975232D01*
X4715804Y30060302D01*
X4789632Y30142845D01*
X4859611Y30218684D01*
X4922155Y30283644D01*
X4971260Y30331331D01*
X5025779Y30378968D01*
X5071642Y30414092D01*
X5103811Y30433051D01*
X5114489Y30435136D01*
X5130853Y30426726D01*
X5171671Y30404154D01*
X5234586Y30368776D01*
X5317244Y30321946D01*
X5417289Y30265019D01*
X5532366Y30199351D01*
X5660119Y30126297D01*
X5798194Y30047212D01*
X5944234Y29963452D01*
X6095884Y29876371D01*
X6250790Y29787324D01*
X6406595Y29697668D01*
X6560944Y29608757D01*
X6711482Y29521946D01*
X6855854Y29438591D01*
X6991704Y29360046D01*
X7116677Y29287667D01*
X7228417Y29222810D01*
X7324570Y29166829D01*
X7402779Y29121080D01*
X7460689Y29086917D01*
X7495946Y29065696D01*
X7506165Y29059037D01*
X7492402Y29057720D01*
X7449104Y29056441D01*
X7377714Y29055204D01*
X7279673Y29054017D01*
X7156422Y29052885D01*
X7009403Y29051814D01*
X6840057Y29050811D01*
X6649826Y29049881D01*
X6440151Y29049032D01*
X6212473Y29048268D01*
X5968235Y29047597D01*
X5708877Y29047024D01*
X5435841Y29046556D01*
X5150568Y29046198D01*
X4854500Y29045958D01*
X4549079Y29045841D01*
X4420924Y29045829D01*
X1320970Y29045829D01*
X1542053Y29429153D01*
X1588856Y29510320D01*
X1649102Y29614834D01*
X1720778Y29739199D01*
X1801869Y29879918D01*
X1890362Y30033497D01*
X1984240Y30196438D01*
X2081491Y30365246D01*
X2180100Y30536425D01*
X2278053Y30706479D01*
X2302825Y30749488D01*
X2393152Y30906143D01*
X2479289Y31055197D01*
X2559942Y31194432D01*
X2633816Y31321629D01*
X2699617Y31434568D01*
X2756050Y31531032D01*
X2801821Y31608800D01*
X2835635Y31665654D01*
X2856198Y31699375D01*
X2861953Y31707960D01*
X2874058Y31714811D01*
X2894094Y31712842D01*
G37*
X4548910Y28411652D02*
X4627454Y28411222D01*
X4684298Y28410058D01*
X4723105Y28407793D01*
X4747538Y28404060D01*
X4761262Y28398494D01*
X4767940Y28390727D01*
X4771236Y28380395D01*
X4771556Y28379057D01*
X4776562Y28354921D01*
X4785829Y28307299D01*
X4798392Y28241259D01*
X4813287Y28161872D01*
X4829551Y28074204D01*
X4830119Y28071125D01*
X4846410Y27985211D01*
X4861652Y27909304D01*
X4874861Y27847955D01*
X4885054Y27805718D01*
X4891248Y27787145D01*
X4891543Y27786816D01*
X4909788Y27777747D01*
X4947405Y27762633D01*
X4996271Y27744738D01*
X4996543Y27744642D01*
X5058093Y27721507D01*
X5130657Y27692035D01*
X5199057Y27662403D01*
X5202294Y27660938D01*
X5313702Y27610374D01*
X5560399Y27778840D01*
X5636077Y27830197D01*
X5704631Y27876111D01*
X5762088Y27913970D01*
X5804476Y27941163D01*
X5827825Y27955079D01*
X5830042Y27956111D01*
X5847010Y27951516D01*
X5878701Y27929345D01*
X5926352Y27888553D01*
X5991198Y27828095D01*
X6057397Y27763773D01*
X6121214Y27700388D01*
X6178329Y27642549D01*
X6225305Y27593825D01*
X6258703Y27557790D01*
X6275085Y27538016D01*
X6275694Y27536998D01*
X6277505Y27523428D01*
X6270683Y27501267D01*
X6253540Y27467522D01*
X6224393Y27419200D01*
X6181555Y27353308D01*
X6124448Y27268483D01*
X6073766Y27193823D01*
X6028461Y27126860D01*
X5991150Y27071484D01*
X5964452Y27031580D01*
X5950985Y27011038D01*
X5950137Y27009644D01*
X5951781Y26989962D01*
X5964245Y26951707D01*
X5985048Y26902111D01*
X5992462Y26886272D01*
X6024814Y26815710D01*
X6059328Y26735647D01*
X6087365Y26666371D01*
X6107568Y26614955D01*
X6123615Y26575881D01*
X6132888Y26555459D01*
X6134041Y26553886D01*
X6151096Y26551279D01*
X6191298Y26544137D01*
X6249302Y26533477D01*
X6319763Y26520315D01*
X6397335Y26505667D01*
X6476672Y26490551D01*
X6552431Y26475982D01*
X6619264Y26462978D01*
X6671828Y26452555D01*
X6704776Y26445730D01*
X6712857Y26443801D01*
X6721205Y26439038D01*
X6727506Y26428282D01*
X6732045Y26407902D01*
X6735104Y26374266D01*
X6736967Y26323745D01*
X6737918Y26252708D01*
X6738240Y26157524D01*
X6738257Y26118508D01*
X6738257Y25801201D01*
X6662057Y25786161D01*
X6619663Y25778005D01*
X6556400Y25766101D01*
X6479962Y25751884D01*
X6398043Y25736790D01*
X6375400Y25732645D01*
X6299806Y25717947D01*
X6233953Y25703495D01*
X6183366Y25690625D01*
X6153574Y25680678D01*
X6148612Y25677713D01*
X6136426Y25656717D01*
X6118953Y25616033D01*
X6099577Y25563678D01*
X6095734Y25552400D01*
X6070339Y25482477D01*
X6038817Y25403582D01*
X6007969Y25332734D01*
X6007817Y25332405D01*
X5956447Y25221267D01*
X6125399Y24972747D01*
X6294352Y24724228D01*
X6077429Y24506942D01*
X6011819Y24442274D01*
X5951979Y24385267D01*
X5901267Y24338967D01*
X5863046Y24306416D01*
X5840675Y24290657D01*
X5837466Y24289657D01*
X5818626Y24297531D01*
X5780180Y24319422D01*
X5726330Y24352733D01*
X5661276Y24394869D01*
X5590940Y24442057D01*
X5519555Y24490190D01*
X5455908Y24532072D01*
X5404041Y24565129D01*
X5367995Y24586782D01*
X5351867Y24594457D01*
X5332189Y24587963D01*
X5294875Y24570850D01*
X5247621Y24546674D01*
X5242612Y24543987D01*
X5178977Y24512073D01*
X5135341Y24496421D01*
X5108202Y24496255D01*
X5094057Y24510796D01*
X5093975Y24511000D01*
X5086905Y24528221D01*
X5070042Y24569101D01*
X5044695Y24630475D01*
X5012171Y24709181D01*
X4973778Y24802053D01*
X4930822Y24905928D01*
X4889222Y25006498D01*
X4843504Y25117484D01*
X4801526Y25220297D01*
X4764548Y25311785D01*
X4733827Y25388799D01*
X4710622Y25448185D01*
X4696190Y25486791D01*
X4691743Y25501200D01*
X4702896Y25517728D01*
X4732069Y25544070D01*
X4770971Y25573113D01*
X4881757Y25664961D01*
X4968351Y25770241D01*
X5029716Y25886734D01*
X5064815Y26012224D01*
X5072608Y26144493D01*
X5066943Y26205543D01*
X5036078Y26332205D01*
X4982920Y26444059D01*
X4910767Y26539999D01*
X4822917Y26618924D01*
X4722665Y26679730D01*
X4613310Y26721313D01*
X4498147Y26742572D01*
X4380475Y26742401D01*
X4263590Y26719699D01*
X4150789Y26673362D01*
X4045369Y26602287D01*
X4001368Y26562089D01*
X3916979Y26458871D01*
X3858222Y26346075D01*
X3824704Y26226990D01*
X3816035Y26104905D01*
X3831823Y25983107D01*
X3871678Y25864884D01*
X3935207Y25753525D01*
X4022021Y25652316D01*
X4119029Y25573113D01*
X4159437Y25542838D01*
X4187982Y25516781D01*
X4198257Y25501175D01*
X4192877Y25484157D01*
X4177575Y25443500D01*
X4153612Y25382358D01*
X4122244Y25303881D01*
X4084732Y25211220D01*
X4042333Y25107528D01*
X4000663Y25006474D01*
X3954690Y24895393D01*
X3912107Y24792459D01*
X3874221Y24700835D01*
X3842340Y24623684D01*
X3817771Y24564169D01*
X3801820Y24525456D01*
X3795910Y24511000D01*
X3781948Y24496315D01*
X3754940Y24496358D01*
X3711413Y24511901D01*
X3647890Y24543716D01*
X3647388Y24543987D01*
X3599560Y24568677D01*
X3560897Y24586662D01*
X3539095Y24594386D01*
X3538133Y24594457D01*
X3521721Y24586622D01*
X3485487Y24564835D01*
X3433474Y24531672D01*
X3369725Y24489709D01*
X3299060Y24442057D01*
X3227116Y24393809D01*
X3162274Y24351849D01*
X3108735Y24318773D01*
X3070697Y24297179D01*
X3052533Y24289657D01*
X3035808Y24299543D01*
X3002180Y24327174D01*
X2955010Y24369505D01*
X2897658Y24423495D01*
X2833484Y24486101D01*
X2812497Y24507017D01*
X2595499Y24724377D01*
X2760668Y24966780D01*
X2810864Y25041219D01*
X2854919Y25108028D01*
X2890362Y25163335D01*
X2914719Y25203271D01*
X2925522Y25223964D01*
X2925838Y25225437D01*
X2920143Y25244942D01*
X2904826Y25284178D01*
X2882537Y25336570D01*
X2866893Y25371645D01*
X2837641Y25438799D01*
X2810094Y25506642D01*
X2788737Y25563966D01*
X2782935Y25581428D01*
X2766452Y25628062D01*
X2750340Y25664095D01*
X2741490Y25677713D01*
X2721960Y25686048D01*
X2679334Y25697863D01*
X2619145Y25711819D01*
X2546922Y25726578D01*
X2514600Y25732645D01*
X2432522Y25747727D01*
X2353795Y25762331D01*
X2286109Y25775020D01*
X2237160Y25784358D01*
X2227943Y25786161D01*
X2151743Y25801201D01*
X2151743Y26118508D01*
X2151914Y26222846D01*
X2152616Y26301787D01*
X2154134Y26358962D01*
X2156749Y26398001D01*
X2160746Y26422535D01*
X2166409Y26436195D01*
X2174020Y26442611D01*
X2177143Y26443801D01*
X2195978Y26448020D01*
X2237588Y26456438D01*
X2296630Y26468039D01*
X2367757Y26481805D01*
X2445625Y26496720D01*
X2524887Y26511768D01*
X2600198Y26525931D01*
X2666213Y26538194D01*
X2717587Y26547539D01*
X2748975Y26552950D01*
X2755959Y26553886D01*
X2762285Y26566404D01*
X2776290Y26599754D01*
X2795355Y26647623D01*
X2802634Y26666371D01*
X2831996Y26738805D01*
X2866571Y26818830D01*
X2897537Y26886272D01*
X2920323Y26937841D01*
X2935482Y26980215D01*
X2940542Y27006166D01*
X2939736Y27009644D01*
X2929041Y27026064D01*
X2904620Y27062583D01*
X2869095Y27115313D01*
X2825087Y27180365D01*
X2775217Y27253849D01*
X2765356Y27268355D01*
X2707492Y27354296D01*
X2664956Y27419739D01*
X2636054Y27467696D01*
X2619090Y27501180D01*
X2612367Y27523205D01*
X2614190Y27536783D01*
X2614236Y27536869D01*
X2628586Y27554703D01*
X2660323Y27589183D01*
X2706010Y27636732D01*
X2762204Y27693778D01*
X2825468Y27756745D01*
X2832602Y27763773D01*
X2912330Y27840980D01*
X2973857Y27897670D01*
X3018421Y27934890D01*
X3047257Y27953685D01*
X3059958Y27956111D01*
X3078494Y27945529D01*
X3116961Y27921084D01*
X3171386Y27885388D01*
X3237798Y27841053D01*
X3312225Y27790689D01*
X3329601Y27778840D01*
X3576297Y27610374D01*
X3687706Y27660938D01*
X3755457Y27690405D01*
X3828183Y27720041D01*
X3890703Y27743670D01*
X3893457Y27744642D01*
X3942360Y27762543D01*
X3980057Y27777680D01*
X3998425Y27786790D01*
X3998456Y27786816D01*
X4004285Y27803283D01*
X4014192Y27843781D01*
X4027195Y27903758D01*
X4042309Y27978660D01*
X4058552Y28063936D01*
X4059881Y28071125D01*
X4076175Y28158986D01*
X4091133Y28238740D01*
X4103791Y28305319D01*
X4113186Y28353653D01*
X4118354Y28378675D01*
X4118444Y28379057D01*
X4121589Y28389701D01*
X4127704Y28397738D01*
X4140453Y28403533D01*
X4163500Y28407453D01*
X4200509Y28409865D01*
X4255144Y28411135D01*
X4331067Y28411629D01*
X4431944Y28411714D01*
X4445000Y28411714D01*
X4548910Y28411652D01*
G36*
X4548910Y28411652D02*
G01*
X4627454Y28411222D01*
X4684298Y28410058D01*
X4723105Y28407793D01*
X4747538Y28404060D01*
X4761262Y28398494D01*
X4767940Y28390727D01*
X4771236Y28380395D01*
X4771556Y28379057D01*
X4776562Y28354921D01*
X4785829Y28307299D01*
X4798392Y28241259D01*
X4813287Y28161872D01*
X4829551Y28074204D01*
X4830119Y28071125D01*
X4846410Y27985211D01*
X4861652Y27909304D01*
X4874861Y27847955D01*
X4885054Y27805718D01*
X4891248Y27787145D01*
X4891543Y27786816D01*
X4909788Y27777747D01*
X4947405Y27762633D01*
X4996271Y27744738D01*
X4996543Y27744642D01*
X5058093Y27721507D01*
X5130657Y27692035D01*
X5199057Y27662403D01*
X5202294Y27660938D01*
X5313702Y27610374D01*
X5560399Y27778840D01*
X5636077Y27830197D01*
X5704631Y27876111D01*
X5762088Y27913970D01*
X5804476Y27941163D01*
X5827825Y27955079D01*
X5830042Y27956111D01*
X5847010Y27951516D01*
X5878701Y27929345D01*
X5926352Y27888553D01*
X5991198Y27828095D01*
X6057397Y27763773D01*
X6121214Y27700388D01*
X6178329Y27642549D01*
X6225305Y27593825D01*
X6258703Y27557790D01*
X6275085Y27538016D01*
X6275694Y27536998D01*
X6277505Y27523428D01*
X6270683Y27501267D01*
X6253540Y27467522D01*
X6224393Y27419200D01*
X6181555Y27353308D01*
X6124448Y27268483D01*
X6073766Y27193823D01*
X6028461Y27126860D01*
X5991150Y27071484D01*
X5964452Y27031580D01*
X5950985Y27011038D01*
X5950137Y27009644D01*
X5951781Y26989962D01*
X5964245Y26951707D01*
X5985048Y26902111D01*
X5992462Y26886272D01*
X6024814Y26815710D01*
X6059328Y26735647D01*
X6087365Y26666371D01*
X6107568Y26614955D01*
X6123615Y26575881D01*
X6132888Y26555459D01*
X6134041Y26553886D01*
X6151096Y26551279D01*
X6191298Y26544137D01*
X6249302Y26533477D01*
X6319763Y26520315D01*
X6397335Y26505667D01*
X6476672Y26490551D01*
X6552431Y26475982D01*
X6619264Y26462978D01*
X6671828Y26452555D01*
X6704776Y26445730D01*
X6712857Y26443801D01*
X6721205Y26439038D01*
X6727506Y26428282D01*
X6732045Y26407902D01*
X6735104Y26374266D01*
X6736967Y26323745D01*
X6737918Y26252708D01*
X6738240Y26157524D01*
X6738257Y26118508D01*
X6738257Y25801201D01*
X6662057Y25786161D01*
X6619663Y25778005D01*
X6556400Y25766101D01*
X6479962Y25751884D01*
X6398043Y25736790D01*
X6375400Y25732645D01*
X6299806Y25717947D01*
X6233953Y25703495D01*
X6183366Y25690625D01*
X6153574Y25680678D01*
X6148612Y25677713D01*
X6136426Y25656717D01*
X6118953Y25616033D01*
X6099577Y25563678D01*
X6095734Y25552400D01*
X6070339Y25482477D01*
X6038817Y25403582D01*
X6007969Y25332734D01*
X6007817Y25332405D01*
X5956447Y25221267D01*
X6125399Y24972747D01*
X6294352Y24724228D01*
X6077429Y24506942D01*
X6011819Y24442274D01*
X5951979Y24385267D01*
X5901267Y24338967D01*
X5863046Y24306416D01*
X5840675Y24290657D01*
X5837466Y24289657D01*
X5818626Y24297531D01*
X5780180Y24319422D01*
X5726330Y24352733D01*
X5661276Y24394869D01*
X5590940Y24442057D01*
X5519555Y24490190D01*
X5455908Y24532072D01*
X5404041Y24565129D01*
X5367995Y24586782D01*
X5351867Y24594457D01*
X5332189Y24587963D01*
X5294875Y24570850D01*
X5247621Y24546674D01*
X5242612Y24543987D01*
X5178977Y24512073D01*
X5135341Y24496421D01*
X5108202Y24496255D01*
X5094057Y24510796D01*
X5093975Y24511000D01*
X5086905Y24528221D01*
X5070042Y24569101D01*
X5044695Y24630475D01*
X5012171Y24709181D01*
X4973778Y24802053D01*
X4930822Y24905928D01*
X4889222Y25006498D01*
X4843504Y25117484D01*
X4801526Y25220297D01*
X4764548Y25311785D01*
X4733827Y25388799D01*
X4710622Y25448185D01*
X4696190Y25486791D01*
X4691743Y25501200D01*
X4702896Y25517728D01*
X4732069Y25544070D01*
X4770971Y25573113D01*
X4881757Y25664961D01*
X4968351Y25770241D01*
X5029716Y25886734D01*
X5064815Y26012224D01*
X5072608Y26144493D01*
X5066943Y26205543D01*
X5036078Y26332205D01*
X4982920Y26444059D01*
X4910767Y26539999D01*
X4822917Y26618924D01*
X4722665Y26679730D01*
X4613310Y26721313D01*
X4498147Y26742572D01*
X4380475Y26742401D01*
X4263590Y26719699D01*
X4150789Y26673362D01*
X4045369Y26602287D01*
X4001368Y26562089D01*
X3916979Y26458871D01*
X3858222Y26346075D01*
X3824704Y26226990D01*
X3816035Y26104905D01*
X3831823Y25983107D01*
X3871678Y25864884D01*
X3935207Y25753525D01*
X4022021Y25652316D01*
X4119029Y25573113D01*
X4159437Y25542838D01*
X4187982Y25516781D01*
X4198257Y25501175D01*
X4192877Y25484157D01*
X4177575Y25443500D01*
X4153612Y25382358D01*
X4122244Y25303881D01*
X4084732Y25211220D01*
X4042333Y25107528D01*
X4000663Y25006474D01*
X3954690Y24895393D01*
X3912107Y24792459D01*
X3874221Y24700835D01*
X3842340Y24623684D01*
X3817771Y24564169D01*
X3801820Y24525456D01*
X3795910Y24511000D01*
X3781948Y24496315D01*
X3754940Y24496358D01*
X3711413Y24511901D01*
X3647890Y24543716D01*
X3647388Y24543987D01*
X3599560Y24568677D01*
X3560897Y24586662D01*
X3539095Y24594386D01*
X3538133Y24594457D01*
X3521721Y24586622D01*
X3485487Y24564835D01*
X3433474Y24531672D01*
X3369725Y24489709D01*
X3299060Y24442057D01*
X3227116Y24393809D01*
X3162274Y24351849D01*
X3108735Y24318773D01*
X3070697Y24297179D01*
X3052533Y24289657D01*
X3035808Y24299543D01*
X3002180Y24327174D01*
X2955010Y24369505D01*
X2897658Y24423495D01*
X2833484Y24486101D01*
X2812497Y24507017D01*
X2595499Y24724377D01*
X2760668Y24966780D01*
X2810864Y25041219D01*
X2854919Y25108028D01*
X2890362Y25163335D01*
X2914719Y25203271D01*
X2925522Y25223964D01*
X2925838Y25225437D01*
X2920143Y25244942D01*
X2904826Y25284178D01*
X2882537Y25336570D01*
X2866893Y25371645D01*
X2837641Y25438799D01*
X2810094Y25506642D01*
X2788737Y25563966D01*
X2782935Y25581428D01*
X2766452Y25628062D01*
X2750340Y25664095D01*
X2741490Y25677713D01*
X2721960Y25686048D01*
X2679334Y25697863D01*
X2619145Y25711819D01*
X2546922Y25726578D01*
X2514600Y25732645D01*
X2432522Y25747727D01*
X2353795Y25762331D01*
X2286109Y25775020D01*
X2237160Y25784358D01*
X2227943Y25786161D01*
X2151743Y25801201D01*
X2151743Y26118508D01*
X2151914Y26222846D01*
X2152616Y26301787D01*
X2154134Y26358962D01*
X2156749Y26398001D01*
X2160746Y26422535D01*
X2166409Y26436195D01*
X2174020Y26442611D01*
X2177143Y26443801D01*
X2195978Y26448020D01*
X2237588Y26456438D01*
X2296630Y26468039D01*
X2367757Y26481805D01*
X2445625Y26496720D01*
X2524887Y26511768D01*
X2600198Y26525931D01*
X2666213Y26538194D01*
X2717587Y26547539D01*
X2748975Y26552950D01*
X2755959Y26553886D01*
X2762285Y26566404D01*
X2776290Y26599754D01*
X2795355Y26647623D01*
X2802634Y26666371D01*
X2831996Y26738805D01*
X2866571Y26818830D01*
X2897537Y26886272D01*
X2920323Y26937841D01*
X2935482Y26980215D01*
X2940542Y27006166D01*
X2939736Y27009644D01*
X2929041Y27026064D01*
X2904620Y27062583D01*
X2869095Y27115313D01*
X2825087Y27180365D01*
X2775217Y27253849D01*
X2765356Y27268355D01*
X2707492Y27354296D01*
X2664956Y27419739D01*
X2636054Y27467696D01*
X2619090Y27501180D01*
X2612367Y27523205D01*
X2614190Y27536783D01*
X2614236Y27536869D01*
X2628586Y27554703D01*
X2660323Y27589183D01*
X2706010Y27636732D01*
X2762204Y27693778D01*
X2825468Y27756745D01*
X2832602Y27763773D01*
X2912330Y27840980D01*
X2973857Y27897670D01*
X3018421Y27934890D01*
X3047257Y27953685D01*
X3059958Y27956111D01*
X3078494Y27945529D01*
X3116961Y27921084D01*
X3171386Y27885388D01*
X3237798Y27841053D01*
X3312225Y27790689D01*
X3329601Y27778840D01*
X3576297Y27610374D01*
X3687706Y27660938D01*
X3755457Y27690405D01*
X3828183Y27720041D01*
X3890703Y27743670D01*
X3893457Y27744642D01*
X3942360Y27762543D01*
X3980057Y27777680D01*
X3998425Y27786790D01*
X3998456Y27786816D01*
X4004285Y27803283D01*
X4014192Y27843781D01*
X4027195Y27903758D01*
X4042309Y27978660D01*
X4058552Y28063936D01*
X4059881Y28071125D01*
X4076175Y28158986D01*
X4091133Y28238740D01*
X4103791Y28305319D01*
X4113186Y28353653D01*
X4118354Y28378675D01*
X4118444Y28379057D01*
X4121589Y28389701D01*
X4127704Y28397738D01*
X4140453Y28403533D01*
X4163500Y28407453D01*
X4200509Y28409865D01*
X4255144Y28411135D01*
X4331067Y28411629D01*
X4431944Y28411714D01*
X4445000Y28411714D01*
X4548910Y28411652D01*
G37*
X6589876Y23697665D02*
X6631667Y23678656D01*
X6664469Y23655622D01*
X6688503Y23629867D01*
X6705097Y23596642D01*
X6715577Y23551200D01*
X6721271Y23488793D01*
X6723507Y23404673D01*
X6723743Y23349279D01*
X6723743Y23133174D01*
X6686774Y23116330D01*
X6657656Y23104019D01*
X6643231Y23099486D01*
X6640472Y23112975D01*
X6638282Y23149347D01*
X6636942Y23202458D01*
X6636657Y23244628D01*
X6635434Y23305553D01*
X6632136Y23353885D01*
X6627321Y23383482D01*
X6623496Y23389771D01*
X6597783Y23383348D01*
X6557418Y23366875D01*
X6510679Y23344542D01*
X6465845Y23320543D01*
X6431193Y23299070D01*
X6415002Y23284315D01*
X6414938Y23284155D01*
X6416330Y23256848D01*
X6428818Y23230781D01*
X6450743Y23209608D01*
X6482743Y23202526D01*
X6510092Y23203351D01*
X6548826Y23203958D01*
X6569158Y23194884D01*
X6581369Y23170908D01*
X6582909Y23166387D01*
X6588203Y23132194D01*
X6574047Y23111432D01*
X6537148Y23101538D01*
X6497289Y23099708D01*
X6425562Y23113273D01*
X6388432Y23132645D01*
X6342576Y23178155D01*
X6318256Y23234017D01*
X6316073Y23293043D01*
X6336629Y23348047D01*
X6367549Y23382514D01*
X6398420Y23401811D01*
X6446942Y23426241D01*
X6503485Y23451015D01*
X6512910Y23454801D01*
X6575019Y23482209D01*
X6610822Y23506366D01*
X6622337Y23530381D01*
X6611580Y23557365D01*
X6593114Y23578457D01*
X6549469Y23604428D01*
X6501446Y23606376D01*
X6457406Y23586363D01*
X6425709Y23546449D01*
X6421549Y23536152D01*
X6397327Y23498276D01*
X6361965Y23470158D01*
X6317343Y23447083D01*
X6317343Y23512515D01*
X6319969Y23552494D01*
X6331230Y23584003D01*
X6356199Y23617622D01*
X6380169Y23643516D01*
X6417441Y23680183D01*
X6446401Y23699879D01*
X6477505Y23707780D01*
X6512713Y23709086D01*
X6589876Y23697665D01*
G36*
X6589876Y23697665D02*
G01*
X6631667Y23678656D01*
X6664469Y23655622D01*
X6688503Y23629867D01*
X6705097Y23596642D01*
X6715577Y23551200D01*
X6721271Y23488793D01*
X6723507Y23404673D01*
X6723743Y23349279D01*
X6723743Y23133174D01*
X6686774Y23116330D01*
X6657656Y23104019D01*
X6643231Y23099486D01*
X6640472Y23112975D01*
X6638282Y23149347D01*
X6636942Y23202458D01*
X6636657Y23244628D01*
X6635434Y23305553D01*
X6632136Y23353885D01*
X6627321Y23383482D01*
X6623496Y23389771D01*
X6597783Y23383348D01*
X6557418Y23366875D01*
X6510679Y23344542D01*
X6465845Y23320543D01*
X6431193Y23299070D01*
X6415002Y23284315D01*
X6414938Y23284155D01*
X6416330Y23256848D01*
X6428818Y23230781D01*
X6450743Y23209608D01*
X6482743Y23202526D01*
X6510092Y23203351D01*
X6548826Y23203958D01*
X6569158Y23194884D01*
X6581369Y23170908D01*
X6582909Y23166387D01*
X6588203Y23132194D01*
X6574047Y23111432D01*
X6537148Y23101538D01*
X6497289Y23099708D01*
X6425562Y23113273D01*
X6388432Y23132645D01*
X6342576Y23178155D01*
X6318256Y23234017D01*
X6316073Y23293043D01*
X6336629Y23348047D01*
X6367549Y23382514D01*
X6398420Y23401811D01*
X6446942Y23426241D01*
X6503485Y23451015D01*
X6512910Y23454801D01*
X6575019Y23482209D01*
X6610822Y23506366D01*
X6622337Y23530381D01*
X6611580Y23557365D01*
X6593114Y23578457D01*
X6549469Y23604428D01*
X6501446Y23606376D01*
X6457406Y23586363D01*
X6425709Y23546449D01*
X6421549Y23536152D01*
X6397327Y23498276D01*
X6361965Y23470158D01*
X6317343Y23447083D01*
X6317343Y23512515D01*
X6319969Y23552494D01*
X6331230Y23584003D01*
X6356199Y23617622D01*
X6380169Y23643516D01*
X6417441Y23680183D01*
X6446401Y23699879D01*
X6477505Y23707780D01*
X6512713Y23709086D01*
X6589876Y23697665D01*
G37*
X2044744Y23734082D02*
X2100201Y23706432D01*
X2149148Y23655520D01*
X2162629Y23636662D01*
X2177314Y23611985D01*
X2186842Y23585184D01*
X2192293Y23549413D01*
X2194747Y23497831D01*
X2195286Y23429733D01*
X2192852Y23336412D01*
X2184394Y23266343D01*
X2168174Y23214069D01*
X2142454Y23174131D01*
X2105497Y23141071D01*
X2102782Y23139114D01*
X2066360Y23119092D01*
X2022502Y23109185D01*
X1966724Y23106743D01*
X1876048Y23106743D01*
X1876010Y23018717D01*
X1875166Y22969692D01*
X1870024Y22940935D01*
X1856587Y22923689D01*
X1830858Y22909192D01*
X1824679Y22906231D01*
X1795764Y22892352D01*
X1773376Y22883586D01*
X1756729Y22882829D01*
X1745036Y22892977D01*
X1737510Y22916927D01*
X1733366Y22957574D01*
X1731815Y23017814D01*
X1732071Y23100545D01*
X1733349Y23208661D01*
X1733748Y23241000D01*
X1735185Y23352476D01*
X1736472Y23425397D01*
X1875971Y23425397D01*
X1876755Y23363501D01*
X1880240Y23323003D01*
X1888124Y23296292D01*
X1902105Y23275756D01*
X1911597Y23265740D01*
X1950404Y23236433D01*
X1984763Y23234048D01*
X2020216Y23258250D01*
X2021114Y23259143D01*
X2035539Y23277847D01*
X2044313Y23303268D01*
X2048739Y23342416D01*
X2050118Y23402303D01*
X2050143Y23415570D01*
X2046812Y23498099D01*
X2035969Y23555309D01*
X2016340Y23590234D01*
X1986650Y23605906D01*
X1969491Y23607486D01*
X1928766Y23600074D01*
X1900832Y23575670D01*
X1884017Y23531020D01*
X1876650Y23462870D01*
X1875971Y23425397D01*
X1736472Y23425397D01*
X1736708Y23438755D01*
X1738677Y23503667D01*
X1741450Y23551042D01*
X1745388Y23584710D01*
X1750849Y23608502D01*
X1758192Y23626247D01*
X1767777Y23641776D01*
X1771887Y23647619D01*
X1826405Y23702815D01*
X1895336Y23734110D01*
X1975072Y23742835D01*
X2044744Y23734082D01*
G36*
X2044744Y23734082D02*
G01*
X2100201Y23706432D01*
X2149148Y23655520D01*
X2162629Y23636662D01*
X2177314Y23611985D01*
X2186842Y23585184D01*
X2192293Y23549413D01*
X2194747Y23497831D01*
X2195286Y23429733D01*
X2192852Y23336412D01*
X2184394Y23266343D01*
X2168174Y23214069D01*
X2142454Y23174131D01*
X2105497Y23141071D01*
X2102782Y23139114D01*
X2066360Y23119092D01*
X2022502Y23109185D01*
X1966724Y23106743D01*
X1876048Y23106743D01*
X1876010Y23018717D01*
X1875166Y22969692D01*
X1870024Y22940935D01*
X1856587Y22923689D01*
X1830858Y22909192D01*
X1824679Y22906231D01*
X1795764Y22892352D01*
X1773376Y22883586D01*
X1756729Y22882829D01*
X1745036Y22892977D01*
X1737510Y22916927D01*
X1733366Y22957574D01*
X1731815Y23017814D01*
X1732071Y23100545D01*
X1733349Y23208661D01*
X1733748Y23241000D01*
X1735185Y23352476D01*
X1736472Y23425397D01*
X1875971Y23425397D01*
X1876755Y23363501D01*
X1880240Y23323003D01*
X1888124Y23296292D01*
X1902105Y23275756D01*
X1911597Y23265740D01*
X1950404Y23236433D01*
X1984763Y23234048D01*
X2020216Y23258250D01*
X2021114Y23259143D01*
X2035539Y23277847D01*
X2044313Y23303268D01*
X2048739Y23342416D01*
X2050118Y23402303D01*
X2050143Y23415570D01*
X2046812Y23498099D01*
X2035969Y23555309D01*
X2016340Y23590234D01*
X1986650Y23605906D01*
X1969491Y23607486D01*
X1928766Y23600074D01*
X1900832Y23575670D01*
X1884017Y23531020D01*
X1876650Y23462870D01*
X1875971Y23425397D01*
X1736472Y23425397D01*
X1736708Y23438755D01*
X1738677Y23503667D01*
X1741450Y23551042D01*
X1745388Y23584710D01*
X1750849Y23608502D01*
X1758192Y23626247D01*
X1767777Y23641776D01*
X1771887Y23647619D01*
X1826405Y23702815D01*
X1895336Y23734110D01*
X1975072Y23742835D01*
X2044744Y23734082D01*
G37*
X4484744Y23703032D02*
X4541616Y23681913D01*
X4542267Y23681507D01*
X4577440Y23655620D01*
X4603407Y23625367D01*
X4621670Y23585942D01*
X4633732Y23532538D01*
X4641096Y23460349D01*
X4645264Y23364568D01*
X4645629Y23350922D01*
X4650876Y23145158D01*
X4606716Y23122322D01*
X4574763Y23106890D01*
X4555470Y23099577D01*
X4554578Y23099486D01*
X4551239Y23112978D01*
X4548587Y23149374D01*
X4546956Y23202548D01*
X4546600Y23245607D01*
X4546592Y23315359D01*
X4543403Y23359163D01*
X4532288Y23380056D01*
X4508501Y23381075D01*
X4467296Y23365259D01*
X4405086Y23336185D01*
X4359341Y23312037D01*
X4335813Y23291087D01*
X4328896Y23268253D01*
X4328886Y23267123D01*
X4340299Y23227788D01*
X4374092Y23206538D01*
X4425809Y23203461D01*
X4463061Y23203994D01*
X4482703Y23193265D01*
X4494952Y23167495D01*
X4502002Y23134663D01*
X4491842Y23116034D01*
X4488017Y23113368D01*
X4452001Y23102660D01*
X4401566Y23101144D01*
X4349626Y23108241D01*
X4312822Y23121212D01*
X4261938Y23164415D01*
X4233014Y23224554D01*
X4227286Y23271538D01*
X4231657Y23313918D01*
X4247475Y23348512D01*
X4278797Y23379237D01*
X4329678Y23410010D01*
X4404176Y23444748D01*
X4408714Y23446712D01*
X4475821Y23477713D01*
X4517232Y23503138D01*
X4534981Y23525986D01*
X4531107Y23549255D01*
X4507643Y23575944D01*
X4500627Y23582086D01*
X4453630Y23605900D01*
X4404933Y23604897D01*
X4362522Y23581549D01*
X4334384Y23538325D01*
X4331769Y23529840D01*
X4306308Y23488692D01*
X4274001Y23468872D01*
X4227286Y23449230D01*
X4227286Y23500050D01*
X4241496Y23573918D01*
X4283675Y23641673D01*
X4305624Y23664339D01*
X4355517Y23693431D01*
X4418967Y23706600D01*
X4484744Y23703032D01*
G36*
X4484744Y23703032D02*
G01*
X4541616Y23681913D01*
X4542267Y23681507D01*
X4577440Y23655620D01*
X4603407Y23625367D01*
X4621670Y23585942D01*
X4633732Y23532538D01*
X4641096Y23460349D01*
X4645264Y23364568D01*
X4645629Y23350922D01*
X4650876Y23145158D01*
X4606716Y23122322D01*
X4574763Y23106890D01*
X4555470Y23099577D01*
X4554578Y23099486D01*
X4551239Y23112978D01*
X4548587Y23149374D01*
X4546956Y23202548D01*
X4546600Y23245607D01*
X4546592Y23315359D01*
X4543403Y23359163D01*
X4532288Y23380056D01*
X4508501Y23381075D01*
X4467296Y23365259D01*
X4405086Y23336185D01*
X4359341Y23312037D01*
X4335813Y23291087D01*
X4328896Y23268253D01*
X4328886Y23267123D01*
X4340299Y23227788D01*
X4374092Y23206538D01*
X4425809Y23203461D01*
X4463061Y23203994D01*
X4482703Y23193265D01*
X4494952Y23167495D01*
X4502002Y23134663D01*
X4491842Y23116034D01*
X4488017Y23113368D01*
X4452001Y23102660D01*
X4401566Y23101144D01*
X4349626Y23108241D01*
X4312822Y23121212D01*
X4261938Y23164415D01*
X4233014Y23224554D01*
X4227286Y23271538D01*
X4231657Y23313918D01*
X4247475Y23348512D01*
X4278797Y23379237D01*
X4329678Y23410010D01*
X4404176Y23444748D01*
X4408714Y23446712D01*
X4475821Y23477713D01*
X4517232Y23503138D01*
X4534981Y23525986D01*
X4531107Y23549255D01*
X4507643Y23575944D01*
X4500627Y23582086D01*
X4453630Y23605900D01*
X4404933Y23604897D01*
X4362522Y23581549D01*
X4334384Y23538325D01*
X4331769Y23529840D01*
X4306308Y23488692D01*
X4274001Y23468872D01*
X4227286Y23449230D01*
X4227286Y23500050D01*
X4241496Y23573918D01*
X4283675Y23641673D01*
X4305624Y23664339D01*
X4355517Y23693431D01*
X4418967Y23706600D01*
X4484744Y23703032D01*
G37*
X2613303Y23722761D02*
X2670527Y23684265D01*
X2714749Y23628665D01*
X2741167Y23557914D01*
X2746510Y23505838D01*
X2745903Y23484107D01*
X2740822Y23467469D01*
X2726855Y23452563D01*
X2699589Y23436027D01*
X2654612Y23414502D01*
X2587511Y23384626D01*
X2587171Y23384476D01*
X2525407Y23356187D01*
X2474759Y23331067D01*
X2440404Y23311821D01*
X2427518Y23301152D01*
X2427514Y23301066D01*
X2438872Y23277834D01*
X2465431Y23252226D01*
X2495923Y23233779D01*
X2511370Y23230114D01*
X2553515Y23242788D01*
X2589808Y23274529D01*
X2607517Y23309428D01*
X2624552Y23335155D01*
X2657922Y23364454D01*
X2697149Y23389765D01*
X2731756Y23403529D01*
X2738993Y23404286D01*
X2747139Y23391840D01*
X2747630Y23360028D01*
X2741643Y23317134D01*
X2730357Y23271442D01*
X2714950Y23231239D01*
X2714171Y23229678D01*
X2667804Y23164938D01*
X2607711Y23120903D01*
X2539465Y23099289D01*
X2468638Y23101815D01*
X2400804Y23130196D01*
X2397788Y23132192D01*
X2344427Y23180552D01*
X2309340Y23243648D01*
X2289922Y23326613D01*
X2287316Y23349922D01*
X2282701Y23459945D01*
X2288233Y23511252D01*
X2427514Y23511252D01*
X2429324Y23479247D01*
X2439222Y23469907D01*
X2463898Y23476895D01*
X2502795Y23493413D01*
X2546275Y23514119D01*
X2547356Y23514667D01*
X2584209Y23534051D01*
X2599000Y23546987D01*
X2595353Y23560549D01*
X2579995Y23578368D01*
X2540923Y23604155D01*
X2498846Y23606050D01*
X2461103Y23587283D01*
X2435034Y23551085D01*
X2427514Y23511252D01*
X2288233Y23511252D01*
X2292194Y23547973D01*
X2316550Y23617788D01*
X2350456Y23666698D01*
X2411653Y23716122D01*
X2479063Y23740641D01*
X2547880Y23742203D01*
X2613303Y23722761D01*
G36*
X2613303Y23722761D02*
G01*
X2670527Y23684265D01*
X2714749Y23628665D01*
X2741167Y23557914D01*
X2746510Y23505838D01*
X2745903Y23484107D01*
X2740822Y23467469D01*
X2726855Y23452563D01*
X2699589Y23436027D01*
X2654612Y23414502D01*
X2587511Y23384626D01*
X2587171Y23384476D01*
X2525407Y23356187D01*
X2474759Y23331067D01*
X2440404Y23311821D01*
X2427518Y23301152D01*
X2427514Y23301066D01*
X2438872Y23277834D01*
X2465431Y23252226D01*
X2495923Y23233779D01*
X2511370Y23230114D01*
X2553515Y23242788D01*
X2589808Y23274529D01*
X2607517Y23309428D01*
X2624552Y23335155D01*
X2657922Y23364454D01*
X2697149Y23389765D01*
X2731756Y23403529D01*
X2738993Y23404286D01*
X2747139Y23391840D01*
X2747630Y23360028D01*
X2741643Y23317134D01*
X2730357Y23271442D01*
X2714950Y23231239D01*
X2714171Y23229678D01*
X2667804Y23164938D01*
X2607711Y23120903D01*
X2539465Y23099289D01*
X2468638Y23101815D01*
X2400804Y23130196D01*
X2397788Y23132192D01*
X2344427Y23180552D01*
X2309340Y23243648D01*
X2289922Y23326613D01*
X2287316Y23349922D01*
X2282701Y23459945D01*
X2288233Y23511252D01*
X2427514Y23511252D01*
X2429324Y23479247D01*
X2439222Y23469907D01*
X2463898Y23476895D01*
X2502795Y23493413D01*
X2546275Y23514119D01*
X2547356Y23514667D01*
X2584209Y23534051D01*
X2599000Y23546987D01*
X2595353Y23560549D01*
X2579995Y23578368D01*
X2540923Y23604155D01*
X2498846Y23606050D01*
X2461103Y23587283D01*
X2435034Y23551085D01*
X2427514Y23511252D01*
X2288233Y23511252D01*
X2292194Y23547973D01*
X2316550Y23617788D01*
X2350456Y23666698D01*
X2411653Y23716122D01*
X2479063Y23740641D01*
X2547880Y23742203D01*
X2613303Y23722761D01*
G37*
X5635117Y23588642D02*
X5634933Y23480163D01*
X5634219Y23396713D01*
X5632675Y23334296D01*
X5630001Y23288915D01*
X5625894Y23256571D01*
X5620055Y23233267D01*
X5612182Y23215005D01*
X5606221Y23204582D01*
X5556855Y23148055D01*
X5494264Y23112623D01*
X5425013Y23099910D01*
X5355668Y23111537D01*
X5314375Y23132432D01*
X5271025Y23168578D01*
X5241481Y23212724D01*
X5223655Y23270538D01*
X5215463Y23347687D01*
X5214302Y23404286D01*
X5214458Y23408353D01*
X5315857Y23408353D01*
X5316476Y23343450D01*
X5319314Y23300486D01*
X5325840Y23272378D01*
X5337523Y23252047D01*
X5351483Y23236712D01*
X5398365Y23207110D01*
X5448701Y23204581D01*
X5496276Y23229295D01*
X5499979Y23232644D01*
X5515783Y23250065D01*
X5525693Y23270791D01*
X5531058Y23301638D01*
X5533228Y23349423D01*
X5533571Y23402252D01*
X5532827Y23468619D01*
X5529748Y23512894D01*
X5523061Y23541991D01*
X5511496Y23562827D01*
X5502013Y23573893D01*
X5457960Y23601802D01*
X5407224Y23605157D01*
X5358796Y23583841D01*
X5349450Y23575927D01*
X5333540Y23558353D01*
X5323610Y23537413D01*
X5318278Y23506218D01*
X5316163Y23457878D01*
X5315857Y23408353D01*
X5214458Y23408353D01*
X5217810Y23495432D01*
X5229726Y23563914D01*
X5252135Y23615400D01*
X5287124Y23655557D01*
X5314375Y23676139D01*
X5363907Y23698375D01*
X5421316Y23708696D01*
X5474682Y23705933D01*
X5504543Y23694788D01*
X5516261Y23691617D01*
X5524037Y23703443D01*
X5529465Y23735134D01*
X5533571Y23783407D01*
X5538067Y23837171D01*
X5544313Y23869518D01*
X5555676Y23888015D01*
X5575528Y23900230D01*
X5588000Y23905638D01*
X5635171Y23925399D01*
X5635117Y23588642D01*
G36*
X5635117Y23588642D02*
G01*
X5634933Y23480163D01*
X5634219Y23396713D01*
X5632675Y23334296D01*
X5630001Y23288915D01*
X5625894Y23256571D01*
X5620055Y23233267D01*
X5612182Y23215005D01*
X5606221Y23204582D01*
X5556855Y23148055D01*
X5494264Y23112623D01*
X5425013Y23099910D01*
X5355668Y23111537D01*
X5314375Y23132432D01*
X5271025Y23168578D01*
X5241481Y23212724D01*
X5223655Y23270538D01*
X5215463Y23347687D01*
X5214302Y23404286D01*
X5214458Y23408353D01*
X5315857Y23408353D01*
X5316476Y23343450D01*
X5319314Y23300486D01*
X5325840Y23272378D01*
X5337523Y23252047D01*
X5351483Y23236712D01*
X5398365Y23207110D01*
X5448701Y23204581D01*
X5496276Y23229295D01*
X5499979Y23232644D01*
X5515783Y23250065D01*
X5525693Y23270791D01*
X5531058Y23301638D01*
X5533228Y23349423D01*
X5533571Y23402252D01*
X5532827Y23468619D01*
X5529748Y23512894D01*
X5523061Y23541991D01*
X5511496Y23562827D01*
X5502013Y23573893D01*
X5457960Y23601802D01*
X5407224Y23605157D01*
X5358796Y23583841D01*
X5349450Y23575927D01*
X5333540Y23558353D01*
X5323610Y23537413D01*
X5318278Y23506218D01*
X5316163Y23457878D01*
X5315857Y23408353D01*
X5214458Y23408353D01*
X5217810Y23495432D01*
X5229726Y23563914D01*
X5252135Y23615400D01*
X5287124Y23655557D01*
X5314375Y23676139D01*
X5363907Y23698375D01*
X5421316Y23708696D01*
X5474682Y23705933D01*
X5504543Y23694788D01*
X5516261Y23691617D01*
X5524037Y23703443D01*
X5529465Y23735134D01*
X5533571Y23783407D01*
X5538067Y23837171D01*
X5544313Y23869518D01*
X5555676Y23888015D01*
X5575528Y23900230D01*
X5588000Y23905638D01*
X5635171Y23925399D01*
X5635117Y23588642D01*
G37*
X7598595Y23687034D02*
X7656021Y23649503D01*
X7683719Y23615904D01*
X7705662Y23554936D01*
X7707405Y23506692D01*
X7703457Y23442184D01*
X7554686Y23377066D01*
X7482349Y23343798D01*
X7435084Y23317036D01*
X7410507Y23293856D01*
X7406237Y23271333D01*
X7419889Y23246545D01*
X7434943Y23230114D01*
X7478746Y23203765D01*
X7526389Y23201919D01*
X7570145Y23222454D01*
X7602289Y23263248D01*
X7608038Y23277653D01*
X7635576Y23322644D01*
X7667258Y23341818D01*
X7710714Y23358221D01*
X7710714Y23296034D01*
X7706872Y23253717D01*
X7691823Y23218031D01*
X7660280Y23177057D01*
X7655592Y23171733D01*
X7620506Y23135280D01*
X7590347Y23115717D01*
X7552615Y23106717D01*
X7521335Y23103770D01*
X7465385Y23103035D01*
X7425555Y23112340D01*
X7400708Y23126154D01*
X7361656Y23156533D01*
X7334625Y23189387D01*
X7317517Y23230706D01*
X7308238Y23286479D01*
X7304693Y23362695D01*
X7304410Y23401378D01*
X7305372Y23447753D01*
X7393007Y23447753D01*
X7394023Y23422874D01*
X7396556Y23418800D01*
X7413274Y23424335D01*
X7449249Y23438983D01*
X7497331Y23459810D01*
X7507386Y23464286D01*
X7568152Y23495186D01*
X7601632Y23522343D01*
X7608990Y23547780D01*
X7591391Y23573519D01*
X7576856Y23584891D01*
X7524410Y23607636D01*
X7475322Y23603878D01*
X7434227Y23576116D01*
X7405758Y23526848D01*
X7396631Y23487743D01*
X7393007Y23447753D01*
X7305372Y23447753D01*
X7306285Y23491751D01*
X7313196Y23558616D01*
X7326884Y23607305D01*
X7349096Y23643151D01*
X7381574Y23671487D01*
X7395733Y23680645D01*
X7460053Y23704493D01*
X7530473Y23705994D01*
X7598595Y23687034D01*
G36*
X7598595Y23687034D02*
G01*
X7656021Y23649503D01*
X7683719Y23615904D01*
X7705662Y23554936D01*
X7707405Y23506692D01*
X7703457Y23442184D01*
X7554686Y23377066D01*
X7482349Y23343798D01*
X7435084Y23317036D01*
X7410507Y23293856D01*
X7406237Y23271333D01*
X7419889Y23246545D01*
X7434943Y23230114D01*
X7478746Y23203765D01*
X7526389Y23201919D01*
X7570145Y23222454D01*
X7602289Y23263248D01*
X7608038Y23277653D01*
X7635576Y23322644D01*
X7667258Y23341818D01*
X7710714Y23358221D01*
X7710714Y23296034D01*
X7706872Y23253717D01*
X7691823Y23218031D01*
X7660280Y23177057D01*
X7655592Y23171733D01*
X7620506Y23135280D01*
X7590347Y23115717D01*
X7552615Y23106717D01*
X7521335Y23103770D01*
X7465385Y23103035D01*
X7425555Y23112340D01*
X7400708Y23126154D01*
X7361656Y23156533D01*
X7334625Y23189387D01*
X7317517Y23230706D01*
X7308238Y23286479D01*
X7304693Y23362695D01*
X7304410Y23401378D01*
X7305372Y23447753D01*
X7393007Y23447753D01*
X7394023Y23422874D01*
X7396556Y23418800D01*
X7413274Y23424335D01*
X7449249Y23438983D01*
X7497331Y23459810D01*
X7507386Y23464286D01*
X7568152Y23495186D01*
X7601632Y23522343D01*
X7608990Y23547780D01*
X7591391Y23573519D01*
X7576856Y23584891D01*
X7524410Y23607636D01*
X7475322Y23603878D01*
X7434227Y23576116D01*
X7405758Y23526848D01*
X7396631Y23487743D01*
X7393007Y23447753D01*
X7305372Y23447753D01*
X7306285Y23491751D01*
X7313196Y23558616D01*
X7326884Y23607305D01*
X7349096Y23643151D01*
X7381574Y23671487D01*
X7395733Y23680645D01*
X7460053Y23704493D01*
X7530473Y23705994D01*
X7598595Y23687034D01*
G37*
X1486115Y23732038D02*
X1554145Y23696267D01*
X1604351Y23638699D01*
X1622185Y23601688D01*
X1636063Y23546118D01*
X1643167Y23475904D01*
X1643840Y23399273D01*
X1638427Y23324448D01*
X1627270Y23259658D01*
X1610714Y23213127D01*
X1605626Y23205113D01*
X1545355Y23145293D01*
X1473769Y23109465D01*
X1396092Y23098980D01*
X1317548Y23115190D01*
X1295689Y23124908D01*
X1253122Y23154857D01*
X1215763Y23194567D01*
X1212232Y23199603D01*
X1197881Y23223876D01*
X1188394Y23249822D01*
X1182790Y23283978D01*
X1180086Y23332881D01*
X1179299Y23403065D01*
X1179286Y23418800D01*
X1179322Y23423808D01*
X1324429Y23423808D01*
X1325273Y23357570D01*
X1328596Y23313614D01*
X1335583Y23285221D01*
X1347416Y23265675D01*
X1353457Y23259143D01*
X1388186Y23234320D01*
X1421903Y23235452D01*
X1455995Y23256984D01*
X1476329Y23279971D01*
X1488371Y23313522D01*
X1495134Y23366431D01*
X1495598Y23372601D01*
X1496752Y23468487D01*
X1484688Y23539701D01*
X1459570Y23585806D01*
X1421560Y23606365D01*
X1407992Y23607486D01*
X1372364Y23601848D01*
X1347994Y23582314D01*
X1333093Y23544958D01*
X1325875Y23485850D01*
X1324429Y23423808D01*
X1179322Y23423808D01*
X1179826Y23493587D01*
X1182096Y23545841D01*
X1187068Y23582051D01*
X1195713Y23608701D01*
X1209005Y23632278D01*
X1211943Y23636662D01*
X1261313Y23695751D01*
X1315109Y23730053D01*
X1380602Y23743669D01*
X1402842Y23744335D01*
X1486115Y23732038D01*
G36*
X1486115Y23732038D02*
G01*
X1554145Y23696267D01*
X1604351Y23638699D01*
X1622185Y23601688D01*
X1636063Y23546118D01*
X1643167Y23475904D01*
X1643840Y23399273D01*
X1638427Y23324448D01*
X1627270Y23259658D01*
X1610714Y23213127D01*
X1605626Y23205113D01*
X1545355Y23145293D01*
X1473769Y23109465D01*
X1396092Y23098980D01*
X1317548Y23115190D01*
X1295689Y23124908D01*
X1253122Y23154857D01*
X1215763Y23194567D01*
X1212232Y23199603D01*
X1197881Y23223876D01*
X1188394Y23249822D01*
X1182790Y23283978D01*
X1180086Y23332881D01*
X1179299Y23403065D01*
X1179286Y23418800D01*
X1179322Y23423808D01*
X1324429Y23423808D01*
X1325273Y23357570D01*
X1328596Y23313614D01*
X1335583Y23285221D01*
X1347416Y23265675D01*
X1353457Y23259143D01*
X1388186Y23234320D01*
X1421903Y23235452D01*
X1455995Y23256984D01*
X1476329Y23279971D01*
X1488371Y23313522D01*
X1495134Y23366431D01*
X1495598Y23372601D01*
X1496752Y23468487D01*
X1484688Y23539701D01*
X1459570Y23585806D01*
X1421560Y23606365D01*
X1407992Y23607486D01*
X1372364Y23601848D01*
X1347994Y23582314D01*
X1333093Y23544958D01*
X1325875Y23485850D01*
X1324429Y23423808D01*
X1179322Y23423808D01*
X1179826Y23493587D01*
X1182096Y23545841D01*
X1187068Y23582051D01*
X1195713Y23608701D01*
X1209005Y23632278D01*
X1211943Y23636662D01*
X1261313Y23695751D01*
X1315109Y23730053D01*
X1380602Y23743669D01*
X1402842Y23744335D01*
X1486115Y23732038D01*
G37*
X6224833Y23695337D02*
X6227048Y23657150D01*
X6228784Y23599114D01*
X6229899Y23525820D01*
X6230257Y23448945D01*
X6230257Y23188804D01*
X6184326Y23142873D01*
X6152675Y23114571D01*
X6124890Y23103107D01*
X6086915Y23103832D01*
X6071840Y23105679D01*
X6024726Y23111052D01*
X5985756Y23114131D01*
X5976257Y23114415D01*
X5944233Y23112555D01*
X5898432Y23107886D01*
X5880674Y23105679D01*
X5837057Y23102265D01*
X5807745Y23109680D01*
X5778680Y23132573D01*
X5768188Y23142873D01*
X5722257Y23188804D01*
X5722257Y23675398D01*
X5759226Y23692242D01*
X5791059Y23704718D01*
X5809683Y23709086D01*
X5814458Y23695282D01*
X5818921Y23656714D01*
X5822775Y23597644D01*
X5825722Y23522337D01*
X5827143Y23458714D01*
X5831114Y23208343D01*
X5865759Y23203444D01*
X5897268Y23206869D01*
X5912708Y23217959D01*
X5917023Y23238692D01*
X5920708Y23282855D01*
X5923469Y23344854D01*
X5925012Y23419091D01*
X5925235Y23457294D01*
X5925457Y23677217D01*
X5971166Y23693151D01*
X6003518Y23703985D01*
X6021115Y23709038D01*
X6021623Y23709086D01*
X6023388Y23695352D01*
X6025329Y23657270D01*
X6027282Y23599518D01*
X6029084Y23526773D01*
X6030343Y23458714D01*
X6034314Y23208343D01*
X6121400Y23208343D01*
X6125396Y23436760D01*
X6129392Y23665178D01*
X6171847Y23687132D01*
X6203192Y23702207D01*
X6221744Y23709049D01*
X6222279Y23709086D01*
X6224833Y23695337D01*
G36*
X6224833Y23695337D02*
G01*
X6227048Y23657150D01*
X6228784Y23599114D01*
X6229899Y23525820D01*
X6230257Y23448945D01*
X6230257Y23188804D01*
X6184326Y23142873D01*
X6152675Y23114571D01*
X6124890Y23103107D01*
X6086915Y23103832D01*
X6071840Y23105679D01*
X6024726Y23111052D01*
X5985756Y23114131D01*
X5976257Y23114415D01*
X5944233Y23112555D01*
X5898432Y23107886D01*
X5880674Y23105679D01*
X5837057Y23102265D01*
X5807745Y23109680D01*
X5778680Y23132573D01*
X5768188Y23142873D01*
X5722257Y23188804D01*
X5722257Y23675398D01*
X5759226Y23692242D01*
X5791059Y23704718D01*
X5809683Y23709086D01*
X5814458Y23695282D01*
X5818921Y23656714D01*
X5822775Y23597644D01*
X5825722Y23522337D01*
X5827143Y23458714D01*
X5831114Y23208343D01*
X5865759Y23203444D01*
X5897268Y23206869D01*
X5912708Y23217959D01*
X5917023Y23238692D01*
X5920708Y23282855D01*
X5923469Y23344854D01*
X5925012Y23419091D01*
X5925235Y23457294D01*
X5925457Y23677217D01*
X5971166Y23693151D01*
X6003518Y23703985D01*
X6021115Y23709038D01*
X6021623Y23709086D01*
X6023388Y23695352D01*
X6025329Y23657270D01*
X6027282Y23599518D01*
X6029084Y23526773D01*
X6030343Y23458714D01*
X6034314Y23208343D01*
X6121400Y23208343D01*
X6125396Y23436760D01*
X6129392Y23665178D01*
X6171847Y23687132D01*
X6203192Y23702207D01*
X6221744Y23709049D01*
X6222279Y23709086D01*
X6224833Y23695337D01*
G37*
X3820886Y23802711D02*
X3825139Y23743387D01*
X3830025Y23708428D01*
X3836795Y23693180D01*
X3846702Y23692985D01*
X3849914Y23694805D01*
X3892644Y23707985D01*
X3948227Y23707215D01*
X4004737Y23693667D01*
X4040082Y23676139D01*
X4076321Y23648139D01*
X4102813Y23616451D01*
X4120999Y23576187D01*
X4132322Y23522457D01*
X4138222Y23450374D01*
X4140143Y23355049D01*
X4140177Y23336763D01*
X4140200Y23131354D01*
X4094491Y23115420D01*
X4062027Y23104580D01*
X4044215Y23099532D01*
X4043691Y23099486D01*
X4041937Y23113172D01*
X4040444Y23150924D01*
X4039326Y23207776D01*
X4038697Y23278766D01*
X4038600Y23321927D01*
X4038398Y23407027D01*
X4037358Y23468019D01*
X4034831Y23509823D01*
X4030164Y23537358D01*
X4022707Y23555544D01*
X4011811Y23569302D01*
X4005007Y23575927D01*
X3958272Y23602625D01*
X3907272Y23604625D01*
X3861001Y23582045D01*
X3852444Y23573893D01*
X3839893Y23558564D01*
X3831188Y23540382D01*
X3825631Y23514091D01*
X3822526Y23474438D01*
X3821176Y23416168D01*
X3820886Y23335827D01*
X3820886Y23131354D01*
X3775177Y23115420D01*
X3742713Y23104580D01*
X3724901Y23099532D01*
X3724377Y23099486D01*
X3723037Y23113377D01*
X3721828Y23152561D01*
X3720801Y23213300D01*
X3720002Y23291859D01*
X3719481Y23384502D01*
X3719286Y23487491D01*
X3719286Y23884658D01*
X3766457Y23904556D01*
X3813629Y23924453D01*
X3820886Y23802711D01*
G36*
X3820886Y23802711D02*
G01*
X3825139Y23743387D01*
X3830025Y23708428D01*
X3836795Y23693180D01*
X3846702Y23692985D01*
X3849914Y23694805D01*
X3892644Y23707985D01*
X3948227Y23707215D01*
X4004737Y23693667D01*
X4040082Y23676139D01*
X4076321Y23648139D01*
X4102813Y23616451D01*
X4120999Y23576187D01*
X4132322Y23522457D01*
X4138222Y23450374D01*
X4140143Y23355049D01*
X4140177Y23336763D01*
X4140200Y23131354D01*
X4094491Y23115420D01*
X4062027Y23104580D01*
X4044215Y23099532D01*
X4043691Y23099486D01*
X4041937Y23113172D01*
X4040444Y23150924D01*
X4039326Y23207776D01*
X4038697Y23278766D01*
X4038600Y23321927D01*
X4038398Y23407027D01*
X4037358Y23468019D01*
X4034831Y23509823D01*
X4030164Y23537358D01*
X4022707Y23555544D01*
X4011811Y23569302D01*
X4005007Y23575927D01*
X3958272Y23602625D01*
X3907272Y23604625D01*
X3861001Y23582045D01*
X3852444Y23573893D01*
X3839893Y23558564D01*
X3831188Y23540382D01*
X3825631Y23514091D01*
X3822526Y23474438D01*
X3821176Y23416168D01*
X3820886Y23335827D01*
X3820886Y23131354D01*
X3775177Y23115420D01*
X3742713Y23104580D01*
X3724901Y23099532D01*
X3724377Y23099486D01*
X3723037Y23113377D01*
X3721828Y23152561D01*
X3720801Y23213300D01*
X3720002Y23291859D01*
X3719481Y23384502D01*
X3719286Y23487491D01*
X3719286Y23884658D01*
X3766457Y23904556D01*
X3813629Y23924453D01*
X3820886Y23802711D01*
G37*
X4974926Y23704245D02*
X5040858Y23679916D01*
X5094273Y23636883D01*
X5115164Y23606591D01*
X5137939Y23551006D01*
X5137466Y23510814D01*
X5113562Y23483783D01*
X5104717Y23479187D01*
X5066530Y23464856D01*
X5047028Y23468528D01*
X5040422Y23492593D01*
X5040086Y23505886D01*
X5027992Y23554790D01*
X4996471Y23589001D01*
X4952659Y23605524D01*
X4903695Y23601366D01*
X4863894Y23579773D01*
X4850450Y23567456D01*
X4840921Y23552513D01*
X4834485Y23529925D01*
X4830317Y23494672D01*
X4827597Y23441734D01*
X4825502Y23366093D01*
X4824960Y23342143D01*
X4822981Y23260210D01*
X4820731Y23202545D01*
X4817357Y23164392D01*
X4812006Y23140996D01*
X4803824Y23127602D01*
X4791959Y23119455D01*
X4784362Y23115856D01*
X4752102Y23103548D01*
X4733111Y23099486D01*
X4726836Y23113052D01*
X4723006Y23154066D01*
X4721600Y23223001D01*
X4722598Y23320331D01*
X4722908Y23335343D01*
X4725101Y23424141D01*
X4727693Y23488981D01*
X4731382Y23534933D01*
X4736864Y23567065D01*
X4744835Y23590447D01*
X4755993Y23610148D01*
X4761830Y23618590D01*
X4795296Y23655943D01*
X4832727Y23684997D01*
X4837309Y23687533D01*
X4904426Y23707557D01*
X4974926Y23704245D01*
G36*
X4974926Y23704245D02*
G01*
X5040858Y23679916D01*
X5094273Y23636883D01*
X5115164Y23606591D01*
X5137939Y23551006D01*
X5137466Y23510814D01*
X5113562Y23483783D01*
X5104717Y23479187D01*
X5066530Y23464856D01*
X5047028Y23468528D01*
X5040422Y23492593D01*
X5040086Y23505886D01*
X5027992Y23554790D01*
X4996471Y23589001D01*
X4952659Y23605524D01*
X4903695Y23601366D01*
X4863894Y23579773D01*
X4850450Y23567456D01*
X4840921Y23552513D01*
X4834485Y23529925D01*
X4830317Y23494672D01*
X4827597Y23441734D01*
X4825502Y23366093D01*
X4824960Y23342143D01*
X4822981Y23260210D01*
X4820731Y23202545D01*
X4817357Y23164392D01*
X4812006Y23140996D01*
X4803824Y23127602D01*
X4791959Y23119455D01*
X4784362Y23115856D01*
X4752102Y23103548D01*
X4733111Y23099486D01*
X4726836Y23113052D01*
X4723006Y23154066D01*
X4721600Y23223001D01*
X4722598Y23320331D01*
X4722908Y23335343D01*
X4725101Y23424141D01*
X4727693Y23488981D01*
X4731382Y23534933D01*
X4736864Y23567065D01*
X4744835Y23590447D01*
X4755993Y23610148D01*
X4761830Y23618590D01*
X4795296Y23655943D01*
X4832727Y23684997D01*
X4837309Y23687533D01*
X4904426Y23707557D01*
X4974926Y23704245D01*
G37*
X3161093Y23726220D02*
X3207672Y23699277D01*
X3240057Y23672534D01*
X3263742Y23644516D01*
X3280059Y23610252D01*
X3290339Y23564773D01*
X3295914Y23503108D01*
X3298116Y23420289D01*
X3298371Y23360754D01*
X3298371Y23141609D01*
X3236686Y23113956D01*
X3175000Y23086303D01*
X3167743Y23326330D01*
X3164744Y23415972D01*
X3161598Y23481038D01*
X3157701Y23525974D01*
X3152447Y23555230D01*
X3145231Y23573252D01*
X3135450Y23584489D01*
X3132312Y23586921D01*
X3084761Y23605917D01*
X3036697Y23598400D01*
X3008086Y23578457D01*
X2996447Y23564325D01*
X2988391Y23545780D01*
X2983271Y23517666D01*
X2980441Y23474827D01*
X2979256Y23412105D01*
X2979057Y23346739D01*
X2979018Y23264732D01*
X2977614Y23206684D01*
X2972914Y23167535D01*
X2962987Y23142220D01*
X2945903Y23125677D01*
X2919732Y23112844D01*
X2884775Y23099509D01*
X2846596Y23084993D01*
X2851141Y23342611D01*
X2852971Y23435481D01*
X2855112Y23504111D01*
X2858181Y23553289D01*
X2862794Y23587802D01*
X2869568Y23612438D01*
X2879119Y23631984D01*
X2890634Y23649230D01*
X2946190Y23704320D01*
X3013980Y23736178D01*
X3087713Y23743809D01*
X3161093Y23726220D01*
G36*
X3161093Y23726220D02*
G01*
X3207672Y23699277D01*
X3240057Y23672534D01*
X3263742Y23644516D01*
X3280059Y23610252D01*
X3290339Y23564773D01*
X3295914Y23503108D01*
X3298116Y23420289D01*
X3298371Y23360754D01*
X3298371Y23141609D01*
X3236686Y23113956D01*
X3175000Y23086303D01*
X3167743Y23326330D01*
X3164744Y23415972D01*
X3161598Y23481038D01*
X3157701Y23525974D01*
X3152447Y23555230D01*
X3145231Y23573252D01*
X3135450Y23584489D01*
X3132312Y23586921D01*
X3084761Y23605917D01*
X3036697Y23598400D01*
X3008086Y23578457D01*
X2996447Y23564325D01*
X2988391Y23545780D01*
X2983271Y23517666D01*
X2980441Y23474827D01*
X2979256Y23412105D01*
X2979057Y23346739D01*
X2979018Y23264732D01*
X2977614Y23206684D01*
X2972914Y23167535D01*
X2962987Y23142220D01*
X2945903Y23125677D01*
X2919732Y23112844D01*
X2884775Y23099509D01*
X2846596Y23084993D01*
X2851141Y23342611D01*
X2852971Y23435481D01*
X2855112Y23504111D01*
X2858181Y23553289D01*
X2862794Y23587802D01*
X2869568Y23612438D01*
X2879119Y23631984D01*
X2890634Y23649230D01*
X2946190Y23704320D01*
X3013980Y23736178D01*
X3087713Y23743809D01*
X3161093Y23726220D01*
G37*
X7097600Y23695248D02*
X7114948Y23687666D01*
X7156356Y23654872D01*
X7191765Y23607453D01*
X7213664Y23556849D01*
X7217229Y23531902D01*
X7205279Y23497073D01*
X7179067Y23478643D01*
X7150964Y23467484D01*
X7138095Y23465428D01*
X7131829Y23480351D01*
X7119456Y23512825D01*
X7114028Y23527498D01*
X7083590Y23578256D01*
X7039520Y23603573D01*
X6983010Y23602794D01*
X6978825Y23601797D01*
X6948655Y23587493D01*
X6926476Y23559607D01*
X6911327Y23514713D01*
X6902250Y23449385D01*
X6898286Y23360196D01*
X6897914Y23312739D01*
X6897730Y23237929D01*
X6896522Y23186931D01*
X6893309Y23154529D01*
X6887109Y23135505D01*
X6876940Y23124644D01*
X6861819Y23116728D01*
X6860946Y23116330D01*
X6831828Y23104019D01*
X6817403Y23099486D01*
X6815186Y23113191D01*
X6813289Y23151075D01*
X6811847Y23208285D01*
X6810998Y23279973D01*
X6810829Y23332435D01*
X6811692Y23433953D01*
X6815070Y23510968D01*
X6822142Y23567977D01*
X6834088Y23609474D01*
X6852090Y23639957D01*
X6877327Y23663920D01*
X6902247Y23680645D01*
X6962171Y23702903D01*
X7031911Y23707924D01*
X7097600Y23695248D01*
G36*
X7097600Y23695248D02*
G01*
X7114948Y23687666D01*
X7156356Y23654872D01*
X7191765Y23607453D01*
X7213664Y23556849D01*
X7217229Y23531902D01*
X7205279Y23497073D01*
X7179067Y23478643D01*
X7150964Y23467484D01*
X7138095Y23465428D01*
X7131829Y23480351D01*
X7119456Y23512825D01*
X7114028Y23527498D01*
X7083590Y23578256D01*
X7039520Y23603573D01*
X6983010Y23602794D01*
X6978825Y23601797D01*
X6948655Y23587493D01*
X6926476Y23559607D01*
X6911327Y23514713D01*
X6902250Y23449385D01*
X6898286Y23360196D01*
X6897914Y23312739D01*
X6897730Y23237929D01*
X6896522Y23186931D01*
X6893309Y23154529D01*
X6887109Y23135505D01*
X6876940Y23124644D01*
X6861819Y23116728D01*
X6860946Y23116330D01*
X6831828Y23104019D01*
X6817403Y23099486D01*
X6815186Y23113191D01*
X6813289Y23151075D01*
X6811847Y23208285D01*
X6810998Y23279973D01*
X6810829Y23332435D01*
X6811692Y23433953D01*
X6815070Y23510968D01*
X6822142Y23567977D01*
X6834088Y23609474D01*
X6852090Y23639957D01*
X6877327Y23663920D01*
X6902247Y23680645D01*
X6962171Y23702903D01*
X7031911Y23707924D01*
X7097600Y23695248D01*
G37*
X14380256Y35142663D02*
X14379433Y35026934D01*
X13779115Y34417000D01*
X13178796Y33807066D01*
X13178359Y33527165D01*
X13177921Y33247263D01*
X12812337Y33247263D01*
X12802917Y33176244D01*
X12799350Y33143873D01*
X12793338Y33082913D01*
X12785201Y32997002D01*
X12775262Y32889774D01*
X12763843Y32764867D01*
X12751264Y32625917D01*
X12737847Y32476559D01*
X12723915Y32320432D01*
X12709788Y32161170D01*
X12695788Y32002410D01*
X12682237Y31847789D01*
X12669456Y31700943D01*
X12657767Y31565507D01*
X12647492Y31445120D01*
X12638952Y31343416D01*
X12632469Y31264033D01*
X12628364Y31210606D01*
X12626959Y31186771D01*
X12626960Y31186658D01*
X12637204Y31167534D01*
X12667974Y31128045D01*
X12719689Y31067734D01*
X12792767Y30986139D01*
X12887627Y30882802D01*
X13004687Y30757262D01*
X13144367Y30609060D01*
X13307084Y30437737D01*
X13352821Y30389763D01*
X14078195Y29629434D01*
X14019551Y29570948D01*
X13960908Y29512461D01*
X13866026Y29615690D01*
X13831315Y29652997D01*
X13777094Y29710689D01*
X13706941Y29784987D01*
X13624432Y29872111D01*
X13533145Y29968282D01*
X13436658Y30069720D01*
X13378935Y30130305D01*
X13270566Y30243803D01*
X13182972Y30334715D01*
X13113920Y30404693D01*
X13061176Y30455390D01*
X13022506Y30488460D01*
X12995677Y30505556D01*
X12978456Y30508331D01*
X12968608Y30498437D01*
X12963901Y30477529D01*
X12962101Y30447259D01*
X12961859Y30438998D01*
X12949342Y30382091D01*
X12918503Y30313307D01*
X12875497Y30243525D01*
X12826480Y30183622D01*
X12806866Y30165118D01*
X12706230Y30100372D01*
X12588673Y30064146D01*
X12484738Y30055553D01*
X12366951Y30071761D01*
X12258169Y30119288D01*
X12161890Y30196489D01*
X12144125Y30215705D01*
X12079168Y30289500D01*
X10955421Y30289500D01*
X10955421Y30055553D01*
X10654632Y30055553D01*
X10654632Y30164848D01*
X10650857Y30239461D01*
X10638175Y30291250D01*
X10622763Y30319420D01*
X10611750Y30339576D01*
X10602321Y30368800D01*
X10593849Y30411425D01*
X10585710Y30471783D01*
X10577279Y30554207D01*
X10567932Y30663028D01*
X10561531Y30743983D01*
X10532169Y31123268D01*
X9811341Y30393062D01*
X9681008Y30260934D01*
X9555892Y30133904D01*
X9438279Y30014305D01*
X9330455Y29904472D01*
X9234705Y29806737D01*
X9153317Y29723434D01*
X9088577Y29656896D01*
X9042770Y29609458D01*
X9018208Y29583480D01*
X8977855Y29542351D01*
X8944195Y29513665D01*
X8926090Y29504105D01*
X8902965Y29515303D01*
X8869257Y29543281D01*
X8857831Y29554674D01*
X8809383Y29605243D01*
X9076119Y29876298D01*
X9144169Y29945348D01*
X9231915Y30034226D01*
X9335508Y30139041D01*
X9451100Y30255903D01*
X9574841Y30380921D01*
X9702881Y30510205D01*
X9831372Y30639864D01*
X9923546Y30732821D01*
X10063658Y30874480D01*
X10181368Y30994409D01*
X10278180Y31094232D01*
X10355601Y31175572D01*
X10415136Y31240052D01*
X10444642Y31273723D01*
X10681591Y31273723D01*
X10711257Y30894408D01*
X10720203Y30783223D01*
X10728858Y30681547D01*
X10736729Y30594696D01*
X10743328Y30527982D01*
X10748164Y30486721D01*
X10749720Y30477494D01*
X10758518Y30439895D01*
X12020319Y30439895D01*
X12028742Y30544827D01*
X12054172Y30668805D01*
X12107389Y30778476D01*
X12185037Y30869844D01*
X12283763Y30938917D01*
X12394572Y30980380D01*
X12430520Y30999829D01*
X12448517Y31041570D01*
X12448894Y31043411D01*
X12451053Y31061033D01*
X12448384Y31079078D01*
X12438280Y31100892D01*
X12418137Y31129823D01*
X12385349Y31169217D01*
X12337310Y31222423D01*
X12271416Y31292786D01*
X12185060Y31383654D01*
X12179480Y31389507D01*
X12086595Y31487044D01*
X11987845Y31590933D01*
X11890016Y31694023D01*
X11799893Y31789161D01*
X11724262Y31869196D01*
X11707395Y31887089D01*
X11642735Y31954556D01*
X11585295Y32012291D01*
X11539199Y32056325D01*
X11508569Y32082686D01*
X11498285Y32088479D01*
X11482948Y32076354D01*
X11447083Y32043090D01*
X11393512Y31991458D01*
X11325060Y31924225D01*
X11244553Y31844163D01*
X11154813Y31754039D01*
X11081468Y31679802D01*
X10681591Y31273723D01*
X10444642Y31273723D01*
X10458291Y31289297D01*
X10486571Y31324929D01*
X10501483Y31348571D01*
X10504801Y31359520D01*
X10503544Y31383414D01*
X10499726Y31437499D01*
X10493593Y31518662D01*
X10485393Y31623790D01*
X10475373Y31749772D01*
X10463780Y31893495D01*
X10450860Y32051846D01*
X10436862Y32221713D01*
X10425581Y32357472D01*
X10361750Y33122894D01*
X10525996Y33122894D01*
X10526703Y33106376D01*
X10530031Y33059855D01*
X10535710Y32986622D01*
X10543474Y32889972D01*
X10553057Y32773195D01*
X10564189Y32639586D01*
X10576605Y32492437D01*
X10588520Y32352729D01*
X10602016Y32194213D01*
X10614587Y32044579D01*
X10625945Y31907398D01*
X10635802Y31786241D01*
X10643870Y31684680D01*
X10649860Y31606288D01*
X10653485Y31554637D01*
X10654491Y31534577D01*
X10656060Y31522092D01*
X10662278Y31517138D01*
X10675541Y31521782D01*
X10698247Y31538091D01*
X10732792Y31568132D01*
X10781573Y31613973D01*
X10846987Y31677680D01*
X10931431Y31761321D01*
X11021029Y31850701D01*
X11387426Y32216814D01*
X11384859Y32219566D01*
X11627049Y32219566D01*
X11638087Y32204450D01*
X11668987Y32168858D01*
X11716653Y32116059D01*
X11777987Y32049327D01*
X11849893Y31971930D01*
X11929273Y31887142D01*
X12013031Y31798233D01*
X12098070Y31708474D01*
X12181292Y31621136D01*
X12259601Y31539491D01*
X12329900Y31466809D01*
X12389091Y31406363D01*
X12434078Y31361422D01*
X12461764Y31335258D01*
X12469314Y31329928D01*
X12471803Y31347133D01*
X12476970Y31394652D01*
X12484530Y31469511D01*
X12494200Y31568736D01*
X12505695Y31689351D01*
X12518731Y31828382D01*
X12533024Y31982855D01*
X12548290Y32149794D01*
X12560479Y32284403D01*
X12576071Y32458946D01*
X12590477Y32623373D01*
X12603453Y32774701D01*
X12614759Y32909947D01*
X12624152Y33026130D01*
X12631389Y33120265D01*
X12636228Y33189370D01*
X12638427Y33230462D01*
X12638176Y33241132D01*
X12625030Y33231628D01*
X12591554Y33201080D01*
X12540674Y33152444D01*
X12475317Y33088677D01*
X12398409Y33012735D01*
X12312876Y32927576D01*
X12221646Y32836155D01*
X12127644Y32741431D01*
X12033798Y32646359D01*
X11943033Y32553897D01*
X11858277Y32467001D01*
X11782456Y32388628D01*
X11718497Y32321735D01*
X11669326Y32269278D01*
X11637869Y32234215D01*
X11627049Y32219566D01*
X11384859Y32219566D01*
X11250798Y32363240D01*
X11181216Y32437552D01*
X11103119Y32520517D01*
X11019594Y32608898D01*
X10933730Y32699459D01*
X10848615Y32788964D01*
X10767336Y32874177D01*
X10692981Y32951861D01*
X10628637Y33018780D01*
X10577394Y33071697D01*
X10542337Y33107377D01*
X10526556Y33122584D01*
X10525996Y33122894D01*
X10361750Y33122894D01*
X10345796Y33314193D01*
X9547714Y34153515D01*
X8749632Y34992836D01*
X8750219Y35110148D01*
X8750806Y35227461D01*
X8879725Y35089747D01*
X8951876Y35012937D01*
X9037060Y34922696D01*
X9132979Y34821425D01*
X9237334Y34711524D01*
X9347826Y34595396D01*
X9462156Y34475442D01*
X9578025Y34354064D01*
X9693135Y34233662D01*
X9805186Y34116638D01*
X9911881Y34005394D01*
X10010920Y33902331D01*
X10100003Y33809850D01*
X10176834Y33730353D01*
X10239112Y33666242D01*
X10284538Y33619917D01*
X10310815Y33593781D01*
X10316574Y33588767D01*
X10316970Y33606209D01*
X10314792Y33650865D01*
X10310417Y33716660D01*
X10304225Y33797517D01*
X10301567Y33829817D01*
X10281772Y34066079D01*
X10436758Y34066079D01*
X10444760Y34028480D01*
X10448840Y33998745D01*
X10454575Y33942797D01*
X10461299Y33867764D01*
X10468352Y33780775D01*
X10470793Y33748579D01*
X10477992Y33656139D01*
X10485258Y33570293D01*
X10491864Y33499153D01*
X10497084Y33450831D01*
X10498261Y33442061D01*
X10502702Y33424058D01*
X10512313Y33402983D01*
X10529140Y33376475D01*
X10555225Y33342172D01*
X10592613Y33297711D01*
X10643346Y33240729D01*
X10709470Y33168864D01*
X10793026Y33079754D01*
X10896060Y32971036D01*
X11001167Y32860725D01*
X11105738Y32751559D01*
X11203351Y32650460D01*
X11291578Y32559885D01*
X11367988Y32482292D01*
X11430151Y32420138D01*
X11475637Y32375882D01*
X11502017Y32351982D01*
X11507643Y32348426D01*
X11522443Y32361319D01*
X11557039Y32394940D01*
X11608071Y32445918D01*
X11672183Y32510880D01*
X11746016Y32586452D01*
X11799411Y32641507D01*
X12078173Y32929763D01*
X11256210Y32929763D01*
X11256210Y33247263D01*
X12258842Y33247263D01*
X12258842Y33105794D01*
X12442658Y33289040D01*
X12573052Y33419029D01*
X12827000Y33419029D01*
X12829429Y33398523D01*
X12841724Y33387098D01*
X12871396Y33382120D01*
X12925955Y33380956D01*
X12935618Y33380948D01*
X13044237Y33380948D01*
X13044237Y33672416D01*
X12935618Y33564763D01*
X12874346Y33499313D01*
X12837699Y33449171D01*
X12827000Y33419029D01*
X12573052Y33419029D01*
X12626474Y33472285D01*
X12626474Y33635498D01*
X12626985Y33710586D01*
X12629328Y33758355D01*
X12634711Y33784902D01*
X12644344Y33796321D01*
X12658871Y33798711D01*
X12675027Y33802220D01*
X12686969Y33816289D01*
X12696139Y33846231D01*
X12703982Y33897358D01*
X12711942Y33974983D01*
X12714496Y34003415D01*
X12720026Y34066079D01*
X10436758Y34066079D01*
X10281772Y34066079D01*
X10069763Y34066079D01*
X10069763Y34216474D01*
X10159859Y34216474D01*
X10212555Y34217917D01*
X10241188Y34224884D01*
X10244691Y34229030D01*
X10429234Y34229030D01*
X10438946Y34219558D01*
X10472588Y34216634D01*
X10495294Y34216474D01*
X10571079Y34216474D01*
X10853694Y34216474D01*
X12733519Y34216474D01*
X12669938Y34281587D01*
X12571186Y34361938D01*
X12448968Y34423911D01*
X12301213Y34468354D01*
X12154401Y34492935D01*
X12058316Y34504404D01*
X12058316Y34383579D01*
X11289632Y34383579D01*
X11289632Y34520655D01*
X11176835Y34509224D01*
X11098025Y34499575D01*
X11014057Y34486786D01*
X10963776Y34477652D01*
X10863513Y34457512D01*
X10858603Y34336993D01*
X10853694Y34216474D01*
X10571079Y34216474D01*
X10571079Y34283316D01*
X10568869Y34325190D01*
X10563350Y34348464D01*
X10561126Y34350158D01*
X10536387Y34339440D01*
X10500243Y34313437D01*
X10464010Y34281377D01*
X10439001Y34252489D01*
X10436773Y34248733D01*
X10429234Y34229030D01*
X10244691Y34229030D01*
X10255081Y34241326D01*
X10260689Y34259238D01*
X10283578Y34305721D01*
X10327540Y34361600D01*
X10385011Y34419040D01*
X10448427Y34470207D01*
X10490082Y34496857D01*
X10537534Y34526028D01*
X10561859Y34550533D01*
X10570405Y34579428D01*
X10571062Y34596638D01*
X10571063Y34600816D01*
X11423316Y34600816D01*
X11423316Y34517263D01*
X11924632Y34517263D01*
X11924632Y34600816D01*
X11423316Y34600816D01*
X10571063Y34600816D01*
X10571079Y34650948D01*
X10711726Y34650948D01*
X10776436Y34649383D01*
X10826870Y34645215D01*
X10854906Y34639227D01*
X10857943Y34636803D01*
X10875727Y34633082D01*
X10919008Y34634606D01*
X10980349Y34640925D01*
X11022263Y34646760D01*
X11098263Y34658222D01*
X11167770Y34668570D01*
X11220003Y34676204D01*
X11235322Y34678373D01*
X11275347Y34690768D01*
X11289632Y34710192D01*
X11293975Y34718102D01*
X11309510Y34724137D01*
X11339999Y34728534D01*
X11389200Y34731531D01*
X11460874Y34733365D01*
X11558781Y34734275D01*
X11673974Y34734500D01*
X11796914Y34734372D01*
X11890441Y34733770D01*
X11958560Y34732361D01*
X12005281Y34729819D01*
X12034609Y34725811D01*
X12050551Y34720009D01*
X12057115Y34712083D01*
X12058316Y34702867D01*
X12068540Y34673615D01*
X12102030Y34656969D01*
X12163012Y34651032D01*
X12173983Y34650948D01*
X12277254Y34640294D01*
X12394547Y34610967D01*
X12515285Y34566916D01*
X12628889Y34512089D01*
X12724781Y34450436D01*
X12737201Y34440668D01*
X12777682Y34408885D01*
X12801655Y34396156D01*
X12818396Y34400271D01*
X12835581Y34417250D01*
X12886336Y34450508D01*
X12952393Y34463275D01*
X13023526Y34456635D01*
X13089514Y34431673D01*
X13140132Y34389471D01*
X13143797Y34384566D01*
X13181672Y34305789D01*
X13188719Y34224246D01*
X13165715Y34146513D01*
X13113437Y34079165D01*
X13107044Y34073604D01*
X13069927Y34047187D01*
X13032267Y34035553D01*
X12979324Y34034713D01*
X12966098Y34035458D01*
X12914297Y34037359D01*
X12887614Y34033004D01*
X12877955Y34019862D01*
X12876963Y34007592D01*
X12874939Y33971998D01*
X12869914Y33918467D01*
X12866303Y33886441D01*
X12861066Y33835573D01*
X12863244Y33809532D01*
X12875875Y33800014D01*
X12898375Y33798711D01*
X12911718Y33803014D01*
X12933244Y33816943D01*
X12964548Y33842023D01*
X13007224Y33879781D01*
X13062868Y33931744D01*
X13133075Y33999438D01*
X13219440Y34084389D01*
X13323558Y34188125D01*
X13447025Y34312172D01*
X13591436Y34458056D01*
X13661031Y34528551D01*
X14381079Y35258390D01*
X14380256Y35142663D01*
G36*
X14380256Y35142663D02*
G01*
X14379433Y35026934D01*
X13779115Y34417000D01*
X13178796Y33807066D01*
X13178359Y33527165D01*
X13177921Y33247263D01*
X12812337Y33247263D01*
X12802917Y33176244D01*
X12799350Y33143873D01*
X12793338Y33082913D01*
X12785201Y32997002D01*
X12775262Y32889774D01*
X12763843Y32764867D01*
X12751264Y32625917D01*
X12737847Y32476559D01*
X12723915Y32320432D01*
X12709788Y32161170D01*
X12695788Y32002410D01*
X12682237Y31847789D01*
X12669456Y31700943D01*
X12657767Y31565507D01*
X12647492Y31445120D01*
X12638952Y31343416D01*
X12632469Y31264033D01*
X12628364Y31210606D01*
X12626959Y31186771D01*
X12626960Y31186658D01*
X12637204Y31167534D01*
X12667974Y31128045D01*
X12719689Y31067734D01*
X12792767Y30986139D01*
X12887627Y30882802D01*
X13004687Y30757262D01*
X13144367Y30609060D01*
X13307084Y30437737D01*
X13352821Y30389763D01*
X14078195Y29629434D01*
X14019551Y29570948D01*
X13960908Y29512461D01*
X13866026Y29615690D01*
X13831315Y29652997D01*
X13777094Y29710689D01*
X13706941Y29784987D01*
X13624432Y29872111D01*
X13533145Y29968282D01*
X13436658Y30069720D01*
X13378935Y30130305D01*
X13270566Y30243803D01*
X13182972Y30334715D01*
X13113920Y30404693D01*
X13061176Y30455390D01*
X13022506Y30488460D01*
X12995677Y30505556D01*
X12978456Y30508331D01*
X12968608Y30498437D01*
X12963901Y30477529D01*
X12962101Y30447259D01*
X12961859Y30438998D01*
X12949342Y30382091D01*
X12918503Y30313307D01*
X12875497Y30243525D01*
X12826480Y30183622D01*
X12806866Y30165118D01*
X12706230Y30100372D01*
X12588673Y30064146D01*
X12484738Y30055553D01*
X12366951Y30071761D01*
X12258169Y30119288D01*
X12161890Y30196489D01*
X12144125Y30215705D01*
X12079168Y30289500D01*
X10955421Y30289500D01*
X10955421Y30055553D01*
X10654632Y30055553D01*
X10654632Y30164848D01*
X10650857Y30239461D01*
X10638175Y30291250D01*
X10622763Y30319420D01*
X10611750Y30339576D01*
X10602321Y30368800D01*
X10593849Y30411425D01*
X10585710Y30471783D01*
X10577279Y30554207D01*
X10567932Y30663028D01*
X10561531Y30743983D01*
X10532169Y31123268D01*
X9811341Y30393062D01*
X9681008Y30260934D01*
X9555892Y30133904D01*
X9438279Y30014305D01*
X9330455Y29904472D01*
X9234705Y29806737D01*
X9153317Y29723434D01*
X9088577Y29656896D01*
X9042770Y29609458D01*
X9018208Y29583480D01*
X8977855Y29542351D01*
X8944195Y29513665D01*
X8926090Y29504105D01*
X8902965Y29515303D01*
X8869257Y29543281D01*
X8857831Y29554674D01*
X8809383Y29605243D01*
X9076119Y29876298D01*
X9144169Y29945348D01*
X9231915Y30034226D01*
X9335508Y30139041D01*
X9451100Y30255903D01*
X9574841Y30380921D01*
X9702881Y30510205D01*
X9831372Y30639864D01*
X9923546Y30732821D01*
X10063658Y30874480D01*
X10181368Y30994409D01*
X10278180Y31094232D01*
X10355601Y31175572D01*
X10415136Y31240052D01*
X10444642Y31273723D01*
X10681591Y31273723D01*
X10711257Y30894408D01*
X10720203Y30783223D01*
X10728858Y30681547D01*
X10736729Y30594696D01*
X10743328Y30527982D01*
X10748164Y30486721D01*
X10749720Y30477494D01*
X10758518Y30439895D01*
X12020319Y30439895D01*
X12028742Y30544827D01*
X12054172Y30668805D01*
X12107389Y30778476D01*
X12185037Y30869844D01*
X12283763Y30938917D01*
X12394572Y30980380D01*
X12430520Y30999829D01*
X12448517Y31041570D01*
X12448894Y31043411D01*
X12451053Y31061033D01*
X12448384Y31079078D01*
X12438280Y31100892D01*
X12418137Y31129823D01*
X12385349Y31169217D01*
X12337310Y31222423D01*
X12271416Y31292786D01*
X12185060Y31383654D01*
X12179480Y31389507D01*
X12086595Y31487044D01*
X11987845Y31590933D01*
X11890016Y31694023D01*
X11799893Y31789161D01*
X11724262Y31869196D01*
X11707395Y31887089D01*
X11642735Y31954556D01*
X11585295Y32012291D01*
X11539199Y32056325D01*
X11508569Y32082686D01*
X11498285Y32088479D01*
X11482948Y32076354D01*
X11447083Y32043090D01*
X11393512Y31991458D01*
X11325060Y31924225D01*
X11244553Y31844163D01*
X11154813Y31754039D01*
X11081468Y31679802D01*
X10681591Y31273723D01*
X10444642Y31273723D01*
X10458291Y31289297D01*
X10486571Y31324929D01*
X10501483Y31348571D01*
X10504801Y31359520D01*
X10503544Y31383414D01*
X10499726Y31437499D01*
X10493593Y31518662D01*
X10485393Y31623790D01*
X10475373Y31749772D01*
X10463780Y31893495D01*
X10450860Y32051846D01*
X10436862Y32221713D01*
X10425581Y32357472D01*
X10361750Y33122894D01*
X10525996Y33122894D01*
X10526703Y33106376D01*
X10530031Y33059855D01*
X10535710Y32986622D01*
X10543474Y32889972D01*
X10553057Y32773195D01*
X10564189Y32639586D01*
X10576605Y32492437D01*
X10588520Y32352729D01*
X10602016Y32194213D01*
X10614587Y32044579D01*
X10625945Y31907398D01*
X10635802Y31786241D01*
X10643870Y31684680D01*
X10649860Y31606288D01*
X10653485Y31554637D01*
X10654491Y31534577D01*
X10656060Y31522092D01*
X10662278Y31517138D01*
X10675541Y31521782D01*
X10698247Y31538091D01*
X10732792Y31568132D01*
X10781573Y31613973D01*
X10846987Y31677680D01*
X10931431Y31761321D01*
X11021029Y31850701D01*
X11387426Y32216814D01*
X11384859Y32219566D01*
X11627049Y32219566D01*
X11638087Y32204450D01*
X11668987Y32168858D01*
X11716653Y32116059D01*
X11777987Y32049327D01*
X11849893Y31971930D01*
X11929273Y31887142D01*
X12013031Y31798233D01*
X12098070Y31708474D01*
X12181292Y31621136D01*
X12259601Y31539491D01*
X12329900Y31466809D01*
X12389091Y31406363D01*
X12434078Y31361422D01*
X12461764Y31335258D01*
X12469314Y31329928D01*
X12471803Y31347133D01*
X12476970Y31394652D01*
X12484530Y31469511D01*
X12494200Y31568736D01*
X12505695Y31689351D01*
X12518731Y31828382D01*
X12533024Y31982855D01*
X12548290Y32149794D01*
X12560479Y32284403D01*
X12576071Y32458946D01*
X12590477Y32623373D01*
X12603453Y32774701D01*
X12614759Y32909947D01*
X12624152Y33026130D01*
X12631389Y33120265D01*
X12636228Y33189370D01*
X12638427Y33230462D01*
X12638176Y33241132D01*
X12625030Y33231628D01*
X12591554Y33201080D01*
X12540674Y33152444D01*
X12475317Y33088677D01*
X12398409Y33012735D01*
X12312876Y32927576D01*
X12221646Y32836155D01*
X12127644Y32741431D01*
X12033798Y32646359D01*
X11943033Y32553897D01*
X11858277Y32467001D01*
X11782456Y32388628D01*
X11718497Y32321735D01*
X11669326Y32269278D01*
X11637869Y32234215D01*
X11627049Y32219566D01*
X11384859Y32219566D01*
X11250798Y32363240D01*
X11181216Y32437552D01*
X11103119Y32520517D01*
X11019594Y32608898D01*
X10933730Y32699459D01*
X10848615Y32788964D01*
X10767336Y32874177D01*
X10692981Y32951861D01*
X10628637Y33018780D01*
X10577394Y33071697D01*
X10542337Y33107377D01*
X10526556Y33122584D01*
X10525996Y33122894D01*
X10361750Y33122894D01*
X10345796Y33314193D01*
X9547714Y34153515D01*
X8749632Y34992836D01*
X8750219Y35110148D01*
X8750806Y35227461D01*
X8879725Y35089747D01*
X8951876Y35012937D01*
X9037060Y34922696D01*
X9132979Y34821425D01*
X9237334Y34711524D01*
X9347826Y34595396D01*
X9462156Y34475442D01*
X9578025Y34354064D01*
X9693135Y34233662D01*
X9805186Y34116638D01*
X9911881Y34005394D01*
X10010920Y33902331D01*
X10100003Y33809850D01*
X10176834Y33730353D01*
X10239112Y33666242D01*
X10284538Y33619917D01*
X10310815Y33593781D01*
X10316574Y33588767D01*
X10316970Y33606209D01*
X10314792Y33650865D01*
X10310417Y33716660D01*
X10304225Y33797517D01*
X10301567Y33829817D01*
X10281772Y34066079D01*
X10436758Y34066079D01*
X10444760Y34028480D01*
X10448840Y33998745D01*
X10454575Y33942797D01*
X10461299Y33867764D01*
X10468352Y33780775D01*
X10470793Y33748579D01*
X10477992Y33656139D01*
X10485258Y33570293D01*
X10491864Y33499153D01*
X10497084Y33450831D01*
X10498261Y33442061D01*
X10502702Y33424058D01*
X10512313Y33402983D01*
X10529140Y33376475D01*
X10555225Y33342172D01*
X10592613Y33297711D01*
X10643346Y33240729D01*
X10709470Y33168864D01*
X10793026Y33079754D01*
X10896060Y32971036D01*
X11001167Y32860725D01*
X11105738Y32751559D01*
X11203351Y32650460D01*
X11291578Y32559885D01*
X11367988Y32482292D01*
X11430151Y32420138D01*
X11475637Y32375882D01*
X11502017Y32351982D01*
X11507643Y32348426D01*
X11522443Y32361319D01*
X11557039Y32394940D01*
X11608071Y32445918D01*
X11672183Y32510880D01*
X11746016Y32586452D01*
X11799411Y32641507D01*
X12078173Y32929763D01*
X11256210Y32929763D01*
X11256210Y33247263D01*
X12258842Y33247263D01*
X12258842Y33105794D01*
X12442658Y33289040D01*
X12573052Y33419029D01*
X12827000Y33419029D01*
X12829429Y33398523D01*
X12841724Y33387098D01*
X12871396Y33382120D01*
X12925955Y33380956D01*
X12935618Y33380948D01*
X13044237Y33380948D01*
X13044237Y33672416D01*
X12935618Y33564763D01*
X12874346Y33499313D01*
X12837699Y33449171D01*
X12827000Y33419029D01*
X12573052Y33419029D01*
X12626474Y33472285D01*
X12626474Y33635498D01*
X12626985Y33710586D01*
X12629328Y33758355D01*
X12634711Y33784902D01*
X12644344Y33796321D01*
X12658871Y33798711D01*
X12675027Y33802220D01*
X12686969Y33816289D01*
X12696139Y33846231D01*
X12703982Y33897358D01*
X12711942Y33974983D01*
X12714496Y34003415D01*
X12720026Y34066079D01*
X10436758Y34066079D01*
X10281772Y34066079D01*
X10069763Y34066079D01*
X10069763Y34216474D01*
X10159859Y34216474D01*
X10212555Y34217917D01*
X10241188Y34224884D01*
X10244691Y34229030D01*
X10429234Y34229030D01*
X10438946Y34219558D01*
X10472588Y34216634D01*
X10495294Y34216474D01*
X10571079Y34216474D01*
X10853694Y34216474D01*
X12733519Y34216474D01*
X12669938Y34281587D01*
X12571186Y34361938D01*
X12448968Y34423911D01*
X12301213Y34468354D01*
X12154401Y34492935D01*
X12058316Y34504404D01*
X12058316Y34383579D01*
X11289632Y34383579D01*
X11289632Y34520655D01*
X11176835Y34509224D01*
X11098025Y34499575D01*
X11014057Y34486786D01*
X10963776Y34477652D01*
X10863513Y34457512D01*
X10858603Y34336993D01*
X10853694Y34216474D01*
X10571079Y34216474D01*
X10571079Y34283316D01*
X10568869Y34325190D01*
X10563350Y34348464D01*
X10561126Y34350158D01*
X10536387Y34339440D01*
X10500243Y34313437D01*
X10464010Y34281377D01*
X10439001Y34252489D01*
X10436773Y34248733D01*
X10429234Y34229030D01*
X10244691Y34229030D01*
X10255081Y34241326D01*
X10260689Y34259238D01*
X10283578Y34305721D01*
X10327540Y34361600D01*
X10385011Y34419040D01*
X10448427Y34470207D01*
X10490082Y34496857D01*
X10537534Y34526028D01*
X10561859Y34550533D01*
X10570405Y34579428D01*
X10571062Y34596638D01*
X10571063Y34600816D01*
X11423316Y34600816D01*
X11423316Y34517263D01*
X11924632Y34517263D01*
X11924632Y34600816D01*
X11423316Y34600816D01*
X10571063Y34600816D01*
X10571079Y34650948D01*
X10711726Y34650948D01*
X10776436Y34649383D01*
X10826870Y34645215D01*
X10854906Y34639227D01*
X10857943Y34636803D01*
X10875727Y34633082D01*
X10919008Y34634606D01*
X10980349Y34640925D01*
X11022263Y34646760D01*
X11098263Y34658222D01*
X11167770Y34668570D01*
X11220003Y34676204D01*
X11235322Y34678373D01*
X11275347Y34690768D01*
X11289632Y34710192D01*
X11293975Y34718102D01*
X11309510Y34724137D01*
X11339999Y34728534D01*
X11389200Y34731531D01*
X11460874Y34733365D01*
X11558781Y34734275D01*
X11673974Y34734500D01*
X11796914Y34734372D01*
X11890441Y34733770D01*
X11958560Y34732361D01*
X12005281Y34729819D01*
X12034609Y34725811D01*
X12050551Y34720009D01*
X12057115Y34712083D01*
X12058316Y34702867D01*
X12068540Y34673615D01*
X12102030Y34656969D01*
X12163012Y34651032D01*
X12173983Y34650948D01*
X12277254Y34640294D01*
X12394547Y34610967D01*
X12515285Y34566916D01*
X12628889Y34512089D01*
X12724781Y34450436D01*
X12737201Y34440668D01*
X12777682Y34408885D01*
X12801655Y34396156D01*
X12818396Y34400271D01*
X12835581Y34417250D01*
X12886336Y34450508D01*
X12952393Y34463275D01*
X13023526Y34456635D01*
X13089514Y34431673D01*
X13140132Y34389471D01*
X13143797Y34384566D01*
X13181672Y34305789D01*
X13188719Y34224246D01*
X13165715Y34146513D01*
X13113437Y34079165D01*
X13107044Y34073604D01*
X13069927Y34047187D01*
X13032267Y34035553D01*
X12979324Y34034713D01*
X12966098Y34035458D01*
X12914297Y34037359D01*
X12887614Y34033004D01*
X12877955Y34019862D01*
X12876963Y34007592D01*
X12874939Y33971998D01*
X12869914Y33918467D01*
X12866303Y33886441D01*
X12861066Y33835573D01*
X12863244Y33809532D01*
X12875875Y33800014D01*
X12898375Y33798711D01*
X12911718Y33803014D01*
X12933244Y33816943D01*
X12964548Y33842023D01*
X13007224Y33879781D01*
X13062868Y33931744D01*
X13133075Y33999438D01*
X13219440Y34084389D01*
X13323558Y34188125D01*
X13447025Y34312172D01*
X13591436Y34458056D01*
X13661031Y34528551D01*
X14381079Y35258390D01*
X14380256Y35142663D01*
G37*
X13879763Y27231474D02*
X9200816Y27231474D01*
X9200816Y28384500D01*
X13879763Y28384500D01*
X13879763Y27231474D01*
G36*
X13879763Y27231474D02*
G01*
X9200816Y27231474D01*
X9200816Y28384500D01*
X13879763Y28384500D01*
X13879763Y27231474D01*
G37*
D13*
%TO.C,U2*%
X55973483Y22657568D02*
X52338954Y19023039D01*
X50458050Y20903943D02*
X52338954Y19023039D01*
X54092579Y24538472D02*
X55973483Y22657568D01*
X54092579Y24538472D02*
X50458050Y20903943D01*
X54990605Y25436498D02*
X55931057Y26376950D01*
X55931057Y26376950D02*
X56871509Y25436498D01*
%TO.C,U4*%
X14064983Y22657568D02*
X10430454Y19023039D01*
X8549550Y20903943D02*
X10430454Y19023039D01*
X12184079Y24538472D02*
X14064983Y22657568D01*
X12184079Y24538472D02*
X8549550Y20903943D01*
X13082105Y25436498D02*
X14022557Y26376950D01*
X14022557Y26376950D02*
X14963009Y25436498D01*
%TO.C,RV1*%
X44705000Y34250000D02*
X44705000Y-750000D01*
X35305000Y34250000D02*
X44705000Y34250000D01*
X44705000Y-750000D02*
X35305000Y-750000D01*
X35305000Y-750000D02*
X35305000Y34250000D01*
%TD*%
%LPC*%
D14*
%TO.C,U2*%
X52338954Y20903943D03*
X54135005Y22699995D03*
D15*
X55931057Y24496046D03*
%TD*%
D14*
%TO.C,U4*%
X10430454Y20903943D03*
X12226505Y22699995D03*
D15*
X14022557Y24496046D03*
%TD*%
D16*
%TO.C,RV1*%
X44255000Y29350000D03*
X44255000Y4150000D03*
X35755000Y28150000D03*
X35755000Y5350000D03*
X38255000Y33500000D03*
X41755000Y0D03*
X38255000Y0D03*
%TD*%
D17*
%TO.C,J7*%
X-700000Y3810000D03*
X1840000Y3810000D03*
X-700000Y6350000D03*
X1840000Y6350000D03*
X-700000Y8890000D03*
X1840000Y8890000D03*
X-700000Y11430000D03*
D18*
X1840000Y11430000D03*
%TD*%
D19*
%TO.C,C2*%
X53340000Y6270000D03*
X53340000Y1270000D03*
%TD*%
%TO.C,C3*%
X28702000Y27980000D03*
X28702000Y32980000D03*
%TD*%
D20*
%TO.C,U1*%
X57150000Y-635000D03*
X59690000Y-635000D03*
X62230000Y-635000D03*
X64770000Y-635000D03*
X64770000Y6985000D03*
X62230000Y6985000D03*
X59690000Y6985000D03*
D21*
X57150000Y6985000D03*
%TD*%
D22*
%TO.C,J10*%
X27940000Y0D03*
X25940000Y0D03*
X23940000Y0D03*
X21940000Y0D03*
X19940000Y0D03*
X17940000Y0D03*
X15940000Y0D03*
X13940000Y0D03*
D23*
X11940000Y0D03*
%TD*%
D17*
%TO.C,SW2*%
X23607000Y25400000D03*
X26147000Y25400000D03*
D18*
X28687000Y25400000D03*
%TD*%
D17*
%TO.C,J3*%
X76200000Y27940000D03*
X73660000Y27940000D03*
X71120000Y27940000D03*
D18*
X68580000Y27940000D03*
%TD*%
D19*
%TO.C,C1*%
X22352000Y29492000D03*
X22352000Y32992000D03*
%TD*%
D24*
%TO.C,J9*%
X5715000Y1270000D03*
X5715000Y3270000D03*
X5715000Y5270000D03*
X5715000Y7270000D03*
X5715000Y9270000D03*
X5715000Y11270000D03*
X5715000Y13270000D03*
X5715000Y15270000D03*
D25*
X5715000Y17270000D03*
%TD*%
D17*
%TO.C,J6*%
X73750000Y3810000D03*
X71210000Y3810000D03*
X73750000Y6350000D03*
X71210000Y6350000D03*
X73750000Y8890000D03*
X71210000Y8890000D03*
X73750000Y11430000D03*
D18*
X71210000Y11430000D03*
%TD*%
D26*
%TO.C,D1*%
X64790000Y28925000D03*
D27*
X62250000Y28925000D03*
%TD*%
D28*
%TO.C,SW1*%
X51420000Y29845000D03*
X58420000Y29845000D03*
X52670000Y32345000D03*
X57170000Y32345000D03*
%TD*%
D29*
%TO.C,U3*%
X32385000Y22860000D03*
X32385000Y25400000D03*
X47625000Y25400000D03*
X32385000Y30480000D03*
D30*
X32385000Y27940000D03*
D29*
X40005000Y2540000D03*
D30*
X47625000Y22860000D03*
D29*
X32385000Y10160000D03*
X32385000Y7620000D03*
X32385000Y5080000D03*
X32385000Y2540000D03*
X47625000Y2540000D03*
X47625000Y5080000D03*
X47625000Y7620000D03*
X47625000Y10160000D03*
X47625000Y12700000D03*
X47625000Y15240000D03*
X47625000Y17780000D03*
X47625000Y20320000D03*
X47625000Y30480000D03*
X47625000Y27940000D03*
X34925000Y2540000D03*
X35310900Y11296000D03*
X35310900Y8755400D03*
X37465000Y2540000D03*
X35310900Y21709400D03*
X35310900Y19169400D03*
X32385000Y20320000D03*
X32385000Y17780000D03*
X32385000Y15240000D03*
X32385000Y12700000D03*
%TD*%
D17*
%TO.C,J1*%
X36195000Y25400000D03*
X38735000Y25400000D03*
X41275000Y25400000D03*
D18*
X43815000Y25400000D03*
%TD*%
D17*
%TO.C,J5*%
X73660000Y15875000D03*
X73660000Y18415000D03*
X73660000Y20955000D03*
D18*
X73660000Y23495000D03*
%TD*%
D31*
%TO.C,R1*%
X69850000Y24130000D03*
D32*
X64770000Y24130000D03*
%TD*%
D17*
%TO.C,J4*%
X-635000Y15875000D03*
X-635000Y18415000D03*
X-635000Y20955000D03*
D18*
X-635000Y23495000D03*
%TD*%
D17*
%TO.C,J2*%
X76200000Y0D03*
X73660000Y0D03*
X71120000Y0D03*
D18*
X68580000Y0D03*
%TD*%
%LPD*%
M02*
