%TF.GenerationSoftware,KiCad,Pcbnew,7.0.7*%
%TF.CreationDate,2023-10-01T14:42:12+02:00*%
%TF.ProjectId,Angle_Ana_Sw,416e676c-655f-4416-9e61-5f53772e6b69,1.0*%
%TF.SameCoordinates,Original*%
%TF.FileFunction,Legend,Bot*%
%TF.FilePolarity,Positive*%
%FSLAX46Y46*%
G04 Gerber Fmt 4.6, Leading zero omitted, Abs format (unit mm)*
G04 Created by KiCad (PCBNEW 7.0.7) date 2023-10-01 14:42:12*
%MOMM*%
%LPD*%
G01*
G04 APERTURE LIST*
%ADD10C,0.210000*%
%ADD11C,0.120000*%
%ADD12C,0.150000*%
G04 APERTURE END LIST*
D10*
X179705000Y-101473000D02*
X180975000Y-101473000D01*
D11*
X147955000Y-110490000D02*
X149225000Y-110490000D01*
D10*
X182880000Y-102171500D02*
X183515000Y-101536500D01*
X185420000Y-98425000D02*
X185420000Y-102108000D01*
D11*
X194310000Y-107315000D02*
X194310000Y-106045000D01*
X159385000Y-96520000D02*
X159385000Y-97790000D01*
D10*
X177800000Y-100838000D02*
X177800000Y-102108000D01*
X182880000Y-98425000D02*
X182880000Y-102108000D01*
X182245000Y-101536500D02*
X182880000Y-102171500D01*
X177165000Y-101473000D02*
X178435000Y-101473000D01*
D11*
X152400000Y-106045000D02*
X152400000Y-107315000D01*
D10*
X185420000Y-98361500D02*
X184785000Y-98996500D01*
D11*
X193675000Y-106680000D02*
X194945000Y-106680000D01*
X151765000Y-106680000D02*
X153035000Y-106680000D01*
X158750000Y-97155000D02*
X160020000Y-97155000D01*
D10*
X185420000Y-98361500D02*
X186055000Y-98996500D01*
D11*
X190500000Y-109855000D02*
X191770000Y-109855000D01*
D12*
X170351220Y-109343866D02*
X169589316Y-109343866D01*
X169970268Y-109724819D02*
X169970268Y-108962914D01*
X168636935Y-108724819D02*
X169113125Y-108724819D01*
X169113125Y-108724819D02*
X169160744Y-109201009D01*
X169160744Y-109201009D02*
X169113125Y-109153390D01*
X169113125Y-109153390D02*
X169017887Y-109105771D01*
X169017887Y-109105771D02*
X168779792Y-109105771D01*
X168779792Y-109105771D02*
X168684554Y-109153390D01*
X168684554Y-109153390D02*
X168636935Y-109201009D01*
X168636935Y-109201009D02*
X168589316Y-109296247D01*
X168589316Y-109296247D02*
X168589316Y-109534342D01*
X168589316Y-109534342D02*
X168636935Y-109629580D01*
X168636935Y-109629580D02*
X168684554Y-109677200D01*
X168684554Y-109677200D02*
X168779792Y-109724819D01*
X168779792Y-109724819D02*
X169017887Y-109724819D01*
X169017887Y-109724819D02*
X169113125Y-109677200D01*
X169113125Y-109677200D02*
X169160744Y-109629580D01*
X168303601Y-108724819D02*
X167970268Y-109724819D01*
X167970268Y-109724819D02*
X167636935Y-108724819D01*
X212435839Y-130886200D02*
X212292982Y-130933819D01*
X212292982Y-130933819D02*
X212054887Y-130933819D01*
X212054887Y-130933819D02*
X211959649Y-130886200D01*
X211959649Y-130886200D02*
X211912030Y-130838580D01*
X211912030Y-130838580D02*
X211864411Y-130743342D01*
X211864411Y-130743342D02*
X211864411Y-130648104D01*
X211864411Y-130648104D02*
X211912030Y-130552866D01*
X211912030Y-130552866D02*
X211959649Y-130505247D01*
X211959649Y-130505247D02*
X212054887Y-130457628D01*
X212054887Y-130457628D02*
X212245363Y-130410009D01*
X212245363Y-130410009D02*
X212340601Y-130362390D01*
X212340601Y-130362390D02*
X212388220Y-130314771D01*
X212388220Y-130314771D02*
X212435839Y-130219533D01*
X212435839Y-130219533D02*
X212435839Y-130124295D01*
X212435839Y-130124295D02*
X212388220Y-130029057D01*
X212388220Y-130029057D02*
X212340601Y-129981438D01*
X212340601Y-129981438D02*
X212245363Y-129933819D01*
X212245363Y-129933819D02*
X212007268Y-129933819D01*
X212007268Y-129933819D02*
X211864411Y-129981438D01*
X210864411Y-130838580D02*
X210912030Y-130886200D01*
X210912030Y-130886200D02*
X211054887Y-130933819D01*
X211054887Y-130933819D02*
X211150125Y-130933819D01*
X211150125Y-130933819D02*
X211292982Y-130886200D01*
X211292982Y-130886200D02*
X211388220Y-130790961D01*
X211388220Y-130790961D02*
X211435839Y-130695723D01*
X211435839Y-130695723D02*
X211483458Y-130505247D01*
X211483458Y-130505247D02*
X211483458Y-130362390D01*
X211483458Y-130362390D02*
X211435839Y-130171914D01*
X211435839Y-130171914D02*
X211388220Y-130076676D01*
X211388220Y-130076676D02*
X211292982Y-129981438D01*
X211292982Y-129981438D02*
X211150125Y-129933819D01*
X211150125Y-129933819D02*
X211054887Y-129933819D01*
X211054887Y-129933819D02*
X210912030Y-129981438D01*
X210912030Y-129981438D02*
X210864411Y-130029057D01*
X209959649Y-130933819D02*
X210435839Y-130933819D01*
X210435839Y-130933819D02*
X210435839Y-129933819D01*
X214325030Y-105549819D02*
X214801220Y-105549819D01*
X214801220Y-105549819D02*
X214848839Y-106026009D01*
X214848839Y-106026009D02*
X214801220Y-105978390D01*
X214801220Y-105978390D02*
X214705982Y-105930771D01*
X214705982Y-105930771D02*
X214467887Y-105930771D01*
X214467887Y-105930771D02*
X214372649Y-105978390D01*
X214372649Y-105978390D02*
X214325030Y-106026009D01*
X214325030Y-106026009D02*
X214277411Y-106121247D01*
X214277411Y-106121247D02*
X214277411Y-106359342D01*
X214277411Y-106359342D02*
X214325030Y-106454580D01*
X214325030Y-106454580D02*
X214372649Y-106502200D01*
X214372649Y-106502200D02*
X214467887Y-106549819D01*
X214467887Y-106549819D02*
X214705982Y-106549819D01*
X214705982Y-106549819D02*
X214801220Y-106502200D01*
X214801220Y-106502200D02*
X214848839Y-106454580D01*
X213991696Y-105549819D02*
X213658363Y-106549819D01*
X213658363Y-106549819D02*
X213325030Y-105549819D01*
X214071030Y-129933819D02*
X214547220Y-129933819D01*
X214547220Y-129933819D02*
X214594839Y-130410009D01*
X214594839Y-130410009D02*
X214547220Y-130362390D01*
X214547220Y-130362390D02*
X214451982Y-130314771D01*
X214451982Y-130314771D02*
X214213887Y-130314771D01*
X214213887Y-130314771D02*
X214118649Y-130362390D01*
X214118649Y-130362390D02*
X214071030Y-130410009D01*
X214071030Y-130410009D02*
X214023411Y-130505247D01*
X214023411Y-130505247D02*
X214023411Y-130743342D01*
X214023411Y-130743342D02*
X214071030Y-130838580D01*
X214071030Y-130838580D02*
X214118649Y-130886200D01*
X214118649Y-130886200D02*
X214213887Y-130933819D01*
X214213887Y-130933819D02*
X214451982Y-130933819D01*
X214451982Y-130933819D02*
X214547220Y-130886200D01*
X214547220Y-130886200D02*
X214594839Y-130838580D01*
X213737696Y-129933819D02*
X213404363Y-130933819D01*
X213404363Y-130933819D02*
X213071030Y-129933819D01*
X211632800Y-112486839D02*
X211585180Y-112343982D01*
X211585180Y-112343982D02*
X211585180Y-112105887D01*
X211585180Y-112105887D02*
X211632800Y-112010649D01*
X211632800Y-112010649D02*
X211680419Y-111963030D01*
X211680419Y-111963030D02*
X211775657Y-111915411D01*
X211775657Y-111915411D02*
X211870895Y-111915411D01*
X211870895Y-111915411D02*
X211966133Y-111963030D01*
X211966133Y-111963030D02*
X212013752Y-112010649D01*
X212013752Y-112010649D02*
X212061371Y-112105887D01*
X212061371Y-112105887D02*
X212108990Y-112296363D01*
X212108990Y-112296363D02*
X212156609Y-112391601D01*
X212156609Y-112391601D02*
X212204228Y-112439220D01*
X212204228Y-112439220D02*
X212299466Y-112486839D01*
X212299466Y-112486839D02*
X212394704Y-112486839D01*
X212394704Y-112486839D02*
X212489942Y-112439220D01*
X212489942Y-112439220D02*
X212537561Y-112391601D01*
X212537561Y-112391601D02*
X212585180Y-112296363D01*
X212585180Y-112296363D02*
X212585180Y-112058268D01*
X212585180Y-112058268D02*
X212537561Y-111915411D01*
X211680419Y-110915411D02*
X211632800Y-110963030D01*
X211632800Y-110963030D02*
X211585180Y-111105887D01*
X211585180Y-111105887D02*
X211585180Y-111201125D01*
X211585180Y-111201125D02*
X211632800Y-111343982D01*
X211632800Y-111343982D02*
X211728038Y-111439220D01*
X211728038Y-111439220D02*
X211823276Y-111486839D01*
X211823276Y-111486839D02*
X212013752Y-111534458D01*
X212013752Y-111534458D02*
X212156609Y-111534458D01*
X212156609Y-111534458D02*
X212347085Y-111486839D01*
X212347085Y-111486839D02*
X212442323Y-111439220D01*
X212442323Y-111439220D02*
X212537561Y-111343982D01*
X212537561Y-111343982D02*
X212585180Y-111201125D01*
X212585180Y-111201125D02*
X212585180Y-111105887D01*
X212585180Y-111105887D02*
X212537561Y-110963030D01*
X212537561Y-110963030D02*
X212489942Y-110915411D01*
X211585180Y-110010649D02*
X211585180Y-110486839D01*
X211585180Y-110486839D02*
X212585180Y-110486839D01*
X212585180Y-114122030D02*
X212585180Y-114598220D01*
X212585180Y-114598220D02*
X212108990Y-114645839D01*
X212108990Y-114645839D02*
X212156609Y-114598220D01*
X212156609Y-114598220D02*
X212204228Y-114502982D01*
X212204228Y-114502982D02*
X212204228Y-114264887D01*
X212204228Y-114264887D02*
X212156609Y-114169649D01*
X212156609Y-114169649D02*
X212108990Y-114122030D01*
X212108990Y-114122030D02*
X212013752Y-114074411D01*
X212013752Y-114074411D02*
X211775657Y-114074411D01*
X211775657Y-114074411D02*
X211680419Y-114122030D01*
X211680419Y-114122030D02*
X211632800Y-114169649D01*
X211632800Y-114169649D02*
X211585180Y-114264887D01*
X211585180Y-114264887D02*
X211585180Y-114502982D01*
X211585180Y-114502982D02*
X211632800Y-114598220D01*
X211632800Y-114598220D02*
X211680419Y-114645839D01*
X212585180Y-113788696D02*
X211585180Y-113455363D01*
X211585180Y-113455363D02*
X212585180Y-113122030D01*
X184559580Y-108858207D02*
X184607200Y-108810588D01*
X184607200Y-108810588D02*
X184654819Y-108667731D01*
X184654819Y-108667731D02*
X184654819Y-108572493D01*
X184654819Y-108572493D02*
X184607200Y-108429636D01*
X184607200Y-108429636D02*
X184511961Y-108334398D01*
X184511961Y-108334398D02*
X184416723Y-108286779D01*
X184416723Y-108286779D02*
X184226247Y-108239160D01*
X184226247Y-108239160D02*
X184083390Y-108239160D01*
X184083390Y-108239160D02*
X183892914Y-108286779D01*
X183892914Y-108286779D02*
X183797676Y-108334398D01*
X183797676Y-108334398D02*
X183702438Y-108429636D01*
X183702438Y-108429636D02*
X183654819Y-108572493D01*
X183654819Y-108572493D02*
X183654819Y-108667731D01*
X183654819Y-108667731D02*
X183702438Y-108810588D01*
X183702438Y-108810588D02*
X183750057Y-108858207D01*
X184654819Y-109286779D02*
X183654819Y-109286779D01*
X183654819Y-109286779D02*
X183654819Y-109667731D01*
X183654819Y-109667731D02*
X183702438Y-109762969D01*
X183702438Y-109762969D02*
X183750057Y-109810588D01*
X183750057Y-109810588D02*
X183845295Y-109858207D01*
X183845295Y-109858207D02*
X183988152Y-109858207D01*
X183988152Y-109858207D02*
X184083390Y-109810588D01*
X184083390Y-109810588D02*
X184131009Y-109762969D01*
X184131009Y-109762969D02*
X184178628Y-109667731D01*
X184178628Y-109667731D02*
X184178628Y-109286779D01*
X184654819Y-110286779D02*
X183654819Y-110286779D01*
X183654819Y-110286779D02*
X183654819Y-110667731D01*
X183654819Y-110667731D02*
X183702438Y-110762969D01*
X183702438Y-110762969D02*
X183750057Y-110810588D01*
X183750057Y-110810588D02*
X183845295Y-110858207D01*
X183845295Y-110858207D02*
X183988152Y-110858207D01*
X183988152Y-110858207D02*
X184083390Y-110810588D01*
X184083390Y-110810588D02*
X184131009Y-110762969D01*
X184131009Y-110762969D02*
X184178628Y-110667731D01*
X184178628Y-110667731D02*
X184178628Y-110286779D01*
X184654819Y-111286779D02*
X183654819Y-111286779D01*
X183654819Y-111286779D02*
X184369104Y-111620112D01*
X184369104Y-111620112D02*
X183654819Y-111953445D01*
X183654819Y-111953445D02*
X184654819Y-111953445D01*
X184750057Y-112191541D02*
X184750057Y-112953445D01*
X183654819Y-113382017D02*
X183654819Y-113572493D01*
X183654819Y-113572493D02*
X183702438Y-113667731D01*
X183702438Y-113667731D02*
X183797676Y-113762969D01*
X183797676Y-113762969D02*
X183988152Y-113810588D01*
X183988152Y-113810588D02*
X184321485Y-113810588D01*
X184321485Y-113810588D02*
X184511961Y-113762969D01*
X184511961Y-113762969D02*
X184607200Y-113667731D01*
X184607200Y-113667731D02*
X184654819Y-113572493D01*
X184654819Y-113572493D02*
X184654819Y-113382017D01*
X184654819Y-113382017D02*
X184607200Y-113286779D01*
X184607200Y-113286779D02*
X184511961Y-113191541D01*
X184511961Y-113191541D02*
X184321485Y-113143922D01*
X184321485Y-113143922D02*
X183988152Y-113143922D01*
X183988152Y-113143922D02*
X183797676Y-113191541D01*
X183797676Y-113191541D02*
X183702438Y-113286779D01*
X183702438Y-113286779D02*
X183654819Y-113382017D01*
X183654819Y-114239160D02*
X184464342Y-114239160D01*
X184464342Y-114239160D02*
X184559580Y-114286779D01*
X184559580Y-114286779D02*
X184607200Y-114334398D01*
X184607200Y-114334398D02*
X184654819Y-114429636D01*
X184654819Y-114429636D02*
X184654819Y-114620112D01*
X184654819Y-114620112D02*
X184607200Y-114715350D01*
X184607200Y-114715350D02*
X184559580Y-114762969D01*
X184559580Y-114762969D02*
X184464342Y-114810588D01*
X184464342Y-114810588D02*
X183654819Y-114810588D01*
X183654819Y-115143922D02*
X183654819Y-115715350D01*
X184654819Y-115429636D02*
X183654819Y-115429636D01*
X183607200Y-116762969D02*
X184892914Y-115905827D01*
X184607200Y-117048684D02*
X184654819Y-117191541D01*
X184654819Y-117191541D02*
X184654819Y-117429636D01*
X184654819Y-117429636D02*
X184607200Y-117524874D01*
X184607200Y-117524874D02*
X184559580Y-117572493D01*
X184559580Y-117572493D02*
X184464342Y-117620112D01*
X184464342Y-117620112D02*
X184369104Y-117620112D01*
X184369104Y-117620112D02*
X184273866Y-117572493D01*
X184273866Y-117572493D02*
X184226247Y-117524874D01*
X184226247Y-117524874D02*
X184178628Y-117429636D01*
X184178628Y-117429636D02*
X184131009Y-117239160D01*
X184131009Y-117239160D02*
X184083390Y-117143922D01*
X184083390Y-117143922D02*
X184035771Y-117096303D01*
X184035771Y-117096303D02*
X183940533Y-117048684D01*
X183940533Y-117048684D02*
X183845295Y-117048684D01*
X183845295Y-117048684D02*
X183750057Y-117096303D01*
X183750057Y-117096303D02*
X183702438Y-117143922D01*
X183702438Y-117143922D02*
X183654819Y-117239160D01*
X183654819Y-117239160D02*
X183654819Y-117477255D01*
X183654819Y-117477255D02*
X183702438Y-117620112D01*
X184131009Y-118382017D02*
X184178628Y-118524874D01*
X184178628Y-118524874D02*
X184226247Y-118572493D01*
X184226247Y-118572493D02*
X184321485Y-118620112D01*
X184321485Y-118620112D02*
X184464342Y-118620112D01*
X184464342Y-118620112D02*
X184559580Y-118572493D01*
X184559580Y-118572493D02*
X184607200Y-118524874D01*
X184607200Y-118524874D02*
X184654819Y-118429636D01*
X184654819Y-118429636D02*
X184654819Y-118048684D01*
X184654819Y-118048684D02*
X183654819Y-118048684D01*
X183654819Y-118048684D02*
X183654819Y-118382017D01*
X183654819Y-118382017D02*
X183702438Y-118477255D01*
X183702438Y-118477255D02*
X183750057Y-118524874D01*
X183750057Y-118524874D02*
X183845295Y-118572493D01*
X183845295Y-118572493D02*
X183940533Y-118572493D01*
X183940533Y-118572493D02*
X184035771Y-118524874D01*
X184035771Y-118524874D02*
X184083390Y-118477255D01*
X184083390Y-118477255D02*
X184131009Y-118382017D01*
X184131009Y-118382017D02*
X184131009Y-118048684D01*
X183654819Y-119048684D02*
X184464342Y-119048684D01*
X184464342Y-119048684D02*
X184559580Y-119096303D01*
X184559580Y-119096303D02*
X184607200Y-119143922D01*
X184607200Y-119143922D02*
X184654819Y-119239160D01*
X184654819Y-119239160D02*
X184654819Y-119429636D01*
X184654819Y-119429636D02*
X184607200Y-119524874D01*
X184607200Y-119524874D02*
X184559580Y-119572493D01*
X184559580Y-119572493D02*
X184464342Y-119620112D01*
X184464342Y-119620112D02*
X183654819Y-119620112D01*
X184607200Y-120048684D02*
X184654819Y-120191541D01*
X184654819Y-120191541D02*
X184654819Y-120429636D01*
X184654819Y-120429636D02*
X184607200Y-120524874D01*
X184607200Y-120524874D02*
X184559580Y-120572493D01*
X184559580Y-120572493D02*
X184464342Y-120620112D01*
X184464342Y-120620112D02*
X184369104Y-120620112D01*
X184369104Y-120620112D02*
X184273866Y-120572493D01*
X184273866Y-120572493D02*
X184226247Y-120524874D01*
X184226247Y-120524874D02*
X184178628Y-120429636D01*
X184178628Y-120429636D02*
X184131009Y-120239160D01*
X184131009Y-120239160D02*
X184083390Y-120143922D01*
X184083390Y-120143922D02*
X184035771Y-120096303D01*
X184035771Y-120096303D02*
X183940533Y-120048684D01*
X183940533Y-120048684D02*
X183845295Y-120048684D01*
X183845295Y-120048684D02*
X183750057Y-120096303D01*
X183750057Y-120096303D02*
X183702438Y-120143922D01*
X183702438Y-120143922D02*
X183654819Y-120239160D01*
X183654819Y-120239160D02*
X183654819Y-120477255D01*
X183654819Y-120477255D02*
X183702438Y-120620112D01*
X184750057Y-120810589D02*
X184750057Y-121572493D01*
X183654819Y-122001065D02*
X183654819Y-122191541D01*
X183654819Y-122191541D02*
X183702438Y-122286779D01*
X183702438Y-122286779D02*
X183797676Y-122382017D01*
X183797676Y-122382017D02*
X183988152Y-122429636D01*
X183988152Y-122429636D02*
X184321485Y-122429636D01*
X184321485Y-122429636D02*
X184511961Y-122382017D01*
X184511961Y-122382017D02*
X184607200Y-122286779D01*
X184607200Y-122286779D02*
X184654819Y-122191541D01*
X184654819Y-122191541D02*
X184654819Y-122001065D01*
X184654819Y-122001065D02*
X184607200Y-121905827D01*
X184607200Y-121905827D02*
X184511961Y-121810589D01*
X184511961Y-121810589D02*
X184321485Y-121762970D01*
X184321485Y-121762970D02*
X183988152Y-121762970D01*
X183988152Y-121762970D02*
X183797676Y-121810589D01*
X183797676Y-121810589D02*
X183702438Y-121905827D01*
X183702438Y-121905827D02*
X183654819Y-122001065D01*
X183654819Y-122858208D02*
X184464342Y-122858208D01*
X184464342Y-122858208D02*
X184559580Y-122905827D01*
X184559580Y-122905827D02*
X184607200Y-122953446D01*
X184607200Y-122953446D02*
X184654819Y-123048684D01*
X184654819Y-123048684D02*
X184654819Y-123239160D01*
X184654819Y-123239160D02*
X184607200Y-123334398D01*
X184607200Y-123334398D02*
X184559580Y-123382017D01*
X184559580Y-123382017D02*
X184464342Y-123429636D01*
X184464342Y-123429636D02*
X183654819Y-123429636D01*
X183654819Y-123762970D02*
X183654819Y-124334398D01*
X184654819Y-124048684D02*
X183654819Y-124048684D01*
X201720220Y-105533819D02*
X201720220Y-104533819D01*
X201148792Y-105533819D02*
X201577363Y-104962390D01*
X201148792Y-104533819D02*
X201720220Y-105105247D01*
X212689839Y-106502200D02*
X212546982Y-106549819D01*
X212546982Y-106549819D02*
X212308887Y-106549819D01*
X212308887Y-106549819D02*
X212213649Y-106502200D01*
X212213649Y-106502200D02*
X212166030Y-106454580D01*
X212166030Y-106454580D02*
X212118411Y-106359342D01*
X212118411Y-106359342D02*
X212118411Y-106264104D01*
X212118411Y-106264104D02*
X212166030Y-106168866D01*
X212166030Y-106168866D02*
X212213649Y-106121247D01*
X212213649Y-106121247D02*
X212308887Y-106073628D01*
X212308887Y-106073628D02*
X212499363Y-106026009D01*
X212499363Y-106026009D02*
X212594601Y-105978390D01*
X212594601Y-105978390D02*
X212642220Y-105930771D01*
X212642220Y-105930771D02*
X212689839Y-105835533D01*
X212689839Y-105835533D02*
X212689839Y-105740295D01*
X212689839Y-105740295D02*
X212642220Y-105645057D01*
X212642220Y-105645057D02*
X212594601Y-105597438D01*
X212594601Y-105597438D02*
X212499363Y-105549819D01*
X212499363Y-105549819D02*
X212261268Y-105549819D01*
X212261268Y-105549819D02*
X212118411Y-105597438D01*
X211118411Y-106454580D02*
X211166030Y-106502200D01*
X211166030Y-106502200D02*
X211308887Y-106549819D01*
X211308887Y-106549819D02*
X211404125Y-106549819D01*
X211404125Y-106549819D02*
X211546982Y-106502200D01*
X211546982Y-106502200D02*
X211642220Y-106406961D01*
X211642220Y-106406961D02*
X211689839Y-106311723D01*
X211689839Y-106311723D02*
X211737458Y-106121247D01*
X211737458Y-106121247D02*
X211737458Y-105978390D01*
X211737458Y-105978390D02*
X211689839Y-105787914D01*
X211689839Y-105787914D02*
X211642220Y-105692676D01*
X211642220Y-105692676D02*
X211546982Y-105597438D01*
X211546982Y-105597438D02*
X211404125Y-105549819D01*
X211404125Y-105549819D02*
X211308887Y-105549819D01*
X211308887Y-105549819D02*
X211166030Y-105597438D01*
X211166030Y-105597438D02*
X211118411Y-105645057D01*
X210213649Y-106549819D02*
X210689839Y-106549819D01*
X210689839Y-106549819D02*
X210689839Y-105549819D01*
X212537561Y-117376411D02*
X212585180Y-117471649D01*
X212585180Y-117471649D02*
X212585180Y-117614506D01*
X212585180Y-117614506D02*
X212537561Y-117757363D01*
X212537561Y-117757363D02*
X212442323Y-117852601D01*
X212442323Y-117852601D02*
X212347085Y-117900220D01*
X212347085Y-117900220D02*
X212156609Y-117947839D01*
X212156609Y-117947839D02*
X212013752Y-117947839D01*
X212013752Y-117947839D02*
X211823276Y-117900220D01*
X211823276Y-117900220D02*
X211728038Y-117852601D01*
X211728038Y-117852601D02*
X211632800Y-117757363D01*
X211632800Y-117757363D02*
X211585180Y-117614506D01*
X211585180Y-117614506D02*
X211585180Y-117519268D01*
X211585180Y-117519268D02*
X211632800Y-117376411D01*
X211632800Y-117376411D02*
X211680419Y-117328792D01*
X211680419Y-117328792D02*
X212013752Y-117328792D01*
X212013752Y-117328792D02*
X212013752Y-117519268D01*
X211585180Y-116900220D02*
X212585180Y-116900220D01*
X212585180Y-116900220D02*
X211585180Y-116328792D01*
X211585180Y-116328792D02*
X212585180Y-116328792D01*
X211585180Y-115852601D02*
X212585180Y-115852601D01*
X212585180Y-115852601D02*
X212585180Y-115614506D01*
X212585180Y-115614506D02*
X212537561Y-115471649D01*
X212537561Y-115471649D02*
X212442323Y-115376411D01*
X212442323Y-115376411D02*
X212347085Y-115328792D01*
X212347085Y-115328792D02*
X212156609Y-115281173D01*
X212156609Y-115281173D02*
X212013752Y-115281173D01*
X212013752Y-115281173D02*
X211823276Y-115328792D01*
X211823276Y-115328792D02*
X211728038Y-115376411D01*
X211728038Y-115376411D02*
X211632800Y-115471649D01*
X211632800Y-115471649D02*
X211585180Y-115614506D01*
X211585180Y-115614506D02*
X211585180Y-115852601D01*
X142179561Y-117122411D02*
X142227180Y-117217649D01*
X142227180Y-117217649D02*
X142227180Y-117360506D01*
X142227180Y-117360506D02*
X142179561Y-117503363D01*
X142179561Y-117503363D02*
X142084323Y-117598601D01*
X142084323Y-117598601D02*
X141989085Y-117646220D01*
X141989085Y-117646220D02*
X141798609Y-117693839D01*
X141798609Y-117693839D02*
X141655752Y-117693839D01*
X141655752Y-117693839D02*
X141465276Y-117646220D01*
X141465276Y-117646220D02*
X141370038Y-117598601D01*
X141370038Y-117598601D02*
X141274800Y-117503363D01*
X141274800Y-117503363D02*
X141227180Y-117360506D01*
X141227180Y-117360506D02*
X141227180Y-117265268D01*
X141227180Y-117265268D02*
X141274800Y-117122411D01*
X141274800Y-117122411D02*
X141322419Y-117074792D01*
X141322419Y-117074792D02*
X141655752Y-117074792D01*
X141655752Y-117074792D02*
X141655752Y-117265268D01*
X141227180Y-116646220D02*
X142227180Y-116646220D01*
X142227180Y-116646220D02*
X141227180Y-116074792D01*
X141227180Y-116074792D02*
X142227180Y-116074792D01*
X141227180Y-115598601D02*
X142227180Y-115598601D01*
X142227180Y-115598601D02*
X142227180Y-115360506D01*
X142227180Y-115360506D02*
X142179561Y-115217649D01*
X142179561Y-115217649D02*
X142084323Y-115122411D01*
X142084323Y-115122411D02*
X141989085Y-115074792D01*
X141989085Y-115074792D02*
X141798609Y-115027173D01*
X141798609Y-115027173D02*
X141655752Y-115027173D01*
X141655752Y-115027173D02*
X141465276Y-115074792D01*
X141465276Y-115074792D02*
X141370038Y-115122411D01*
X141370038Y-115122411D02*
X141274800Y-115217649D01*
X141274800Y-115217649D02*
X141227180Y-115360506D01*
X141227180Y-115360506D02*
X141227180Y-115598601D01*
X182019580Y-108858207D02*
X182067200Y-108810588D01*
X182067200Y-108810588D02*
X182114819Y-108667731D01*
X182114819Y-108667731D02*
X182114819Y-108572493D01*
X182114819Y-108572493D02*
X182067200Y-108429636D01*
X182067200Y-108429636D02*
X181971961Y-108334398D01*
X181971961Y-108334398D02*
X181876723Y-108286779D01*
X181876723Y-108286779D02*
X181686247Y-108239160D01*
X181686247Y-108239160D02*
X181543390Y-108239160D01*
X181543390Y-108239160D02*
X181352914Y-108286779D01*
X181352914Y-108286779D02*
X181257676Y-108334398D01*
X181257676Y-108334398D02*
X181162438Y-108429636D01*
X181162438Y-108429636D02*
X181114819Y-108572493D01*
X181114819Y-108572493D02*
X181114819Y-108667731D01*
X181114819Y-108667731D02*
X181162438Y-108810588D01*
X181162438Y-108810588D02*
X181210057Y-108858207D01*
X182114819Y-109286779D02*
X181114819Y-109286779D01*
X181114819Y-109286779D02*
X181114819Y-109667731D01*
X181114819Y-109667731D02*
X181162438Y-109762969D01*
X181162438Y-109762969D02*
X181210057Y-109810588D01*
X181210057Y-109810588D02*
X181305295Y-109858207D01*
X181305295Y-109858207D02*
X181448152Y-109858207D01*
X181448152Y-109858207D02*
X181543390Y-109810588D01*
X181543390Y-109810588D02*
X181591009Y-109762969D01*
X181591009Y-109762969D02*
X181638628Y-109667731D01*
X181638628Y-109667731D02*
X181638628Y-109286779D01*
X182114819Y-110286779D02*
X181114819Y-110286779D01*
X181114819Y-110286779D02*
X181114819Y-110667731D01*
X181114819Y-110667731D02*
X181162438Y-110762969D01*
X181162438Y-110762969D02*
X181210057Y-110810588D01*
X181210057Y-110810588D02*
X181305295Y-110858207D01*
X181305295Y-110858207D02*
X181448152Y-110858207D01*
X181448152Y-110858207D02*
X181543390Y-110810588D01*
X181543390Y-110810588D02*
X181591009Y-110762969D01*
X181591009Y-110762969D02*
X181638628Y-110667731D01*
X181638628Y-110667731D02*
X181638628Y-110286779D01*
X182114819Y-111286779D02*
X181114819Y-111286779D01*
X181114819Y-111286779D02*
X181829104Y-111620112D01*
X181829104Y-111620112D02*
X181114819Y-111953445D01*
X181114819Y-111953445D02*
X182114819Y-111953445D01*
X182210057Y-112191541D02*
X182210057Y-112953445D01*
X182114819Y-113191541D02*
X181114819Y-113191541D01*
X182114819Y-113667731D02*
X181114819Y-113667731D01*
X181114819Y-113667731D02*
X182114819Y-114239159D01*
X182114819Y-114239159D02*
X181114819Y-114239159D01*
X209768839Y-106502200D02*
X209625982Y-106549819D01*
X209625982Y-106549819D02*
X209387887Y-106549819D01*
X209387887Y-106549819D02*
X209292649Y-106502200D01*
X209292649Y-106502200D02*
X209245030Y-106454580D01*
X209245030Y-106454580D02*
X209197411Y-106359342D01*
X209197411Y-106359342D02*
X209197411Y-106264104D01*
X209197411Y-106264104D02*
X209245030Y-106168866D01*
X209245030Y-106168866D02*
X209292649Y-106121247D01*
X209292649Y-106121247D02*
X209387887Y-106073628D01*
X209387887Y-106073628D02*
X209578363Y-106026009D01*
X209578363Y-106026009D02*
X209673601Y-105978390D01*
X209673601Y-105978390D02*
X209721220Y-105930771D01*
X209721220Y-105930771D02*
X209768839Y-105835533D01*
X209768839Y-105835533D02*
X209768839Y-105740295D01*
X209768839Y-105740295D02*
X209721220Y-105645057D01*
X209721220Y-105645057D02*
X209673601Y-105597438D01*
X209673601Y-105597438D02*
X209578363Y-105549819D01*
X209578363Y-105549819D02*
X209340268Y-105549819D01*
X209340268Y-105549819D02*
X209197411Y-105597438D01*
X208768839Y-106549819D02*
X208768839Y-105549819D01*
X208768839Y-105549819D02*
X208530744Y-105549819D01*
X208530744Y-105549819D02*
X208387887Y-105597438D01*
X208387887Y-105597438D02*
X208292649Y-105692676D01*
X208292649Y-105692676D02*
X208245030Y-105787914D01*
X208245030Y-105787914D02*
X208197411Y-105978390D01*
X208197411Y-105978390D02*
X208197411Y-106121247D01*
X208197411Y-106121247D02*
X208245030Y-106311723D01*
X208245030Y-106311723D02*
X208292649Y-106406961D01*
X208292649Y-106406961D02*
X208387887Y-106502200D01*
X208387887Y-106502200D02*
X208530744Y-106549819D01*
X208530744Y-106549819D02*
X208768839Y-106549819D01*
X207816458Y-106264104D02*
X207340268Y-106264104D01*
X207911696Y-106549819D02*
X207578363Y-105549819D01*
X207578363Y-105549819D02*
X207245030Y-106549819D01*
X178622438Y-108810588D02*
X178574819Y-108715350D01*
X178574819Y-108715350D02*
X178574819Y-108572493D01*
X178574819Y-108572493D02*
X178622438Y-108429636D01*
X178622438Y-108429636D02*
X178717676Y-108334398D01*
X178717676Y-108334398D02*
X178812914Y-108286779D01*
X178812914Y-108286779D02*
X179003390Y-108239160D01*
X179003390Y-108239160D02*
X179146247Y-108239160D01*
X179146247Y-108239160D02*
X179336723Y-108286779D01*
X179336723Y-108286779D02*
X179431961Y-108334398D01*
X179431961Y-108334398D02*
X179527200Y-108429636D01*
X179527200Y-108429636D02*
X179574819Y-108572493D01*
X179574819Y-108572493D02*
X179574819Y-108667731D01*
X179574819Y-108667731D02*
X179527200Y-108810588D01*
X179527200Y-108810588D02*
X179479580Y-108858207D01*
X179479580Y-108858207D02*
X179146247Y-108858207D01*
X179146247Y-108858207D02*
X179146247Y-108667731D01*
X179574819Y-109286779D02*
X178574819Y-109286779D01*
X178574819Y-109286779D02*
X179574819Y-109858207D01*
X179574819Y-109858207D02*
X178574819Y-109858207D01*
X179574819Y-110334398D02*
X178574819Y-110334398D01*
X178574819Y-110334398D02*
X178574819Y-110572493D01*
X178574819Y-110572493D02*
X178622438Y-110715350D01*
X178622438Y-110715350D02*
X178717676Y-110810588D01*
X178717676Y-110810588D02*
X178812914Y-110858207D01*
X178812914Y-110858207D02*
X179003390Y-110905826D01*
X179003390Y-110905826D02*
X179146247Y-110905826D01*
X179146247Y-110905826D02*
X179336723Y-110858207D01*
X179336723Y-110858207D02*
X179431961Y-110810588D01*
X179431961Y-110810588D02*
X179527200Y-110715350D01*
X179527200Y-110715350D02*
X179574819Y-110572493D01*
X179574819Y-110572493D02*
X179574819Y-110334398D01*
X165906220Y-109216866D02*
X165144316Y-109216866D01*
X165525268Y-109597819D02*
X165525268Y-108835914D01*
X164810982Y-108597819D02*
X164477649Y-109597819D01*
X164477649Y-109597819D02*
X164144316Y-108597819D01*
X163810982Y-109074009D02*
X163477649Y-109074009D01*
X163334792Y-109597819D02*
X163810982Y-109597819D01*
X163810982Y-109597819D02*
X163810982Y-108597819D01*
X163810982Y-108597819D02*
X163334792Y-108597819D01*
X163001458Y-108597819D02*
X162334792Y-109597819D01*
X162334792Y-108597819D02*
X163001458Y-109597819D01*
X162096696Y-108597819D02*
X161525268Y-108597819D01*
X161810982Y-109597819D02*
X161810982Y-108597819D01*
X142227180Y-113868030D02*
X142227180Y-114344220D01*
X142227180Y-114344220D02*
X141750990Y-114391839D01*
X141750990Y-114391839D02*
X141798609Y-114344220D01*
X141798609Y-114344220D02*
X141846228Y-114248982D01*
X141846228Y-114248982D02*
X141846228Y-114010887D01*
X141846228Y-114010887D02*
X141798609Y-113915649D01*
X141798609Y-113915649D02*
X141750990Y-113868030D01*
X141750990Y-113868030D02*
X141655752Y-113820411D01*
X141655752Y-113820411D02*
X141417657Y-113820411D01*
X141417657Y-113820411D02*
X141322419Y-113868030D01*
X141322419Y-113868030D02*
X141274800Y-113915649D01*
X141274800Y-113915649D02*
X141227180Y-114010887D01*
X141227180Y-114010887D02*
X141227180Y-114248982D01*
X141227180Y-114248982D02*
X141274800Y-114344220D01*
X141274800Y-114344220D02*
X141322419Y-114391839D01*
X142227180Y-113534696D02*
X141227180Y-113201363D01*
X141227180Y-113201363D02*
X142227180Y-112868030D01*
X209514839Y-130886200D02*
X209371982Y-130933819D01*
X209371982Y-130933819D02*
X209133887Y-130933819D01*
X209133887Y-130933819D02*
X209038649Y-130886200D01*
X209038649Y-130886200D02*
X208991030Y-130838580D01*
X208991030Y-130838580D02*
X208943411Y-130743342D01*
X208943411Y-130743342D02*
X208943411Y-130648104D01*
X208943411Y-130648104D02*
X208991030Y-130552866D01*
X208991030Y-130552866D02*
X209038649Y-130505247D01*
X209038649Y-130505247D02*
X209133887Y-130457628D01*
X209133887Y-130457628D02*
X209324363Y-130410009D01*
X209324363Y-130410009D02*
X209419601Y-130362390D01*
X209419601Y-130362390D02*
X209467220Y-130314771D01*
X209467220Y-130314771D02*
X209514839Y-130219533D01*
X209514839Y-130219533D02*
X209514839Y-130124295D01*
X209514839Y-130124295D02*
X209467220Y-130029057D01*
X209467220Y-130029057D02*
X209419601Y-129981438D01*
X209419601Y-129981438D02*
X209324363Y-129933819D01*
X209324363Y-129933819D02*
X209086268Y-129933819D01*
X209086268Y-129933819D02*
X208943411Y-129981438D01*
X208514839Y-130933819D02*
X208514839Y-129933819D01*
X208514839Y-129933819D02*
X208276744Y-129933819D01*
X208276744Y-129933819D02*
X208133887Y-129981438D01*
X208133887Y-129981438D02*
X208038649Y-130076676D01*
X208038649Y-130076676D02*
X207991030Y-130171914D01*
X207991030Y-130171914D02*
X207943411Y-130362390D01*
X207943411Y-130362390D02*
X207943411Y-130505247D01*
X207943411Y-130505247D02*
X207991030Y-130695723D01*
X207991030Y-130695723D02*
X208038649Y-130790961D01*
X208038649Y-130790961D02*
X208133887Y-130886200D01*
X208133887Y-130886200D02*
X208276744Y-130933819D01*
X208276744Y-130933819D02*
X208514839Y-130933819D01*
X207562458Y-130648104D02*
X207086268Y-130648104D01*
X207657696Y-130933819D02*
X207324363Y-129933819D01*
X207324363Y-129933819D02*
X206991030Y-130933819D01*
X217579411Y-105597438D02*
X217674649Y-105549819D01*
X217674649Y-105549819D02*
X217817506Y-105549819D01*
X217817506Y-105549819D02*
X217960363Y-105597438D01*
X217960363Y-105597438D02*
X218055601Y-105692676D01*
X218055601Y-105692676D02*
X218103220Y-105787914D01*
X218103220Y-105787914D02*
X218150839Y-105978390D01*
X218150839Y-105978390D02*
X218150839Y-106121247D01*
X218150839Y-106121247D02*
X218103220Y-106311723D01*
X218103220Y-106311723D02*
X218055601Y-106406961D01*
X218055601Y-106406961D02*
X217960363Y-106502200D01*
X217960363Y-106502200D02*
X217817506Y-106549819D01*
X217817506Y-106549819D02*
X217722268Y-106549819D01*
X217722268Y-106549819D02*
X217579411Y-106502200D01*
X217579411Y-106502200D02*
X217531792Y-106454580D01*
X217531792Y-106454580D02*
X217531792Y-106121247D01*
X217531792Y-106121247D02*
X217722268Y-106121247D01*
X217103220Y-106549819D02*
X217103220Y-105549819D01*
X217103220Y-105549819D02*
X216531792Y-106549819D01*
X216531792Y-106549819D02*
X216531792Y-105549819D01*
X216055601Y-106549819D02*
X216055601Y-105549819D01*
X216055601Y-105549819D02*
X215817506Y-105549819D01*
X215817506Y-105549819D02*
X215674649Y-105597438D01*
X215674649Y-105597438D02*
X215579411Y-105692676D01*
X215579411Y-105692676D02*
X215531792Y-105787914D01*
X215531792Y-105787914D02*
X215484173Y-105978390D01*
X215484173Y-105978390D02*
X215484173Y-106121247D01*
X215484173Y-106121247D02*
X215531792Y-106311723D01*
X215531792Y-106311723D02*
X215579411Y-106406961D01*
X215579411Y-106406961D02*
X215674649Y-106502200D01*
X215674649Y-106502200D02*
X215817506Y-106549819D01*
X215817506Y-106549819D02*
X216055601Y-106549819D01*
X177987077Y-107962819D02*
X177653744Y-108962819D01*
X177653744Y-108962819D02*
X177320411Y-107962819D01*
X176987077Y-108439009D02*
X176653744Y-108439009D01*
X176510887Y-108962819D02*
X176987077Y-108962819D01*
X176987077Y-108962819D02*
X176987077Y-107962819D01*
X176987077Y-107962819D02*
X176510887Y-107962819D01*
X176177553Y-107962819D02*
X175510887Y-108962819D01*
X175510887Y-107962819D02*
X176177553Y-108962819D01*
X175272791Y-107962819D02*
X174701363Y-107962819D01*
X174987077Y-108962819D02*
X174987077Y-107962819D01*
X211632800Y-109565839D02*
X211585180Y-109422982D01*
X211585180Y-109422982D02*
X211585180Y-109184887D01*
X211585180Y-109184887D02*
X211632800Y-109089649D01*
X211632800Y-109089649D02*
X211680419Y-109042030D01*
X211680419Y-109042030D02*
X211775657Y-108994411D01*
X211775657Y-108994411D02*
X211870895Y-108994411D01*
X211870895Y-108994411D02*
X211966133Y-109042030D01*
X211966133Y-109042030D02*
X212013752Y-109089649D01*
X212013752Y-109089649D02*
X212061371Y-109184887D01*
X212061371Y-109184887D02*
X212108990Y-109375363D01*
X212108990Y-109375363D02*
X212156609Y-109470601D01*
X212156609Y-109470601D02*
X212204228Y-109518220D01*
X212204228Y-109518220D02*
X212299466Y-109565839D01*
X212299466Y-109565839D02*
X212394704Y-109565839D01*
X212394704Y-109565839D02*
X212489942Y-109518220D01*
X212489942Y-109518220D02*
X212537561Y-109470601D01*
X212537561Y-109470601D02*
X212585180Y-109375363D01*
X212585180Y-109375363D02*
X212585180Y-109137268D01*
X212585180Y-109137268D02*
X212537561Y-108994411D01*
X211585180Y-108565839D02*
X212585180Y-108565839D01*
X212585180Y-108565839D02*
X212585180Y-108327744D01*
X212585180Y-108327744D02*
X212537561Y-108184887D01*
X212537561Y-108184887D02*
X212442323Y-108089649D01*
X212442323Y-108089649D02*
X212347085Y-108042030D01*
X212347085Y-108042030D02*
X212156609Y-107994411D01*
X212156609Y-107994411D02*
X212013752Y-107994411D01*
X212013752Y-107994411D02*
X211823276Y-108042030D01*
X211823276Y-108042030D02*
X211728038Y-108089649D01*
X211728038Y-108089649D02*
X211632800Y-108184887D01*
X211632800Y-108184887D02*
X211585180Y-108327744D01*
X211585180Y-108327744D02*
X211585180Y-108565839D01*
X211870895Y-107613458D02*
X211870895Y-107137268D01*
X211585180Y-107708696D02*
X212585180Y-107375363D01*
X212585180Y-107375363D02*
X211585180Y-107042030D01*
D10*
X155804285Y-103919794D02*
X155589999Y-103991222D01*
X155589999Y-103991222D02*
X155518570Y-104062651D01*
X155518570Y-104062651D02*
X155447142Y-104205508D01*
X155447142Y-104205508D02*
X155447142Y-104419794D01*
X155447142Y-104419794D02*
X155518570Y-104562651D01*
X155518570Y-104562651D02*
X155589999Y-104634080D01*
X155589999Y-104634080D02*
X155732856Y-104705508D01*
X155732856Y-104705508D02*
X156304285Y-104705508D01*
X156304285Y-104705508D02*
X156304285Y-103205508D01*
X156304285Y-103205508D02*
X155804285Y-103205508D01*
X155804285Y-103205508D02*
X155661428Y-103276937D01*
X155661428Y-103276937D02*
X155589999Y-103348365D01*
X155589999Y-103348365D02*
X155518570Y-103491222D01*
X155518570Y-103491222D02*
X155518570Y-103634080D01*
X155518570Y-103634080D02*
X155589999Y-103776937D01*
X155589999Y-103776937D02*
X155661428Y-103848365D01*
X155661428Y-103848365D02*
X155804285Y-103919794D01*
X155804285Y-103919794D02*
X156304285Y-103919794D01*
X154804285Y-103205508D02*
X154804285Y-104419794D01*
X154804285Y-104419794D02*
X154732856Y-104562651D01*
X154732856Y-104562651D02*
X154661428Y-104634080D01*
X154661428Y-104634080D02*
X154518570Y-104705508D01*
X154518570Y-104705508D02*
X154232856Y-104705508D01*
X154232856Y-104705508D02*
X154089999Y-104634080D01*
X154089999Y-104634080D02*
X154018570Y-104562651D01*
X154018570Y-104562651D02*
X153947142Y-104419794D01*
X153947142Y-104419794D02*
X153947142Y-103205508D01*
X152375713Y-104705508D02*
X152875713Y-103991222D01*
X153232856Y-104705508D02*
X153232856Y-103205508D01*
X153232856Y-103205508D02*
X152661427Y-103205508D01*
X152661427Y-103205508D02*
X152518570Y-103276937D01*
X152518570Y-103276937D02*
X152447141Y-103348365D01*
X152447141Y-103348365D02*
X152375713Y-103491222D01*
X152375713Y-103491222D02*
X152375713Y-103705508D01*
X152375713Y-103705508D02*
X152447141Y-103848365D01*
X152447141Y-103848365D02*
X152518570Y-103919794D01*
X152518570Y-103919794D02*
X152661427Y-103991222D01*
X152661427Y-103991222D02*
X153232856Y-103991222D01*
X150875713Y-104562651D02*
X150947141Y-104634080D01*
X150947141Y-104634080D02*
X151161427Y-104705508D01*
X151161427Y-104705508D02*
X151304284Y-104705508D01*
X151304284Y-104705508D02*
X151518570Y-104634080D01*
X151518570Y-104634080D02*
X151661427Y-104491222D01*
X151661427Y-104491222D02*
X151732856Y-104348365D01*
X151732856Y-104348365D02*
X151804284Y-104062651D01*
X151804284Y-104062651D02*
X151804284Y-103848365D01*
X151804284Y-103848365D02*
X151732856Y-103562651D01*
X151732856Y-103562651D02*
X151661427Y-103419794D01*
X151661427Y-103419794D02*
X151518570Y-103276937D01*
X151518570Y-103276937D02*
X151304284Y-103205508D01*
X151304284Y-103205508D02*
X151161427Y-103205508D01*
X151161427Y-103205508D02*
X150947141Y-103276937D01*
X150947141Y-103276937D02*
X150875713Y-103348365D01*
X149089999Y-103919794D02*
X148589999Y-103919794D01*
X148375713Y-104705508D02*
X149089999Y-104705508D01*
X149089999Y-104705508D02*
X149089999Y-103205508D01*
X149089999Y-103205508D02*
X148375713Y-103205508D01*
X147732856Y-103705508D02*
X147732856Y-104705508D01*
X147732856Y-103848365D02*
X147661427Y-103776937D01*
X147661427Y-103776937D02*
X147518570Y-103705508D01*
X147518570Y-103705508D02*
X147304284Y-103705508D01*
X147304284Y-103705508D02*
X147161427Y-103776937D01*
X147161427Y-103776937D02*
X147089999Y-103919794D01*
X147089999Y-103919794D02*
X147089999Y-104705508D01*
X145732856Y-104634080D02*
X145875713Y-104705508D01*
X145875713Y-104705508D02*
X146161427Y-104705508D01*
X146161427Y-104705508D02*
X146304284Y-104634080D01*
X146304284Y-104634080D02*
X146375713Y-104562651D01*
X146375713Y-104562651D02*
X146447141Y-104419794D01*
X146447141Y-104419794D02*
X146447141Y-103991222D01*
X146447141Y-103991222D02*
X146375713Y-103848365D01*
X146375713Y-103848365D02*
X146304284Y-103776937D01*
X146304284Y-103776937D02*
X146161427Y-103705508D01*
X146161427Y-103705508D02*
X145875713Y-103705508D01*
X145875713Y-103705508D02*
X145732856Y-103776937D01*
X144875713Y-104705508D02*
X145018570Y-104634080D01*
X145018570Y-104634080D02*
X145089999Y-104562651D01*
X145089999Y-104562651D02*
X145161427Y-104419794D01*
X145161427Y-104419794D02*
X145161427Y-103991222D01*
X145161427Y-103991222D02*
X145089999Y-103848365D01*
X145089999Y-103848365D02*
X145018570Y-103776937D01*
X145018570Y-103776937D02*
X144875713Y-103705508D01*
X144875713Y-103705508D02*
X144661427Y-103705508D01*
X144661427Y-103705508D02*
X144518570Y-103776937D01*
X144518570Y-103776937D02*
X144447142Y-103848365D01*
X144447142Y-103848365D02*
X144375713Y-103991222D01*
X144375713Y-103991222D02*
X144375713Y-104419794D01*
X144375713Y-104419794D02*
X144447142Y-104562651D01*
X144447142Y-104562651D02*
X144518570Y-104634080D01*
X144518570Y-104634080D02*
X144661427Y-104705508D01*
X144661427Y-104705508D02*
X144875713Y-104705508D01*
X143089999Y-104705508D02*
X143089999Y-103205508D01*
X143089999Y-104634080D02*
X143232856Y-104705508D01*
X143232856Y-104705508D02*
X143518570Y-104705508D01*
X143518570Y-104705508D02*
X143661427Y-104634080D01*
X143661427Y-104634080D02*
X143732856Y-104562651D01*
X143732856Y-104562651D02*
X143804284Y-104419794D01*
X143804284Y-104419794D02*
X143804284Y-103991222D01*
X143804284Y-103991222D02*
X143732856Y-103848365D01*
X143732856Y-103848365D02*
X143661427Y-103776937D01*
X143661427Y-103776937D02*
X143518570Y-103705508D01*
X143518570Y-103705508D02*
X143232856Y-103705508D01*
X143232856Y-103705508D02*
X143089999Y-103776937D01*
X141804284Y-104634080D02*
X141947141Y-104705508D01*
X141947141Y-104705508D02*
X142232856Y-104705508D01*
X142232856Y-104705508D02*
X142375713Y-104634080D01*
X142375713Y-104634080D02*
X142447141Y-104491222D01*
X142447141Y-104491222D02*
X142447141Y-103919794D01*
X142447141Y-103919794D02*
X142375713Y-103776937D01*
X142375713Y-103776937D02*
X142232856Y-103705508D01*
X142232856Y-103705508D02*
X141947141Y-103705508D01*
X141947141Y-103705508D02*
X141804284Y-103776937D01*
X141804284Y-103776937D02*
X141732856Y-103919794D01*
X141732856Y-103919794D02*
X141732856Y-104062651D01*
X141732856Y-104062651D02*
X142447141Y-104205508D01*
X141089999Y-104705508D02*
X141089999Y-103705508D01*
X141089999Y-103991222D02*
X141018570Y-103848365D01*
X141018570Y-103848365D02*
X140947142Y-103776937D01*
X140947142Y-103776937D02*
X140804284Y-103705508D01*
X140804284Y-103705508D02*
X140661427Y-103705508D01*
X150875713Y-105620508D02*
X150375713Y-107120508D01*
X150375713Y-107120508D02*
X149875713Y-105620508D01*
X148589999Y-107120508D02*
X149447142Y-107120508D01*
X149018571Y-107120508D02*
X149018571Y-105620508D01*
X149018571Y-105620508D02*
X149161428Y-105834794D01*
X149161428Y-105834794D02*
X149304285Y-105977651D01*
X149304285Y-105977651D02*
X149447142Y-106049080D01*
X147947143Y-106977651D02*
X147875714Y-107049080D01*
X147875714Y-107049080D02*
X147947143Y-107120508D01*
X147947143Y-107120508D02*
X148018571Y-107049080D01*
X148018571Y-107049080D02*
X147947143Y-106977651D01*
X147947143Y-106977651D02*
X147947143Y-107120508D01*
X146947142Y-105620508D02*
X146804285Y-105620508D01*
X146804285Y-105620508D02*
X146661428Y-105691937D01*
X146661428Y-105691937D02*
X146590000Y-105763365D01*
X146590000Y-105763365D02*
X146518571Y-105906222D01*
X146518571Y-105906222D02*
X146447142Y-106191937D01*
X146447142Y-106191937D02*
X146447142Y-106549080D01*
X146447142Y-106549080D02*
X146518571Y-106834794D01*
X146518571Y-106834794D02*
X146590000Y-106977651D01*
X146590000Y-106977651D02*
X146661428Y-107049080D01*
X146661428Y-107049080D02*
X146804285Y-107120508D01*
X146804285Y-107120508D02*
X146947142Y-107120508D01*
X146947142Y-107120508D02*
X147090000Y-107049080D01*
X147090000Y-107049080D02*
X147161428Y-106977651D01*
X147161428Y-106977651D02*
X147232857Y-106834794D01*
X147232857Y-106834794D02*
X147304285Y-106549080D01*
X147304285Y-106549080D02*
X147304285Y-106191937D01*
X147304285Y-106191937D02*
X147232857Y-105906222D01*
X147232857Y-105906222D02*
X147161428Y-105763365D01*
X147161428Y-105763365D02*
X147090000Y-105691937D01*
X147090000Y-105691937D02*
X146947142Y-105620508D01*
D12*
X141274800Y-112232839D02*
X141227180Y-112089982D01*
X141227180Y-112089982D02*
X141227180Y-111851887D01*
X141227180Y-111851887D02*
X141274800Y-111756649D01*
X141274800Y-111756649D02*
X141322419Y-111709030D01*
X141322419Y-111709030D02*
X141417657Y-111661411D01*
X141417657Y-111661411D02*
X141512895Y-111661411D01*
X141512895Y-111661411D02*
X141608133Y-111709030D01*
X141608133Y-111709030D02*
X141655752Y-111756649D01*
X141655752Y-111756649D02*
X141703371Y-111851887D01*
X141703371Y-111851887D02*
X141750990Y-112042363D01*
X141750990Y-112042363D02*
X141798609Y-112137601D01*
X141798609Y-112137601D02*
X141846228Y-112185220D01*
X141846228Y-112185220D02*
X141941466Y-112232839D01*
X141941466Y-112232839D02*
X142036704Y-112232839D01*
X142036704Y-112232839D02*
X142131942Y-112185220D01*
X142131942Y-112185220D02*
X142179561Y-112137601D01*
X142179561Y-112137601D02*
X142227180Y-112042363D01*
X142227180Y-112042363D02*
X142227180Y-111804268D01*
X142227180Y-111804268D02*
X142179561Y-111661411D01*
X141322419Y-110661411D02*
X141274800Y-110709030D01*
X141274800Y-110709030D02*
X141227180Y-110851887D01*
X141227180Y-110851887D02*
X141227180Y-110947125D01*
X141227180Y-110947125D02*
X141274800Y-111089982D01*
X141274800Y-111089982D02*
X141370038Y-111185220D01*
X141370038Y-111185220D02*
X141465276Y-111232839D01*
X141465276Y-111232839D02*
X141655752Y-111280458D01*
X141655752Y-111280458D02*
X141798609Y-111280458D01*
X141798609Y-111280458D02*
X141989085Y-111232839D01*
X141989085Y-111232839D02*
X142084323Y-111185220D01*
X142084323Y-111185220D02*
X142179561Y-111089982D01*
X142179561Y-111089982D02*
X142227180Y-110947125D01*
X142227180Y-110947125D02*
X142227180Y-110851887D01*
X142227180Y-110851887D02*
X142179561Y-110709030D01*
X142179561Y-110709030D02*
X142131942Y-110661411D01*
X141227180Y-109756649D02*
X141227180Y-110232839D01*
X141227180Y-110232839D02*
X142227180Y-110232839D01*
X141274800Y-109311839D02*
X141227180Y-109168982D01*
X141227180Y-109168982D02*
X141227180Y-108930887D01*
X141227180Y-108930887D02*
X141274800Y-108835649D01*
X141274800Y-108835649D02*
X141322419Y-108788030D01*
X141322419Y-108788030D02*
X141417657Y-108740411D01*
X141417657Y-108740411D02*
X141512895Y-108740411D01*
X141512895Y-108740411D02*
X141608133Y-108788030D01*
X141608133Y-108788030D02*
X141655752Y-108835649D01*
X141655752Y-108835649D02*
X141703371Y-108930887D01*
X141703371Y-108930887D02*
X141750990Y-109121363D01*
X141750990Y-109121363D02*
X141798609Y-109216601D01*
X141798609Y-109216601D02*
X141846228Y-109264220D01*
X141846228Y-109264220D02*
X141941466Y-109311839D01*
X141941466Y-109311839D02*
X142036704Y-109311839D01*
X142036704Y-109311839D02*
X142131942Y-109264220D01*
X142131942Y-109264220D02*
X142179561Y-109216601D01*
X142179561Y-109216601D02*
X142227180Y-109121363D01*
X142227180Y-109121363D02*
X142227180Y-108883268D01*
X142227180Y-108883268D02*
X142179561Y-108740411D01*
X141227180Y-108311839D02*
X142227180Y-108311839D01*
X142227180Y-108311839D02*
X142227180Y-108073744D01*
X142227180Y-108073744D02*
X142179561Y-107930887D01*
X142179561Y-107930887D02*
X142084323Y-107835649D01*
X142084323Y-107835649D02*
X141989085Y-107788030D01*
X141989085Y-107788030D02*
X141798609Y-107740411D01*
X141798609Y-107740411D02*
X141655752Y-107740411D01*
X141655752Y-107740411D02*
X141465276Y-107788030D01*
X141465276Y-107788030D02*
X141370038Y-107835649D01*
X141370038Y-107835649D02*
X141274800Y-107930887D01*
X141274800Y-107930887D02*
X141227180Y-108073744D01*
X141227180Y-108073744D02*
X141227180Y-108311839D01*
X141512895Y-107359458D02*
X141512895Y-106883268D01*
X141227180Y-107454696D02*
X142227180Y-107121363D01*
X142227180Y-107121363D02*
X141227180Y-106788030D01*
X217325411Y-129981438D02*
X217420649Y-129933819D01*
X217420649Y-129933819D02*
X217563506Y-129933819D01*
X217563506Y-129933819D02*
X217706363Y-129981438D01*
X217706363Y-129981438D02*
X217801601Y-130076676D01*
X217801601Y-130076676D02*
X217849220Y-130171914D01*
X217849220Y-130171914D02*
X217896839Y-130362390D01*
X217896839Y-130362390D02*
X217896839Y-130505247D01*
X217896839Y-130505247D02*
X217849220Y-130695723D01*
X217849220Y-130695723D02*
X217801601Y-130790961D01*
X217801601Y-130790961D02*
X217706363Y-130886200D01*
X217706363Y-130886200D02*
X217563506Y-130933819D01*
X217563506Y-130933819D02*
X217468268Y-130933819D01*
X217468268Y-130933819D02*
X217325411Y-130886200D01*
X217325411Y-130886200D02*
X217277792Y-130838580D01*
X217277792Y-130838580D02*
X217277792Y-130505247D01*
X217277792Y-130505247D02*
X217468268Y-130505247D01*
X216849220Y-130933819D02*
X216849220Y-129933819D01*
X216849220Y-129933819D02*
X216277792Y-130933819D01*
X216277792Y-130933819D02*
X216277792Y-129933819D01*
X215801601Y-130933819D02*
X215801601Y-129933819D01*
X215801601Y-129933819D02*
X215563506Y-129933819D01*
X215563506Y-129933819D02*
X215420649Y-129981438D01*
X215420649Y-129981438D02*
X215325411Y-130076676D01*
X215325411Y-130076676D02*
X215277792Y-130171914D01*
X215277792Y-130171914D02*
X215230173Y-130362390D01*
X215230173Y-130362390D02*
X215230173Y-130505247D01*
X215230173Y-130505247D02*
X215277792Y-130695723D01*
X215277792Y-130695723D02*
X215325411Y-130790961D01*
X215325411Y-130790961D02*
X215420649Y-130886200D01*
X215420649Y-130886200D02*
X215563506Y-130933819D01*
X215563506Y-130933819D02*
X215801601Y-130933819D01*
D10*
X156697142Y-101865937D02*
X155982857Y-101865937D01*
X156839999Y-102294508D02*
X156339999Y-100794508D01*
X156339999Y-100794508D02*
X155839999Y-102294508D01*
X155340000Y-101294508D02*
X155340000Y-102294508D01*
X155340000Y-101437365D02*
X155268571Y-101365937D01*
X155268571Y-101365937D02*
X155125714Y-101294508D01*
X155125714Y-101294508D02*
X154911428Y-101294508D01*
X154911428Y-101294508D02*
X154768571Y-101365937D01*
X154768571Y-101365937D02*
X154697143Y-101508794D01*
X154697143Y-101508794D02*
X154697143Y-102294508D01*
X153340000Y-101294508D02*
X153340000Y-102508794D01*
X153340000Y-102508794D02*
X153411428Y-102651651D01*
X153411428Y-102651651D02*
X153482857Y-102723080D01*
X153482857Y-102723080D02*
X153625714Y-102794508D01*
X153625714Y-102794508D02*
X153840000Y-102794508D01*
X153840000Y-102794508D02*
X153982857Y-102723080D01*
X153340000Y-102223080D02*
X153482857Y-102294508D01*
X153482857Y-102294508D02*
X153768571Y-102294508D01*
X153768571Y-102294508D02*
X153911428Y-102223080D01*
X153911428Y-102223080D02*
X153982857Y-102151651D01*
X153982857Y-102151651D02*
X154054285Y-102008794D01*
X154054285Y-102008794D02*
X154054285Y-101580222D01*
X154054285Y-101580222D02*
X153982857Y-101437365D01*
X153982857Y-101437365D02*
X153911428Y-101365937D01*
X153911428Y-101365937D02*
X153768571Y-101294508D01*
X153768571Y-101294508D02*
X153482857Y-101294508D01*
X153482857Y-101294508D02*
X153340000Y-101365937D01*
X152411428Y-102294508D02*
X152554285Y-102223080D01*
X152554285Y-102223080D02*
X152625714Y-102080222D01*
X152625714Y-102080222D02*
X152625714Y-100794508D01*
X151268571Y-102223080D02*
X151411428Y-102294508D01*
X151411428Y-102294508D02*
X151697143Y-102294508D01*
X151697143Y-102294508D02*
X151840000Y-102223080D01*
X151840000Y-102223080D02*
X151911428Y-102080222D01*
X151911428Y-102080222D02*
X151911428Y-101508794D01*
X151911428Y-101508794D02*
X151840000Y-101365937D01*
X151840000Y-101365937D02*
X151697143Y-101294508D01*
X151697143Y-101294508D02*
X151411428Y-101294508D01*
X151411428Y-101294508D02*
X151268571Y-101365937D01*
X151268571Y-101365937D02*
X151197143Y-101508794D01*
X151197143Y-101508794D02*
X151197143Y-101651651D01*
X151197143Y-101651651D02*
X151911428Y-101794508D01*
X149340000Y-102294508D02*
X149411429Y-102294508D01*
X149411429Y-102294508D02*
X149554286Y-102223080D01*
X149554286Y-102223080D02*
X149768571Y-102008794D01*
X149768571Y-102008794D02*
X150125714Y-101580222D01*
X150125714Y-101580222D02*
X150268571Y-101365937D01*
X150268571Y-101365937D02*
X150340000Y-101151651D01*
X150340000Y-101151651D02*
X150340000Y-101008794D01*
X150340000Y-101008794D02*
X150268571Y-100865937D01*
X150268571Y-100865937D02*
X150125714Y-100794508D01*
X150125714Y-100794508D02*
X150054286Y-100794508D01*
X150054286Y-100794508D02*
X149911429Y-100865937D01*
X149911429Y-100865937D02*
X149840000Y-101008794D01*
X149840000Y-101008794D02*
X149840000Y-101080222D01*
X149840000Y-101080222D02*
X149911429Y-101223080D01*
X149911429Y-101223080D02*
X149982857Y-101294508D01*
X149982857Y-101294508D02*
X150411429Y-101580222D01*
X150411429Y-101580222D02*
X150482857Y-101651651D01*
X150482857Y-101651651D02*
X150554286Y-101794508D01*
X150554286Y-101794508D02*
X150554286Y-102008794D01*
X150554286Y-102008794D02*
X150482857Y-102151651D01*
X150482857Y-102151651D02*
X150411429Y-102223080D01*
X150411429Y-102223080D02*
X150268571Y-102294508D01*
X150268571Y-102294508D02*
X150054286Y-102294508D01*
X150054286Y-102294508D02*
X149911429Y-102223080D01*
X149911429Y-102223080D02*
X149840000Y-102151651D01*
X149840000Y-102151651D02*
X149625714Y-101865937D01*
X149625714Y-101865937D02*
X149554286Y-101651651D01*
X149554286Y-101651651D02*
X149554286Y-101508794D01*
X148768571Y-101865937D02*
X148054286Y-101865937D01*
X148911428Y-102294508D02*
X148411428Y-100794508D01*
X148411428Y-100794508D02*
X147911428Y-102294508D01*
X147411429Y-101294508D02*
X147411429Y-102294508D01*
X147411429Y-101437365D02*
X147340000Y-101365937D01*
X147340000Y-101365937D02*
X147197143Y-101294508D01*
X147197143Y-101294508D02*
X146982857Y-101294508D01*
X146982857Y-101294508D02*
X146840000Y-101365937D01*
X146840000Y-101365937D02*
X146768572Y-101508794D01*
X146768572Y-101508794D02*
X146768572Y-102294508D01*
X145411429Y-102294508D02*
X145411429Y-101508794D01*
X145411429Y-101508794D02*
X145482857Y-101365937D01*
X145482857Y-101365937D02*
X145625714Y-101294508D01*
X145625714Y-101294508D02*
X145911429Y-101294508D01*
X145911429Y-101294508D02*
X146054286Y-101365937D01*
X145411429Y-102223080D02*
X145554286Y-102294508D01*
X145554286Y-102294508D02*
X145911429Y-102294508D01*
X145911429Y-102294508D02*
X146054286Y-102223080D01*
X146054286Y-102223080D02*
X146125714Y-102080222D01*
X146125714Y-102080222D02*
X146125714Y-101937365D01*
X146125714Y-101937365D02*
X146054286Y-101794508D01*
X146054286Y-101794508D02*
X145911429Y-101723080D01*
X145911429Y-101723080D02*
X145554286Y-101723080D01*
X145554286Y-101723080D02*
X145411429Y-101651651D01*
X143482857Y-102294508D02*
X143554286Y-102294508D01*
X143554286Y-102294508D02*
X143697143Y-102223080D01*
X143697143Y-102223080D02*
X143911428Y-102008794D01*
X143911428Y-102008794D02*
X144268571Y-101580222D01*
X144268571Y-101580222D02*
X144411428Y-101365937D01*
X144411428Y-101365937D02*
X144482857Y-101151651D01*
X144482857Y-101151651D02*
X144482857Y-101008794D01*
X144482857Y-101008794D02*
X144411428Y-100865937D01*
X144411428Y-100865937D02*
X144268571Y-100794508D01*
X144268571Y-100794508D02*
X144197143Y-100794508D01*
X144197143Y-100794508D02*
X144054286Y-100865937D01*
X144054286Y-100865937D02*
X143982857Y-101008794D01*
X143982857Y-101008794D02*
X143982857Y-101080222D01*
X143982857Y-101080222D02*
X144054286Y-101223080D01*
X144054286Y-101223080D02*
X144125714Y-101294508D01*
X144125714Y-101294508D02*
X144554286Y-101580222D01*
X144554286Y-101580222D02*
X144625714Y-101651651D01*
X144625714Y-101651651D02*
X144697143Y-101794508D01*
X144697143Y-101794508D02*
X144697143Y-102008794D01*
X144697143Y-102008794D02*
X144625714Y-102151651D01*
X144625714Y-102151651D02*
X144554286Y-102223080D01*
X144554286Y-102223080D02*
X144411428Y-102294508D01*
X144411428Y-102294508D02*
X144197143Y-102294508D01*
X144197143Y-102294508D02*
X144054286Y-102223080D01*
X144054286Y-102223080D02*
X143982857Y-102151651D01*
X143982857Y-102151651D02*
X143768571Y-101865937D01*
X143768571Y-101865937D02*
X143697143Y-101651651D01*
X143697143Y-101651651D02*
X143697143Y-101508794D01*
X142911428Y-102223080D02*
X142697143Y-102294508D01*
X142697143Y-102294508D02*
X142340000Y-102294508D01*
X142340000Y-102294508D02*
X142197143Y-102223080D01*
X142197143Y-102223080D02*
X142125714Y-102151651D01*
X142125714Y-102151651D02*
X142054285Y-102008794D01*
X142054285Y-102008794D02*
X142054285Y-101865937D01*
X142054285Y-101865937D02*
X142125714Y-101723080D01*
X142125714Y-101723080D02*
X142197143Y-101651651D01*
X142197143Y-101651651D02*
X142340000Y-101580222D01*
X142340000Y-101580222D02*
X142625714Y-101508794D01*
X142625714Y-101508794D02*
X142768571Y-101437365D01*
X142768571Y-101437365D02*
X142840000Y-101365937D01*
X142840000Y-101365937D02*
X142911428Y-101223080D01*
X142911428Y-101223080D02*
X142911428Y-101080222D01*
X142911428Y-101080222D02*
X142840000Y-100937365D01*
X142840000Y-100937365D02*
X142768571Y-100865937D01*
X142768571Y-100865937D02*
X142625714Y-100794508D01*
X142625714Y-100794508D02*
X142268571Y-100794508D01*
X142268571Y-100794508D02*
X142054285Y-100865937D01*
X141554286Y-101294508D02*
X141268572Y-102294508D01*
X141268572Y-102294508D02*
X140982857Y-101580222D01*
X140982857Y-101580222D02*
X140697143Y-102294508D01*
X140697143Y-102294508D02*
X140411429Y-101294508D01*
D12*
X140287333Y-118072819D02*
X140287333Y-118787104D01*
X140287333Y-118787104D02*
X140334952Y-118929961D01*
X140334952Y-118929961D02*
X140430190Y-119025200D01*
X140430190Y-119025200D02*
X140573047Y-119072819D01*
X140573047Y-119072819D02*
X140668285Y-119072819D01*
X139906380Y-118072819D02*
X139239714Y-118072819D01*
X139239714Y-118072819D02*
X139668285Y-119072819D01*
X193841666Y-124057580D02*
X193889285Y-124105200D01*
X193889285Y-124105200D02*
X194032142Y-124152819D01*
X194032142Y-124152819D02*
X194127380Y-124152819D01*
X194127380Y-124152819D02*
X194270237Y-124105200D01*
X194270237Y-124105200D02*
X194365475Y-124009961D01*
X194365475Y-124009961D02*
X194413094Y-123914723D01*
X194413094Y-123914723D02*
X194460713Y-123724247D01*
X194460713Y-123724247D02*
X194460713Y-123581390D01*
X194460713Y-123581390D02*
X194413094Y-123390914D01*
X194413094Y-123390914D02*
X194365475Y-123295676D01*
X194365475Y-123295676D02*
X194270237Y-123200438D01*
X194270237Y-123200438D02*
X194127380Y-123152819D01*
X194127380Y-123152819D02*
X194032142Y-123152819D01*
X194032142Y-123152819D02*
X193889285Y-123200438D01*
X193889285Y-123200438D02*
X193841666Y-123248057D01*
X193460713Y-123248057D02*
X193413094Y-123200438D01*
X193413094Y-123200438D02*
X193317856Y-123152819D01*
X193317856Y-123152819D02*
X193079761Y-123152819D01*
X193079761Y-123152819D02*
X192984523Y-123200438D01*
X192984523Y-123200438D02*
X192936904Y-123248057D01*
X192936904Y-123248057D02*
X192889285Y-123343295D01*
X192889285Y-123343295D02*
X192889285Y-123438533D01*
X192889285Y-123438533D02*
X192936904Y-123581390D01*
X192936904Y-123581390D02*
X193508332Y-124152819D01*
X193508332Y-124152819D02*
X192889285Y-124152819D01*
X169203666Y-97514580D02*
X169251285Y-97562200D01*
X169251285Y-97562200D02*
X169394142Y-97609819D01*
X169394142Y-97609819D02*
X169489380Y-97609819D01*
X169489380Y-97609819D02*
X169632237Y-97562200D01*
X169632237Y-97562200D02*
X169727475Y-97466961D01*
X169727475Y-97466961D02*
X169775094Y-97371723D01*
X169775094Y-97371723D02*
X169822713Y-97181247D01*
X169822713Y-97181247D02*
X169822713Y-97038390D01*
X169822713Y-97038390D02*
X169775094Y-96847914D01*
X169775094Y-96847914D02*
X169727475Y-96752676D01*
X169727475Y-96752676D02*
X169632237Y-96657438D01*
X169632237Y-96657438D02*
X169489380Y-96609819D01*
X169489380Y-96609819D02*
X169394142Y-96609819D01*
X169394142Y-96609819D02*
X169251285Y-96657438D01*
X169251285Y-96657438D02*
X169203666Y-96705057D01*
X168870332Y-96609819D02*
X168251285Y-96609819D01*
X168251285Y-96609819D02*
X168584618Y-96990771D01*
X168584618Y-96990771D02*
X168441761Y-96990771D01*
X168441761Y-96990771D02*
X168346523Y-97038390D01*
X168346523Y-97038390D02*
X168298904Y-97086009D01*
X168298904Y-97086009D02*
X168251285Y-97181247D01*
X168251285Y-97181247D02*
X168251285Y-97419342D01*
X168251285Y-97419342D02*
X168298904Y-97514580D01*
X168298904Y-97514580D02*
X168346523Y-97562200D01*
X168346523Y-97562200D02*
X168441761Y-97609819D01*
X168441761Y-97609819D02*
X168727475Y-97609819D01*
X168727475Y-97609819D02*
X168822713Y-97562200D01*
X168822713Y-97562200D02*
X168870332Y-97514580D01*
X198119904Y-122517819D02*
X198119904Y-123327342D01*
X198119904Y-123327342D02*
X198072285Y-123422580D01*
X198072285Y-123422580D02*
X198024666Y-123470200D01*
X198024666Y-123470200D02*
X197929428Y-123517819D01*
X197929428Y-123517819D02*
X197738952Y-123517819D01*
X197738952Y-123517819D02*
X197643714Y-123470200D01*
X197643714Y-123470200D02*
X197596095Y-123422580D01*
X197596095Y-123422580D02*
X197548476Y-123327342D01*
X197548476Y-123327342D02*
X197548476Y-122517819D01*
X196548476Y-123517819D02*
X197119904Y-123517819D01*
X196834190Y-123517819D02*
X196834190Y-122517819D01*
X196834190Y-122517819D02*
X196929428Y-122660676D01*
X196929428Y-122660676D02*
X197024666Y-122755914D01*
X197024666Y-122755914D02*
X197119904Y-122803533D01*
X161718523Y-125565819D02*
X161718523Y-126280104D01*
X161718523Y-126280104D02*
X161766142Y-126422961D01*
X161766142Y-126422961D02*
X161861380Y-126518200D01*
X161861380Y-126518200D02*
X162004237Y-126565819D01*
X162004237Y-126565819D02*
X162099475Y-126565819D01*
X160718523Y-126565819D02*
X161289951Y-126565819D01*
X161004237Y-126565819D02*
X161004237Y-125565819D01*
X161004237Y-125565819D02*
X161099475Y-125708676D01*
X161099475Y-125708676D02*
X161194713Y-125803914D01*
X161194713Y-125803914D02*
X161289951Y-125851533D01*
X160099475Y-125565819D02*
X160004237Y-125565819D01*
X160004237Y-125565819D02*
X159908999Y-125613438D01*
X159908999Y-125613438D02*
X159861380Y-125661057D01*
X159861380Y-125661057D02*
X159813761Y-125756295D01*
X159813761Y-125756295D02*
X159766142Y-125946771D01*
X159766142Y-125946771D02*
X159766142Y-126184866D01*
X159766142Y-126184866D02*
X159813761Y-126375342D01*
X159813761Y-126375342D02*
X159861380Y-126470580D01*
X159861380Y-126470580D02*
X159908999Y-126518200D01*
X159908999Y-126518200D02*
X160004237Y-126565819D01*
X160004237Y-126565819D02*
X160099475Y-126565819D01*
X160099475Y-126565819D02*
X160194713Y-126518200D01*
X160194713Y-126518200D02*
X160242332Y-126470580D01*
X160242332Y-126470580D02*
X160289951Y-126375342D01*
X160289951Y-126375342D02*
X160337570Y-126184866D01*
X160337570Y-126184866D02*
X160337570Y-125946771D01*
X160337570Y-125946771D02*
X160289951Y-125756295D01*
X160289951Y-125756295D02*
X160242332Y-125661057D01*
X160242332Y-125661057D02*
X160194713Y-125613438D01*
X160194713Y-125613438D02*
X160099475Y-125565819D01*
X162115332Y-107087200D02*
X161972475Y-107134819D01*
X161972475Y-107134819D02*
X161734380Y-107134819D01*
X161734380Y-107134819D02*
X161639142Y-107087200D01*
X161639142Y-107087200D02*
X161591523Y-107039580D01*
X161591523Y-107039580D02*
X161543904Y-106944342D01*
X161543904Y-106944342D02*
X161543904Y-106849104D01*
X161543904Y-106849104D02*
X161591523Y-106753866D01*
X161591523Y-106753866D02*
X161639142Y-106706247D01*
X161639142Y-106706247D02*
X161734380Y-106658628D01*
X161734380Y-106658628D02*
X161924856Y-106611009D01*
X161924856Y-106611009D02*
X162020094Y-106563390D01*
X162020094Y-106563390D02*
X162067713Y-106515771D01*
X162067713Y-106515771D02*
X162115332Y-106420533D01*
X162115332Y-106420533D02*
X162115332Y-106325295D01*
X162115332Y-106325295D02*
X162067713Y-106230057D01*
X162067713Y-106230057D02*
X162020094Y-106182438D01*
X162020094Y-106182438D02*
X161924856Y-106134819D01*
X161924856Y-106134819D02*
X161686761Y-106134819D01*
X161686761Y-106134819D02*
X161543904Y-106182438D01*
X161210570Y-106134819D02*
X160972475Y-107134819D01*
X160972475Y-107134819D02*
X160781999Y-106420533D01*
X160781999Y-106420533D02*
X160591523Y-107134819D01*
X160591523Y-107134819D02*
X160353428Y-106134819D01*
X160020094Y-106230057D02*
X159972475Y-106182438D01*
X159972475Y-106182438D02*
X159877237Y-106134819D01*
X159877237Y-106134819D02*
X159639142Y-106134819D01*
X159639142Y-106134819D02*
X159543904Y-106182438D01*
X159543904Y-106182438D02*
X159496285Y-106230057D01*
X159496285Y-106230057D02*
X159448666Y-106325295D01*
X159448666Y-106325295D02*
X159448666Y-106420533D01*
X159448666Y-106420533D02*
X159496285Y-106563390D01*
X159496285Y-106563390D02*
X160067713Y-107134819D01*
X160067713Y-107134819D02*
X159448666Y-107134819D01*
X190793666Y-105356819D02*
X191126999Y-104880628D01*
X191365094Y-105356819D02*
X191365094Y-104356819D01*
X191365094Y-104356819D02*
X190984142Y-104356819D01*
X190984142Y-104356819D02*
X190888904Y-104404438D01*
X190888904Y-104404438D02*
X190841285Y-104452057D01*
X190841285Y-104452057D02*
X190793666Y-104547295D01*
X190793666Y-104547295D02*
X190793666Y-104690152D01*
X190793666Y-104690152D02*
X190841285Y-104785390D01*
X190841285Y-104785390D02*
X190888904Y-104833009D01*
X190888904Y-104833009D02*
X190984142Y-104880628D01*
X190984142Y-104880628D02*
X191365094Y-104880628D01*
X190460332Y-104356819D02*
X189841285Y-104356819D01*
X189841285Y-104356819D02*
X190174618Y-104737771D01*
X190174618Y-104737771D02*
X190031761Y-104737771D01*
X190031761Y-104737771D02*
X189936523Y-104785390D01*
X189936523Y-104785390D02*
X189888904Y-104833009D01*
X189888904Y-104833009D02*
X189841285Y-104928247D01*
X189841285Y-104928247D02*
X189841285Y-105166342D01*
X189841285Y-105166342D02*
X189888904Y-105261580D01*
X189888904Y-105261580D02*
X189936523Y-105309200D01*
X189936523Y-105309200D02*
X190031761Y-105356819D01*
X190031761Y-105356819D02*
X190317475Y-105356819D01*
X190317475Y-105356819D02*
X190412713Y-105309200D01*
X190412713Y-105309200D02*
X190460332Y-105261580D01*
X219281333Y-103467819D02*
X219281333Y-104182104D01*
X219281333Y-104182104D02*
X219328952Y-104324961D01*
X219328952Y-104324961D02*
X219424190Y-104420200D01*
X219424190Y-104420200D02*
X219567047Y-104467819D01*
X219567047Y-104467819D02*
X219662285Y-104467819D01*
X218900380Y-103467819D02*
X218281333Y-103467819D01*
X218281333Y-103467819D02*
X218614666Y-103848771D01*
X218614666Y-103848771D02*
X218471809Y-103848771D01*
X218471809Y-103848771D02*
X218376571Y-103896390D01*
X218376571Y-103896390D02*
X218328952Y-103944009D01*
X218328952Y-103944009D02*
X218281333Y-104039247D01*
X218281333Y-104039247D02*
X218281333Y-104277342D01*
X218281333Y-104277342D02*
X218328952Y-104372580D01*
X218328952Y-104372580D02*
X218376571Y-104420200D01*
X218376571Y-104420200D02*
X218471809Y-104467819D01*
X218471809Y-104467819D02*
X218757523Y-104467819D01*
X218757523Y-104467819D02*
X218852761Y-104420200D01*
X218852761Y-104420200D02*
X218900380Y-104372580D01*
X176156714Y-131828319D02*
X176156714Y-132542604D01*
X176156714Y-132542604D02*
X176204333Y-132685461D01*
X176204333Y-132685461D02*
X176299571Y-132780700D01*
X176299571Y-132780700D02*
X176442428Y-132828319D01*
X176442428Y-132828319D02*
X176537666Y-132828319D01*
X175156714Y-132828319D02*
X175728142Y-132828319D01*
X175442428Y-132828319D02*
X175442428Y-131828319D01*
X175442428Y-131828319D02*
X175537666Y-131971176D01*
X175537666Y-131971176D02*
X175632904Y-132066414D01*
X175632904Y-132066414D02*
X175728142Y-132114033D01*
X174537666Y-131828319D02*
X174442428Y-131828319D01*
X174442428Y-131828319D02*
X174347190Y-131875938D01*
X174347190Y-131875938D02*
X174299571Y-131923557D01*
X174299571Y-131923557D02*
X174251952Y-132018795D01*
X174251952Y-132018795D02*
X174204333Y-132209271D01*
X174204333Y-132209271D02*
X174204333Y-132447366D01*
X174204333Y-132447366D02*
X174251952Y-132637842D01*
X174251952Y-132637842D02*
X174299571Y-132733080D01*
X174299571Y-132733080D02*
X174347190Y-132780700D01*
X174347190Y-132780700D02*
X174442428Y-132828319D01*
X174442428Y-132828319D02*
X174537666Y-132828319D01*
X174537666Y-132828319D02*
X174632904Y-132780700D01*
X174632904Y-132780700D02*
X174680523Y-132733080D01*
X174680523Y-132733080D02*
X174728142Y-132637842D01*
X174728142Y-132637842D02*
X174775761Y-132447366D01*
X174775761Y-132447366D02*
X174775761Y-132209271D01*
X174775761Y-132209271D02*
X174728142Y-132018795D01*
X174728142Y-132018795D02*
X174680523Y-131923557D01*
X174680523Y-131923557D02*
X174632904Y-131875938D01*
X174632904Y-131875938D02*
X174537666Y-131828319D01*
X173442428Y-132304509D02*
X173299571Y-132352128D01*
X173299571Y-132352128D02*
X173251952Y-132399747D01*
X173251952Y-132399747D02*
X173204333Y-132494985D01*
X173204333Y-132494985D02*
X173204333Y-132637842D01*
X173204333Y-132637842D02*
X173251952Y-132733080D01*
X173251952Y-132733080D02*
X173299571Y-132780700D01*
X173299571Y-132780700D02*
X173394809Y-132828319D01*
X173394809Y-132828319D02*
X173775761Y-132828319D01*
X173775761Y-132828319D02*
X173775761Y-131828319D01*
X173775761Y-131828319D02*
X173442428Y-131828319D01*
X173442428Y-131828319D02*
X173347190Y-131875938D01*
X173347190Y-131875938D02*
X173299571Y-131923557D01*
X173299571Y-131923557D02*
X173251952Y-132018795D01*
X173251952Y-132018795D02*
X173251952Y-132114033D01*
X173251952Y-132114033D02*
X173299571Y-132209271D01*
X173299571Y-132209271D02*
X173347190Y-132256890D01*
X173347190Y-132256890D02*
X173442428Y-132304509D01*
X173442428Y-132304509D02*
X173775761Y-132304509D01*
X172251952Y-132828319D02*
X172823380Y-132828319D01*
X172537666Y-132828319D02*
X172537666Y-131828319D01*
X172537666Y-131828319D02*
X172632904Y-131971176D01*
X172632904Y-131971176D02*
X172728142Y-132066414D01*
X172728142Y-132066414D02*
X172823380Y-132114033D01*
X158027666Y-98530580D02*
X158075285Y-98578200D01*
X158075285Y-98578200D02*
X158218142Y-98625819D01*
X158218142Y-98625819D02*
X158313380Y-98625819D01*
X158313380Y-98625819D02*
X158456237Y-98578200D01*
X158456237Y-98578200D02*
X158551475Y-98482961D01*
X158551475Y-98482961D02*
X158599094Y-98387723D01*
X158599094Y-98387723D02*
X158646713Y-98197247D01*
X158646713Y-98197247D02*
X158646713Y-98054390D01*
X158646713Y-98054390D02*
X158599094Y-97863914D01*
X158599094Y-97863914D02*
X158551475Y-97768676D01*
X158551475Y-97768676D02*
X158456237Y-97673438D01*
X158456237Y-97673438D02*
X158313380Y-97625819D01*
X158313380Y-97625819D02*
X158218142Y-97625819D01*
X158218142Y-97625819D02*
X158075285Y-97673438D01*
X158075285Y-97673438D02*
X158027666Y-97721057D01*
X157075285Y-98625819D02*
X157646713Y-98625819D01*
X157360999Y-98625819D02*
X157360999Y-97625819D01*
X157360999Y-97625819D02*
X157456237Y-97768676D01*
X157456237Y-97768676D02*
X157551475Y-97863914D01*
X157551475Y-97863914D02*
X157646713Y-97911533D01*
X188920333Y-96736819D02*
X188920333Y-97451104D01*
X188920333Y-97451104D02*
X188967952Y-97593961D01*
X188967952Y-97593961D02*
X189063190Y-97689200D01*
X189063190Y-97689200D02*
X189206047Y-97736819D01*
X189206047Y-97736819D02*
X189301285Y-97736819D01*
X188444142Y-97736819D02*
X188444142Y-96736819D01*
X188444142Y-96736819D02*
X188063190Y-96736819D01*
X188063190Y-96736819D02*
X187967952Y-96784438D01*
X187967952Y-96784438D02*
X187920333Y-96832057D01*
X187920333Y-96832057D02*
X187872714Y-96927295D01*
X187872714Y-96927295D02*
X187872714Y-97070152D01*
X187872714Y-97070152D02*
X187920333Y-97165390D01*
X187920333Y-97165390D02*
X187967952Y-97213009D01*
X187967952Y-97213009D02*
X188063190Y-97260628D01*
X188063190Y-97260628D02*
X188444142Y-97260628D01*
X186920333Y-97736819D02*
X187491761Y-97736819D01*
X187206047Y-97736819D02*
X187206047Y-96736819D01*
X187206047Y-96736819D02*
X187301285Y-96879676D01*
X187301285Y-96879676D02*
X187396523Y-96974914D01*
X187396523Y-96974914D02*
X187491761Y-97022533D01*
X151844333Y-122517819D02*
X151844333Y-123232104D01*
X151844333Y-123232104D02*
X151891952Y-123374961D01*
X151891952Y-123374961D02*
X151987190Y-123470200D01*
X151987190Y-123470200D02*
X152130047Y-123517819D01*
X152130047Y-123517819D02*
X152225285Y-123517819D01*
X151320523Y-123517819D02*
X151130047Y-123517819D01*
X151130047Y-123517819D02*
X151034809Y-123470200D01*
X151034809Y-123470200D02*
X150987190Y-123422580D01*
X150987190Y-123422580D02*
X150891952Y-123279723D01*
X150891952Y-123279723D02*
X150844333Y-123089247D01*
X150844333Y-123089247D02*
X150844333Y-122708295D01*
X150844333Y-122708295D02*
X150891952Y-122613057D01*
X150891952Y-122613057D02*
X150939571Y-122565438D01*
X150939571Y-122565438D02*
X151034809Y-122517819D01*
X151034809Y-122517819D02*
X151225285Y-122517819D01*
X151225285Y-122517819D02*
X151320523Y-122565438D01*
X151320523Y-122565438D02*
X151368142Y-122613057D01*
X151368142Y-122613057D02*
X151415761Y-122708295D01*
X151415761Y-122708295D02*
X151415761Y-122946390D01*
X151415761Y-122946390D02*
X151368142Y-123041628D01*
X151368142Y-123041628D02*
X151320523Y-123089247D01*
X151320523Y-123089247D02*
X151225285Y-123136866D01*
X151225285Y-123136866D02*
X151034809Y-123136866D01*
X151034809Y-123136866D02*
X150939571Y-123089247D01*
X150939571Y-123089247D02*
X150891952Y-123041628D01*
X150891952Y-123041628D02*
X150844333Y-122946390D01*
X211407333Y-117818819D02*
X211407333Y-118533104D01*
X211407333Y-118533104D02*
X211454952Y-118675961D01*
X211454952Y-118675961D02*
X211550190Y-118771200D01*
X211550190Y-118771200D02*
X211693047Y-118818819D01*
X211693047Y-118818819D02*
X211788285Y-118818819D01*
X210502571Y-117818819D02*
X210693047Y-117818819D01*
X210693047Y-117818819D02*
X210788285Y-117866438D01*
X210788285Y-117866438D02*
X210835904Y-117914057D01*
X210835904Y-117914057D02*
X210931142Y-118056914D01*
X210931142Y-118056914D02*
X210978761Y-118247390D01*
X210978761Y-118247390D02*
X210978761Y-118628342D01*
X210978761Y-118628342D02*
X210931142Y-118723580D01*
X210931142Y-118723580D02*
X210883523Y-118771200D01*
X210883523Y-118771200D02*
X210788285Y-118818819D01*
X210788285Y-118818819D02*
X210597809Y-118818819D01*
X210597809Y-118818819D02*
X210502571Y-118771200D01*
X210502571Y-118771200D02*
X210454952Y-118723580D01*
X210454952Y-118723580D02*
X210407333Y-118628342D01*
X210407333Y-118628342D02*
X210407333Y-118390247D01*
X210407333Y-118390247D02*
X210454952Y-118295009D01*
X210454952Y-118295009D02*
X210502571Y-118247390D01*
X210502571Y-118247390D02*
X210597809Y-118199771D01*
X210597809Y-118199771D02*
X210788285Y-118199771D01*
X210788285Y-118199771D02*
X210883523Y-118247390D01*
X210883523Y-118247390D02*
X210931142Y-118295009D01*
X210931142Y-118295009D02*
X210978761Y-118390247D01*
X204593094Y-105569819D02*
X204593094Y-104569819D01*
X204593094Y-104569819D02*
X204354999Y-104569819D01*
X204354999Y-104569819D02*
X204212142Y-104617438D01*
X204212142Y-104617438D02*
X204116904Y-104712676D01*
X204116904Y-104712676D02*
X204069285Y-104807914D01*
X204069285Y-104807914D02*
X204021666Y-104998390D01*
X204021666Y-104998390D02*
X204021666Y-105141247D01*
X204021666Y-105141247D02*
X204069285Y-105331723D01*
X204069285Y-105331723D02*
X204116904Y-105426961D01*
X204116904Y-105426961D02*
X204212142Y-105522200D01*
X204212142Y-105522200D02*
X204354999Y-105569819D01*
X204354999Y-105569819D02*
X204593094Y-105569819D01*
X203069285Y-105569819D02*
X203640713Y-105569819D01*
X203354999Y-105569819D02*
X203354999Y-104569819D01*
X203354999Y-104569819D02*
X203450237Y-104712676D01*
X203450237Y-104712676D02*
X203545475Y-104807914D01*
X203545475Y-104807914D02*
X203640713Y-104855533D01*
X200469332Y-97816200D02*
X200326475Y-97863819D01*
X200326475Y-97863819D02*
X200088380Y-97863819D01*
X200088380Y-97863819D02*
X199993142Y-97816200D01*
X199993142Y-97816200D02*
X199945523Y-97768580D01*
X199945523Y-97768580D02*
X199897904Y-97673342D01*
X199897904Y-97673342D02*
X199897904Y-97578104D01*
X199897904Y-97578104D02*
X199945523Y-97482866D01*
X199945523Y-97482866D02*
X199993142Y-97435247D01*
X199993142Y-97435247D02*
X200088380Y-97387628D01*
X200088380Y-97387628D02*
X200278856Y-97340009D01*
X200278856Y-97340009D02*
X200374094Y-97292390D01*
X200374094Y-97292390D02*
X200421713Y-97244771D01*
X200421713Y-97244771D02*
X200469332Y-97149533D01*
X200469332Y-97149533D02*
X200469332Y-97054295D01*
X200469332Y-97054295D02*
X200421713Y-96959057D01*
X200421713Y-96959057D02*
X200374094Y-96911438D01*
X200374094Y-96911438D02*
X200278856Y-96863819D01*
X200278856Y-96863819D02*
X200040761Y-96863819D01*
X200040761Y-96863819D02*
X199897904Y-96911438D01*
X199564570Y-96863819D02*
X199326475Y-97863819D01*
X199326475Y-97863819D02*
X199135999Y-97149533D01*
X199135999Y-97149533D02*
X198945523Y-97863819D01*
X198945523Y-97863819D02*
X198707428Y-96863819D01*
X197802666Y-97863819D02*
X198374094Y-97863819D01*
X198088380Y-97863819D02*
X198088380Y-96863819D01*
X198088380Y-96863819D02*
X198183618Y-97006676D01*
X198183618Y-97006676D02*
X198278856Y-97101914D01*
X198278856Y-97101914D02*
X198374094Y-97149533D01*
X173608904Y-96609819D02*
X173608904Y-97419342D01*
X173608904Y-97419342D02*
X173561285Y-97514580D01*
X173561285Y-97514580D02*
X173513666Y-97562200D01*
X173513666Y-97562200D02*
X173418428Y-97609819D01*
X173418428Y-97609819D02*
X173227952Y-97609819D01*
X173227952Y-97609819D02*
X173132714Y-97562200D01*
X173132714Y-97562200D02*
X173085095Y-97514580D01*
X173085095Y-97514580D02*
X173037476Y-97419342D01*
X173037476Y-97419342D02*
X173037476Y-96609819D01*
X172656523Y-96609819D02*
X172037476Y-96609819D01*
X172037476Y-96609819D02*
X172370809Y-96990771D01*
X172370809Y-96990771D02*
X172227952Y-96990771D01*
X172227952Y-96990771D02*
X172132714Y-97038390D01*
X172132714Y-97038390D02*
X172085095Y-97086009D01*
X172085095Y-97086009D02*
X172037476Y-97181247D01*
X172037476Y-97181247D02*
X172037476Y-97419342D01*
X172037476Y-97419342D02*
X172085095Y-97514580D01*
X172085095Y-97514580D02*
X172132714Y-97562200D01*
X172132714Y-97562200D02*
X172227952Y-97609819D01*
X172227952Y-97609819D02*
X172513666Y-97609819D01*
X172513666Y-97609819D02*
X172608904Y-97562200D01*
X172608904Y-97562200D02*
X172656523Y-97514580D01*
X180673333Y-99149819D02*
X180673333Y-99864104D01*
X180673333Y-99864104D02*
X180720952Y-100006961D01*
X180720952Y-100006961D02*
X180816190Y-100102200D01*
X180816190Y-100102200D02*
X180959047Y-100149819D01*
X180959047Y-100149819D02*
X181054285Y-100149819D01*
X179673333Y-100149819D02*
X180244761Y-100149819D01*
X179959047Y-100149819D02*
X179959047Y-99149819D01*
X179959047Y-99149819D02*
X180054285Y-99292676D01*
X180054285Y-99292676D02*
X180149523Y-99387914D01*
X180149523Y-99387914D02*
X180244761Y-99435533D01*
X210772333Y-112484819D02*
X210772333Y-113199104D01*
X210772333Y-113199104D02*
X210819952Y-113341961D01*
X210819952Y-113341961D02*
X210915190Y-113437200D01*
X210915190Y-113437200D02*
X211058047Y-113484819D01*
X211058047Y-113484819D02*
X211153285Y-113484819D01*
X209819952Y-112484819D02*
X210296142Y-112484819D01*
X210296142Y-112484819D02*
X210343761Y-112961009D01*
X210343761Y-112961009D02*
X210296142Y-112913390D01*
X210296142Y-112913390D02*
X210200904Y-112865771D01*
X210200904Y-112865771D02*
X209962809Y-112865771D01*
X209962809Y-112865771D02*
X209867571Y-112913390D01*
X209867571Y-112913390D02*
X209819952Y-112961009D01*
X209819952Y-112961009D02*
X209772333Y-113056247D01*
X209772333Y-113056247D02*
X209772333Y-113294342D01*
X209772333Y-113294342D02*
X209819952Y-113389580D01*
X209819952Y-113389580D02*
X209867571Y-113437200D01*
X209867571Y-113437200D02*
X209962809Y-113484819D01*
X209962809Y-113484819D02*
X210200904Y-113484819D01*
X210200904Y-113484819D02*
X210296142Y-113437200D01*
X210296142Y-113437200D02*
X210343761Y-113389580D01*
X158585819Y-109902666D02*
X159300104Y-109902666D01*
X159300104Y-109902666D02*
X159442961Y-109855047D01*
X159442961Y-109855047D02*
X159538200Y-109759809D01*
X159538200Y-109759809D02*
X159585819Y-109616952D01*
X159585819Y-109616952D02*
X159585819Y-109521714D01*
X158585819Y-110855047D02*
X158585819Y-110378857D01*
X158585819Y-110378857D02*
X159062009Y-110331238D01*
X159062009Y-110331238D02*
X159014390Y-110378857D01*
X159014390Y-110378857D02*
X158966771Y-110474095D01*
X158966771Y-110474095D02*
X158966771Y-110712190D01*
X158966771Y-110712190D02*
X159014390Y-110807428D01*
X159014390Y-110807428D02*
X159062009Y-110855047D01*
X159062009Y-110855047D02*
X159157247Y-110902666D01*
X159157247Y-110902666D02*
X159395342Y-110902666D01*
X159395342Y-110902666D02*
X159490580Y-110855047D01*
X159490580Y-110855047D02*
X159538200Y-110807428D01*
X159538200Y-110807428D02*
X159585819Y-110712190D01*
X159585819Y-110712190D02*
X159585819Y-110474095D01*
X159585819Y-110474095D02*
X159538200Y-110378857D01*
X159538200Y-110378857D02*
X159490580Y-110331238D01*
X192986819Y-121118333D02*
X192510628Y-120785000D01*
X192986819Y-120546905D02*
X191986819Y-120546905D01*
X191986819Y-120546905D02*
X191986819Y-120927857D01*
X191986819Y-120927857D02*
X192034438Y-121023095D01*
X192034438Y-121023095D02*
X192082057Y-121070714D01*
X192082057Y-121070714D02*
X192177295Y-121118333D01*
X192177295Y-121118333D02*
X192320152Y-121118333D01*
X192320152Y-121118333D02*
X192415390Y-121070714D01*
X192415390Y-121070714D02*
X192463009Y-121023095D01*
X192463009Y-121023095D02*
X192510628Y-120927857D01*
X192510628Y-120927857D02*
X192510628Y-120546905D01*
X192082057Y-121499286D02*
X192034438Y-121546905D01*
X192034438Y-121546905D02*
X191986819Y-121642143D01*
X191986819Y-121642143D02*
X191986819Y-121880238D01*
X191986819Y-121880238D02*
X192034438Y-121975476D01*
X192034438Y-121975476D02*
X192082057Y-122023095D01*
X192082057Y-122023095D02*
X192177295Y-122070714D01*
X192177295Y-122070714D02*
X192272533Y-122070714D01*
X192272533Y-122070714D02*
X192415390Y-122023095D01*
X192415390Y-122023095D02*
X192986819Y-121451667D01*
X192986819Y-121451667D02*
X192986819Y-122070714D01*
X146343523Y-109646819D02*
X146343523Y-110361104D01*
X146343523Y-110361104D02*
X146391142Y-110503961D01*
X146391142Y-110503961D02*
X146486380Y-110599200D01*
X146486380Y-110599200D02*
X146629237Y-110646819D01*
X146629237Y-110646819D02*
X146724475Y-110646819D01*
X145819713Y-110646819D02*
X145629237Y-110646819D01*
X145629237Y-110646819D02*
X145533999Y-110599200D01*
X145533999Y-110599200D02*
X145486380Y-110551580D01*
X145486380Y-110551580D02*
X145391142Y-110408723D01*
X145391142Y-110408723D02*
X145343523Y-110218247D01*
X145343523Y-110218247D02*
X145343523Y-109837295D01*
X145343523Y-109837295D02*
X145391142Y-109742057D01*
X145391142Y-109742057D02*
X145438761Y-109694438D01*
X145438761Y-109694438D02*
X145533999Y-109646819D01*
X145533999Y-109646819D02*
X145724475Y-109646819D01*
X145724475Y-109646819D02*
X145819713Y-109694438D01*
X145819713Y-109694438D02*
X145867332Y-109742057D01*
X145867332Y-109742057D02*
X145914951Y-109837295D01*
X145914951Y-109837295D02*
X145914951Y-110075390D01*
X145914951Y-110075390D02*
X145867332Y-110170628D01*
X145867332Y-110170628D02*
X145819713Y-110218247D01*
X145819713Y-110218247D02*
X145724475Y-110265866D01*
X145724475Y-110265866D02*
X145533999Y-110265866D01*
X145533999Y-110265866D02*
X145438761Y-110218247D01*
X145438761Y-110218247D02*
X145391142Y-110170628D01*
X145391142Y-110170628D02*
X145343523Y-110075390D01*
X144581618Y-110123009D02*
X144438761Y-110170628D01*
X144438761Y-110170628D02*
X144391142Y-110218247D01*
X144391142Y-110218247D02*
X144343523Y-110313485D01*
X144343523Y-110313485D02*
X144343523Y-110456342D01*
X144343523Y-110456342D02*
X144391142Y-110551580D01*
X144391142Y-110551580D02*
X144438761Y-110599200D01*
X144438761Y-110599200D02*
X144533999Y-110646819D01*
X144533999Y-110646819D02*
X144914951Y-110646819D01*
X144914951Y-110646819D02*
X144914951Y-109646819D01*
X144914951Y-109646819D02*
X144581618Y-109646819D01*
X144581618Y-109646819D02*
X144486380Y-109694438D01*
X144486380Y-109694438D02*
X144438761Y-109742057D01*
X144438761Y-109742057D02*
X144391142Y-109837295D01*
X144391142Y-109837295D02*
X144391142Y-109932533D01*
X144391142Y-109932533D02*
X144438761Y-110027771D01*
X144438761Y-110027771D02*
X144486380Y-110075390D01*
X144486380Y-110075390D02*
X144581618Y-110123009D01*
X144581618Y-110123009D02*
X144914951Y-110123009D01*
X143391142Y-110646819D02*
X143962570Y-110646819D01*
X143676856Y-110646819D02*
X143676856Y-109646819D01*
X143676856Y-109646819D02*
X143772094Y-109789676D01*
X143772094Y-109789676D02*
X143867332Y-109884914D01*
X143867332Y-109884914D02*
X143962570Y-109932533D01*
X205271666Y-110324819D02*
X205604999Y-109848628D01*
X205843094Y-110324819D02*
X205843094Y-109324819D01*
X205843094Y-109324819D02*
X205462142Y-109324819D01*
X205462142Y-109324819D02*
X205366904Y-109372438D01*
X205366904Y-109372438D02*
X205319285Y-109420057D01*
X205319285Y-109420057D02*
X205271666Y-109515295D01*
X205271666Y-109515295D02*
X205271666Y-109658152D01*
X205271666Y-109658152D02*
X205319285Y-109753390D01*
X205319285Y-109753390D02*
X205366904Y-109801009D01*
X205366904Y-109801009D02*
X205462142Y-109848628D01*
X205462142Y-109848628D02*
X205843094Y-109848628D01*
X204319285Y-110324819D02*
X204890713Y-110324819D01*
X204604999Y-110324819D02*
X204604999Y-109324819D01*
X204604999Y-109324819D02*
X204700237Y-109467676D01*
X204700237Y-109467676D02*
X204795475Y-109562914D01*
X204795475Y-109562914D02*
X204890713Y-109610533D01*
X140160333Y-105753819D02*
X140160333Y-106468104D01*
X140160333Y-106468104D02*
X140207952Y-106610961D01*
X140207952Y-106610961D02*
X140303190Y-106706200D01*
X140303190Y-106706200D02*
X140446047Y-106753819D01*
X140446047Y-106753819D02*
X140541285Y-106753819D01*
X139255571Y-106087152D02*
X139255571Y-106753819D01*
X139493666Y-105706200D02*
X139731761Y-106420485D01*
X139731761Y-106420485D02*
X139112714Y-106420485D01*
X208994333Y-128359819D02*
X208994333Y-129074104D01*
X208994333Y-129074104D02*
X209041952Y-129216961D01*
X209041952Y-129216961D02*
X209137190Y-129312200D01*
X209137190Y-129312200D02*
X209280047Y-129359819D01*
X209280047Y-129359819D02*
X209375285Y-129359819D01*
X208565761Y-128455057D02*
X208518142Y-128407438D01*
X208518142Y-128407438D02*
X208422904Y-128359819D01*
X208422904Y-128359819D02*
X208184809Y-128359819D01*
X208184809Y-128359819D02*
X208089571Y-128407438D01*
X208089571Y-128407438D02*
X208041952Y-128455057D01*
X208041952Y-128455057D02*
X207994333Y-128550295D01*
X207994333Y-128550295D02*
X207994333Y-128645533D01*
X207994333Y-128645533D02*
X208041952Y-128788390D01*
X208041952Y-128788390D02*
X208613380Y-129359819D01*
X208613380Y-129359819D02*
X207994333Y-129359819D01*
D11*
%TO.C,J7*%
X143445000Y-120650000D02*
X143445000Y-119380000D01*
X143445000Y-119380000D02*
X142175000Y-119380000D01*
X141132071Y-128650000D02*
X140677929Y-128650000D01*
X141132071Y-127890000D02*
X140677929Y-127890000D01*
X141132071Y-126110000D02*
X140677929Y-126110000D01*
X141132071Y-125350000D02*
X140677929Y-125350000D01*
X141132071Y-123570000D02*
X140677929Y-123570000D01*
X141132071Y-122810000D02*
X140677929Y-122810000D01*
X141065000Y-121030000D02*
X140677929Y-121030000D01*
X141065000Y-120270000D02*
X140677929Y-120270000D01*
X138592071Y-128650000D02*
X138195000Y-128650000D01*
X138592071Y-127890000D02*
X138195000Y-127890000D01*
X138592071Y-126110000D02*
X138195000Y-126110000D01*
X138592071Y-125350000D02*
X138195000Y-125350000D01*
X138592071Y-123570000D02*
X138195000Y-123570000D01*
X138592071Y-122810000D02*
X138195000Y-122810000D01*
X138592071Y-121030000D02*
X138195000Y-121030000D01*
X138592071Y-120270000D02*
X138195000Y-120270000D01*
X138195000Y-129600000D02*
X135535000Y-129600000D01*
X138195000Y-127000000D02*
X135535000Y-127000000D01*
X138195000Y-124460000D02*
X135535000Y-124460000D01*
X138195000Y-121920000D02*
X135535000Y-121920000D01*
X138195000Y-119320000D02*
X138195000Y-129600000D01*
X135535000Y-129600000D02*
X135535000Y-119320000D01*
X135535000Y-127890000D02*
X129535000Y-127890000D01*
X135535000Y-125350000D02*
X129535000Y-125350000D01*
X135535000Y-122810000D02*
X129535000Y-122810000D01*
X135535000Y-120930000D02*
X129535000Y-120930000D01*
X135535000Y-120810000D02*
X129535000Y-120810000D01*
X135535000Y-120690000D02*
X129535000Y-120690000D01*
X135535000Y-120570000D02*
X129535000Y-120570000D01*
X135535000Y-120450000D02*
X129535000Y-120450000D01*
X135535000Y-120330000D02*
X129535000Y-120330000D01*
X135535000Y-120270000D02*
X129535000Y-120270000D01*
X135535000Y-119320000D02*
X138195000Y-119320000D01*
X129535000Y-128650000D02*
X135535000Y-128650000D01*
X129535000Y-127890000D02*
X129535000Y-128650000D01*
X129535000Y-126110000D02*
X135535000Y-126110000D01*
X129535000Y-125350000D02*
X129535000Y-126110000D01*
X129535000Y-123570000D02*
X135535000Y-123570000D01*
X129535000Y-122810000D02*
X129535000Y-123570000D01*
X129535000Y-121030000D02*
X135535000Y-121030000D01*
X129535000Y-120270000D02*
X129535000Y-121030000D01*
%TO.C,C2*%
X191805000Y-131930000D02*
X191805000Y-124690000D01*
X195545000Y-131930000D02*
X191805000Y-131930000D01*
X195545000Y-131930000D02*
X195545000Y-124690000D01*
X195545000Y-124690000D02*
X191805000Y-124690000D01*
%TO.C,C3*%
X170907000Y-97980000D02*
X170907000Y-105220000D01*
X167167000Y-97980000D02*
X170907000Y-97980000D01*
X167167000Y-97980000D02*
X167167000Y-105220000D01*
X167167000Y-105220000D02*
X170907000Y-105220000D01*
%TO.C,U1*%
X206435000Y-126255000D02*
X206435000Y-131555000D01*
X196155000Y-126255000D02*
X206435000Y-126255000D01*
X196155000Y-127905000D02*
X196155000Y-126255000D01*
X206435000Y-131555000D02*
X196155000Y-131555000D01*
X196155000Y-131555000D02*
X196155000Y-129905000D01*
X196155000Y-129905000D02*
G75*
G03*
X196155000Y-127905000I0J1000000D01*
G01*
%TO.C,J10*%
X150421000Y-131904000D02*
X150421000Y-130654000D01*
X150721000Y-126884000D02*
X170841000Y-126884000D01*
X150721000Y-128994000D02*
X151331000Y-128994000D01*
X150721000Y-130294000D02*
X151331000Y-130294000D01*
X150721000Y-131604000D02*
X150721000Y-126884000D01*
X151331000Y-127494000D02*
X170231000Y-127494000D01*
X151331000Y-130994000D02*
X151331000Y-127494000D01*
X151671000Y-131904000D02*
X150421000Y-131904000D01*
X152181000Y-131804000D02*
X152181000Y-131604000D01*
X152481000Y-131604000D02*
X152481000Y-131804000D01*
X152481000Y-131704000D02*
X152181000Y-131704000D01*
X152481000Y-131804000D02*
X152181000Y-131804000D01*
X153281000Y-130994000D02*
X151331000Y-130994000D01*
X153281000Y-131604000D02*
X153281000Y-130994000D01*
X153681000Y-127494000D02*
X153681000Y-127994000D01*
X153681000Y-127994000D02*
X153881000Y-127994000D01*
X153781000Y-127494000D02*
X153781000Y-127994000D01*
X153881000Y-127994000D02*
X153881000Y-127494000D01*
X155681000Y-127494000D02*
X155681000Y-127994000D01*
X155681000Y-127994000D02*
X155881000Y-127994000D01*
X155781000Y-127494000D02*
X155781000Y-127994000D01*
X155881000Y-127994000D02*
X155881000Y-127494000D01*
X157681000Y-127494000D02*
X157681000Y-127994000D01*
X157681000Y-127994000D02*
X157881000Y-127994000D01*
X157781000Y-127494000D02*
X157781000Y-127994000D01*
X157881000Y-127994000D02*
X157881000Y-127494000D01*
X159681000Y-127494000D02*
X159681000Y-127994000D01*
X159681000Y-127994000D02*
X159881000Y-127994000D01*
X159781000Y-127494000D02*
X159781000Y-127994000D01*
X159881000Y-127994000D02*
X159881000Y-127494000D01*
X161681000Y-127494000D02*
X161681000Y-127994000D01*
X161681000Y-127994000D02*
X161881000Y-127994000D01*
X161781000Y-127494000D02*
X161781000Y-127994000D01*
X161881000Y-127994000D02*
X161881000Y-127494000D01*
X163681000Y-127494000D02*
X163681000Y-127994000D01*
X163681000Y-127994000D02*
X163881000Y-127994000D01*
X163781000Y-127494000D02*
X163781000Y-127994000D01*
X163881000Y-127994000D02*
X163881000Y-127494000D01*
X165681000Y-127494000D02*
X165681000Y-127994000D01*
X165681000Y-127994000D02*
X165881000Y-127994000D01*
X165781000Y-127494000D02*
X165781000Y-127994000D01*
X165881000Y-127994000D02*
X165881000Y-127494000D01*
X167681000Y-127494000D02*
X167681000Y-127994000D01*
X167681000Y-127994000D02*
X167881000Y-127994000D01*
X167781000Y-127494000D02*
X167781000Y-127994000D01*
X167881000Y-127994000D02*
X167881000Y-127494000D01*
X168281000Y-130994000D02*
X168281000Y-131604000D01*
X170231000Y-127494000D02*
X170231000Y-130994000D01*
X170231000Y-130994000D02*
X168281000Y-130994000D01*
X170841000Y-126884000D02*
X170841000Y-131604000D01*
X170841000Y-128994000D02*
X170231000Y-128994000D01*
X170841000Y-130294000D02*
X170231000Y-130294000D01*
X170841000Y-131604000D02*
X150721000Y-131604000D01*
%TO.C,SW2*%
X162612000Y-108010000D02*
X162612000Y-105350000D01*
X167752000Y-108010000D02*
X162612000Y-108010000D01*
X167752000Y-108010000D02*
X167752000Y-105350000D01*
X169022000Y-108010000D02*
X170352000Y-108010000D01*
X170352000Y-108010000D02*
X170352000Y-106680000D01*
X167752000Y-105350000D02*
X162612000Y-105350000D01*
%TO.C,R3*%
X193152000Y-103982000D02*
X196992000Y-103982000D01*
X193152000Y-105822000D02*
X196992000Y-105822000D01*
%TO.C,J3*%
X217865000Y-94050000D02*
X217865000Y-102680000D01*
X215265000Y-94050000D02*
X215265000Y-102680000D01*
X212725000Y-94050000D02*
X212725000Y-102680000D01*
X210185000Y-94050000D02*
X210185000Y-102680000D01*
X210066900Y-94050000D02*
X210066900Y-102680000D01*
X209948805Y-94050000D02*
X209948805Y-102680000D01*
X209830710Y-94050000D02*
X209830710Y-102680000D01*
X209712615Y-94050000D02*
X209712615Y-102680000D01*
X209594520Y-94050000D02*
X209594520Y-102680000D01*
X209476425Y-94050000D02*
X209476425Y-102680000D01*
X209358330Y-94050000D02*
X209358330Y-102680000D01*
X209240235Y-94050000D02*
X209240235Y-102680000D01*
X209122140Y-94050000D02*
X209122140Y-102680000D01*
X209004045Y-94050000D02*
X209004045Y-102680000D01*
X208885950Y-94050000D02*
X208885950Y-102680000D01*
X208767855Y-94050000D02*
X208767855Y-102680000D01*
X208649760Y-94050000D02*
X208649760Y-102680000D01*
X208531665Y-94050000D02*
X208531665Y-102680000D01*
X208413570Y-94050000D02*
X208413570Y-102680000D01*
X208295475Y-94050000D02*
X208295475Y-102680000D01*
X208177380Y-94050000D02*
X208177380Y-102680000D01*
X208059285Y-94050000D02*
X208059285Y-102680000D01*
X207941190Y-94050000D02*
X207941190Y-102680000D01*
X207823095Y-94050000D02*
X207823095Y-102680000D01*
X207705000Y-94050000D02*
X207705000Y-102680000D01*
X207585000Y-94050000D02*
X217865000Y-94050000D01*
X207585000Y-94050000D02*
X207585000Y-102680000D01*
X216895000Y-102680000D02*
X216895000Y-103090000D01*
X216175000Y-102680000D02*
X216175000Y-103090000D01*
X214355000Y-102680000D02*
X214355000Y-103090000D01*
X213635000Y-102680000D02*
X213635000Y-103090000D01*
X211815000Y-102680000D02*
X211815000Y-103090000D01*
X211095000Y-102680000D02*
X211095000Y-103090000D01*
X209275000Y-102680000D02*
X209275000Y-103030000D01*
X208555000Y-102680000D02*
X208555000Y-103030000D01*
X207585000Y-102680000D02*
X217865000Y-102680000D01*
X207585000Y-104140000D02*
X207585000Y-105250000D01*
X207585000Y-105250000D02*
X208915000Y-105250000D01*
%TO.C,J10B1*%
X172145000Y-131043500D02*
X172145000Y-133703500D01*
X151765000Y-131043500D02*
X172145000Y-131043500D01*
X151765000Y-131043500D02*
X151765000Y-133703500D01*
X150495000Y-131043500D02*
X149165000Y-131043500D01*
X149165000Y-131043500D02*
X149165000Y-132373500D01*
X151765000Y-133703500D02*
X172145000Y-133703500D01*
%TO.C,C1*%
X166807000Y-100838000D02*
G75*
G03*
X166807000Y-100838000I-4120000J0D01*
G01*
%TO.C,JP1*%
X186687000Y-98314000D02*
X186687000Y-100314000D01*
X186687000Y-100314000D02*
X189487000Y-100314000D01*
X189487000Y-98314000D02*
X186687000Y-98314000D01*
X189487000Y-100314000D02*
X189487000Y-98314000D01*
%TO.C,J9*%
X145464000Y-112575000D02*
X146714000Y-112575000D01*
X150484000Y-112875000D02*
X150484000Y-132995000D01*
X148374000Y-112875000D02*
X148374000Y-113485000D01*
X147074000Y-112875000D02*
X147074000Y-113485000D01*
X145764000Y-112875000D02*
X150484000Y-112875000D01*
X149874000Y-113485000D02*
X149874000Y-132385000D01*
X146374000Y-113485000D02*
X149874000Y-113485000D01*
X145464000Y-113825000D02*
X145464000Y-112575000D01*
X145564000Y-114335000D02*
X145764000Y-114335000D01*
X145764000Y-114635000D02*
X145564000Y-114635000D01*
X145664000Y-114635000D02*
X145664000Y-114335000D01*
X145564000Y-114635000D02*
X145564000Y-114335000D01*
X146374000Y-115435000D02*
X146374000Y-113485000D01*
X145764000Y-115435000D02*
X146374000Y-115435000D01*
X149874000Y-115835000D02*
X149374000Y-115835000D01*
X149374000Y-115835000D02*
X149374000Y-116035000D01*
X149874000Y-115935000D02*
X149374000Y-115935000D01*
X149374000Y-116035000D02*
X149874000Y-116035000D01*
X149874000Y-117835000D02*
X149374000Y-117835000D01*
X149374000Y-117835000D02*
X149374000Y-118035000D01*
X149874000Y-117935000D02*
X149374000Y-117935000D01*
X149374000Y-118035000D02*
X149874000Y-118035000D01*
X149874000Y-119835000D02*
X149374000Y-119835000D01*
X149374000Y-119835000D02*
X149374000Y-120035000D01*
X149874000Y-119935000D02*
X149374000Y-119935000D01*
X149374000Y-120035000D02*
X149874000Y-120035000D01*
X149874000Y-121835000D02*
X149374000Y-121835000D01*
X149374000Y-121835000D02*
X149374000Y-122035000D01*
X149874000Y-121935000D02*
X149374000Y-121935000D01*
X149374000Y-122035000D02*
X149874000Y-122035000D01*
X149874000Y-123835000D02*
X149374000Y-123835000D01*
X149374000Y-123835000D02*
X149374000Y-124035000D01*
X149874000Y-123935000D02*
X149374000Y-123935000D01*
X149374000Y-124035000D02*
X149874000Y-124035000D01*
X149874000Y-125835000D02*
X149374000Y-125835000D01*
X149374000Y-125835000D02*
X149374000Y-126035000D01*
X149874000Y-125935000D02*
X149374000Y-125935000D01*
X149374000Y-126035000D02*
X149874000Y-126035000D01*
X149874000Y-127835000D02*
X149374000Y-127835000D01*
X149374000Y-127835000D02*
X149374000Y-128035000D01*
X149874000Y-127935000D02*
X149374000Y-127935000D01*
X149374000Y-128035000D02*
X149874000Y-128035000D01*
X149874000Y-129835000D02*
X149374000Y-129835000D01*
X149374000Y-129835000D02*
X149374000Y-130035000D01*
X149874000Y-129935000D02*
X149374000Y-129935000D01*
X149374000Y-130035000D02*
X149874000Y-130035000D01*
X146374000Y-130435000D02*
X145764000Y-130435000D01*
X149874000Y-132385000D02*
X146374000Y-132385000D01*
X146374000Y-132385000D02*
X146374000Y-130435000D01*
X150484000Y-132995000D02*
X145764000Y-132995000D01*
X148374000Y-132995000D02*
X148374000Y-132385000D01*
X147074000Y-132995000D02*
X147074000Y-132385000D01*
X145764000Y-132995000D02*
X145764000Y-112875000D01*
%TO.C,J6*%
X224175000Y-129600000D02*
X215545000Y-129600000D01*
X224175000Y-127000000D02*
X215545000Y-127000000D01*
X224175000Y-124460000D02*
X215545000Y-124460000D01*
X224175000Y-121920000D02*
X215545000Y-121920000D01*
X224175000Y-121801900D02*
X215545000Y-121801900D01*
X224175000Y-121683805D02*
X215545000Y-121683805D01*
X224175000Y-121565710D02*
X215545000Y-121565710D01*
X224175000Y-121447615D02*
X215545000Y-121447615D01*
X224175000Y-121329520D02*
X215545000Y-121329520D01*
X224175000Y-121211425D02*
X215545000Y-121211425D01*
X224175000Y-121093330D02*
X215545000Y-121093330D01*
X224175000Y-120975235D02*
X215545000Y-120975235D01*
X224175000Y-120857140D02*
X215545000Y-120857140D01*
X224175000Y-120739045D02*
X215545000Y-120739045D01*
X224175000Y-120620950D02*
X215545000Y-120620950D01*
X224175000Y-120502855D02*
X215545000Y-120502855D01*
X224175000Y-120384760D02*
X215545000Y-120384760D01*
X224175000Y-120266665D02*
X215545000Y-120266665D01*
X224175000Y-120148570D02*
X215545000Y-120148570D01*
X224175000Y-120030475D02*
X215545000Y-120030475D01*
X224175000Y-119912380D02*
X215545000Y-119912380D01*
X224175000Y-119794285D02*
X215545000Y-119794285D01*
X224175000Y-119676190D02*
X215545000Y-119676190D01*
X224175000Y-119558095D02*
X215545000Y-119558095D01*
X224175000Y-119440000D02*
X215545000Y-119440000D01*
X224175000Y-119320000D02*
X224175000Y-129600000D01*
X224175000Y-119320000D02*
X215545000Y-119320000D01*
X215545000Y-128630000D02*
X215135000Y-128630000D01*
X215545000Y-127910000D02*
X215135000Y-127910000D01*
X215545000Y-126090000D02*
X215135000Y-126090000D01*
X215545000Y-125370000D02*
X215135000Y-125370000D01*
X215545000Y-123550000D02*
X215135000Y-123550000D01*
X215545000Y-122830000D02*
X215135000Y-122830000D01*
X215545000Y-121010000D02*
X215135000Y-121010000D01*
X215545000Y-120290000D02*
X215135000Y-120290000D01*
X215545000Y-119320000D02*
X215545000Y-129600000D01*
X213035000Y-128630000D02*
X212595000Y-128630000D01*
X213035000Y-127910000D02*
X212595000Y-127910000D01*
X213035000Y-126090000D02*
X212595000Y-126090000D01*
X213035000Y-125370000D02*
X212595000Y-125370000D01*
X213035000Y-123550000D02*
X212595000Y-123550000D01*
X213035000Y-122830000D02*
X212595000Y-122830000D01*
X213035000Y-121010000D02*
X212655000Y-121010000D01*
X213035000Y-120290000D02*
X212655000Y-120290000D01*
X211545000Y-119320000D02*
X210435000Y-119320000D01*
X210435000Y-119320000D02*
X210435000Y-120650000D01*
%TO.C,D1*%
X202295000Y-101945000D02*
X202295000Y-98085000D01*
X202295000Y-101945000D02*
X205415000Y-101945000D01*
X202585000Y-101945000D02*
X202585000Y-101945000D01*
X202585000Y-101945000D02*
X202585000Y-102075000D01*
X202585000Y-102075000D02*
X202585000Y-101945000D01*
X202585000Y-102075000D02*
X202585000Y-102075000D01*
X205125000Y-101945000D02*
X205125000Y-101945000D01*
X205125000Y-101945000D02*
X205125000Y-102075000D01*
X205125000Y-102075000D02*
X205125000Y-101945000D01*
X205125000Y-102075000D02*
X205125000Y-102075000D01*
X205415000Y-100825000D02*
X205415000Y-101945000D01*
X205415000Y-101945000D02*
X205415000Y-98085000D01*
X205415000Y-101945000D02*
X205815000Y-101945000D01*
X205815000Y-100825000D02*
X205415000Y-100825000D01*
X205815000Y-101945000D02*
X205815000Y-100825000D01*
X205415000Y-98085000D02*
G75*
G03*
X202295000Y-98085000I-1560000J0D01*
G01*
%TO.C,SW1*%
X199005000Y-103735000D02*
X199005000Y-98235000D01*
X199005000Y-98235000D02*
X191505000Y-98235000D01*
X197005000Y-98235000D02*
X197005000Y-96985000D01*
X197005000Y-96985000D02*
X193505000Y-96985000D01*
X193505000Y-96985000D02*
X193505000Y-98235000D01*
X191505000Y-103735000D02*
X199005000Y-103735000D01*
X191505000Y-98235000D02*
X191505000Y-103735000D01*
D12*
%TO.C,U3*%
X189230000Y-97790000D02*
X189230000Y-130810000D01*
X171450000Y-130810000D02*
X189230000Y-130810000D01*
X171450000Y-97790000D02*
X189230000Y-97790000D01*
X171450000Y-97790000D02*
X171450000Y-130810000D01*
D11*
%TO.C,J1*%
X184150000Y-107950000D02*
X185420000Y-107950000D01*
X185420000Y-107950000D02*
X185420000Y-106680000D01*
X176150000Y-105637071D02*
X176150000Y-105240000D01*
X176910000Y-105637071D02*
X176910000Y-105240000D01*
X178690000Y-105637071D02*
X178690000Y-105240000D01*
X179450000Y-105637071D02*
X179450000Y-105240000D01*
X181230000Y-105637071D02*
X181230000Y-105240000D01*
X181990000Y-105637071D02*
X181990000Y-105240000D01*
X183770000Y-105570000D02*
X183770000Y-105240000D01*
X184530000Y-105570000D02*
X184530000Y-105240000D01*
X175200000Y-105240000D02*
X175200000Y-102580000D01*
X177800000Y-105240000D02*
X177800000Y-102580000D01*
X180340000Y-105240000D02*
X180340000Y-102580000D01*
X182880000Y-105240000D02*
X182880000Y-102580000D01*
X185480000Y-105240000D02*
X175200000Y-105240000D01*
X175200000Y-102580000D02*
X185480000Y-102580000D01*
X176910000Y-102580000D02*
X176910000Y-96580000D01*
X179450000Y-102580000D02*
X179450000Y-96580000D01*
X181990000Y-102580000D02*
X181990000Y-96580000D01*
X183870000Y-102580000D02*
X183870000Y-96580000D01*
X183990000Y-102580000D02*
X183990000Y-96580000D01*
X184110000Y-102580000D02*
X184110000Y-96580000D01*
X184230000Y-102580000D02*
X184230000Y-96580000D01*
X184350000Y-102580000D02*
X184350000Y-96580000D01*
X184470000Y-102580000D02*
X184470000Y-96580000D01*
X184530000Y-102580000D02*
X184530000Y-96580000D01*
X185480000Y-102580000D02*
X185480000Y-105240000D01*
X176150000Y-96580000D02*
X176150000Y-102580000D01*
X176910000Y-96580000D02*
X176150000Y-96580000D01*
X178690000Y-96580000D02*
X178690000Y-102580000D01*
X179450000Y-96580000D02*
X178690000Y-96580000D01*
X181230000Y-96580000D02*
X181230000Y-102580000D01*
X181990000Y-96580000D02*
X181230000Y-96580000D01*
X183770000Y-96580000D02*
X183770000Y-102580000D01*
X184530000Y-96580000D02*
X183770000Y-96580000D01*
%TO.C,J5*%
X224085000Y-117535000D02*
X215455000Y-117535000D01*
X224085000Y-114935000D02*
X215455000Y-114935000D01*
X224085000Y-112395000D02*
X215455000Y-112395000D01*
X224085000Y-109855000D02*
X215455000Y-109855000D01*
X224085000Y-109736900D02*
X215455000Y-109736900D01*
X224085000Y-109618805D02*
X215455000Y-109618805D01*
X224085000Y-109500710D02*
X215455000Y-109500710D01*
X224085000Y-109382615D02*
X215455000Y-109382615D01*
X224085000Y-109264520D02*
X215455000Y-109264520D01*
X224085000Y-109146425D02*
X215455000Y-109146425D01*
X224085000Y-109028330D02*
X215455000Y-109028330D01*
X224085000Y-108910235D02*
X215455000Y-108910235D01*
X224085000Y-108792140D02*
X215455000Y-108792140D01*
X224085000Y-108674045D02*
X215455000Y-108674045D01*
X224085000Y-108555950D02*
X215455000Y-108555950D01*
X224085000Y-108437855D02*
X215455000Y-108437855D01*
X224085000Y-108319760D02*
X215455000Y-108319760D01*
X224085000Y-108201665D02*
X215455000Y-108201665D01*
X224085000Y-108083570D02*
X215455000Y-108083570D01*
X224085000Y-107965475D02*
X215455000Y-107965475D01*
X224085000Y-107847380D02*
X215455000Y-107847380D01*
X224085000Y-107729285D02*
X215455000Y-107729285D01*
X224085000Y-107611190D02*
X215455000Y-107611190D01*
X224085000Y-107493095D02*
X215455000Y-107493095D01*
X224085000Y-107375000D02*
X215455000Y-107375000D01*
X224085000Y-107255000D02*
X224085000Y-117535000D01*
X224085000Y-107255000D02*
X215455000Y-107255000D01*
X215455000Y-116565000D02*
X215045000Y-116565000D01*
X215455000Y-115845000D02*
X215045000Y-115845000D01*
X215455000Y-114025000D02*
X215045000Y-114025000D01*
X215455000Y-113305000D02*
X215045000Y-113305000D01*
X215455000Y-111485000D02*
X215045000Y-111485000D01*
X215455000Y-110765000D02*
X215045000Y-110765000D01*
X215455000Y-108945000D02*
X215105000Y-108945000D01*
X215455000Y-108225000D02*
X215105000Y-108225000D01*
X215455000Y-107255000D02*
X215455000Y-117535000D01*
X213995000Y-107255000D02*
X212885000Y-107255000D01*
X212885000Y-107255000D02*
X212885000Y-108585000D01*
%TO.C,R2*%
X191547000Y-121524000D02*
X191547000Y-125364000D01*
X189707000Y-121524000D02*
X189707000Y-125364000D01*
%TO.C,J9B1*%
X146364000Y-134172000D02*
X143704000Y-134172000D01*
X146364000Y-113792000D02*
X146364000Y-134172000D01*
X146364000Y-113792000D02*
X143704000Y-113792000D01*
X146364000Y-112522000D02*
X146364000Y-111192000D01*
X146364000Y-111192000D02*
X145034000Y-111192000D01*
X143704000Y-113792000D02*
X143704000Y-134172000D01*
%TO.C,R1*%
X203185000Y-107030000D02*
X207025000Y-107030000D01*
X203185000Y-108870000D02*
X207025000Y-108870000D01*
%TO.C,J4*%
X140970000Y-108585000D02*
X140970000Y-107315000D01*
X140970000Y-107315000D02*
X139700000Y-107315000D01*
X138657071Y-116585000D02*
X138260000Y-116585000D01*
X138657071Y-115825000D02*
X138260000Y-115825000D01*
X138657071Y-114045000D02*
X138260000Y-114045000D01*
X138657071Y-113285000D02*
X138260000Y-113285000D01*
X138657071Y-111505000D02*
X138260000Y-111505000D01*
X138657071Y-110745000D02*
X138260000Y-110745000D01*
X138590000Y-108965000D02*
X138260000Y-108965000D01*
X138590000Y-108205000D02*
X138260000Y-108205000D01*
X138260000Y-117535000D02*
X135600000Y-117535000D01*
X138260000Y-114935000D02*
X135600000Y-114935000D01*
X138260000Y-112395000D02*
X135600000Y-112395000D01*
X138260000Y-109855000D02*
X135600000Y-109855000D01*
X138260000Y-107255000D02*
X138260000Y-117535000D01*
X135600000Y-117535000D02*
X135600000Y-107255000D01*
X135600000Y-115825000D02*
X129600000Y-115825000D01*
X135600000Y-113285000D02*
X129600000Y-113285000D01*
X135600000Y-110745000D02*
X129600000Y-110745000D01*
X135600000Y-108865000D02*
X129600000Y-108865000D01*
X135600000Y-108745000D02*
X129600000Y-108745000D01*
X135600000Y-108625000D02*
X129600000Y-108625000D01*
X135600000Y-108505000D02*
X129600000Y-108505000D01*
X135600000Y-108385000D02*
X129600000Y-108385000D01*
X135600000Y-108265000D02*
X129600000Y-108265000D01*
X135600000Y-108205000D02*
X129600000Y-108205000D01*
X135600000Y-107255000D02*
X138260000Y-107255000D01*
X129600000Y-116585000D02*
X135600000Y-116585000D01*
X129600000Y-115825000D02*
X129600000Y-116585000D01*
X129600000Y-114045000D02*
X135600000Y-114045000D01*
X129600000Y-113285000D02*
X129600000Y-114045000D01*
X129600000Y-111505000D02*
X135600000Y-111505000D01*
X129600000Y-110745000D02*
X129600000Y-111505000D01*
X129600000Y-108965000D02*
X135600000Y-108965000D01*
X129600000Y-108205000D02*
X129600000Y-108965000D01*
%TO.C,J2*%
X208915000Y-130810000D02*
X207645000Y-130810000D01*
X207645000Y-130810000D02*
X207645000Y-132080000D01*
X216915000Y-133122929D02*
X216915000Y-133520000D01*
X216155000Y-133122929D02*
X216155000Y-133520000D01*
X214375000Y-133122929D02*
X214375000Y-133520000D01*
X213615000Y-133122929D02*
X213615000Y-133520000D01*
X211835000Y-133122929D02*
X211835000Y-133520000D01*
X211075000Y-133122929D02*
X211075000Y-133520000D01*
X209295000Y-133190000D02*
X209295000Y-133520000D01*
X208535000Y-133190000D02*
X208535000Y-133520000D01*
X217865000Y-133520000D02*
X217865000Y-136180000D01*
X215265000Y-133520000D02*
X215265000Y-136180000D01*
X212725000Y-133520000D02*
X212725000Y-136180000D01*
X210185000Y-133520000D02*
X210185000Y-136180000D01*
X207585000Y-133520000D02*
X217865000Y-133520000D01*
X217865000Y-136180000D02*
X207585000Y-136180000D01*
X216155000Y-136180000D02*
X216155000Y-142180000D01*
X213615000Y-136180000D02*
X213615000Y-142180000D01*
X211075000Y-136180000D02*
X211075000Y-142180000D01*
X209195000Y-136180000D02*
X209195000Y-142180000D01*
X209075000Y-136180000D02*
X209075000Y-142180000D01*
X208955000Y-136180000D02*
X208955000Y-142180000D01*
X208835000Y-136180000D02*
X208835000Y-142180000D01*
X208715000Y-136180000D02*
X208715000Y-142180000D01*
X208595000Y-136180000D02*
X208595000Y-142180000D01*
X208535000Y-136180000D02*
X208535000Y-142180000D01*
X207585000Y-136180000D02*
X207585000Y-133520000D01*
X216915000Y-142180000D02*
X216915000Y-136180000D01*
X216155000Y-142180000D02*
X216915000Y-142180000D01*
X214375000Y-142180000D02*
X214375000Y-136180000D01*
X213615000Y-142180000D02*
X214375000Y-142180000D01*
X211835000Y-142180000D02*
X211835000Y-136180000D01*
X211075000Y-142180000D02*
X211835000Y-142180000D01*
X209295000Y-142180000D02*
X209295000Y-136180000D01*
X208535000Y-142180000D02*
X209295000Y-142180000D01*
%TD*%
M02*
