%TF.GenerationSoftware,KiCad,Pcbnew,7.0.5*%
%TF.CreationDate,2023-08-30T18:26:20+02:00*%
%TF.ProjectId,Angle&Ana,416e676c-6526-4416-9e61-2e6b69636164,1.0*%
%TF.SameCoordinates,Original*%
%TF.FileFunction,Copper,L2,Bot*%
%TF.FilePolarity,Positive*%
%FSLAX46Y46*%
G04 Gerber Fmt 4.6, Leading zero omitted, Abs format (unit mm)*
G04 Created by KiCad (PCBNEW 7.0.5) date 2023-08-30 18:26:20*
%MOMM*%
%LPD*%
G01*
G04 APERTURE LIST*
G04 Aperture macros list*
%AMRoundRect*
0 Rectangle with rounded corners*
0 $1 Rounding radius*
0 $2 $3 $4 $5 $6 $7 $8 $9 X,Y pos of 4 corners*
0 Add a 4 corners polygon primitive as box body*
4,1,4,$2,$3,$4,$5,$6,$7,$8,$9,$2,$3,0*
0 Add four circle primitives for the rounded corners*
1,1,$1+$1,$2,$3*
1,1,$1+$1,$4,$5*
1,1,$1+$1,$6,$7*
1,1,$1+$1,$8,$9*
0 Add four rect primitives between the rounded corners*
20,1,$1+$1,$2,$3,$4,$5,0*
20,1,$1+$1,$4,$5,$6,$7,0*
20,1,$1+$1,$6,$7,$8,$9,0*
20,1,$1+$1,$8,$9,$2,$3,0*%
%AMHorizOval*
0 Thick line with rounded ends*
0 $1 width*
0 $2 $3 position (X,Y) of the first rounded end (center of the circle)*
0 $4 $5 position (X,Y) of the second rounded end (center of the circle)*
0 Add line between two ends*
20,1,$1,$2,$3,$4,$5,0*
0 Add two circle primitives to create the rounded ends*
1,1,$1,$2,$3*
1,1,$1,$4,$5*%
%AMRotRect*
0 Rectangle, with rotation*
0 The origin of the aperture is its center*
0 $1 length*
0 $2 width*
0 $3 Rotation angle, in degrees counterclockwise*
0 Add horizontal line*
21,1,$1,$2,0,0,$3*%
G04 Aperture macros list end*
%TA.AperFunction,ComponentPad*%
%ADD10HorizOval,1.700000X0.000000X0.000000X0.000000X0.000000X0*%
%TD*%
%TA.AperFunction,ComponentPad*%
%ADD11RotRect,1.700000X1.700000X315.000000*%
%TD*%
%TA.AperFunction,ComponentPad*%
%ADD12C,1.524000*%
%TD*%
%TA.AperFunction,ComponentPad*%
%ADD13O,1.700000X1.700000*%
%TD*%
%TA.AperFunction,ComponentPad*%
%ADD14R,1.700000X1.700000*%
%TD*%
%TA.AperFunction,ComponentPad*%
%ADD15C,1.600000*%
%TD*%
%TA.AperFunction,ComponentPad*%
%ADD16O,1.600000X1.600000*%
%TD*%
%TA.AperFunction,ComponentPad*%
%ADD17R,1.600000X1.600000*%
%TD*%
%TA.AperFunction,ComponentPad*%
%ADD18O,1.200000X1.750000*%
%TD*%
%TA.AperFunction,ComponentPad*%
%ADD19RoundRect,0.250000X-0.350000X-0.625000X0.350000X-0.625000X0.350000X0.625000X-0.350000X0.625000X0*%
%TD*%
%TA.AperFunction,ComponentPad*%
%ADD20O,1.750000X1.200000*%
%TD*%
%TA.AperFunction,ComponentPad*%
%ADD21RoundRect,0.250000X-0.625000X0.350000X-0.625000X-0.350000X0.625000X-0.350000X0.625000X0.350000X0*%
%TD*%
%TA.AperFunction,ComponentPad*%
%ADD22C,1.800000*%
%TD*%
%TA.AperFunction,ComponentPad*%
%ADD23R,1.800000X1.800000*%
%TD*%
%TA.AperFunction,ComponentPad*%
%ADD24C,2.000000*%
%TD*%
%TA.AperFunction,ComponentPad*%
%ADD25C,1.727200*%
%TD*%
%TA.AperFunction,ComponentPad*%
%ADD26R,1.727200X1.727200*%
%TD*%
%TA.AperFunction,ComponentPad*%
%ADD27O,1.400000X1.400000*%
%TD*%
%TA.AperFunction,ComponentPad*%
%ADD28C,1.400000*%
%TD*%
%TA.AperFunction,ViaPad*%
%ADD29C,0.800000*%
%TD*%
%TA.AperFunction,Conductor*%
%ADD30C,0.310000*%
%TD*%
%TA.AperFunction,Conductor*%
%ADD31C,1.000000*%
%TD*%
G04 APERTURE END LIST*
D10*
%TO.P,U2,3,GND*%
%TO.N,GND*%
X52338954Y20903943D03*
%TO.P,U2,2,Vout*%
%TO.N,Net-(U1-XTAL2{slash}PB4)*%
X54135005Y22699995D03*
D11*
%TO.P,U2,1,Vin*%
%TO.N,+5V*%
X55931057Y24496046D03*
%TD*%
D10*
%TO.P,U4,3,GND*%
%TO.N,GND*%
X10430454Y20903943D03*
%TO.P,U4,2,Vout*%
%TO.N,Net-(U1-XTAL2{slash}PB4)*%
X12226505Y22699995D03*
D11*
%TO.P,U4,1,Vin*%
%TO.N,+5V*%
X14022557Y24496046D03*
%TD*%
D12*
%TO.P,RV1,7*%
%TO.N,N/C*%
X44255000Y29350000D03*
%TO.P,RV1,6*%
X44255000Y4150000D03*
%TO.P,RV1,5*%
X35755000Y28150000D03*
%TO.P,RV1,4*%
X35755000Y5350000D03*
%TO.P,RV1,3,3*%
%TO.N,GND*%
X38255000Y33500000D03*
%TO.P,RV1,2,2*%
%TO.N,/IN_HALL_SENSOR*%
X41755000Y0D03*
%TO.P,RV1,1,1*%
%TO.N,+5V*%
X38255000Y0D03*
%TD*%
D13*
%TO.P,J7,8,Pin_8*%
%TO.N,/C9*%
X-700000Y3810000D03*
%TO.P,J7,7,Pin_7*%
%TO.N,/C10*%
X1840000Y3810000D03*
%TO.P,J7,6,Pin_6*%
%TO.N,/C11*%
X-700000Y6350000D03*
%TO.P,J7,5,Pin_5*%
%TO.N,/C12*%
X1840000Y6350000D03*
%TO.P,J7,4,Pin_4*%
%TO.N,/C13*%
X-700000Y8890000D03*
%TO.P,J7,3,Pin_3*%
%TO.N,/C14*%
X1840000Y8890000D03*
%TO.P,J7,2,Pin_2*%
%TO.N,/C15*%
X-700000Y11430000D03*
D14*
%TO.P,J7,1,Pin_1*%
%TO.N,/C16*%
X1840000Y11430000D03*
%TD*%
D15*
%TO.P,C2,2*%
%TO.N,GND*%
X53340000Y6270000D03*
%TO.P,C2,1*%
%TO.N,+5V*%
X53340000Y1270000D03*
%TD*%
%TO.P,C3,2*%
%TO.N,GND*%
X28702000Y27980000D03*
%TO.P,C3,1*%
%TO.N,Net-(J1-Pin_4)*%
X28702000Y32980000D03*
%TD*%
D16*
%TO.P,U1,8,VCC*%
%TO.N,+5V*%
X57150000Y-635000D03*
%TO.P,U1,7,PB2*%
%TO.N,/SCL*%
X59690000Y-635000D03*
%TO.P,U1,6,PB1*%
%TO.N,Net-(D1-A)*%
X62230000Y-635000D03*
%TO.P,U1,5,AREF/PB0*%
%TO.N,/SDA*%
X64770000Y-635000D03*
%TO.P,U1,4,GND*%
%TO.N,GND*%
X64770000Y6985000D03*
%TO.P,U1,3,XTAL2/PB4*%
%TO.N,Net-(U1-XTAL2{slash}PB4)*%
X62230000Y6985000D03*
%TO.P,U1,2,XTAL1/PB3*%
%TO.N,/IN_HALL_SENSOR*%
X59690000Y6985000D03*
D17*
%TO.P,U1,1,~{RESET}/PB5*%
%TO.N,unconnected-(U1-~{RESET}{slash}PB5-Pad1)*%
X57150000Y6985000D03*
%TD*%
D18*
%TO.P,J10,9,Pin_9*%
%TO.N,GND*%
X27940000Y0D03*
%TO.P,J10,8,Pin_8*%
%TO.N,/C8*%
X25940000Y0D03*
%TO.P,J10,7,Pin_7*%
%TO.N,/C7*%
X23940000Y0D03*
%TO.P,J10,6,Pin_6*%
%TO.N,/C6*%
X21940000Y0D03*
%TO.P,J10,5,Pin_5*%
%TO.N,/C5*%
X19940000Y0D03*
%TO.P,J10,4,Pin_4*%
%TO.N,/C4*%
X17940000Y0D03*
%TO.P,J10,3,Pin_3*%
%TO.N,/C3*%
X15940000Y0D03*
%TO.P,J10,2,Pin_2*%
%TO.N,/C2*%
X13940000Y0D03*
D19*
%TO.P,J10,1,Pin_1*%
%TO.N,/C1*%
X11940000Y0D03*
%TD*%
D13*
%TO.P,SW2,3,C*%
%TO.N,+VDC*%
X23607000Y25400000D03*
%TO.P,SW2,2,B*%
%TO.N,Net-(J1-Pin_4)*%
X26147000Y25400000D03*
D14*
%TO.P,SW2,1,A*%
%TO.N,+5V*%
X28687000Y25400000D03*
%TD*%
D13*
%TO.P,J3,4,Pin_4*%
%TO.N,GND*%
X76200000Y27940000D03*
%TO.P,J3,3,Pin_3*%
%TO.N,+5V*%
X73660000Y27940000D03*
%TO.P,J3,2,Pin_2*%
%TO.N,/SCL*%
X71120000Y27940000D03*
D14*
%TO.P,J3,1,Pin_1*%
%TO.N,/SDA*%
X68580000Y27940000D03*
%TD*%
D15*
%TO.P,C1,2*%
%TO.N,GND*%
X22352000Y29492000D03*
%TO.P,C1,1*%
%TO.N,Net-(J1-Pin_4)*%
X22352000Y32992000D03*
%TD*%
D20*
%TO.P,J9,9,Pin_9*%
%TO.N,GND*%
X5715000Y1270000D03*
%TO.P,J9,8,Pin_8*%
%TO.N,/C9*%
X5715000Y3270000D03*
%TO.P,J9,7,Pin_7*%
%TO.N,/C10*%
X5715000Y5270000D03*
%TO.P,J9,6,Pin_6*%
%TO.N,/C11*%
X5715000Y7270000D03*
%TO.P,J9,5,Pin_5*%
%TO.N,/C12*%
X5715000Y9270000D03*
%TO.P,J9,4,Pin_4*%
%TO.N,/C13*%
X5715000Y11270000D03*
%TO.P,J9,3,Pin_3*%
%TO.N,/C14*%
X5715000Y13270000D03*
%TO.P,J9,2,Pin_2*%
%TO.N,/C15*%
X5715000Y15270000D03*
D21*
%TO.P,J9,1,Pin_1*%
%TO.N,/C16*%
X5715000Y17270000D03*
%TD*%
D13*
%TO.P,J6,8,Pin_8*%
%TO.N,/C9*%
X73750000Y3810000D03*
%TO.P,J6,7,Pin_7*%
%TO.N,/C10*%
X71210000Y3810000D03*
%TO.P,J6,6,Pin_6*%
%TO.N,Net-(J6-Pin_6)*%
X73750000Y6350000D03*
%TO.P,J6,5,Pin_5*%
%TO.N,Net-(J6-Pin_5)*%
X71210000Y6350000D03*
%TO.P,J6,4,Pin_4*%
%TO.N,Net-(J6-Pin_4)*%
X73750000Y8890000D03*
%TO.P,J6,3,Pin_3*%
%TO.N,Net-(J6-Pin_3)*%
X71210000Y8890000D03*
%TO.P,J6,2,Pin_2*%
%TO.N,Net-(J6-Pin_2)*%
X73750000Y11430000D03*
D14*
%TO.P,J6,1,Pin_1*%
%TO.N,Net-(J6-Pin_1)*%
X71210000Y11430000D03*
%TD*%
D22*
%TO.P,D1,2,A*%
%TO.N,Net-(D1-A)*%
X64790000Y28925000D03*
D23*
%TO.P,D1,1,K*%
%TO.N,Net-(D1-K)*%
X62250000Y28925000D03*
%TD*%
D24*
%TO.P,SW1,4*%
%TO.N,N/C*%
X51420000Y29845000D03*
%TO.P,SW1,3*%
X58420000Y29845000D03*
%TO.P,SW1,2,2*%
%TO.N,GND*%
X52670000Y32345000D03*
%TO.P,SW1,1,1*%
%TO.N,/SDA*%
X57170000Y32345000D03*
%TD*%
D25*
%TO.P,U3,Vcc1,Vcc*%
%TO.N,+5V*%
X32385000Y22860000D03*
%TO.P,U3,RST2,RESET*%
%TO.N,unconnected-(U3-RESET-PadRST2)*%
X32385000Y25400000D03*
%TO.P,U3,RST1,RESET*%
%TO.N,unconnected-(U3-RESET-PadRST1)*%
X47625000Y25400000D03*
%TO.P,U3,RAW,RAW*%
%TO.N,+VDC*%
X32385000Y30480000D03*
D26*
%TO.P,U3,GND2,GND*%
%TO.N,GND*%
X32385000Y27940000D03*
D25*
X40005000Y2540000D03*
D26*
%TO.P,U3,GND1,GND*%
X47625000Y22860000D03*
D25*
%TO.P,U3,D13,D13_SCK*%
%TO.N,/C10*%
X32385000Y10160000D03*
%TO.P,U3,D12,D12_MISO*%
%TO.N,/C9*%
X32385000Y7620000D03*
%TO.P,U3,D11,D11_MOSI*%
%TO.N,/C8*%
X32385000Y5080000D03*
%TO.P,U3,D10,D10_CS*%
%TO.N,/C7*%
X32385000Y2540000D03*
%TO.P,U3,D9,D9*%
%TO.N,/CPPM_IN*%
X47625000Y2540000D03*
%TO.P,U3,D8,D8*%
%TO.N,/CPPM_OUT*%
X47625000Y5080000D03*
%TO.P,U3,D7,D7*%
%TO.N,/C6*%
X47625000Y7620000D03*
%TO.P,U3,D6,D6*%
%TO.N,/C5*%
X47625000Y10160000D03*
%TO.P,U3,D5,D5*%
%TO.N,/C4*%
X47625000Y12700000D03*
%TO.P,U3,D4,D4*%
%TO.N,/C3*%
X47625000Y15240000D03*
%TO.P,U3,D3,D3_INT1*%
%TO.N,/C2*%
X47625000Y17780000D03*
%TO.P,U3,D2,D2_INT0*%
%TO.N,/C1*%
X47625000Y20320000D03*
%TO.P,U3,D1,D1/TX*%
%TO.N,unconnected-(U3-D1{slash}TX-PadD1)*%
X47625000Y30480000D03*
%TO.P,U3,D0,D0/RX*%
%TO.N,unconnected-(U3-D0{slash}RX-PadD0)*%
X47625000Y27940000D03*
%TO.P,U3,A7,A7*%
%TO.N,Net-(J6-Pin_1)*%
X34925000Y2540000D03*
X35310900Y11296000D03*
%TO.P,U3,A6,A6*%
%TO.N,Net-(J6-Pin_2)*%
X35310900Y8755400D03*
X37465000Y2540000D03*
%TO.P,U3,A5,A5/SCL*%
%TO.N,/SCL*%
X35310900Y21709400D03*
%TO.P,U3,A4,A4/SDA*%
%TO.N,/SDA*%
X35310900Y19169400D03*
%TO.P,U3,A3,A3*%
%TO.N,Net-(J6-Pin_3)*%
X32385000Y20320000D03*
%TO.P,U3,A2,A2*%
%TO.N,Net-(J6-Pin_4)*%
X32385000Y17780000D03*
%TO.P,U3,A1,A1*%
%TO.N,Net-(J6-Pin_5)*%
X32385000Y15240000D03*
%TO.P,U3,A0,A0*%
%TO.N,Net-(J6-Pin_6)*%
X32385000Y12700000D03*
%TD*%
D13*
%TO.P,J1,4,Pin_4*%
%TO.N,Net-(J1-Pin_4)*%
X36195000Y25400000D03*
%TO.P,J1,3,Pin_3*%
%TO.N,GND*%
X38735000Y25400000D03*
%TO.P,J1,2,Pin_2*%
%TO.N,/CPPM_OUT*%
X41275000Y25400000D03*
D14*
%TO.P,J1,1,Pin_1*%
%TO.N,/CPPM_IN*%
X43815000Y25400000D03*
%TD*%
D13*
%TO.P,J5,4,Pin_4*%
%TO.N,GND*%
X73660000Y15875000D03*
%TO.P,J5,3,Pin_3*%
%TO.N,+5V*%
X73660000Y18415000D03*
%TO.P,J5,2,Pin_2*%
%TO.N,/SCL*%
X73660000Y20955000D03*
D14*
%TO.P,J5,1,Pin_1*%
%TO.N,/SDA*%
X73660000Y23495000D03*
%TD*%
D27*
%TO.P,R1,2*%
%TO.N,GND*%
X69850000Y24130000D03*
D28*
%TO.P,R1,1*%
%TO.N,Net-(D1-K)*%
X64770000Y24130000D03*
%TD*%
D13*
%TO.P,J4,4,Pin_4*%
%TO.N,GND*%
X-635000Y15875000D03*
%TO.P,J4,3,Pin_3*%
%TO.N,+5V*%
X-635000Y18415000D03*
%TO.P,J4,2,Pin_2*%
%TO.N,/SCL*%
X-635000Y20955000D03*
D14*
%TO.P,J4,1,Pin_1*%
%TO.N,/SDA*%
X-635000Y23495000D03*
%TD*%
D13*
%TO.P,J2,4,Pin_4*%
%TO.N,GND*%
X76200000Y0D03*
%TO.P,J2,3,Pin_3*%
%TO.N,+5V*%
X73660000Y0D03*
%TO.P,J2,2,Pin_2*%
%TO.N,/SCL*%
X71120000Y0D03*
D14*
%TO.P,J2,1,Pin_1*%
%TO.N,/SDA*%
X68580000Y0D03*
%TD*%
D29*
%TO.N,Net-(D1-A)*%
X66040000Y508000D03*
%TO.N,Net-(U1-XTAL2{slash}PB4)*%
X31369000Y24088600D03*
X27432000Y22606000D03*
%TO.N,/IN_HALL_SENSOR*%
X58928000Y3429000D03*
%TO.N,/SDA*%
X5842000Y21209000D03*
X36703000Y26924000D03*
%TO.N,/C8*%
X25940000Y3824500D03*
%TO.N,/C9*%
X45466000Y-635000D03*
X37465000Y7620000D03*
X18923000Y2286000D03*
%TO.N,/C10*%
X40894000Y12573000D03*
X43180000Y1905000D03*
X16891000Y3302000D03*
%TO.N,/SCL*%
X27432000Y21590000D03*
X50038000Y21590000D03*
X4826000Y22479000D03*
%TO.N,Net-(J6-Pin_3)*%
X43815000Y20574000D03*
X45085000Y8890000D03*
%TO.N,Net-(J6-Pin_4)*%
X43815000Y19050000D03*
X45085000Y6350000D03*
%TO.N,Net-(J6-Pin_5)*%
X43180000Y17145000D03*
X43815000Y5715000D03*
%TO.N,Net-(J6-Pin_6)*%
X41910000Y15240000D03*
X43180000Y3175000D03*
%TD*%
D30*
%TO.N,/SDA*%
X5080000Y23495000D02*
X-635000Y23495000D01*
X5842000Y22733000D02*
X5080000Y23495000D01*
X5842000Y21209000D02*
X5842000Y22733000D01*
%TO.N,/SCL*%
X889000Y22479000D02*
X-635000Y20955000D01*
X4826000Y22479000D02*
X889000Y22479000D01*
%TO.N,Net-(D1-K)*%
X62250000Y28925000D02*
X62250000Y26650000D01*
X62250000Y26650000D02*
X64770000Y24130000D01*
%TO.N,Net-(D1-A)*%
X66040000Y1397000D02*
X68955000Y4312000D01*
X64770000Y26797000D02*
X64790000Y26817000D01*
X64790000Y26817000D02*
X64790000Y28925000D01*
X68955000Y22612000D02*
X64770000Y26797000D01*
X68955000Y4312000D02*
X68955000Y22612000D01*
X66040000Y508000D02*
X66040000Y1397000D01*
%TO.N,Net-(U1-XTAL2{slash}PB4)*%
X29845000Y22606000D02*
X31327600Y24088600D01*
X54135005Y11142995D02*
X54135005Y22699995D01*
X57128000Y8150000D02*
X54135005Y11142995D01*
X61065000Y8150000D02*
X57128000Y8150000D01*
X31327600Y24088600D02*
X31369000Y24088600D01*
X62230000Y6985000D02*
X61065000Y8150000D01*
X27432000Y22606000D02*
X29845000Y22606000D01*
%TO.N,/IN_HALL_SENSOR*%
X58928000Y3429000D02*
X58928000Y6223000D01*
X58928000Y6223000D02*
X59690000Y6985000D01*
%TO.N,/SDA*%
X37410000Y21268500D02*
X35310900Y19169400D01*
X69475000Y20580000D02*
X69475000Y895000D01*
X37410000Y26217000D02*
X37410000Y21268500D01*
X72390000Y23495000D02*
X69475000Y20580000D01*
X69475000Y895000D02*
X68580000Y0D01*
X36703000Y26924000D02*
X37410000Y26217000D01*
X73660000Y23495000D02*
X72390000Y23495000D01*
%TO.N,/C8*%
X25940000Y3810000D02*
X25940000Y0D01*
X25940000Y3810000D02*
X25940000Y3824500D01*
%TO.N,/C9*%
X8096000Y3270000D02*
X5715000Y3270000D01*
X18923000Y2286000D02*
X9144000Y2286000D01*
X41233600Y3851400D02*
X37465000Y7620000D01*
X9144000Y2286000D02*
X8128000Y3302000D01*
X44638126Y-635000D02*
X41233600Y2769526D01*
X41233600Y2769526D02*
X41233600Y3851400D01*
X45466000Y-635000D02*
X44638126Y-635000D01*
X8128000Y3302000D02*
X8096000Y3270000D01*
%TO.N,/C10*%
X10287000Y3302000D02*
X8319000Y5270000D01*
X8319000Y5270000D02*
X5715000Y5270000D01*
X16891000Y3302000D02*
X10287000Y3302000D01*
X41910000Y11557000D02*
X41910000Y3175000D01*
X40894000Y12573000D02*
X41910000Y11557000D01*
X41910000Y3175000D02*
X43180000Y1905000D01*
%TO.N,/SCL*%
X71501000Y20955000D02*
X69995000Y19449000D01*
X73660000Y20955000D02*
X71501000Y20955000D01*
X69995000Y19449000D02*
X69995000Y1125000D01*
X50038000Y21590000D02*
X50038000Y6477000D01*
X54927500Y1587500D02*
X57467500Y1587500D01*
X50038000Y6477000D02*
X54927500Y1587500D01*
X27432000Y21590000D02*
X35191500Y21590000D01*
X35191500Y21590000D02*
X35310900Y21709400D01*
X69995000Y1125000D02*
X71120000Y0D01*
X57467500Y1587500D02*
X59690000Y-635000D01*
%TO.N,/CPPM_OUT*%
X45847000Y9209874D02*
X45847000Y20828000D01*
X45850000Y9206874D02*
X45847000Y9209874D01*
X47625000Y5080000D02*
X45847000Y6858000D01*
X45847000Y8570126D02*
X45850000Y8573126D01*
X45850000Y8573126D02*
X45850000Y9206874D01*
X45847000Y20828000D02*
X41275000Y25400000D01*
X45847000Y6858000D02*
X45847000Y8570126D01*
%TO.N,/CPPM_IN*%
X48853600Y8169400D02*
X48091600Y8931400D01*
X43815000Y23876000D02*
X43815000Y25400000D01*
X46396400Y9651097D02*
X46396400Y21294600D01*
X47116097Y8931400D02*
X46396400Y9651097D01*
X48091600Y8931400D02*
X47116097Y8931400D01*
X48853600Y3768600D02*
X48853600Y8169400D01*
X46396400Y21294600D02*
X43815000Y23876000D01*
X47625000Y2540000D02*
X48853600Y3768600D01*
%TO.N,Net-(J6-Pin_1)*%
X33782000Y3683000D02*
X33782000Y9767100D01*
X34925000Y2540000D02*
X33782000Y3683000D01*
X33782000Y9767100D02*
X35310900Y11296000D01*
%TO.N,Net-(J6-Pin_2)*%
X34417000Y4863400D02*
X34417000Y7861500D01*
X34417000Y7861500D02*
X35310900Y8755400D01*
X35343400Y3937000D02*
X34417000Y4863400D01*
X37465000Y2540000D02*
X36068000Y3937000D01*
X36068000Y3937000D02*
X35343400Y3937000D01*
%TO.N,Net-(J6-Pin_3)*%
X45085000Y8890000D02*
X45085000Y19304000D01*
X45085000Y19304000D02*
X43815000Y20574000D01*
%TO.N,Net-(J6-Pin_4)*%
X44320000Y18545000D02*
X44320000Y7115000D01*
X43815000Y19050000D02*
X44320000Y18545000D01*
X44320000Y7115000D02*
X45085000Y6350000D01*
%TO.N,Net-(J6-Pin_5)*%
X43434000Y16891000D02*
X43434000Y6096000D01*
X43180000Y17145000D02*
X43434000Y16891000D01*
X43434000Y6096000D02*
X43815000Y5715000D01*
%TO.N,Net-(J6-Pin_6)*%
X42672000Y14478000D02*
X42672000Y3683000D01*
X42672000Y3683000D02*
X43180000Y3175000D01*
X41910000Y15240000D02*
X42672000Y14478000D01*
D31*
%TO.N,Net-(J1-Pin_4)*%
X26147000Y29197000D02*
X26147000Y25400000D01*
X22352000Y32992000D02*
X26147000Y29197000D01*
%TD*%
%TA.AperFunction,Conductor*%
%TO.N,GND*%
G36*
X77641539Y35667315D02*
G01*
X77687294Y35614511D01*
X77698499Y35563000D01*
X77698500Y33663286D01*
X77698500Y33663285D01*
X77698500Y33655000D01*
X77698500Y33515180D01*
X77732207Y33237579D01*
X77775639Y33061368D01*
X77799130Y32966060D01*
X77898293Y32704591D01*
X77898294Y32704590D01*
X78028243Y32456993D01*
X78028249Y32456984D01*
X78182730Y32233179D01*
X78187100Y32226849D01*
X78372535Y32017535D01*
X78581849Y31832100D01*
X78811988Y31673246D01*
X78842184Y31657398D01*
X79059589Y31543295D01*
X79059590Y31543294D01*
X79059594Y31543293D01*
X79059597Y31543291D01*
X79192353Y31492943D01*
X79321059Y31444131D01*
X79321061Y31444131D01*
X79321065Y31444129D01*
X79592579Y31377207D01*
X79821029Y31349468D01*
X79870178Y31343500D01*
X79870180Y31343500D01*
X80004928Y31343500D01*
X81918000Y31343500D01*
X81985039Y31323815D01*
X82030794Y31271011D01*
X82042000Y31219500D01*
X82042000Y2435500D01*
X82022315Y2368461D01*
X81969511Y2322706D01*
X81918000Y2311500D01*
X79870178Y2311500D01*
X79731379Y2294647D01*
X79592579Y2277793D01*
X79455824Y2244086D01*
X79321059Y2210870D01*
X79059590Y2111707D01*
X79059589Y2111706D01*
X78811992Y1981757D01*
X78811983Y1981751D01*
X78581852Y1822903D01*
X78372535Y1637465D01*
X78187097Y1428148D01*
X78028249Y1198017D01*
X78028243Y1198008D01*
X77898294Y950411D01*
X77898293Y950410D01*
X77799130Y688941D01*
X77732205Y417413D01*
X77731531Y413732D01*
X77729946Y414023D01*
X77704848Y355827D01*
X77646885Y316814D01*
X77577031Y315331D01*
X77517464Y351850D01*
X77489658Y402931D01*
X77473434Y463482D01*
X77473429Y463493D01*
X77373600Y677578D01*
X77373599Y677580D01*
X77238113Y871074D01*
X77238108Y871080D01*
X77071082Y1038106D01*
X76877578Y1173601D01*
X76663492Y1273430D01*
X76663486Y1273433D01*
X76450000Y1330636D01*
X76450000Y435502D01*
X76342315Y484680D01*
X76235763Y500000D01*
X76164237Y500000D01*
X76057685Y484680D01*
X75950000Y435502D01*
X75950000Y1330636D01*
X75949999Y1330636D01*
X75736513Y1273433D01*
X75736507Y1273430D01*
X75522422Y1173601D01*
X75522420Y1173600D01*
X75328926Y1038114D01*
X75328920Y1038109D01*
X75161891Y871080D01*
X75161890Y871078D01*
X75035131Y690048D01*
X74980554Y646423D01*
X74911055Y639231D01*
X74848701Y670753D01*
X74829752Y693344D01*
X74735722Y837268D01*
X74735715Y837275D01*
X74735715Y837277D01*
X74583243Y1002903D01*
X74583238Y1002908D01*
X74445512Y1110105D01*
X74405576Y1141189D01*
X74405575Y1141190D01*
X74405572Y1141192D01*
X74207580Y1248339D01*
X74207577Y1248341D01*
X74207574Y1248342D01*
X74207571Y1248343D01*
X74207569Y1248344D01*
X73994637Y1321444D01*
X73772569Y1358500D01*
X73547431Y1358500D01*
X73325362Y1321444D01*
X73112430Y1248344D01*
X73112419Y1248339D01*
X72914427Y1141192D01*
X72914422Y1141188D01*
X72736761Y1002908D01*
X72736756Y1002903D01*
X72584284Y837277D01*
X72584276Y837266D01*
X72493808Y698794D01*
X72440662Y653438D01*
X72371431Y644014D01*
X72308095Y673516D01*
X72286192Y698794D01*
X72212909Y810961D01*
X72195722Y837268D01*
X72195719Y837271D01*
X72195715Y837277D01*
X72043243Y1002903D01*
X72043238Y1002908D01*
X71905512Y1110105D01*
X71865576Y1141189D01*
X71865575Y1141190D01*
X71865572Y1141192D01*
X71667580Y1248339D01*
X71667577Y1248341D01*
X71667574Y1248342D01*
X71667571Y1248343D01*
X71667569Y1248344D01*
X71454637Y1321444D01*
X71232569Y1358500D01*
X71007431Y1358500D01*
X70806775Y1325018D01*
X70737410Y1333400D01*
X70698685Y1359646D01*
X70694819Y1363512D01*
X70661334Y1424835D01*
X70658500Y1451193D01*
X70658500Y2389333D01*
X70678185Y2456372D01*
X70730989Y2502127D01*
X70800147Y2512071D01*
X70822763Y2506614D01*
X70875362Y2488557D01*
X70875365Y2488556D01*
X71097431Y2451500D01*
X71322569Y2451500D01*
X71544635Y2488556D01*
X71757574Y2561658D01*
X71955576Y2668811D01*
X72133240Y2807094D01*
X72266232Y2951560D01*
X72285715Y2972724D01*
X72285715Y2972725D01*
X72285722Y2972732D01*
X72376193Y3111210D01*
X72429338Y3156563D01*
X72498569Y3165987D01*
X72561905Y3136485D01*
X72583804Y3111213D01*
X72674278Y2972732D01*
X72674283Y2972727D01*
X72674284Y2972724D01*
X72824659Y2809376D01*
X72826760Y2807094D01*
X73004424Y2668811D01*
X73004425Y2668811D01*
X73004427Y2668809D01*
X73089125Y2622973D01*
X73202426Y2561658D01*
X73415365Y2488556D01*
X73637431Y2451500D01*
X73862569Y2451500D01*
X74084635Y2488556D01*
X74297574Y2561658D01*
X74495576Y2668811D01*
X74673240Y2807094D01*
X74806232Y2951560D01*
X74825715Y2972724D01*
X74825717Y2972727D01*
X74825722Y2972732D01*
X74948860Y3161209D01*
X75039296Y3367384D01*
X75094564Y3585632D01*
X75096471Y3608648D01*
X75113156Y3809995D01*
X75113156Y3810006D01*
X75094565Y4034360D01*
X75094563Y4034372D01*
X75053619Y4196057D01*
X75039296Y4252616D01*
X74948860Y4458791D01*
X74945395Y4464094D01*
X74852357Y4606500D01*
X74825722Y4647268D01*
X74825719Y4647271D01*
X74825715Y4647277D01*
X74673243Y4812903D01*
X74673238Y4812908D01*
X74495577Y4951188D01*
X74495578Y4951188D01*
X74495576Y4951189D01*
X74459070Y4970945D01*
X74409479Y5020164D01*
X74394371Y5088381D01*
X74418541Y5153936D01*
X74459070Y5189055D01*
X74462618Y5190975D01*
X74495576Y5208811D01*
X74673240Y5347094D01*
X74803403Y5488487D01*
X74825715Y5512724D01*
X74825717Y5512727D01*
X74825722Y5512732D01*
X74948860Y5701209D01*
X75039296Y5907384D01*
X75094564Y6125632D01*
X75095453Y6136362D01*
X75113156Y6349995D01*
X75113156Y6350006D01*
X75094565Y6574360D01*
X75094563Y6574372D01*
X75091872Y6585000D01*
X75039296Y6792616D01*
X74948860Y6998791D01*
X74943188Y7007472D01*
X74825723Y7187266D01*
X74825715Y7187277D01*
X74673243Y7352903D01*
X74673238Y7352908D01*
X74495577Y7491188D01*
X74495572Y7491192D01*
X74459068Y7510947D01*
X74409478Y7560167D01*
X74394371Y7628384D01*
X74418542Y7693939D01*
X74459069Y7729055D01*
X74495576Y7748811D01*
X74673240Y7887094D01*
X74776456Y7999215D01*
X74825715Y8052724D01*
X74825717Y8052727D01*
X74825722Y8052732D01*
X74948860Y8241209D01*
X75039296Y8447384D01*
X75094564Y8665632D01*
X75096052Y8683591D01*
X75113156Y8889995D01*
X75113156Y8890006D01*
X75094565Y9114360D01*
X75094563Y9114372D01*
X75043920Y9314355D01*
X75039296Y9332616D01*
X74948860Y9538791D01*
X74932706Y9563516D01*
X74825723Y9727266D01*
X74825715Y9727277D01*
X74673243Y9892903D01*
X74673238Y9892908D01*
X74536653Y9999217D01*
X74495576Y10031189D01*
X74459070Y10050945D01*
X74409479Y10100164D01*
X74394371Y10168381D01*
X74418541Y10233936D01*
X74459070Y10269055D01*
X74463019Y10271192D01*
X74495576Y10288811D01*
X74673240Y10427094D01*
X74825722Y10592732D01*
X74948860Y10781209D01*
X75039296Y10987384D01*
X75094564Y11205632D01*
X75094565Y11205641D01*
X75113156Y11429995D01*
X75113156Y11430006D01*
X75094565Y11654360D01*
X75094563Y11654372D01*
X75062273Y11781882D01*
X75039296Y11872616D01*
X74948860Y12078791D01*
X74887952Y12172017D01*
X74868722Y12201451D01*
X74825722Y12267268D01*
X74825719Y12267271D01*
X74825715Y12267277D01*
X74673243Y12432903D01*
X74673238Y12432908D01*
X74514019Y12556834D01*
X74495576Y12571189D01*
X74495575Y12571190D01*
X74495572Y12571192D01*
X74297580Y12678339D01*
X74297577Y12678341D01*
X74297574Y12678342D01*
X74297571Y12678343D01*
X74297569Y12678344D01*
X74084637Y12751444D01*
X73862569Y12788500D01*
X73637431Y12788500D01*
X73415362Y12751444D01*
X73202430Y12678344D01*
X73202419Y12678339D01*
X73004427Y12571192D01*
X73004422Y12571188D01*
X72826761Y12432908D01*
X72763548Y12364240D01*
X72703661Y12328250D01*
X72633823Y12330351D01*
X72576207Y12369876D01*
X72556138Y12404890D01*
X72510889Y12526204D01*
X72510888Y12526205D01*
X72423261Y12643261D01*
X72306204Y12730889D01*
X72273581Y12743057D01*
X72169203Y12781989D01*
X72108654Y12788500D01*
X72108638Y12788500D01*
X70782500Y12788500D01*
X70715461Y12808185D01*
X70669706Y12860989D01*
X70658500Y12912500D01*
X70658500Y19122808D01*
X70678185Y19189847D01*
X70694819Y19210489D01*
X71739511Y20255181D01*
X71800834Y20288666D01*
X71827192Y20291500D01*
X72403644Y20291500D01*
X72470683Y20271815D01*
X72507453Y20235321D01*
X72584278Y20117732D01*
X72720234Y19970045D01*
X72736760Y19952094D01*
X72914424Y19813811D01*
X72914429Y19813809D01*
X72914431Y19813807D01*
X72950930Y19794054D01*
X73000520Y19744835D01*
X73015628Y19676618D01*
X72991457Y19611063D01*
X72950930Y19575946D01*
X72914431Y19556194D01*
X72914422Y19556188D01*
X72736761Y19417908D01*
X72736756Y19417903D01*
X72584284Y19252277D01*
X72584276Y19252266D01*
X72461140Y19063793D01*
X72370703Y18857615D01*
X72315436Y18639372D01*
X72315434Y18639360D01*
X72296844Y18415006D01*
X72296844Y18414995D01*
X72315434Y18190641D01*
X72315436Y18190629D01*
X72370703Y17972386D01*
X72461140Y17766208D01*
X72584276Y17577735D01*
X72584284Y17577724D01*
X72736756Y17412098D01*
X72736760Y17412094D01*
X72914424Y17273811D01*
X72957693Y17250395D01*
X72957695Y17250394D01*
X73007286Y17201175D01*
X73022394Y17132958D01*
X72998224Y17067403D01*
X72969802Y17039764D01*
X72788922Y16913110D01*
X72788920Y16913109D01*
X72621891Y16746080D01*
X72621886Y16746074D01*
X72486400Y16552580D01*
X72486399Y16552578D01*
X72386570Y16338493D01*
X72386567Y16338487D01*
X72329364Y16125001D01*
X72329364Y16125000D01*
X73226314Y16125000D01*
X73200507Y16084844D01*
X73160000Y15946889D01*
X73160000Y15803111D01*
X73200507Y15665156D01*
X73226314Y15625000D01*
X72329364Y15625000D01*
X72386567Y15411514D01*
X72386570Y15411508D01*
X72486399Y15197422D01*
X72621894Y15003918D01*
X72788917Y14836895D01*
X72982421Y14701400D01*
X73196507Y14601571D01*
X73196516Y14601567D01*
X73410000Y14544366D01*
X73410000Y15439499D01*
X73517685Y15390320D01*
X73624237Y15375000D01*
X73695763Y15375000D01*
X73802315Y15390320D01*
X73910000Y15439499D01*
X73910000Y14544367D01*
X74123483Y14601567D01*
X74123492Y14601571D01*
X74337578Y14701400D01*
X74531082Y14836895D01*
X74698105Y15003918D01*
X74833600Y15197422D01*
X74933429Y15411508D01*
X74933432Y15411514D01*
X74990636Y15625000D01*
X74093686Y15625000D01*
X74119493Y15665156D01*
X74160000Y15803111D01*
X74160000Y15946889D01*
X74119493Y16084844D01*
X74093686Y16125000D01*
X74990636Y16125000D01*
X74990635Y16125001D01*
X74933432Y16338487D01*
X74933429Y16338493D01*
X74833600Y16552578D01*
X74833599Y16552580D01*
X74698113Y16746074D01*
X74698108Y16746080D01*
X74531082Y16913106D01*
X74350197Y17039764D01*
X74306572Y17094341D01*
X74299380Y17163840D01*
X74330902Y17226194D01*
X74362300Y17250392D01*
X74405576Y17273811D01*
X74583240Y17412094D01*
X74713310Y17553386D01*
X74735715Y17577724D01*
X74735717Y17577727D01*
X74735722Y17577732D01*
X74858860Y17766209D01*
X74949296Y17972384D01*
X75004564Y18190632D01*
X75007204Y18222488D01*
X75023156Y18414995D01*
X75023156Y18415006D01*
X75004565Y18639360D01*
X75004563Y18639372D01*
X74961768Y18808366D01*
X74949296Y18857616D01*
X74858860Y19063791D01*
X74845706Y19083924D01*
X74770862Y19198482D01*
X74735722Y19252268D01*
X74735719Y19252271D01*
X74735715Y19252277D01*
X74583243Y19417903D01*
X74583238Y19417908D01*
X74405577Y19556188D01*
X74405578Y19556188D01*
X74405576Y19556189D01*
X74369070Y19575945D01*
X74319479Y19625164D01*
X74304371Y19693381D01*
X74328541Y19758936D01*
X74369070Y19794055D01*
X74369084Y19794064D01*
X74405576Y19813811D01*
X74583240Y19952094D01*
X74713310Y20093386D01*
X74735715Y20117724D01*
X74735717Y20117727D01*
X74735722Y20117732D01*
X74858860Y20306209D01*
X74949296Y20512384D01*
X75004564Y20730632D01*
X75004565Y20730641D01*
X75023156Y20954995D01*
X75023156Y20955006D01*
X75004565Y21179360D01*
X75004563Y21179372D01*
X74977390Y21286674D01*
X74949296Y21397616D01*
X74858860Y21603791D01*
X74857934Y21605208D01*
X74771299Y21737813D01*
X74735722Y21792268D01*
X74735719Y21792271D01*
X74735715Y21792277D01*
X74590510Y21950009D01*
X74559587Y22012663D01*
X74567447Y22082089D01*
X74611594Y22136245D01*
X74638405Y22150173D01*
X74718584Y22180080D01*
X74756204Y22194111D01*
X74873261Y22281739D01*
X74960889Y22398796D01*
X75011989Y22535799D01*
X75015591Y22569308D01*
X75018499Y22596346D01*
X75018500Y22596363D01*
X75018500Y24393638D01*
X75018499Y24393655D01*
X75013430Y24440798D01*
X75011989Y24454201D01*
X75009770Y24460150D01*
X74978156Y24544910D01*
X74960889Y24591204D01*
X74873261Y24708261D01*
X74756204Y24795889D01*
X74756203Y24795890D01*
X74619203Y24846989D01*
X74558654Y24853500D01*
X74558638Y24853500D01*
X72761362Y24853500D01*
X72761345Y24853500D01*
X72700797Y24846989D01*
X72700795Y24846989D01*
X72563795Y24795889D01*
X72446739Y24708261D01*
X72359111Y24591205D01*
X72308011Y24454205D01*
X72308011Y24454203D01*
X72301500Y24393655D01*
X72301500Y24256673D01*
X72281815Y24189634D01*
X72229011Y24143879D01*
X72199859Y24134705D01*
X72191155Y24133110D01*
X72137671Y24109039D01*
X72134235Y24107616D01*
X72111813Y24099111D01*
X72079398Y24086818D01*
X72079388Y24086813D01*
X72071980Y24081699D01*
X72052438Y24070677D01*
X72044223Y24066980D01*
X71998069Y24030820D01*
X71995053Y24028601D01*
X71946788Y23995285D01*
X71946785Y23995282D01*
X71907902Y23951394D01*
X71905335Y23948667D01*
X69830180Y21873513D01*
X69768857Y21840028D01*
X69699165Y21845012D01*
X69643232Y21886884D01*
X69618815Y21952348D01*
X69618499Y21961194D01*
X69618499Y22108301D01*
X69618499Y22590118D01*
X69618610Y22593794D01*
X69622153Y22652355D01*
X69611581Y22710045D01*
X69611019Y22713742D01*
X69603951Y22771949D01*
X69603951Y22771952D01*
X69600760Y22780366D01*
X69594733Y22801987D01*
X69594403Y22803787D01*
X69593110Y22810843D01*
X69586161Y22826282D01*
X69576596Y22895490D01*
X69599999Y22946008D01*
X69600000Y23880000D01*
X68676693Y23880000D01*
X68609654Y23899685D01*
X68589012Y23916319D01*
X68404633Y24100698D01*
X69496372Y24100698D01*
X69525047Y23987462D01*
X69588936Y23889673D01*
X69681115Y23817928D01*
X69791595Y23780000D01*
X69879005Y23780000D01*
X69965216Y23794386D01*
X70067947Y23849981D01*
X70095581Y23880000D01*
X70100000Y23880000D01*
X70100000Y22955948D01*
X70179804Y22970865D01*
X70387177Y23051202D01*
X70387179Y23051203D01*
X70576261Y23168279D01*
X70740608Y23318100D01*
X70874631Y23495575D01*
X70973760Y23694651D01*
X71026495Y23880000D01*
X70100000Y23880000D01*
X70095581Y23880000D01*
X70147060Y23935921D01*
X70193982Y24042892D01*
X70203628Y24159302D01*
X70174953Y24272538D01*
X70111064Y24370327D01*
X70018885Y24442072D01*
X69908405Y24480000D01*
X69820995Y24480000D01*
X69734784Y24465614D01*
X69632053Y24410019D01*
X69552940Y24324079D01*
X69506018Y24217108D01*
X69496372Y24100698D01*
X68404633Y24100698D01*
X68125331Y24380000D01*
X68673505Y24380000D01*
X69600000Y24380000D01*
X69600000Y25304054D01*
X70100000Y25304054D01*
X70100000Y24380000D01*
X71026495Y24380000D01*
X70973760Y24565350D01*
X70874631Y24764426D01*
X70740608Y24941901D01*
X70576261Y25091722D01*
X70387179Y25208798D01*
X70387177Y25208799D01*
X70179799Y25289136D01*
X70100000Y25304054D01*
X69600000Y25304054D01*
X69520200Y25289136D01*
X69312822Y25208799D01*
X69312820Y25208798D01*
X69123738Y25091722D01*
X68959391Y24941901D01*
X68825368Y24764426D01*
X68726239Y24565350D01*
X68673505Y24380000D01*
X68125331Y24380000D01*
X65489818Y27015513D01*
X65475712Y27041346D01*
X67221500Y27041346D01*
X67228011Y26980798D01*
X67228011Y26980796D01*
X67266682Y26877118D01*
X67279111Y26843796D01*
X67366739Y26726739D01*
X67483796Y26639111D01*
X67620799Y26588011D01*
X67648050Y26585082D01*
X67681345Y26581501D01*
X67681362Y26581500D01*
X69478638Y26581500D01*
X69478654Y26581501D01*
X69505692Y26584409D01*
X69539201Y26588011D01*
X69676204Y26639111D01*
X69793261Y26726739D01*
X69880889Y26843796D01*
X69926138Y26965113D01*
X69968009Y27021044D01*
X70033474Y27045461D01*
X70101746Y27030609D01*
X70133545Y27005764D01*
X70196760Y26937094D01*
X70374424Y26798811D01*
X70374425Y26798811D01*
X70374427Y26798809D01*
X70434314Y26766400D01*
X70572426Y26691658D01*
X70785365Y26618556D01*
X71007431Y26581500D01*
X71232569Y26581500D01*
X71454635Y26618556D01*
X71667574Y26691658D01*
X71865576Y26798811D01*
X72043240Y26937094D01*
X72164594Y27068918D01*
X72195715Y27102724D01*
X72195715Y27102725D01*
X72195722Y27102732D01*
X72286193Y27241210D01*
X72339338Y27286563D01*
X72408569Y27295987D01*
X72471905Y27266485D01*
X72493804Y27241213D01*
X72584278Y27102732D01*
X72584283Y27102727D01*
X72584284Y27102724D01*
X72725031Y26949835D01*
X72736760Y26937094D01*
X72914424Y26798811D01*
X72914425Y26798811D01*
X72914427Y26798809D01*
X72974314Y26766400D01*
X73112426Y26691658D01*
X73325365Y26618556D01*
X73547431Y26581500D01*
X73772569Y26581500D01*
X73994635Y26618556D01*
X74207574Y26691658D01*
X74405576Y26798811D01*
X74583240Y26937094D01*
X74704594Y27068918D01*
X74735715Y27102724D01*
X74735715Y27102725D01*
X74735722Y27102732D01*
X74829749Y27246653D01*
X74882894Y27292006D01*
X74952125Y27301430D01*
X75015461Y27271928D01*
X75035130Y27249952D01*
X75161890Y27068922D01*
X75328917Y26901895D01*
X75522421Y26766400D01*
X75736507Y26666571D01*
X75736516Y26666567D01*
X75950000Y26609366D01*
X75950000Y27504499D01*
X76057685Y27455320D01*
X76164237Y27440000D01*
X76235763Y27440000D01*
X76342315Y27455320D01*
X76450000Y27504499D01*
X76450000Y26609367D01*
X76663483Y26666567D01*
X76663492Y26666571D01*
X76877578Y26766400D01*
X77071082Y26901895D01*
X77238105Y27068918D01*
X77373600Y27262422D01*
X77473429Y27476508D01*
X77473432Y27476514D01*
X77530636Y27690000D01*
X76633686Y27690000D01*
X76659493Y27730156D01*
X76700000Y27868111D01*
X76700000Y28011889D01*
X76659493Y28149844D01*
X76633686Y28190000D01*
X77530636Y28190000D01*
X77530635Y28190001D01*
X77473432Y28403487D01*
X77473429Y28403493D01*
X77373600Y28617578D01*
X77373599Y28617580D01*
X77238113Y28811074D01*
X77238108Y28811080D01*
X77071082Y28978106D01*
X76877578Y29113601D01*
X76663492Y29213430D01*
X76663486Y29213433D01*
X76450000Y29270636D01*
X76450000Y28375502D01*
X76342315Y28424680D01*
X76235763Y28440000D01*
X76164237Y28440000D01*
X76057685Y28424680D01*
X75950000Y28375502D01*
X75950000Y29270636D01*
X75949999Y29270636D01*
X75736513Y29213433D01*
X75736507Y29213430D01*
X75522422Y29113601D01*
X75522420Y29113600D01*
X75328926Y28978114D01*
X75328920Y28978109D01*
X75161891Y28811080D01*
X75161890Y28811078D01*
X75035131Y28630048D01*
X74980554Y28586423D01*
X74911055Y28579231D01*
X74848701Y28610753D01*
X74829752Y28633344D01*
X74735722Y28777268D01*
X74735715Y28777275D01*
X74735715Y28777277D01*
X74583243Y28942903D01*
X74583238Y28942908D01*
X74405577Y29081188D01*
X74405572Y29081192D01*
X74207580Y29188339D01*
X74207577Y29188341D01*
X74207574Y29188342D01*
X74207571Y29188343D01*
X74207569Y29188344D01*
X73994637Y29261444D01*
X73772569Y29298500D01*
X73547431Y29298500D01*
X73325362Y29261444D01*
X73112430Y29188344D01*
X73112419Y29188339D01*
X72914427Y29081192D01*
X72914422Y29081188D01*
X72736761Y28942908D01*
X72736756Y28942903D01*
X72584284Y28777277D01*
X72584276Y28777266D01*
X72493808Y28638794D01*
X72440662Y28593438D01*
X72371431Y28584014D01*
X72308095Y28613516D01*
X72286192Y28638794D01*
X72202738Y28766529D01*
X72195722Y28777268D01*
X72195719Y28777271D01*
X72195715Y28777277D01*
X72043243Y28942903D01*
X72043238Y28942908D01*
X71865577Y29081188D01*
X71865572Y29081192D01*
X71667580Y29188339D01*
X71667577Y29188341D01*
X71667574Y29188342D01*
X71667571Y29188343D01*
X71667569Y29188344D01*
X71454637Y29261444D01*
X71232569Y29298500D01*
X71007431Y29298500D01*
X70785362Y29261444D01*
X70572430Y29188344D01*
X70572419Y29188339D01*
X70374427Y29081192D01*
X70374422Y29081188D01*
X70196761Y28942908D01*
X70133548Y28874240D01*
X70073661Y28838250D01*
X70003823Y28840351D01*
X69946207Y28879876D01*
X69926138Y28914890D01*
X69880889Y29036204D01*
X69880888Y29036205D01*
X69793261Y29153261D01*
X69676204Y29240889D01*
X69676203Y29240890D01*
X69539203Y29291989D01*
X69478654Y29298500D01*
X69478638Y29298500D01*
X67681362Y29298500D01*
X67681345Y29298500D01*
X67620797Y29291989D01*
X67620795Y29291989D01*
X67483795Y29240889D01*
X67366739Y29153261D01*
X67279111Y29036205D01*
X67228011Y28899205D01*
X67228011Y28899203D01*
X67221500Y28838655D01*
X67221500Y27041346D01*
X65475712Y27041346D01*
X65456333Y27076836D01*
X65453499Y27103186D01*
X65453499Y27608656D01*
X65473184Y27675694D01*
X65518480Y27717709D01*
X65563017Y27741810D01*
X65747220Y27885182D01*
X65905314Y28056917D01*
X66032984Y28252331D01*
X66126749Y28466093D01*
X66184051Y28692374D01*
X66199588Y28879876D01*
X66203327Y28924995D01*
X66203327Y28925006D01*
X66186591Y29126977D01*
X66184051Y29157626D01*
X66126749Y29383907D01*
X66032984Y29597669D01*
X65921500Y29768309D01*
X65905313Y29793085D01*
X65747223Y29964815D01*
X65747222Y29964816D01*
X65747220Y29964818D01*
X65563017Y30108190D01*
X65563015Y30108191D01*
X65563014Y30108192D01*
X65563011Y30108194D01*
X65357733Y30219284D01*
X65357730Y30219285D01*
X65357727Y30219287D01*
X65357721Y30219289D01*
X65357719Y30219290D01*
X65136954Y30295080D01*
X64945730Y30326989D01*
X64906712Y30333500D01*
X64673288Y30333500D01*
X64634270Y30326989D01*
X64443045Y30295080D01*
X64222280Y30219290D01*
X64222266Y30219284D01*
X64016988Y30108194D01*
X64016985Y30108192D01*
X63832781Y29964819D01*
X63829010Y29961347D01*
X63828290Y29962129D01*
X63772899Y29928853D01*
X63703061Y29930966D01*
X63645452Y29970500D01*
X63625397Y30005497D01*
X63615156Y30032953D01*
X63600889Y30071204D01*
X63513261Y30188261D01*
X63396204Y30275889D01*
X63396203Y30275890D01*
X63259203Y30326989D01*
X63198654Y30333500D01*
X63198638Y30333500D01*
X61301362Y30333500D01*
X61301345Y30333500D01*
X61240797Y30326989D01*
X61240795Y30326989D01*
X61103795Y30275889D01*
X60986739Y30188261D01*
X60899111Y30071205D01*
X60848011Y29934205D01*
X60848011Y29934203D01*
X60841500Y29873655D01*
X60841500Y27976346D01*
X60848011Y27915798D01*
X60848011Y27915796D01*
X60870743Y27854852D01*
X60899111Y27778796D01*
X60986739Y27661739D01*
X61103796Y27574111D01*
X61240799Y27523011D01*
X61268050Y27520082D01*
X61301345Y27516501D01*
X61301362Y27516500D01*
X61462500Y27516500D01*
X61529539Y27496815D01*
X61575294Y27444011D01*
X61586500Y27392500D01*
X61586500Y26671918D01*
X61586387Y26668174D01*
X61582847Y26609648D01*
X61582847Y26609645D01*
X61593414Y26551978D01*
X61593977Y26548277D01*
X61601048Y26490048D01*
X61604244Y26481622D01*
X61610267Y26460015D01*
X61611891Y26451157D01*
X61633606Y26402908D01*
X61635955Y26397688D01*
X61637380Y26394248D01*
X61650872Y26358675D01*
X61658185Y26339392D01*
X61663299Y26331983D01*
X61674322Y26312439D01*
X61678019Y26304225D01*
X61682383Y26298655D01*
X61714189Y26258056D01*
X61716409Y26255040D01*
X61749714Y26206789D01*
X61749715Y26206788D01*
X61749716Y26206787D01*
X61793617Y26167894D01*
X61796309Y26165360D01*
X62672533Y25289136D01*
X63538104Y24423565D01*
X63571589Y24362242D01*
X63573951Y24325077D01*
X63556884Y24130002D01*
X63556884Y24129999D01*
X63575313Y23919351D01*
X63575315Y23919340D01*
X63630041Y23715098D01*
X63630043Y23715094D01*
X63630044Y23715090D01*
X63639575Y23694651D01*
X63719410Y23523444D01*
X63719411Y23523442D01*
X63840700Y23350222D01*
X63990221Y23200701D01*
X63990224Y23200699D01*
X64163442Y23079411D01*
X64355090Y22990044D01*
X64355096Y22990043D01*
X64355097Y22990042D01*
X64366338Y22987030D01*
X64559345Y22935314D01*
X64700243Y22922987D01*
X64769998Y22916884D01*
X64770000Y22916884D01*
X64770002Y22916884D01*
X64839757Y22922987D01*
X64980655Y22935314D01*
X65184910Y22990044D01*
X65376558Y23079411D01*
X65549776Y23200699D01*
X65699301Y23350224D01*
X65820589Y23523442D01*
X65909956Y23715090D01*
X65964686Y23919345D01*
X65983116Y24130000D01*
X65982704Y24134705D01*
X65972730Y24248712D01*
X65964686Y24340655D01*
X65964684Y24340659D01*
X65963762Y24345892D01*
X65971503Y24415331D01*
X66015557Y24469563D01*
X66081937Y24491367D01*
X66149568Y24473823D01*
X66173558Y24455111D01*
X68255181Y22373489D01*
X68288666Y22312166D01*
X68291500Y22285808D01*
X68291500Y4638194D01*
X68271815Y4571155D01*
X68255181Y4550513D01*
X65586325Y1881658D01*
X65583598Y1879091D01*
X65539713Y1840212D01*
X65539713Y1840211D01*
X65506413Y1791967D01*
X65504194Y1788952D01*
X65468021Y1742778D01*
X65468019Y1742776D01*
X65464321Y1734559D01*
X65453303Y1715024D01*
X65448186Y1707611D01*
X65427385Y1652768D01*
X65425953Y1649310D01*
X65401891Y1595845D01*
X65400267Y1586982D01*
X65394244Y1565379D01*
X65391048Y1556953D01*
X65383977Y1498723D01*
X65383414Y1495022D01*
X65372847Y1437360D01*
X65372847Y1437355D01*
X65376387Y1378828D01*
X65376500Y1375084D01*
X65376500Y1176439D01*
X65356815Y1109400D01*
X65344650Y1093467D01*
X65300959Y1044943D01*
X65205473Y879557D01*
X65205471Y879553D01*
X65159165Y737037D01*
X65119727Y679362D01*
X65055368Y652164D01*
X65009141Y655581D01*
X64998092Y658542D01*
X64998088Y658543D01*
X64998087Y658543D01*
X64998086Y658544D01*
X64998081Y658544D01*
X64770002Y678498D01*
X64769998Y678498D01*
X64541918Y658544D01*
X64541910Y658543D01*
X64320761Y599286D01*
X64320750Y599282D01*
X64113254Y502525D01*
X64113252Y502524D01*
X64057495Y463482D01*
X63925700Y371198D01*
X63925698Y371197D01*
X63925695Y371194D01*
X63763806Y209305D01*
X63763803Y209302D01*
X63763802Y209300D01*
X63726563Y156117D01*
X63632476Y21749D01*
X63612382Y-21345D01*
X63566209Y-73784D01*
X63499016Y-92936D01*
X63432135Y-72720D01*
X63387618Y-21345D01*
X63367523Y21749D01*
X63352036Y43866D01*
X63236198Y209300D01*
X63074300Y371198D01*
X62886749Y502523D01*
X62886745Y502525D01*
X62679249Y599282D01*
X62679238Y599286D01*
X62458089Y658543D01*
X62458081Y658544D01*
X62230002Y678498D01*
X62229998Y678498D01*
X62001918Y658544D01*
X62001910Y658543D01*
X61780761Y599286D01*
X61780750Y599282D01*
X61573254Y502525D01*
X61573252Y502524D01*
X61517495Y463482D01*
X61385700Y371198D01*
X61385698Y371197D01*
X61385695Y371194D01*
X61223806Y209305D01*
X61223803Y209302D01*
X61223802Y209300D01*
X61186563Y156117D01*
X61092476Y21749D01*
X61072382Y-21345D01*
X61026209Y-73784D01*
X60959016Y-92936D01*
X60892135Y-72720D01*
X60847618Y-21345D01*
X60827523Y21749D01*
X60812036Y43866D01*
X60696198Y209300D01*
X60534300Y371198D01*
X60346749Y502523D01*
X60346745Y502525D01*
X60139249Y599282D01*
X60139238Y599286D01*
X59918089Y658543D01*
X59918081Y658544D01*
X59690002Y678498D01*
X59689998Y678498D01*
X59461919Y658544D01*
X59461914Y658544D01*
X59461913Y658543D01*
X59461910Y658543D01*
X59461909Y658542D01*
X59430800Y650207D01*
X59360950Y651872D01*
X59311029Y682302D01*
X58632179Y1361152D01*
X57952140Y2041191D01*
X57949606Y2043883D01*
X57910713Y2087784D01*
X57910712Y2087785D01*
X57910711Y2087786D01*
X57862460Y2121091D01*
X57859444Y2123311D01*
X57830171Y2146244D01*
X57813275Y2159481D01*
X57805062Y2163178D01*
X57785517Y2174201D01*
X57778108Y2179315D01*
X57778109Y2179315D01*
X57758612Y2186709D01*
X57723252Y2200120D01*
X57719812Y2201545D01*
X57691602Y2214241D01*
X57666343Y2225609D01*
X57657485Y2227233D01*
X57635878Y2233256D01*
X57627452Y2236452D01*
X57569223Y2243523D01*
X57565522Y2244086D01*
X57507859Y2254653D01*
X57507852Y2254653D01*
X57449327Y2251113D01*
X57445583Y2251000D01*
X55253693Y2251000D01*
X55186654Y2270685D01*
X55166012Y2287319D01*
X52442012Y5011319D01*
X52408527Y5072642D01*
X52413511Y5142334D01*
X52455383Y5198267D01*
X52520847Y5222684D01*
X52589120Y5207832D01*
X52600817Y5200575D01*
X52687517Y5139866D01*
X52893673Y5043735D01*
X52893682Y5043731D01*
X53113389Y4984861D01*
X53113400Y4984859D01*
X53339998Y4965034D01*
X53340002Y4965034D01*
X53566599Y4984859D01*
X53566610Y4984861D01*
X53786317Y5043731D01*
X53786331Y5043736D01*
X53992478Y5139864D01*
X54065472Y5190975D01*
X53384400Y5872047D01*
X53465148Y5884835D01*
X53578045Y5942359D01*
X53667641Y6031955D01*
X53725165Y6144852D01*
X53737953Y6225600D01*
X54419025Y5544528D01*
X54470136Y5617522D01*
X54566264Y5823669D01*
X54566269Y5823683D01*
X54625139Y6043390D01*
X54625141Y6043401D01*
X54644966Y6269998D01*
X54644966Y6270003D01*
X54625141Y6496600D01*
X54625139Y6496611D01*
X54566269Y6716318D01*
X54566265Y6716327D01*
X54470133Y6922484D01*
X54470131Y6922488D01*
X54419026Y6995474D01*
X54419025Y6995474D01*
X53737953Y6314402D01*
X53725165Y6395148D01*
X53667641Y6508045D01*
X53578045Y6597641D01*
X53465148Y6655165D01*
X53384400Y6667954D01*
X54065472Y7349026D01*
X54065471Y7349027D01*
X53992483Y7400134D01*
X53992481Y7400135D01*
X53786326Y7496266D01*
X53786317Y7496270D01*
X53566610Y7555140D01*
X53566599Y7555142D01*
X53340002Y7574966D01*
X53339998Y7574966D01*
X53113400Y7555142D01*
X53113389Y7555140D01*
X52893682Y7496270D01*
X52893673Y7496266D01*
X52687513Y7400132D01*
X52614527Y7349028D01*
X52614526Y7349027D01*
X53295600Y6667954D01*
X53214852Y6655165D01*
X53101955Y6597641D01*
X53012359Y6508045D01*
X52954835Y6395148D01*
X52942046Y6314401D01*
X52260973Y6995474D01*
X52209868Y6922487D01*
X52113734Y6716327D01*
X52113730Y6716318D01*
X52054860Y6496611D01*
X52054858Y6496600D01*
X52035034Y6270003D01*
X52035034Y6269998D01*
X52054858Y6043401D01*
X52054860Y6043390D01*
X52113730Y5823683D01*
X52113734Y5823674D01*
X52209866Y5617518D01*
X52270574Y5530818D01*
X52292901Y5464612D01*
X52275891Y5396844D01*
X52224943Y5349031D01*
X52156233Y5336353D01*
X52091577Y5362834D01*
X52081318Y5372013D01*
X50737819Y6715512D01*
X50704334Y6776835D01*
X50701500Y6803193D01*
X50701500Y20921562D01*
X50721185Y20988601D01*
X50733349Y21004533D01*
X50733351Y21004535D01*
X50772523Y21048040D01*
X50832005Y21084686D01*
X50901862Y21083357D01*
X50959911Y21044471D01*
X50987721Y20980375D01*
X50988198Y20954261D01*
X50983797Y20903948D01*
X50983797Y20903942D01*
X51004384Y20668628D01*
X51004386Y20668617D01*
X51065520Y20440460D01*
X51065524Y20440451D01*
X51165354Y20226364D01*
X51165356Y20226360D01*
X51224026Y20142570D01*
X51224027Y20142570D01*
X51855877Y20774420D01*
X51879461Y20694099D01*
X51957193Y20573145D01*
X52065854Y20478991D01*
X52196639Y20419263D01*
X52206420Y20417857D01*
X51577579Y19789018D01*
X51661375Y19730344D01*
X51875461Y19630514D01*
X51875470Y19630510D01*
X52103627Y19569376D01*
X52103638Y19569374D01*
X52338952Y19548786D01*
X52338956Y19548786D01*
X52574269Y19569374D01*
X52574280Y19569376D01*
X52802437Y19630510D01*
X52802446Y19630514D01*
X53016532Y19730343D01*
X53016536Y19730345D01*
X53100327Y19789017D01*
X53100327Y19789018D01*
X52471487Y20417857D01*
X52481269Y20419263D01*
X52612054Y20478991D01*
X52720715Y20573145D01*
X52798447Y20694099D01*
X52822030Y20774420D01*
X53435186Y20161264D01*
X53468671Y20099941D01*
X53471505Y20073583D01*
X53471505Y11164913D01*
X53471392Y11161169D01*
X53467852Y11102643D01*
X53467852Y11102640D01*
X53478419Y11044973D01*
X53478982Y11041272D01*
X53486053Y10983043D01*
X53489249Y10974617D01*
X53495272Y10953010D01*
X53496896Y10944152D01*
X53514158Y10905796D01*
X53520960Y10890683D01*
X53522385Y10887243D01*
X53543190Y10832387D01*
X53548304Y10824978D01*
X53559327Y10805434D01*
X53563024Y10797220D01*
X53574063Y10783130D01*
X53599194Y10751051D01*
X53601414Y10748035D01*
X53634719Y10699784D01*
X53634720Y10699783D01*
X53634721Y10699782D01*
X53678622Y10660889D01*
X53681314Y10658355D01*
X54911192Y9428477D01*
X56002597Y8337072D01*
X56036082Y8275749D01*
X56031098Y8206057D01*
X55992737Y8154811D01*
X55993013Y8154535D01*
X55991093Y8152616D01*
X55989230Y8150126D01*
X55986741Y8148263D01*
X55986740Y8148262D01*
X55986739Y8148261D01*
X55967472Y8122523D01*
X55899111Y8031205D01*
X55848011Y7894205D01*
X55848011Y7894203D01*
X55841500Y7833655D01*
X55841500Y6136346D01*
X55848011Y6075798D01*
X55848011Y6075796D01*
X55884189Y5978802D01*
X55899111Y5938796D01*
X55986739Y5821739D01*
X56103796Y5734111D01*
X56240799Y5683011D01*
X56267690Y5680120D01*
X56301345Y5676501D01*
X56301362Y5676500D01*
X57998638Y5676500D01*
X57998654Y5676501D01*
X58059201Y5683011D01*
X58081845Y5691457D01*
X58097165Y5697172D01*
X58166856Y5702157D01*
X58228180Y5668673D01*
X58261666Y5607350D01*
X58264500Y5580990D01*
X58264500Y4097439D01*
X58244815Y4030400D01*
X58232650Y4014467D01*
X58188959Y3965943D01*
X58093473Y3800557D01*
X58093470Y3800550D01*
X58049887Y3666414D01*
X58034458Y3618928D01*
X58014496Y3429000D01*
X58034458Y3239072D01*
X58034459Y3239069D01*
X58093470Y3057451D01*
X58093473Y3057444D01*
X58188960Y2892056D01*
X58265460Y2807094D01*
X58301915Y2766606D01*
X58316747Y2750134D01*
X58471248Y2637882D01*
X58645712Y2560206D01*
X58832513Y2520500D01*
X59023487Y2520500D01*
X59210288Y2560206D01*
X59384752Y2637882D01*
X59539253Y2750134D01*
X59667040Y2892056D01*
X59762527Y3057444D01*
X59821542Y3239072D01*
X59841504Y3429000D01*
X59821542Y3618928D01*
X59762527Y3800556D01*
X59667040Y3965944D01*
X59623385Y4014428D01*
X59623350Y4014467D01*
X59593120Y4077459D01*
X59591500Y4097439D01*
X59591500Y5549260D01*
X59611185Y5616299D01*
X59663989Y5662054D01*
X59704689Y5672788D01*
X59918087Y5691457D01*
X60139243Y5750716D01*
X60346749Y5847477D01*
X60534300Y5978802D01*
X60696198Y6140700D01*
X60827523Y6328251D01*
X60847617Y6371345D01*
X60893790Y6423785D01*
X60960983Y6442937D01*
X61027864Y6422722D01*
X61072382Y6371345D01*
X61089646Y6334321D01*
X61092477Y6328251D01*
X61223802Y6140700D01*
X61385700Y5978802D01*
X61573251Y5847477D01*
X61698091Y5789264D01*
X61780750Y5750719D01*
X61780752Y5750719D01*
X61780757Y5750716D01*
X62001913Y5691457D01*
X62164832Y5677204D01*
X62229998Y5671502D01*
X62230000Y5671502D01*
X62230002Y5671502D01*
X62287139Y5676501D01*
X62458087Y5691457D01*
X62679243Y5750716D01*
X62886749Y5847477D01*
X63074300Y5978802D01*
X63236198Y6140700D01*
X63367523Y6328251D01*
X63392307Y6381402D01*
X63438479Y6433841D01*
X63505672Y6452993D01*
X63572553Y6432778D01*
X63617071Y6381401D01*
X63639864Y6332521D01*
X63639865Y6332519D01*
X63770342Y6146180D01*
X63931179Y5985343D01*
X64117517Y5854866D01*
X64323673Y5758735D01*
X64323682Y5758731D01*
X64519999Y5706128D01*
X64520000Y5706129D01*
X64520000Y6669314D01*
X64531955Y6657359D01*
X64644852Y6599835D01*
X64738519Y6585000D01*
X64801481Y6585000D01*
X64895148Y6599835D01*
X65008045Y6657359D01*
X65020000Y6669314D01*
X65020000Y5706128D01*
X65216317Y5758731D01*
X65216326Y5758735D01*
X65422482Y5854866D01*
X65608820Y5985343D01*
X65769657Y6146180D01*
X65900134Y6332518D01*
X65996265Y6538674D01*
X65996269Y6538683D01*
X66048872Y6735000D01*
X65085686Y6735000D01*
X65097641Y6746955D01*
X65155165Y6859852D01*
X65174986Y6985000D01*
X65155165Y7110148D01*
X65097641Y7223045D01*
X65085686Y7235000D01*
X66048872Y7235000D01*
X66048872Y7235001D01*
X65996269Y7431318D01*
X65996265Y7431327D01*
X65900134Y7637483D01*
X65769657Y7823821D01*
X65608820Y7984658D01*
X65422482Y8115135D01*
X65216328Y8211266D01*
X65020000Y8263873D01*
X65020000Y7300686D01*
X65008045Y7312641D01*
X64895148Y7370165D01*
X64801481Y7385000D01*
X64738519Y7385000D01*
X64644852Y7370165D01*
X64531955Y7312641D01*
X64520000Y7300686D01*
X64520000Y8263873D01*
X64323671Y8211266D01*
X64117517Y8115135D01*
X63931179Y7984658D01*
X63770342Y7823821D01*
X63639865Y7637483D01*
X63617071Y7588599D01*
X63570898Y7536160D01*
X63503705Y7517008D01*
X63436824Y7537224D01*
X63392307Y7588599D01*
X63385692Y7602784D01*
X63367523Y7641749D01*
X63236198Y7829300D01*
X63074300Y7991198D01*
X62886749Y8122523D01*
X62886745Y8122525D01*
X62679249Y8219282D01*
X62679238Y8219286D01*
X62458089Y8278543D01*
X62458081Y8278544D01*
X62230002Y8298498D01*
X62229998Y8298498D01*
X62001919Y8278544D01*
X62001914Y8278544D01*
X62001913Y8278543D01*
X62001910Y8278543D01*
X62001909Y8278542D01*
X61970800Y8270207D01*
X61900950Y8271872D01*
X61851029Y8302302D01*
X61705945Y8447386D01*
X61549640Y8603691D01*
X61547106Y8606383D01*
X61508213Y8650284D01*
X61508212Y8650285D01*
X61508211Y8650286D01*
X61459960Y8683591D01*
X61456944Y8685811D01*
X61427671Y8708744D01*
X61410775Y8721981D01*
X61402562Y8725678D01*
X61383017Y8736701D01*
X61375608Y8741815D01*
X61375609Y8741815D01*
X61356112Y8749209D01*
X61320752Y8762620D01*
X61317312Y8764045D01*
X61263843Y8788109D01*
X61254985Y8789733D01*
X61233378Y8795756D01*
X61224952Y8798952D01*
X61166723Y8806023D01*
X61163022Y8806586D01*
X61105359Y8817153D01*
X61105352Y8817153D01*
X61046827Y8813613D01*
X61043083Y8813500D01*
X57454193Y8813500D01*
X57387154Y8833185D01*
X57366512Y8849819D01*
X54834824Y11381508D01*
X54801339Y11442831D01*
X54798505Y11469189D01*
X54798505Y15875000D01*
X55789580Y15875000D01*
X55809254Y15424370D01*
X55868128Y14977179D01*
X55868128Y14977175D01*
X55868130Y14977166D01*
X55964874Y14540784D01*
X55965760Y14536790D01*
X56017968Y14371206D01*
X56101394Y14106612D01*
X56145879Y13999217D01*
X56274007Y13689886D01*
X56482279Y13289800D01*
X56482283Y13289794D01*
X56482285Y13289790D01*
X56506446Y13251865D01*
X56724642Y12909365D01*
X56999222Y12551525D01*
X56999226Y12551520D01*
X57303960Y12218962D01*
X57303961Y12218961D01*
X57636519Y11914227D01*
X57636524Y11914223D01*
X57994364Y11639643D01*
X58012356Y11628181D01*
X58374790Y11397285D01*
X58374796Y11397282D01*
X58374799Y11397280D01*
X58774885Y11189008D01*
X58842095Y11161169D01*
X59191612Y11016394D01*
X59621797Y10880758D01*
X60062166Y10783130D01*
X60509368Y10724255D01*
X60960000Y10704580D01*
X61410632Y10724255D01*
X61857834Y10783130D01*
X62298203Y10880758D01*
X62728388Y11016394D01*
X63145114Y11189008D01*
X63545210Y11397285D01*
X63925631Y11639640D01*
X64283482Y11914228D01*
X64616039Y12218961D01*
X64920772Y12551518D01*
X65195360Y12909369D01*
X65437715Y13289790D01*
X65645992Y13689886D01*
X65818606Y14106612D01*
X65954242Y14536797D01*
X66051870Y14977166D01*
X66110745Y15424368D01*
X66130420Y15875000D01*
X66110745Y16325632D01*
X66051870Y16772834D01*
X65954242Y17213203D01*
X65818606Y17643388D01*
X65668154Y18006611D01*
X65645992Y18060115D01*
X65437720Y18460201D01*
X65437718Y18460204D01*
X65437715Y18460210D01*
X65195360Y18840631D01*
X65195357Y18840636D01*
X64920777Y19198476D01*
X64920773Y19198481D01*
X64616039Y19531039D01*
X64616038Y19531040D01*
X64283480Y19835774D01*
X64283475Y19835778D01*
X63925635Y20110358D01*
X63672372Y20271704D01*
X63545210Y20352715D01*
X63545206Y20352717D01*
X63545200Y20352721D01*
X63145114Y20560993D01*
X62818095Y20696448D01*
X62728388Y20733606D01*
X62468739Y20815473D01*
X62298210Y20869240D01*
X62298207Y20869241D01*
X62298203Y20869242D01*
X61857834Y20966870D01*
X61857829Y20966871D01*
X61857823Y20966872D01*
X61410630Y21025746D01*
X60960000Y21045420D01*
X60509369Y21025746D01*
X60062178Y20966872D01*
X60062174Y20966872D01*
X59870394Y20924355D01*
X59621797Y20869242D01*
X59621794Y20869242D01*
X59621789Y20869240D01*
X59191612Y20733606D01*
X58774885Y20560993D01*
X58374799Y20352721D01*
X57994364Y20110358D01*
X57636524Y19835778D01*
X57636519Y19835774D01*
X57303961Y19531040D01*
X57303960Y19531039D01*
X56999226Y19198481D01*
X56999222Y19198476D01*
X56724642Y18840636D01*
X56482279Y18460201D01*
X56274007Y18060115D01*
X56101394Y17643388D01*
X55965760Y17213211D01*
X55965758Y17213206D01*
X55965758Y17213203D01*
X55946141Y17124715D01*
X55868128Y16772826D01*
X55868128Y16772822D01*
X55809254Y16325631D01*
X55789580Y15875000D01*
X54798505Y15875000D01*
X54798505Y16450164D01*
X54798505Y21440505D01*
X54818189Y21507540D01*
X54863489Y21549557D01*
X54880581Y21558806D01*
X55058245Y21697089D01*
X55194419Y21845012D01*
X55210720Y21862719D01*
X55210721Y21862721D01*
X55210727Y21862727D01*
X55333865Y22051204D01*
X55424301Y22257379D01*
X55479569Y22475627D01*
X55479570Y22475636D01*
X55498161Y22699990D01*
X55498161Y22699999D01*
X55495607Y22730815D01*
X55509687Y22799252D01*
X55558531Y22849211D01*
X55626632Y22864833D01*
X55670692Y22853852D01*
X55731070Y22826278D01*
X55786320Y22801046D01*
X55786321Y22801046D01*
X55786323Y22801045D01*
X55931057Y22780236D01*
X56075791Y22801045D01*
X56075792Y22801046D01*
X56075794Y22801046D01*
X56116918Y22819828D01*
X56208800Y22861788D01*
X56256229Y22900008D01*
X57527095Y24170874D01*
X57565315Y24218303D01*
X57626058Y24351312D01*
X57646867Y24496046D01*
X57626058Y24640780D01*
X57626057Y24640781D01*
X57626057Y24640784D01*
X57568203Y24767465D01*
X57565315Y24773789D01*
X57527095Y24821218D01*
X57527090Y24821223D01*
X57527086Y24821228D01*
X56256238Y26092076D01*
X56256232Y26092081D01*
X56256229Y26092084D01*
X56208800Y26130304D01*
X56208796Y26130306D01*
X56075794Y26191047D01*
X56075789Y26191048D01*
X55931057Y26211856D01*
X55786324Y26191048D01*
X55786319Y26191047D01*
X55653317Y26130306D01*
X55653312Y26130303D01*
X55605875Y26092076D01*
X54335027Y24821228D01*
X54296800Y24773791D01*
X54296797Y24773786D01*
X54236056Y24640784D01*
X54236055Y24640779D01*
X54215247Y24496047D01*
X54236055Y24351314D01*
X54236057Y24351309D01*
X54289627Y24234007D01*
X54299571Y24164848D01*
X54270546Y24101292D01*
X54211768Y24063518D01*
X54176833Y24058495D01*
X54022436Y24058495D01*
X53800367Y24021439D01*
X53587435Y23948339D01*
X53587424Y23948334D01*
X53389432Y23841187D01*
X53389427Y23841183D01*
X53211766Y23702903D01*
X53211761Y23702898D01*
X53059289Y23537272D01*
X53059281Y23537261D01*
X52936145Y23348788D01*
X52845708Y23142610D01*
X52790441Y22924367D01*
X52790439Y22924355D01*
X52771849Y22700001D01*
X52771849Y22699990D01*
X52790439Y22475636D01*
X52790442Y22475620D01*
X52818697Y22364042D01*
X52816071Y22294222D01*
X52776115Y22236905D01*
X52711514Y22210289D01*
X52666398Y22213828D01*
X52574280Y22238511D01*
X52574269Y22238513D01*
X52338956Y22259100D01*
X52338952Y22259100D01*
X52103638Y22238513D01*
X52103627Y22238511D01*
X51875470Y22177377D01*
X51875461Y22177373D01*
X51661373Y22077542D01*
X51577579Y22018871D01*
X52206420Y21390030D01*
X52196639Y21388623D01*
X52065854Y21328895D01*
X51957193Y21234741D01*
X51879461Y21113787D01*
X51855877Y21033468D01*
X51224027Y21665318D01*
X51224026Y21665317D01*
X51170417Y21588754D01*
X51115841Y21545129D01*
X51046342Y21537935D01*
X50983987Y21569457D01*
X50948573Y21629687D01*
X50945523Y21646903D01*
X50931542Y21779928D01*
X50872527Y21961556D01*
X50777040Y22126944D01*
X50649253Y22268866D01*
X50494752Y22381118D01*
X50320288Y22458794D01*
X50320286Y22458795D01*
X50133487Y22498500D01*
X49942513Y22498500D01*
X49755714Y22458795D01*
X49707224Y22437206D01*
X49620806Y22398730D01*
X49581246Y22381117D01*
X49426745Y22268865D01*
X49298959Y22126943D01*
X49219987Y21990159D01*
X49169420Y21941943D01*
X49100813Y21928720D01*
X49035948Y21954688D01*
X48995420Y22011602D01*
X48988600Y22052159D01*
X48988600Y22610000D01*
X48068196Y22610000D01*
X48091845Y22646799D01*
X48133000Y22786961D01*
X48133000Y22933039D01*
X48091845Y23073201D01*
X48068196Y23110000D01*
X48988600Y23110000D01*
X48988600Y23771428D01*
X48988599Y23771445D01*
X48982198Y23830973D01*
X48982196Y23830980D01*
X48931954Y23965687D01*
X48931950Y23965694D01*
X48845790Y24080788D01*
X48845787Y24080791D01*
X48730693Y24166951D01*
X48730686Y24166955D01*
X48623745Y24206841D01*
X48567811Y24248712D01*
X48543394Y24314176D01*
X48558246Y24382449D01*
X48575840Y24406997D01*
X48711490Y24554351D01*
X48835861Y24744715D01*
X48927203Y24952953D01*
X48983024Y25173386D01*
X49001802Y25400000D01*
X48983024Y25626614D01*
X48927203Y25847047D01*
X48835861Y26055285D01*
X48711490Y26245649D01*
X48557483Y26412946D01*
X48557478Y26412950D01*
X48557475Y26412953D01*
X48378047Y26552607D01*
X48378036Y26552614D01*
X48362637Y26560948D01*
X48313048Y26610169D01*
X48297942Y26678386D01*
X48322115Y26743941D01*
X48362641Y26779056D01*
X48378039Y26787388D01*
X48392716Y26798811D01*
X48498130Y26880858D01*
X48557483Y26927054D01*
X48711490Y27094351D01*
X48835861Y27284715D01*
X48927203Y27492953D01*
X48983024Y27713386D01*
X49001802Y27940000D01*
X48983024Y28166614D01*
X48927203Y28387047D01*
X48835861Y28595285D01*
X48711490Y28785649D01*
X48557483Y28952946D01*
X48557478Y28952950D01*
X48557475Y28952953D01*
X48378047Y29092607D01*
X48378036Y29092614D01*
X48362637Y29100948D01*
X48313048Y29150169D01*
X48297942Y29218386D01*
X48322115Y29283941D01*
X48362641Y29319056D01*
X48378039Y29327388D01*
X48405086Y29348439D01*
X48557475Y29467048D01*
X48557483Y29467054D01*
X48711490Y29634351D01*
X48835861Y29824715D01*
X48844759Y29845000D01*
X49906835Y29845000D01*
X49925465Y29608286D01*
X49980895Y29377405D01*
X49980895Y29377403D01*
X50071757Y29158041D01*
X50071759Y29158038D01*
X50195820Y28955590D01*
X50195821Y28955587D01*
X50231508Y28913803D01*
X50350031Y28775031D01*
X50423453Y28712323D01*
X50530586Y28620822D01*
X50530588Y28620822D01*
X50590652Y28584014D01*
X50733037Y28496760D01*
X50733040Y28496758D01*
X50952403Y28405896D01*
X50952404Y28405896D01*
X50952406Y28405895D01*
X51183289Y28350465D01*
X51420000Y28331835D01*
X51656711Y28350465D01*
X51887594Y28405895D01*
X51887596Y28405896D01*
X51887597Y28405896D01*
X52106959Y28496758D01*
X52106960Y28496759D01*
X52106963Y28496760D01*
X52309416Y28620824D01*
X52489969Y28775031D01*
X52644176Y28955584D01*
X52768240Y29158037D01*
X52769380Y29160788D01*
X52859104Y29377403D01*
X52859104Y29377404D01*
X52859105Y29377406D01*
X52914535Y29608289D01*
X52933165Y29845000D01*
X52914535Y30081711D01*
X52859105Y30312594D01*
X52859104Y30312597D01*
X52859104Y30312598D01*
X52768242Y30531960D01*
X52768240Y30531963D01*
X52692101Y30656210D01*
X52673856Y30723655D01*
X52694972Y30790258D01*
X52748744Y30834872D01*
X52789293Y30843240D01*
X52789183Y30844576D01*
X52794285Y30844999D01*
X53039493Y30885917D01*
X53274603Y30966631D01*
X53274614Y30966636D01*
X53493228Y31084943D01*
X53493231Y31084945D01*
X53540056Y31121391D01*
X52841568Y31819879D01*
X52958458Y31870651D01*
X53075739Y31966066D01*
X53162928Y32089585D01*
X53193354Y32175198D01*
X53893434Y31475118D01*
X53993731Y31628631D01*
X54093587Y31856283D01*
X54154612Y32097262D01*
X54154614Y32097271D01*
X54175141Y32344995D01*
X54175141Y32345001D01*
X55656835Y32345001D01*
X55675465Y32108286D01*
X55730895Y31877405D01*
X55730895Y31877403D01*
X55821757Y31658041D01*
X55821759Y31658038D01*
X55945820Y31455590D01*
X55945821Y31455587D01*
X55967823Y31429826D01*
X56100031Y31275031D01*
X56195795Y31193241D01*
X56280586Y31120822D01*
X56280588Y31120822D01*
X56483036Y30996761D01*
X56483037Y30996760D01*
X56483040Y30996758D01*
X56702403Y30905896D01*
X56702404Y30905896D01*
X56702406Y30905895D01*
X56933289Y30850465D01*
X57049863Y30841291D01*
X57115150Y30816407D01*
X57156620Y30760176D01*
X57161107Y30690450D01*
X57145860Y30652883D01*
X57071756Y30531957D01*
X56980895Y30312598D01*
X56980895Y30312596D01*
X56925465Y30081715D01*
X56906835Y29845001D01*
X56925465Y29608286D01*
X56980895Y29377405D01*
X56980895Y29377403D01*
X57071757Y29158041D01*
X57071759Y29158038D01*
X57195820Y28955590D01*
X57195821Y28955587D01*
X57231508Y28913803D01*
X57350031Y28775031D01*
X57423453Y28712323D01*
X57530586Y28620822D01*
X57530588Y28620822D01*
X57590652Y28584014D01*
X57733037Y28496760D01*
X57733040Y28496758D01*
X57952403Y28405896D01*
X57952404Y28405896D01*
X57952406Y28405895D01*
X58183289Y28350465D01*
X58420000Y28331835D01*
X58656711Y28350465D01*
X58887594Y28405895D01*
X58887596Y28405896D01*
X58887597Y28405896D01*
X59106959Y28496758D01*
X59106960Y28496759D01*
X59106963Y28496760D01*
X59309416Y28620824D01*
X59489969Y28775031D01*
X59644176Y28955584D01*
X59768240Y29158037D01*
X59769380Y29160788D01*
X59859104Y29377403D01*
X59859104Y29377404D01*
X59859105Y29377406D01*
X59914535Y29608289D01*
X59933165Y29845000D01*
X59914535Y30081711D01*
X59859105Y30312594D01*
X59859104Y30312597D01*
X59859104Y30312598D01*
X59768242Y30531960D01*
X59768240Y30531963D01*
X59678710Y30678062D01*
X59644178Y30734412D01*
X59644178Y30734414D01*
X59607686Y30777140D01*
X59489969Y30914969D01*
X59370596Y31016924D01*
X59309413Y31069179D01*
X59309410Y31069180D01*
X59106962Y31193241D01*
X59106959Y31193243D01*
X58887596Y31284105D01*
X58741713Y31319128D01*
X58656711Y31339535D01*
X58565312Y31346729D01*
X58540137Y31348710D01*
X58474849Y31373595D01*
X58433378Y31429826D01*
X58428892Y31499552D01*
X58444138Y31537115D01*
X58518240Y31658037D01*
X58609105Y31877406D01*
X58664535Y32108289D01*
X58683165Y32345000D01*
X58664535Y32581711D01*
X58609105Y32812594D01*
X58609104Y32812597D01*
X58609104Y32812598D01*
X58518242Y33031960D01*
X58518240Y33031963D01*
X58410314Y33208082D01*
X58394178Y33234412D01*
X58394178Y33234414D01*
X58355223Y33280024D01*
X58239969Y33414969D01*
X58060078Y33568611D01*
X58059413Y33569179D01*
X58059410Y33569180D01*
X57856962Y33693241D01*
X57856959Y33693243D01*
X57637596Y33784105D01*
X57406714Y33839535D01*
X57170000Y33858165D01*
X56933285Y33839535D01*
X56702404Y33784105D01*
X56702402Y33784105D01*
X56483040Y33693243D01*
X56483037Y33693241D01*
X56280589Y33569180D01*
X56280586Y33569179D01*
X56100031Y33414969D01*
X55945821Y33234414D01*
X55945820Y33234411D01*
X55821759Y33031963D01*
X55821757Y33031960D01*
X55730895Y32812598D01*
X55730895Y32812596D01*
X55675465Y32581715D01*
X55656835Y32345001D01*
X54175141Y32345001D01*
X54175141Y32345006D01*
X54154614Y32592730D01*
X54154612Y32592739D01*
X54093587Y32833718D01*
X53993731Y33061370D01*
X53893434Y33214884D01*
X53195928Y32517379D01*
X53193116Y32530915D01*
X53123558Y32665156D01*
X53020362Y32775652D01*
X52891181Y32854209D01*
X52839996Y32868551D01*
X53540056Y33568611D01*
X53493229Y33605057D01*
X53274614Y33723365D01*
X53274603Y33723370D01*
X53039493Y33804084D01*
X52794293Y33845000D01*
X52545707Y33845000D01*
X52300506Y33804084D01*
X52065396Y33723370D01*
X52065390Y33723368D01*
X51846761Y33605051D01*
X51799942Y33568612D01*
X51799942Y33568610D01*
X52498430Y32870121D01*
X52381542Y32819349D01*
X52264261Y32723934D01*
X52177072Y32600415D01*
X52146645Y32514803D01*
X51446564Y33214884D01*
X51346267Y33061368D01*
X51246412Y32833718D01*
X51185387Y32592739D01*
X51185385Y32592730D01*
X51164859Y32345006D01*
X51164859Y32344995D01*
X51185385Y32097271D01*
X51185387Y32097262D01*
X51246412Y31856283D01*
X51346267Y31628633D01*
X51403581Y31540907D01*
X51423769Y31474018D01*
X51404588Y31406832D01*
X51352129Y31360682D01*
X51309504Y31349469D01*
X51183289Y31339535D01*
X51183284Y31339534D01*
X51183285Y31339534D01*
X50952404Y31284105D01*
X50952402Y31284105D01*
X50733040Y31193243D01*
X50733037Y31193241D01*
X50530589Y31069180D01*
X50530586Y31069179D01*
X50350031Y30914969D01*
X50195821Y30734414D01*
X50195820Y30734411D01*
X50071759Y30531963D01*
X50071757Y30531960D01*
X49980895Y30312598D01*
X49980895Y30312596D01*
X49925465Y30081715D01*
X49906835Y29845000D01*
X48844759Y29845000D01*
X48927203Y30032953D01*
X48983024Y30253386D01*
X49001802Y30480000D01*
X48983024Y30706614D01*
X48927203Y30927047D01*
X48835861Y31135285D01*
X48711490Y31325649D01*
X48557483Y31492946D01*
X48557478Y31492950D01*
X48557475Y31492953D01*
X48378047Y31632607D01*
X48378032Y31632617D01*
X48178065Y31740834D01*
X48178051Y31740841D01*
X47962987Y31814672D01*
X47813458Y31839625D01*
X47738695Y31852100D01*
X47511305Y31852100D01*
X47455232Y31842744D01*
X47287012Y31814672D01*
X47071948Y31740841D01*
X47071934Y31740834D01*
X46871967Y31632617D01*
X46871952Y31632607D01*
X46692524Y31492953D01*
X46692514Y31492943D01*
X46538507Y31325646D01*
X46414137Y31135282D01*
X46322797Y30927048D01*
X46266975Y30706611D01*
X46248198Y30480006D01*
X46248198Y30479995D01*
X46266975Y30253390D01*
X46322797Y30032953D01*
X46405240Y29845001D01*
X46414139Y29824715D01*
X46538510Y29634351D01*
X46692517Y29467054D01*
X46692521Y29467051D01*
X46692524Y29467048D01*
X46871952Y29327394D01*
X46871963Y29327387D01*
X46887360Y29319054D01*
X46936950Y29269834D01*
X46952057Y29201617D01*
X46927886Y29136062D01*
X46887360Y29100946D01*
X46871963Y29092614D01*
X46871952Y29092607D01*
X46692524Y28952953D01*
X46692514Y28952943D01*
X46538507Y28785646D01*
X46414137Y28595282D01*
X46322797Y28387048D01*
X46266975Y28166611D01*
X46248198Y27940006D01*
X46248198Y27939995D01*
X46266975Y27713390D01*
X46266975Y27713387D01*
X46266976Y27713386D01*
X46280055Y27661739D01*
X46322797Y27492953D01*
X46409383Y27295556D01*
X46414139Y27284715D01*
X46487108Y27173028D01*
X46533039Y27102724D01*
X46538510Y27094351D01*
X46692517Y26927054D01*
X46692521Y26927051D01*
X46692524Y26927048D01*
X46871952Y26787394D01*
X46871963Y26787387D01*
X46887360Y26779054D01*
X46936950Y26729834D01*
X46952057Y26661617D01*
X46927886Y26596062D01*
X46887360Y26560946D01*
X46871963Y26552614D01*
X46871952Y26552607D01*
X46692524Y26412953D01*
X46692514Y26412943D01*
X46538507Y26245646D01*
X46414137Y26055282D01*
X46322797Y25847048D01*
X46266975Y25626611D01*
X46248198Y25400006D01*
X46248198Y25399995D01*
X46266975Y25173390D01*
X46322797Y24952953D01*
X46409194Y24755987D01*
X46414139Y24744715D01*
X46482041Y24640784D01*
X46533039Y24562724D01*
X46538510Y24554351D01*
X46674152Y24407004D01*
X46705073Y24344351D01*
X46697213Y24274925D01*
X46653065Y24220770D01*
X46626254Y24206841D01*
X46519313Y24166955D01*
X46519306Y24166951D01*
X46404212Y24080791D01*
X46404209Y24080788D01*
X46318049Y23965694D01*
X46318045Y23965687D01*
X46267803Y23830980D01*
X46267801Y23830973D01*
X46261400Y23771445D01*
X46261400Y23110000D01*
X47181804Y23110000D01*
X47158155Y23073201D01*
X47117000Y22933039D01*
X47117000Y22786961D01*
X47158155Y22646799D01*
X47181804Y22610000D01*
X46261400Y22610000D01*
X46228046Y22576646D01*
X46166722Y22543162D01*
X46097031Y22548147D01*
X46052684Y22576647D01*
X44770152Y23859179D01*
X44736667Y23920502D01*
X44741651Y23990194D01*
X44783523Y24046127D01*
X44814499Y24063041D01*
X44878237Y24086815D01*
X44911204Y24099111D01*
X45028261Y24186739D01*
X45115889Y24303796D01*
X45166989Y24440799D01*
X45170591Y24474308D01*
X45173499Y24501346D01*
X45173500Y24501363D01*
X45173500Y26298638D01*
X45173499Y26298655D01*
X45169672Y26334241D01*
X45166989Y26359201D01*
X45157439Y26384804D01*
X45143434Y26422355D01*
X45115889Y26496204D01*
X45028261Y26613261D01*
X44911204Y26700889D01*
X44909142Y26701658D01*
X44774203Y26751989D01*
X44713654Y26758500D01*
X44713638Y26758500D01*
X42916362Y26758500D01*
X42916345Y26758500D01*
X42855797Y26751989D01*
X42855795Y26751989D01*
X42718795Y26700889D01*
X42601739Y26613261D01*
X42514111Y26496205D01*
X42468861Y26374889D01*
X42426989Y26318956D01*
X42361524Y26294540D01*
X42293252Y26309393D01*
X42261454Y26334238D01*
X42198240Y26402906D01*
X42020576Y26541189D01*
X42020575Y26541190D01*
X42020572Y26541192D01*
X41822580Y26648339D01*
X41822577Y26648341D01*
X41822574Y26648342D01*
X41822571Y26648343D01*
X41822569Y26648344D01*
X41609637Y26721444D01*
X41387569Y26758500D01*
X41162431Y26758500D01*
X40940362Y26721444D01*
X40727430Y26648344D01*
X40727419Y26648339D01*
X40529427Y26541192D01*
X40529422Y26541188D01*
X40351761Y26402908D01*
X40351756Y26402903D01*
X40199284Y26237277D01*
X40199276Y26237266D01*
X40105251Y26093350D01*
X40052105Y26047993D01*
X39982873Y26038570D01*
X39919538Y26068072D01*
X39899868Y26090049D01*
X39773113Y26271074D01*
X39773108Y26271080D01*
X39606082Y26438106D01*
X39412578Y26573601D01*
X39198492Y26673430D01*
X39198486Y26673433D01*
X38985000Y26730636D01*
X38985000Y25835502D01*
X38877315Y25884680D01*
X38770763Y25900000D01*
X38699237Y25900000D01*
X38592685Y25884680D01*
X38485000Y25835502D01*
X38485000Y26730636D01*
X38484999Y26730636D01*
X38271513Y26673433D01*
X38271502Y26673429D01*
X38086282Y26587059D01*
X38017205Y26576567D01*
X37953421Y26605087D01*
X37931828Y26629001D01*
X37925672Y26637919D01*
X37910284Y26660213D01*
X37866399Y26699092D01*
X37863688Y26701643D01*
X37644637Y26920694D01*
X37611152Y26982017D01*
X37609000Y26995395D01*
X37596542Y27113928D01*
X37538939Y27291209D01*
X37537529Y27295550D01*
X37537528Y27295551D01*
X37537527Y27295556D01*
X37442040Y27460944D01*
X37314253Y27602866D01*
X37159752Y27715118D01*
X37072492Y27753969D01*
X37019257Y27799217D01*
X36998935Y27866066D01*
X37003155Y27899342D01*
X37010978Y27928537D01*
X37030353Y28150000D01*
X37010978Y28371463D01*
X36953440Y28586196D01*
X36859488Y28787676D01*
X36859486Y28787679D01*
X36859485Y28787681D01*
X36731978Y28969780D01*
X36656064Y29045694D01*
X36574781Y29126977D01*
X36434677Y29225079D01*
X36392676Y29254489D01*
X36291936Y29301465D01*
X36191196Y29348440D01*
X36191193Y29348441D01*
X36191191Y29348442D01*
X36185384Y29349998D01*
X42979647Y29349998D01*
X42999021Y29128543D01*
X42999022Y29128535D01*
X43056558Y28913809D01*
X43056559Y28913807D01*
X43056560Y28913804D01*
X43091791Y28838250D01*
X43150511Y28712324D01*
X43164478Y28692378D01*
X43278023Y28530219D01*
X43435219Y28373023D01*
X43617323Y28245512D01*
X43818804Y28151560D01*
X44033537Y28094022D01*
X44191724Y28080183D01*
X44254998Y28074647D01*
X44255000Y28074647D01*
X44255002Y28074647D01*
X44310365Y28079491D01*
X44476463Y28094022D01*
X44691196Y28151560D01*
X44892677Y28245512D01*
X45074781Y28373023D01*
X45231977Y28530219D01*
X45359488Y28712323D01*
X45453440Y28913804D01*
X45510978Y29128537D01*
X45530353Y29350000D01*
X45510978Y29571463D01*
X45453440Y29786196D01*
X45359488Y29987676D01*
X45359486Y29987679D01*
X45359485Y29987681D01*
X45231978Y30169780D01*
X45177431Y30224327D01*
X45074781Y30326977D01*
X44892677Y30454488D01*
X44892678Y30454488D01*
X44892676Y30454489D01*
X44791936Y30501465D01*
X44691196Y30548440D01*
X44691193Y30548441D01*
X44691191Y30548442D01*
X44476465Y30605978D01*
X44476457Y30605979D01*
X44255002Y30625353D01*
X44254998Y30625353D01*
X44033542Y30605979D01*
X44033535Y30605978D01*
X43818800Y30548439D01*
X43617323Y30454488D01*
X43617319Y30454486D01*
X43435217Y30326977D01*
X43278023Y30169783D01*
X43150514Y29987681D01*
X43150512Y29987677D01*
X43056561Y29786200D01*
X42999022Y29571465D01*
X42999021Y29571458D01*
X42979647Y29350003D01*
X42979647Y29349998D01*
X36185384Y29349998D01*
X35976465Y29405978D01*
X35976457Y29405979D01*
X35755002Y29425353D01*
X35754998Y29425353D01*
X35533542Y29405979D01*
X35533535Y29405978D01*
X35318800Y29348439D01*
X35117323Y29254488D01*
X35117319Y29254486D01*
X34935217Y29126977D01*
X34778023Y28969783D01*
X34650514Y28787681D01*
X34650512Y28787677D01*
X34556561Y28586200D01*
X34499022Y28371465D01*
X34499021Y28371458D01*
X34479647Y28150003D01*
X34479647Y28149998D01*
X34499021Y27928543D01*
X34499022Y27928535D01*
X34556558Y27713809D01*
X34556559Y27713807D01*
X34556560Y27713804D01*
X34585212Y27652359D01*
X34650511Y27512324D01*
X34650512Y27512323D01*
X34778023Y27330219D01*
X34935219Y27173023D01*
X35117323Y27045512D01*
X35318804Y26951560D01*
X35533537Y26894022D01*
X35612309Y26887131D01*
X35677376Y26861679D01*
X35718355Y26805088D01*
X35722234Y26735326D01*
X35687781Y26674542D01*
X35651318Y26650050D01*
X35647428Y26648344D01*
X35449427Y26541192D01*
X35449422Y26541188D01*
X35271761Y26402908D01*
X35271756Y26402903D01*
X35119284Y26237277D01*
X35119276Y26237266D01*
X34996140Y26048793D01*
X34905703Y25842615D01*
X34850436Y25624372D01*
X34850434Y25624360D01*
X34831844Y25400006D01*
X34831844Y25399995D01*
X34850434Y25175641D01*
X34850436Y25175629D01*
X34905703Y24957386D01*
X34996140Y24751208D01*
X35119276Y24562735D01*
X35119284Y24562724D01*
X35271756Y24397098D01*
X35271761Y24397093D01*
X35293722Y24380000D01*
X35449424Y24258811D01*
X35449425Y24258811D01*
X35449427Y24258809D01*
X35545456Y24206841D01*
X35647426Y24151658D01*
X35860365Y24078556D01*
X36082431Y24041500D01*
X36307569Y24041500D01*
X36529635Y24078556D01*
X36566760Y24091301D01*
X36582237Y24096614D01*
X36652035Y24099764D01*
X36712457Y24064678D01*
X36744317Y24002496D01*
X36746500Y23979333D01*
X36746500Y22437206D01*
X36726815Y22370167D01*
X36674011Y22324412D01*
X36604853Y22314468D01*
X36541297Y22343493D01*
X36518691Y22369384D01*
X36397392Y22555046D01*
X36397391Y22555047D01*
X36397390Y22555049D01*
X36243383Y22722346D01*
X36243378Y22722350D01*
X36243375Y22722353D01*
X36063947Y22862007D01*
X36063932Y22862017D01*
X35863965Y22970234D01*
X35863951Y22970241D01*
X35648887Y23044072D01*
X35474327Y23073201D01*
X35424595Y23081500D01*
X35197205Y23081500D01*
X35147473Y23073201D01*
X34972912Y23044072D01*
X34757848Y22970241D01*
X34757834Y22970234D01*
X34557867Y22862017D01*
X34557852Y22862007D01*
X34378424Y22722353D01*
X34378414Y22722343D01*
X34224407Y22555046D01*
X34100038Y22364684D01*
X34083811Y22327689D01*
X34038854Y22274204D01*
X33972118Y22253514D01*
X33970255Y22253500D01*
X33806136Y22253500D01*
X33739097Y22273185D01*
X33693342Y22325989D01*
X33683398Y22395147D01*
X33686452Y22407853D01*
X33685944Y22407981D01*
X33715301Y22523910D01*
X33743024Y22633386D01*
X33754506Y22771952D01*
X33761802Y22859995D01*
X33761802Y22860006D01*
X33744135Y23073201D01*
X33743024Y23086614D01*
X33687203Y23307047D01*
X33595861Y23515285D01*
X33471490Y23705649D01*
X33317483Y23872946D01*
X33317478Y23872950D01*
X33317475Y23872953D01*
X33138047Y24012607D01*
X33138037Y24012614D01*
X33122641Y24020945D01*
X33073050Y24070164D01*
X33057941Y24138380D01*
X33082112Y24203936D01*
X33122641Y24239055D01*
X33138037Y24247387D01*
X33138036Y24247387D01*
X33138039Y24247388D01*
X33149969Y24256673D01*
X33264598Y24345892D01*
X33317483Y24387054D01*
X33471490Y24554351D01*
X33595861Y24744715D01*
X33687203Y24952953D01*
X33743024Y25173386D01*
X33756815Y25339816D01*
X33761802Y25399995D01*
X33761802Y25400006D01*
X33749283Y25551077D01*
X33743024Y25626614D01*
X33687203Y25847047D01*
X33595861Y26055285D01*
X33471490Y26245649D01*
X33335846Y26392998D01*
X33304926Y26455650D01*
X33312786Y26525076D01*
X33356934Y26579231D01*
X33383746Y26593160D01*
X33490684Y26633045D01*
X33490693Y26633050D01*
X33605787Y26719210D01*
X33605790Y26719213D01*
X33691950Y26834307D01*
X33691954Y26834314D01*
X33742196Y26969021D01*
X33742198Y26969028D01*
X33748599Y27028556D01*
X33748600Y27028573D01*
X33748600Y27690000D01*
X32828196Y27690000D01*
X32851845Y27726799D01*
X32893000Y27866961D01*
X32893000Y28013039D01*
X32851845Y28153201D01*
X32828196Y28190000D01*
X33748600Y28190000D01*
X33748600Y28851428D01*
X33748599Y28851445D01*
X33742198Y28910973D01*
X33742196Y28910980D01*
X33691954Y29045687D01*
X33691950Y29045694D01*
X33605790Y29160788D01*
X33605787Y29160791D01*
X33490693Y29246951D01*
X33490686Y29246955D01*
X33383745Y29286841D01*
X33327811Y29328712D01*
X33303394Y29394176D01*
X33318246Y29462449D01*
X33335840Y29486997D01*
X33471490Y29634351D01*
X33595861Y29824715D01*
X33687203Y30032953D01*
X33743024Y30253386D01*
X33761802Y30480000D01*
X33757496Y30531960D01*
X33743024Y30706611D01*
X33743024Y30706614D01*
X33687203Y30927047D01*
X33595861Y31135285D01*
X33471490Y31325649D01*
X33317483Y31492946D01*
X33317478Y31492950D01*
X33317475Y31492953D01*
X33138047Y31632607D01*
X33138032Y31632617D01*
X32938065Y31740834D01*
X32938051Y31740841D01*
X32722987Y31814672D01*
X32573458Y31839625D01*
X32498695Y31852100D01*
X32271305Y31852100D01*
X32215232Y31842744D01*
X32047012Y31814672D01*
X31831948Y31740841D01*
X31831934Y31740834D01*
X31631967Y31632617D01*
X31631952Y31632607D01*
X31452524Y31492953D01*
X31452514Y31492943D01*
X31298507Y31325646D01*
X31174137Y31135282D01*
X31082797Y30927048D01*
X31026975Y30706611D01*
X31008198Y30480006D01*
X31008198Y30479995D01*
X31026975Y30253390D01*
X31082797Y30032953D01*
X31165240Y29845001D01*
X31174139Y29824715D01*
X31298510Y29634351D01*
X31434152Y29487004D01*
X31465073Y29424351D01*
X31457213Y29354925D01*
X31413065Y29300770D01*
X31386254Y29286841D01*
X31279313Y29246955D01*
X31279306Y29246951D01*
X31164212Y29160791D01*
X31164209Y29160788D01*
X31078049Y29045694D01*
X31078045Y29045687D01*
X31027803Y28910980D01*
X31027801Y28910973D01*
X31021400Y28851445D01*
X31021400Y28190000D01*
X31941804Y28190000D01*
X31918155Y28153201D01*
X31877000Y28013039D01*
X31877000Y27866961D01*
X31918155Y27726799D01*
X31941804Y27690000D01*
X31021400Y27690000D01*
X31021400Y27028556D01*
X31027801Y26969028D01*
X31027803Y26969021D01*
X31078045Y26834314D01*
X31078049Y26834307D01*
X31164209Y26719213D01*
X31164212Y26719210D01*
X31279306Y26633050D01*
X31279313Y26633046D01*
X31386254Y26593160D01*
X31442187Y26551289D01*
X31466605Y26485825D01*
X31451754Y26417552D01*
X31434151Y26392996D01*
X31298510Y26245649D01*
X31174137Y26055282D01*
X31082797Y25847048D01*
X31026975Y25626611D01*
X31008198Y25400006D01*
X31008198Y25399995D01*
X31026975Y25173390D01*
X31056545Y25056619D01*
X31053919Y24986798D01*
X31013963Y24929481D01*
X30986775Y24912900D01*
X30912248Y24879719D01*
X30757745Y24767465D01*
X30629959Y24625543D01*
X30534473Y24460157D01*
X30534470Y24460150D01*
X30475459Y24278533D01*
X30475459Y24278532D01*
X30475458Y24278528D01*
X30467923Y24206841D01*
X30467864Y24206275D01*
X30441279Y24141661D01*
X30432224Y24131557D01*
X29606488Y23305819D01*
X29545165Y23272334D01*
X29518807Y23269500D01*
X28104692Y23269500D01*
X28037653Y23289185D01*
X28031823Y23293170D01*
X27888752Y23397118D01*
X27714288Y23474794D01*
X27714286Y23474795D01*
X27527487Y23514500D01*
X27336513Y23514500D01*
X27149714Y23474795D01*
X26975246Y23397117D01*
X26820745Y23284865D01*
X26692959Y23142943D01*
X26597473Y22977557D01*
X26597470Y22977550D01*
X26539538Y22799252D01*
X26538458Y22795928D01*
X26518496Y22606000D01*
X26538458Y22416072D01*
X26538459Y22416069D01*
X26597470Y22234451D01*
X26597473Y22234444D01*
X26640453Y22160001D01*
X26656926Y22092101D01*
X26640453Y22036001D01*
X26597473Y21961558D01*
X26542467Y21792266D01*
X26538458Y21779928D01*
X26518496Y21590000D01*
X26538458Y21400072D01*
X26538459Y21400069D01*
X26597470Y21218451D01*
X26597473Y21218444D01*
X26692960Y21053056D01*
X26789752Y20945557D01*
X26811357Y20921562D01*
X26820747Y20911134D01*
X26975248Y20798882D01*
X27149712Y20721206D01*
X27336513Y20681500D01*
X27527487Y20681500D01*
X27714288Y20721206D01*
X27888752Y20798882D01*
X28031808Y20902819D01*
X28097612Y20926298D01*
X28104692Y20926500D01*
X30963864Y20926500D01*
X31030903Y20906815D01*
X31076658Y20854011D01*
X31086602Y20784853D01*
X31083547Y20772148D01*
X31084056Y20772019D01*
X31026975Y20546611D01*
X31008198Y20320006D01*
X31008198Y20319995D01*
X31026975Y20093390D01*
X31082797Y19872953D01*
X31145999Y19728866D01*
X31174139Y19664715D01*
X31235843Y19570270D01*
X31292866Y19482989D01*
X31298510Y19474351D01*
X31452517Y19307054D01*
X31452521Y19307051D01*
X31452524Y19307048D01*
X31631952Y19167394D01*
X31631963Y19167387D01*
X31647360Y19159054D01*
X31696950Y19109834D01*
X31712057Y19041617D01*
X31687886Y18976062D01*
X31647360Y18940946D01*
X31631963Y18932614D01*
X31631952Y18932607D01*
X31452524Y18792953D01*
X31452514Y18792943D01*
X31298507Y18625646D01*
X31174137Y18435282D01*
X31082797Y18227048D01*
X31026975Y18006611D01*
X31008198Y17780006D01*
X31008198Y17779995D01*
X31026975Y17553390D01*
X31082797Y17332953D01*
X31139483Y17203721D01*
X31174139Y17124715D01*
X31298510Y16934351D01*
X31452517Y16767054D01*
X31452521Y16767051D01*
X31452524Y16767048D01*
X31631952Y16627394D01*
X31631963Y16627387D01*
X31647360Y16619054D01*
X31696950Y16569834D01*
X31712057Y16501617D01*
X31687886Y16436062D01*
X31647360Y16400946D01*
X31631963Y16392614D01*
X31631952Y16392607D01*
X31452524Y16252953D01*
X31452514Y16252943D01*
X31298507Y16085646D01*
X31174137Y15895282D01*
X31082797Y15687048D01*
X31026975Y15466611D01*
X31008198Y15240006D01*
X31008198Y15239995D01*
X31026975Y15013390D01*
X31082797Y14792953D01*
X31117769Y14713224D01*
X31174139Y14584715D01*
X31298510Y14394351D01*
X31452517Y14227054D01*
X31452521Y14227051D01*
X31452524Y14227048D01*
X31631952Y14087394D01*
X31631962Y14087387D01*
X31639821Y14083135D01*
X31647356Y14079057D01*
X31696948Y14029839D01*
X31712058Y13961623D01*
X31687889Y13896067D01*
X31647364Y13860949D01*
X31631963Y13852614D01*
X31631952Y13852607D01*
X31452524Y13712953D01*
X31452514Y13712943D01*
X31298507Y13545646D01*
X31174137Y13355282D01*
X31082797Y13147048D01*
X31026975Y12926611D01*
X31008198Y12700006D01*
X31008198Y12699995D01*
X31026975Y12473390D01*
X31026975Y12473387D01*
X31026976Y12473386D01*
X31082797Y12252953D01*
X31174139Y12044715D01*
X31235180Y11951285D01*
X31286577Y11872615D01*
X31298510Y11854351D01*
X31452517Y11687054D01*
X31452521Y11687051D01*
X31452524Y11687048D01*
X31631952Y11547394D01*
X31631963Y11547387D01*
X31647360Y11539054D01*
X31696950Y11489834D01*
X31712057Y11421617D01*
X31687886Y11356062D01*
X31647360Y11320946D01*
X31631963Y11312614D01*
X31631952Y11312607D01*
X31452524Y11172953D01*
X31452514Y11172943D01*
X31298507Y11005646D01*
X31174137Y10815282D01*
X31082797Y10607048D01*
X31026975Y10386611D01*
X31008198Y10160006D01*
X31008198Y10159995D01*
X31026975Y9933390D01*
X31082797Y9712953D01*
X31161938Y9532529D01*
X31174139Y9504715D01*
X31174140Y9504714D01*
X31292869Y9322984D01*
X31298510Y9314351D01*
X31452517Y9147054D01*
X31452521Y9147051D01*
X31452524Y9147048D01*
X31631952Y9007394D01*
X31631963Y9007387D01*
X31647360Y8999054D01*
X31696950Y8949834D01*
X31712057Y8881617D01*
X31687886Y8816062D01*
X31647360Y8780946D01*
X31631963Y8772614D01*
X31631952Y8772607D01*
X31452524Y8632953D01*
X31452514Y8632943D01*
X31298507Y8465646D01*
X31174137Y8275282D01*
X31082797Y8067048D01*
X31026975Y7846611D01*
X31008198Y7620006D01*
X31008198Y7619995D01*
X31026975Y7393390D01*
X31082797Y7172953D01*
X31155383Y7007473D01*
X31174139Y6964715D01*
X31212633Y6905796D01*
X31286577Y6792615D01*
X31298510Y6774351D01*
X31452517Y6607054D01*
X31452521Y6607051D01*
X31452524Y6607048D01*
X31631952Y6467394D01*
X31631963Y6467387D01*
X31647360Y6459054D01*
X31696950Y6409834D01*
X31712057Y6341617D01*
X31687886Y6276062D01*
X31647360Y6240946D01*
X31631963Y6232614D01*
X31631952Y6232607D01*
X31452524Y6092953D01*
X31452514Y6092943D01*
X31298507Y5925646D01*
X31174137Y5735282D01*
X31082797Y5527048D01*
X31026975Y5306611D01*
X31008198Y5080006D01*
X31008198Y5079995D01*
X31026975Y4853390D01*
X31082797Y4632953D01*
X31156866Y4464092D01*
X31174139Y4424715D01*
X31233910Y4333229D01*
X31286577Y4252615D01*
X31298510Y4234351D01*
X31452517Y4067054D01*
X31452521Y4067051D01*
X31452524Y4067048D01*
X31631952Y3927394D01*
X31631963Y3927387D01*
X31647360Y3919054D01*
X31696950Y3869834D01*
X31712057Y3801617D01*
X31687886Y3736062D01*
X31647360Y3700946D01*
X31631963Y3692614D01*
X31631952Y3692607D01*
X31452524Y3552953D01*
X31452514Y3552943D01*
X31298507Y3385646D01*
X31174137Y3195282D01*
X31082797Y2987048D01*
X31026975Y2766611D01*
X31008198Y2540006D01*
X31008198Y2539995D01*
X31026975Y2313390D01*
X31082797Y2092953D01*
X31161098Y1914444D01*
X31174139Y1884715D01*
X31212710Y1825678D01*
X31298316Y1694647D01*
X31298510Y1694351D01*
X31452517Y1527054D01*
X31452521Y1527051D01*
X31452524Y1527048D01*
X31631952Y1387394D01*
X31631967Y1387384D01*
X31792749Y1300373D01*
X31831945Y1279161D01*
X31858630Y1270000D01*
X32038768Y1208159D01*
X32047015Y1205328D01*
X32271305Y1167900D01*
X32271306Y1167900D01*
X32498694Y1167900D01*
X32498695Y1167900D01*
X32722985Y1205328D01*
X32938055Y1279161D01*
X33093584Y1363330D01*
X33138032Y1387384D01*
X33138033Y1387386D01*
X33138039Y1387388D01*
X33146685Y1394117D01*
X33254382Y1477941D01*
X33317483Y1527054D01*
X33471490Y1694351D01*
X33551191Y1816344D01*
X33604337Y1861700D01*
X33673568Y1871124D01*
X33736904Y1841622D01*
X33758809Y1816343D01*
X33838505Y1694357D01*
X33838507Y1694355D01*
X33838510Y1694351D01*
X33992517Y1527054D01*
X33992521Y1527051D01*
X33992524Y1527048D01*
X34171952Y1387394D01*
X34171967Y1387384D01*
X34332749Y1300373D01*
X34371945Y1279161D01*
X34398630Y1270000D01*
X34578768Y1208159D01*
X34587015Y1205328D01*
X34811305Y1167900D01*
X34811306Y1167900D01*
X35038694Y1167900D01*
X35038695Y1167900D01*
X35262985Y1205328D01*
X35478055Y1279161D01*
X35633584Y1363330D01*
X35678032Y1387384D01*
X35678033Y1387386D01*
X35678039Y1387388D01*
X35686685Y1394117D01*
X35794382Y1477941D01*
X35857483Y1527054D01*
X36011490Y1694351D01*
X36091191Y1816344D01*
X36144337Y1861700D01*
X36213568Y1871124D01*
X36276904Y1841622D01*
X36298809Y1816343D01*
X36378505Y1694357D01*
X36378507Y1694355D01*
X36378510Y1694351D01*
X36532517Y1527054D01*
X36532521Y1527051D01*
X36532524Y1527048D01*
X36711952Y1387394D01*
X36711967Y1387384D01*
X36872749Y1300373D01*
X36911945Y1279161D01*
X36938630Y1270000D01*
X37118768Y1208159D01*
X37127015Y1205328D01*
X37349226Y1168247D01*
X37412111Y1137796D01*
X37448551Y1078181D01*
X37446975Y1008329D01*
X37416498Y958257D01*
X37278021Y819780D01*
X37150514Y637681D01*
X37150512Y637677D01*
X37056561Y436200D01*
X36999022Y221465D01*
X36999021Y221458D01*
X36979647Y3D01*
X36979647Y-2D01*
X36999021Y-221457D01*
X36999022Y-221465D01*
X37056558Y-436191D01*
X37056559Y-436193D01*
X37056560Y-436196D01*
X37081435Y-489541D01*
X37150511Y-637676D01*
X37157736Y-647994D01*
X37278023Y-819781D01*
X37435219Y-976977D01*
X37617323Y-1104488D01*
X37818804Y-1198440D01*
X38033537Y-1255978D01*
X38191724Y-1269817D01*
X38254998Y-1275353D01*
X38255000Y-1275353D01*
X38255002Y-1275353D01*
X38310365Y-1270509D01*
X38476463Y-1255978D01*
X38691196Y-1198440D01*
X38892677Y-1104488D01*
X39074781Y-976977D01*
X39231977Y-819781D01*
X39359488Y-637677D01*
X39453440Y-436196D01*
X39510978Y-221463D01*
X39530353Y0D01*
X39510978Y221463D01*
X39453440Y436196D01*
X39359488Y637676D01*
X39359486Y637679D01*
X39359485Y637681D01*
X39231978Y819780D01*
X39154666Y897092D01*
X39074781Y976977D01*
X38904508Y1096204D01*
X38892676Y1104489D01*
X38764416Y1164297D01*
X38691196Y1198440D01*
X38691193Y1198441D01*
X38691191Y1198442D01*
X38476465Y1255978D01*
X38476457Y1255979D01*
X38406818Y1262071D01*
X38341749Y1287523D01*
X38300770Y1344114D01*
X38296892Y1413876D01*
X38331346Y1474660D01*
X38341463Y1483452D01*
X38358705Y1496872D01*
X38397483Y1527054D01*
X38551490Y1694351D01*
X38636267Y1824113D01*
X38689413Y1869469D01*
X38758645Y1878893D01*
X38821981Y1849391D01*
X38843885Y1824112D01*
X38880110Y1768666D01*
X39515477Y2404033D01*
X39538155Y2326799D01*
X39617131Y2203910D01*
X39727530Y2108248D01*
X39860408Y2047565D01*
X39865399Y2046848D01*
X39232139Y1413588D01*
X39232140Y1413587D01*
X39256622Y1394532D01*
X39256632Y1394525D01*
X39455360Y1286978D01*
X39455375Y1286971D01*
X39669106Y1213597D01*
X39892010Y1176400D01*
X40117990Y1176400D01*
X40340893Y1213597D01*
X40554624Y1286971D01*
X40554639Y1286978D01*
X40753366Y1394524D01*
X40753378Y1394532D01*
X40777859Y1413587D01*
X40777859Y1413588D01*
X40144600Y2046848D01*
X40149592Y2047565D01*
X40282470Y2108248D01*
X40392869Y2203910D01*
X40471845Y2326799D01*
X40494522Y2404032D01*
X41129889Y1768665D01*
X41145989Y1770335D01*
X41165208Y1786737D01*
X41234439Y1796162D01*
X41297776Y1766662D01*
X41303554Y1761241D01*
X41599119Y1465676D01*
X41632604Y1404353D01*
X41627620Y1334661D01*
X41585748Y1278728D01*
X41538525Y1258280D01*
X41538767Y1257379D01*
X41533539Y1255979D01*
X41533537Y1255978D01*
X41379431Y1214685D01*
X41318800Y1198439D01*
X41117323Y1104488D01*
X41117319Y1104486D01*
X40935217Y976977D01*
X40778023Y819783D01*
X40650514Y637681D01*
X40650512Y637677D01*
X40556561Y436200D01*
X40499022Y221465D01*
X40499021Y221458D01*
X40479647Y3D01*
X40479647Y-2D01*
X40499021Y-221457D01*
X40499022Y-221465D01*
X40556558Y-436191D01*
X40556559Y-436193D01*
X40556560Y-436196D01*
X40581435Y-489541D01*
X40650511Y-637676D01*
X40657736Y-647994D01*
X40778023Y-819781D01*
X40935219Y-976977D01*
X41117323Y-1104488D01*
X41318804Y-1198440D01*
X41533537Y-1255978D01*
X41691724Y-1269817D01*
X41754998Y-1275353D01*
X41755000Y-1275353D01*
X41755002Y-1275353D01*
X41810365Y-1270509D01*
X41976463Y-1255978D01*
X42191196Y-1198440D01*
X42392677Y-1104488D01*
X42574781Y-976977D01*
X42731977Y-819781D01*
X42859488Y-637677D01*
X42953440Y-436196D01*
X43010978Y-221463D01*
X43010979Y-221457D01*
X43012379Y-216233D01*
X43013591Y-216557D01*
X43041898Y-159433D01*
X43101843Y-123538D01*
X43171677Y-125749D01*
X43220675Y-155880D01*
X44153483Y-1088688D01*
X44156034Y-1091399D01*
X44194913Y-1135284D01*
X44243177Y-1168598D01*
X44246179Y-1170807D01*
X44292349Y-1206979D01*
X44292352Y-1206981D01*
X44300563Y-1210676D01*
X44320111Y-1221702D01*
X44327518Y-1226815D01*
X44382345Y-1247608D01*
X44385805Y-1249041D01*
X44439283Y-1273110D01*
X44445688Y-1274283D01*
X44448139Y-1274733D01*
X44469760Y-1280760D01*
X44478174Y-1283951D01*
X44509111Y-1287707D01*
X44536384Y-1291019D01*
X44540081Y-1291581D01*
X44597771Y-1302153D01*
X44597772Y-1302152D01*
X44597773Y-1302153D01*
X44656299Y-1298613D01*
X44660043Y-1298500D01*
X44793308Y-1298500D01*
X44860347Y-1318185D01*
X44866176Y-1322169D01*
X45009248Y-1426118D01*
X45183712Y-1503794D01*
X45370513Y-1543500D01*
X45561487Y-1543500D01*
X45748288Y-1503794D01*
X45922752Y-1426118D01*
X46077253Y-1313866D01*
X46205040Y-1171944D01*
X46300527Y-1006556D01*
X46359542Y-824928D01*
X46379504Y-635000D01*
X46359542Y-445072D01*
X46300527Y-263444D01*
X46205040Y-98056D01*
X46077253Y43866D01*
X45922752Y156118D01*
X45748288Y233794D01*
X45748286Y233795D01*
X45561487Y273500D01*
X45370513Y273500D01*
X45183714Y233795D01*
X45009250Y156120D01*
X44965238Y124144D01*
X44899431Y100666D01*
X44831377Y116493D01*
X44804674Y136783D01*
X43838483Y1102974D01*
X43804998Y1164297D01*
X43809982Y1233989D01*
X43834011Y1273623D01*
X43919040Y1368056D01*
X44014527Y1533444D01*
X44073542Y1715072D01*
X44093504Y1905000D01*
X44073542Y2094928D01*
X44014527Y2276556D01*
X43919040Y2441944D01*
X43905458Y2457028D01*
X43875229Y2520019D01*
X43883853Y2589354D01*
X43905459Y2622973D01*
X43908134Y2625944D01*
X43919040Y2638056D01*
X44014527Y2803444D01*
X44014528Y2803450D01*
X44017168Y2809376D01*
X44019387Y2808389D01*
X44052616Y2856996D01*
X44116971Y2884202D01*
X44141923Y2884540D01*
X44240714Y2875897D01*
X44254999Y2874647D01*
X44255000Y2874647D01*
X44255002Y2874647D01*
X44310365Y2879491D01*
X44476463Y2894022D01*
X44691196Y2951560D01*
X44892677Y3045512D01*
X45074781Y3173023D01*
X45231977Y3330219D01*
X45359488Y3512323D01*
X45453440Y3713804D01*
X45510978Y3928537D01*
X45530353Y4150000D01*
X45510978Y4371463D01*
X45453440Y4586196D01*
X45359488Y4787676D01*
X45359486Y4787679D01*
X45359485Y4787681D01*
X45231978Y4969780D01*
X45158022Y5043736D01*
X45074781Y5126977D01*
X45036280Y5153936D01*
X44947750Y5215926D01*
X44904125Y5270503D01*
X44896933Y5340001D01*
X44928455Y5402356D01*
X44988686Y5437769D01*
X45018874Y5441500D01*
X45180487Y5441500D01*
X45367288Y5481206D01*
X45541752Y5558882D01*
X45696253Y5671134D01*
X45797998Y5784135D01*
X45857482Y5820781D01*
X45927339Y5819452D01*
X45977827Y5788842D01*
X46256169Y5510500D01*
X46289654Y5449177D01*
X46288694Y5392380D01*
X46266975Y5306613D01*
X46248198Y5080006D01*
X46248198Y5079995D01*
X46266975Y4853390D01*
X46322797Y4632953D01*
X46396866Y4464092D01*
X46414139Y4424715D01*
X46473910Y4333229D01*
X46526577Y4252615D01*
X46538510Y4234351D01*
X46692517Y4067054D01*
X46692521Y4067051D01*
X46692524Y4067048D01*
X46871952Y3927394D01*
X46871963Y3927387D01*
X46887360Y3919054D01*
X46936950Y3869834D01*
X46952057Y3801617D01*
X46927886Y3736062D01*
X46887360Y3700946D01*
X46871963Y3692614D01*
X46871952Y3692607D01*
X46692524Y3552953D01*
X46692514Y3552943D01*
X46538507Y3385646D01*
X46414137Y3195282D01*
X46322797Y2987048D01*
X46266975Y2766611D01*
X46248198Y2540006D01*
X46248198Y2539995D01*
X46266975Y2313390D01*
X46322797Y2092953D01*
X46401098Y1914444D01*
X46414139Y1884715D01*
X46452710Y1825678D01*
X46538316Y1694647D01*
X46538510Y1694351D01*
X46692517Y1527054D01*
X46692521Y1527051D01*
X46692524Y1527048D01*
X46871952Y1387394D01*
X46871967Y1387384D01*
X47032749Y1300373D01*
X47071945Y1279161D01*
X47098630Y1270000D01*
X47278768Y1208159D01*
X47287015Y1205328D01*
X47511305Y1167900D01*
X47511306Y1167900D01*
X47738694Y1167900D01*
X47738695Y1167900D01*
X47962985Y1205328D01*
X48178055Y1279161D01*
X48333584Y1363330D01*
X48378032Y1387384D01*
X48378033Y1387386D01*
X48378039Y1387388D01*
X48386685Y1394117D01*
X48494382Y1477941D01*
X48557483Y1527054D01*
X48711490Y1694351D01*
X48835861Y1884715D01*
X48927203Y2092953D01*
X48983024Y2313386D01*
X49001802Y2540000D01*
X48984390Y2750134D01*
X48983025Y2766606D01*
X48983024Y2766611D01*
X48983024Y2766614D01*
X48961305Y2852380D01*
X48963930Y2922200D01*
X48993828Y2970499D01*
X49307288Y3283959D01*
X49309963Y3286478D01*
X49353884Y3325387D01*
X49387208Y3373668D01*
X49389394Y3376639D01*
X49425581Y3422826D01*
X49429273Y3431031D01*
X49440304Y3450589D01*
X49445415Y3457992D01*
X49466212Y3512832D01*
X49467630Y3516256D01*
X49491710Y3569757D01*
X49493333Y3578618D01*
X49499358Y3600230D01*
X49502551Y3608648D01*
X49509619Y3666860D01*
X49510183Y3670564D01*
X49518106Y3713803D01*
X49520753Y3728245D01*
X49520490Y3732585D01*
X49517213Y3786774D01*
X49517100Y3790518D01*
X49517100Y5760207D01*
X49536785Y5827246D01*
X49589589Y5873001D01*
X49658747Y5882945D01*
X49722303Y5853920D01*
X49728781Y5847888D01*
X52889402Y2687267D01*
X52922887Y2625944D01*
X52917903Y2556252D01*
X52876031Y2500319D01*
X52854126Y2487204D01*
X52683251Y2407524D01*
X52567271Y2326313D01*
X52495700Y2276198D01*
X52495698Y2276197D01*
X52495695Y2276194D01*
X52333806Y2114305D01*
X52333803Y2114302D01*
X52333802Y2114300D01*
X52302595Y2069732D01*
X52202476Y1926748D01*
X52202475Y1926746D01*
X52105718Y1719250D01*
X52105714Y1719239D01*
X52046457Y1498090D01*
X52046456Y1498082D01*
X52026502Y1270002D01*
X52026502Y1269999D01*
X52046456Y1041919D01*
X52046457Y1041911D01*
X52105714Y820762D01*
X52105718Y820751D01*
X52202475Y613255D01*
X52202477Y613251D01*
X52333802Y425700D01*
X52495700Y263802D01*
X52683251Y132477D01*
X52767203Y93330D01*
X52890750Y35719D01*
X52890752Y35719D01*
X52890757Y35716D01*
X53111913Y-23543D01*
X53274832Y-37796D01*
X53339998Y-43498D01*
X53340000Y-43498D01*
X53340002Y-43498D01*
X53397021Y-38509D01*
X53568087Y-23543D01*
X53789243Y35716D01*
X53996749Y132477D01*
X54184300Y263802D01*
X54346198Y425700D01*
X54477523Y613251D01*
X54574284Y820757D01*
X54578711Y837277D01*
X54584756Y859839D01*
X54621120Y919500D01*
X54683966Y950030D01*
X54726877Y949717D01*
X54728655Y949392D01*
X54728656Y949391D01*
X54737505Y947770D01*
X54759129Y941742D01*
X54767548Y938549D01*
X54825776Y931479D01*
X54829463Y930918D01*
X54887145Y920347D01*
X54887146Y920348D01*
X54887147Y920347D01*
X54945673Y923887D01*
X54949417Y924000D01*
X57116034Y924000D01*
X57183073Y904315D01*
X57228828Y851511D01*
X57238772Y782353D01*
X57209747Y718797D01*
X57150969Y681023D01*
X57126841Y676472D01*
X56921918Y658544D01*
X56921910Y658543D01*
X56700761Y599286D01*
X56700750Y599282D01*
X56493254Y502525D01*
X56493252Y502524D01*
X56437495Y463482D01*
X56305700Y371198D01*
X56305698Y371197D01*
X56305695Y371194D01*
X56143806Y209305D01*
X56143803Y209302D01*
X56143802Y209300D01*
X56092788Y136444D01*
X56012476Y21748D01*
X56012475Y21746D01*
X55915718Y-185750D01*
X55915714Y-185761D01*
X55856457Y-406910D01*
X55856456Y-406918D01*
X55836502Y-634998D01*
X55836502Y-635001D01*
X55856456Y-863081D01*
X55856457Y-863089D01*
X55915714Y-1084238D01*
X55915718Y-1084249D01*
X56012242Y-1291245D01*
X56012477Y-1291749D01*
X56143802Y-1479300D01*
X56305700Y-1641198D01*
X56493251Y-1772523D01*
X56542779Y-1795618D01*
X56595218Y-1841790D01*
X56614370Y-1908984D01*
X56594154Y-1975865D01*
X56540989Y-2021199D01*
X56490374Y-2032000D01*
X2439025Y-2032000D01*
X2371986Y-2012315D01*
X2326231Y-1959511D01*
X2315025Y-1908000D01*
X2315025Y140036D01*
X2303640Y233795D01*
X2281266Y418058D01*
X2214242Y689986D01*
X2214218Y690048D01*
X2158383Y837274D01*
X2114929Y951852D01*
X1984776Y1199839D01*
X1867525Y1369706D01*
X1825682Y1430327D01*
X1825677Y1430333D01*
X1639963Y1639962D01*
X1639961Y1639964D01*
X1430332Y1825678D01*
X1430326Y1825683D01*
X1204221Y1981751D01*
X1199839Y1984776D01*
X951852Y2114929D01*
X889453Y2138594D01*
X689991Y2214241D01*
X599876Y2236452D01*
X418058Y2281266D01*
X251243Y2301522D01*
X140035Y2315025D01*
X140033Y2315025D01*
X5072Y2315025D01*
X-127753Y2315025D01*
X-194792Y2334710D01*
X-240547Y2387514D01*
X-250491Y2456672D01*
X-221466Y2520228D01*
X-168015Y2556306D01*
X-163620Y2557816D01*
X-152426Y2561658D01*
X45576Y2668811D01*
X223240Y2807094D01*
X356232Y2951560D01*
X375715Y2972724D01*
X375715Y2972725D01*
X375722Y2972732D01*
X466193Y3111210D01*
X519338Y3156563D01*
X588569Y3165987D01*
X651905Y3136485D01*
X673804Y3111213D01*
X764278Y2972732D01*
X764283Y2972727D01*
X764284Y2972724D01*
X914659Y2809376D01*
X916760Y2807094D01*
X1094424Y2668811D01*
X1094425Y2668811D01*
X1094427Y2668809D01*
X1179125Y2622973D01*
X1292426Y2561658D01*
X1505365Y2488556D01*
X1727431Y2451500D01*
X1952569Y2451500D01*
X2174635Y2488556D01*
X2387574Y2561658D01*
X2585576Y2668811D01*
X2763240Y2807094D01*
X2896232Y2951560D01*
X2915715Y2972724D01*
X2915717Y2972727D01*
X2915722Y2972732D01*
X3038860Y3161209D01*
X3109821Y3322984D01*
X4327719Y3322984D01*
X4337792Y3111526D01*
X4377345Y2948487D01*
X4387701Y2905800D01*
X4387701Y2905798D01*
X4475643Y2713230D01*
X4475647Y2713224D01*
X4598436Y2540790D01*
X4598442Y2540784D01*
X4751656Y2394695D01*
X4791731Y2368941D01*
X4837487Y2316138D01*
X4847431Y2246979D01*
X4818407Y2183423D01*
X4801345Y2167155D01*
X4677462Y2069732D01*
X4677459Y2069729D01*
X4539894Y1910970D01*
X4539885Y1910959D01*
X4434855Y1729040D01*
X4434852Y1729033D01*
X4366144Y1530518D01*
X4366144Y1530516D01*
X4364632Y1520000D01*
X5435440Y1520000D01*
X5396722Y1477941D01*
X5346449Y1363330D01*
X5336114Y1238605D01*
X5366837Y1117281D01*
X5430394Y1020000D01*
X4368742Y1020000D01*
X4395770Y908591D01*
X4483040Y717493D01*
X4604889Y546381D01*
X4604895Y546375D01*
X4756932Y401408D01*
X4933657Y287834D01*
X5128685Y209756D01*
X5334962Y170000D01*
X5465000Y170000D01*
X5465000Y989383D01*
X5534052Y935637D01*
X5652424Y895000D01*
X5746073Y895000D01*
X5838446Y910414D01*
X5948514Y969981D01*
X5965000Y987890D01*
X5965000Y170000D01*
X6042398Y170000D01*
X6199122Y184966D01*
X6199126Y184967D01*
X6400686Y244150D01*
X6587414Y340414D01*
X6752537Y470269D01*
X6752540Y470272D01*
X6890105Y629031D01*
X6890114Y629042D01*
X6995144Y810961D01*
X6995147Y810968D01*
X7063855Y1009483D01*
X7063855Y1009485D01*
X7065368Y1020000D01*
X5994560Y1020000D01*
X6033278Y1062059D01*
X6083551Y1176670D01*
X6093886Y1301395D01*
X6063163Y1422719D01*
X5999606Y1520000D01*
X7061257Y1520000D01*
X7034229Y1631410D01*
X6946959Y1822508D01*
X6825110Y1993620D01*
X6825104Y1993626D01*
X6673066Y2138594D01*
X6638763Y2160639D01*
X6593009Y2213443D01*
X6583065Y2282601D01*
X6612090Y2346157D01*
X6629147Y2362422D01*
X6758432Y2464092D01*
X6844745Y2563703D01*
X6903524Y2601477D01*
X6938459Y2606500D01*
X7833807Y2606500D01*
X7900846Y2586815D01*
X7921488Y2570181D01*
X8659357Y1832312D01*
X8661908Y1829601D01*
X8700787Y1785716D01*
X8749051Y1752402D01*
X8752053Y1750193D01*
X8772009Y1734559D01*
X8798226Y1714019D01*
X8806438Y1710323D01*
X8825979Y1699302D01*
X8833392Y1694185D01*
X8888223Y1673391D01*
X8891685Y1671957D01*
X8945157Y1647891D01*
X8954009Y1646269D01*
X8975625Y1640244D01*
X8984048Y1637049D01*
X9021097Y1632551D01*
X9042265Y1629980D01*
X9045961Y1629418D01*
X9103645Y1618847D01*
X9103646Y1618848D01*
X9103647Y1618847D01*
X9162173Y1622387D01*
X9165917Y1622500D01*
X11445046Y1622500D01*
X11512085Y1602815D01*
X11557840Y1550011D01*
X11567784Y1480853D01*
X11538759Y1417297D01*
X11479981Y1379523D01*
X11457648Y1375142D01*
X11435572Y1372887D01*
X11267264Y1317116D01*
X11267259Y1317114D01*
X11116346Y1224029D01*
X10990971Y1098654D01*
X10897886Y947741D01*
X10897884Y947736D01*
X10842113Y779428D01*
X10831500Y675553D01*
X10831500Y-675537D01*
X10831501Y-675553D01*
X10842113Y-779427D01*
X10871320Y-867568D01*
X10897885Y-947738D01*
X10990970Y-1098652D01*
X11116348Y-1224030D01*
X11267262Y-1317115D01*
X11435574Y-1372887D01*
X11539455Y-1383500D01*
X12340544Y-1383499D01*
X12444426Y-1372887D01*
X12612738Y-1317115D01*
X12763652Y-1224030D01*
X12889030Y-1098652D01*
X12922610Y-1044209D01*
X12974555Y-997487D01*
X13043517Y-986264D01*
X13107600Y-1014107D01*
X13125616Y-1032655D01*
X13134088Y-1043427D01*
X13134093Y-1043433D01*
X13294077Y-1182061D01*
X13294088Y-1182069D01*
X13366768Y-1224030D01*
X13477418Y-1287913D01*
X13677473Y-1357153D01*
X13887016Y-1387281D01*
X14098474Y-1377208D01*
X14304204Y-1327298D01*
X14496771Y-1239356D01*
X14591441Y-1171942D01*
X14669210Y-1116563D01*
X14669211Y-1116561D01*
X14669215Y-1116559D01*
X14815303Y-963346D01*
X14836198Y-930831D01*
X14889000Y-885078D01*
X14958158Y-875134D01*
X15021714Y-904158D01*
X15037981Y-921217D01*
X15129903Y-1038105D01*
X15134094Y-1043434D01*
X15294077Y-1182061D01*
X15294088Y-1182069D01*
X15366768Y-1224030D01*
X15477418Y-1287913D01*
X15677473Y-1357153D01*
X15887016Y-1387281D01*
X16098474Y-1377208D01*
X16304204Y-1327298D01*
X16496771Y-1239356D01*
X16591441Y-1171942D01*
X16669210Y-1116563D01*
X16669211Y-1116561D01*
X16669215Y-1116559D01*
X16815303Y-963346D01*
X16836198Y-930831D01*
X16889000Y-885078D01*
X16958158Y-875134D01*
X17021714Y-904158D01*
X17037981Y-921217D01*
X17129903Y-1038105D01*
X17134094Y-1043434D01*
X17294077Y-1182061D01*
X17294088Y-1182069D01*
X17366768Y-1224030D01*
X17477418Y-1287913D01*
X17677473Y-1357153D01*
X17887016Y-1387281D01*
X18098474Y-1377208D01*
X18304204Y-1327298D01*
X18496771Y-1239356D01*
X18591441Y-1171942D01*
X18669210Y-1116563D01*
X18669211Y-1116561D01*
X18669215Y-1116559D01*
X18815303Y-963346D01*
X18836198Y-930831D01*
X18889000Y-885078D01*
X18958158Y-875134D01*
X19021714Y-904158D01*
X19037981Y-921217D01*
X19129903Y-1038105D01*
X19134094Y-1043434D01*
X19294077Y-1182061D01*
X19294088Y-1182069D01*
X19366768Y-1224030D01*
X19477418Y-1287913D01*
X19677473Y-1357153D01*
X19887016Y-1387281D01*
X20098474Y-1377208D01*
X20304204Y-1327298D01*
X20496771Y-1239356D01*
X20591441Y-1171942D01*
X20669210Y-1116563D01*
X20669211Y-1116561D01*
X20669215Y-1116559D01*
X20815303Y-963346D01*
X20836198Y-930831D01*
X20889000Y-885078D01*
X20958158Y-875134D01*
X21021714Y-904158D01*
X21037981Y-921217D01*
X21129903Y-1038105D01*
X21134094Y-1043434D01*
X21294077Y-1182061D01*
X21294088Y-1182069D01*
X21366768Y-1224030D01*
X21477418Y-1287913D01*
X21677473Y-1357153D01*
X21887016Y-1387281D01*
X22098474Y-1377208D01*
X22304204Y-1327298D01*
X22496771Y-1239356D01*
X22591441Y-1171942D01*
X22669210Y-1116563D01*
X22669211Y-1116561D01*
X22669215Y-1116559D01*
X22815303Y-963346D01*
X22836198Y-930831D01*
X22889000Y-885078D01*
X22958158Y-875134D01*
X23021714Y-904158D01*
X23037981Y-921217D01*
X23129903Y-1038105D01*
X23134094Y-1043434D01*
X23294077Y-1182061D01*
X23294088Y-1182069D01*
X23366768Y-1224030D01*
X23477418Y-1287913D01*
X23677473Y-1357153D01*
X23887016Y-1387281D01*
X24098474Y-1377208D01*
X24304204Y-1327298D01*
X24496771Y-1239356D01*
X24591441Y-1171942D01*
X24669210Y-1116563D01*
X24669211Y-1116561D01*
X24669215Y-1116559D01*
X24815303Y-963346D01*
X24836198Y-930831D01*
X24889000Y-885078D01*
X24958158Y-875134D01*
X25021714Y-904158D01*
X25037981Y-921217D01*
X25129903Y-1038105D01*
X25134094Y-1043434D01*
X25294077Y-1182061D01*
X25294088Y-1182069D01*
X25366768Y-1224030D01*
X25477418Y-1287913D01*
X25677473Y-1357153D01*
X25887016Y-1387281D01*
X26098474Y-1377208D01*
X26304204Y-1327298D01*
X26496771Y-1239356D01*
X26591441Y-1171942D01*
X26669210Y-1116563D01*
X26669211Y-1116561D01*
X26669215Y-1116559D01*
X26815303Y-963346D01*
X26841060Y-923267D01*
X26893861Y-877513D01*
X26963020Y-867568D01*
X27026576Y-896591D01*
X27042845Y-913654D01*
X27140268Y-1037537D01*
X27140271Y-1037540D01*
X27299030Y-1175105D01*
X27299041Y-1175114D01*
X27480960Y-1280144D01*
X27480967Y-1280147D01*
X27679487Y-1348856D01*
X27690000Y-1350367D01*
X27690000Y-280617D01*
X27759052Y-334363D01*
X27877424Y-375000D01*
X27971073Y-375000D01*
X28063446Y-359586D01*
X28173514Y-300019D01*
X28190000Y-282110D01*
X28190000Y-1346257D01*
X28301409Y-1319229D01*
X28492507Y-1231959D01*
X28663619Y-1110110D01*
X28663625Y-1110104D01*
X28808592Y-958067D01*
X28922166Y-781342D01*
X29000244Y-586314D01*
X29040000Y-380037D01*
X29040000Y-250000D01*
X28219560Y-250000D01*
X28258278Y-207941D01*
X28308551Y-93330D01*
X28318886Y31395D01*
X28288163Y152719D01*
X28224606Y250000D01*
X29040000Y250000D01*
X29040000Y327399D01*
X29025034Y484123D01*
X29025033Y484127D01*
X28965850Y685687D01*
X28869586Y872415D01*
X28739731Y1037538D01*
X28739728Y1037541D01*
X28580969Y1175106D01*
X28580958Y1175115D01*
X28399039Y1280145D01*
X28399032Y1280148D01*
X28200516Y1348856D01*
X28190000Y1350368D01*
X28190000Y280618D01*
X28120948Y334363D01*
X28002576Y375000D01*
X27908927Y375000D01*
X27816554Y359586D01*
X27706486Y300019D01*
X27690000Y282111D01*
X27690000Y1346260D01*
X27689999Y1346260D01*
X27578594Y1319232D01*
X27578582Y1319228D01*
X27387497Y1231963D01*
X27387496Y1231962D01*
X27216380Y1110111D01*
X27216374Y1110105D01*
X27071408Y958068D01*
X27049361Y923763D01*
X26996556Y878009D01*
X26927397Y868066D01*
X26863842Y897092D01*
X26847576Y914152D01*
X26745911Y1043429D01*
X26745910Y1043430D01*
X26745908Y1043432D01*
X26646295Y1129749D01*
X26608523Y1188525D01*
X26603500Y1223459D01*
X26603500Y3156062D01*
X26623185Y3223101D01*
X26635351Y3239035D01*
X26635384Y3239072D01*
X26679040Y3287556D01*
X26774527Y3452944D01*
X26833542Y3634572D01*
X26853504Y3824500D01*
X26833542Y4014428D01*
X26774527Y4196056D01*
X26679040Y4361444D01*
X26551253Y4503366D01*
X26396752Y4615618D01*
X26222288Y4693294D01*
X26222286Y4693295D01*
X26035487Y4733000D01*
X25844513Y4733000D01*
X25657714Y4693295D01*
X25483246Y4615617D01*
X25328745Y4503365D01*
X25200959Y4361443D01*
X25105473Y4196057D01*
X25105470Y4196050D01*
X25046459Y4014432D01*
X25046458Y4014428D01*
X25026496Y3824500D01*
X25046458Y3634572D01*
X25046459Y3634569D01*
X25105470Y3452951D01*
X25105473Y3452944D01*
X25200959Y3287557D01*
X25244649Y3239035D01*
X25274880Y3176043D01*
X25276500Y3156062D01*
X25276500Y1227282D01*
X25256815Y1160243D01*
X25224431Y1126277D01*
X25210785Y1116560D01*
X25210783Y1116558D01*
X25064694Y963343D01*
X25043800Y930832D01*
X24990996Y885078D01*
X24921837Y875135D01*
X24858282Y904161D01*
X24842018Y921217D01*
X24745908Y1043432D01*
X24745905Y1043435D01*
X24585922Y1182062D01*
X24585911Y1182070D01*
X24402584Y1287912D01*
X24402583Y1287913D01*
X24402582Y1287913D01*
X24279143Y1330636D01*
X24202528Y1357153D01*
X24146302Y1365237D01*
X23992984Y1387281D01*
X23992981Y1387281D01*
X23962761Y1385842D01*
X23781526Y1377208D01*
X23698859Y1357153D01*
X23575799Y1327299D01*
X23575797Y1327299D01*
X23383229Y1239357D01*
X23383223Y1239353D01*
X23210789Y1116564D01*
X23210783Y1116558D01*
X23064694Y963343D01*
X23043800Y930832D01*
X22990996Y885078D01*
X22921837Y875135D01*
X22858282Y904161D01*
X22842018Y921217D01*
X22745908Y1043432D01*
X22745905Y1043435D01*
X22585922Y1182062D01*
X22585911Y1182070D01*
X22402584Y1287912D01*
X22402583Y1287913D01*
X22402582Y1287913D01*
X22279143Y1330636D01*
X22202528Y1357153D01*
X22146302Y1365237D01*
X21992984Y1387281D01*
X21992981Y1387281D01*
X21962761Y1385842D01*
X21781526Y1377208D01*
X21698859Y1357153D01*
X21575799Y1327299D01*
X21575797Y1327299D01*
X21383229Y1239357D01*
X21383223Y1239353D01*
X21210789Y1116564D01*
X21210783Y1116558D01*
X21064694Y963343D01*
X21043800Y930832D01*
X20990996Y885078D01*
X20921837Y875135D01*
X20858282Y904161D01*
X20842018Y921217D01*
X20745908Y1043432D01*
X20745905Y1043435D01*
X20585922Y1182062D01*
X20585911Y1182070D01*
X20402584Y1287912D01*
X20402583Y1287913D01*
X20402582Y1287913D01*
X20279143Y1330636D01*
X20202528Y1357153D01*
X20146302Y1365237D01*
X19992984Y1387281D01*
X19992981Y1387281D01*
X19962762Y1385842D01*
X19781526Y1377208D01*
X19698859Y1357153D01*
X19575799Y1327299D01*
X19575792Y1327297D01*
X19551607Y1316252D01*
X19482448Y1306311D01*
X19418893Y1335338D01*
X19381121Y1394117D01*
X19381123Y1463987D01*
X19418899Y1522764D01*
X19427203Y1529358D01*
X19534253Y1607134D01*
X19662040Y1749056D01*
X19757527Y1914444D01*
X19816542Y2096072D01*
X19836504Y2286000D01*
X19816542Y2475928D01*
X19757527Y2657556D01*
X19662040Y2822944D01*
X19534253Y2964866D01*
X19379752Y3077118D01*
X19205288Y3154794D01*
X19205286Y3154795D01*
X19018487Y3194500D01*
X18827513Y3194500D01*
X18640714Y3154795D01*
X18466246Y3077117D01*
X18422746Y3045512D01*
X18323191Y2973182D01*
X18257388Y2949702D01*
X18250308Y2949500D01*
X17902390Y2949500D01*
X17835351Y2969185D01*
X17789596Y3021989D01*
X17779652Y3091147D01*
X17784462Y3111826D01*
X17784542Y3112072D01*
X17804504Y3302000D01*
X17784542Y3491928D01*
X17725527Y3673556D01*
X17630040Y3838944D01*
X17502253Y3980866D01*
X17347752Y4093118D01*
X17173288Y4170794D01*
X17173286Y4170795D01*
X16986487Y4210500D01*
X16795513Y4210500D01*
X16608714Y4170795D01*
X16608711Y4170794D01*
X16608712Y4170794D01*
X16481730Y4114258D01*
X16434246Y4093117D01*
X16398374Y4067054D01*
X16291191Y3989182D01*
X16225388Y3965702D01*
X16218308Y3965500D01*
X10613193Y3965500D01*
X10546154Y3985185D01*
X10525512Y4001819D01*
X9673941Y4853390D01*
X8803640Y5723691D01*
X8801106Y5726383D01*
X8762213Y5770284D01*
X8762212Y5770285D01*
X8762211Y5770286D01*
X8713960Y5803591D01*
X8710944Y5805811D01*
X8681671Y5828744D01*
X8664775Y5841981D01*
X8656562Y5845678D01*
X8637017Y5856701D01*
X8629608Y5861815D01*
X8629609Y5861815D01*
X8600113Y5873001D01*
X8574752Y5882620D01*
X8571312Y5884045D01*
X8569557Y5884835D01*
X8517843Y5908109D01*
X8508985Y5909733D01*
X8487378Y5915756D01*
X8478952Y5918952D01*
X8420723Y5926023D01*
X8417022Y5926586D01*
X8359359Y5937153D01*
X8359352Y5937153D01*
X8300827Y5933613D01*
X8297083Y5933500D01*
X6942281Y5933500D01*
X6875242Y5953185D01*
X6841274Y5985572D01*
X6831559Y5999215D01*
X6785230Y6043390D01*
X6678344Y6145305D01*
X6645832Y6166199D01*
X6600077Y6219003D01*
X6590134Y6288161D01*
X6619159Y6351717D01*
X6636216Y6367981D01*
X6758432Y6464092D01*
X6897065Y6624082D01*
X7002913Y6807418D01*
X7072153Y7007473D01*
X7102281Y7217016D01*
X7092208Y7428474D01*
X7042298Y7634204D01*
X6954356Y7826771D01*
X6940226Y7846614D01*
X6831563Y7999211D01*
X6831557Y7999217D01*
X6678344Y8145305D01*
X6645832Y8166199D01*
X6600077Y8219003D01*
X6590134Y8288161D01*
X6619159Y8351717D01*
X6636216Y8367981D01*
X6758432Y8464092D01*
X6897065Y8624082D01*
X7002913Y8807418D01*
X7072153Y9007473D01*
X7102281Y9217016D01*
X7092208Y9428474D01*
X7042298Y9634204D01*
X6954356Y9826771D01*
X6907264Y9892903D01*
X6831563Y9999211D01*
X6831557Y9999217D01*
X6678344Y10145305D01*
X6645832Y10166199D01*
X6600077Y10219003D01*
X6590134Y10288161D01*
X6619159Y10351717D01*
X6636216Y10367981D01*
X6758432Y10464092D01*
X6897065Y10624082D01*
X7002913Y10807418D01*
X7072153Y11007473D01*
X7102281Y11217016D01*
X7092208Y11428474D01*
X7042298Y11634204D01*
X6954356Y11826771D01*
X6954352Y11826777D01*
X6831563Y11999211D01*
X6831557Y11999217D01*
X6678344Y12145305D01*
X6645832Y12166199D01*
X6600077Y12219003D01*
X6590134Y12288161D01*
X6619159Y12351717D01*
X6636216Y12367981D01*
X6758432Y12464092D01*
X6897065Y12624082D01*
X7002913Y12807418D01*
X7072153Y13007473D01*
X7102281Y13217016D01*
X7092208Y13428474D01*
X7042298Y13634204D01*
X6954356Y13826771D01*
X6947848Y13835910D01*
X6831563Y13999211D01*
X6831557Y13999217D01*
X6678344Y14145305D01*
X6645832Y14166199D01*
X6600077Y14219003D01*
X6590134Y14288161D01*
X6619159Y14351717D01*
X6636216Y14367981D01*
X6758432Y14464092D01*
X6897065Y14624082D01*
X7002913Y14807418D01*
X7072153Y15007473D01*
X7102281Y15217016D01*
X7092208Y15428474D01*
X7042298Y15634204D01*
X6954356Y15826771D01*
X6954352Y15826777D01*
X6920013Y15875000D01*
X13881080Y15875000D01*
X13900754Y15424370D01*
X13959628Y14977179D01*
X13959628Y14977175D01*
X13959630Y14977166D01*
X14056374Y14540784D01*
X14057260Y14536790D01*
X14109468Y14371206D01*
X14192894Y14106612D01*
X14237379Y13999217D01*
X14365507Y13689886D01*
X14573779Y13289800D01*
X14573783Y13289794D01*
X14573785Y13289790D01*
X14597946Y13251865D01*
X14816142Y12909365D01*
X15090722Y12551525D01*
X15090726Y12551520D01*
X15395460Y12218962D01*
X15395461Y12218961D01*
X15728019Y11914227D01*
X15728024Y11914223D01*
X16085864Y11639643D01*
X16103856Y11628181D01*
X16466290Y11397285D01*
X16466296Y11397282D01*
X16466299Y11397280D01*
X16866385Y11189008D01*
X16933595Y11161169D01*
X17283112Y11016394D01*
X17713297Y10880758D01*
X18153666Y10783130D01*
X18600868Y10724255D01*
X19051500Y10704580D01*
X19502132Y10724255D01*
X19949334Y10783130D01*
X20389703Y10880758D01*
X20819888Y11016394D01*
X21236614Y11189008D01*
X21636710Y11397285D01*
X22017131Y11639640D01*
X22374982Y11914228D01*
X22707539Y12218961D01*
X23012272Y12551518D01*
X23286860Y12909369D01*
X23529215Y13289790D01*
X23737492Y13689886D01*
X23910106Y14106612D01*
X24045742Y14536797D01*
X24143370Y14977166D01*
X24202245Y15424368D01*
X24221920Y15875000D01*
X24202245Y16325632D01*
X24143370Y16772834D01*
X24045742Y17213203D01*
X23910106Y17643388D01*
X23759654Y18006611D01*
X23737492Y18060115D01*
X23529220Y18460201D01*
X23529218Y18460204D01*
X23529215Y18460210D01*
X23286860Y18840631D01*
X23286857Y18840636D01*
X23012277Y19198476D01*
X23012273Y19198481D01*
X22707539Y19531039D01*
X22707538Y19531040D01*
X22374980Y19835774D01*
X22374975Y19835778D01*
X22017135Y20110358D01*
X21763872Y20271704D01*
X21636710Y20352715D01*
X21636706Y20352717D01*
X21636700Y20352721D01*
X21236614Y20560993D01*
X20909595Y20696448D01*
X20819888Y20733606D01*
X20560239Y20815473D01*
X20389710Y20869240D01*
X20389707Y20869241D01*
X20389703Y20869242D01*
X19949334Y20966870D01*
X19949329Y20966871D01*
X19949323Y20966872D01*
X19502130Y21025746D01*
X19051500Y21045420D01*
X18600869Y21025746D01*
X18153678Y20966872D01*
X18153674Y20966872D01*
X17961894Y20924355D01*
X17713297Y20869242D01*
X17713294Y20869242D01*
X17713289Y20869240D01*
X17283112Y20733606D01*
X16866385Y20560993D01*
X16466299Y20352721D01*
X16085864Y20110358D01*
X15728024Y19835778D01*
X15728019Y19835774D01*
X15395461Y19531040D01*
X15395460Y19531039D01*
X15090726Y19198481D01*
X15090722Y19198476D01*
X14816142Y18840636D01*
X14573779Y18460201D01*
X14365507Y18060115D01*
X14192894Y17643388D01*
X14057260Y17213211D01*
X14057258Y17213206D01*
X14057258Y17213203D01*
X14037641Y17124715D01*
X13959628Y16772826D01*
X13959628Y16772822D01*
X13900754Y16325631D01*
X13881080Y15875000D01*
X6920013Y15875000D01*
X6831563Y15999211D01*
X6831552Y15999223D01*
X6735943Y16090385D01*
X6701007Y16150893D01*
X6704332Y16220684D01*
X6744860Y16277598D01*
X6756408Y16285662D01*
X6813652Y16320970D01*
X6939030Y16446348D01*
X7032115Y16597262D01*
X7087887Y16765574D01*
X7098500Y16869455D01*
X7098499Y17670544D01*
X7087887Y17774426D01*
X7032115Y17942738D01*
X6939030Y18093652D01*
X6813652Y18219030D01*
X6662738Y18312115D01*
X6627610Y18323755D01*
X6494427Y18367887D01*
X6390545Y18378500D01*
X5039462Y18378500D01*
X5039446Y18378499D01*
X4935572Y18367887D01*
X4767264Y18312116D01*
X4767259Y18312114D01*
X4616346Y18219029D01*
X4490971Y18093654D01*
X4397886Y17942741D01*
X4397884Y17942736D01*
X4342113Y17774428D01*
X4331500Y17670553D01*
X4331500Y16869463D01*
X4331501Y16869447D01*
X4342113Y16765573D01*
X4397884Y16597265D01*
X4397886Y16597260D01*
X4414803Y16569834D01*
X4490970Y16446348D01*
X4616348Y16320970D01*
X4670787Y16287392D01*
X4717512Y16235444D01*
X4728735Y16166482D01*
X4700892Y16102400D01*
X4682347Y16084386D01*
X4671571Y16075912D01*
X4671566Y16075907D01*
X4532938Y15915923D01*
X4532930Y15915912D01*
X4427088Y15732585D01*
X4357847Y15532529D01*
X4348370Y15466614D01*
X4327719Y15322984D01*
X4337792Y15111526D01*
X4370388Y14977166D01*
X4387701Y14905800D01*
X4387701Y14905798D01*
X4475643Y14713230D01*
X4475647Y14713224D01*
X4598436Y14540790D01*
X4598442Y14540784D01*
X4751654Y14394697D01*
X4784166Y14373803D01*
X4829921Y14320999D01*
X4839865Y14251840D01*
X4810840Y14188285D01*
X4793779Y14172017D01*
X4671570Y14075911D01*
X4671566Y14075907D01*
X4532938Y13915923D01*
X4532930Y13915912D01*
X4427088Y13732585D01*
X4357847Y13532529D01*
X4357847Y13532527D01*
X4327719Y13322984D01*
X4337792Y13111526D01*
X4379572Y12939307D01*
X4387701Y12905800D01*
X4387701Y12905798D01*
X4475643Y12713230D01*
X4475647Y12713224D01*
X4598436Y12540790D01*
X4598441Y12540785D01*
X4751654Y12394697D01*
X4769747Y12383069D01*
X4784166Y12373803D01*
X4829921Y12320999D01*
X4839865Y12251840D01*
X4810840Y12188285D01*
X4793779Y12172017D01*
X4671570Y12075911D01*
X4671566Y12075907D01*
X4532938Y11915923D01*
X4532930Y11915912D01*
X4427088Y11732585D01*
X4357847Y11532529D01*
X4349576Y11474999D01*
X4327719Y11322984D01*
X4337792Y11111526D01*
X4363580Y11005228D01*
X4387701Y10905800D01*
X4387701Y10905798D01*
X4475643Y10713230D01*
X4475647Y10713224D01*
X4598436Y10540790D01*
X4598442Y10540784D01*
X4678872Y10464094D01*
X4751654Y10394697D01*
X4764231Y10386614D01*
X4784166Y10373803D01*
X4829921Y10320999D01*
X4839865Y10251840D01*
X4810840Y10188285D01*
X4793779Y10172017D01*
X4671570Y10075911D01*
X4671566Y10075907D01*
X4532938Y9915923D01*
X4532930Y9915912D01*
X4427088Y9732585D01*
X4357847Y9532529D01*
X4357847Y9532527D01*
X4327719Y9322984D01*
X4337792Y9111526D01*
X4363056Y9007388D01*
X4387701Y8905800D01*
X4387701Y8905798D01*
X4475643Y8713230D01*
X4475647Y8713224D01*
X4598436Y8540790D01*
X4598442Y8540784D01*
X4751654Y8394697D01*
X4784166Y8373803D01*
X4829921Y8320999D01*
X4839865Y8251840D01*
X4810840Y8188285D01*
X4793779Y8172017D01*
X4671570Y8075911D01*
X4671566Y8075907D01*
X4532938Y7915923D01*
X4532930Y7915912D01*
X4427088Y7732585D01*
X4357847Y7532529D01*
X4343295Y7431318D01*
X4327719Y7322984D01*
X4337792Y7111526D01*
X4384987Y6916987D01*
X4387701Y6905800D01*
X4387701Y6905798D01*
X4475643Y6713230D01*
X4475647Y6713224D01*
X4598436Y6540790D01*
X4598442Y6540784D01*
X4751654Y6394697D01*
X4784166Y6373803D01*
X4829921Y6320999D01*
X4839865Y6251840D01*
X4810840Y6188285D01*
X4793779Y6172017D01*
X4671570Y6075911D01*
X4671566Y6075907D01*
X4532938Y5915923D01*
X4532930Y5915912D01*
X4427088Y5732585D01*
X4357847Y5532529D01*
X4355001Y5512735D01*
X4327719Y5322984D01*
X4337792Y5111526D01*
X4376689Y4951192D01*
X4387701Y4905800D01*
X4387701Y4905798D01*
X4475643Y4713230D01*
X4475647Y4713224D01*
X4598436Y4540790D01*
X4598442Y4540784D01*
X4751654Y4394697D01*
X4784166Y4373803D01*
X4829921Y4320999D01*
X4839865Y4251840D01*
X4810840Y4188285D01*
X4793779Y4172017D01*
X4671570Y4075911D01*
X4671566Y4075907D01*
X4532938Y3915923D01*
X4532930Y3915912D01*
X4427088Y3732585D01*
X4357847Y3532529D01*
X4347130Y3457992D01*
X4327719Y3322984D01*
X3109821Y3322984D01*
X3129296Y3367384D01*
X3184564Y3585632D01*
X3186471Y3608648D01*
X3203156Y3809995D01*
X3203156Y3810006D01*
X3184565Y4034360D01*
X3184563Y4034372D01*
X3143619Y4196057D01*
X3129296Y4252616D01*
X3038860Y4458791D01*
X3035395Y4464094D01*
X2942357Y4606500D01*
X2915722Y4647268D01*
X2915719Y4647271D01*
X2915715Y4647277D01*
X2763243Y4812903D01*
X2763238Y4812908D01*
X2585577Y4951188D01*
X2585572Y4951192D01*
X2549068Y4970947D01*
X2499478Y5020167D01*
X2484371Y5088384D01*
X2508542Y5153939D01*
X2549069Y5189055D01*
X2585576Y5208811D01*
X2763240Y5347094D01*
X2893403Y5488487D01*
X2915715Y5512724D01*
X2915717Y5512727D01*
X2915722Y5512732D01*
X3038860Y5701209D01*
X3129296Y5907384D01*
X3184564Y6125632D01*
X3185453Y6136362D01*
X3203156Y6349995D01*
X3203156Y6350006D01*
X3184565Y6574360D01*
X3184563Y6574372D01*
X3181872Y6585000D01*
X3129296Y6792616D01*
X3038860Y6998791D01*
X3033188Y7007472D01*
X2915723Y7187266D01*
X2915715Y7187277D01*
X2763243Y7352903D01*
X2763238Y7352908D01*
X2585577Y7491188D01*
X2585572Y7491192D01*
X2549068Y7510947D01*
X2499478Y7560167D01*
X2484371Y7628384D01*
X2508542Y7693939D01*
X2549069Y7729055D01*
X2585576Y7748811D01*
X2763240Y7887094D01*
X2866456Y7999215D01*
X2915715Y8052724D01*
X2915717Y8052727D01*
X2915722Y8052732D01*
X3038860Y8241209D01*
X3129296Y8447384D01*
X3184564Y8665632D01*
X3186052Y8683591D01*
X3203156Y8889995D01*
X3203156Y8890006D01*
X3184565Y9114360D01*
X3184563Y9114372D01*
X3133920Y9314355D01*
X3129296Y9332616D01*
X3038860Y9538791D01*
X3022706Y9563516D01*
X2915723Y9727266D01*
X2915715Y9727277D01*
X2770510Y9885009D01*
X2739587Y9947663D01*
X2747447Y10017089D01*
X2791594Y10071245D01*
X2818405Y10085173D01*
X2898584Y10115080D01*
X2936204Y10129111D01*
X3053261Y10216739D01*
X3140889Y10333796D01*
X3191989Y10470799D01*
X3197344Y10520609D01*
X3198499Y10531346D01*
X3198500Y10531363D01*
X3198500Y12328638D01*
X3198499Y12328655D01*
X3195157Y12359730D01*
X3191989Y12389201D01*
X3189939Y12394697D01*
X3152787Y12494304D01*
X3140889Y12526204D01*
X3053261Y12643261D01*
X2936204Y12730889D01*
X2903581Y12743057D01*
X2799203Y12781989D01*
X2738654Y12788500D01*
X2738638Y12788500D01*
X941362Y12788500D01*
X941345Y12788500D01*
X880797Y12781989D01*
X880795Y12781989D01*
X743795Y12730889D01*
X626739Y12643261D01*
X539111Y12526205D01*
X493861Y12404889D01*
X451989Y12348956D01*
X386524Y12324540D01*
X318252Y12339393D01*
X286454Y12364238D01*
X223240Y12432906D01*
X45576Y12571189D01*
X45575Y12571190D01*
X45572Y12571192D01*
X-152420Y12678339D01*
X-152423Y12678341D01*
X-152426Y12678342D01*
X-152429Y12678343D01*
X-152431Y12678344D01*
X-365363Y12751444D01*
X-587431Y12788500D01*
X-812569Y12788500D01*
X-1034638Y12751444D01*
X-1247570Y12678344D01*
X-1247581Y12678339D01*
X-1445573Y12571192D01*
X-1445578Y12571188D01*
X-1623239Y12432908D01*
X-1623244Y12432903D01*
X-1775716Y12267277D01*
X-1775720Y12267271D01*
X-1775722Y12267269D01*
X-1775722Y12267268D01*
X-1785801Y12251840D01*
X-1804192Y12223691D01*
X-1857339Y12178335D01*
X-1926570Y12168912D01*
X-1989906Y12198415D01*
X-2027237Y12257475D01*
X-2032000Y12291514D01*
X-2032000Y15123192D01*
X-2012315Y15190231D01*
X-1959511Y15235986D01*
X-1890353Y15245930D01*
X-1826797Y15216905D01*
X-1806425Y15194316D01*
X-1673106Y15003918D01*
X-1506083Y14836895D01*
X-1312579Y14701400D01*
X-1098493Y14601571D01*
X-1098484Y14601567D01*
X-885000Y14544366D01*
X-885000Y15439499D01*
X-777315Y15390320D01*
X-670763Y15375000D01*
X-599237Y15375000D01*
X-492685Y15390320D01*
X-385000Y15439499D01*
X-385000Y14544367D01*
X-171517Y14601567D01*
X-171508Y14601571D01*
X42578Y14701400D01*
X236082Y14836895D01*
X403105Y15003918D01*
X538600Y15197422D01*
X638429Y15411508D01*
X638432Y15411514D01*
X695636Y15625000D01*
X-201314Y15625000D01*
X-175507Y15665156D01*
X-135000Y15803111D01*
X-135000Y15946889D01*
X-175507Y16084844D01*
X-201314Y16125000D01*
X695636Y16125000D01*
X695635Y16125001D01*
X638432Y16338487D01*
X638429Y16338493D01*
X538600Y16552578D01*
X538599Y16552580D01*
X403113Y16746074D01*
X403108Y16746080D01*
X236082Y16913106D01*
X55197Y17039764D01*
X11572Y17094341D01*
X4380Y17163840D01*
X35902Y17226194D01*
X67300Y17250392D01*
X110576Y17273811D01*
X288240Y17412094D01*
X418310Y17553386D01*
X440715Y17577724D01*
X440717Y17577727D01*
X440722Y17577732D01*
X563860Y17766209D01*
X654296Y17972384D01*
X709564Y18190632D01*
X712204Y18222488D01*
X728156Y18414995D01*
X728156Y18415006D01*
X709565Y18639360D01*
X709563Y18639372D01*
X666768Y18808366D01*
X654296Y18857616D01*
X563860Y19063791D01*
X550706Y19083924D01*
X475862Y19198482D01*
X440722Y19252268D01*
X440719Y19252271D01*
X440715Y19252277D01*
X288243Y19417903D01*
X288238Y19417908D01*
X110577Y19556188D01*
X110578Y19556188D01*
X110576Y19556189D01*
X74070Y19575945D01*
X24479Y19625164D01*
X9371Y19693381D01*
X33541Y19758936D01*
X74070Y19794055D01*
X74084Y19794064D01*
X110576Y19813811D01*
X288240Y19952094D01*
X418310Y20093386D01*
X440715Y20117724D01*
X440717Y20117727D01*
X440722Y20117732D01*
X563860Y20306209D01*
X654296Y20512384D01*
X709564Y20730632D01*
X709565Y20730641D01*
X728156Y20954995D01*
X728156Y20955006D01*
X709565Y21179360D01*
X709563Y21179372D01*
X690111Y21256186D01*
X692736Y21326006D01*
X722634Y21374305D01*
X1127511Y21779181D01*
X1188835Y21812666D01*
X1215193Y21815500D01*
X4153308Y21815500D01*
X4220347Y21795815D01*
X4226176Y21791831D01*
X4369248Y21687882D01*
X4543712Y21610206D01*
X4730513Y21570500D01*
X4833534Y21570500D01*
X4900573Y21550815D01*
X4946328Y21498011D01*
X4956272Y21428853D01*
X4951466Y21408187D01*
X4948458Y21398928D01*
X4928496Y21209000D01*
X4948458Y21019072D01*
X4948459Y21019069D01*
X5007470Y20837451D01*
X5007473Y20837444D01*
X5102960Y20672056D01*
X5230747Y20530134D01*
X5385248Y20417882D01*
X5559712Y20340206D01*
X5746513Y20300500D01*
X5937487Y20300500D01*
X6124288Y20340206D01*
X6298752Y20417882D01*
X6453253Y20530134D01*
X6581040Y20672056D01*
X6676527Y20837444D01*
X6698134Y20903942D01*
X9075297Y20903942D01*
X9095884Y20668628D01*
X9095886Y20668617D01*
X9157020Y20440460D01*
X9157024Y20440451D01*
X9256854Y20226364D01*
X9256856Y20226360D01*
X9315526Y20142570D01*
X9315527Y20142570D01*
X9947377Y20774420D01*
X9970961Y20694099D01*
X10048693Y20573145D01*
X10157354Y20478991D01*
X10288139Y20419263D01*
X10297920Y20417857D01*
X9669079Y19789018D01*
X9752875Y19730344D01*
X9966961Y19630514D01*
X9966970Y19630510D01*
X10195127Y19569376D01*
X10195138Y19569374D01*
X10430452Y19548786D01*
X10430456Y19548786D01*
X10665769Y19569374D01*
X10665780Y19569376D01*
X10893937Y19630510D01*
X10893946Y19630514D01*
X11108032Y19730343D01*
X11108036Y19730345D01*
X11191827Y19789017D01*
X11191827Y19789018D01*
X10562987Y20417857D01*
X10572769Y20419263D01*
X10703554Y20478991D01*
X10812215Y20573145D01*
X10889947Y20694099D01*
X10913530Y20774419D01*
X11545379Y20142570D01*
X11545380Y20142570D01*
X11604052Y20226361D01*
X11604054Y20226365D01*
X11703883Y20440451D01*
X11703887Y20440460D01*
X11765021Y20668617D01*
X11765023Y20668628D01*
X11785611Y20903942D01*
X11785611Y20903945D01*
X11765023Y21139259D01*
X11765022Y21139263D01*
X11741718Y21226234D01*
X11743381Y21296084D01*
X11782543Y21353947D01*
X11846771Y21381452D01*
X11886723Y21378872D01*
X11886811Y21379395D01*
X12113936Y21341495D01*
X12339074Y21341495D01*
X12561140Y21378551D01*
X12774079Y21451653D01*
X12972081Y21558806D01*
X13149745Y21697089D01*
X13285919Y21845012D01*
X13302220Y21862719D01*
X13302221Y21862721D01*
X13302227Y21862727D01*
X13425365Y22051204D01*
X13515801Y22257379D01*
X13571069Y22475627D01*
X13571070Y22475636D01*
X13589661Y22699990D01*
X13589661Y22699999D01*
X13587107Y22730815D01*
X13601187Y22799252D01*
X13650031Y22849211D01*
X13718132Y22864833D01*
X13762192Y22853852D01*
X13822570Y22826278D01*
X13877820Y22801046D01*
X13877821Y22801046D01*
X13877823Y22801045D01*
X14022557Y22780236D01*
X14167291Y22801045D01*
X14167292Y22801046D01*
X14167294Y22801046D01*
X14208418Y22819828D01*
X14300300Y22861788D01*
X14347729Y22900008D01*
X15618595Y24170874D01*
X15656815Y24218303D01*
X15717558Y24351312D01*
X15738367Y24496046D01*
X15717558Y24640780D01*
X15717557Y24640781D01*
X15717557Y24640784D01*
X15659703Y24767465D01*
X15656815Y24773789D01*
X15618595Y24821218D01*
X15618590Y24821223D01*
X15618586Y24821228D01*
X14347738Y26092076D01*
X14347732Y26092081D01*
X14347729Y26092084D01*
X14300300Y26130304D01*
X14300296Y26130306D01*
X14167294Y26191047D01*
X14167289Y26191048D01*
X14022557Y26211856D01*
X13877824Y26191048D01*
X13877819Y26191047D01*
X13744817Y26130306D01*
X13744812Y26130303D01*
X13697375Y26092076D01*
X12426527Y24821228D01*
X12388300Y24773791D01*
X12388297Y24773786D01*
X12327556Y24640784D01*
X12327555Y24640779D01*
X12306747Y24496046D01*
X12327555Y24351314D01*
X12327557Y24351309D01*
X12381127Y24234007D01*
X12391071Y24164848D01*
X12362046Y24101292D01*
X12303268Y24063518D01*
X12268333Y24058495D01*
X12113936Y24058495D01*
X11891867Y24021439D01*
X11678935Y23948339D01*
X11678924Y23948334D01*
X11480932Y23841187D01*
X11480927Y23841183D01*
X11303266Y23702903D01*
X11303261Y23702898D01*
X11150789Y23537272D01*
X11150781Y23537261D01*
X11027645Y23348788D01*
X10937208Y23142610D01*
X10881941Y22924367D01*
X10881939Y22924355D01*
X10863349Y22700001D01*
X10863349Y22699990D01*
X10881939Y22475636D01*
X10881942Y22475620D01*
X10910197Y22364042D01*
X10907571Y22294222D01*
X10867615Y22236905D01*
X10803014Y22210289D01*
X10757898Y22213828D01*
X10665780Y22238511D01*
X10665769Y22238513D01*
X10430456Y22259100D01*
X10430452Y22259100D01*
X10195138Y22238513D01*
X10195127Y22238511D01*
X9966970Y22177377D01*
X9966961Y22177373D01*
X9752873Y22077542D01*
X9669079Y22018871D01*
X10297920Y21390030D01*
X10288139Y21388623D01*
X10157354Y21328895D01*
X10048693Y21234741D01*
X9970961Y21113787D01*
X9947377Y21033468D01*
X9315527Y21665318D01*
X9315526Y21665318D01*
X9256855Y21581524D01*
X9157024Y21367436D01*
X9157020Y21367427D01*
X9095886Y21139270D01*
X9095884Y21139259D01*
X9075297Y20903945D01*
X9075297Y20903942D01*
X6698134Y20903942D01*
X6735542Y21019072D01*
X6755504Y21209000D01*
X6735542Y21398928D01*
X6676527Y21580556D01*
X6581040Y21745944D01*
X6537350Y21794467D01*
X6507120Y21857459D01*
X6505500Y21877439D01*
X6505500Y22711084D01*
X6505613Y22714828D01*
X6509153Y22773355D01*
X6498581Y22831045D01*
X6498019Y22834742D01*
X6490951Y22892949D01*
X6490951Y22892952D01*
X6487760Y22901366D01*
X6481733Y22922987D01*
X6480110Y22931841D01*
X6480110Y22931843D01*
X6456041Y22985321D01*
X6454608Y22988781D01*
X6433815Y23043608D01*
X6433495Y23044072D01*
X6428702Y23051015D01*
X6417675Y23070565D01*
X6413981Y23078774D01*
X6413482Y23079411D01*
X6377807Y23124947D01*
X6375598Y23127949D01*
X6342284Y23176213D01*
X6298399Y23215092D01*
X6295688Y23217643D01*
X5564640Y23948691D01*
X5562096Y23951394D01*
X5523213Y23995284D01*
X5523212Y23995285D01*
X5523211Y23995286D01*
X5474960Y24028591D01*
X5471944Y24030811D01*
X5442671Y24053744D01*
X5425775Y24066981D01*
X5417562Y24070678D01*
X5398017Y24081701D01*
X5390608Y24086815D01*
X5390609Y24086815D01*
X5358186Y24099111D01*
X5335752Y24107620D01*
X5332312Y24109045D01*
X5306106Y24120839D01*
X5278843Y24133109D01*
X5269985Y24134733D01*
X5248378Y24140756D01*
X5239952Y24143952D01*
X5181723Y24151023D01*
X5178022Y24151586D01*
X5120359Y24162153D01*
X5120352Y24162153D01*
X5061827Y24158613D01*
X5058083Y24158500D01*
X847500Y24158500D01*
X780461Y24178185D01*
X734706Y24230989D01*
X723500Y24282500D01*
X723500Y24393638D01*
X723499Y24393655D01*
X718430Y24440798D01*
X716989Y24454201D01*
X714770Y24460150D01*
X683156Y24544910D01*
X665889Y24591204D01*
X578261Y24708261D01*
X461204Y24795889D01*
X461203Y24795890D01*
X324203Y24846989D01*
X263654Y24853500D01*
X263638Y24853500D01*
X-1533638Y24853500D01*
X-1533655Y24853500D01*
X-1594203Y24846989D01*
X-1594205Y24846989D01*
X-1731205Y24795889D01*
X-1769173Y24767466D01*
X-1833691Y24719169D01*
X-1899153Y24694752D01*
X-1967426Y24709604D01*
X-2016832Y24759009D01*
X-2032000Y24818436D01*
X-2032000Y31219500D01*
X-2012315Y31286539D01*
X-1959511Y31332294D01*
X-1908000Y31343500D01*
X139822Y31343500D01*
X184836Y31348966D01*
X417421Y31377207D01*
X688935Y31444129D01*
X950403Y31543291D01*
X1198012Y31673246D01*
X1428151Y31832100D01*
X1637465Y32017535D01*
X1822900Y32226849D01*
X1981754Y32456988D01*
X2111709Y32704597D01*
X2210871Y32966065D01*
X2217263Y32991999D01*
X21038502Y32991999D01*
X21058456Y32763919D01*
X21058457Y32763911D01*
X21117714Y32542762D01*
X21117718Y32542751D01*
X21209931Y32345000D01*
X21214477Y32335251D01*
X21345802Y32147700D01*
X21507700Y31985802D01*
X21695251Y31854477D01*
X21780614Y31814672D01*
X21902750Y31757719D01*
X21902752Y31757719D01*
X21902757Y31757716D01*
X22123913Y31698457D01*
X22183494Y31693245D01*
X22248562Y31667793D01*
X22260368Y31657398D01*
X23052756Y30865010D01*
X23086241Y30803687D01*
X23081257Y30733995D01*
X23039385Y30678062D01*
X22973921Y30653645D01*
X22912670Y30664947D01*
X22798326Y30718266D01*
X22798317Y30718270D01*
X22578610Y30777140D01*
X22578599Y30777142D01*
X22352002Y30796966D01*
X22351998Y30796966D01*
X22125400Y30777142D01*
X22125389Y30777140D01*
X21905682Y30718270D01*
X21905673Y30718266D01*
X21699513Y30622132D01*
X21626526Y30571027D01*
X22307599Y29889954D01*
X22226852Y29877165D01*
X22113955Y29819641D01*
X22024359Y29730045D01*
X21966835Y29617148D01*
X21954046Y29536401D01*
X21272973Y30217474D01*
X21272972Y30217473D01*
X21221868Y30144487D01*
X21125734Y29938327D01*
X21125730Y29938318D01*
X21066860Y29718611D01*
X21066858Y29718600D01*
X21047034Y29492003D01*
X21047034Y29491998D01*
X21066858Y29265401D01*
X21066860Y29265390D01*
X21125730Y29045683D01*
X21125734Y29045674D01*
X21221865Y28839519D01*
X21221866Y28839517D01*
X21272973Y28766529D01*
X21272974Y28766528D01*
X21954046Y29447601D01*
X21966835Y29366852D01*
X22024359Y29253955D01*
X22113955Y29164359D01*
X22226852Y29106835D01*
X22307599Y29094047D01*
X21626526Y28412975D01*
X21626526Y28412974D01*
X21699512Y28361869D01*
X21699516Y28361867D01*
X21905673Y28265735D01*
X21905682Y28265731D01*
X22125389Y28206861D01*
X22125400Y28206859D01*
X22351998Y28187034D01*
X22352002Y28187034D01*
X22578599Y28206859D01*
X22578610Y28206861D01*
X22798317Y28265731D01*
X22798331Y28265736D01*
X23004478Y28361864D01*
X23077472Y28412975D01*
X22396401Y29094047D01*
X22477148Y29106835D01*
X22590045Y29164359D01*
X22679641Y29253955D01*
X22737165Y29366852D01*
X22749953Y29447600D01*
X23431025Y28766528D01*
X23482136Y28839522D01*
X23578264Y29045669D01*
X23578269Y29045683D01*
X23637139Y29265390D01*
X23637141Y29265401D01*
X23656966Y29491998D01*
X23656966Y29492003D01*
X23637141Y29718600D01*
X23637139Y29718611D01*
X23578269Y29938318D01*
X23578266Y29938327D01*
X23524946Y30052671D01*
X23514454Y30121748D01*
X23542974Y30185532D01*
X23601450Y30223772D01*
X23671318Y30224327D01*
X23725009Y30192757D01*
X25102182Y28815584D01*
X25135666Y28754263D01*
X25138500Y28727905D01*
X25138500Y26358675D01*
X25118815Y26291636D01*
X25105731Y26274694D01*
X25102399Y26271074D01*
X25071279Y26237270D01*
X25071276Y26237266D01*
X24980808Y26098794D01*
X24927662Y26053438D01*
X24858431Y26044014D01*
X24795095Y26073516D01*
X24773192Y26098794D01*
X24682723Y26237266D01*
X24682715Y26237277D01*
X24530243Y26402903D01*
X24530238Y26402908D01*
X24373278Y26525076D01*
X24352576Y26541189D01*
X24352575Y26541190D01*
X24352572Y26541192D01*
X24154580Y26648339D01*
X24154577Y26648341D01*
X24154574Y26648342D01*
X24154571Y26648343D01*
X24154569Y26648344D01*
X23941637Y26721444D01*
X23719569Y26758500D01*
X23494431Y26758500D01*
X23272362Y26721444D01*
X23059430Y26648344D01*
X23059419Y26648339D01*
X22861427Y26541192D01*
X22861422Y26541188D01*
X22683761Y26402908D01*
X22683756Y26402903D01*
X22531284Y26237277D01*
X22531276Y26237266D01*
X22408140Y26048793D01*
X22317703Y25842615D01*
X22262436Y25624372D01*
X22262434Y25624360D01*
X22243844Y25400006D01*
X22243844Y25399995D01*
X22262434Y25175641D01*
X22262436Y25175629D01*
X22317703Y24957386D01*
X22408140Y24751208D01*
X22531276Y24562735D01*
X22531284Y24562724D01*
X22683756Y24397098D01*
X22683761Y24397093D01*
X22705722Y24380000D01*
X22861424Y24258811D01*
X22861425Y24258811D01*
X22861427Y24258809D01*
X22957456Y24206841D01*
X23059426Y24151658D01*
X23272365Y24078556D01*
X23494431Y24041500D01*
X23719569Y24041500D01*
X23941635Y24078556D01*
X24154574Y24151658D01*
X24352576Y24258811D01*
X24530240Y24397094D01*
X24675007Y24554351D01*
X24682715Y24562724D01*
X24682715Y24562725D01*
X24682722Y24562732D01*
X24773193Y24701210D01*
X24826338Y24746563D01*
X24895569Y24755987D01*
X24958905Y24726485D01*
X24980804Y24701213D01*
X25071278Y24562732D01*
X25071283Y24562727D01*
X25071284Y24562724D01*
X25223756Y24397098D01*
X25223761Y24397093D01*
X25245722Y24380000D01*
X25401424Y24258811D01*
X25401425Y24258811D01*
X25401427Y24258809D01*
X25497456Y24206841D01*
X25599426Y24151658D01*
X25812365Y24078556D01*
X26034431Y24041500D01*
X26259569Y24041500D01*
X26481635Y24078556D01*
X26694574Y24151658D01*
X26892576Y24258811D01*
X27070240Y24397094D01*
X27133452Y24465761D01*
X27193337Y24501750D01*
X27263175Y24499651D01*
X27320791Y24460127D01*
X27340861Y24425112D01*
X27378546Y24324079D01*
X27386111Y24303796D01*
X27473739Y24186739D01*
X27590796Y24099111D01*
X27727799Y24048011D01*
X27755050Y24045082D01*
X27788345Y24041501D01*
X27788362Y24041500D01*
X29585638Y24041500D01*
X29585654Y24041501D01*
X29612692Y24044409D01*
X29646201Y24048011D01*
X29783204Y24099111D01*
X29900261Y24186739D01*
X29987889Y24303796D01*
X30038989Y24440799D01*
X30042591Y24474308D01*
X30045499Y24501346D01*
X30045500Y24501363D01*
X30045500Y26298638D01*
X30045499Y26298655D01*
X30041672Y26334241D01*
X30038989Y26359201D01*
X30029439Y26384804D01*
X30015434Y26422355D01*
X29987889Y26496204D01*
X29900261Y26613261D01*
X29783204Y26700889D01*
X29781142Y26701658D01*
X29646203Y26751989D01*
X29585654Y26758500D01*
X29585638Y26758500D01*
X29550330Y26758500D01*
X29483291Y26778185D01*
X29437536Y26830989D01*
X29426802Y26893307D01*
X29427472Y26900975D01*
X28746401Y27582047D01*
X28827148Y27594835D01*
X28940045Y27652359D01*
X29029641Y27741955D01*
X29087165Y27854852D01*
X29099953Y27935600D01*
X29781025Y27254528D01*
X29832136Y27327522D01*
X29928264Y27533669D01*
X29928269Y27533683D01*
X29987139Y27753390D01*
X29987141Y27753401D01*
X30006966Y27979998D01*
X30006966Y27980003D01*
X29987141Y28206600D01*
X29987139Y28206611D01*
X29928269Y28426318D01*
X29928265Y28426327D01*
X29832133Y28632484D01*
X29832131Y28632488D01*
X29781026Y28705474D01*
X29781025Y28705474D01*
X29099953Y28024402D01*
X29087165Y28105148D01*
X29029641Y28218045D01*
X28940045Y28307641D01*
X28827148Y28365165D01*
X28746400Y28377954D01*
X29427472Y29059026D01*
X29427471Y29059027D01*
X29354483Y29110134D01*
X29354481Y29110135D01*
X29148326Y29206266D01*
X29148317Y29206270D01*
X28928610Y29265140D01*
X28928599Y29265142D01*
X28702002Y29284966D01*
X28701998Y29284966D01*
X28475400Y29265142D01*
X28475389Y29265140D01*
X28255682Y29206270D01*
X28255673Y29206266D01*
X28049513Y29110132D01*
X27976527Y29059028D01*
X27976526Y29059027D01*
X28657600Y28377954D01*
X28576852Y28365165D01*
X28463955Y28307641D01*
X28374359Y28218045D01*
X28316835Y28105148D01*
X28304046Y28024402D01*
X27622973Y28705474D01*
X27571868Y28632487D01*
X27475734Y28426327D01*
X27475730Y28426318D01*
X27416860Y28206611D01*
X27416858Y28206600D01*
X27403028Y28048515D01*
X27377576Y27983446D01*
X27370861Y27978585D01*
X27398477Y27935614D01*
X27403028Y27911486D01*
X27416858Y27753401D01*
X27416860Y27753390D01*
X27475730Y27533683D01*
X27475734Y27533674D01*
X27571865Y27327519D01*
X27571866Y27327517D01*
X27622973Y27254529D01*
X27622973Y27254528D01*
X28304045Y27935601D01*
X28316835Y27854852D01*
X28374359Y27741955D01*
X28463955Y27652359D01*
X28576852Y27594835D01*
X28657599Y27582047D01*
X27976526Y26900975D01*
X27977197Y26893307D01*
X27963430Y26824807D01*
X27914815Y26774624D01*
X27853669Y26758500D01*
X27788345Y26758500D01*
X27727797Y26751989D01*
X27727795Y26751989D01*
X27590795Y26700889D01*
X27473739Y26613261D01*
X27380796Y26489104D01*
X27378718Y26490660D01*
X27338929Y26450868D01*
X27270656Y26436015D01*
X27205191Y26460431D01*
X27163319Y26516363D01*
X27155500Y26559699D01*
X27155500Y27900679D01*
X27175185Y27967718D01*
X27187588Y27978466D01*
X27157931Y28034890D01*
X27155500Y28059322D01*
X27155500Y28595285D01*
X27155500Y29144428D01*
X27155797Y29150471D01*
X27160380Y29197000D01*
X27140908Y29394701D01*
X27083241Y29584804D01*
X27081116Y29588780D01*
X26989595Y29760004D01*
X26863568Y29913568D01*
X26827436Y29943221D01*
X26822935Y29947300D01*
X23790235Y32979999D01*
X27388502Y32979999D01*
X27408456Y32751919D01*
X27408457Y32751911D01*
X27467714Y32530762D01*
X27467718Y32530751D01*
X27558879Y32335255D01*
X27564477Y32323251D01*
X27695802Y32135700D01*
X27857700Y31973802D01*
X28045251Y31842477D01*
X28147828Y31794645D01*
X28252750Y31745719D01*
X28252752Y31745719D01*
X28252757Y31745716D01*
X28473913Y31686457D01*
X28636832Y31672204D01*
X28701998Y31666502D01*
X28702000Y31666502D01*
X28702002Y31666502D01*
X28759021Y31671491D01*
X28930087Y31686457D01*
X29151243Y31745716D01*
X29358749Y31842477D01*
X29546300Y31973802D01*
X29708198Y32135700D01*
X29839523Y32323251D01*
X29936284Y32530757D01*
X29995543Y32751913D01*
X30015498Y32980000D01*
X29995543Y33208087D01*
X29936284Y33429243D01*
X29930688Y33441243D01*
X29903289Y33500000D01*
X36988179Y33500000D01*
X37007424Y33280024D01*
X37007426Y33280014D01*
X37064575Y33066730D01*
X37064580Y33066716D01*
X37157899Y32866593D01*
X37157900Y32866591D01*
X37203258Y32801813D01*
X37870096Y33468651D01*
X37870051Y33468102D01*
X37901266Y33344838D01*
X37970813Y33238388D01*
X38071157Y33160287D01*
X38191422Y33119000D01*
X38227553Y33119000D01*
X37556811Y32448259D01*
X37621582Y32402906D01*
X37621592Y32402900D01*
X37821715Y32309581D01*
X37821729Y32309576D01*
X38035013Y32252427D01*
X38035023Y32252425D01*
X38254999Y32233179D01*
X38255001Y32233179D01*
X38474976Y32252425D01*
X38474986Y32252427D01*
X38688270Y32309576D01*
X38688284Y32309581D01*
X38888408Y32402900D01*
X38888420Y32402907D01*
X38953186Y32448258D01*
X38953187Y32448260D01*
X38282448Y33119000D01*
X38286569Y33119000D01*
X38380421Y33134661D01*
X38492251Y33195180D01*
X38578371Y33288731D01*
X38629448Y33405177D01*
X38635105Y33473448D01*
X39306740Y32801813D01*
X39306742Y32801814D01*
X39352093Y32866580D01*
X39352100Y32866592D01*
X39445419Y33066716D01*
X39445424Y33066730D01*
X39502573Y33280014D01*
X39502575Y33280024D01*
X39521821Y33500000D01*
X39521821Y33500001D01*
X39502575Y33719977D01*
X39502573Y33719987D01*
X39445424Y33933271D01*
X39445420Y33933280D01*
X39352098Y34133410D01*
X39306740Y34198189D01*
X38639903Y33531352D01*
X38639949Y33531898D01*
X38608734Y33655162D01*
X38539187Y33761612D01*
X38438843Y33839713D01*
X38318578Y33881000D01*
X38282447Y33881000D01*
X38953187Y34551742D01*
X38888409Y34597100D01*
X38888407Y34597101D01*
X38688284Y34690420D01*
X38688270Y34690425D01*
X38474986Y34747574D01*
X38474976Y34747576D01*
X38255001Y34766821D01*
X38254999Y34766821D01*
X38035023Y34747576D01*
X38035013Y34747574D01*
X37821729Y34690425D01*
X37821720Y34690421D01*
X37621586Y34597097D01*
X37556812Y34551743D01*
X37556811Y34551742D01*
X38227554Y33881000D01*
X38223431Y33881000D01*
X38129579Y33865339D01*
X38017749Y33804820D01*
X37931629Y33711269D01*
X37880552Y33594823D01*
X37874894Y33526553D01*
X37203258Y34198189D01*
X37203257Y34198188D01*
X37157903Y34133414D01*
X37064579Y33933280D01*
X37064575Y33933271D01*
X37007426Y33719987D01*
X37007424Y33719977D01*
X36988179Y33500001D01*
X36988179Y33500000D01*
X29903289Y33500000D01*
X29896211Y33515180D01*
X29839523Y33636749D01*
X29708198Y33824300D01*
X29546300Y33986198D01*
X29358749Y34117523D01*
X29333013Y34129524D01*
X29151249Y34214282D01*
X29151238Y34214286D01*
X28930089Y34273543D01*
X28930081Y34273544D01*
X28702002Y34293498D01*
X28701998Y34293498D01*
X28473918Y34273544D01*
X28473910Y34273543D01*
X28252761Y34214286D01*
X28252750Y34214282D01*
X28045254Y34117525D01*
X28045252Y34117524D01*
X28045249Y34117523D01*
X28045251Y34117523D01*
X27857700Y33986198D01*
X27857698Y33986197D01*
X27857695Y33986194D01*
X27695806Y33824305D01*
X27695803Y33824302D01*
X27695802Y33824300D01*
X27625126Y33723365D01*
X27564476Y33636748D01*
X27564475Y33636746D01*
X27467718Y33429250D01*
X27467714Y33429239D01*
X27408457Y33208090D01*
X27408456Y33208082D01*
X27388502Y32980002D01*
X27388502Y32979999D01*
X23790235Y32979999D01*
X23686601Y33083633D01*
X23653117Y33144955D01*
X23650755Y33160507D01*
X23646592Y33208087D01*
X23645543Y33220087D01*
X23586284Y33441243D01*
X23489523Y33648749D01*
X23358198Y33836300D01*
X23196300Y33998198D01*
X23008749Y34129523D01*
X23008745Y34129525D01*
X22801249Y34226282D01*
X22801238Y34226286D01*
X22580089Y34285543D01*
X22580081Y34285544D01*
X22352002Y34305498D01*
X22351998Y34305498D01*
X22123918Y34285544D01*
X22123910Y34285543D01*
X21902761Y34226286D01*
X21902750Y34226282D01*
X21695254Y34129525D01*
X21695252Y34129524D01*
X21678113Y34117523D01*
X21507700Y33998198D01*
X21507698Y33998197D01*
X21507695Y33998194D01*
X21345806Y33836305D01*
X21345803Y33836302D01*
X21345802Y33836300D01*
X21323244Y33804084D01*
X21214476Y33648748D01*
X21214475Y33648746D01*
X21117718Y33441250D01*
X21117714Y33441239D01*
X21058457Y33220090D01*
X21058456Y33220082D01*
X21038502Y32992002D01*
X21038502Y32991999D01*
X2217263Y32991999D01*
X2277793Y33237579D01*
X2311500Y33515180D01*
X2311500Y33655000D01*
X2311500Y33663285D01*
X2311500Y35563000D01*
X2331185Y35630039D01*
X2383989Y35675794D01*
X2435500Y35687000D01*
X77574500Y35687000D01*
X77641539Y35667315D01*
G37*
%TD.AperFunction*%
%TA.AperFunction,Conductor*%
G36*
X68730834Y3046990D02*
G01*
X68786767Y3005118D01*
X68811184Y2939654D01*
X68811500Y2930808D01*
X68811500Y1482500D01*
X68791815Y1415461D01*
X68739011Y1369706D01*
X68687500Y1358500D01*
X67681345Y1358500D01*
X67620797Y1351989D01*
X67620795Y1351989D01*
X67483795Y1300889D01*
X67366739Y1213261D01*
X67279111Y1096205D01*
X67228011Y959205D01*
X67228011Y959203D01*
X67221500Y898655D01*
X67221500Y-898654D01*
X67228011Y-959202D01*
X67228011Y-959204D01*
X67274648Y-1084238D01*
X67279111Y-1096204D01*
X67366739Y-1213261D01*
X67483796Y-1300889D01*
X67620799Y-1351989D01*
X67648050Y-1354918D01*
X67681345Y-1358499D01*
X67681362Y-1358500D01*
X69478638Y-1358500D01*
X69478654Y-1358499D01*
X69505692Y-1355591D01*
X69539201Y-1351989D01*
X69676204Y-1300889D01*
X69793261Y-1213261D01*
X69880889Y-1096204D01*
X69926138Y-974887D01*
X69968009Y-918956D01*
X70033474Y-894539D01*
X70101746Y-909391D01*
X70133545Y-934236D01*
X70196760Y-1002906D01*
X70374424Y-1141189D01*
X70374425Y-1141189D01*
X70374427Y-1141191D01*
X70449949Y-1182061D01*
X70572426Y-1248342D01*
X70785365Y-1321444D01*
X71007431Y-1358500D01*
X71232569Y-1358500D01*
X71454635Y-1321444D01*
X71667574Y-1248342D01*
X71865576Y-1141189D01*
X72043240Y-1002906D01*
X72151709Y-885078D01*
X72195715Y-837276D01*
X72195715Y-837275D01*
X72195722Y-837268D01*
X72286193Y-698790D01*
X72339338Y-653437D01*
X72408569Y-644013D01*
X72471905Y-673515D01*
X72493804Y-698787D01*
X72584278Y-837268D01*
X72584283Y-837273D01*
X72584284Y-837276D01*
X72736756Y-1002902D01*
X72736761Y-1002907D01*
X72788830Y-1043434D01*
X72914424Y-1141189D01*
X72914425Y-1141189D01*
X72914427Y-1141191D01*
X72989949Y-1182061D01*
X73112426Y-1248342D01*
X73325365Y-1321444D01*
X73547431Y-1358500D01*
X73772569Y-1358500D01*
X73994635Y-1321444D01*
X74207574Y-1248342D01*
X74405576Y-1141189D01*
X74583240Y-1002906D01*
X74691709Y-885078D01*
X74735715Y-837276D01*
X74735715Y-837275D01*
X74735722Y-837268D01*
X74829749Y-693347D01*
X74882894Y-647994D01*
X74952125Y-638570D01*
X75015461Y-668072D01*
X75035130Y-690048D01*
X75161890Y-871078D01*
X75328917Y-1038105D01*
X75522421Y-1173600D01*
X75736507Y-1273429D01*
X75736516Y-1273433D01*
X75950000Y-1330634D01*
X75950000Y-435501D01*
X76057685Y-484680D01*
X76164237Y-500000D01*
X76235763Y-500000D01*
X76342315Y-484680D01*
X76450000Y-435501D01*
X76450000Y-1330633D01*
X76663483Y-1273433D01*
X76663492Y-1273429D01*
X76877578Y-1173600D01*
X77071082Y-1038105D01*
X77238105Y-871082D01*
X77373600Y-677578D01*
X77462118Y-487751D01*
X77508290Y-435312D01*
X77575484Y-416160D01*
X77642365Y-436376D01*
X77687699Y-489541D01*
X77698500Y-540156D01*
X77698500Y-1908000D01*
X77678815Y-1975039D01*
X77626011Y-2020794D01*
X77574500Y-2032000D01*
X65429626Y-2032000D01*
X65362587Y-2012315D01*
X65316832Y-1959511D01*
X65306888Y-1890353D01*
X65335913Y-1826797D01*
X65377221Y-1795618D01*
X65426749Y-1772523D01*
X65614300Y-1641198D01*
X65776198Y-1479300D01*
X65907523Y-1291749D01*
X66004284Y-1084243D01*
X66063543Y-863087D01*
X66082361Y-647994D01*
X66083498Y-635001D01*
X66083498Y-634998D01*
X66073867Y-524917D01*
X66087634Y-456417D01*
X66136249Y-406234D01*
X66171610Y-392821D01*
X66296149Y-366350D01*
X66322284Y-360795D01*
X66322284Y-360794D01*
X66322288Y-360794D01*
X66496752Y-283118D01*
X66651253Y-170866D01*
X66779040Y-28944D01*
X66874527Y136444D01*
X66933542Y318072D01*
X66953504Y508000D01*
X66933542Y697928D01*
X66876575Y873252D01*
X66874529Y879550D01*
X66874528Y879553D01*
X66874527Y879556D01*
X66779040Y1044944D01*
X66779037Y1044947D01*
X66777009Y1047739D01*
X66776333Y1049634D01*
X66775791Y1050572D01*
X66775962Y1050672D01*
X66753525Y1113544D01*
X66769346Y1181599D01*
X66789637Y1208308D01*
X68599819Y3018490D01*
X68661142Y3051974D01*
X68730834Y3046990D01*
G37*
%TD.AperFunction*%
%TA.AperFunction,Conductor*%
G36*
X36481755Y7894371D02*
G01*
X36539372Y7854847D01*
X36566474Y7790448D01*
X36566582Y7763536D01*
X36552989Y7634201D01*
X36551496Y7620000D01*
X36571458Y7430072D01*
X36571459Y7430069D01*
X36630470Y7248451D01*
X36630473Y7248444D01*
X36725960Y7083056D01*
X36853747Y6941134D01*
X37008248Y6828882D01*
X37182712Y6751206D01*
X37369513Y6711500D01*
X37383807Y6711500D01*
X37450846Y6691815D01*
X37471488Y6675181D01*
X38992733Y5153936D01*
X40031389Y4115281D01*
X40064874Y4053958D01*
X40059890Y3984266D01*
X40018018Y3928333D01*
X39952554Y3903916D01*
X39943708Y3903600D01*
X39892010Y3903600D01*
X39669106Y3866404D01*
X39455375Y3793030D01*
X39455369Y3793028D01*
X39256623Y3685471D01*
X39256617Y3685467D01*
X39232140Y3666416D01*
X39232140Y3666414D01*
X39865400Y3033153D01*
X39860408Y3032435D01*
X39727530Y2971752D01*
X39617131Y2876090D01*
X39538155Y2753201D01*
X39515477Y2675970D01*
X38880109Y3311337D01*
X38843885Y3255890D01*
X38790739Y3210532D01*
X38721508Y3201108D01*
X38658172Y3230609D01*
X38636267Y3255888D01*
X38551492Y3385646D01*
X38551491Y3385647D01*
X38551490Y3385649D01*
X38397483Y3552946D01*
X38397478Y3552950D01*
X38397475Y3552953D01*
X38218047Y3692607D01*
X38218032Y3692617D01*
X38018065Y3800834D01*
X38018051Y3800841D01*
X37802987Y3874672D01*
X37653458Y3899625D01*
X37578695Y3912100D01*
X37351305Y3912100D01*
X37308601Y3904974D01*
X37139961Y3876833D01*
X37070595Y3885215D01*
X37031870Y3911461D01*
X36660225Y4283106D01*
X36626740Y4344429D01*
X36631724Y4414121D01*
X36660221Y4458464D01*
X36731977Y4530219D01*
X36859488Y4712323D01*
X36953440Y4913804D01*
X37010978Y5128537D01*
X37030353Y5350000D01*
X37010978Y5571463D01*
X36953440Y5786196D01*
X36859488Y5987676D01*
X36859486Y5987679D01*
X36859485Y5987681D01*
X36731978Y6169780D01*
X36658571Y6243187D01*
X36574781Y6326977D01*
X36422164Y6433841D01*
X36392676Y6454489D01*
X36253095Y6519576D01*
X36191196Y6548440D01*
X36191193Y6548441D01*
X36191191Y6548442D01*
X35976465Y6605978D01*
X35976457Y6605979D01*
X35755002Y6625353D01*
X35754998Y6625353D01*
X35533542Y6605979D01*
X35533535Y6605978D01*
X35415583Y6574372D01*
X35318804Y6548440D01*
X35318802Y6548440D01*
X35318798Y6548438D01*
X35256904Y6519576D01*
X35187827Y6509084D01*
X35124043Y6537604D01*
X35085804Y6596081D01*
X35080500Y6631958D01*
X35080500Y7259300D01*
X35100185Y7326339D01*
X35152989Y7372094D01*
X35204500Y7383300D01*
X35424594Y7383300D01*
X35424595Y7383300D01*
X35648885Y7420728D01*
X35863955Y7494561D01*
X36063939Y7602788D01*
X36086055Y7620001D01*
X36181047Y7693936D01*
X36243383Y7742454D01*
X36352033Y7860481D01*
X36411917Y7896470D01*
X36481755Y7894371D01*
G37*
%TD.AperFunction*%
%TA.AperFunction,Conductor*%
G36*
X38985000Y24069367D02*
G01*
X39198483Y24126567D01*
X39198492Y24126571D01*
X39412578Y24226400D01*
X39606082Y24361895D01*
X39773105Y24528918D01*
X39899868Y24709952D01*
X39954445Y24753577D01*
X40023944Y24760769D01*
X40086298Y24729247D01*
X40105251Y24706650D01*
X40199276Y24562735D01*
X40199284Y24562724D01*
X40351756Y24397098D01*
X40351761Y24397093D01*
X40373722Y24380000D01*
X40529424Y24258811D01*
X40529425Y24258811D01*
X40529427Y24258809D01*
X40625456Y24206841D01*
X40727426Y24151658D01*
X40940365Y24078556D01*
X41162431Y24041500D01*
X41387569Y24041500D01*
X41588224Y24074983D01*
X41657589Y24066601D01*
X41696314Y24040355D01*
X44050933Y21685736D01*
X44084418Y21624413D01*
X44079434Y21554721D01*
X44037562Y21498788D01*
X43972098Y21474371D01*
X43937473Y21476764D01*
X43933046Y21477705D01*
X43910487Y21482500D01*
X43719513Y21482500D01*
X43532714Y21442795D01*
X43532711Y21442794D01*
X43532712Y21442794D01*
X43363455Y21367436D01*
X43358246Y21365117D01*
X43203745Y21252865D01*
X43075959Y21110943D01*
X42980473Y20945557D01*
X42980470Y20945550D01*
X42922471Y20767047D01*
X42921458Y20763928D01*
X42901496Y20574000D01*
X42921458Y20384072D01*
X42921459Y20384069D01*
X42980470Y20202451D01*
X42980473Y20202444D01*
X43075960Y20037056D01*
X43095778Y20015046D01*
X43203892Y19894972D01*
X43234122Y19831980D01*
X43225496Y19762645D01*
X43203892Y19729028D01*
X43075959Y19586943D01*
X42980473Y19421557D01*
X42980470Y19421550D01*
X42925467Y19252266D01*
X42921458Y19239928D01*
X42901496Y19050000D01*
X42921458Y18860072D01*
X42921459Y18860069D01*
X42980470Y18678451D01*
X42980473Y18678444D01*
X43075960Y18513056D01*
X43178290Y18399407D01*
X43197115Y18378499D01*
X43203747Y18371134D01*
X43284981Y18312114D01*
X43332185Y18277818D01*
X43374850Y18222488D01*
X43380829Y18152874D01*
X43348223Y18091079D01*
X43287384Y18056722D01*
X43259299Y18053500D01*
X43084513Y18053500D01*
X42897714Y18013795D01*
X42810480Y17974956D01*
X42738113Y17942736D01*
X42723246Y17936117D01*
X42568745Y17823865D01*
X42440959Y17681943D01*
X42345473Y17516557D01*
X42345470Y17516550D01*
X42286459Y17334932D01*
X42286458Y17334928D01*
X42266496Y17145000D01*
X42286458Y16955072D01*
X42286459Y16955069D01*
X42345470Y16773451D01*
X42345473Y16773444D01*
X42440960Y16608056D01*
X42521705Y16518380D01*
X42568746Y16466135D01*
X42568748Y16466133D01*
X42719385Y16356689D01*
X42762051Y16301359D01*
X42770500Y16256371D01*
X42770500Y15965081D01*
X42750815Y15898042D01*
X42698011Y15852287D01*
X42628853Y15842343D01*
X42565297Y15871368D01*
X42554351Y15882108D01*
X42521255Y15918864D01*
X42521254Y15918865D01*
X42521253Y15918866D01*
X42366752Y16031118D01*
X42192288Y16108794D01*
X42192286Y16108795D01*
X42005487Y16148500D01*
X41814513Y16148500D01*
X41627714Y16108795D01*
X41453246Y16031117D01*
X41298745Y15918865D01*
X41170959Y15776943D01*
X41075473Y15611557D01*
X41075470Y15611550D01*
X41016509Y15430085D01*
X41016458Y15429928D01*
X40996496Y15240000D01*
X41016458Y15050072D01*
X41016459Y15050069D01*
X41075470Y14868451D01*
X41075473Y14868444D01*
X41170960Y14703056D01*
X41298747Y14561134D01*
X41453248Y14448882D01*
X41627712Y14371206D01*
X41814513Y14331500D01*
X41828807Y14331500D01*
X41895846Y14311815D01*
X41916488Y14295181D01*
X41972181Y14239488D01*
X42005666Y14178165D01*
X42008500Y14151807D01*
X42008500Y12865795D01*
X41988815Y12798756D01*
X41936011Y12753001D01*
X41866853Y12743057D01*
X41803297Y12772082D01*
X41766569Y12827477D01*
X41728529Y12944550D01*
X41728528Y12944551D01*
X41728527Y12944556D01*
X41633040Y13109944D01*
X41505253Y13251866D01*
X41350752Y13364118D01*
X41176288Y13441794D01*
X41176286Y13441795D01*
X40989487Y13481500D01*
X40798513Y13481500D01*
X40611714Y13441795D01*
X40437246Y13364117D01*
X40282745Y13251865D01*
X40154959Y13109943D01*
X40059473Y12944557D01*
X40059470Y12944550D01*
X40008767Y12788500D01*
X40000458Y12762928D01*
X39980496Y12573000D01*
X40000458Y12383072D01*
X40000459Y12383069D01*
X40059470Y12201451D01*
X40059473Y12201444D01*
X40154960Y12036056D01*
X40282747Y11894134D01*
X40437248Y11781882D01*
X40611712Y11704206D01*
X40798513Y11664500D01*
X40812807Y11664500D01*
X40879846Y11644815D01*
X40900488Y11628181D01*
X41210181Y11318489D01*
X41243666Y11257166D01*
X41246500Y11230808D01*
X41246500Y5076193D01*
X41226815Y5009154D01*
X41174011Y4963399D01*
X41104853Y4953455D01*
X41041297Y4982480D01*
X41034819Y4988512D01*
X38406637Y7616694D01*
X38373152Y7678017D01*
X38371000Y7691395D01*
X38358542Y7809928D01*
X38299527Y7991556D01*
X38204040Y8156944D01*
X38076253Y8298866D01*
X37921752Y8411118D01*
X37747288Y8488794D01*
X37747286Y8488795D01*
X37560487Y8528500D01*
X37369513Y8528500D01*
X37182714Y8488795D01*
X37008246Y8411117D01*
X36942691Y8363488D01*
X36853747Y8298866D01*
X36851002Y8295819D01*
X36848974Y8294569D01*
X36848917Y8294517D01*
X36848907Y8294528D01*
X36791516Y8259172D01*
X36721659Y8260503D01*
X36663612Y8299391D01*
X36635803Y8363488D01*
X36638649Y8409233D01*
X36639126Y8411117D01*
X36668924Y8528786D01*
X36685239Y8725678D01*
X36687702Y8755395D01*
X36687702Y8755406D01*
X36675183Y8906476D01*
X36668924Y8982014D01*
X36613103Y9202447D01*
X36521761Y9410685D01*
X36397390Y9601049D01*
X36243383Y9768346D01*
X36243378Y9768350D01*
X36243375Y9768353D01*
X36063947Y9908007D01*
X36063936Y9908014D01*
X36047987Y9916645D01*
X35998396Y9965864D01*
X35983288Y10034081D01*
X36007458Y10099637D01*
X36047987Y10134755D01*
X36054615Y10138342D01*
X36063939Y10143388D01*
X36066400Y10145303D01*
X36203279Y10251840D01*
X36243383Y10283054D01*
X36397390Y10450351D01*
X36521761Y10640715D01*
X36613103Y10848953D01*
X36668924Y11069386D01*
X36681157Y11217016D01*
X36687702Y11295995D01*
X36687702Y11296006D01*
X36673351Y11469189D01*
X36668924Y11522614D01*
X36613103Y11743047D01*
X36521761Y11951285D01*
X36397390Y12141649D01*
X36243383Y12308946D01*
X36243378Y12308950D01*
X36243375Y12308953D01*
X36063947Y12448607D01*
X36063932Y12448617D01*
X35863965Y12556834D01*
X35863951Y12556841D01*
X35648887Y12630672D01*
X35499358Y12655624D01*
X35424595Y12668100D01*
X35197205Y12668100D01*
X35141132Y12658744D01*
X34972912Y12630672D01*
X34757848Y12556841D01*
X34757834Y12556834D01*
X34557867Y12448617D01*
X34557852Y12448607D01*
X34378424Y12308953D01*
X34378414Y12308943D01*
X34224407Y12141646D01*
X34100037Y11951282D01*
X34008697Y11743048D01*
X33952875Y11522611D01*
X33934098Y11296006D01*
X33934098Y11295995D01*
X33952875Y11069390D01*
X33974594Y10983623D01*
X33971969Y10913803D01*
X33942069Y10865502D01*
X33814442Y10737875D01*
X33753119Y10704390D01*
X33683427Y10709374D01*
X33627494Y10751246D01*
X33613205Y10775745D01*
X33600182Y10805434D01*
X33595861Y10815285D01*
X33471490Y11005649D01*
X33317483Y11172946D01*
X33317478Y11172950D01*
X33317475Y11172953D01*
X33138047Y11312607D01*
X33138037Y11312614D01*
X33122641Y11320945D01*
X33073050Y11370164D01*
X33057941Y11438380D01*
X33082112Y11503936D01*
X33122641Y11539055D01*
X33138037Y11547387D01*
X33138036Y11547387D01*
X33138039Y11547388D01*
X33150546Y11557122D01*
X33317475Y11687048D01*
X33317483Y11687054D01*
X33471490Y11854351D01*
X33595861Y12044715D01*
X33687203Y12252953D01*
X33743024Y12473386D01*
X33756057Y12630672D01*
X33761802Y12699995D01*
X33761802Y12700006D01*
X33744453Y12909369D01*
X33743024Y12926614D01*
X33687203Y13147047D01*
X33595861Y13355285D01*
X33471490Y13545649D01*
X33317483Y13712946D01*
X33317478Y13712950D01*
X33317475Y13712953D01*
X33138047Y13852607D01*
X33138036Y13852614D01*
X33122637Y13860948D01*
X33073048Y13910169D01*
X33057942Y13978386D01*
X33082115Y14043941D01*
X33122641Y14079056D01*
X33138039Y14087388D01*
X33162740Y14106613D01*
X33285591Y14202232D01*
X33317483Y14227054D01*
X33471490Y14394351D01*
X33595861Y14584715D01*
X33687203Y14792953D01*
X33743024Y15013386D01*
X33757678Y15190231D01*
X33761802Y15239995D01*
X33761802Y15240006D01*
X33746064Y15429928D01*
X33743024Y15466614D01*
X33687203Y15687047D01*
X33595861Y15895285D01*
X33471490Y16085649D01*
X33317483Y16252946D01*
X33317478Y16252950D01*
X33317475Y16252953D01*
X33138047Y16392607D01*
X33138037Y16392614D01*
X33122641Y16400945D01*
X33073050Y16450164D01*
X33057941Y16518380D01*
X33082112Y16583936D01*
X33122641Y16619055D01*
X33138037Y16627387D01*
X33138036Y16627387D01*
X33138039Y16627388D01*
X33317483Y16767054D01*
X33471490Y16934351D01*
X33595861Y17124715D01*
X33687203Y17332953D01*
X33743024Y17553386D01*
X33756832Y17720016D01*
X33761802Y17779995D01*
X33761802Y17780006D01*
X33743024Y18006611D01*
X33743024Y18006614D01*
X33687203Y18227047D01*
X33595861Y18435285D01*
X33471490Y18625649D01*
X33317483Y18792946D01*
X33317478Y18792950D01*
X33317475Y18792953D01*
X33138047Y18932607D01*
X33138037Y18932614D01*
X33122641Y18940945D01*
X33073050Y18990164D01*
X33057941Y19058380D01*
X33082112Y19123936D01*
X33122641Y19159055D01*
X33138037Y19167387D01*
X33138036Y19167387D01*
X33138039Y19167388D01*
X33150420Y19177024D01*
X33247091Y19252266D01*
X33317483Y19307054D01*
X33471490Y19474351D01*
X33595861Y19664715D01*
X33687203Y19872953D01*
X33743024Y20093386D01*
X33752061Y20202444D01*
X33761802Y20319995D01*
X33761802Y20320006D01*
X33746737Y20501807D01*
X33743024Y20546614D01*
X33687203Y20767047D01*
X33687203Y20767048D01*
X33685944Y20772019D01*
X33688345Y20772628D01*
X33685754Y20832234D01*
X33720939Y20892597D01*
X33783174Y20924355D01*
X33806136Y20926500D01*
X34116308Y20926500D01*
X34183347Y20906815D01*
X34220116Y20870323D01*
X34224406Y20863757D01*
X34224410Y20863751D01*
X34378417Y20696454D01*
X34378421Y20696451D01*
X34378424Y20696448D01*
X34557852Y20556794D01*
X34557863Y20556787D01*
X34573260Y20548454D01*
X34622850Y20499234D01*
X34637957Y20431017D01*
X34613786Y20365462D01*
X34573260Y20330346D01*
X34557863Y20322014D01*
X34557852Y20322007D01*
X34378424Y20182353D01*
X34378414Y20182343D01*
X34224407Y20015046D01*
X34100037Y19824682D01*
X34008697Y19616448D01*
X33952875Y19396011D01*
X33934098Y19169406D01*
X33934098Y19169395D01*
X33952875Y18942790D01*
X33952875Y18942787D01*
X33952876Y18942786D01*
X34008697Y18722353D01*
X34100039Y18514115D01*
X34100730Y18513058D01*
X34195574Y18367887D01*
X34224410Y18323751D01*
X34378417Y18156454D01*
X34378421Y18156451D01*
X34378424Y18156448D01*
X34557852Y18016794D01*
X34557867Y18016784D01*
X34706926Y17936117D01*
X34757845Y17908561D01*
X34972915Y17834728D01*
X35197205Y17797300D01*
X35197206Y17797300D01*
X35424594Y17797300D01*
X35424595Y17797300D01*
X35648885Y17834728D01*
X35863955Y17908561D01*
X36045134Y18006611D01*
X36063932Y18016784D01*
X36063933Y18016786D01*
X36063939Y18016788D01*
X36093074Y18039464D01*
X36238783Y18152874D01*
X36243383Y18156454D01*
X36397390Y18323751D01*
X36521761Y18514115D01*
X36613103Y18722353D01*
X36668924Y18942786D01*
X36678951Y19063793D01*
X36687702Y19169395D01*
X36687702Y19169406D01*
X36668925Y19396006D01*
X36668924Y19396011D01*
X36668924Y19396014D01*
X36647205Y19481780D01*
X36649830Y19551600D01*
X36679728Y19599899D01*
X37863688Y20783859D01*
X37866363Y20786378D01*
X37910284Y20825287D01*
X37943608Y20873568D01*
X37945794Y20876539D01*
X37981981Y20922726D01*
X37985673Y20930931D01*
X37996704Y20950489D01*
X38001815Y20957892D01*
X38022612Y21012732D01*
X38024030Y21016156D01*
X38048110Y21069657D01*
X38049733Y21078518D01*
X38055758Y21100130D01*
X38058951Y21108548D01*
X38066019Y21166760D01*
X38066583Y21170464D01*
X38073644Y21209000D01*
X38077153Y21228145D01*
X38073613Y21286674D01*
X38073500Y21290418D01*
X38073500Y24024262D01*
X38093185Y24091301D01*
X38145989Y24137056D01*
X38215147Y24147000D01*
X38249907Y24136643D01*
X38271507Y24126570D01*
X38271516Y24126567D01*
X38485000Y24069366D01*
X38485000Y24964499D01*
X38592685Y24915320D01*
X38699237Y24900000D01*
X38770763Y24900000D01*
X38877315Y24915320D01*
X38985000Y24964499D01*
X38985000Y24069367D01*
G37*
%TD.AperFunction*%
%TD*%
M02*
