%TF.GenerationSoftware,KiCad,Pcbnew,7.0.7*%
%TF.CreationDate,2023-09-10T17:47:14+02:00*%
%TF.ProjectId,Angle&Ana&Sw,416e676c-6526-4416-9e61-2653772e6b69,1.0*%
%TF.SameCoordinates,Original*%
%TF.FileFunction,Soldermask,Bot*%
%TF.FilePolarity,Negative*%
%FSLAX46Y46*%
G04 Gerber Fmt 4.6, Leading zero omitted, Abs format (unit mm)*
G04 Created by KiCad (PCBNEW 7.0.7) date 2023-09-10 17:47:14*
%MOMM*%
%LPD*%
G01*
G04 APERTURE LIST*
G04 Aperture macros list*
%AMRoundRect*
0 Rectangle with rounded corners*
0 $1 Rounding radius*
0 $2 $3 $4 $5 $6 $7 $8 $9 X,Y pos of 4 corners*
0 Add a 4 corners polygon primitive as box body*
4,1,4,$2,$3,$4,$5,$6,$7,$8,$9,$2,$3,0*
0 Add four circle primitives for the rounded corners*
1,1,$1+$1,$2,$3*
1,1,$1+$1,$4,$5*
1,1,$1+$1,$6,$7*
1,1,$1+$1,$8,$9*
0 Add four rect primitives between the rounded corners*
20,1,$1+$1,$2,$3,$4,$5,0*
20,1,$1+$1,$4,$5,$6,$7,0*
20,1,$1+$1,$6,$7,$8,$9,0*
20,1,$1+$1,$8,$9,$2,$3,0*%
%AMHorizOval*
0 Thick line with rounded ends*
0 $1 width*
0 $2 $3 position (X,Y) of the first rounded end (center of the circle)*
0 $4 $5 position (X,Y) of the second rounded end (center of the circle)*
0 Add line between two ends*
20,1,$1,$2,$3,$4,$5,0*
0 Add two circle primitives to create the rounded ends*
1,1,$1,$2,$3*
1,1,$1,$4,$5*%
%AMRotRect*
0 Rectangle, with rotation*
0 The origin of the aperture is its center*
0 $1 length*
0 $2 width*
0 $3 Rotation angle, in degrees counterclockwise*
0 Add horizontal line*
21,1,$1,$2,0,0,$3*%
G04 Aperture macros list end*
%ADD10RotRect,1.700000X1.700000X315.000000*%
%ADD11HorizOval,1.700000X0.000000X0.000000X0.000000X0.000000X0*%
%ADD12C,1.524000*%
%ADD13R,1.700000X1.700000*%
%ADD14O,1.700000X1.700000*%
%ADD15C,1.600000*%
%ADD16R,1.600000X1.600000*%
%ADD17O,1.600000X1.600000*%
%ADD18RoundRect,0.250000X-0.350000X-0.625000X0.350000X-0.625000X0.350000X0.625000X-0.350000X0.625000X0*%
%ADD19O,1.200000X1.750000*%
%ADD20RoundRect,0.250000X-0.625000X0.350000X-0.625000X-0.350000X0.625000X-0.350000X0.625000X0.350000X0*%
%ADD21O,1.750000X1.200000*%
%ADD22R,1.800000X1.800000*%
%ADD23C,1.800000*%
%ADD24C,2.000000*%
%ADD25C,1.727200*%
%ADD26R,1.727200X1.727200*%
%ADD27C,1.400000*%
%ADD28O,1.400000X1.400000*%
G04 APERTURE END LIST*
D10*
%TO.C,U2*%
X196266057Y-107583954D03*
D11*
X194470005Y-109380005D03*
X192673954Y-111176057D03*
%TD*%
D10*
%TO.C,U4*%
X154357557Y-107583954D03*
D11*
X152561505Y-109380005D03*
X150765454Y-111176057D03*
%TD*%
D12*
%TO.C,RV1*%
X178590000Y-132080000D03*
X182090000Y-132080000D03*
X178590000Y-98580000D03*
X176090000Y-126730000D03*
X176090000Y-103930000D03*
X184590000Y-127930000D03*
X184590000Y-102730000D03*
%TD*%
D13*
%TO.C,J7*%
X142175000Y-120650000D03*
D14*
X139635000Y-120650000D03*
X142175000Y-123190000D03*
X139635000Y-123190000D03*
X142175000Y-125730000D03*
X139635000Y-125730000D03*
X142175000Y-128270000D03*
X139635000Y-128270000D03*
%TD*%
D15*
%TO.C,C2*%
X193675000Y-130810000D03*
X193675000Y-125810000D03*
%TD*%
%TO.C,C3*%
X169037000Y-99100000D03*
X169037000Y-104100000D03*
%TD*%
D16*
%TO.C,U1*%
X197485000Y-125095000D03*
D17*
X200025000Y-125095000D03*
X202565000Y-125095000D03*
X205105000Y-125095000D03*
X205105000Y-132715000D03*
X202565000Y-132715000D03*
X200025000Y-132715000D03*
X197485000Y-132715000D03*
%TD*%
D18*
%TO.C,J10*%
X152781000Y-129794000D03*
D19*
X154781000Y-129794000D03*
X156781000Y-129794000D03*
X158781000Y-129794000D03*
X160781000Y-129794000D03*
X162781000Y-129794000D03*
X164781000Y-129794000D03*
X166781000Y-129794000D03*
X168781000Y-129794000D03*
%TD*%
D13*
%TO.C,SW2*%
X169022000Y-106680000D03*
D14*
X166482000Y-106680000D03*
X163942000Y-106680000D03*
%TD*%
D13*
%TO.C,J3*%
X208915000Y-104140000D03*
D14*
X211455000Y-104140000D03*
X213995000Y-104140000D03*
X216535000Y-104140000D03*
%TD*%
D13*
%TO.C,J10B1*%
X150495000Y-132373500D03*
D14*
X153035000Y-132373500D03*
X155575000Y-132373500D03*
X158115000Y-132373500D03*
X160655000Y-132373500D03*
X163195000Y-132373500D03*
X165735000Y-132373500D03*
X168275000Y-132373500D03*
X170815000Y-132373500D03*
%TD*%
D15*
%TO.C,C1*%
X162687000Y-99088000D03*
X162687000Y-102588000D03*
%TD*%
D20*
%TO.C,J9*%
X147574000Y-114935000D03*
D21*
X147574000Y-116935000D03*
X147574000Y-118935000D03*
X147574000Y-120935000D03*
X147574000Y-122935000D03*
X147574000Y-124935000D03*
X147574000Y-126935000D03*
X147574000Y-128935000D03*
X147574000Y-130935000D03*
%TD*%
D13*
%TO.C,J6*%
X211545000Y-120650000D03*
D14*
X214085000Y-120650000D03*
X211545000Y-123190000D03*
X214085000Y-123190000D03*
X211545000Y-125730000D03*
X214085000Y-125730000D03*
X211545000Y-128270000D03*
X214085000Y-128270000D03*
%TD*%
D22*
%TO.C,D1*%
X202585000Y-103155000D03*
D23*
X205125000Y-103155000D03*
%TD*%
D24*
%TO.C,SW1*%
X197505000Y-99735000D03*
X193005000Y-99735000D03*
X198755000Y-102235000D03*
X191755000Y-102235000D03*
%TD*%
D25*
%TO.C,U3*%
X172720000Y-119380000D03*
X172720000Y-116840000D03*
X172720000Y-114300000D03*
X172720000Y-111760000D03*
X175645900Y-112910600D03*
X175645900Y-110370600D03*
X177800000Y-129540000D03*
X175645900Y-123324600D03*
X175645900Y-120784000D03*
X175260000Y-129540000D03*
X187960000Y-104140000D03*
D26*
X187960000Y-101600000D03*
D25*
X187960000Y-111760000D03*
X187960000Y-114300000D03*
X187960000Y-116840000D03*
X187960000Y-119380000D03*
X187960000Y-121920000D03*
X187960000Y-124460000D03*
X187960000Y-127000000D03*
X187960000Y-129540000D03*
X172720000Y-129540000D03*
X172720000Y-127000000D03*
X172720000Y-124460000D03*
X172720000Y-121920000D03*
X187960000Y-109220000D03*
X180340000Y-129540000D03*
X172720000Y-104140000D03*
D26*
X172720000Y-101600000D03*
D25*
X187960000Y-106680000D03*
X172720000Y-106680000D03*
X172720000Y-109220000D03*
%TD*%
D13*
%TO.C,J1*%
X184150000Y-106680000D03*
D14*
X181610000Y-106680000D03*
X179070000Y-106680000D03*
X176530000Y-106680000D03*
%TD*%
D13*
%TO.C,J5*%
X213995000Y-108585000D03*
D14*
X213995000Y-111125000D03*
X213995000Y-113665000D03*
X213995000Y-116205000D03*
%TD*%
D13*
%TO.C,J9B1*%
X145034000Y-112522000D03*
D14*
X145034000Y-115062000D03*
X145034000Y-117602000D03*
X145034000Y-120142000D03*
X145034000Y-122682000D03*
X145034000Y-125222000D03*
X145034000Y-127762000D03*
X145034000Y-130302000D03*
X145034000Y-132842000D03*
%TD*%
D27*
%TO.C,R1*%
X205105000Y-107950000D03*
D28*
X210185000Y-107950000D03*
%TD*%
D13*
%TO.C,J4*%
X139700000Y-108585000D03*
D14*
X139700000Y-111125000D03*
X139700000Y-113665000D03*
X139700000Y-116205000D03*
%TD*%
D13*
%TO.C,J2*%
X208915000Y-132080000D03*
D14*
X211455000Y-132080000D03*
X213995000Y-132080000D03*
X216535000Y-132080000D03*
%TD*%
M02*
