%TF.GenerationSoftware,KiCad,Pcbnew,7.0.7*%
%TF.CreationDate,2023-09-10T17:47:14+02:00*%
%TF.ProjectId,Angle&Ana&Sw,416e676c-6526-4416-9e61-2653772e6b69,1.0*%
%TF.SameCoordinates,Original*%
%TF.FileFunction,AssemblyDrawing,Bot*%
%FSLAX46Y46*%
G04 Gerber Fmt 4.6, Leading zero omitted, Abs format (unit mm)*
G04 Created by KiCad (PCBNEW 7.0.7) date 2023-09-10 17:47:14*
%MOMM*%
%LPD*%
G01*
G04 APERTURE LIST*
%ADD10C,0.100000*%
%ADD11C,0.150000*%
%ADD12C,0.120000*%
%ADD13C,0.108000*%
G04 APERTURE END LIST*
D10*
X218054000Y-132080000D02*
X218054000Y-134600000D01*
X220340000Y-129794000D02*
X222895000Y-129794000D01*
X140330000Y-100711000D02*
G75*
G03*
X142616000Y-98425000I0J2286000D01*
G01*
X142619525Y-132080000D02*
G75*
G03*
X140330000Y-129790475I-2289525J0D01*
G01*
X142619525Y-132080000D02*
X142619525Y-134620000D01*
X140330000Y-100711000D02*
X137795000Y-100711000D01*
X142616000Y-98425000D02*
X142616000Y-95885000D01*
X137795000Y-129794000D02*
X137795000Y-100711000D01*
X220340000Y-100711000D02*
X222880000Y-100711000D01*
X220340000Y-129794000D02*
G75*
G03*
X218054000Y-132080000I0J-2286000D01*
G01*
X218054000Y-98425000D02*
X218054000Y-95885000D01*
X218054000Y-98425000D02*
G75*
G03*
X220340000Y-100711000I2286000J0D01*
G01*
X142616000Y-95885000D02*
X218054000Y-95885000D01*
X222895000Y-100711000D02*
X222895000Y-129794000D01*
X140330000Y-129790475D02*
X137790000Y-129790475D01*
X142619525Y-134620000D02*
X218054000Y-134620000D01*
D11*
X134396811Y-124819580D02*
X134444430Y-124867200D01*
X134444430Y-124867200D02*
X134587287Y-124914819D01*
X134587287Y-124914819D02*
X134682525Y-124914819D01*
X134682525Y-124914819D02*
X134825382Y-124867200D01*
X134825382Y-124867200D02*
X134920620Y-124771961D01*
X134920620Y-124771961D02*
X134968239Y-124676723D01*
X134968239Y-124676723D02*
X135015858Y-124486247D01*
X135015858Y-124486247D02*
X135015858Y-124343390D01*
X135015858Y-124343390D02*
X134968239Y-124152914D01*
X134968239Y-124152914D02*
X134920620Y-124057676D01*
X134920620Y-124057676D02*
X134825382Y-123962438D01*
X134825382Y-123962438D02*
X134682525Y-123914819D01*
X134682525Y-123914819D02*
X134587287Y-123914819D01*
X134587287Y-123914819D02*
X134444430Y-123962438D01*
X134444430Y-123962438D02*
X134396811Y-124010057D01*
X133825382Y-124914819D02*
X133920620Y-124867200D01*
X133920620Y-124867200D02*
X133968239Y-124819580D01*
X133968239Y-124819580D02*
X134015858Y-124724342D01*
X134015858Y-124724342D02*
X134015858Y-124438628D01*
X134015858Y-124438628D02*
X133968239Y-124343390D01*
X133968239Y-124343390D02*
X133920620Y-124295771D01*
X133920620Y-124295771D02*
X133825382Y-124248152D01*
X133825382Y-124248152D02*
X133682525Y-124248152D01*
X133682525Y-124248152D02*
X133587287Y-124295771D01*
X133587287Y-124295771D02*
X133539668Y-124343390D01*
X133539668Y-124343390D02*
X133492049Y-124438628D01*
X133492049Y-124438628D02*
X133492049Y-124724342D01*
X133492049Y-124724342D02*
X133539668Y-124819580D01*
X133539668Y-124819580D02*
X133587287Y-124867200D01*
X133587287Y-124867200D02*
X133682525Y-124914819D01*
X133682525Y-124914819D02*
X133825382Y-124914819D01*
X133063477Y-124248152D02*
X133063477Y-124914819D01*
X133063477Y-124343390D02*
X133015858Y-124295771D01*
X133015858Y-124295771D02*
X132920620Y-124248152D01*
X132920620Y-124248152D02*
X132777763Y-124248152D01*
X132777763Y-124248152D02*
X132682525Y-124295771D01*
X132682525Y-124295771D02*
X132634906Y-124391009D01*
X132634906Y-124391009D02*
X132634906Y-124914819D01*
X132158715Y-124248152D02*
X132158715Y-124914819D01*
X132158715Y-124343390D02*
X132111096Y-124295771D01*
X132111096Y-124295771D02*
X132015858Y-124248152D01*
X132015858Y-124248152D02*
X131873001Y-124248152D01*
X131873001Y-124248152D02*
X131777763Y-124295771D01*
X131777763Y-124295771D02*
X131730144Y-124391009D01*
X131730144Y-124391009D02*
X131730144Y-124914819D01*
X131492049Y-125010057D02*
X130730144Y-125010057D01*
X130158715Y-124391009D02*
X130492048Y-124391009D01*
X130492048Y-124914819D02*
X130492048Y-123914819D01*
X130492048Y-123914819D02*
X130015858Y-123914819D01*
X129634905Y-124914819D02*
X129634905Y-124248152D01*
X129634905Y-124438628D02*
X129587286Y-124343390D01*
X129587286Y-124343390D02*
X129539667Y-124295771D01*
X129539667Y-124295771D02*
X129444429Y-124248152D01*
X129444429Y-124248152D02*
X129349191Y-124248152D01*
X128873000Y-124914819D02*
X128968238Y-124867200D01*
X128968238Y-124867200D02*
X129015857Y-124819580D01*
X129015857Y-124819580D02*
X129063476Y-124724342D01*
X129063476Y-124724342D02*
X129063476Y-124438628D01*
X129063476Y-124438628D02*
X129015857Y-124343390D01*
X129015857Y-124343390D02*
X128968238Y-124295771D01*
X128968238Y-124295771D02*
X128873000Y-124248152D01*
X128873000Y-124248152D02*
X128730143Y-124248152D01*
X128730143Y-124248152D02*
X128634905Y-124295771D01*
X128634905Y-124295771D02*
X128587286Y-124343390D01*
X128587286Y-124343390D02*
X128539667Y-124438628D01*
X128539667Y-124438628D02*
X128539667Y-124724342D01*
X128539667Y-124724342D02*
X128587286Y-124819580D01*
X128587286Y-124819580D02*
X128634905Y-124867200D01*
X128634905Y-124867200D02*
X128730143Y-124914819D01*
X128730143Y-124914819D02*
X128873000Y-124914819D01*
X128111095Y-124914819D02*
X128111095Y-124248152D01*
X128111095Y-124343390D02*
X128063476Y-124295771D01*
X128063476Y-124295771D02*
X127968238Y-124248152D01*
X127968238Y-124248152D02*
X127825381Y-124248152D01*
X127825381Y-124248152D02*
X127730143Y-124295771D01*
X127730143Y-124295771D02*
X127682524Y-124391009D01*
X127682524Y-124391009D02*
X127682524Y-124914819D01*
X127682524Y-124391009D02*
X127634905Y-124295771D01*
X127634905Y-124295771D02*
X127539667Y-124248152D01*
X127539667Y-124248152D02*
X127396810Y-124248152D01*
X127396810Y-124248152D02*
X127301571Y-124295771D01*
X127301571Y-124295771D02*
X127253952Y-124391009D01*
X127253952Y-124391009D02*
X127253952Y-124914819D01*
X126444429Y-124391009D02*
X126301572Y-124438628D01*
X126301572Y-124438628D02*
X126253953Y-124486247D01*
X126253953Y-124486247D02*
X126206334Y-124581485D01*
X126206334Y-124581485D02*
X126206334Y-124724342D01*
X126206334Y-124724342D02*
X126253953Y-124819580D01*
X126253953Y-124819580D02*
X126301572Y-124867200D01*
X126301572Y-124867200D02*
X126396810Y-124914819D01*
X126396810Y-124914819D02*
X126777762Y-124914819D01*
X126777762Y-124914819D02*
X126777762Y-123914819D01*
X126777762Y-123914819D02*
X126444429Y-123914819D01*
X126444429Y-123914819D02*
X126349191Y-123962438D01*
X126349191Y-123962438D02*
X126301572Y-124010057D01*
X126301572Y-124010057D02*
X126253953Y-124105295D01*
X126253953Y-124105295D02*
X126253953Y-124200533D01*
X126253953Y-124200533D02*
X126301572Y-124295771D01*
X126301572Y-124295771D02*
X126349191Y-124343390D01*
X126349191Y-124343390D02*
X126444429Y-124391009D01*
X126444429Y-124391009D02*
X126777762Y-124391009D01*
X125349191Y-124248152D02*
X125349191Y-124914819D01*
X125777762Y-124248152D02*
X125777762Y-124771961D01*
X125777762Y-124771961D02*
X125730143Y-124867200D01*
X125730143Y-124867200D02*
X125634905Y-124914819D01*
X125634905Y-124914819D02*
X125492048Y-124914819D01*
X125492048Y-124914819D02*
X125396810Y-124867200D01*
X125396810Y-124867200D02*
X125349191Y-124819580D01*
X125015857Y-124248152D02*
X124634905Y-124248152D01*
X124873000Y-123914819D02*
X124873000Y-124771961D01*
X124873000Y-124771961D02*
X124825381Y-124867200D01*
X124825381Y-124867200D02*
X124730143Y-124914819D01*
X124730143Y-124914819D02*
X124634905Y-124914819D01*
X124444428Y-124248152D02*
X124063476Y-124248152D01*
X124301571Y-123914819D02*
X124301571Y-124771961D01*
X124301571Y-124771961D02*
X124253952Y-124867200D01*
X124253952Y-124867200D02*
X124158714Y-124914819D01*
X124158714Y-124914819D02*
X124063476Y-124914819D01*
X123587285Y-124914819D02*
X123682523Y-124867200D01*
X123682523Y-124867200D02*
X123730142Y-124819580D01*
X123730142Y-124819580D02*
X123777761Y-124724342D01*
X123777761Y-124724342D02*
X123777761Y-124438628D01*
X123777761Y-124438628D02*
X123730142Y-124343390D01*
X123730142Y-124343390D02*
X123682523Y-124295771D01*
X123682523Y-124295771D02*
X123587285Y-124248152D01*
X123587285Y-124248152D02*
X123444428Y-124248152D01*
X123444428Y-124248152D02*
X123349190Y-124295771D01*
X123349190Y-124295771D02*
X123301571Y-124343390D01*
X123301571Y-124343390D02*
X123253952Y-124438628D01*
X123253952Y-124438628D02*
X123253952Y-124724342D01*
X123253952Y-124724342D02*
X123301571Y-124819580D01*
X123301571Y-124819580D02*
X123349190Y-124867200D01*
X123349190Y-124867200D02*
X123444428Y-124914819D01*
X123444428Y-124914819D02*
X123587285Y-124914819D01*
X122825380Y-124248152D02*
X122825380Y-124914819D01*
X122825380Y-124343390D02*
X122777761Y-124295771D01*
X122777761Y-124295771D02*
X122682523Y-124248152D01*
X122682523Y-124248152D02*
X122539666Y-124248152D01*
X122539666Y-124248152D02*
X122444428Y-124295771D01*
X122444428Y-124295771D02*
X122396809Y-124391009D01*
X122396809Y-124391009D02*
X122396809Y-124914819D01*
X121968237Y-124867200D02*
X121872999Y-124914819D01*
X121872999Y-124914819D02*
X121682523Y-124914819D01*
X121682523Y-124914819D02*
X121587285Y-124867200D01*
X121587285Y-124867200D02*
X121539666Y-124771961D01*
X121539666Y-124771961D02*
X121539666Y-124724342D01*
X121539666Y-124724342D02*
X121587285Y-124629104D01*
X121587285Y-124629104D02*
X121682523Y-124581485D01*
X121682523Y-124581485D02*
X121825380Y-124581485D01*
X121825380Y-124581485D02*
X121920618Y-124533866D01*
X121920618Y-124533866D02*
X121968237Y-124438628D01*
X121968237Y-124438628D02*
X121968237Y-124391009D01*
X121968237Y-124391009D02*
X121920618Y-124295771D01*
X121920618Y-124295771D02*
X121825380Y-124248152D01*
X121825380Y-124248152D02*
X121682523Y-124248152D01*
X121682523Y-124248152D02*
X121587285Y-124295771D01*
X120634904Y-124914819D02*
X121111094Y-124914819D01*
X121111094Y-124914819D02*
X121111094Y-123914819D01*
X119920618Y-124867200D02*
X120015856Y-124914819D01*
X120015856Y-124914819D02*
X120206332Y-124914819D01*
X120206332Y-124914819D02*
X120301570Y-124867200D01*
X120301570Y-124867200D02*
X120349189Y-124771961D01*
X120349189Y-124771961D02*
X120349189Y-124391009D01*
X120349189Y-124391009D02*
X120301570Y-124295771D01*
X120301570Y-124295771D02*
X120206332Y-124248152D01*
X120206332Y-124248152D02*
X120015856Y-124248152D01*
X120015856Y-124248152D02*
X119920618Y-124295771D01*
X119920618Y-124295771D02*
X119872999Y-124391009D01*
X119872999Y-124391009D02*
X119872999Y-124486247D01*
X119872999Y-124486247D02*
X120349189Y-124581485D01*
X119587284Y-124248152D02*
X119206332Y-124248152D01*
X119444427Y-124914819D02*
X119444427Y-124057676D01*
X119444427Y-124057676D02*
X119396808Y-123962438D01*
X119396808Y-123962438D02*
X119301570Y-123914819D01*
X119301570Y-123914819D02*
X119206332Y-123914819D01*
X119015855Y-124248152D02*
X118634903Y-124248152D01*
X118872998Y-123914819D02*
X118872998Y-124771961D01*
X118872998Y-124771961D02*
X118825379Y-124867200D01*
X118825379Y-124867200D02*
X118730141Y-124914819D01*
X118730141Y-124914819D02*
X118634903Y-124914819D01*
X136319819Y-124126666D02*
X137034104Y-124126666D01*
X137034104Y-124126666D02*
X137176961Y-124079047D01*
X137176961Y-124079047D02*
X137272200Y-123983809D01*
X137272200Y-123983809D02*
X137319819Y-123840952D01*
X137319819Y-123840952D02*
X137319819Y-123745714D01*
X136319819Y-124507619D02*
X136319819Y-125174285D01*
X136319819Y-125174285D02*
X137319819Y-124745714D01*
X191129819Y-126762380D02*
X191129819Y-126190952D01*
X191129819Y-126476666D02*
X190129819Y-126476666D01*
X190129819Y-126476666D02*
X190272676Y-126381428D01*
X190272676Y-126381428D02*
X190367914Y-126286190D01*
X190367914Y-126286190D02*
X190415533Y-126190952D01*
X190129819Y-127381428D02*
X190129819Y-127476666D01*
X190129819Y-127476666D02*
X190177438Y-127571904D01*
X190177438Y-127571904D02*
X190225057Y-127619523D01*
X190225057Y-127619523D02*
X190320295Y-127667142D01*
X190320295Y-127667142D02*
X190510771Y-127714761D01*
X190510771Y-127714761D02*
X190748866Y-127714761D01*
X190748866Y-127714761D02*
X190939342Y-127667142D01*
X190939342Y-127667142D02*
X191034580Y-127619523D01*
X191034580Y-127619523D02*
X191082200Y-127571904D01*
X191082200Y-127571904D02*
X191129819Y-127476666D01*
X191129819Y-127476666D02*
X191129819Y-127381428D01*
X191129819Y-127381428D02*
X191082200Y-127286190D01*
X191082200Y-127286190D02*
X191034580Y-127238571D01*
X191034580Y-127238571D02*
X190939342Y-127190952D01*
X190939342Y-127190952D02*
X190748866Y-127143333D01*
X190748866Y-127143333D02*
X190510771Y-127143333D01*
X190510771Y-127143333D02*
X190320295Y-127190952D01*
X190320295Y-127190952D02*
X190225057Y-127238571D01*
X190225057Y-127238571D02*
X190177438Y-127286190D01*
X190177438Y-127286190D02*
X190129819Y-127381428D01*
X190129819Y-128333809D02*
X190129819Y-128429047D01*
X190129819Y-128429047D02*
X190177438Y-128524285D01*
X190177438Y-128524285D02*
X190225057Y-128571904D01*
X190225057Y-128571904D02*
X190320295Y-128619523D01*
X190320295Y-128619523D02*
X190510771Y-128667142D01*
X190510771Y-128667142D02*
X190748866Y-128667142D01*
X190748866Y-128667142D02*
X190939342Y-128619523D01*
X190939342Y-128619523D02*
X191034580Y-128571904D01*
X191034580Y-128571904D02*
X191082200Y-128524285D01*
X191082200Y-128524285D02*
X191129819Y-128429047D01*
X191129819Y-128429047D02*
X191129819Y-128333809D01*
X191129819Y-128333809D02*
X191082200Y-128238571D01*
X191082200Y-128238571D02*
X191034580Y-128190952D01*
X191034580Y-128190952D02*
X190939342Y-128143333D01*
X190939342Y-128143333D02*
X190748866Y-128095714D01*
X190748866Y-128095714D02*
X190510771Y-128095714D01*
X190510771Y-128095714D02*
X190320295Y-128143333D01*
X190320295Y-128143333D02*
X190225057Y-128190952D01*
X190225057Y-128190952D02*
X190177438Y-128238571D01*
X190177438Y-128238571D02*
X190129819Y-128333809D01*
X190463152Y-129095714D02*
X191129819Y-129095714D01*
X190558390Y-129095714D02*
X190510771Y-129143333D01*
X190510771Y-129143333D02*
X190463152Y-129238571D01*
X190463152Y-129238571D02*
X190463152Y-129381428D01*
X190463152Y-129381428D02*
X190510771Y-129476666D01*
X190510771Y-129476666D02*
X190606009Y-129524285D01*
X190606009Y-129524285D02*
X191129819Y-129524285D01*
X190606009Y-130333809D02*
X190606009Y-130000476D01*
X191129819Y-130000476D02*
X190129819Y-130000476D01*
X190129819Y-130000476D02*
X190129819Y-130476666D01*
X194034580Y-128143333D02*
X194082200Y-128095714D01*
X194082200Y-128095714D02*
X194129819Y-127952857D01*
X194129819Y-127952857D02*
X194129819Y-127857619D01*
X194129819Y-127857619D02*
X194082200Y-127714762D01*
X194082200Y-127714762D02*
X193986961Y-127619524D01*
X193986961Y-127619524D02*
X193891723Y-127571905D01*
X193891723Y-127571905D02*
X193701247Y-127524286D01*
X193701247Y-127524286D02*
X193558390Y-127524286D01*
X193558390Y-127524286D02*
X193367914Y-127571905D01*
X193367914Y-127571905D02*
X193272676Y-127619524D01*
X193272676Y-127619524D02*
X193177438Y-127714762D01*
X193177438Y-127714762D02*
X193129819Y-127857619D01*
X193129819Y-127857619D02*
X193129819Y-127952857D01*
X193129819Y-127952857D02*
X193177438Y-128095714D01*
X193177438Y-128095714D02*
X193225057Y-128143333D01*
X193225057Y-128524286D02*
X193177438Y-128571905D01*
X193177438Y-128571905D02*
X193129819Y-128667143D01*
X193129819Y-128667143D02*
X193129819Y-128905238D01*
X193129819Y-128905238D02*
X193177438Y-129000476D01*
X193177438Y-129000476D02*
X193225057Y-129048095D01*
X193225057Y-129048095D02*
X193320295Y-129095714D01*
X193320295Y-129095714D02*
X193415533Y-129095714D01*
X193415533Y-129095714D02*
X193558390Y-129048095D01*
X193558390Y-129048095D02*
X194129819Y-128476667D01*
X194129819Y-128476667D02*
X194129819Y-129095714D01*
X170584619Y-97609819D02*
X171156047Y-97609819D01*
X170870333Y-97609819D02*
X170870333Y-96609819D01*
X170870333Y-96609819D02*
X170965571Y-96752676D01*
X170965571Y-96752676D02*
X171060809Y-96847914D01*
X171060809Y-96847914D02*
X171156047Y-96895533D01*
X169965571Y-96609819D02*
X169870333Y-96609819D01*
X169870333Y-96609819D02*
X169775095Y-96657438D01*
X169775095Y-96657438D02*
X169727476Y-96705057D01*
X169727476Y-96705057D02*
X169679857Y-96800295D01*
X169679857Y-96800295D02*
X169632238Y-96990771D01*
X169632238Y-96990771D02*
X169632238Y-97228866D01*
X169632238Y-97228866D02*
X169679857Y-97419342D01*
X169679857Y-97419342D02*
X169727476Y-97514580D01*
X169727476Y-97514580D02*
X169775095Y-97562200D01*
X169775095Y-97562200D02*
X169870333Y-97609819D01*
X169870333Y-97609819D02*
X169965571Y-97609819D01*
X169965571Y-97609819D02*
X170060809Y-97562200D01*
X170060809Y-97562200D02*
X170108428Y-97514580D01*
X170108428Y-97514580D02*
X170156047Y-97419342D01*
X170156047Y-97419342D02*
X170203666Y-97228866D01*
X170203666Y-97228866D02*
X170203666Y-96990771D01*
X170203666Y-96990771D02*
X170156047Y-96800295D01*
X170156047Y-96800295D02*
X170108428Y-96705057D01*
X170108428Y-96705057D02*
X170060809Y-96657438D01*
X170060809Y-96657438D02*
X169965571Y-96609819D01*
X169013190Y-96609819D02*
X168917952Y-96609819D01*
X168917952Y-96609819D02*
X168822714Y-96657438D01*
X168822714Y-96657438D02*
X168775095Y-96705057D01*
X168775095Y-96705057D02*
X168727476Y-96800295D01*
X168727476Y-96800295D02*
X168679857Y-96990771D01*
X168679857Y-96990771D02*
X168679857Y-97228866D01*
X168679857Y-97228866D02*
X168727476Y-97419342D01*
X168727476Y-97419342D02*
X168775095Y-97514580D01*
X168775095Y-97514580D02*
X168822714Y-97562200D01*
X168822714Y-97562200D02*
X168917952Y-97609819D01*
X168917952Y-97609819D02*
X169013190Y-97609819D01*
X169013190Y-97609819D02*
X169108428Y-97562200D01*
X169108428Y-97562200D02*
X169156047Y-97514580D01*
X169156047Y-97514580D02*
X169203666Y-97419342D01*
X169203666Y-97419342D02*
X169251285Y-97228866D01*
X169251285Y-97228866D02*
X169251285Y-96990771D01*
X169251285Y-96990771D02*
X169203666Y-96800295D01*
X169203666Y-96800295D02*
X169156047Y-96705057D01*
X169156047Y-96705057D02*
X169108428Y-96657438D01*
X169108428Y-96657438D02*
X169013190Y-96609819D01*
X168251285Y-96943152D02*
X168251285Y-97609819D01*
X168251285Y-97038390D02*
X168203666Y-96990771D01*
X168203666Y-96990771D02*
X168108428Y-96943152D01*
X168108428Y-96943152D02*
X167965571Y-96943152D01*
X167965571Y-96943152D02*
X167870333Y-96990771D01*
X167870333Y-96990771D02*
X167822714Y-97086009D01*
X167822714Y-97086009D02*
X167822714Y-97609819D01*
X167013190Y-97086009D02*
X167346523Y-97086009D01*
X167346523Y-97609819D02*
X167346523Y-96609819D01*
X167346523Y-96609819D02*
X166870333Y-96609819D01*
X169396580Y-101306333D02*
X169444200Y-101258714D01*
X169444200Y-101258714D02*
X169491819Y-101115857D01*
X169491819Y-101115857D02*
X169491819Y-101020619D01*
X169491819Y-101020619D02*
X169444200Y-100877762D01*
X169444200Y-100877762D02*
X169348961Y-100782524D01*
X169348961Y-100782524D02*
X169253723Y-100734905D01*
X169253723Y-100734905D02*
X169063247Y-100687286D01*
X169063247Y-100687286D02*
X168920390Y-100687286D01*
X168920390Y-100687286D02*
X168729914Y-100734905D01*
X168729914Y-100734905D02*
X168634676Y-100782524D01*
X168634676Y-100782524D02*
X168539438Y-100877762D01*
X168539438Y-100877762D02*
X168491819Y-101020619D01*
X168491819Y-101020619D02*
X168491819Y-101115857D01*
X168491819Y-101115857D02*
X168539438Y-101258714D01*
X168539438Y-101258714D02*
X168587057Y-101306333D01*
X168491819Y-101639667D02*
X168491819Y-102258714D01*
X168491819Y-102258714D02*
X168872771Y-101925381D01*
X168872771Y-101925381D02*
X168872771Y-102068238D01*
X168872771Y-102068238D02*
X168920390Y-102163476D01*
X168920390Y-102163476D02*
X168968009Y-102211095D01*
X168968009Y-102211095D02*
X169063247Y-102258714D01*
X169063247Y-102258714D02*
X169301342Y-102258714D01*
X169301342Y-102258714D02*
X169396580Y-102211095D01*
X169396580Y-102211095D02*
X169444200Y-102163476D01*
X169444200Y-102163476D02*
X169491819Y-102068238D01*
X169491819Y-102068238D02*
X169491819Y-101782524D01*
X169491819Y-101782524D02*
X169444200Y-101687286D01*
X169444200Y-101687286D02*
X169396580Y-101639667D01*
X207255333Y-129709104D02*
X206779143Y-129709104D01*
X207350571Y-129994819D02*
X207017238Y-128994819D01*
X207017238Y-128994819D02*
X206683905Y-129994819D01*
X206493428Y-128994819D02*
X205922000Y-128994819D01*
X206207714Y-129994819D02*
X206207714Y-128994819D01*
X205731523Y-129328152D02*
X205350571Y-129328152D01*
X205588666Y-128994819D02*
X205588666Y-129851961D01*
X205588666Y-129851961D02*
X205541047Y-129947200D01*
X205541047Y-129947200D02*
X205445809Y-129994819D01*
X205445809Y-129994819D02*
X205350571Y-129994819D01*
X205017237Y-129994819D02*
X205017237Y-129328152D01*
X205017237Y-128994819D02*
X205064856Y-129042438D01*
X205064856Y-129042438D02*
X205017237Y-129090057D01*
X205017237Y-129090057D02*
X204969618Y-129042438D01*
X204969618Y-129042438D02*
X205017237Y-128994819D01*
X205017237Y-128994819D02*
X205017237Y-129090057D01*
X204541047Y-129328152D02*
X204541047Y-129994819D01*
X204541047Y-129423390D02*
X204493428Y-129375771D01*
X204493428Y-129375771D02*
X204398190Y-129328152D01*
X204398190Y-129328152D02*
X204255333Y-129328152D01*
X204255333Y-129328152D02*
X204160095Y-129375771D01*
X204160095Y-129375771D02*
X204112476Y-129471009D01*
X204112476Y-129471009D02*
X204112476Y-129994819D01*
X203731523Y-129328152D02*
X203493428Y-129994819D01*
X203255333Y-129328152D02*
X203493428Y-129994819D01*
X203493428Y-129994819D02*
X203588666Y-130232914D01*
X203588666Y-130232914D02*
X203636285Y-130280533D01*
X203636285Y-130280533D02*
X203731523Y-130328152D01*
X202731523Y-129423390D02*
X202826761Y-129375771D01*
X202826761Y-129375771D02*
X202874380Y-129328152D01*
X202874380Y-129328152D02*
X202921999Y-129232914D01*
X202921999Y-129232914D02*
X202921999Y-129185295D01*
X202921999Y-129185295D02*
X202874380Y-129090057D01*
X202874380Y-129090057D02*
X202826761Y-129042438D01*
X202826761Y-129042438D02*
X202731523Y-128994819D01*
X202731523Y-128994819D02*
X202541047Y-128994819D01*
X202541047Y-128994819D02*
X202445809Y-129042438D01*
X202445809Y-129042438D02*
X202398190Y-129090057D01*
X202398190Y-129090057D02*
X202350571Y-129185295D01*
X202350571Y-129185295D02*
X202350571Y-129232914D01*
X202350571Y-129232914D02*
X202398190Y-129328152D01*
X202398190Y-129328152D02*
X202445809Y-129375771D01*
X202445809Y-129375771D02*
X202541047Y-129423390D01*
X202541047Y-129423390D02*
X202731523Y-129423390D01*
X202731523Y-129423390D02*
X202826761Y-129471009D01*
X202826761Y-129471009D02*
X202874380Y-129518628D01*
X202874380Y-129518628D02*
X202921999Y-129613866D01*
X202921999Y-129613866D02*
X202921999Y-129804342D01*
X202921999Y-129804342D02*
X202874380Y-129899580D01*
X202874380Y-129899580D02*
X202826761Y-129947200D01*
X202826761Y-129947200D02*
X202731523Y-129994819D01*
X202731523Y-129994819D02*
X202541047Y-129994819D01*
X202541047Y-129994819D02*
X202445809Y-129947200D01*
X202445809Y-129947200D02*
X202398190Y-129899580D01*
X202398190Y-129899580D02*
X202350571Y-129804342D01*
X202350571Y-129804342D02*
X202350571Y-129613866D01*
X202350571Y-129613866D02*
X202398190Y-129518628D01*
X202398190Y-129518628D02*
X202445809Y-129471009D01*
X202445809Y-129471009D02*
X202541047Y-129423390D01*
X201445809Y-128994819D02*
X201921999Y-128994819D01*
X201921999Y-128994819D02*
X201969618Y-129471009D01*
X201969618Y-129471009D02*
X201921999Y-129423390D01*
X201921999Y-129423390D02*
X201826761Y-129375771D01*
X201826761Y-129375771D02*
X201588666Y-129375771D01*
X201588666Y-129375771D02*
X201493428Y-129423390D01*
X201493428Y-129423390D02*
X201445809Y-129471009D01*
X201445809Y-129471009D02*
X201398190Y-129566247D01*
X201398190Y-129566247D02*
X201398190Y-129804342D01*
X201398190Y-129804342D02*
X201445809Y-129899580D01*
X201445809Y-129899580D02*
X201493428Y-129947200D01*
X201493428Y-129947200D02*
X201588666Y-129994819D01*
X201588666Y-129994819D02*
X201826761Y-129994819D01*
X201826761Y-129994819D02*
X201921999Y-129947200D01*
X201921999Y-129947200D02*
X201969618Y-129899580D01*
X201207714Y-130090057D02*
X200445809Y-130090057D01*
X199683904Y-129994819D02*
X200255332Y-129994819D01*
X199969618Y-129994819D02*
X199969618Y-128994819D01*
X199969618Y-128994819D02*
X200064856Y-129137676D01*
X200064856Y-129137676D02*
X200160094Y-129232914D01*
X200160094Y-129232914D02*
X200255332Y-129280533D01*
X198826761Y-128994819D02*
X199017237Y-128994819D01*
X199017237Y-128994819D02*
X199112475Y-129042438D01*
X199112475Y-129042438D02*
X199160094Y-129090057D01*
X199160094Y-129090057D02*
X199255332Y-129232914D01*
X199255332Y-129232914D02*
X199302951Y-129423390D01*
X199302951Y-129423390D02*
X199302951Y-129804342D01*
X199302951Y-129804342D02*
X199255332Y-129899580D01*
X199255332Y-129899580D02*
X199207713Y-129947200D01*
X199207713Y-129947200D02*
X199112475Y-129994819D01*
X199112475Y-129994819D02*
X198921999Y-129994819D01*
X198921999Y-129994819D02*
X198826761Y-129947200D01*
X198826761Y-129947200D02*
X198779142Y-129899580D01*
X198779142Y-129899580D02*
X198731523Y-129804342D01*
X198731523Y-129804342D02*
X198731523Y-129566247D01*
X198731523Y-129566247D02*
X198779142Y-129471009D01*
X198779142Y-129471009D02*
X198826761Y-129423390D01*
X198826761Y-129423390D02*
X198921999Y-129375771D01*
X198921999Y-129375771D02*
X199112475Y-129375771D01*
X199112475Y-129375771D02*
X199207713Y-129423390D01*
X199207713Y-129423390D02*
X199255332Y-129471009D01*
X199255332Y-129471009D02*
X199302951Y-129566247D01*
X198302951Y-129994819D02*
X198302951Y-128994819D01*
X198302951Y-128994819D02*
X197969618Y-129709104D01*
X197969618Y-129709104D02*
X197636285Y-128994819D01*
X197636285Y-128994819D02*
X197636285Y-129994819D01*
X197160094Y-129994819D02*
X197160094Y-128994819D01*
X197160094Y-129471009D02*
X196588666Y-129471009D01*
X196588666Y-129994819D02*
X196588666Y-128994819D01*
X196207713Y-128994819D02*
X195541047Y-128994819D01*
X195541047Y-128994819D02*
X196207713Y-129994819D01*
X196207713Y-129994819D02*
X195541047Y-129994819D01*
X201929904Y-127089819D02*
X201929904Y-127899342D01*
X201929904Y-127899342D02*
X201882285Y-127994580D01*
X201882285Y-127994580D02*
X201834666Y-128042200D01*
X201834666Y-128042200D02*
X201739428Y-128089819D01*
X201739428Y-128089819D02*
X201548952Y-128089819D01*
X201548952Y-128089819D02*
X201453714Y-128042200D01*
X201453714Y-128042200D02*
X201406095Y-127994580D01*
X201406095Y-127994580D02*
X201358476Y-127899342D01*
X201358476Y-127899342D02*
X201358476Y-127089819D01*
X200358476Y-128089819D02*
X200929904Y-128089819D01*
X200644190Y-128089819D02*
X200644190Y-127089819D01*
X200644190Y-127089819D02*
X200739428Y-127232676D01*
X200739428Y-127232676D02*
X200834666Y-127327914D01*
X200834666Y-127327914D02*
X200929904Y-127375533D01*
X166971477Y-126153580D02*
X167019096Y-126201200D01*
X167019096Y-126201200D02*
X167161953Y-126248819D01*
X167161953Y-126248819D02*
X167257191Y-126248819D01*
X167257191Y-126248819D02*
X167400048Y-126201200D01*
X167400048Y-126201200D02*
X167495286Y-126105961D01*
X167495286Y-126105961D02*
X167542905Y-126010723D01*
X167542905Y-126010723D02*
X167590524Y-125820247D01*
X167590524Y-125820247D02*
X167590524Y-125677390D01*
X167590524Y-125677390D02*
X167542905Y-125486914D01*
X167542905Y-125486914D02*
X167495286Y-125391676D01*
X167495286Y-125391676D02*
X167400048Y-125296438D01*
X167400048Y-125296438D02*
X167257191Y-125248819D01*
X167257191Y-125248819D02*
X167161953Y-125248819D01*
X167161953Y-125248819D02*
X167019096Y-125296438D01*
X167019096Y-125296438D02*
X166971477Y-125344057D01*
X166400048Y-126248819D02*
X166495286Y-126201200D01*
X166495286Y-126201200D02*
X166542905Y-126153580D01*
X166542905Y-126153580D02*
X166590524Y-126058342D01*
X166590524Y-126058342D02*
X166590524Y-125772628D01*
X166590524Y-125772628D02*
X166542905Y-125677390D01*
X166542905Y-125677390D02*
X166495286Y-125629771D01*
X166495286Y-125629771D02*
X166400048Y-125582152D01*
X166400048Y-125582152D02*
X166257191Y-125582152D01*
X166257191Y-125582152D02*
X166161953Y-125629771D01*
X166161953Y-125629771D02*
X166114334Y-125677390D01*
X166114334Y-125677390D02*
X166066715Y-125772628D01*
X166066715Y-125772628D02*
X166066715Y-126058342D01*
X166066715Y-126058342D02*
X166114334Y-126153580D01*
X166114334Y-126153580D02*
X166161953Y-126201200D01*
X166161953Y-126201200D02*
X166257191Y-126248819D01*
X166257191Y-126248819D02*
X166400048Y-126248819D01*
X165638143Y-125582152D02*
X165638143Y-126248819D01*
X165638143Y-125677390D02*
X165590524Y-125629771D01*
X165590524Y-125629771D02*
X165495286Y-125582152D01*
X165495286Y-125582152D02*
X165352429Y-125582152D01*
X165352429Y-125582152D02*
X165257191Y-125629771D01*
X165257191Y-125629771D02*
X165209572Y-125725009D01*
X165209572Y-125725009D02*
X165209572Y-126248819D01*
X164733381Y-125582152D02*
X164733381Y-126248819D01*
X164733381Y-125677390D02*
X164685762Y-125629771D01*
X164685762Y-125629771D02*
X164590524Y-125582152D01*
X164590524Y-125582152D02*
X164447667Y-125582152D01*
X164447667Y-125582152D02*
X164352429Y-125629771D01*
X164352429Y-125629771D02*
X164304810Y-125725009D01*
X164304810Y-125725009D02*
X164304810Y-126248819D01*
X164066715Y-126344057D02*
X163304810Y-126344057D01*
X162733381Y-125725009D02*
X162590524Y-125772628D01*
X162590524Y-125772628D02*
X162542905Y-125820247D01*
X162542905Y-125820247D02*
X162495286Y-125915485D01*
X162495286Y-125915485D02*
X162495286Y-126058342D01*
X162495286Y-126058342D02*
X162542905Y-126153580D01*
X162542905Y-126153580D02*
X162590524Y-126201200D01*
X162590524Y-126201200D02*
X162685762Y-126248819D01*
X162685762Y-126248819D02*
X163066714Y-126248819D01*
X163066714Y-126248819D02*
X163066714Y-125248819D01*
X163066714Y-125248819D02*
X162733381Y-125248819D01*
X162733381Y-125248819D02*
X162638143Y-125296438D01*
X162638143Y-125296438D02*
X162590524Y-125344057D01*
X162590524Y-125344057D02*
X162542905Y-125439295D01*
X162542905Y-125439295D02*
X162542905Y-125534533D01*
X162542905Y-125534533D02*
X162590524Y-125629771D01*
X162590524Y-125629771D02*
X162638143Y-125677390D01*
X162638143Y-125677390D02*
X162733381Y-125725009D01*
X162733381Y-125725009D02*
X163066714Y-125725009D01*
X161638143Y-125582152D02*
X161638143Y-126248819D01*
X162066714Y-125582152D02*
X162066714Y-126105961D01*
X162066714Y-126105961D02*
X162019095Y-126201200D01*
X162019095Y-126201200D02*
X161923857Y-126248819D01*
X161923857Y-126248819D02*
X161781000Y-126248819D01*
X161781000Y-126248819D02*
X161685762Y-126201200D01*
X161685762Y-126201200D02*
X161638143Y-126153580D01*
X161304809Y-125582152D02*
X160923857Y-125582152D01*
X161161952Y-125248819D02*
X161161952Y-126105961D01*
X161161952Y-126105961D02*
X161114333Y-126201200D01*
X161114333Y-126201200D02*
X161019095Y-126248819D01*
X161019095Y-126248819D02*
X160923857Y-126248819D01*
X160733380Y-125582152D02*
X160352428Y-125582152D01*
X160590523Y-125248819D02*
X160590523Y-126105961D01*
X160590523Y-126105961D02*
X160542904Y-126201200D01*
X160542904Y-126201200D02*
X160447666Y-126248819D01*
X160447666Y-126248819D02*
X160352428Y-126248819D01*
X159876237Y-126248819D02*
X159971475Y-126201200D01*
X159971475Y-126201200D02*
X160019094Y-126153580D01*
X160019094Y-126153580D02*
X160066713Y-126058342D01*
X160066713Y-126058342D02*
X160066713Y-125772628D01*
X160066713Y-125772628D02*
X160019094Y-125677390D01*
X160019094Y-125677390D02*
X159971475Y-125629771D01*
X159971475Y-125629771D02*
X159876237Y-125582152D01*
X159876237Y-125582152D02*
X159733380Y-125582152D01*
X159733380Y-125582152D02*
X159638142Y-125629771D01*
X159638142Y-125629771D02*
X159590523Y-125677390D01*
X159590523Y-125677390D02*
X159542904Y-125772628D01*
X159542904Y-125772628D02*
X159542904Y-126058342D01*
X159542904Y-126058342D02*
X159590523Y-126153580D01*
X159590523Y-126153580D02*
X159638142Y-126201200D01*
X159638142Y-126201200D02*
X159733380Y-126248819D01*
X159733380Y-126248819D02*
X159876237Y-126248819D01*
X159114332Y-125582152D02*
X159114332Y-126248819D01*
X159114332Y-125677390D02*
X159066713Y-125629771D01*
X159066713Y-125629771D02*
X158971475Y-125582152D01*
X158971475Y-125582152D02*
X158828618Y-125582152D01*
X158828618Y-125582152D02*
X158733380Y-125629771D01*
X158733380Y-125629771D02*
X158685761Y-125725009D01*
X158685761Y-125725009D02*
X158685761Y-126248819D01*
X158257189Y-126201200D02*
X158161951Y-126248819D01*
X158161951Y-126248819D02*
X157971475Y-126248819D01*
X157971475Y-126248819D02*
X157876237Y-126201200D01*
X157876237Y-126201200D02*
X157828618Y-126105961D01*
X157828618Y-126105961D02*
X157828618Y-126058342D01*
X157828618Y-126058342D02*
X157876237Y-125963104D01*
X157876237Y-125963104D02*
X157971475Y-125915485D01*
X157971475Y-125915485D02*
X158114332Y-125915485D01*
X158114332Y-125915485D02*
X158209570Y-125867866D01*
X158209570Y-125867866D02*
X158257189Y-125772628D01*
X158257189Y-125772628D02*
X158257189Y-125725009D01*
X158257189Y-125725009D02*
X158209570Y-125629771D01*
X158209570Y-125629771D02*
X158114332Y-125582152D01*
X158114332Y-125582152D02*
X157971475Y-125582152D01*
X157971475Y-125582152D02*
X157876237Y-125629771D01*
X156828618Y-126248819D02*
X157161951Y-125772628D01*
X157400046Y-126248819D02*
X157400046Y-125248819D01*
X157400046Y-125248819D02*
X157019094Y-125248819D01*
X157019094Y-125248819D02*
X156923856Y-125296438D01*
X156923856Y-125296438D02*
X156876237Y-125344057D01*
X156876237Y-125344057D02*
X156828618Y-125439295D01*
X156828618Y-125439295D02*
X156828618Y-125582152D01*
X156828618Y-125582152D02*
X156876237Y-125677390D01*
X156876237Y-125677390D02*
X156923856Y-125725009D01*
X156923856Y-125725009D02*
X157019094Y-125772628D01*
X157019094Y-125772628D02*
X157400046Y-125772628D01*
X156400046Y-126248819D02*
X156400046Y-125582152D01*
X156400046Y-125248819D02*
X156447665Y-125296438D01*
X156447665Y-125296438D02*
X156400046Y-125344057D01*
X156400046Y-125344057D02*
X156352427Y-125296438D01*
X156352427Y-125296438D02*
X156400046Y-125248819D01*
X156400046Y-125248819D02*
X156400046Y-125344057D01*
X155495285Y-125582152D02*
X155495285Y-126391676D01*
X155495285Y-126391676D02*
X155542904Y-126486914D01*
X155542904Y-126486914D02*
X155590523Y-126534533D01*
X155590523Y-126534533D02*
X155685761Y-126582152D01*
X155685761Y-126582152D02*
X155828618Y-126582152D01*
X155828618Y-126582152D02*
X155923856Y-126534533D01*
X155495285Y-126201200D02*
X155590523Y-126248819D01*
X155590523Y-126248819D02*
X155780999Y-126248819D01*
X155780999Y-126248819D02*
X155876237Y-126201200D01*
X155876237Y-126201200D02*
X155923856Y-126153580D01*
X155923856Y-126153580D02*
X155971475Y-126058342D01*
X155971475Y-126058342D02*
X155971475Y-125772628D01*
X155971475Y-125772628D02*
X155923856Y-125677390D01*
X155923856Y-125677390D02*
X155876237Y-125629771D01*
X155876237Y-125629771D02*
X155780999Y-125582152D01*
X155780999Y-125582152D02*
X155590523Y-125582152D01*
X155590523Y-125582152D02*
X155495285Y-125629771D01*
X155019094Y-126248819D02*
X155019094Y-125248819D01*
X154590523Y-126248819D02*
X154590523Y-125725009D01*
X154590523Y-125725009D02*
X154638142Y-125629771D01*
X154638142Y-125629771D02*
X154733380Y-125582152D01*
X154733380Y-125582152D02*
X154876237Y-125582152D01*
X154876237Y-125582152D02*
X154971475Y-125629771D01*
X154971475Y-125629771D02*
X155019094Y-125677390D01*
X154257189Y-125582152D02*
X153876237Y-125582152D01*
X154114332Y-125248819D02*
X154114332Y-126105961D01*
X154114332Y-126105961D02*
X154066713Y-126201200D01*
X154066713Y-126201200D02*
X153971475Y-126248819D01*
X153971475Y-126248819D02*
X153876237Y-126248819D01*
X161590523Y-127748819D02*
X161590523Y-128463104D01*
X161590523Y-128463104D02*
X161638142Y-128605961D01*
X161638142Y-128605961D02*
X161733380Y-128701200D01*
X161733380Y-128701200D02*
X161876237Y-128748819D01*
X161876237Y-128748819D02*
X161971475Y-128748819D01*
X160590523Y-128748819D02*
X161161951Y-128748819D01*
X160876237Y-128748819D02*
X160876237Y-127748819D01*
X160876237Y-127748819D02*
X160971475Y-127891676D01*
X160971475Y-127891676D02*
X161066713Y-127986914D01*
X161066713Y-127986914D02*
X161161951Y-128034533D01*
X159971475Y-127748819D02*
X159876237Y-127748819D01*
X159876237Y-127748819D02*
X159780999Y-127796438D01*
X159780999Y-127796438D02*
X159733380Y-127844057D01*
X159733380Y-127844057D02*
X159685761Y-127939295D01*
X159685761Y-127939295D02*
X159638142Y-128129771D01*
X159638142Y-128129771D02*
X159638142Y-128367866D01*
X159638142Y-128367866D02*
X159685761Y-128558342D01*
X159685761Y-128558342D02*
X159733380Y-128653580D01*
X159733380Y-128653580D02*
X159780999Y-128701200D01*
X159780999Y-128701200D02*
X159876237Y-128748819D01*
X159876237Y-128748819D02*
X159971475Y-128748819D01*
X159971475Y-128748819D02*
X160066713Y-128701200D01*
X160066713Y-128701200D02*
X160114332Y-128653580D01*
X160114332Y-128653580D02*
X160161951Y-128558342D01*
X160161951Y-128558342D02*
X160209570Y-128367866D01*
X160209570Y-128367866D02*
X160209570Y-128129771D01*
X160209570Y-128129771D02*
X160161951Y-127939295D01*
X160161951Y-127939295D02*
X160114332Y-127844057D01*
X160114332Y-127844057D02*
X160066713Y-127796438D01*
X160066713Y-127796438D02*
X159971475Y-127748819D01*
X170155713Y-109500200D02*
X170012856Y-109547819D01*
X170012856Y-109547819D02*
X169774761Y-109547819D01*
X169774761Y-109547819D02*
X169679523Y-109500200D01*
X169679523Y-109500200D02*
X169631904Y-109452580D01*
X169631904Y-109452580D02*
X169584285Y-109357342D01*
X169584285Y-109357342D02*
X169584285Y-109262104D01*
X169584285Y-109262104D02*
X169631904Y-109166866D01*
X169631904Y-109166866D02*
X169679523Y-109119247D01*
X169679523Y-109119247D02*
X169774761Y-109071628D01*
X169774761Y-109071628D02*
X169965237Y-109024009D01*
X169965237Y-109024009D02*
X170060475Y-108976390D01*
X170060475Y-108976390D02*
X170108094Y-108928771D01*
X170108094Y-108928771D02*
X170155713Y-108833533D01*
X170155713Y-108833533D02*
X170155713Y-108738295D01*
X170155713Y-108738295D02*
X170108094Y-108643057D01*
X170108094Y-108643057D02*
X170060475Y-108595438D01*
X170060475Y-108595438D02*
X169965237Y-108547819D01*
X169965237Y-108547819D02*
X169727142Y-108547819D01*
X169727142Y-108547819D02*
X169584285Y-108595438D01*
X169250951Y-108547819D02*
X169012856Y-109547819D01*
X169012856Y-109547819D02*
X168822380Y-108833533D01*
X168822380Y-108833533D02*
X168631904Y-109547819D01*
X168631904Y-109547819D02*
X168393809Y-108547819D01*
X168250952Y-109643057D02*
X167489047Y-109643057D01*
X167250951Y-109547819D02*
X167250951Y-108547819D01*
X167250951Y-108547819D02*
X166869999Y-108547819D01*
X166869999Y-108547819D02*
X166774761Y-108595438D01*
X166774761Y-108595438D02*
X166727142Y-108643057D01*
X166727142Y-108643057D02*
X166679523Y-108738295D01*
X166679523Y-108738295D02*
X166679523Y-108881152D01*
X166679523Y-108881152D02*
X166727142Y-108976390D01*
X166727142Y-108976390D02*
X166774761Y-109024009D01*
X166774761Y-109024009D02*
X166869999Y-109071628D01*
X166869999Y-109071628D02*
X167250951Y-109071628D01*
X166060475Y-108547819D02*
X165869999Y-108547819D01*
X165869999Y-108547819D02*
X165774761Y-108595438D01*
X165774761Y-108595438D02*
X165679523Y-108690676D01*
X165679523Y-108690676D02*
X165631904Y-108881152D01*
X165631904Y-108881152D02*
X165631904Y-109214485D01*
X165631904Y-109214485D02*
X165679523Y-109404961D01*
X165679523Y-109404961D02*
X165774761Y-109500200D01*
X165774761Y-109500200D02*
X165869999Y-109547819D01*
X165869999Y-109547819D02*
X166060475Y-109547819D01*
X166060475Y-109547819D02*
X166155713Y-109500200D01*
X166155713Y-109500200D02*
X166250951Y-109404961D01*
X166250951Y-109404961D02*
X166298570Y-109214485D01*
X166298570Y-109214485D02*
X166298570Y-108881152D01*
X166298570Y-108881152D02*
X166250951Y-108690676D01*
X166250951Y-108690676D02*
X166155713Y-108595438D01*
X166155713Y-108595438D02*
X166060475Y-108547819D01*
X165298570Y-108547819D02*
X165060475Y-109547819D01*
X165060475Y-109547819D02*
X164869999Y-108833533D01*
X164869999Y-108833533D02*
X164679523Y-109547819D01*
X164679523Y-109547819D02*
X164441428Y-108547819D01*
X164060475Y-109024009D02*
X163727142Y-109024009D01*
X163584285Y-109547819D02*
X164060475Y-109547819D01*
X164060475Y-109547819D02*
X164060475Y-108547819D01*
X164060475Y-108547819D02*
X163584285Y-108547819D01*
X162584285Y-109547819D02*
X162917618Y-109071628D01*
X163155713Y-109547819D02*
X163155713Y-108547819D01*
X163155713Y-108547819D02*
X162774761Y-108547819D01*
X162774761Y-108547819D02*
X162679523Y-108595438D01*
X162679523Y-108595438D02*
X162631904Y-108643057D01*
X162631904Y-108643057D02*
X162584285Y-108738295D01*
X162584285Y-108738295D02*
X162584285Y-108881152D01*
X162584285Y-108881152D02*
X162631904Y-108976390D01*
X162631904Y-108976390D02*
X162679523Y-109024009D01*
X162679523Y-109024009D02*
X162774761Y-109071628D01*
X162774761Y-109071628D02*
X163155713Y-109071628D01*
X167815332Y-107087200D02*
X167672475Y-107134819D01*
X167672475Y-107134819D02*
X167434380Y-107134819D01*
X167434380Y-107134819D02*
X167339142Y-107087200D01*
X167339142Y-107087200D02*
X167291523Y-107039580D01*
X167291523Y-107039580D02*
X167243904Y-106944342D01*
X167243904Y-106944342D02*
X167243904Y-106849104D01*
X167243904Y-106849104D02*
X167291523Y-106753866D01*
X167291523Y-106753866D02*
X167339142Y-106706247D01*
X167339142Y-106706247D02*
X167434380Y-106658628D01*
X167434380Y-106658628D02*
X167624856Y-106611009D01*
X167624856Y-106611009D02*
X167720094Y-106563390D01*
X167720094Y-106563390D02*
X167767713Y-106515771D01*
X167767713Y-106515771D02*
X167815332Y-106420533D01*
X167815332Y-106420533D02*
X167815332Y-106325295D01*
X167815332Y-106325295D02*
X167767713Y-106230057D01*
X167767713Y-106230057D02*
X167720094Y-106182438D01*
X167720094Y-106182438D02*
X167624856Y-106134819D01*
X167624856Y-106134819D02*
X167386761Y-106134819D01*
X167386761Y-106134819D02*
X167243904Y-106182438D01*
X166910570Y-106134819D02*
X166672475Y-107134819D01*
X166672475Y-107134819D02*
X166481999Y-106420533D01*
X166481999Y-106420533D02*
X166291523Y-107134819D01*
X166291523Y-107134819D02*
X166053428Y-106134819D01*
X165720094Y-106230057D02*
X165672475Y-106182438D01*
X165672475Y-106182438D02*
X165577237Y-106134819D01*
X165577237Y-106134819D02*
X165339142Y-106134819D01*
X165339142Y-106134819D02*
X165243904Y-106182438D01*
X165243904Y-106182438D02*
X165196285Y-106230057D01*
X165196285Y-106230057D02*
X165148666Y-106325295D01*
X165148666Y-106325295D02*
X165148666Y-106420533D01*
X165148666Y-106420533D02*
X165196285Y-106563390D01*
X165196285Y-106563390D02*
X165767713Y-107134819D01*
X165767713Y-107134819D02*
X165148666Y-107134819D01*
X216288808Y-100829819D02*
X216288808Y-99829819D01*
X215860237Y-99925057D02*
X215812618Y-99877438D01*
X215812618Y-99877438D02*
X215717380Y-99829819D01*
X215717380Y-99829819D02*
X215479285Y-99829819D01*
X215479285Y-99829819D02*
X215384047Y-99877438D01*
X215384047Y-99877438D02*
X215336428Y-99925057D01*
X215336428Y-99925057D02*
X215288809Y-100020295D01*
X215288809Y-100020295D02*
X215288809Y-100115533D01*
X215288809Y-100115533D02*
X215336428Y-100258390D01*
X215336428Y-100258390D02*
X215907856Y-100829819D01*
X215907856Y-100829819D02*
X215288809Y-100829819D01*
X214288809Y-100734580D02*
X214336428Y-100782200D01*
X214336428Y-100782200D02*
X214479285Y-100829819D01*
X214479285Y-100829819D02*
X214574523Y-100829819D01*
X214574523Y-100829819D02*
X214717380Y-100782200D01*
X214717380Y-100782200D02*
X214812618Y-100686961D01*
X214812618Y-100686961D02*
X214860237Y-100591723D01*
X214860237Y-100591723D02*
X214907856Y-100401247D01*
X214907856Y-100401247D02*
X214907856Y-100258390D01*
X214907856Y-100258390D02*
X214860237Y-100067914D01*
X214860237Y-100067914D02*
X214812618Y-99972676D01*
X214812618Y-99972676D02*
X214717380Y-99877438D01*
X214717380Y-99877438D02*
X214574523Y-99829819D01*
X214574523Y-99829819D02*
X214479285Y-99829819D01*
X214479285Y-99829819D02*
X214336428Y-99877438D01*
X214336428Y-99877438D02*
X214288809Y-99925057D01*
X214098333Y-100925057D02*
X213336428Y-100925057D01*
X213098332Y-100829819D02*
X213098332Y-99829819D01*
X212622142Y-100829819D02*
X212622142Y-99829819D01*
X212622142Y-99829819D02*
X212050714Y-100829819D01*
X212050714Y-100829819D02*
X212050714Y-99829819D01*
X211574523Y-100829819D02*
X211574523Y-99829819D01*
X211574523Y-99829819D02*
X211193571Y-99829819D01*
X211193571Y-99829819D02*
X211098333Y-99877438D01*
X211098333Y-99877438D02*
X211050714Y-99925057D01*
X211050714Y-99925057D02*
X211003095Y-100020295D01*
X211003095Y-100020295D02*
X211003095Y-100163152D01*
X211003095Y-100163152D02*
X211050714Y-100258390D01*
X211050714Y-100258390D02*
X211098333Y-100306009D01*
X211098333Y-100306009D02*
X211193571Y-100353628D01*
X211193571Y-100353628D02*
X211574523Y-100353628D01*
X210574523Y-99829819D02*
X210574523Y-100639342D01*
X210574523Y-100639342D02*
X210526904Y-100734580D01*
X210526904Y-100734580D02*
X210479285Y-100782200D01*
X210479285Y-100782200D02*
X210384047Y-100829819D01*
X210384047Y-100829819D02*
X210193571Y-100829819D01*
X210193571Y-100829819D02*
X210098333Y-100782200D01*
X210098333Y-100782200D02*
X210050714Y-100734580D01*
X210050714Y-100734580D02*
X210003095Y-100639342D01*
X210003095Y-100639342D02*
X210003095Y-99829819D01*
X209669761Y-99829819D02*
X209098333Y-99829819D01*
X209384047Y-100829819D02*
X209384047Y-99829819D01*
X213058333Y-97819819D02*
X213058333Y-98534104D01*
X213058333Y-98534104D02*
X213105952Y-98676961D01*
X213105952Y-98676961D02*
X213201190Y-98772200D01*
X213201190Y-98772200D02*
X213344047Y-98819819D01*
X213344047Y-98819819D02*
X213439285Y-98819819D01*
X212677380Y-97819819D02*
X212058333Y-97819819D01*
X212058333Y-97819819D02*
X212391666Y-98200771D01*
X212391666Y-98200771D02*
X212248809Y-98200771D01*
X212248809Y-98200771D02*
X212153571Y-98248390D01*
X212153571Y-98248390D02*
X212105952Y-98296009D01*
X212105952Y-98296009D02*
X212058333Y-98391247D01*
X212058333Y-98391247D02*
X212058333Y-98629342D01*
X212058333Y-98629342D02*
X212105952Y-98724580D01*
X212105952Y-98724580D02*
X212153571Y-98772200D01*
X212153571Y-98772200D02*
X212248809Y-98819819D01*
X212248809Y-98819819D02*
X212534523Y-98819819D01*
X212534523Y-98819819D02*
X212629761Y-98772200D01*
X212629761Y-98772200D02*
X212677380Y-98724580D01*
X173504580Y-126183022D02*
X173552200Y-126135403D01*
X173552200Y-126135403D02*
X173599819Y-125992546D01*
X173599819Y-125992546D02*
X173599819Y-125897308D01*
X173599819Y-125897308D02*
X173552200Y-125754451D01*
X173552200Y-125754451D02*
X173456961Y-125659213D01*
X173456961Y-125659213D02*
X173361723Y-125611594D01*
X173361723Y-125611594D02*
X173171247Y-125563975D01*
X173171247Y-125563975D02*
X173028390Y-125563975D01*
X173028390Y-125563975D02*
X172837914Y-125611594D01*
X172837914Y-125611594D02*
X172742676Y-125659213D01*
X172742676Y-125659213D02*
X172647438Y-125754451D01*
X172647438Y-125754451D02*
X172599819Y-125897308D01*
X172599819Y-125897308D02*
X172599819Y-125992546D01*
X172599819Y-125992546D02*
X172647438Y-126135403D01*
X172647438Y-126135403D02*
X172695057Y-126183022D01*
X173599819Y-126754451D02*
X173552200Y-126659213D01*
X173552200Y-126659213D02*
X173504580Y-126611594D01*
X173504580Y-126611594D02*
X173409342Y-126563975D01*
X173409342Y-126563975D02*
X173123628Y-126563975D01*
X173123628Y-126563975D02*
X173028390Y-126611594D01*
X173028390Y-126611594D02*
X172980771Y-126659213D01*
X172980771Y-126659213D02*
X172933152Y-126754451D01*
X172933152Y-126754451D02*
X172933152Y-126897308D01*
X172933152Y-126897308D02*
X172980771Y-126992546D01*
X172980771Y-126992546D02*
X173028390Y-127040165D01*
X173028390Y-127040165D02*
X173123628Y-127087784D01*
X173123628Y-127087784D02*
X173409342Y-127087784D01*
X173409342Y-127087784D02*
X173504580Y-127040165D01*
X173504580Y-127040165D02*
X173552200Y-126992546D01*
X173552200Y-126992546D02*
X173599819Y-126897308D01*
X173599819Y-126897308D02*
X173599819Y-126754451D01*
X172933152Y-127516356D02*
X173599819Y-127516356D01*
X173028390Y-127516356D02*
X172980771Y-127563975D01*
X172980771Y-127563975D02*
X172933152Y-127659213D01*
X172933152Y-127659213D02*
X172933152Y-127802070D01*
X172933152Y-127802070D02*
X172980771Y-127897308D01*
X172980771Y-127897308D02*
X173076009Y-127944927D01*
X173076009Y-127944927D02*
X173599819Y-127944927D01*
X172933152Y-128421118D02*
X173599819Y-128421118D01*
X173028390Y-128421118D02*
X172980771Y-128468737D01*
X172980771Y-128468737D02*
X172933152Y-128563975D01*
X172933152Y-128563975D02*
X172933152Y-128706832D01*
X172933152Y-128706832D02*
X172980771Y-128802070D01*
X172980771Y-128802070D02*
X173076009Y-128849689D01*
X173076009Y-128849689D02*
X173599819Y-128849689D01*
X173695057Y-129087785D02*
X173695057Y-129849689D01*
X173076009Y-130421118D02*
X173123628Y-130563975D01*
X173123628Y-130563975D02*
X173171247Y-130611594D01*
X173171247Y-130611594D02*
X173266485Y-130659213D01*
X173266485Y-130659213D02*
X173409342Y-130659213D01*
X173409342Y-130659213D02*
X173504580Y-130611594D01*
X173504580Y-130611594D02*
X173552200Y-130563975D01*
X173552200Y-130563975D02*
X173599819Y-130468737D01*
X173599819Y-130468737D02*
X173599819Y-130087785D01*
X173599819Y-130087785D02*
X172599819Y-130087785D01*
X172599819Y-130087785D02*
X172599819Y-130421118D01*
X172599819Y-130421118D02*
X172647438Y-130516356D01*
X172647438Y-130516356D02*
X172695057Y-130563975D01*
X172695057Y-130563975D02*
X172790295Y-130611594D01*
X172790295Y-130611594D02*
X172885533Y-130611594D01*
X172885533Y-130611594D02*
X172980771Y-130563975D01*
X172980771Y-130563975D02*
X173028390Y-130516356D01*
X173028390Y-130516356D02*
X173076009Y-130421118D01*
X173076009Y-130421118D02*
X173076009Y-130087785D01*
X172933152Y-131516356D02*
X173599819Y-131516356D01*
X172933152Y-131087785D02*
X173456961Y-131087785D01*
X173456961Y-131087785D02*
X173552200Y-131135404D01*
X173552200Y-131135404D02*
X173599819Y-131230642D01*
X173599819Y-131230642D02*
X173599819Y-131373499D01*
X173599819Y-131373499D02*
X173552200Y-131468737D01*
X173552200Y-131468737D02*
X173504580Y-131516356D01*
X172933152Y-131849690D02*
X172933152Y-132230642D01*
X172599819Y-131992547D02*
X173456961Y-131992547D01*
X173456961Y-131992547D02*
X173552200Y-132040166D01*
X173552200Y-132040166D02*
X173599819Y-132135404D01*
X173599819Y-132135404D02*
X173599819Y-132230642D01*
X172933152Y-132421119D02*
X172933152Y-132802071D01*
X172599819Y-132563976D02*
X173456961Y-132563976D01*
X173456961Y-132563976D02*
X173552200Y-132611595D01*
X173552200Y-132611595D02*
X173599819Y-132706833D01*
X173599819Y-132706833D02*
X173599819Y-132802071D01*
X173599819Y-133278262D02*
X173552200Y-133183024D01*
X173552200Y-133183024D02*
X173504580Y-133135405D01*
X173504580Y-133135405D02*
X173409342Y-133087786D01*
X173409342Y-133087786D02*
X173123628Y-133087786D01*
X173123628Y-133087786D02*
X173028390Y-133135405D01*
X173028390Y-133135405D02*
X172980771Y-133183024D01*
X172980771Y-133183024D02*
X172933152Y-133278262D01*
X172933152Y-133278262D02*
X172933152Y-133421119D01*
X172933152Y-133421119D02*
X172980771Y-133516357D01*
X172980771Y-133516357D02*
X173028390Y-133563976D01*
X173028390Y-133563976D02*
X173123628Y-133611595D01*
X173123628Y-133611595D02*
X173409342Y-133611595D01*
X173409342Y-133611595D02*
X173504580Y-133563976D01*
X173504580Y-133563976D02*
X173552200Y-133516357D01*
X173552200Y-133516357D02*
X173599819Y-133421119D01*
X173599819Y-133421119D02*
X173599819Y-133278262D01*
X172933152Y-134040167D02*
X173599819Y-134040167D01*
X173028390Y-134040167D02*
X172980771Y-134087786D01*
X172980771Y-134087786D02*
X172933152Y-134183024D01*
X172933152Y-134183024D02*
X172933152Y-134325881D01*
X172933152Y-134325881D02*
X172980771Y-134421119D01*
X172980771Y-134421119D02*
X173076009Y-134468738D01*
X173076009Y-134468738D02*
X173599819Y-134468738D01*
X173552200Y-134897310D02*
X173599819Y-134992548D01*
X173599819Y-134992548D02*
X173599819Y-135183024D01*
X173599819Y-135183024D02*
X173552200Y-135278262D01*
X173552200Y-135278262D02*
X173456961Y-135325881D01*
X173456961Y-135325881D02*
X173409342Y-135325881D01*
X173409342Y-135325881D02*
X173314104Y-135278262D01*
X173314104Y-135278262D02*
X173266485Y-135183024D01*
X173266485Y-135183024D02*
X173266485Y-135040167D01*
X173266485Y-135040167D02*
X173218866Y-134944929D01*
X173218866Y-134944929D02*
X173123628Y-134897310D01*
X173123628Y-134897310D02*
X173076009Y-134897310D01*
X173076009Y-134897310D02*
X172980771Y-134944929D01*
X172980771Y-134944929D02*
X172933152Y-135040167D01*
X172933152Y-135040167D02*
X172933152Y-135183024D01*
X172933152Y-135183024D02*
X172980771Y-135278262D01*
X173599819Y-136325881D02*
X173123628Y-135992548D01*
X173599819Y-135754453D02*
X172599819Y-135754453D01*
X172599819Y-135754453D02*
X172599819Y-136135405D01*
X172599819Y-136135405D02*
X172647438Y-136230643D01*
X172647438Y-136230643D02*
X172695057Y-136278262D01*
X172695057Y-136278262D02*
X172790295Y-136325881D01*
X172790295Y-136325881D02*
X172933152Y-136325881D01*
X172933152Y-136325881D02*
X173028390Y-136278262D01*
X173028390Y-136278262D02*
X173076009Y-136230643D01*
X173076009Y-136230643D02*
X173123628Y-136135405D01*
X173123628Y-136135405D02*
X173123628Y-135754453D01*
X173599819Y-136754453D02*
X172933152Y-136754453D01*
X172599819Y-136754453D02*
X172647438Y-136706834D01*
X172647438Y-136706834D02*
X172695057Y-136754453D01*
X172695057Y-136754453D02*
X172647438Y-136802072D01*
X172647438Y-136802072D02*
X172599819Y-136754453D01*
X172599819Y-136754453D02*
X172695057Y-136754453D01*
X172933152Y-137659214D02*
X173742676Y-137659214D01*
X173742676Y-137659214D02*
X173837914Y-137611595D01*
X173837914Y-137611595D02*
X173885533Y-137563976D01*
X173885533Y-137563976D02*
X173933152Y-137468738D01*
X173933152Y-137468738D02*
X173933152Y-137325881D01*
X173933152Y-137325881D02*
X173885533Y-137230643D01*
X173552200Y-137659214D02*
X173599819Y-137563976D01*
X173599819Y-137563976D02*
X173599819Y-137373500D01*
X173599819Y-137373500D02*
X173552200Y-137278262D01*
X173552200Y-137278262D02*
X173504580Y-137230643D01*
X173504580Y-137230643D02*
X173409342Y-137183024D01*
X173409342Y-137183024D02*
X173123628Y-137183024D01*
X173123628Y-137183024D02*
X173028390Y-137230643D01*
X173028390Y-137230643D02*
X172980771Y-137278262D01*
X172980771Y-137278262D02*
X172933152Y-137373500D01*
X172933152Y-137373500D02*
X172933152Y-137563976D01*
X172933152Y-137563976D02*
X172980771Y-137659214D01*
X173599819Y-138135405D02*
X172599819Y-138135405D01*
X173599819Y-138563976D02*
X173076009Y-138563976D01*
X173076009Y-138563976D02*
X172980771Y-138516357D01*
X172980771Y-138516357D02*
X172933152Y-138421119D01*
X172933152Y-138421119D02*
X172933152Y-138278262D01*
X172933152Y-138278262D02*
X172980771Y-138183024D01*
X172980771Y-138183024D02*
X173028390Y-138135405D01*
X172933152Y-138897310D02*
X172933152Y-139278262D01*
X172599819Y-139040167D02*
X173456961Y-139040167D01*
X173456961Y-139040167D02*
X173552200Y-139087786D01*
X173552200Y-139087786D02*
X173599819Y-139183024D01*
X173599819Y-139183024D02*
X173599819Y-139278262D01*
X162440714Y-131828319D02*
X162440714Y-132542604D01*
X162440714Y-132542604D02*
X162488333Y-132685461D01*
X162488333Y-132685461D02*
X162583571Y-132780700D01*
X162583571Y-132780700D02*
X162726428Y-132828319D01*
X162726428Y-132828319D02*
X162821666Y-132828319D01*
X161440714Y-132828319D02*
X162012142Y-132828319D01*
X161726428Y-132828319D02*
X161726428Y-131828319D01*
X161726428Y-131828319D02*
X161821666Y-131971176D01*
X161821666Y-131971176D02*
X161916904Y-132066414D01*
X161916904Y-132066414D02*
X162012142Y-132114033D01*
X160821666Y-131828319D02*
X160726428Y-131828319D01*
X160726428Y-131828319D02*
X160631190Y-131875938D01*
X160631190Y-131875938D02*
X160583571Y-131923557D01*
X160583571Y-131923557D02*
X160535952Y-132018795D01*
X160535952Y-132018795D02*
X160488333Y-132209271D01*
X160488333Y-132209271D02*
X160488333Y-132447366D01*
X160488333Y-132447366D02*
X160535952Y-132637842D01*
X160535952Y-132637842D02*
X160583571Y-132733080D01*
X160583571Y-132733080D02*
X160631190Y-132780700D01*
X160631190Y-132780700D02*
X160726428Y-132828319D01*
X160726428Y-132828319D02*
X160821666Y-132828319D01*
X160821666Y-132828319D02*
X160916904Y-132780700D01*
X160916904Y-132780700D02*
X160964523Y-132733080D01*
X160964523Y-132733080D02*
X161012142Y-132637842D01*
X161012142Y-132637842D02*
X161059761Y-132447366D01*
X161059761Y-132447366D02*
X161059761Y-132209271D01*
X161059761Y-132209271D02*
X161012142Y-132018795D01*
X161012142Y-132018795D02*
X160964523Y-131923557D01*
X160964523Y-131923557D02*
X160916904Y-131875938D01*
X160916904Y-131875938D02*
X160821666Y-131828319D01*
X159726428Y-132304509D02*
X159583571Y-132352128D01*
X159583571Y-132352128D02*
X159535952Y-132399747D01*
X159535952Y-132399747D02*
X159488333Y-132494985D01*
X159488333Y-132494985D02*
X159488333Y-132637842D01*
X159488333Y-132637842D02*
X159535952Y-132733080D01*
X159535952Y-132733080D02*
X159583571Y-132780700D01*
X159583571Y-132780700D02*
X159678809Y-132828319D01*
X159678809Y-132828319D02*
X160059761Y-132828319D01*
X160059761Y-132828319D02*
X160059761Y-131828319D01*
X160059761Y-131828319D02*
X159726428Y-131828319D01*
X159726428Y-131828319D02*
X159631190Y-131875938D01*
X159631190Y-131875938D02*
X159583571Y-131923557D01*
X159583571Y-131923557D02*
X159535952Y-132018795D01*
X159535952Y-132018795D02*
X159535952Y-132114033D01*
X159535952Y-132114033D02*
X159583571Y-132209271D01*
X159583571Y-132209271D02*
X159631190Y-132256890D01*
X159631190Y-132256890D02*
X159726428Y-132304509D01*
X159726428Y-132304509D02*
X160059761Y-132304509D01*
X158535952Y-132828319D02*
X159107380Y-132828319D01*
X158821666Y-132828319D02*
X158821666Y-131828319D01*
X158821666Y-131828319D02*
X158916904Y-131971176D01*
X158916904Y-131971176D02*
X159012142Y-132066414D01*
X159012142Y-132066414D02*
X159107380Y-132114033D01*
X161744819Y-97782428D02*
X161744819Y-97211000D01*
X161744819Y-97496714D02*
X160744819Y-97496714D01*
X160744819Y-97496714D02*
X160887676Y-97401476D01*
X160887676Y-97401476D02*
X160982914Y-97306238D01*
X160982914Y-97306238D02*
X161030533Y-97211000D01*
X160744819Y-98401476D02*
X160744819Y-98496714D01*
X160744819Y-98496714D02*
X160792438Y-98591952D01*
X160792438Y-98591952D02*
X160840057Y-98639571D01*
X160840057Y-98639571D02*
X160935295Y-98687190D01*
X160935295Y-98687190D02*
X161125771Y-98734809D01*
X161125771Y-98734809D02*
X161363866Y-98734809D01*
X161363866Y-98734809D02*
X161554342Y-98687190D01*
X161554342Y-98687190D02*
X161649580Y-98639571D01*
X161649580Y-98639571D02*
X161697200Y-98591952D01*
X161697200Y-98591952D02*
X161744819Y-98496714D01*
X161744819Y-98496714D02*
X161744819Y-98401476D01*
X161744819Y-98401476D02*
X161697200Y-98306238D01*
X161697200Y-98306238D02*
X161649580Y-98258619D01*
X161649580Y-98258619D02*
X161554342Y-98211000D01*
X161554342Y-98211000D02*
X161363866Y-98163381D01*
X161363866Y-98163381D02*
X161125771Y-98163381D01*
X161125771Y-98163381D02*
X160935295Y-98211000D01*
X160935295Y-98211000D02*
X160840057Y-98258619D01*
X160840057Y-98258619D02*
X160792438Y-98306238D01*
X160792438Y-98306238D02*
X160744819Y-98401476D01*
X161078152Y-99591952D02*
X161744819Y-99591952D01*
X161078152Y-99163381D02*
X161601961Y-99163381D01*
X161601961Y-99163381D02*
X161697200Y-99211000D01*
X161697200Y-99211000D02*
X161744819Y-99306238D01*
X161744819Y-99306238D02*
X161744819Y-99449095D01*
X161744819Y-99449095D02*
X161697200Y-99544333D01*
X161697200Y-99544333D02*
X161649580Y-99591952D01*
X161221009Y-100401476D02*
X161221009Y-100068143D01*
X161744819Y-100068143D02*
X160744819Y-100068143D01*
X160744819Y-100068143D02*
X160744819Y-100544333D01*
X160697200Y-101639571D02*
X161982914Y-100782429D01*
X161744819Y-102496714D02*
X161744819Y-101925286D01*
X161744819Y-102211000D02*
X160744819Y-102211000D01*
X160744819Y-102211000D02*
X160887676Y-102115762D01*
X160887676Y-102115762D02*
X160982914Y-102020524D01*
X160982914Y-102020524D02*
X161030533Y-101925286D01*
X160744819Y-103353857D02*
X160744819Y-103163381D01*
X160744819Y-103163381D02*
X160792438Y-103068143D01*
X160792438Y-103068143D02*
X160840057Y-103020524D01*
X160840057Y-103020524D02*
X160982914Y-102925286D01*
X160982914Y-102925286D02*
X161173390Y-102877667D01*
X161173390Y-102877667D02*
X161554342Y-102877667D01*
X161554342Y-102877667D02*
X161649580Y-102925286D01*
X161649580Y-102925286D02*
X161697200Y-102972905D01*
X161697200Y-102972905D02*
X161744819Y-103068143D01*
X161744819Y-103068143D02*
X161744819Y-103258619D01*
X161744819Y-103258619D02*
X161697200Y-103353857D01*
X161697200Y-103353857D02*
X161649580Y-103401476D01*
X161649580Y-103401476D02*
X161554342Y-103449095D01*
X161554342Y-103449095D02*
X161316247Y-103449095D01*
X161316247Y-103449095D02*
X161221009Y-103401476D01*
X161221009Y-103401476D02*
X161173390Y-103353857D01*
X161173390Y-103353857D02*
X161125771Y-103258619D01*
X161125771Y-103258619D02*
X161125771Y-103068143D01*
X161125771Y-103068143D02*
X161173390Y-102972905D01*
X161173390Y-102972905D02*
X161221009Y-102925286D01*
X161221009Y-102925286D02*
X161316247Y-102877667D01*
X161078152Y-103782429D02*
X161744819Y-104020524D01*
X161744819Y-104020524D02*
X161078152Y-104258619D01*
X164316580Y-100671333D02*
X164364200Y-100623714D01*
X164364200Y-100623714D02*
X164411819Y-100480857D01*
X164411819Y-100480857D02*
X164411819Y-100385619D01*
X164411819Y-100385619D02*
X164364200Y-100242762D01*
X164364200Y-100242762D02*
X164268961Y-100147524D01*
X164268961Y-100147524D02*
X164173723Y-100099905D01*
X164173723Y-100099905D02*
X163983247Y-100052286D01*
X163983247Y-100052286D02*
X163840390Y-100052286D01*
X163840390Y-100052286D02*
X163649914Y-100099905D01*
X163649914Y-100099905D02*
X163554676Y-100147524D01*
X163554676Y-100147524D02*
X163459438Y-100242762D01*
X163459438Y-100242762D02*
X163411819Y-100385619D01*
X163411819Y-100385619D02*
X163411819Y-100480857D01*
X163411819Y-100480857D02*
X163459438Y-100623714D01*
X163459438Y-100623714D02*
X163507057Y-100671333D01*
X164411819Y-101623714D02*
X164411819Y-101052286D01*
X164411819Y-101338000D02*
X163411819Y-101338000D01*
X163411819Y-101338000D02*
X163554676Y-101242762D01*
X163554676Y-101242762D02*
X163649914Y-101147524D01*
X163649914Y-101147524D02*
X163697533Y-101052286D01*
X151933580Y-117268331D02*
X151981200Y-117220712D01*
X151981200Y-117220712D02*
X152028819Y-117077855D01*
X152028819Y-117077855D02*
X152028819Y-116982617D01*
X152028819Y-116982617D02*
X151981200Y-116839760D01*
X151981200Y-116839760D02*
X151885961Y-116744522D01*
X151885961Y-116744522D02*
X151790723Y-116696903D01*
X151790723Y-116696903D02*
X151600247Y-116649284D01*
X151600247Y-116649284D02*
X151457390Y-116649284D01*
X151457390Y-116649284D02*
X151266914Y-116696903D01*
X151266914Y-116696903D02*
X151171676Y-116744522D01*
X151171676Y-116744522D02*
X151076438Y-116839760D01*
X151076438Y-116839760D02*
X151028819Y-116982617D01*
X151028819Y-116982617D02*
X151028819Y-117077855D01*
X151028819Y-117077855D02*
X151076438Y-117220712D01*
X151076438Y-117220712D02*
X151124057Y-117268331D01*
X152028819Y-117839760D02*
X151981200Y-117744522D01*
X151981200Y-117744522D02*
X151933580Y-117696903D01*
X151933580Y-117696903D02*
X151838342Y-117649284D01*
X151838342Y-117649284D02*
X151552628Y-117649284D01*
X151552628Y-117649284D02*
X151457390Y-117696903D01*
X151457390Y-117696903D02*
X151409771Y-117744522D01*
X151409771Y-117744522D02*
X151362152Y-117839760D01*
X151362152Y-117839760D02*
X151362152Y-117982617D01*
X151362152Y-117982617D02*
X151409771Y-118077855D01*
X151409771Y-118077855D02*
X151457390Y-118125474D01*
X151457390Y-118125474D02*
X151552628Y-118173093D01*
X151552628Y-118173093D02*
X151838342Y-118173093D01*
X151838342Y-118173093D02*
X151933580Y-118125474D01*
X151933580Y-118125474D02*
X151981200Y-118077855D01*
X151981200Y-118077855D02*
X152028819Y-117982617D01*
X152028819Y-117982617D02*
X152028819Y-117839760D01*
X151362152Y-118601665D02*
X152028819Y-118601665D01*
X151457390Y-118601665D02*
X151409771Y-118649284D01*
X151409771Y-118649284D02*
X151362152Y-118744522D01*
X151362152Y-118744522D02*
X151362152Y-118887379D01*
X151362152Y-118887379D02*
X151409771Y-118982617D01*
X151409771Y-118982617D02*
X151505009Y-119030236D01*
X151505009Y-119030236D02*
X152028819Y-119030236D01*
X151362152Y-119506427D02*
X152028819Y-119506427D01*
X151457390Y-119506427D02*
X151409771Y-119554046D01*
X151409771Y-119554046D02*
X151362152Y-119649284D01*
X151362152Y-119649284D02*
X151362152Y-119792141D01*
X151362152Y-119792141D02*
X151409771Y-119887379D01*
X151409771Y-119887379D02*
X151505009Y-119934998D01*
X151505009Y-119934998D02*
X152028819Y-119934998D01*
X152124057Y-120173094D02*
X152124057Y-120934998D01*
X151505009Y-121506427D02*
X151552628Y-121649284D01*
X151552628Y-121649284D02*
X151600247Y-121696903D01*
X151600247Y-121696903D02*
X151695485Y-121744522D01*
X151695485Y-121744522D02*
X151838342Y-121744522D01*
X151838342Y-121744522D02*
X151933580Y-121696903D01*
X151933580Y-121696903D02*
X151981200Y-121649284D01*
X151981200Y-121649284D02*
X152028819Y-121554046D01*
X152028819Y-121554046D02*
X152028819Y-121173094D01*
X152028819Y-121173094D02*
X151028819Y-121173094D01*
X151028819Y-121173094D02*
X151028819Y-121506427D01*
X151028819Y-121506427D02*
X151076438Y-121601665D01*
X151076438Y-121601665D02*
X151124057Y-121649284D01*
X151124057Y-121649284D02*
X151219295Y-121696903D01*
X151219295Y-121696903D02*
X151314533Y-121696903D01*
X151314533Y-121696903D02*
X151409771Y-121649284D01*
X151409771Y-121649284D02*
X151457390Y-121601665D01*
X151457390Y-121601665D02*
X151505009Y-121506427D01*
X151505009Y-121506427D02*
X151505009Y-121173094D01*
X151362152Y-122601665D02*
X152028819Y-122601665D01*
X151362152Y-122173094D02*
X151885961Y-122173094D01*
X151885961Y-122173094D02*
X151981200Y-122220713D01*
X151981200Y-122220713D02*
X152028819Y-122315951D01*
X152028819Y-122315951D02*
X152028819Y-122458808D01*
X152028819Y-122458808D02*
X151981200Y-122554046D01*
X151981200Y-122554046D02*
X151933580Y-122601665D01*
X151362152Y-122934999D02*
X151362152Y-123315951D01*
X151028819Y-123077856D02*
X151885961Y-123077856D01*
X151885961Y-123077856D02*
X151981200Y-123125475D01*
X151981200Y-123125475D02*
X152028819Y-123220713D01*
X152028819Y-123220713D02*
X152028819Y-123315951D01*
X151362152Y-123506428D02*
X151362152Y-123887380D01*
X151028819Y-123649285D02*
X151885961Y-123649285D01*
X151885961Y-123649285D02*
X151981200Y-123696904D01*
X151981200Y-123696904D02*
X152028819Y-123792142D01*
X152028819Y-123792142D02*
X152028819Y-123887380D01*
X152028819Y-124363571D02*
X151981200Y-124268333D01*
X151981200Y-124268333D02*
X151933580Y-124220714D01*
X151933580Y-124220714D02*
X151838342Y-124173095D01*
X151838342Y-124173095D02*
X151552628Y-124173095D01*
X151552628Y-124173095D02*
X151457390Y-124220714D01*
X151457390Y-124220714D02*
X151409771Y-124268333D01*
X151409771Y-124268333D02*
X151362152Y-124363571D01*
X151362152Y-124363571D02*
X151362152Y-124506428D01*
X151362152Y-124506428D02*
X151409771Y-124601666D01*
X151409771Y-124601666D02*
X151457390Y-124649285D01*
X151457390Y-124649285D02*
X151552628Y-124696904D01*
X151552628Y-124696904D02*
X151838342Y-124696904D01*
X151838342Y-124696904D02*
X151933580Y-124649285D01*
X151933580Y-124649285D02*
X151981200Y-124601666D01*
X151981200Y-124601666D02*
X152028819Y-124506428D01*
X152028819Y-124506428D02*
X152028819Y-124363571D01*
X151362152Y-125125476D02*
X152028819Y-125125476D01*
X151457390Y-125125476D02*
X151409771Y-125173095D01*
X151409771Y-125173095D02*
X151362152Y-125268333D01*
X151362152Y-125268333D02*
X151362152Y-125411190D01*
X151362152Y-125411190D02*
X151409771Y-125506428D01*
X151409771Y-125506428D02*
X151505009Y-125554047D01*
X151505009Y-125554047D02*
X152028819Y-125554047D01*
X151981200Y-125982619D02*
X152028819Y-126077857D01*
X152028819Y-126077857D02*
X152028819Y-126268333D01*
X152028819Y-126268333D02*
X151981200Y-126363571D01*
X151981200Y-126363571D02*
X151885961Y-126411190D01*
X151885961Y-126411190D02*
X151838342Y-126411190D01*
X151838342Y-126411190D02*
X151743104Y-126363571D01*
X151743104Y-126363571D02*
X151695485Y-126268333D01*
X151695485Y-126268333D02*
X151695485Y-126125476D01*
X151695485Y-126125476D02*
X151647866Y-126030238D01*
X151647866Y-126030238D02*
X151552628Y-125982619D01*
X151552628Y-125982619D02*
X151505009Y-125982619D01*
X151505009Y-125982619D02*
X151409771Y-126030238D01*
X151409771Y-126030238D02*
X151362152Y-126125476D01*
X151362152Y-126125476D02*
X151362152Y-126268333D01*
X151362152Y-126268333D02*
X151409771Y-126363571D01*
X152028819Y-127315952D02*
X152028819Y-126839762D01*
X152028819Y-126839762D02*
X151028819Y-126839762D01*
X151981200Y-128030238D02*
X152028819Y-127935000D01*
X152028819Y-127935000D02*
X152028819Y-127744524D01*
X152028819Y-127744524D02*
X151981200Y-127649286D01*
X151981200Y-127649286D02*
X151885961Y-127601667D01*
X151885961Y-127601667D02*
X151505009Y-127601667D01*
X151505009Y-127601667D02*
X151409771Y-127649286D01*
X151409771Y-127649286D02*
X151362152Y-127744524D01*
X151362152Y-127744524D02*
X151362152Y-127935000D01*
X151362152Y-127935000D02*
X151409771Y-128030238D01*
X151409771Y-128030238D02*
X151505009Y-128077857D01*
X151505009Y-128077857D02*
X151600247Y-128077857D01*
X151600247Y-128077857D02*
X151695485Y-127601667D01*
X151362152Y-128363572D02*
X151362152Y-128744524D01*
X152028819Y-128506429D02*
X151171676Y-128506429D01*
X151171676Y-128506429D02*
X151076438Y-128554048D01*
X151076438Y-128554048D02*
X151028819Y-128649286D01*
X151028819Y-128649286D02*
X151028819Y-128744524D01*
X151362152Y-128935001D02*
X151362152Y-129315953D01*
X151028819Y-129077858D02*
X151885961Y-129077858D01*
X151885961Y-129077858D02*
X151981200Y-129125477D01*
X151981200Y-129125477D02*
X152028819Y-129220715D01*
X152028819Y-129220715D02*
X152028819Y-129315953D01*
X148528819Y-122601666D02*
X149243104Y-122601666D01*
X149243104Y-122601666D02*
X149385961Y-122554047D01*
X149385961Y-122554047D02*
X149481200Y-122458809D01*
X149481200Y-122458809D02*
X149528819Y-122315952D01*
X149528819Y-122315952D02*
X149528819Y-122220714D01*
X149528819Y-123125476D02*
X149528819Y-123315952D01*
X149528819Y-123315952D02*
X149481200Y-123411190D01*
X149481200Y-123411190D02*
X149433580Y-123458809D01*
X149433580Y-123458809D02*
X149290723Y-123554047D01*
X149290723Y-123554047D02*
X149100247Y-123601666D01*
X149100247Y-123601666D02*
X148719295Y-123601666D01*
X148719295Y-123601666D02*
X148624057Y-123554047D01*
X148624057Y-123554047D02*
X148576438Y-123506428D01*
X148576438Y-123506428D02*
X148528819Y-123411190D01*
X148528819Y-123411190D02*
X148528819Y-123220714D01*
X148528819Y-123220714D02*
X148576438Y-123125476D01*
X148576438Y-123125476D02*
X148624057Y-123077857D01*
X148624057Y-123077857D02*
X148719295Y-123030238D01*
X148719295Y-123030238D02*
X148957390Y-123030238D01*
X148957390Y-123030238D02*
X149052628Y-123077857D01*
X149052628Y-123077857D02*
X149100247Y-123125476D01*
X149100247Y-123125476D02*
X149147866Y-123220714D01*
X149147866Y-123220714D02*
X149147866Y-123411190D01*
X149147866Y-123411190D02*
X149100247Y-123506428D01*
X149100247Y-123506428D02*
X149052628Y-123554047D01*
X149052628Y-123554047D02*
X148957390Y-123601666D01*
X239164001Y-124565580D02*
X239211620Y-124613200D01*
X239211620Y-124613200D02*
X239354477Y-124660819D01*
X239354477Y-124660819D02*
X239449715Y-124660819D01*
X239449715Y-124660819D02*
X239592572Y-124613200D01*
X239592572Y-124613200D02*
X239687810Y-124517961D01*
X239687810Y-124517961D02*
X239735429Y-124422723D01*
X239735429Y-124422723D02*
X239783048Y-124232247D01*
X239783048Y-124232247D02*
X239783048Y-124089390D01*
X239783048Y-124089390D02*
X239735429Y-123898914D01*
X239735429Y-123898914D02*
X239687810Y-123803676D01*
X239687810Y-123803676D02*
X239592572Y-123708438D01*
X239592572Y-123708438D02*
X239449715Y-123660819D01*
X239449715Y-123660819D02*
X239354477Y-123660819D01*
X239354477Y-123660819D02*
X239211620Y-123708438D01*
X239211620Y-123708438D02*
X239164001Y-123756057D01*
X238592572Y-124660819D02*
X238687810Y-124613200D01*
X238687810Y-124613200D02*
X238735429Y-124565580D01*
X238735429Y-124565580D02*
X238783048Y-124470342D01*
X238783048Y-124470342D02*
X238783048Y-124184628D01*
X238783048Y-124184628D02*
X238735429Y-124089390D01*
X238735429Y-124089390D02*
X238687810Y-124041771D01*
X238687810Y-124041771D02*
X238592572Y-123994152D01*
X238592572Y-123994152D02*
X238449715Y-123994152D01*
X238449715Y-123994152D02*
X238354477Y-124041771D01*
X238354477Y-124041771D02*
X238306858Y-124089390D01*
X238306858Y-124089390D02*
X238259239Y-124184628D01*
X238259239Y-124184628D02*
X238259239Y-124470342D01*
X238259239Y-124470342D02*
X238306858Y-124565580D01*
X238306858Y-124565580D02*
X238354477Y-124613200D01*
X238354477Y-124613200D02*
X238449715Y-124660819D01*
X238449715Y-124660819D02*
X238592572Y-124660819D01*
X237830667Y-123994152D02*
X237830667Y-124660819D01*
X237830667Y-124089390D02*
X237783048Y-124041771D01*
X237783048Y-124041771D02*
X237687810Y-123994152D01*
X237687810Y-123994152D02*
X237544953Y-123994152D01*
X237544953Y-123994152D02*
X237449715Y-124041771D01*
X237449715Y-124041771D02*
X237402096Y-124137009D01*
X237402096Y-124137009D02*
X237402096Y-124660819D01*
X236925905Y-123994152D02*
X236925905Y-124660819D01*
X236925905Y-124089390D02*
X236878286Y-124041771D01*
X236878286Y-124041771D02*
X236783048Y-123994152D01*
X236783048Y-123994152D02*
X236640191Y-123994152D01*
X236640191Y-123994152D02*
X236544953Y-124041771D01*
X236544953Y-124041771D02*
X236497334Y-124137009D01*
X236497334Y-124137009D02*
X236497334Y-124660819D01*
X236259239Y-124756057D02*
X235497334Y-124756057D01*
X235402095Y-123660819D02*
X234830667Y-123660819D01*
X235116381Y-124660819D02*
X235116381Y-123660819D01*
X234354476Y-124660819D02*
X234449714Y-124613200D01*
X234449714Y-124613200D02*
X234497333Y-124565580D01*
X234497333Y-124565580D02*
X234544952Y-124470342D01*
X234544952Y-124470342D02*
X234544952Y-124184628D01*
X234544952Y-124184628D02*
X234497333Y-124089390D01*
X234497333Y-124089390D02*
X234449714Y-124041771D01*
X234449714Y-124041771D02*
X234354476Y-123994152D01*
X234354476Y-123994152D02*
X234211619Y-123994152D01*
X234211619Y-123994152D02*
X234116381Y-124041771D01*
X234116381Y-124041771D02*
X234068762Y-124089390D01*
X234068762Y-124089390D02*
X234021143Y-124184628D01*
X234021143Y-124184628D02*
X234021143Y-124470342D01*
X234021143Y-124470342D02*
X234068762Y-124565580D01*
X234068762Y-124565580D02*
X234116381Y-124613200D01*
X234116381Y-124613200D02*
X234211619Y-124660819D01*
X234211619Y-124660819D02*
X234354476Y-124660819D01*
X233259238Y-124137009D02*
X233116381Y-124184628D01*
X233116381Y-124184628D02*
X233068762Y-124232247D01*
X233068762Y-124232247D02*
X233021143Y-124327485D01*
X233021143Y-124327485D02*
X233021143Y-124470342D01*
X233021143Y-124470342D02*
X233068762Y-124565580D01*
X233068762Y-124565580D02*
X233116381Y-124613200D01*
X233116381Y-124613200D02*
X233211619Y-124660819D01*
X233211619Y-124660819D02*
X233592571Y-124660819D01*
X233592571Y-124660819D02*
X233592571Y-123660819D01*
X233592571Y-123660819D02*
X233259238Y-123660819D01*
X233259238Y-123660819D02*
X233164000Y-123708438D01*
X233164000Y-123708438D02*
X233116381Y-123756057D01*
X233116381Y-123756057D02*
X233068762Y-123851295D01*
X233068762Y-123851295D02*
X233068762Y-123946533D01*
X233068762Y-123946533D02*
X233116381Y-124041771D01*
X233116381Y-124041771D02*
X233164000Y-124089390D01*
X233164000Y-124089390D02*
X233259238Y-124137009D01*
X233259238Y-124137009D02*
X233592571Y-124137009D01*
X232164000Y-123994152D02*
X232164000Y-124660819D01*
X232592571Y-123994152D02*
X232592571Y-124517961D01*
X232592571Y-124517961D02*
X232544952Y-124613200D01*
X232544952Y-124613200D02*
X232449714Y-124660819D01*
X232449714Y-124660819D02*
X232306857Y-124660819D01*
X232306857Y-124660819D02*
X232211619Y-124613200D01*
X232211619Y-124613200D02*
X232164000Y-124565580D01*
X231830666Y-123994152D02*
X231449714Y-123994152D01*
X231687809Y-123660819D02*
X231687809Y-124517961D01*
X231687809Y-124517961D02*
X231640190Y-124613200D01*
X231640190Y-124613200D02*
X231544952Y-124660819D01*
X231544952Y-124660819D02*
X231449714Y-124660819D01*
X231259237Y-123994152D02*
X230878285Y-123994152D01*
X231116380Y-123660819D02*
X231116380Y-124517961D01*
X231116380Y-124517961D02*
X231068761Y-124613200D01*
X231068761Y-124613200D02*
X230973523Y-124660819D01*
X230973523Y-124660819D02*
X230878285Y-124660819D01*
X230402094Y-124660819D02*
X230497332Y-124613200D01*
X230497332Y-124613200D02*
X230544951Y-124565580D01*
X230544951Y-124565580D02*
X230592570Y-124470342D01*
X230592570Y-124470342D02*
X230592570Y-124184628D01*
X230592570Y-124184628D02*
X230544951Y-124089390D01*
X230544951Y-124089390D02*
X230497332Y-124041771D01*
X230497332Y-124041771D02*
X230402094Y-123994152D01*
X230402094Y-123994152D02*
X230259237Y-123994152D01*
X230259237Y-123994152D02*
X230163999Y-124041771D01*
X230163999Y-124041771D02*
X230116380Y-124089390D01*
X230116380Y-124089390D02*
X230068761Y-124184628D01*
X230068761Y-124184628D02*
X230068761Y-124470342D01*
X230068761Y-124470342D02*
X230116380Y-124565580D01*
X230116380Y-124565580D02*
X230163999Y-124613200D01*
X230163999Y-124613200D02*
X230259237Y-124660819D01*
X230259237Y-124660819D02*
X230402094Y-124660819D01*
X229640189Y-123994152D02*
X229640189Y-124660819D01*
X229640189Y-124089390D02*
X229592570Y-124041771D01*
X229592570Y-124041771D02*
X229497332Y-123994152D01*
X229497332Y-123994152D02*
X229354475Y-123994152D01*
X229354475Y-123994152D02*
X229259237Y-124041771D01*
X229259237Y-124041771D02*
X229211618Y-124137009D01*
X229211618Y-124137009D02*
X229211618Y-124660819D01*
X228783046Y-124613200D02*
X228687808Y-124660819D01*
X228687808Y-124660819D02*
X228497332Y-124660819D01*
X228497332Y-124660819D02*
X228402094Y-124613200D01*
X228402094Y-124613200D02*
X228354475Y-124517961D01*
X228354475Y-124517961D02*
X228354475Y-124470342D01*
X228354475Y-124470342D02*
X228402094Y-124375104D01*
X228402094Y-124375104D02*
X228497332Y-124327485D01*
X228497332Y-124327485D02*
X228640189Y-124327485D01*
X228640189Y-124327485D02*
X228735427Y-124279866D01*
X228735427Y-124279866D02*
X228783046Y-124184628D01*
X228783046Y-124184628D02*
X228783046Y-124137009D01*
X228783046Y-124137009D02*
X228735427Y-124041771D01*
X228735427Y-124041771D02*
X228640189Y-123994152D01*
X228640189Y-123994152D02*
X228497332Y-123994152D01*
X228497332Y-123994152D02*
X228402094Y-124041771D01*
X227449713Y-124660819D02*
X227925903Y-124660819D01*
X227925903Y-124660819D02*
X227925903Y-123660819D01*
X226735427Y-124613200D02*
X226830665Y-124660819D01*
X226830665Y-124660819D02*
X227021141Y-124660819D01*
X227021141Y-124660819D02*
X227116379Y-124613200D01*
X227116379Y-124613200D02*
X227163998Y-124517961D01*
X227163998Y-124517961D02*
X227163998Y-124137009D01*
X227163998Y-124137009D02*
X227116379Y-124041771D01*
X227116379Y-124041771D02*
X227021141Y-123994152D01*
X227021141Y-123994152D02*
X226830665Y-123994152D01*
X226830665Y-123994152D02*
X226735427Y-124041771D01*
X226735427Y-124041771D02*
X226687808Y-124137009D01*
X226687808Y-124137009D02*
X226687808Y-124232247D01*
X226687808Y-124232247D02*
X227163998Y-124327485D01*
X226402093Y-123994152D02*
X226021141Y-123994152D01*
X226259236Y-124660819D02*
X226259236Y-123803676D01*
X226259236Y-123803676D02*
X226211617Y-123708438D01*
X226211617Y-123708438D02*
X226116379Y-123660819D01*
X226116379Y-123660819D02*
X226021141Y-123660819D01*
X225830664Y-123994152D02*
X225449712Y-123994152D01*
X225687807Y-123660819D02*
X225687807Y-124517961D01*
X225687807Y-124517961D02*
X225640188Y-124613200D01*
X225640188Y-124613200D02*
X225544950Y-124660819D01*
X225544950Y-124660819D02*
X225449712Y-124660819D01*
X220193333Y-123914819D02*
X220193333Y-124629104D01*
X220193333Y-124629104D02*
X220240952Y-124771961D01*
X220240952Y-124771961D02*
X220336190Y-124867200D01*
X220336190Y-124867200D02*
X220479047Y-124914819D01*
X220479047Y-124914819D02*
X220574285Y-124914819D01*
X219288571Y-123914819D02*
X219479047Y-123914819D01*
X219479047Y-123914819D02*
X219574285Y-123962438D01*
X219574285Y-123962438D02*
X219621904Y-124010057D01*
X219621904Y-124010057D02*
X219717142Y-124152914D01*
X219717142Y-124152914D02*
X219764761Y-124343390D01*
X219764761Y-124343390D02*
X219764761Y-124724342D01*
X219764761Y-124724342D02*
X219717142Y-124819580D01*
X219717142Y-124819580D02*
X219669523Y-124867200D01*
X219669523Y-124867200D02*
X219574285Y-124914819D01*
X219574285Y-124914819D02*
X219383809Y-124914819D01*
X219383809Y-124914819D02*
X219288571Y-124867200D01*
X219288571Y-124867200D02*
X219240952Y-124819580D01*
X219240952Y-124819580D02*
X219193333Y-124724342D01*
X219193333Y-124724342D02*
X219193333Y-124486247D01*
X219193333Y-124486247D02*
X219240952Y-124391009D01*
X219240952Y-124391009D02*
X219288571Y-124343390D01*
X219288571Y-124343390D02*
X219383809Y-124295771D01*
X219383809Y-124295771D02*
X219574285Y-124295771D01*
X219574285Y-124295771D02*
X219669523Y-124343390D01*
X219669523Y-124343390D02*
X219717142Y-124391009D01*
X219717142Y-124391009D02*
X219764761Y-124486247D01*
X204497857Y-105356819D02*
X204831190Y-104880628D01*
X205069285Y-105356819D02*
X205069285Y-104356819D01*
X205069285Y-104356819D02*
X204688333Y-104356819D01*
X204688333Y-104356819D02*
X204593095Y-104404438D01*
X204593095Y-104404438D02*
X204545476Y-104452057D01*
X204545476Y-104452057D02*
X204497857Y-104547295D01*
X204497857Y-104547295D02*
X204497857Y-104690152D01*
X204497857Y-104690152D02*
X204545476Y-104785390D01*
X204545476Y-104785390D02*
X204593095Y-104833009D01*
X204593095Y-104833009D02*
X204688333Y-104880628D01*
X204688333Y-104880628D02*
X205069285Y-104880628D01*
X204069285Y-104833009D02*
X203735952Y-104833009D01*
X203593095Y-105356819D02*
X204069285Y-105356819D01*
X204069285Y-105356819D02*
X204069285Y-104356819D01*
X204069285Y-104356819D02*
X203593095Y-104356819D01*
X203164523Y-105356819D02*
X203164523Y-104356819D01*
X203164523Y-104356819D02*
X202926428Y-104356819D01*
X202926428Y-104356819D02*
X202783571Y-104404438D01*
X202783571Y-104404438D02*
X202688333Y-104499676D01*
X202688333Y-104499676D02*
X202640714Y-104594914D01*
X202640714Y-104594914D02*
X202593095Y-104785390D01*
X202593095Y-104785390D02*
X202593095Y-104928247D01*
X202593095Y-104928247D02*
X202640714Y-105118723D01*
X202640714Y-105118723D02*
X202688333Y-105213961D01*
X202688333Y-105213961D02*
X202783571Y-105309200D01*
X202783571Y-105309200D02*
X202926428Y-105356819D01*
X202926428Y-105356819D02*
X203164523Y-105356819D01*
D12*
X204425475Y-99804855D02*
X204425475Y-99004855D01*
X204425475Y-99004855D02*
X204234999Y-99004855D01*
X204234999Y-99004855D02*
X204120713Y-99042950D01*
X204120713Y-99042950D02*
X204044523Y-99119140D01*
X204044523Y-99119140D02*
X204006428Y-99195331D01*
X204006428Y-99195331D02*
X203968332Y-99347712D01*
X203968332Y-99347712D02*
X203968332Y-99461998D01*
X203968332Y-99461998D02*
X204006428Y-99614379D01*
X204006428Y-99614379D02*
X204044523Y-99690569D01*
X204044523Y-99690569D02*
X204120713Y-99766760D01*
X204120713Y-99766760D02*
X204234999Y-99804855D01*
X204234999Y-99804855D02*
X204425475Y-99804855D01*
X203206428Y-99804855D02*
X203663571Y-99804855D01*
X203434999Y-99804855D02*
X203434999Y-99004855D01*
X203434999Y-99004855D02*
X203511190Y-99119140D01*
X203511190Y-99119140D02*
X203587380Y-99195331D01*
X203587380Y-99195331D02*
X203663571Y-99233426D01*
D11*
X198302618Y-105142200D02*
X198159761Y-105189819D01*
X198159761Y-105189819D02*
X197921666Y-105189819D01*
X197921666Y-105189819D02*
X197826428Y-105142200D01*
X197826428Y-105142200D02*
X197778809Y-105094580D01*
X197778809Y-105094580D02*
X197731190Y-104999342D01*
X197731190Y-104999342D02*
X197731190Y-104904104D01*
X197731190Y-104904104D02*
X197778809Y-104808866D01*
X197778809Y-104808866D02*
X197826428Y-104761247D01*
X197826428Y-104761247D02*
X197921666Y-104713628D01*
X197921666Y-104713628D02*
X198112142Y-104666009D01*
X198112142Y-104666009D02*
X198207380Y-104618390D01*
X198207380Y-104618390D02*
X198254999Y-104570771D01*
X198254999Y-104570771D02*
X198302618Y-104475533D01*
X198302618Y-104475533D02*
X198302618Y-104380295D01*
X198302618Y-104380295D02*
X198254999Y-104285057D01*
X198254999Y-104285057D02*
X198207380Y-104237438D01*
X198207380Y-104237438D02*
X198112142Y-104189819D01*
X198112142Y-104189819D02*
X197874047Y-104189819D01*
X197874047Y-104189819D02*
X197731190Y-104237438D01*
X197397856Y-104189819D02*
X197159761Y-105189819D01*
X197159761Y-105189819D02*
X196969285Y-104475533D01*
X196969285Y-104475533D02*
X196778809Y-105189819D01*
X196778809Y-105189819D02*
X196540714Y-104189819D01*
X196397857Y-105285057D02*
X195635952Y-105285057D01*
X195397856Y-105189819D02*
X195397856Y-104189819D01*
X195397856Y-104189819D02*
X195016904Y-104189819D01*
X195016904Y-104189819D02*
X194921666Y-104237438D01*
X194921666Y-104237438D02*
X194874047Y-104285057D01*
X194874047Y-104285057D02*
X194826428Y-104380295D01*
X194826428Y-104380295D02*
X194826428Y-104523152D01*
X194826428Y-104523152D02*
X194874047Y-104618390D01*
X194874047Y-104618390D02*
X194921666Y-104666009D01*
X194921666Y-104666009D02*
X195016904Y-104713628D01*
X195016904Y-104713628D02*
X195397856Y-104713628D01*
X193969285Y-104523152D02*
X193969285Y-105189819D01*
X194397856Y-104523152D02*
X194397856Y-105046961D01*
X194397856Y-105046961D02*
X194350237Y-105142200D01*
X194350237Y-105142200D02*
X194254999Y-105189819D01*
X194254999Y-105189819D02*
X194112142Y-105189819D01*
X194112142Y-105189819D02*
X194016904Y-105142200D01*
X194016904Y-105142200D02*
X193969285Y-105094580D01*
X193540713Y-105142200D02*
X193445475Y-105189819D01*
X193445475Y-105189819D02*
X193254999Y-105189819D01*
X193254999Y-105189819D02*
X193159761Y-105142200D01*
X193159761Y-105142200D02*
X193112142Y-105046961D01*
X193112142Y-105046961D02*
X193112142Y-104999342D01*
X193112142Y-104999342D02*
X193159761Y-104904104D01*
X193159761Y-104904104D02*
X193254999Y-104856485D01*
X193254999Y-104856485D02*
X193397856Y-104856485D01*
X193397856Y-104856485D02*
X193493094Y-104808866D01*
X193493094Y-104808866D02*
X193540713Y-104713628D01*
X193540713Y-104713628D02*
X193540713Y-104666009D01*
X193540713Y-104666009D02*
X193493094Y-104570771D01*
X193493094Y-104570771D02*
X193397856Y-104523152D01*
X193397856Y-104523152D02*
X193254999Y-104523152D01*
X193254999Y-104523152D02*
X193159761Y-104570771D01*
X192683570Y-105189819D02*
X192683570Y-104189819D01*
X192254999Y-105189819D02*
X192254999Y-104666009D01*
X192254999Y-104666009D02*
X192302618Y-104570771D01*
X192302618Y-104570771D02*
X192397856Y-104523152D01*
X192397856Y-104523152D02*
X192540713Y-104523152D01*
X192540713Y-104523152D02*
X192635951Y-104570771D01*
X192635951Y-104570771D02*
X192683570Y-104618390D01*
X196588332Y-101642200D02*
X196445475Y-101689819D01*
X196445475Y-101689819D02*
X196207380Y-101689819D01*
X196207380Y-101689819D02*
X196112142Y-101642200D01*
X196112142Y-101642200D02*
X196064523Y-101594580D01*
X196064523Y-101594580D02*
X196016904Y-101499342D01*
X196016904Y-101499342D02*
X196016904Y-101404104D01*
X196016904Y-101404104D02*
X196064523Y-101308866D01*
X196064523Y-101308866D02*
X196112142Y-101261247D01*
X196112142Y-101261247D02*
X196207380Y-101213628D01*
X196207380Y-101213628D02*
X196397856Y-101166009D01*
X196397856Y-101166009D02*
X196493094Y-101118390D01*
X196493094Y-101118390D02*
X196540713Y-101070771D01*
X196540713Y-101070771D02*
X196588332Y-100975533D01*
X196588332Y-100975533D02*
X196588332Y-100880295D01*
X196588332Y-100880295D02*
X196540713Y-100785057D01*
X196540713Y-100785057D02*
X196493094Y-100737438D01*
X196493094Y-100737438D02*
X196397856Y-100689819D01*
X196397856Y-100689819D02*
X196159761Y-100689819D01*
X196159761Y-100689819D02*
X196016904Y-100737438D01*
X195683570Y-100689819D02*
X195445475Y-101689819D01*
X195445475Y-101689819D02*
X195254999Y-100975533D01*
X195254999Y-100975533D02*
X195064523Y-101689819D01*
X195064523Y-101689819D02*
X194826428Y-100689819D01*
X193921666Y-101689819D02*
X194493094Y-101689819D01*
X194207380Y-101689819D02*
X194207380Y-100689819D01*
X194207380Y-100689819D02*
X194302618Y-100832676D01*
X194302618Y-100832676D02*
X194397856Y-100927914D01*
X194397856Y-100927914D02*
X194493094Y-100975533D01*
X185843104Y-100950904D02*
X185843104Y-101427094D01*
X186128819Y-100855666D02*
X185128819Y-101188999D01*
X185128819Y-101188999D02*
X186128819Y-101522332D01*
X186128819Y-101855666D02*
X185462152Y-101855666D01*
X185652628Y-101855666D02*
X185557390Y-101903285D01*
X185557390Y-101903285D02*
X185509771Y-101950904D01*
X185509771Y-101950904D02*
X185462152Y-102046142D01*
X185462152Y-102046142D02*
X185462152Y-102141380D01*
X186128819Y-102903285D02*
X185128819Y-102903285D01*
X186081200Y-102903285D02*
X186128819Y-102808047D01*
X186128819Y-102808047D02*
X186128819Y-102617571D01*
X186128819Y-102617571D02*
X186081200Y-102522333D01*
X186081200Y-102522333D02*
X186033580Y-102474714D01*
X186033580Y-102474714D02*
X185938342Y-102427095D01*
X185938342Y-102427095D02*
X185652628Y-102427095D01*
X185652628Y-102427095D02*
X185557390Y-102474714D01*
X185557390Y-102474714D02*
X185509771Y-102522333D01*
X185509771Y-102522333D02*
X185462152Y-102617571D01*
X185462152Y-102617571D02*
X185462152Y-102808047D01*
X185462152Y-102808047D02*
X185509771Y-102903285D01*
X185462152Y-103808047D02*
X186128819Y-103808047D01*
X185462152Y-103379476D02*
X185985961Y-103379476D01*
X185985961Y-103379476D02*
X186081200Y-103427095D01*
X186081200Y-103427095D02*
X186128819Y-103522333D01*
X186128819Y-103522333D02*
X186128819Y-103665190D01*
X186128819Y-103665190D02*
X186081200Y-103760428D01*
X186081200Y-103760428D02*
X186033580Y-103808047D01*
X186128819Y-104284238D02*
X185462152Y-104284238D01*
X185128819Y-104284238D02*
X185176438Y-104236619D01*
X185176438Y-104236619D02*
X185224057Y-104284238D01*
X185224057Y-104284238D02*
X185176438Y-104331857D01*
X185176438Y-104331857D02*
X185128819Y-104284238D01*
X185128819Y-104284238D02*
X185224057Y-104284238D01*
X185462152Y-104760428D02*
X186128819Y-104760428D01*
X185557390Y-104760428D02*
X185509771Y-104808047D01*
X185509771Y-104808047D02*
X185462152Y-104903285D01*
X185462152Y-104903285D02*
X185462152Y-105046142D01*
X185462152Y-105046142D02*
X185509771Y-105141380D01*
X185509771Y-105141380D02*
X185605009Y-105188999D01*
X185605009Y-105188999D02*
X186128819Y-105188999D01*
X186128819Y-105808047D02*
X186081200Y-105712809D01*
X186081200Y-105712809D02*
X186033580Y-105665190D01*
X186033580Y-105665190D02*
X185938342Y-105617571D01*
X185938342Y-105617571D02*
X185652628Y-105617571D01*
X185652628Y-105617571D02*
X185557390Y-105665190D01*
X185557390Y-105665190D02*
X185509771Y-105712809D01*
X185509771Y-105712809D02*
X185462152Y-105808047D01*
X185462152Y-105808047D02*
X185462152Y-105950904D01*
X185462152Y-105950904D02*
X185509771Y-106046142D01*
X185509771Y-106046142D02*
X185557390Y-106093761D01*
X185557390Y-106093761D02*
X185652628Y-106141380D01*
X185652628Y-106141380D02*
X185938342Y-106141380D01*
X185938342Y-106141380D02*
X186033580Y-106093761D01*
X186033580Y-106093761D02*
X186081200Y-106046142D01*
X186081200Y-106046142D02*
X186128819Y-105950904D01*
X186128819Y-105950904D02*
X186128819Y-105808047D01*
X186224057Y-106331857D02*
X186224057Y-107093761D01*
X186128819Y-107331857D02*
X185128819Y-107331857D01*
X185128819Y-107331857D02*
X185128819Y-107712809D01*
X185128819Y-107712809D02*
X185176438Y-107808047D01*
X185176438Y-107808047D02*
X185224057Y-107855666D01*
X185224057Y-107855666D02*
X185319295Y-107903285D01*
X185319295Y-107903285D02*
X185462152Y-107903285D01*
X185462152Y-107903285D02*
X185557390Y-107855666D01*
X185557390Y-107855666D02*
X185605009Y-107808047D01*
X185605009Y-107808047D02*
X185652628Y-107712809D01*
X185652628Y-107712809D02*
X185652628Y-107331857D01*
X186128819Y-108331857D02*
X185462152Y-108331857D01*
X185652628Y-108331857D02*
X185557390Y-108379476D01*
X185557390Y-108379476D02*
X185509771Y-108427095D01*
X185509771Y-108427095D02*
X185462152Y-108522333D01*
X185462152Y-108522333D02*
X185462152Y-108617571D01*
X186128819Y-109093762D02*
X186081200Y-108998524D01*
X186081200Y-108998524D02*
X186033580Y-108950905D01*
X186033580Y-108950905D02*
X185938342Y-108903286D01*
X185938342Y-108903286D02*
X185652628Y-108903286D01*
X185652628Y-108903286D02*
X185557390Y-108950905D01*
X185557390Y-108950905D02*
X185509771Y-108998524D01*
X185509771Y-108998524D02*
X185462152Y-109093762D01*
X185462152Y-109093762D02*
X185462152Y-109236619D01*
X185462152Y-109236619D02*
X185509771Y-109331857D01*
X185509771Y-109331857D02*
X185557390Y-109379476D01*
X185557390Y-109379476D02*
X185652628Y-109427095D01*
X185652628Y-109427095D02*
X185938342Y-109427095D01*
X185938342Y-109427095D02*
X186033580Y-109379476D01*
X186033580Y-109379476D02*
X186081200Y-109331857D01*
X186081200Y-109331857D02*
X186128819Y-109236619D01*
X186128819Y-109236619D02*
X186128819Y-109093762D01*
X186224057Y-109617572D02*
X186224057Y-110379476D01*
X186128819Y-110617572D02*
X185128819Y-110617572D01*
X185128819Y-110617572D02*
X185843104Y-110950905D01*
X185843104Y-110950905D02*
X185128819Y-111284238D01*
X185128819Y-111284238D02*
X186128819Y-111284238D01*
X186128819Y-111760429D02*
X185462152Y-111760429D01*
X185128819Y-111760429D02*
X185176438Y-111712810D01*
X185176438Y-111712810D02*
X185224057Y-111760429D01*
X185224057Y-111760429D02*
X185176438Y-111808048D01*
X185176438Y-111808048D02*
X185128819Y-111760429D01*
X185128819Y-111760429D02*
X185224057Y-111760429D01*
X185462152Y-112236619D02*
X186128819Y-112236619D01*
X185557390Y-112236619D02*
X185509771Y-112284238D01*
X185509771Y-112284238D02*
X185462152Y-112379476D01*
X185462152Y-112379476D02*
X185462152Y-112522333D01*
X185462152Y-112522333D02*
X185509771Y-112617571D01*
X185509771Y-112617571D02*
X185605009Y-112665190D01*
X185605009Y-112665190D02*
X186128819Y-112665190D01*
X186128819Y-113141381D02*
X185462152Y-113141381D01*
X185128819Y-113141381D02*
X185176438Y-113093762D01*
X185176438Y-113093762D02*
X185224057Y-113141381D01*
X185224057Y-113141381D02*
X185176438Y-113189000D01*
X185176438Y-113189000D02*
X185128819Y-113141381D01*
X185128819Y-113141381D02*
X185224057Y-113141381D01*
X186224057Y-113379476D02*
X186224057Y-114141380D01*
X186081200Y-114331857D02*
X186128819Y-114474714D01*
X186128819Y-114474714D02*
X186128819Y-114712809D01*
X186128819Y-114712809D02*
X186081200Y-114808047D01*
X186081200Y-114808047D02*
X186033580Y-114855666D01*
X186033580Y-114855666D02*
X185938342Y-114903285D01*
X185938342Y-114903285D02*
X185843104Y-114903285D01*
X185843104Y-114903285D02*
X185747866Y-114855666D01*
X185747866Y-114855666D02*
X185700247Y-114808047D01*
X185700247Y-114808047D02*
X185652628Y-114712809D01*
X185652628Y-114712809D02*
X185605009Y-114522333D01*
X185605009Y-114522333D02*
X185557390Y-114427095D01*
X185557390Y-114427095D02*
X185509771Y-114379476D01*
X185509771Y-114379476D02*
X185414533Y-114331857D01*
X185414533Y-114331857D02*
X185319295Y-114331857D01*
X185319295Y-114331857D02*
X185224057Y-114379476D01*
X185224057Y-114379476D02*
X185176438Y-114427095D01*
X185176438Y-114427095D02*
X185128819Y-114522333D01*
X185128819Y-114522333D02*
X185128819Y-114760428D01*
X185128819Y-114760428D02*
X185176438Y-114903285D01*
X186128819Y-115474714D02*
X186081200Y-115379476D01*
X186081200Y-115379476D02*
X186033580Y-115331857D01*
X186033580Y-115331857D02*
X185938342Y-115284238D01*
X185938342Y-115284238D02*
X185652628Y-115284238D01*
X185652628Y-115284238D02*
X185557390Y-115331857D01*
X185557390Y-115331857D02*
X185509771Y-115379476D01*
X185509771Y-115379476D02*
X185462152Y-115474714D01*
X185462152Y-115474714D02*
X185462152Y-115617571D01*
X185462152Y-115617571D02*
X185509771Y-115712809D01*
X185509771Y-115712809D02*
X185557390Y-115760428D01*
X185557390Y-115760428D02*
X185652628Y-115808047D01*
X185652628Y-115808047D02*
X185938342Y-115808047D01*
X185938342Y-115808047D02*
X186033580Y-115760428D01*
X186033580Y-115760428D02*
X186081200Y-115712809D01*
X186081200Y-115712809D02*
X186128819Y-115617571D01*
X186128819Y-115617571D02*
X186128819Y-115474714D01*
X186081200Y-116665190D02*
X186128819Y-116569952D01*
X186128819Y-116569952D02*
X186128819Y-116379476D01*
X186128819Y-116379476D02*
X186081200Y-116284238D01*
X186081200Y-116284238D02*
X186033580Y-116236619D01*
X186033580Y-116236619D02*
X185938342Y-116189000D01*
X185938342Y-116189000D02*
X185652628Y-116189000D01*
X185652628Y-116189000D02*
X185557390Y-116236619D01*
X185557390Y-116236619D02*
X185509771Y-116284238D01*
X185509771Y-116284238D02*
X185462152Y-116379476D01*
X185462152Y-116379476D02*
X185462152Y-116569952D01*
X185462152Y-116569952D02*
X185509771Y-116665190D01*
X186128819Y-117093762D02*
X185128819Y-117093762D01*
X185747866Y-117189000D02*
X186128819Y-117474714D01*
X185462152Y-117474714D02*
X185843104Y-117093762D01*
X186081200Y-118284238D02*
X186128819Y-118189000D01*
X186128819Y-118189000D02*
X186128819Y-117998524D01*
X186128819Y-117998524D02*
X186081200Y-117903286D01*
X186081200Y-117903286D02*
X185985961Y-117855667D01*
X185985961Y-117855667D02*
X185605009Y-117855667D01*
X185605009Y-117855667D02*
X185509771Y-117903286D01*
X185509771Y-117903286D02*
X185462152Y-117998524D01*
X185462152Y-117998524D02*
X185462152Y-118189000D01*
X185462152Y-118189000D02*
X185509771Y-118284238D01*
X185509771Y-118284238D02*
X185605009Y-118331857D01*
X185605009Y-118331857D02*
X185700247Y-118331857D01*
X185700247Y-118331857D02*
X185795485Y-117855667D01*
X185462152Y-118617572D02*
X185462152Y-118998524D01*
X185128819Y-118760429D02*
X185985961Y-118760429D01*
X185985961Y-118760429D02*
X186081200Y-118808048D01*
X186081200Y-118808048D02*
X186128819Y-118903286D01*
X186128819Y-118903286D02*
X186128819Y-118998524D01*
X186224057Y-119093763D02*
X186224057Y-119855667D01*
X186128819Y-120093763D02*
X185128819Y-120093763D01*
X185128819Y-120093763D02*
X186128819Y-120665191D01*
X186128819Y-120665191D02*
X185128819Y-120665191D01*
X186128819Y-121284239D02*
X186081200Y-121189001D01*
X186081200Y-121189001D02*
X186033580Y-121141382D01*
X186033580Y-121141382D02*
X185938342Y-121093763D01*
X185938342Y-121093763D02*
X185652628Y-121093763D01*
X185652628Y-121093763D02*
X185557390Y-121141382D01*
X185557390Y-121141382D02*
X185509771Y-121189001D01*
X185509771Y-121189001D02*
X185462152Y-121284239D01*
X185462152Y-121284239D02*
X185462152Y-121427096D01*
X185462152Y-121427096D02*
X185509771Y-121522334D01*
X185509771Y-121522334D02*
X185557390Y-121569953D01*
X185557390Y-121569953D02*
X185652628Y-121617572D01*
X185652628Y-121617572D02*
X185938342Y-121617572D01*
X185938342Y-121617572D02*
X186033580Y-121569953D01*
X186033580Y-121569953D02*
X186081200Y-121522334D01*
X186081200Y-121522334D02*
X186128819Y-121427096D01*
X186128819Y-121427096D02*
X186128819Y-121284239D01*
X186081200Y-121998525D02*
X186128819Y-122141382D01*
X186128819Y-122141382D02*
X186128819Y-122379477D01*
X186128819Y-122379477D02*
X186081200Y-122474715D01*
X186081200Y-122474715D02*
X186033580Y-122522334D01*
X186033580Y-122522334D02*
X185938342Y-122569953D01*
X185938342Y-122569953D02*
X185843104Y-122569953D01*
X185843104Y-122569953D02*
X185747866Y-122522334D01*
X185747866Y-122522334D02*
X185700247Y-122474715D01*
X185700247Y-122474715D02*
X185652628Y-122379477D01*
X185652628Y-122379477D02*
X185605009Y-122189001D01*
X185605009Y-122189001D02*
X185557390Y-122093763D01*
X185557390Y-122093763D02*
X185509771Y-122046144D01*
X185509771Y-122046144D02*
X185414533Y-121998525D01*
X185414533Y-121998525D02*
X185319295Y-121998525D01*
X185319295Y-121998525D02*
X185224057Y-122046144D01*
X185224057Y-122046144D02*
X185176438Y-122093763D01*
X185176438Y-122093763D02*
X185128819Y-122189001D01*
X185128819Y-122189001D02*
X185128819Y-122427096D01*
X185128819Y-122427096D02*
X185176438Y-122569953D01*
X186128819Y-122998525D02*
X185128819Y-122998525D01*
X185128819Y-122998525D02*
X185128819Y-123379477D01*
X185128819Y-123379477D02*
X185176438Y-123474715D01*
X185176438Y-123474715D02*
X185224057Y-123522334D01*
X185224057Y-123522334D02*
X185319295Y-123569953D01*
X185319295Y-123569953D02*
X185462152Y-123569953D01*
X185462152Y-123569953D02*
X185557390Y-123522334D01*
X185557390Y-123522334D02*
X185605009Y-123474715D01*
X185605009Y-123474715D02*
X185652628Y-123379477D01*
X185652628Y-123379477D02*
X185652628Y-122998525D01*
X186128819Y-123998525D02*
X185128819Y-123998525D01*
X185605009Y-123998525D02*
X185605009Y-124569953D01*
X186128819Y-124569953D02*
X185128819Y-124569953D01*
X186224057Y-124808049D02*
X186224057Y-125569953D01*
X185605009Y-126141382D02*
X185652628Y-126284239D01*
X185652628Y-126284239D02*
X185700247Y-126331858D01*
X185700247Y-126331858D02*
X185795485Y-126379477D01*
X185795485Y-126379477D02*
X185938342Y-126379477D01*
X185938342Y-126379477D02*
X186033580Y-126331858D01*
X186033580Y-126331858D02*
X186081200Y-126284239D01*
X186081200Y-126284239D02*
X186128819Y-126189001D01*
X186128819Y-126189001D02*
X186128819Y-125808049D01*
X186128819Y-125808049D02*
X185128819Y-125808049D01*
X185128819Y-125808049D02*
X185128819Y-126141382D01*
X185128819Y-126141382D02*
X185176438Y-126236620D01*
X185176438Y-126236620D02*
X185224057Y-126284239D01*
X185224057Y-126284239D02*
X185319295Y-126331858D01*
X185319295Y-126331858D02*
X185414533Y-126331858D01*
X185414533Y-126331858D02*
X185509771Y-126284239D01*
X185509771Y-126284239D02*
X185557390Y-126236620D01*
X185557390Y-126236620D02*
X185605009Y-126141382D01*
X185605009Y-126141382D02*
X185605009Y-125808049D01*
X185128819Y-126808049D02*
X185938342Y-126808049D01*
X185938342Y-126808049D02*
X186033580Y-126855668D01*
X186033580Y-126855668D02*
X186081200Y-126903287D01*
X186081200Y-126903287D02*
X186128819Y-126998525D01*
X186128819Y-126998525D02*
X186128819Y-127189001D01*
X186128819Y-127189001D02*
X186081200Y-127284239D01*
X186081200Y-127284239D02*
X186033580Y-127331858D01*
X186033580Y-127331858D02*
X185938342Y-127379477D01*
X185938342Y-127379477D02*
X185128819Y-127379477D01*
X186128819Y-128427096D02*
X185652628Y-128093763D01*
X186128819Y-127855668D02*
X185128819Y-127855668D01*
X185128819Y-127855668D02*
X185128819Y-128236620D01*
X185128819Y-128236620D02*
X185176438Y-128331858D01*
X185176438Y-128331858D02*
X185224057Y-128379477D01*
X185224057Y-128379477D02*
X185319295Y-128427096D01*
X185319295Y-128427096D02*
X185462152Y-128427096D01*
X185462152Y-128427096D02*
X185557390Y-128379477D01*
X185557390Y-128379477D02*
X185605009Y-128331858D01*
X185605009Y-128331858D02*
X185652628Y-128236620D01*
X185652628Y-128236620D02*
X185652628Y-127855668D01*
X186033580Y-129427096D02*
X186081200Y-129379477D01*
X186081200Y-129379477D02*
X186128819Y-129236620D01*
X186128819Y-129236620D02*
X186128819Y-129141382D01*
X186128819Y-129141382D02*
X186081200Y-128998525D01*
X186081200Y-128998525D02*
X185985961Y-128903287D01*
X185985961Y-128903287D02*
X185890723Y-128855668D01*
X185890723Y-128855668D02*
X185700247Y-128808049D01*
X185700247Y-128808049D02*
X185557390Y-128808049D01*
X185557390Y-128808049D02*
X185366914Y-128855668D01*
X185366914Y-128855668D02*
X185271676Y-128903287D01*
X185271676Y-128903287D02*
X185176438Y-128998525D01*
X185176438Y-128998525D02*
X185128819Y-129141382D01*
X185128819Y-129141382D02*
X185128819Y-129236620D01*
X185128819Y-129236620D02*
X185176438Y-129379477D01*
X185176438Y-129379477D02*
X185224057Y-129427096D01*
X184459095Y-108563580D02*
X184506714Y-108611200D01*
X184506714Y-108611200D02*
X184649571Y-108658819D01*
X184649571Y-108658819D02*
X184744809Y-108658819D01*
X184744809Y-108658819D02*
X184887666Y-108611200D01*
X184887666Y-108611200D02*
X184982904Y-108515961D01*
X184982904Y-108515961D02*
X185030523Y-108420723D01*
X185030523Y-108420723D02*
X185078142Y-108230247D01*
X185078142Y-108230247D02*
X185078142Y-108087390D01*
X185078142Y-108087390D02*
X185030523Y-107896914D01*
X185030523Y-107896914D02*
X184982904Y-107801676D01*
X184982904Y-107801676D02*
X184887666Y-107706438D01*
X184887666Y-107706438D02*
X184744809Y-107658819D01*
X184744809Y-107658819D02*
X184649571Y-107658819D01*
X184649571Y-107658819D02*
X184506714Y-107706438D01*
X184506714Y-107706438D02*
X184459095Y-107754057D01*
X183887666Y-108658819D02*
X183982904Y-108611200D01*
X183982904Y-108611200D02*
X184030523Y-108563580D01*
X184030523Y-108563580D02*
X184078142Y-108468342D01*
X184078142Y-108468342D02*
X184078142Y-108182628D01*
X184078142Y-108182628D02*
X184030523Y-108087390D01*
X184030523Y-108087390D02*
X183982904Y-108039771D01*
X183982904Y-108039771D02*
X183887666Y-107992152D01*
X183887666Y-107992152D02*
X183744809Y-107992152D01*
X183744809Y-107992152D02*
X183649571Y-108039771D01*
X183649571Y-108039771D02*
X183601952Y-108087390D01*
X183601952Y-108087390D02*
X183554333Y-108182628D01*
X183554333Y-108182628D02*
X183554333Y-108468342D01*
X183554333Y-108468342D02*
X183601952Y-108563580D01*
X183601952Y-108563580D02*
X183649571Y-108611200D01*
X183649571Y-108611200D02*
X183744809Y-108658819D01*
X183744809Y-108658819D02*
X183887666Y-108658819D01*
X183125761Y-107992152D02*
X183125761Y-108658819D01*
X183125761Y-108087390D02*
X183078142Y-108039771D01*
X183078142Y-108039771D02*
X182982904Y-107992152D01*
X182982904Y-107992152D02*
X182840047Y-107992152D01*
X182840047Y-107992152D02*
X182744809Y-108039771D01*
X182744809Y-108039771D02*
X182697190Y-108135009D01*
X182697190Y-108135009D02*
X182697190Y-108658819D01*
X182220999Y-107992152D02*
X182220999Y-108658819D01*
X182220999Y-108087390D02*
X182173380Y-108039771D01*
X182173380Y-108039771D02*
X182078142Y-107992152D01*
X182078142Y-107992152D02*
X181935285Y-107992152D01*
X181935285Y-107992152D02*
X181840047Y-108039771D01*
X181840047Y-108039771D02*
X181792428Y-108135009D01*
X181792428Y-108135009D02*
X181792428Y-108658819D01*
X181554333Y-108754057D02*
X180792428Y-108754057D01*
X180363856Y-107658819D02*
X180268618Y-107658819D01*
X180268618Y-107658819D02*
X180173380Y-107706438D01*
X180173380Y-107706438D02*
X180125761Y-107754057D01*
X180125761Y-107754057D02*
X180078142Y-107849295D01*
X180078142Y-107849295D02*
X180030523Y-108039771D01*
X180030523Y-108039771D02*
X180030523Y-108277866D01*
X180030523Y-108277866D02*
X180078142Y-108468342D01*
X180078142Y-108468342D02*
X180125761Y-108563580D01*
X180125761Y-108563580D02*
X180173380Y-108611200D01*
X180173380Y-108611200D02*
X180268618Y-108658819D01*
X180268618Y-108658819D02*
X180363856Y-108658819D01*
X180363856Y-108658819D02*
X180459094Y-108611200D01*
X180459094Y-108611200D02*
X180506713Y-108563580D01*
X180506713Y-108563580D02*
X180554332Y-108468342D01*
X180554332Y-108468342D02*
X180601951Y-108277866D01*
X180601951Y-108277866D02*
X180601951Y-108039771D01*
X180601951Y-108039771D02*
X180554332Y-107849295D01*
X180554332Y-107849295D02*
X180506713Y-107754057D01*
X180506713Y-107754057D02*
X180459094Y-107706438D01*
X180459094Y-107706438D02*
X180363856Y-107658819D01*
X179078142Y-108658819D02*
X179649570Y-108658819D01*
X179363856Y-108658819D02*
X179363856Y-107658819D01*
X179363856Y-107658819D02*
X179459094Y-107801676D01*
X179459094Y-107801676D02*
X179554332Y-107896914D01*
X179554332Y-107896914D02*
X179649570Y-107944533D01*
X178744808Y-108658819D02*
X178220999Y-107992152D01*
X178744808Y-107992152D02*
X178220999Y-108658819D01*
X177649570Y-107658819D02*
X177554332Y-107658819D01*
X177554332Y-107658819D02*
X177459094Y-107706438D01*
X177459094Y-107706438D02*
X177411475Y-107754057D01*
X177411475Y-107754057D02*
X177363856Y-107849295D01*
X177363856Y-107849295D02*
X177316237Y-108039771D01*
X177316237Y-108039771D02*
X177316237Y-108277866D01*
X177316237Y-108277866D02*
X177363856Y-108468342D01*
X177363856Y-108468342D02*
X177411475Y-108563580D01*
X177411475Y-108563580D02*
X177459094Y-108611200D01*
X177459094Y-108611200D02*
X177554332Y-108658819D01*
X177554332Y-108658819D02*
X177649570Y-108658819D01*
X177649570Y-108658819D02*
X177744808Y-108611200D01*
X177744808Y-108611200D02*
X177792427Y-108563580D01*
X177792427Y-108563580D02*
X177840046Y-108468342D01*
X177840046Y-108468342D02*
X177887665Y-108277866D01*
X177887665Y-108277866D02*
X177887665Y-108039771D01*
X177887665Y-108039771D02*
X177840046Y-107849295D01*
X177840046Y-107849295D02*
X177792427Y-107754057D01*
X177792427Y-107754057D02*
X177744808Y-107706438D01*
X177744808Y-107706438D02*
X177649570Y-107658819D01*
X176459094Y-107992152D02*
X176459094Y-108658819D01*
X176697189Y-107611200D02*
X176935284Y-108325485D01*
X176935284Y-108325485D02*
X176316237Y-108325485D01*
X180673333Y-103364819D02*
X180673333Y-104079104D01*
X180673333Y-104079104D02*
X180720952Y-104221961D01*
X180720952Y-104221961D02*
X180816190Y-104317200D01*
X180816190Y-104317200D02*
X180959047Y-104364819D01*
X180959047Y-104364819D02*
X181054285Y-104364819D01*
X179673333Y-104364819D02*
X180244761Y-104364819D01*
X179959047Y-104364819D02*
X179959047Y-103364819D01*
X179959047Y-103364819D02*
X180054285Y-103507676D01*
X180054285Y-103507676D02*
X180149523Y-103602914D01*
X180149523Y-103602914D02*
X180244761Y-103650533D01*
X231488808Y-112849819D02*
X231488808Y-111849819D01*
X231060237Y-111945057D02*
X231012618Y-111897438D01*
X231012618Y-111897438D02*
X230917380Y-111849819D01*
X230917380Y-111849819D02*
X230679285Y-111849819D01*
X230679285Y-111849819D02*
X230584047Y-111897438D01*
X230584047Y-111897438D02*
X230536428Y-111945057D01*
X230536428Y-111945057D02*
X230488809Y-112040295D01*
X230488809Y-112040295D02*
X230488809Y-112135533D01*
X230488809Y-112135533D02*
X230536428Y-112278390D01*
X230536428Y-112278390D02*
X231107856Y-112849819D01*
X231107856Y-112849819D02*
X230488809Y-112849819D01*
X229488809Y-112754580D02*
X229536428Y-112802200D01*
X229536428Y-112802200D02*
X229679285Y-112849819D01*
X229679285Y-112849819D02*
X229774523Y-112849819D01*
X229774523Y-112849819D02*
X229917380Y-112802200D01*
X229917380Y-112802200D02*
X230012618Y-112706961D01*
X230012618Y-112706961D02*
X230060237Y-112611723D01*
X230060237Y-112611723D02*
X230107856Y-112421247D01*
X230107856Y-112421247D02*
X230107856Y-112278390D01*
X230107856Y-112278390D02*
X230060237Y-112087914D01*
X230060237Y-112087914D02*
X230012618Y-111992676D01*
X230012618Y-111992676D02*
X229917380Y-111897438D01*
X229917380Y-111897438D02*
X229774523Y-111849819D01*
X229774523Y-111849819D02*
X229679285Y-111849819D01*
X229679285Y-111849819D02*
X229536428Y-111897438D01*
X229536428Y-111897438D02*
X229488809Y-111945057D01*
X229298333Y-112945057D02*
X228536428Y-112945057D01*
X228298332Y-112849819D02*
X228298332Y-111849819D01*
X227822142Y-112849819D02*
X227822142Y-111849819D01*
X227822142Y-111849819D02*
X227250714Y-112849819D01*
X227250714Y-112849819D02*
X227250714Y-111849819D01*
X226774523Y-112849819D02*
X226774523Y-111849819D01*
X226774523Y-111849819D02*
X226393571Y-111849819D01*
X226393571Y-111849819D02*
X226298333Y-111897438D01*
X226298333Y-111897438D02*
X226250714Y-111945057D01*
X226250714Y-111945057D02*
X226203095Y-112040295D01*
X226203095Y-112040295D02*
X226203095Y-112183152D01*
X226203095Y-112183152D02*
X226250714Y-112278390D01*
X226250714Y-112278390D02*
X226298333Y-112326009D01*
X226298333Y-112326009D02*
X226393571Y-112373628D01*
X226393571Y-112373628D02*
X226774523Y-112373628D01*
X225774523Y-111849819D02*
X225774523Y-112659342D01*
X225774523Y-112659342D02*
X225726904Y-112754580D01*
X225726904Y-112754580D02*
X225679285Y-112802200D01*
X225679285Y-112802200D02*
X225584047Y-112849819D01*
X225584047Y-112849819D02*
X225393571Y-112849819D01*
X225393571Y-112849819D02*
X225298333Y-112802200D01*
X225298333Y-112802200D02*
X225250714Y-112754580D01*
X225250714Y-112754580D02*
X225203095Y-112659342D01*
X225203095Y-112659342D02*
X225203095Y-111849819D01*
X224869761Y-111849819D02*
X224298333Y-111849819D01*
X224584047Y-112849819D02*
X224584047Y-111849819D01*
X220170333Y-111849819D02*
X220170333Y-112564104D01*
X220170333Y-112564104D02*
X220217952Y-112706961D01*
X220217952Y-112706961D02*
X220313190Y-112802200D01*
X220313190Y-112802200D02*
X220456047Y-112849819D01*
X220456047Y-112849819D02*
X220551285Y-112849819D01*
X219217952Y-111849819D02*
X219694142Y-111849819D01*
X219694142Y-111849819D02*
X219741761Y-112326009D01*
X219741761Y-112326009D02*
X219694142Y-112278390D01*
X219694142Y-112278390D02*
X219598904Y-112230771D01*
X219598904Y-112230771D02*
X219360809Y-112230771D01*
X219360809Y-112230771D02*
X219265571Y-112278390D01*
X219265571Y-112278390D02*
X219217952Y-112326009D01*
X219217952Y-112326009D02*
X219170333Y-112421247D01*
X219170333Y-112421247D02*
X219170333Y-112659342D01*
X219170333Y-112659342D02*
X219217952Y-112754580D01*
X219217952Y-112754580D02*
X219265571Y-112802200D01*
X219265571Y-112802200D02*
X219360809Y-112849819D01*
X219360809Y-112849819D02*
X219598904Y-112849819D01*
X219598904Y-112849819D02*
X219694142Y-112802200D01*
X219694142Y-112802200D02*
X219741761Y-112754580D01*
X150700668Y-135531580D02*
X150748287Y-135579200D01*
X150748287Y-135579200D02*
X150891144Y-135626819D01*
X150891144Y-135626819D02*
X150986382Y-135626819D01*
X150986382Y-135626819D02*
X151129239Y-135579200D01*
X151129239Y-135579200D02*
X151224477Y-135483961D01*
X151224477Y-135483961D02*
X151272096Y-135388723D01*
X151272096Y-135388723D02*
X151319715Y-135198247D01*
X151319715Y-135198247D02*
X151319715Y-135055390D01*
X151319715Y-135055390D02*
X151272096Y-134864914D01*
X151272096Y-134864914D02*
X151224477Y-134769676D01*
X151224477Y-134769676D02*
X151129239Y-134674438D01*
X151129239Y-134674438D02*
X150986382Y-134626819D01*
X150986382Y-134626819D02*
X150891144Y-134626819D01*
X150891144Y-134626819D02*
X150748287Y-134674438D01*
X150748287Y-134674438D02*
X150700668Y-134722057D01*
X150129239Y-135626819D02*
X150224477Y-135579200D01*
X150224477Y-135579200D02*
X150272096Y-135531580D01*
X150272096Y-135531580D02*
X150319715Y-135436342D01*
X150319715Y-135436342D02*
X150319715Y-135150628D01*
X150319715Y-135150628D02*
X150272096Y-135055390D01*
X150272096Y-135055390D02*
X150224477Y-135007771D01*
X150224477Y-135007771D02*
X150129239Y-134960152D01*
X150129239Y-134960152D02*
X149986382Y-134960152D01*
X149986382Y-134960152D02*
X149891144Y-135007771D01*
X149891144Y-135007771D02*
X149843525Y-135055390D01*
X149843525Y-135055390D02*
X149795906Y-135150628D01*
X149795906Y-135150628D02*
X149795906Y-135436342D01*
X149795906Y-135436342D02*
X149843525Y-135531580D01*
X149843525Y-135531580D02*
X149891144Y-135579200D01*
X149891144Y-135579200D02*
X149986382Y-135626819D01*
X149986382Y-135626819D02*
X150129239Y-135626819D01*
X149367334Y-134960152D02*
X149367334Y-135626819D01*
X149367334Y-135055390D02*
X149319715Y-135007771D01*
X149319715Y-135007771D02*
X149224477Y-134960152D01*
X149224477Y-134960152D02*
X149081620Y-134960152D01*
X149081620Y-134960152D02*
X148986382Y-135007771D01*
X148986382Y-135007771D02*
X148938763Y-135103009D01*
X148938763Y-135103009D02*
X148938763Y-135626819D01*
X148462572Y-134960152D02*
X148462572Y-135626819D01*
X148462572Y-135055390D02*
X148414953Y-135007771D01*
X148414953Y-135007771D02*
X148319715Y-134960152D01*
X148319715Y-134960152D02*
X148176858Y-134960152D01*
X148176858Y-134960152D02*
X148081620Y-135007771D01*
X148081620Y-135007771D02*
X148034001Y-135103009D01*
X148034001Y-135103009D02*
X148034001Y-135626819D01*
X147795906Y-135722057D02*
X147034001Y-135722057D01*
X146462572Y-135103009D02*
X146319715Y-135150628D01*
X146319715Y-135150628D02*
X146272096Y-135198247D01*
X146272096Y-135198247D02*
X146224477Y-135293485D01*
X146224477Y-135293485D02*
X146224477Y-135436342D01*
X146224477Y-135436342D02*
X146272096Y-135531580D01*
X146272096Y-135531580D02*
X146319715Y-135579200D01*
X146319715Y-135579200D02*
X146414953Y-135626819D01*
X146414953Y-135626819D02*
X146795905Y-135626819D01*
X146795905Y-135626819D02*
X146795905Y-134626819D01*
X146795905Y-134626819D02*
X146462572Y-134626819D01*
X146462572Y-134626819D02*
X146367334Y-134674438D01*
X146367334Y-134674438D02*
X146319715Y-134722057D01*
X146319715Y-134722057D02*
X146272096Y-134817295D01*
X146272096Y-134817295D02*
X146272096Y-134912533D01*
X146272096Y-134912533D02*
X146319715Y-135007771D01*
X146319715Y-135007771D02*
X146367334Y-135055390D01*
X146367334Y-135055390D02*
X146462572Y-135103009D01*
X146462572Y-135103009D02*
X146795905Y-135103009D01*
X145367334Y-134960152D02*
X145367334Y-135626819D01*
X145795905Y-134960152D02*
X145795905Y-135483961D01*
X145795905Y-135483961D02*
X145748286Y-135579200D01*
X145748286Y-135579200D02*
X145653048Y-135626819D01*
X145653048Y-135626819D02*
X145510191Y-135626819D01*
X145510191Y-135626819D02*
X145414953Y-135579200D01*
X145414953Y-135579200D02*
X145367334Y-135531580D01*
X145034000Y-134960152D02*
X144653048Y-134960152D01*
X144891143Y-134626819D02*
X144891143Y-135483961D01*
X144891143Y-135483961D02*
X144843524Y-135579200D01*
X144843524Y-135579200D02*
X144748286Y-135626819D01*
X144748286Y-135626819D02*
X144653048Y-135626819D01*
X144462571Y-134960152D02*
X144081619Y-134960152D01*
X144319714Y-134626819D02*
X144319714Y-135483961D01*
X144319714Y-135483961D02*
X144272095Y-135579200D01*
X144272095Y-135579200D02*
X144176857Y-135626819D01*
X144176857Y-135626819D02*
X144081619Y-135626819D01*
X143605428Y-135626819D02*
X143700666Y-135579200D01*
X143700666Y-135579200D02*
X143748285Y-135531580D01*
X143748285Y-135531580D02*
X143795904Y-135436342D01*
X143795904Y-135436342D02*
X143795904Y-135150628D01*
X143795904Y-135150628D02*
X143748285Y-135055390D01*
X143748285Y-135055390D02*
X143700666Y-135007771D01*
X143700666Y-135007771D02*
X143605428Y-134960152D01*
X143605428Y-134960152D02*
X143462571Y-134960152D01*
X143462571Y-134960152D02*
X143367333Y-135007771D01*
X143367333Y-135007771D02*
X143319714Y-135055390D01*
X143319714Y-135055390D02*
X143272095Y-135150628D01*
X143272095Y-135150628D02*
X143272095Y-135436342D01*
X143272095Y-135436342D02*
X143319714Y-135531580D01*
X143319714Y-135531580D02*
X143367333Y-135579200D01*
X143367333Y-135579200D02*
X143462571Y-135626819D01*
X143462571Y-135626819D02*
X143605428Y-135626819D01*
X142843523Y-134960152D02*
X142843523Y-135626819D01*
X142843523Y-135055390D02*
X142795904Y-135007771D01*
X142795904Y-135007771D02*
X142700666Y-134960152D01*
X142700666Y-134960152D02*
X142557809Y-134960152D01*
X142557809Y-134960152D02*
X142462571Y-135007771D01*
X142462571Y-135007771D02*
X142414952Y-135103009D01*
X142414952Y-135103009D02*
X142414952Y-135626819D01*
X141986380Y-135579200D02*
X141891142Y-135626819D01*
X141891142Y-135626819D02*
X141700666Y-135626819D01*
X141700666Y-135626819D02*
X141605428Y-135579200D01*
X141605428Y-135579200D02*
X141557809Y-135483961D01*
X141557809Y-135483961D02*
X141557809Y-135436342D01*
X141557809Y-135436342D02*
X141605428Y-135341104D01*
X141605428Y-135341104D02*
X141700666Y-135293485D01*
X141700666Y-135293485D02*
X141843523Y-135293485D01*
X141843523Y-135293485D02*
X141938761Y-135245866D01*
X141938761Y-135245866D02*
X141986380Y-135150628D01*
X141986380Y-135150628D02*
X141986380Y-135103009D01*
X141986380Y-135103009D02*
X141938761Y-135007771D01*
X141938761Y-135007771D02*
X141843523Y-134960152D01*
X141843523Y-134960152D02*
X141700666Y-134960152D01*
X141700666Y-134960152D02*
X141605428Y-135007771D01*
X140653047Y-135626819D02*
X141129237Y-135626819D01*
X141129237Y-135626819D02*
X141129237Y-134626819D01*
X139938761Y-135579200D02*
X140033999Y-135626819D01*
X140033999Y-135626819D02*
X140224475Y-135626819D01*
X140224475Y-135626819D02*
X140319713Y-135579200D01*
X140319713Y-135579200D02*
X140367332Y-135483961D01*
X140367332Y-135483961D02*
X140367332Y-135103009D01*
X140367332Y-135103009D02*
X140319713Y-135007771D01*
X140319713Y-135007771D02*
X140224475Y-134960152D01*
X140224475Y-134960152D02*
X140033999Y-134960152D01*
X140033999Y-134960152D02*
X139938761Y-135007771D01*
X139938761Y-135007771D02*
X139891142Y-135103009D01*
X139891142Y-135103009D02*
X139891142Y-135198247D01*
X139891142Y-135198247D02*
X140367332Y-135293485D01*
X139605427Y-134960152D02*
X139224475Y-134960152D01*
X139462570Y-135626819D02*
X139462570Y-134769676D01*
X139462570Y-134769676D02*
X139414951Y-134674438D01*
X139414951Y-134674438D02*
X139319713Y-134626819D01*
X139319713Y-134626819D02*
X139224475Y-134626819D01*
X139033998Y-134960152D02*
X138653046Y-134960152D01*
X138891141Y-134626819D02*
X138891141Y-135483961D01*
X138891141Y-135483961D02*
X138843522Y-135579200D01*
X138843522Y-135579200D02*
X138748284Y-135626819D01*
X138748284Y-135626819D02*
X138653046Y-135626819D01*
X144488819Y-121372476D02*
X145203104Y-121372476D01*
X145203104Y-121372476D02*
X145345961Y-121324857D01*
X145345961Y-121324857D02*
X145441200Y-121229619D01*
X145441200Y-121229619D02*
X145488819Y-121086762D01*
X145488819Y-121086762D02*
X145488819Y-120991524D01*
X145488819Y-121896286D02*
X145488819Y-122086762D01*
X145488819Y-122086762D02*
X145441200Y-122182000D01*
X145441200Y-122182000D02*
X145393580Y-122229619D01*
X145393580Y-122229619D02*
X145250723Y-122324857D01*
X145250723Y-122324857D02*
X145060247Y-122372476D01*
X145060247Y-122372476D02*
X144679295Y-122372476D01*
X144679295Y-122372476D02*
X144584057Y-122324857D01*
X144584057Y-122324857D02*
X144536438Y-122277238D01*
X144536438Y-122277238D02*
X144488819Y-122182000D01*
X144488819Y-122182000D02*
X144488819Y-121991524D01*
X144488819Y-121991524D02*
X144536438Y-121896286D01*
X144536438Y-121896286D02*
X144584057Y-121848667D01*
X144584057Y-121848667D02*
X144679295Y-121801048D01*
X144679295Y-121801048D02*
X144917390Y-121801048D01*
X144917390Y-121801048D02*
X145012628Y-121848667D01*
X145012628Y-121848667D02*
X145060247Y-121896286D01*
X145060247Y-121896286D02*
X145107866Y-121991524D01*
X145107866Y-121991524D02*
X145107866Y-122182000D01*
X145107866Y-122182000D02*
X145060247Y-122277238D01*
X145060247Y-122277238D02*
X145012628Y-122324857D01*
X145012628Y-122324857D02*
X144917390Y-122372476D01*
X144965009Y-123134381D02*
X145012628Y-123277238D01*
X145012628Y-123277238D02*
X145060247Y-123324857D01*
X145060247Y-123324857D02*
X145155485Y-123372476D01*
X145155485Y-123372476D02*
X145298342Y-123372476D01*
X145298342Y-123372476D02*
X145393580Y-123324857D01*
X145393580Y-123324857D02*
X145441200Y-123277238D01*
X145441200Y-123277238D02*
X145488819Y-123182000D01*
X145488819Y-123182000D02*
X145488819Y-122801048D01*
X145488819Y-122801048D02*
X144488819Y-122801048D01*
X144488819Y-122801048D02*
X144488819Y-123134381D01*
X144488819Y-123134381D02*
X144536438Y-123229619D01*
X144536438Y-123229619D02*
X144584057Y-123277238D01*
X144584057Y-123277238D02*
X144679295Y-123324857D01*
X144679295Y-123324857D02*
X144774533Y-123324857D01*
X144774533Y-123324857D02*
X144869771Y-123277238D01*
X144869771Y-123277238D02*
X144917390Y-123229619D01*
X144917390Y-123229619D02*
X144965009Y-123134381D01*
X144965009Y-123134381D02*
X144965009Y-122801048D01*
X145488819Y-124324857D02*
X145488819Y-123753429D01*
X145488819Y-124039143D02*
X144488819Y-124039143D01*
X144488819Y-124039143D02*
X144631676Y-123943905D01*
X144631676Y-123943905D02*
X144726914Y-123848667D01*
X144726914Y-123848667D02*
X144774533Y-123753429D01*
X208406904Y-105484819D02*
X208597380Y-105484819D01*
X208597380Y-105484819D02*
X208692618Y-105532438D01*
X208692618Y-105532438D02*
X208740237Y-105580057D01*
X208740237Y-105580057D02*
X208835475Y-105722914D01*
X208835475Y-105722914D02*
X208883094Y-105913390D01*
X208883094Y-105913390D02*
X208883094Y-106294342D01*
X208883094Y-106294342D02*
X208835475Y-106389580D01*
X208835475Y-106389580D02*
X208787856Y-106437200D01*
X208787856Y-106437200D02*
X208692618Y-106484819D01*
X208692618Y-106484819D02*
X208502142Y-106484819D01*
X208502142Y-106484819D02*
X208406904Y-106437200D01*
X208406904Y-106437200D02*
X208359285Y-106389580D01*
X208359285Y-106389580D02*
X208311666Y-106294342D01*
X208311666Y-106294342D02*
X208311666Y-106056247D01*
X208311666Y-106056247D02*
X208359285Y-105961009D01*
X208359285Y-105961009D02*
X208406904Y-105913390D01*
X208406904Y-105913390D02*
X208502142Y-105865771D01*
X208502142Y-105865771D02*
X208692618Y-105865771D01*
X208692618Y-105865771D02*
X208787856Y-105913390D01*
X208787856Y-105913390D02*
X208835475Y-105961009D01*
X208835475Y-105961009D02*
X208883094Y-106056247D01*
X207740237Y-105913390D02*
X207835475Y-105865771D01*
X207835475Y-105865771D02*
X207883094Y-105818152D01*
X207883094Y-105818152D02*
X207930713Y-105722914D01*
X207930713Y-105722914D02*
X207930713Y-105675295D01*
X207930713Y-105675295D02*
X207883094Y-105580057D01*
X207883094Y-105580057D02*
X207835475Y-105532438D01*
X207835475Y-105532438D02*
X207740237Y-105484819D01*
X207740237Y-105484819D02*
X207549761Y-105484819D01*
X207549761Y-105484819D02*
X207454523Y-105532438D01*
X207454523Y-105532438D02*
X207406904Y-105580057D01*
X207406904Y-105580057D02*
X207359285Y-105675295D01*
X207359285Y-105675295D02*
X207359285Y-105722914D01*
X207359285Y-105722914D02*
X207406904Y-105818152D01*
X207406904Y-105818152D02*
X207454523Y-105865771D01*
X207454523Y-105865771D02*
X207549761Y-105913390D01*
X207549761Y-105913390D02*
X207740237Y-105913390D01*
X207740237Y-105913390D02*
X207835475Y-105961009D01*
X207835475Y-105961009D02*
X207883094Y-106008628D01*
X207883094Y-106008628D02*
X207930713Y-106103866D01*
X207930713Y-106103866D02*
X207930713Y-106294342D01*
X207930713Y-106294342D02*
X207883094Y-106389580D01*
X207883094Y-106389580D02*
X207835475Y-106437200D01*
X207835475Y-106437200D02*
X207740237Y-106484819D01*
X207740237Y-106484819D02*
X207549761Y-106484819D01*
X207549761Y-106484819D02*
X207454523Y-106437200D01*
X207454523Y-106437200D02*
X207406904Y-106389580D01*
X207406904Y-106389580D02*
X207359285Y-106294342D01*
X207359285Y-106294342D02*
X207359285Y-106103866D01*
X207359285Y-106103866D02*
X207406904Y-106008628D01*
X207406904Y-106008628D02*
X207454523Y-105961009D01*
X207454523Y-105961009D02*
X207549761Y-105913390D01*
X206740237Y-105484819D02*
X206644999Y-105484819D01*
X206644999Y-105484819D02*
X206549761Y-105532438D01*
X206549761Y-105532438D02*
X206502142Y-105580057D01*
X206502142Y-105580057D02*
X206454523Y-105675295D01*
X206454523Y-105675295D02*
X206406904Y-105865771D01*
X206406904Y-105865771D02*
X206406904Y-106103866D01*
X206406904Y-106103866D02*
X206454523Y-106294342D01*
X206454523Y-106294342D02*
X206502142Y-106389580D01*
X206502142Y-106389580D02*
X206549761Y-106437200D01*
X206549761Y-106437200D02*
X206644999Y-106484819D01*
X206644999Y-106484819D02*
X206740237Y-106484819D01*
X206740237Y-106484819D02*
X206835475Y-106437200D01*
X206835475Y-106437200D02*
X206883094Y-106389580D01*
X206883094Y-106389580D02*
X206930713Y-106294342D01*
X206930713Y-106294342D02*
X206978332Y-106103866D01*
X206978332Y-106103866D02*
X206978332Y-105865771D01*
X206978332Y-105865771D02*
X206930713Y-105675295D01*
X206930713Y-105675295D02*
X206883094Y-105580057D01*
X206883094Y-105580057D02*
X206835475Y-105532438D01*
X206835475Y-105532438D02*
X206740237Y-105484819D01*
D13*
X207764999Y-108277469D02*
X208004999Y-107934612D01*
X208176428Y-108277469D02*
X208176428Y-107557469D01*
X208176428Y-107557469D02*
X207902142Y-107557469D01*
X207902142Y-107557469D02*
X207833571Y-107591755D01*
X207833571Y-107591755D02*
X207799285Y-107626041D01*
X207799285Y-107626041D02*
X207764999Y-107694612D01*
X207764999Y-107694612D02*
X207764999Y-107797469D01*
X207764999Y-107797469D02*
X207799285Y-107866041D01*
X207799285Y-107866041D02*
X207833571Y-107900326D01*
X207833571Y-107900326D02*
X207902142Y-107934612D01*
X207902142Y-107934612D02*
X208176428Y-107934612D01*
X207079285Y-108277469D02*
X207490714Y-108277469D01*
X207284999Y-108277469D02*
X207284999Y-107557469D01*
X207284999Y-107557469D02*
X207353571Y-107660326D01*
X207353571Y-107660326D02*
X207422142Y-107728898D01*
X207422142Y-107728898D02*
X207490714Y-107763184D01*
D11*
X134333808Y-112976819D02*
X134333808Y-111976819D01*
X133905237Y-112072057D02*
X133857618Y-112024438D01*
X133857618Y-112024438D02*
X133762380Y-111976819D01*
X133762380Y-111976819D02*
X133524285Y-111976819D01*
X133524285Y-111976819D02*
X133429047Y-112024438D01*
X133429047Y-112024438D02*
X133381428Y-112072057D01*
X133381428Y-112072057D02*
X133333809Y-112167295D01*
X133333809Y-112167295D02*
X133333809Y-112262533D01*
X133333809Y-112262533D02*
X133381428Y-112405390D01*
X133381428Y-112405390D02*
X133952856Y-112976819D01*
X133952856Y-112976819D02*
X133333809Y-112976819D01*
X132333809Y-112881580D02*
X132381428Y-112929200D01*
X132381428Y-112929200D02*
X132524285Y-112976819D01*
X132524285Y-112976819D02*
X132619523Y-112976819D01*
X132619523Y-112976819D02*
X132762380Y-112929200D01*
X132762380Y-112929200D02*
X132857618Y-112833961D01*
X132857618Y-112833961D02*
X132905237Y-112738723D01*
X132905237Y-112738723D02*
X132952856Y-112548247D01*
X132952856Y-112548247D02*
X132952856Y-112405390D01*
X132952856Y-112405390D02*
X132905237Y-112214914D01*
X132905237Y-112214914D02*
X132857618Y-112119676D01*
X132857618Y-112119676D02*
X132762380Y-112024438D01*
X132762380Y-112024438D02*
X132619523Y-111976819D01*
X132619523Y-111976819D02*
X132524285Y-111976819D01*
X132524285Y-111976819D02*
X132381428Y-112024438D01*
X132381428Y-112024438D02*
X132333809Y-112072057D01*
X132143333Y-113072057D02*
X131381428Y-113072057D01*
X131143332Y-112976819D02*
X131143332Y-111976819D01*
X130667142Y-112976819D02*
X130667142Y-111976819D01*
X130667142Y-111976819D02*
X130095714Y-112976819D01*
X130095714Y-112976819D02*
X130095714Y-111976819D01*
X129619523Y-112976819D02*
X129619523Y-111976819D01*
X129619523Y-111976819D02*
X129238571Y-111976819D01*
X129238571Y-111976819D02*
X129143333Y-112024438D01*
X129143333Y-112024438D02*
X129095714Y-112072057D01*
X129095714Y-112072057D02*
X129048095Y-112167295D01*
X129048095Y-112167295D02*
X129048095Y-112310152D01*
X129048095Y-112310152D02*
X129095714Y-112405390D01*
X129095714Y-112405390D02*
X129143333Y-112453009D01*
X129143333Y-112453009D02*
X129238571Y-112500628D01*
X129238571Y-112500628D02*
X129619523Y-112500628D01*
X128619523Y-111976819D02*
X128619523Y-112786342D01*
X128619523Y-112786342D02*
X128571904Y-112881580D01*
X128571904Y-112881580D02*
X128524285Y-112929200D01*
X128524285Y-112929200D02*
X128429047Y-112976819D01*
X128429047Y-112976819D02*
X128238571Y-112976819D01*
X128238571Y-112976819D02*
X128143333Y-112929200D01*
X128143333Y-112929200D02*
X128095714Y-112881580D01*
X128095714Y-112881580D02*
X128048095Y-112786342D01*
X128048095Y-112786342D02*
X128048095Y-111976819D01*
X127714761Y-111976819D02*
X127143333Y-111976819D01*
X127429047Y-112976819D02*
X127429047Y-111976819D01*
X141938333Y-115659819D02*
X141938333Y-116374104D01*
X141938333Y-116374104D02*
X141985952Y-116516961D01*
X141985952Y-116516961D02*
X142081190Y-116612200D01*
X142081190Y-116612200D02*
X142224047Y-116659819D01*
X142224047Y-116659819D02*
X142319285Y-116659819D01*
X141033571Y-115993152D02*
X141033571Y-116659819D01*
X141271666Y-115612200D02*
X141509761Y-116326485D01*
X141509761Y-116326485D02*
X140890714Y-116326485D01*
X216502808Y-135836819D02*
X216502808Y-134836819D01*
X216074237Y-134932057D02*
X216026618Y-134884438D01*
X216026618Y-134884438D02*
X215931380Y-134836819D01*
X215931380Y-134836819D02*
X215693285Y-134836819D01*
X215693285Y-134836819D02*
X215598047Y-134884438D01*
X215598047Y-134884438D02*
X215550428Y-134932057D01*
X215550428Y-134932057D02*
X215502809Y-135027295D01*
X215502809Y-135027295D02*
X215502809Y-135122533D01*
X215502809Y-135122533D02*
X215550428Y-135265390D01*
X215550428Y-135265390D02*
X216121856Y-135836819D01*
X216121856Y-135836819D02*
X215502809Y-135836819D01*
X214502809Y-135741580D02*
X214550428Y-135789200D01*
X214550428Y-135789200D02*
X214693285Y-135836819D01*
X214693285Y-135836819D02*
X214788523Y-135836819D01*
X214788523Y-135836819D02*
X214931380Y-135789200D01*
X214931380Y-135789200D02*
X215026618Y-135693961D01*
X215026618Y-135693961D02*
X215074237Y-135598723D01*
X215074237Y-135598723D02*
X215121856Y-135408247D01*
X215121856Y-135408247D02*
X215121856Y-135265390D01*
X215121856Y-135265390D02*
X215074237Y-135074914D01*
X215074237Y-135074914D02*
X215026618Y-134979676D01*
X215026618Y-134979676D02*
X214931380Y-134884438D01*
X214931380Y-134884438D02*
X214788523Y-134836819D01*
X214788523Y-134836819D02*
X214693285Y-134836819D01*
X214693285Y-134836819D02*
X214550428Y-134884438D01*
X214550428Y-134884438D02*
X214502809Y-134932057D01*
X214312333Y-135932057D02*
X213550428Y-135932057D01*
X213312332Y-135836819D02*
X213312332Y-134836819D01*
X212836142Y-135836819D02*
X212836142Y-134836819D01*
X212836142Y-134836819D02*
X212264714Y-135836819D01*
X212264714Y-135836819D02*
X212264714Y-134836819D01*
X211788523Y-135836819D02*
X211788523Y-134836819D01*
X211788523Y-134836819D02*
X211407571Y-134836819D01*
X211407571Y-134836819D02*
X211312333Y-134884438D01*
X211312333Y-134884438D02*
X211264714Y-134932057D01*
X211264714Y-134932057D02*
X211217095Y-135027295D01*
X211217095Y-135027295D02*
X211217095Y-135170152D01*
X211217095Y-135170152D02*
X211264714Y-135265390D01*
X211264714Y-135265390D02*
X211312333Y-135313009D01*
X211312333Y-135313009D02*
X211407571Y-135360628D01*
X211407571Y-135360628D02*
X211788523Y-135360628D01*
X210788523Y-134836819D02*
X210788523Y-135646342D01*
X210788523Y-135646342D02*
X210740904Y-135741580D01*
X210740904Y-135741580D02*
X210693285Y-135789200D01*
X210693285Y-135789200D02*
X210598047Y-135836819D01*
X210598047Y-135836819D02*
X210407571Y-135836819D01*
X210407571Y-135836819D02*
X210312333Y-135789200D01*
X210312333Y-135789200D02*
X210264714Y-135741580D01*
X210264714Y-135741580D02*
X210217095Y-135646342D01*
X210217095Y-135646342D02*
X210217095Y-134836819D01*
X209883761Y-134836819D02*
X209312333Y-134836819D01*
X209598047Y-135836819D02*
X209598047Y-134836819D01*
X213058333Y-130137819D02*
X213058333Y-130852104D01*
X213058333Y-130852104D02*
X213105952Y-130994961D01*
X213105952Y-130994961D02*
X213201190Y-131090200D01*
X213201190Y-131090200D02*
X213344047Y-131137819D01*
X213344047Y-131137819D02*
X213439285Y-131137819D01*
X212629761Y-130233057D02*
X212582142Y-130185438D01*
X212582142Y-130185438D02*
X212486904Y-130137819D01*
X212486904Y-130137819D02*
X212248809Y-130137819D01*
X212248809Y-130137819D02*
X212153571Y-130185438D01*
X212153571Y-130185438D02*
X212105952Y-130233057D01*
X212105952Y-130233057D02*
X212058333Y-130328295D01*
X212058333Y-130328295D02*
X212058333Y-130423533D01*
X212058333Y-130423533D02*
X212105952Y-130566390D01*
X212105952Y-130566390D02*
X212677380Y-131137819D01*
X212677380Y-131137819D02*
X212058333Y-131137819D01*
D10*
%TO.C,U2*%
X208915000Y-116205000D02*
G75*
G03*
X208915000Y-116205000I-7620000J0D01*
G01*
%TO.C,U4*%
X167006500Y-116205000D02*
G75*
G03*
X167006500Y-116205000I-7620000J0D01*
G01*
%TO.C,J7*%
X142495000Y-128590000D02*
X138135000Y-128590000D01*
X142495000Y-127950000D02*
X142495000Y-128590000D01*
X142495000Y-127950000D02*
X138135000Y-127950000D01*
X142495000Y-126050000D02*
X138135000Y-126050000D01*
X142495000Y-125410000D02*
X142495000Y-126050000D01*
X142495000Y-125410000D02*
X138135000Y-125410000D01*
X142495000Y-123510000D02*
X138135000Y-123510000D01*
X142495000Y-122870000D02*
X142495000Y-123510000D01*
X142495000Y-122870000D02*
X138135000Y-122870000D01*
X142495000Y-120970000D02*
X138135000Y-120970000D01*
X142495000Y-120330000D02*
X142495000Y-120970000D01*
X142495000Y-120330000D02*
X138135000Y-120330000D01*
X138135000Y-129540000D02*
X138135000Y-120015000D01*
X138135000Y-120015000D02*
X137500000Y-119380000D01*
X137500000Y-119380000D02*
X135595000Y-119380000D01*
X135595000Y-129540000D02*
X138135000Y-129540000D01*
X135595000Y-128590000D02*
X129595000Y-128590000D01*
X135595000Y-127950000D02*
X129595000Y-127950000D01*
X135595000Y-126050000D02*
X129595000Y-126050000D01*
X135595000Y-125410000D02*
X129595000Y-125410000D01*
X135595000Y-123510000D02*
X129595000Y-123510000D01*
X135595000Y-122870000D02*
X129595000Y-122870000D01*
X135595000Y-120970000D02*
X129595000Y-120970000D01*
X135595000Y-120330000D02*
X129595000Y-120330000D01*
X135595000Y-119380000D02*
X135595000Y-129540000D01*
X129595000Y-127950000D02*
X129595000Y-128590000D01*
X129595000Y-125410000D02*
X129595000Y-126050000D01*
X129595000Y-122870000D02*
X129595000Y-123510000D01*
X129595000Y-120330000D02*
X129595000Y-120970000D01*
%TO.C,C2*%
X191925000Y-131810000D02*
X191925000Y-124810000D01*
X195425000Y-131810000D02*
X191925000Y-131810000D01*
X191925000Y-124810000D02*
X195425000Y-124810000D01*
X195425000Y-124810000D02*
X195425000Y-131810000D01*
%TO.C,C3*%
X170787000Y-98100000D02*
X170787000Y-105100000D01*
X167287000Y-98100000D02*
X170787000Y-98100000D01*
X170787000Y-105100000D02*
X167287000Y-105100000D01*
X167287000Y-105100000D02*
X167287000Y-98100000D01*
%TO.C,U1*%
X206375000Y-125730000D02*
X197215000Y-125730000D01*
X197215000Y-125730000D02*
X196215000Y-126730000D01*
X196215000Y-126730000D02*
X196215000Y-132080000D01*
X206375000Y-132080000D02*
X206375000Y-125730000D01*
X196215000Y-132080000D02*
X206375000Y-132080000D01*
%TO.C,J10*%
X150421000Y-131904000D02*
X150421000Y-130654000D01*
X150831000Y-126994000D02*
X170731000Y-126994000D01*
X150831000Y-131494000D02*
X150831000Y-126994000D01*
X151671000Y-131904000D02*
X150421000Y-131904000D01*
X170731000Y-126994000D02*
X170731000Y-131494000D01*
X170731000Y-131494000D02*
X150831000Y-131494000D01*
%TO.C,SW2*%
X162672000Y-107950000D02*
X169657000Y-107950000D01*
X169657000Y-107950000D02*
X170292000Y-107315000D01*
X170292000Y-107315000D02*
X170292000Y-105410000D01*
X162672000Y-105410000D02*
X162672000Y-107950000D01*
X170292000Y-105410000D02*
X162672000Y-105410000D01*
%TO.C,J3*%
X217805000Y-94110000D02*
X207645000Y-94110000D01*
X207645000Y-94110000D02*
X207645000Y-101650000D01*
X207645000Y-101650000D02*
X208615000Y-102620000D01*
X217805000Y-102620000D02*
X217805000Y-94110000D01*
X216835000Y-102620000D02*
X216835000Y-104140000D01*
X214295000Y-102620000D02*
X214295000Y-104140000D01*
X211755000Y-102620000D02*
X211755000Y-104140000D01*
X209215000Y-102620000D02*
X209215000Y-104140000D01*
X208615000Y-102620000D02*
X217805000Y-102620000D01*
X216835000Y-104140000D02*
X216235000Y-104140000D01*
X216235000Y-104140000D02*
X216235000Y-102620000D01*
X214295000Y-104140000D02*
X213695000Y-104140000D01*
X213695000Y-104140000D02*
X213695000Y-102620000D01*
X211755000Y-104140000D02*
X211155000Y-104140000D01*
X211155000Y-104140000D02*
X211155000Y-102620000D01*
X209215000Y-104140000D02*
X208615000Y-104140000D01*
X208615000Y-104140000D02*
X208615000Y-102620000D01*
%TO.C,J10B1*%
X172085000Y-131103500D02*
X149860000Y-131103500D01*
X149860000Y-131103500D02*
X149225000Y-131738500D01*
X149225000Y-131738500D02*
X149225000Y-133643500D01*
X172085000Y-133643500D02*
X172085000Y-131103500D01*
X149225000Y-133643500D02*
X172085000Y-133643500D01*
%TO.C,C1*%
X166687000Y-100838000D02*
G75*
G03*
X166687000Y-100838000I-4000000J0D01*
G01*
%TO.C,J9*%
X145464000Y-112575000D02*
X146714000Y-112575000D01*
X150374000Y-112985000D02*
X150374000Y-132885000D01*
X145874000Y-112985000D02*
X150374000Y-112985000D01*
X145464000Y-113825000D02*
X145464000Y-112575000D01*
X150374000Y-132885000D02*
X145874000Y-132885000D01*
X145874000Y-132885000D02*
X145874000Y-112985000D01*
%TO.C,J6*%
X224115000Y-129540000D02*
X224115000Y-119380000D01*
X224115000Y-119380000D02*
X216575000Y-119380000D01*
X216575000Y-119380000D02*
X215605000Y-120350000D01*
X215605000Y-129540000D02*
X224115000Y-129540000D01*
X215605000Y-128570000D02*
X211545000Y-128570000D01*
X215605000Y-126030000D02*
X211545000Y-126030000D01*
X215605000Y-123490000D02*
X211545000Y-123490000D01*
X215605000Y-120950000D02*
X211545000Y-120950000D01*
X215605000Y-120350000D02*
X215605000Y-129540000D01*
X211545000Y-128570000D02*
X211545000Y-127970000D01*
X211545000Y-127970000D02*
X215605000Y-127970000D01*
X211545000Y-126030000D02*
X211545000Y-125430000D01*
X211545000Y-125430000D02*
X215605000Y-125430000D01*
X211545000Y-123490000D02*
X211545000Y-122890000D01*
X211545000Y-122890000D02*
X215605000Y-122890000D01*
X211545000Y-120950000D02*
X211545000Y-120350000D01*
X211545000Y-120350000D02*
X215605000Y-120350000D01*
%TO.C,D1*%
X202355000Y-101885000D02*
X202355000Y-98085000D01*
X202355000Y-101885000D02*
X205355000Y-101885000D01*
X202585000Y-101885000D02*
X202585000Y-101885000D01*
X202585000Y-101885000D02*
X202585000Y-103155000D01*
X202585000Y-103155000D02*
X202585000Y-101885000D01*
X202585000Y-103155000D02*
X202585000Y-103155000D01*
X205125000Y-101885000D02*
X205125000Y-101885000D01*
X205125000Y-101885000D02*
X205125000Y-103155000D01*
X205125000Y-103155000D02*
X205125000Y-101885000D01*
X205125000Y-103155000D02*
X205125000Y-103155000D01*
X205355000Y-100885000D02*
X205355000Y-101885000D01*
X205355000Y-101885000D02*
X205355000Y-98085000D01*
X205355000Y-101885000D02*
X205755000Y-101885000D01*
X205755000Y-100885000D02*
X205355000Y-100885000D01*
X205755000Y-101885000D02*
X205755000Y-100885000D01*
X205355000Y-98085000D02*
G75*
G03*
X202355000Y-98085000I-1500000J0D01*
G01*
%TO.C,SW1*%
X199005000Y-103735000D02*
X191505000Y-103735000D01*
X199005000Y-98235000D02*
X199005000Y-103735000D01*
X197005000Y-98235000D02*
X197005000Y-96985000D01*
X197005000Y-96985000D02*
X193505000Y-96985000D01*
X193505000Y-96985000D02*
X193505000Y-98235000D01*
X191505000Y-103735000D02*
X191505000Y-98235000D01*
X191505000Y-98235000D02*
X199005000Y-98235000D01*
D11*
%TO.C,U3*%
X189230000Y-130810000D02*
X186690000Y-130810000D01*
X189230000Y-100330000D02*
X189230000Y-130810000D01*
X189230000Y-100330000D02*
X186690000Y-100330000D01*
X186690000Y-100330000D02*
X186690000Y-130810000D01*
X176915900Y-119514000D02*
X176915900Y-124594600D01*
X176915900Y-114180600D02*
X174375900Y-114180600D01*
X176915900Y-109100600D02*
X176915900Y-114180600D01*
X174375900Y-124594600D02*
X176915900Y-124594600D01*
X174375900Y-119514000D02*
X176915900Y-119514000D01*
X174375900Y-119514000D02*
X174375900Y-124594600D01*
X174375900Y-109100600D02*
X176915900Y-109100600D01*
X174375900Y-109100600D02*
X174375900Y-114180600D01*
X173990000Y-130810000D02*
X171450000Y-130810000D01*
X173990000Y-100330000D02*
X173990000Y-130810000D01*
X173990000Y-100330000D02*
X171450000Y-100330000D01*
X171450000Y-100330000D02*
X171450000Y-130810000D01*
D10*
%TO.C,J1*%
X176210000Y-107000000D02*
X176210000Y-105180000D01*
X176850000Y-107000000D02*
X176210000Y-107000000D01*
X176850000Y-107000000D02*
X176850000Y-105180000D01*
X178750000Y-107000000D02*
X178750000Y-105180000D01*
X179390000Y-107000000D02*
X178750000Y-107000000D01*
X179390000Y-107000000D02*
X179390000Y-105180000D01*
X181290000Y-107000000D02*
X181290000Y-105180000D01*
X181930000Y-107000000D02*
X181290000Y-107000000D01*
X181930000Y-107000000D02*
X181930000Y-105180000D01*
X183830000Y-107000000D02*
X183830000Y-105180000D01*
X184470000Y-107000000D02*
X183830000Y-107000000D01*
X184470000Y-107000000D02*
X184470000Y-105180000D01*
X175260000Y-105180000D02*
X184785000Y-105180000D01*
X184785000Y-105180000D02*
X185420000Y-104545000D01*
X185420000Y-104545000D02*
X185420000Y-102640000D01*
X175260000Y-102640000D02*
X175260000Y-105180000D01*
X176210000Y-102640000D02*
X176210000Y-96640000D01*
X176850000Y-102640000D02*
X176850000Y-96640000D01*
X178750000Y-102640000D02*
X178750000Y-96640000D01*
X179390000Y-102640000D02*
X179390000Y-96640000D01*
X181290000Y-102640000D02*
X181290000Y-96640000D01*
X181930000Y-102640000D02*
X181930000Y-96640000D01*
X183830000Y-102640000D02*
X183830000Y-96640000D01*
X184470000Y-102640000D02*
X184470000Y-96640000D01*
X185420000Y-102640000D02*
X175260000Y-102640000D01*
X176850000Y-96640000D02*
X176210000Y-96640000D01*
X179390000Y-96640000D02*
X178750000Y-96640000D01*
X181930000Y-96640000D02*
X181290000Y-96640000D01*
X184470000Y-96640000D02*
X183830000Y-96640000D01*
%TO.C,J5*%
X224025000Y-117475000D02*
X224025000Y-107315000D01*
X224025000Y-107315000D02*
X216485000Y-107315000D01*
X216485000Y-107315000D02*
X215515000Y-108285000D01*
X215515000Y-117475000D02*
X224025000Y-117475000D01*
X215515000Y-116505000D02*
X213995000Y-116505000D01*
X215515000Y-113965000D02*
X213995000Y-113965000D01*
X215515000Y-111425000D02*
X213995000Y-111425000D01*
X215515000Y-108885000D02*
X213995000Y-108885000D01*
X215515000Y-108285000D02*
X215515000Y-117475000D01*
X213995000Y-116505000D02*
X213995000Y-115905000D01*
X213995000Y-115905000D02*
X215515000Y-115905000D01*
X213995000Y-113965000D02*
X213995000Y-113365000D01*
X213995000Y-113365000D02*
X215515000Y-113365000D01*
X213995000Y-111425000D02*
X213995000Y-110825000D01*
X213995000Y-110825000D02*
X215515000Y-110825000D01*
X213995000Y-108885000D02*
X213995000Y-108285000D01*
X213995000Y-108285000D02*
X215515000Y-108285000D01*
%TO.C,J9B1*%
X146304000Y-134112000D02*
X146304000Y-111887000D01*
X146304000Y-111887000D02*
X145669000Y-111252000D01*
X145669000Y-111252000D02*
X143764000Y-111252000D01*
X143764000Y-134112000D02*
X146304000Y-134112000D01*
X143764000Y-111252000D02*
X143764000Y-134112000D01*
%TO.C,R1*%
X205105000Y-107950000D02*
X205845000Y-107950000D01*
X205845000Y-107150000D02*
X209445000Y-107150000D01*
X205845000Y-108750000D02*
X205845000Y-107150000D01*
X209445000Y-107150000D02*
X209445000Y-108750000D01*
X209445000Y-108750000D02*
X205845000Y-108750000D01*
X210185000Y-107950000D02*
X209445000Y-107950000D01*
%TO.C,J4*%
X140020000Y-116525000D02*
X138200000Y-116525000D01*
X140020000Y-115885000D02*
X140020000Y-116525000D01*
X140020000Y-115885000D02*
X138200000Y-115885000D01*
X140020000Y-113985000D02*
X138200000Y-113985000D01*
X140020000Y-113345000D02*
X140020000Y-113985000D01*
X140020000Y-113345000D02*
X138200000Y-113345000D01*
X140020000Y-111445000D02*
X138200000Y-111445000D01*
X140020000Y-110805000D02*
X140020000Y-111445000D01*
X140020000Y-110805000D02*
X138200000Y-110805000D01*
X140020000Y-108905000D02*
X138200000Y-108905000D01*
X140020000Y-108265000D02*
X140020000Y-108905000D01*
X140020000Y-108265000D02*
X138200000Y-108265000D01*
X138200000Y-117475000D02*
X138200000Y-107950000D01*
X138200000Y-107950000D02*
X137565000Y-107315000D01*
X137565000Y-107315000D02*
X135660000Y-107315000D01*
X135660000Y-117475000D02*
X138200000Y-117475000D01*
X135660000Y-116525000D02*
X129660000Y-116525000D01*
X135660000Y-115885000D02*
X129660000Y-115885000D01*
X135660000Y-113985000D02*
X129660000Y-113985000D01*
X135660000Y-113345000D02*
X129660000Y-113345000D01*
X135660000Y-111445000D02*
X129660000Y-111445000D01*
X135660000Y-110805000D02*
X129660000Y-110805000D01*
X135660000Y-108905000D02*
X129660000Y-108905000D01*
X135660000Y-108265000D02*
X129660000Y-108265000D01*
X135660000Y-107315000D02*
X135660000Y-117475000D01*
X129660000Y-115885000D02*
X129660000Y-116525000D01*
X129660000Y-113345000D02*
X129660000Y-113985000D01*
X129660000Y-110805000D02*
X129660000Y-111445000D01*
X129660000Y-108265000D02*
X129660000Y-108905000D01*
%TO.C,J2*%
X216855000Y-131760000D02*
X216855000Y-133580000D01*
X216215000Y-131760000D02*
X216855000Y-131760000D01*
X216215000Y-131760000D02*
X216215000Y-133580000D01*
X214315000Y-131760000D02*
X214315000Y-133580000D01*
X213675000Y-131760000D02*
X214315000Y-131760000D01*
X213675000Y-131760000D02*
X213675000Y-133580000D01*
X211775000Y-131760000D02*
X211775000Y-133580000D01*
X211135000Y-131760000D02*
X211775000Y-131760000D01*
X211135000Y-131760000D02*
X211135000Y-133580000D01*
X209235000Y-131760000D02*
X209235000Y-133580000D01*
X208595000Y-131760000D02*
X209235000Y-131760000D01*
X208595000Y-131760000D02*
X208595000Y-133580000D01*
X217805000Y-133580000D02*
X208280000Y-133580000D01*
X208280000Y-133580000D02*
X207645000Y-134215000D01*
X207645000Y-134215000D02*
X207645000Y-136120000D01*
X217805000Y-136120000D02*
X217805000Y-133580000D01*
X216855000Y-136120000D02*
X216855000Y-142120000D01*
X216215000Y-136120000D02*
X216215000Y-142120000D01*
X214315000Y-136120000D02*
X214315000Y-142120000D01*
X213675000Y-136120000D02*
X213675000Y-142120000D01*
X211775000Y-136120000D02*
X211775000Y-142120000D01*
X211135000Y-136120000D02*
X211135000Y-142120000D01*
X209235000Y-136120000D02*
X209235000Y-142120000D01*
X208595000Y-136120000D02*
X208595000Y-142120000D01*
X207645000Y-136120000D02*
X217805000Y-136120000D01*
X216215000Y-142120000D02*
X216855000Y-142120000D01*
X213675000Y-142120000D02*
X214315000Y-142120000D01*
X211135000Y-142120000D02*
X211775000Y-142120000D01*
X208595000Y-142120000D02*
X209235000Y-142120000D01*
%TD*%
M02*
