M48
; DRILL file {KiCad 7.0.7} date Sun Sep 10 17:47:18 2023
; FORMAT={-:-/ absolute / inch / decimal}
; #@! TF.CreationDate,2023-09-10T17:47:18+02:00
; #@! TF.GenerationSoftware,Kicad,Pcbnew,7.0.7
; #@! TF.FileFunction,Plated,1,2,PTH
FMAT,2
INCH
; #@! TA.AperFunction,Plated,PTH,ViaDrill
T1C0.0236
; #@! TA.AperFunction,Plated,PTH,ComponentDrill
T2C0.0276
; #@! TA.AperFunction,Plated,PTH,ComponentDrill
T3C0.0295
; #@! TA.AperFunction,Plated,PTH,ComponentDrill
T4C0.0300
; #@! TA.AperFunction,Plated,PTH,ComponentDrill
T5C0.0315
; #@! TA.AperFunction,Plated,PTH,ComponentDrill
T6C0.0354
; #@! TA.AperFunction,Plated,PTH,ComponentDrill
T7C0.0394
; #@! TA.AperFunction,Plated,PTH,ComponentDrill
T8C0.0400
; #@! TA.AperFunction,Plated,PTH,ComponentDrill
T9C0.0433
%
G90
G05
T1
X5.635Y-4.655
X5.77Y-4.315
X5.8487Y-4.4013
X6.07Y-4.755
X6.57Y-4.9
X6.6098Y-4.7998
X6.61Y-4.8601
X6.6424Y-4.7274
X6.6437Y-4.7687
X6.645Y-4.8299
X6.67Y-4.35
X6.7395Y-4.5495
X6.76Y-4.2516
X6.85Y-5.16
X6.97Y-4.14
X7.04Y-4.9
X7.135Y-4.705
X7.175Y-4.6
X7.225Y-4.525
X7.225Y-5.075
X7.225Y-5.125
X7.25Y-4.39
X7.25Y-4.45
X7.25Y-4.975
X7.3Y-4.85
X7.3Y-4.95
X7.315Y-5.225
X7.495Y-4.43
X7.845Y-5.065
X8.125Y-5.18
T2
X8.075Y-4.25
X8.275Y-4.25
T3
X5.81Y-4.525
X5.81Y-4.6037
X5.81Y-4.6825
X5.81Y-4.7612
X5.81Y-4.84
X5.81Y-4.9187
X5.81Y-4.9974
X5.81Y-5.0762
X5.81Y-5.1549
X6.015Y-5.11
X6.0937Y-5.11
X6.1725Y-5.11
X6.2512Y-5.11
X6.33Y-5.11
X6.4087Y-5.11
X6.4874Y-5.11
X6.5662Y-5.11
X6.6449Y-5.11
T4
X6.9327Y-4.0917
X6.9327Y-4.9894
X7.0311Y-3.8811
X7.0311Y-5.2
X7.1689Y-5.2
X7.2673Y-4.0445
X7.2673Y-5.0366
T5
X6.405Y-3.9011
X6.405Y-4.0389
X6.655Y-3.9016
X6.655Y-4.0984
X7.625Y-4.9531
X7.625Y-5.15
X7.775Y-4.925
X7.775Y-5.225
X7.875Y-4.925
X7.875Y-5.225
X7.975Y-4.925
X7.975Y-5.225
X8.075Y-4.925
X8.075Y-5.225
T6
X7.9758Y-4.0612
X8.0758Y-4.0612
T7
X5.4974Y-4.75
X5.4974Y-4.85
X5.4974Y-4.95
X5.4974Y-5.05
X5.5Y-4.275
X5.5Y-4.375
X5.5Y-4.475
X5.5Y-4.575
X5.5974Y-4.75
X5.5974Y-4.85
X5.5974Y-4.95
X5.5974Y-5.05
X5.71Y-4.43
X5.71Y-4.53
X5.71Y-4.63
X5.71Y-4.73
X5.71Y-4.83
X5.71Y-4.93
X5.71Y-5.03
X5.71Y-5.13
X5.71Y-5.23
X5.925Y-5.2116
X5.9356Y-4.377
X6.0064Y-4.3063
X6.025Y-5.2116
X6.0771Y-4.2356
X6.125Y-5.2116
X6.225Y-5.2116
X6.325Y-5.2116
X6.425Y-5.2116
X6.4544Y-4.2
X6.525Y-5.2116
X6.5544Y-4.2
X6.625Y-5.2116
X6.6544Y-4.2
X6.725Y-5.2116
X6.95Y-4.2
X7.05Y-4.2
X7.15Y-4.2
X7.25Y-4.2
X7.5856Y-4.377
X7.6563Y-4.3063
X7.727Y-4.2356
X8.225Y-4.1
X8.225Y-5.2
X8.325Y-4.1
X8.325Y-5.2
X8.3285Y-4.75
X8.3285Y-4.85
X8.3285Y-4.95
X8.3285Y-5.05
X8.425Y-4.1
X8.425Y-4.275
X8.425Y-4.375
X8.425Y-4.475
X8.425Y-4.575
X8.425Y-5.2
X8.4285Y-4.75
X8.4285Y-4.85
X8.4285Y-4.95
X8.4285Y-5.05
X8.525Y-4.1
X8.525Y-5.2
T8
X6.8Y-4.0
X6.8Y-4.1
X6.8Y-4.2
X6.8Y-4.3
X6.8Y-4.4
X6.8Y-4.5
X6.8Y-4.6
X6.8Y-4.7
X6.8Y-4.8
X6.8Y-4.9
X6.8Y-5.0
X6.8Y-5.1
X6.9Y-5.1
X6.9152Y-4.3453
X6.9152Y-4.4453
X6.9152Y-4.7553
X6.9152Y-4.8553
X7.0Y-5.1
X7.1Y-5.1
X7.4Y-4.0
X7.4Y-4.1
X7.4Y-4.2
X7.4Y-4.3
X7.4Y-4.4
X7.4Y-4.5
X7.4Y-4.6
X7.4Y-4.7
X7.4Y-4.8
X7.4Y-4.9
X7.4Y-5.0
X7.4Y-5.1
T9
X7.5494Y-4.025
X7.5986Y-3.9266
X7.7758Y-3.9266
X7.825Y-4.025
T0
M30
