%TF.GenerationSoftware,KiCad,Pcbnew,7.0.7*%
%TF.CreationDate,2023-09-10T17:47:19+02:00*%
%TF.ProjectId,Angle&Ana&Sw,416e676c-6526-4416-9e61-2653772e6b69,1.0*%
%TF.SameCoordinates,Original*%
%TF.FileFunction,Drillmap*%
%TF.FilePolarity,Positive*%
%FSLAX45Y45*%
G04 Gerber Fmt 4.5, Leading zero omitted, Abs format (unit mm)*
G04 Created by KiCad (PCBNEW 7.0.7) date 2023-09-10 17:47:19*
%MOMM*%
%LPD*%
G01*
G04 APERTURE LIST*
%ADD10C,0.050000*%
%ADD11C,0.200000*%
%ADD12C,0.060000*%
%ADD13C,0.070000*%
%ADD14C,0.075000*%
%ADD15C,0.076200*%
%ADD16C,0.080000*%
%ADD17C,0.090000*%
%ADD18C,0.100000*%
%ADD19C,0.101600*%
%ADD20C,0.110000*%
G04 APERTURE END LIST*
D10*
X21805900Y-9842500D02*
G75*
G03*
X22034500Y-10071100I228600J0D01*
G01*
X21805900Y-13208000D02*
X21805900Y-13462000D01*
X22034500Y-12979400D02*
X22288500Y-12979400D01*
X21805900Y-13462000D02*
X14262100Y-13462000D01*
X14262452Y-13208000D02*
X14262452Y-13462000D01*
X14033500Y-12979047D02*
X13779500Y-12979047D01*
X22034500Y-12979400D02*
G75*
G03*
X21805900Y-13208000I0J-228600D01*
G01*
X14262100Y-9588500D02*
X21805900Y-9588500D01*
X22288500Y-10071100D02*
X22034500Y-10071100D01*
X14033500Y-10071100D02*
X13779500Y-10071100D01*
X14262100Y-9842500D02*
X14262100Y-9588500D01*
X22288500Y-12979400D02*
X22288500Y-10071100D01*
X14033500Y-10071100D02*
G75*
G03*
X14262100Y-9842500I0J228600D01*
G01*
X14262452Y-13208000D02*
G75*
G03*
X14033500Y-12979047I-228953J0D01*
G01*
X13779500Y-12979400D02*
X13779500Y-10071100D01*
X21805900Y-9842500D02*
X21805900Y-9588500D01*
D11*
D12*
X14282900Y-11793700D02*
X14342900Y-11853700D01*
X14342900Y-11793700D02*
X14282900Y-11853700D01*
X14625800Y-10930100D02*
X14685800Y-10990100D01*
X14685800Y-10930100D02*
X14625800Y-10990100D01*
X14825742Y-11149258D02*
X14885742Y-11209258D01*
X14885742Y-11149258D02*
X14825742Y-11209258D01*
X15387800Y-12047700D02*
X15447800Y-12107700D01*
X15447800Y-12047700D02*
X15387800Y-12107700D01*
X16657800Y-12416000D02*
X16717800Y-12476000D01*
X16717800Y-12416000D02*
X16657800Y-12476000D01*
X16758850Y-12161450D02*
X16818850Y-12221450D01*
X16818850Y-12161450D02*
X16758850Y-12221450D01*
X16759400Y-12314650D02*
X16819400Y-12374650D01*
X16819400Y-12314650D02*
X16759400Y-12374650D01*
X16841783Y-11977683D02*
X16901783Y-12037683D01*
X16901783Y-11977683D02*
X16841783Y-12037683D01*
X16845042Y-12082542D02*
X16905042Y-12142542D01*
X16905042Y-12082542D02*
X16845042Y-12142542D01*
X16848300Y-12237950D02*
X16908300Y-12297950D01*
X16908300Y-12237950D02*
X16848300Y-12297950D01*
X16911800Y-11019000D02*
X16971800Y-11079000D01*
X16971800Y-11019000D02*
X16911800Y-11079000D01*
X17088367Y-11525766D02*
X17148367Y-11585766D01*
X17148367Y-11525766D02*
X17088367Y-11585766D01*
X17140400Y-10769140D02*
X17200400Y-10829140D01*
X17200400Y-10769140D02*
X17140400Y-10829140D01*
X17369000Y-13076400D02*
X17429000Y-13136400D01*
X17429000Y-13076400D02*
X17369000Y-13136400D01*
X17673800Y-10485600D02*
X17733800Y-10545600D01*
X17733800Y-10485600D02*
X17673800Y-10545600D01*
X17851600Y-12416000D02*
X17911600Y-12476000D01*
X17911600Y-12416000D02*
X17851600Y-12476000D01*
X18092900Y-11920700D02*
X18152900Y-11980700D01*
X18152900Y-11920700D02*
X18092900Y-11980700D01*
X18194500Y-11654000D02*
X18254500Y-11714000D01*
X18254500Y-11654000D02*
X18194500Y-11714000D01*
X18321500Y-11463500D02*
X18381500Y-11523500D01*
X18381500Y-11463500D02*
X18321500Y-11523500D01*
X18321500Y-12860500D02*
X18381500Y-12920500D01*
X18381500Y-12860500D02*
X18321500Y-12920500D01*
X18321500Y-12987500D02*
X18381500Y-13047500D01*
X18381500Y-12987500D02*
X18321500Y-13047500D01*
X18385000Y-11120600D02*
X18445000Y-11180600D01*
X18445000Y-11120600D02*
X18385000Y-11180600D01*
X18385000Y-11273000D02*
X18445000Y-11333000D01*
X18445000Y-11273000D02*
X18385000Y-11333000D01*
X18385000Y-12606500D02*
X18445000Y-12666500D01*
X18445000Y-12606500D02*
X18385000Y-12666500D01*
X18512000Y-12289000D02*
X18572000Y-12349000D01*
X18572000Y-12289000D02*
X18512000Y-12349000D01*
X18512000Y-12543000D02*
X18572000Y-12603000D01*
X18572000Y-12543000D02*
X18512000Y-12603000D01*
X18550100Y-13241500D02*
X18610100Y-13301500D01*
X18610100Y-13241500D02*
X18550100Y-13301500D01*
X19007300Y-11222200D02*
X19067300Y-11282200D01*
X19067300Y-11222200D02*
X19007300Y-11282200D01*
X19896300Y-12835100D02*
X19956300Y-12895100D01*
X19956300Y-12835100D02*
X19896300Y-12895100D01*
X20607500Y-13127200D02*
X20667500Y-13187200D01*
X20667500Y-13127200D02*
X20607500Y-13187200D01*
D13*
X20545500Y-10795000D02*
G75*
G03*
X20545500Y-10795000I-35000J0D01*
G01*
X21053500Y-10795000D02*
G75*
G03*
X21053500Y-10795000I-35000J0D01*
G01*
D14*
X14757400Y-11456000D02*
X14757400Y-11531000D01*
X14719900Y-11493500D02*
X14794900Y-11493500D01*
X14757400Y-11656000D02*
X14757400Y-11731000D01*
X14719900Y-11693500D02*
X14794900Y-11693500D01*
X14757400Y-11856000D02*
X14757400Y-11931000D01*
X14719900Y-11893500D02*
X14794900Y-11893500D01*
X14757400Y-12056000D02*
X14757400Y-12131000D01*
X14719900Y-12093500D02*
X14794900Y-12093500D01*
X14757400Y-12256000D02*
X14757400Y-12331000D01*
X14719900Y-12293500D02*
X14794900Y-12293500D01*
X14757400Y-12456000D02*
X14757400Y-12531000D01*
X14719900Y-12493500D02*
X14794900Y-12493500D01*
X14757400Y-12656000D02*
X14757400Y-12731000D01*
X14719900Y-12693500D02*
X14794900Y-12693500D01*
X14757400Y-12856000D02*
X14757400Y-12931000D01*
X14719900Y-12893500D02*
X14794900Y-12893500D01*
X14757400Y-13056000D02*
X14757400Y-13131000D01*
X14719900Y-13093500D02*
X14794900Y-13093500D01*
X15278100Y-12941900D02*
X15278100Y-13016900D01*
X15240600Y-12979400D02*
X15315600Y-12979400D01*
X15478100Y-12941900D02*
X15478100Y-13016900D01*
X15440600Y-12979400D02*
X15515600Y-12979400D01*
X15678100Y-12941900D02*
X15678100Y-13016900D01*
X15640600Y-12979400D02*
X15715600Y-12979400D01*
X15878100Y-12941900D02*
X15878100Y-13016900D01*
X15840600Y-12979400D02*
X15915600Y-12979400D01*
X16078100Y-12941900D02*
X16078100Y-13016900D01*
X16040600Y-12979400D02*
X16115600Y-12979400D01*
X16278100Y-12941900D02*
X16278100Y-13016900D01*
X16240600Y-12979400D02*
X16315600Y-12979400D01*
X16478100Y-12941900D02*
X16478100Y-13016900D01*
X16440600Y-12979400D02*
X16515600Y-12979400D01*
X16678100Y-12941900D02*
X16678100Y-13016900D01*
X16640600Y-12979400D02*
X16715600Y-12979400D01*
X16878100Y-12941900D02*
X16878100Y-13016900D01*
X16840600Y-12979400D02*
X16915600Y-12979400D01*
D15*
X17635941Y-10419941D02*
X17635941Y-10366059D01*
X17582059Y-10366059D01*
X17582059Y-10419941D01*
X17635941Y-10419941D01*
X17635941Y-12699941D02*
X17635941Y-12646059D01*
X17582059Y-12646059D01*
X17582059Y-12699941D01*
X17635941Y-12699941D01*
X17885941Y-9884941D02*
X17885941Y-9831059D01*
X17832059Y-9831059D01*
X17832059Y-9884941D01*
X17885941Y-9884941D01*
X17885941Y-13234941D02*
X17885941Y-13181059D01*
X17832059Y-13181059D01*
X17832059Y-13234941D01*
X17885941Y-13234941D01*
X18235941Y-13234941D02*
X18235941Y-13181059D01*
X18182059Y-13181059D01*
X18182059Y-13234941D01*
X18235941Y-13234941D01*
X18485941Y-10299941D02*
X18485941Y-10246059D01*
X18432059Y-10246059D01*
X18432059Y-10299941D01*
X18485941Y-10299941D01*
X18485941Y-12819941D02*
X18485941Y-12766059D01*
X18432059Y-12766059D01*
X18432059Y-12819941D01*
X18485941Y-12819941D01*
D16*
X16268700Y-9948800D02*
X16308700Y-9908800D01*
X16268700Y-9868800D01*
X16228700Y-9908800D01*
X16268700Y-9948800D01*
X16268700Y-10298800D02*
X16308700Y-10258800D01*
X16268700Y-10218800D01*
X16228700Y-10258800D01*
X16268700Y-10298800D01*
X16903700Y-9950000D02*
X16943700Y-9910000D01*
X16903700Y-9870000D01*
X16863700Y-9910000D01*
X16903700Y-9950000D01*
X16903700Y-10450000D02*
X16943700Y-10410000D01*
X16903700Y-10370000D01*
X16863700Y-10410000D01*
X16903700Y-10450000D01*
X19367500Y-12621000D02*
X19407500Y-12581000D01*
X19367500Y-12541000D01*
X19327500Y-12581000D01*
X19367500Y-12621000D01*
X19367500Y-13121000D02*
X19407500Y-13081000D01*
X19367500Y-13041000D01*
X19327500Y-13081000D01*
X19367500Y-13121000D01*
X19748500Y-12549500D02*
X19788500Y-12509500D01*
X19748500Y-12469500D01*
X19708500Y-12509500D01*
X19748500Y-12549500D01*
X19748500Y-13311500D02*
X19788500Y-13271500D01*
X19748500Y-13231500D01*
X19708500Y-13271500D01*
X19748500Y-13311500D01*
X20002500Y-12549500D02*
X20042500Y-12509500D01*
X20002500Y-12469500D01*
X19962500Y-12509500D01*
X20002500Y-12549500D01*
X20002500Y-13311500D02*
X20042500Y-13271500D01*
X20002500Y-13231500D01*
X19962500Y-13271500D01*
X20002500Y-13311500D01*
X20256500Y-12549500D02*
X20296500Y-12509500D01*
X20256500Y-12469500D01*
X20216500Y-12509500D01*
X20256500Y-12549500D01*
X20256500Y-13311500D02*
X20296500Y-13271500D01*
X20256500Y-13231500D01*
X20216500Y-13271500D01*
X20256500Y-13311500D01*
X20510500Y-12549500D02*
X20550500Y-12509500D01*
X20510500Y-12469500D01*
X20470500Y-12509500D01*
X20510500Y-12549500D01*
X20510500Y-13311500D02*
X20550500Y-13271500D01*
X20510500Y-13231500D01*
X20470500Y-13271500D01*
X20510500Y-13311500D01*
D17*
X20213500Y-10270500D02*
X20303500Y-10360500D01*
X20303500Y-10270500D02*
X20213500Y-10360500D01*
X20303500Y-10315500D02*
G75*
G03*
X20303500Y-10315500I-45000J0D01*
G01*
X20467500Y-10270500D02*
X20557500Y-10360500D01*
X20557500Y-10270500D02*
X20467500Y-10360500D01*
X20557500Y-10315500D02*
G75*
G03*
X20557500Y-10315500I-45000J0D01*
G01*
D18*
X13913500Y-12015000D02*
X14013500Y-12115000D01*
X14013500Y-12015000D02*
X13913500Y-12115000D01*
X13963500Y-12015000D02*
X13963500Y-12115000D01*
X13913500Y-12065000D02*
X14013500Y-12065000D01*
X13913500Y-12269000D02*
X14013500Y-12369000D01*
X14013500Y-12269000D02*
X13913500Y-12369000D01*
X13963500Y-12269000D02*
X13963500Y-12369000D01*
X13913500Y-12319000D02*
X14013500Y-12319000D01*
X13913500Y-12523000D02*
X14013500Y-12623000D01*
X14013500Y-12523000D02*
X13913500Y-12623000D01*
X13963500Y-12523000D02*
X13963500Y-12623000D01*
X13913500Y-12573000D02*
X14013500Y-12573000D01*
X13913500Y-12777000D02*
X14013500Y-12877000D01*
X14013500Y-12777000D02*
X13913500Y-12877000D01*
X13963500Y-12777000D02*
X13963500Y-12877000D01*
X13913500Y-12827000D02*
X14013500Y-12827000D01*
X13920000Y-10808500D02*
X14020000Y-10908500D01*
X14020000Y-10808500D02*
X13920000Y-10908500D01*
X13970000Y-10808500D02*
X13970000Y-10908500D01*
X13920000Y-10858500D02*
X14020000Y-10858500D01*
X13920000Y-11062500D02*
X14020000Y-11162500D01*
X14020000Y-11062500D02*
X13920000Y-11162500D01*
X13970000Y-11062500D02*
X13970000Y-11162500D01*
X13920000Y-11112500D02*
X14020000Y-11112500D01*
X13920000Y-11316500D02*
X14020000Y-11416500D01*
X14020000Y-11316500D02*
X13920000Y-11416500D01*
X13970000Y-11316500D02*
X13970000Y-11416500D01*
X13920000Y-11366500D02*
X14020000Y-11366500D01*
X13920000Y-11570500D02*
X14020000Y-11670500D01*
X14020000Y-11570500D02*
X13920000Y-11670500D01*
X13970000Y-11570500D02*
X13970000Y-11670500D01*
X13920000Y-11620500D02*
X14020000Y-11620500D01*
X14167500Y-12015000D02*
X14267500Y-12115000D01*
X14267500Y-12015000D02*
X14167500Y-12115000D01*
X14217500Y-12015000D02*
X14217500Y-12115000D01*
X14167500Y-12065000D02*
X14267500Y-12065000D01*
X14167500Y-12269000D02*
X14267500Y-12369000D01*
X14267500Y-12269000D02*
X14167500Y-12369000D01*
X14217500Y-12269000D02*
X14217500Y-12369000D01*
X14167500Y-12319000D02*
X14267500Y-12319000D01*
X14167500Y-12523000D02*
X14267500Y-12623000D01*
X14267500Y-12523000D02*
X14167500Y-12623000D01*
X14217500Y-12523000D02*
X14217500Y-12623000D01*
X14167500Y-12573000D02*
X14267500Y-12573000D01*
X14167500Y-12777000D02*
X14267500Y-12877000D01*
X14267500Y-12777000D02*
X14167500Y-12877000D01*
X14217500Y-12777000D02*
X14217500Y-12877000D01*
X14167500Y-12827000D02*
X14267500Y-12827000D01*
X14453400Y-11202200D02*
X14553400Y-11302200D01*
X14553400Y-11202200D02*
X14453400Y-11302200D01*
X14503400Y-11202200D02*
X14503400Y-11302200D01*
X14453400Y-11252200D02*
X14553400Y-11252200D01*
X14453400Y-11456200D02*
X14553400Y-11556200D01*
X14553400Y-11456200D02*
X14453400Y-11556200D01*
X14503400Y-11456200D02*
X14503400Y-11556200D01*
X14453400Y-11506200D02*
X14553400Y-11506200D01*
X14453400Y-11710200D02*
X14553400Y-11810200D01*
X14553400Y-11710200D02*
X14453400Y-11810200D01*
X14503400Y-11710200D02*
X14503400Y-11810200D01*
X14453400Y-11760200D02*
X14553400Y-11760200D01*
X14453400Y-11964200D02*
X14553400Y-12064200D01*
X14553400Y-11964200D02*
X14453400Y-12064200D01*
X14503400Y-11964200D02*
X14503400Y-12064200D01*
X14453400Y-12014200D02*
X14553400Y-12014200D01*
X14453400Y-12218200D02*
X14553400Y-12318200D01*
X14553400Y-12218200D02*
X14453400Y-12318200D01*
X14503400Y-12218200D02*
X14503400Y-12318200D01*
X14453400Y-12268200D02*
X14553400Y-12268200D01*
X14453400Y-12472200D02*
X14553400Y-12572200D01*
X14553400Y-12472200D02*
X14453400Y-12572200D01*
X14503400Y-12472200D02*
X14503400Y-12572200D01*
X14453400Y-12522200D02*
X14553400Y-12522200D01*
X14453400Y-12726200D02*
X14553400Y-12826200D01*
X14553400Y-12726200D02*
X14453400Y-12826200D01*
X14503400Y-12726200D02*
X14503400Y-12826200D01*
X14453400Y-12776200D02*
X14553400Y-12776200D01*
X14453400Y-12980200D02*
X14553400Y-13080200D01*
X14553400Y-12980200D02*
X14453400Y-13080200D01*
X14503400Y-12980200D02*
X14503400Y-13080200D01*
X14453400Y-13030200D02*
X14553400Y-13030200D01*
X14453400Y-13234200D02*
X14553400Y-13334200D01*
X14553400Y-13234200D02*
X14453400Y-13334200D01*
X14503400Y-13234200D02*
X14503400Y-13334200D01*
X14453400Y-13284200D02*
X14553400Y-13284200D01*
X14999500Y-13187350D02*
X15099500Y-13287350D01*
X15099500Y-13187350D02*
X14999500Y-13287350D01*
X15049500Y-13187350D02*
X15049500Y-13287350D01*
X14999500Y-13237350D02*
X15099500Y-13237350D01*
X15026545Y-11067606D02*
X15126545Y-11167606D01*
X15126545Y-11067606D02*
X15026545Y-11167606D01*
X15076545Y-11067606D02*
X15076545Y-11167606D01*
X15026545Y-11117606D02*
X15126545Y-11117606D01*
X15206150Y-10888001D02*
X15306150Y-10988001D01*
X15306150Y-10888001D02*
X15206150Y-10988001D01*
X15256150Y-10888001D02*
X15256150Y-10988001D01*
X15206150Y-10938001D02*
X15306150Y-10938001D01*
X15253500Y-13187350D02*
X15353500Y-13287350D01*
X15353500Y-13187350D02*
X15253500Y-13287350D01*
X15303500Y-13187350D02*
X15303500Y-13287350D01*
X15253500Y-13237350D02*
X15353500Y-13237350D01*
X15385756Y-10708395D02*
X15485756Y-10808395D01*
X15485756Y-10708395D02*
X15385756Y-10808395D01*
X15435756Y-10708395D02*
X15435756Y-10808395D01*
X15385756Y-10758395D02*
X15485756Y-10758395D01*
X15507500Y-13187350D02*
X15607500Y-13287350D01*
X15607500Y-13187350D02*
X15507500Y-13287350D01*
X15557500Y-13187350D02*
X15557500Y-13287350D01*
X15507500Y-13237350D02*
X15607500Y-13237350D01*
X15761500Y-13187350D02*
X15861500Y-13287350D01*
X15861500Y-13187350D02*
X15761500Y-13287350D01*
X15811500Y-13187350D02*
X15811500Y-13287350D01*
X15761500Y-13237350D02*
X15861500Y-13237350D01*
X16015500Y-13187350D02*
X16115500Y-13287350D01*
X16115500Y-13187350D02*
X16015500Y-13287350D01*
X16065500Y-13187350D02*
X16065500Y-13287350D01*
X16015500Y-13237350D02*
X16115500Y-13237350D01*
X16269500Y-13187350D02*
X16369500Y-13287350D01*
X16369500Y-13187350D02*
X16269500Y-13287350D01*
X16319500Y-13187350D02*
X16319500Y-13287350D01*
X16269500Y-13237350D02*
X16369500Y-13237350D01*
X16344200Y-10618000D02*
X16444200Y-10718000D01*
X16444200Y-10618000D02*
X16344200Y-10718000D01*
X16394200Y-10618000D02*
X16394200Y-10718000D01*
X16344200Y-10668000D02*
X16444200Y-10668000D01*
X16523500Y-13187350D02*
X16623500Y-13287350D01*
X16623500Y-13187350D02*
X16523500Y-13287350D01*
X16573500Y-13187350D02*
X16573500Y-13287350D01*
X16523500Y-13237350D02*
X16623500Y-13237350D01*
X16598200Y-10618000D02*
X16698200Y-10718000D01*
X16698200Y-10618000D02*
X16598200Y-10718000D01*
X16648200Y-10618000D02*
X16648200Y-10718000D01*
X16598200Y-10668000D02*
X16698200Y-10668000D01*
X16777500Y-13187350D02*
X16877500Y-13287350D01*
X16877500Y-13187350D02*
X16777500Y-13287350D01*
X16827500Y-13187350D02*
X16827500Y-13287350D01*
X16777500Y-13237350D02*
X16877500Y-13237350D01*
X16852200Y-10618000D02*
X16952200Y-10718000D01*
X16952200Y-10618000D02*
X16852200Y-10718000D01*
X16902200Y-10618000D02*
X16902200Y-10718000D01*
X16852200Y-10668000D02*
X16952200Y-10668000D01*
X17031500Y-13187350D02*
X17131500Y-13287350D01*
X17131500Y-13187350D02*
X17031500Y-13287350D01*
X17081500Y-13187350D02*
X17081500Y-13287350D01*
X17031500Y-13237350D02*
X17131500Y-13237350D01*
X17603000Y-10618000D02*
X17703000Y-10718000D01*
X17703000Y-10618000D02*
X17603000Y-10718000D01*
X17653000Y-10618000D02*
X17653000Y-10718000D01*
X17603000Y-10668000D02*
X17703000Y-10668000D01*
X17857000Y-10618000D02*
X17957000Y-10718000D01*
X17957000Y-10618000D02*
X17857000Y-10718000D01*
X17907000Y-10618000D02*
X17907000Y-10718000D01*
X17857000Y-10668000D02*
X17957000Y-10668000D01*
X18111000Y-10618000D02*
X18211000Y-10718000D01*
X18211000Y-10618000D02*
X18111000Y-10718000D01*
X18161000Y-10618000D02*
X18161000Y-10718000D01*
X18111000Y-10668000D02*
X18211000Y-10668000D01*
X18365000Y-10618000D02*
X18465000Y-10718000D01*
X18465000Y-10618000D02*
X18365000Y-10718000D01*
X18415000Y-10618000D02*
X18415000Y-10718000D01*
X18365000Y-10668000D02*
X18465000Y-10668000D01*
X19217395Y-11067606D02*
X19317395Y-11167606D01*
X19317395Y-11067606D02*
X19217395Y-11167606D01*
X19267395Y-11067606D02*
X19267395Y-11167606D01*
X19217395Y-11117606D02*
X19317395Y-11117606D01*
X19397001Y-10888001D02*
X19497001Y-10988001D01*
X19497001Y-10888001D02*
X19397001Y-10988001D01*
X19447001Y-10888001D02*
X19447001Y-10988001D01*
X19397001Y-10938001D02*
X19497001Y-10938001D01*
X19576606Y-10708395D02*
X19676606Y-10808395D01*
X19676606Y-10708395D02*
X19576606Y-10808395D01*
X19626606Y-10708395D02*
X19626606Y-10808395D01*
X19576606Y-10758395D02*
X19676606Y-10758395D01*
X20841500Y-10364000D02*
X20941500Y-10464000D01*
X20941500Y-10364000D02*
X20841500Y-10464000D01*
X20891500Y-10364000D02*
X20891500Y-10464000D01*
X20841500Y-10414000D02*
X20941500Y-10414000D01*
X20841500Y-13158000D02*
X20941500Y-13258000D01*
X20941500Y-13158000D02*
X20841500Y-13258000D01*
X20891500Y-13158000D02*
X20891500Y-13258000D01*
X20841500Y-13208000D02*
X20941500Y-13208000D01*
X21095500Y-10364000D02*
X21195500Y-10464000D01*
X21195500Y-10364000D02*
X21095500Y-10464000D01*
X21145500Y-10364000D02*
X21145500Y-10464000D01*
X21095500Y-10414000D02*
X21195500Y-10414000D01*
X21095500Y-13158000D02*
X21195500Y-13258000D01*
X21195500Y-13158000D02*
X21095500Y-13258000D01*
X21145500Y-13158000D02*
X21145500Y-13258000D01*
X21095500Y-13208000D02*
X21195500Y-13208000D01*
X21104500Y-12015000D02*
X21204500Y-12115000D01*
X21204500Y-12015000D02*
X21104500Y-12115000D01*
X21154500Y-12015000D02*
X21154500Y-12115000D01*
X21104500Y-12065000D02*
X21204500Y-12065000D01*
X21104500Y-12269000D02*
X21204500Y-12369000D01*
X21204500Y-12269000D02*
X21104500Y-12369000D01*
X21154500Y-12269000D02*
X21154500Y-12369000D01*
X21104500Y-12319000D02*
X21204500Y-12319000D01*
X21104500Y-12523000D02*
X21204500Y-12623000D01*
X21204500Y-12523000D02*
X21104500Y-12623000D01*
X21154500Y-12523000D02*
X21154500Y-12623000D01*
X21104500Y-12573000D02*
X21204500Y-12573000D01*
X21104500Y-12777000D02*
X21204500Y-12877000D01*
X21204500Y-12777000D02*
X21104500Y-12877000D01*
X21154500Y-12777000D02*
X21154500Y-12877000D01*
X21104500Y-12827000D02*
X21204500Y-12827000D01*
X21349500Y-10364000D02*
X21449500Y-10464000D01*
X21449500Y-10364000D02*
X21349500Y-10464000D01*
X21399500Y-10364000D02*
X21399500Y-10464000D01*
X21349500Y-10414000D02*
X21449500Y-10414000D01*
X21349500Y-10808500D02*
X21449500Y-10908500D01*
X21449500Y-10808500D02*
X21349500Y-10908500D01*
X21399500Y-10808500D02*
X21399500Y-10908500D01*
X21349500Y-10858500D02*
X21449500Y-10858500D01*
X21349500Y-11062500D02*
X21449500Y-11162500D01*
X21449500Y-11062500D02*
X21349500Y-11162500D01*
X21399500Y-11062500D02*
X21399500Y-11162500D01*
X21349500Y-11112500D02*
X21449500Y-11112500D01*
X21349500Y-11316500D02*
X21449500Y-11416500D01*
X21449500Y-11316500D02*
X21349500Y-11416500D01*
X21399500Y-11316500D02*
X21399500Y-11416500D01*
X21349500Y-11366500D02*
X21449500Y-11366500D01*
X21349500Y-11570500D02*
X21449500Y-11670500D01*
X21449500Y-11570500D02*
X21349500Y-11670500D01*
X21399500Y-11570500D02*
X21399500Y-11670500D01*
X21349500Y-11620500D02*
X21449500Y-11620500D01*
X21349500Y-13158000D02*
X21449500Y-13258000D01*
X21449500Y-13158000D02*
X21349500Y-13258000D01*
X21399500Y-13158000D02*
X21399500Y-13258000D01*
X21349500Y-13208000D02*
X21449500Y-13208000D01*
X21358500Y-12015000D02*
X21458500Y-12115000D01*
X21458500Y-12015000D02*
X21358500Y-12115000D01*
X21408500Y-12015000D02*
X21408500Y-12115000D01*
X21358500Y-12065000D02*
X21458500Y-12065000D01*
X21358500Y-12269000D02*
X21458500Y-12369000D01*
X21458500Y-12269000D02*
X21358500Y-12369000D01*
X21408500Y-12269000D02*
X21408500Y-12369000D01*
X21358500Y-12319000D02*
X21458500Y-12319000D01*
X21358500Y-12523000D02*
X21458500Y-12623000D01*
X21458500Y-12523000D02*
X21358500Y-12623000D01*
X21408500Y-12523000D02*
X21408500Y-12623000D01*
X21358500Y-12573000D02*
X21458500Y-12573000D01*
X21358500Y-12777000D02*
X21458500Y-12877000D01*
X21458500Y-12777000D02*
X21358500Y-12877000D01*
X21408500Y-12777000D02*
X21408500Y-12877000D01*
X21358500Y-12827000D02*
X21458500Y-12827000D01*
X21603500Y-10364000D02*
X21703500Y-10464000D01*
X21703500Y-10364000D02*
X21603500Y-10464000D01*
X21653500Y-10364000D02*
X21653500Y-10464000D01*
X21603500Y-10414000D02*
X21703500Y-10414000D01*
X21603500Y-13158000D02*
X21703500Y-13258000D01*
X21703500Y-13158000D02*
X21603500Y-13258000D01*
X21653500Y-13158000D02*
X21653500Y-13258000D01*
X21603500Y-13208000D02*
X21703500Y-13208000D01*
D19*
X17221200Y-10109200D02*
X17322800Y-10210800D01*
X17322800Y-10109200D02*
X17221200Y-10210800D01*
X17307921Y-10195921D02*
X17307921Y-10124079D01*
X17236079Y-10124079D01*
X17236079Y-10195921D01*
X17307921Y-10195921D01*
X17221200Y-10363200D02*
X17322800Y-10464800D01*
X17322800Y-10363200D02*
X17221200Y-10464800D01*
X17307921Y-10449921D02*
X17307921Y-10378079D01*
X17236079Y-10378079D01*
X17236079Y-10449921D01*
X17307921Y-10449921D01*
X17221200Y-10617200D02*
X17322800Y-10718800D01*
X17322800Y-10617200D02*
X17221200Y-10718800D01*
X17307921Y-10703921D02*
X17307921Y-10632079D01*
X17236079Y-10632079D01*
X17236079Y-10703921D01*
X17307921Y-10703921D01*
X17221200Y-10871200D02*
X17322800Y-10972800D01*
X17322800Y-10871200D02*
X17221200Y-10972800D01*
X17307921Y-10957921D02*
X17307921Y-10886079D01*
X17236079Y-10886079D01*
X17236079Y-10957921D01*
X17307921Y-10957921D01*
X17221200Y-11125200D02*
X17322800Y-11226800D01*
X17322800Y-11125200D02*
X17221200Y-11226800D01*
X17307921Y-11211921D02*
X17307921Y-11140079D01*
X17236079Y-11140079D01*
X17236079Y-11211921D01*
X17307921Y-11211921D01*
X17221200Y-11379200D02*
X17322800Y-11480800D01*
X17322800Y-11379200D02*
X17221200Y-11480800D01*
X17307921Y-11465921D02*
X17307921Y-11394079D01*
X17236079Y-11394079D01*
X17236079Y-11465921D01*
X17307921Y-11465921D01*
X17221200Y-11633200D02*
X17322800Y-11734800D01*
X17322800Y-11633200D02*
X17221200Y-11734800D01*
X17307921Y-11719921D02*
X17307921Y-11648079D01*
X17236079Y-11648079D01*
X17236079Y-11719921D01*
X17307921Y-11719921D01*
X17221200Y-11887200D02*
X17322800Y-11988800D01*
X17322800Y-11887200D02*
X17221200Y-11988800D01*
X17307921Y-11973921D02*
X17307921Y-11902079D01*
X17236079Y-11902079D01*
X17236079Y-11973921D01*
X17307921Y-11973921D01*
X17221200Y-12141200D02*
X17322800Y-12242800D01*
X17322800Y-12141200D02*
X17221200Y-12242800D01*
X17307921Y-12227921D02*
X17307921Y-12156079D01*
X17236079Y-12156079D01*
X17236079Y-12227921D01*
X17307921Y-12227921D01*
X17221200Y-12395200D02*
X17322800Y-12496800D01*
X17322800Y-12395200D02*
X17221200Y-12496800D01*
X17307921Y-12481921D02*
X17307921Y-12410079D01*
X17236079Y-12410079D01*
X17236079Y-12481921D01*
X17307921Y-12481921D01*
X17221200Y-12649200D02*
X17322800Y-12750800D01*
X17322800Y-12649200D02*
X17221200Y-12750800D01*
X17307921Y-12735921D02*
X17307921Y-12664079D01*
X17236079Y-12664079D01*
X17236079Y-12735921D01*
X17307921Y-12735921D01*
X17221200Y-12903200D02*
X17322800Y-13004800D01*
X17322800Y-12903200D02*
X17221200Y-13004800D01*
X17307921Y-12989921D02*
X17307921Y-12918079D01*
X17236079Y-12918079D01*
X17236079Y-12989921D01*
X17307921Y-12989921D01*
X17475200Y-12903200D02*
X17576800Y-13004800D01*
X17576800Y-12903200D02*
X17475200Y-13004800D01*
X17561921Y-12989921D02*
X17561921Y-12918079D01*
X17490079Y-12918079D01*
X17490079Y-12989921D01*
X17561921Y-12989921D01*
X17513790Y-10986260D02*
X17615390Y-11087860D01*
X17615390Y-10986260D02*
X17513790Y-11087860D01*
X17600511Y-11072981D02*
X17600511Y-11001139D01*
X17528669Y-11001139D01*
X17528669Y-11072981D01*
X17600511Y-11072981D01*
X17513790Y-11240260D02*
X17615390Y-11341860D01*
X17615390Y-11240260D02*
X17513790Y-11341860D01*
X17600511Y-11326981D02*
X17600511Y-11255139D01*
X17528669Y-11255139D01*
X17528669Y-11326981D01*
X17600511Y-11326981D01*
X17513790Y-12027600D02*
X17615390Y-12129200D01*
X17615390Y-12027600D02*
X17513790Y-12129200D01*
X17600511Y-12114321D02*
X17600511Y-12042479D01*
X17528669Y-12042479D01*
X17528669Y-12114321D01*
X17600511Y-12114321D01*
X17513790Y-12281660D02*
X17615390Y-12383260D01*
X17615390Y-12281660D02*
X17513790Y-12383260D01*
X17600511Y-12368381D02*
X17600511Y-12296539D01*
X17528669Y-12296539D01*
X17528669Y-12368381D01*
X17600511Y-12368381D01*
X17729200Y-12903200D02*
X17830800Y-13004800D01*
X17830800Y-12903200D02*
X17729200Y-13004800D01*
X17815921Y-12989921D02*
X17815921Y-12918079D01*
X17744079Y-12918079D01*
X17744079Y-12989921D01*
X17815921Y-12989921D01*
X17983200Y-12903200D02*
X18084800Y-13004800D01*
X18084800Y-12903200D02*
X17983200Y-13004800D01*
X18069921Y-12989921D02*
X18069921Y-12918079D01*
X17998079Y-12918079D01*
X17998079Y-12989921D01*
X18069921Y-12989921D01*
X18745200Y-10109200D02*
X18846800Y-10210800D01*
X18846800Y-10109200D02*
X18745200Y-10210800D01*
X18831921Y-10195921D02*
X18831921Y-10124079D01*
X18760079Y-10124079D01*
X18760079Y-10195921D01*
X18831921Y-10195921D01*
X18745200Y-10363200D02*
X18846800Y-10464800D01*
X18846800Y-10363200D02*
X18745200Y-10464800D01*
X18831921Y-10449921D02*
X18831921Y-10378079D01*
X18760079Y-10378079D01*
X18760079Y-10449921D01*
X18831921Y-10449921D01*
X18745200Y-10617200D02*
X18846800Y-10718800D01*
X18846800Y-10617200D02*
X18745200Y-10718800D01*
X18831921Y-10703921D02*
X18831921Y-10632079D01*
X18760079Y-10632079D01*
X18760079Y-10703921D01*
X18831921Y-10703921D01*
X18745200Y-10871200D02*
X18846800Y-10972800D01*
X18846800Y-10871200D02*
X18745200Y-10972800D01*
X18831921Y-10957921D02*
X18831921Y-10886079D01*
X18760079Y-10886079D01*
X18760079Y-10957921D01*
X18831921Y-10957921D01*
X18745200Y-11125200D02*
X18846800Y-11226800D01*
X18846800Y-11125200D02*
X18745200Y-11226800D01*
X18831921Y-11211921D02*
X18831921Y-11140079D01*
X18760079Y-11140079D01*
X18760079Y-11211921D01*
X18831921Y-11211921D01*
X18745200Y-11379200D02*
X18846800Y-11480800D01*
X18846800Y-11379200D02*
X18745200Y-11480800D01*
X18831921Y-11465921D02*
X18831921Y-11394079D01*
X18760079Y-11394079D01*
X18760079Y-11465921D01*
X18831921Y-11465921D01*
X18745200Y-11633200D02*
X18846800Y-11734800D01*
X18846800Y-11633200D02*
X18745200Y-11734800D01*
X18831921Y-11719921D02*
X18831921Y-11648079D01*
X18760079Y-11648079D01*
X18760079Y-11719921D01*
X18831921Y-11719921D01*
X18745200Y-11887200D02*
X18846800Y-11988800D01*
X18846800Y-11887200D02*
X18745200Y-11988800D01*
X18831921Y-11973921D02*
X18831921Y-11902079D01*
X18760079Y-11902079D01*
X18760079Y-11973921D01*
X18831921Y-11973921D01*
X18745200Y-12141200D02*
X18846800Y-12242800D01*
X18846800Y-12141200D02*
X18745200Y-12242800D01*
X18831921Y-12227921D02*
X18831921Y-12156079D01*
X18760079Y-12156079D01*
X18760079Y-12227921D01*
X18831921Y-12227921D01*
X18745200Y-12395200D02*
X18846800Y-12496800D01*
X18846800Y-12395200D02*
X18745200Y-12496800D01*
X18831921Y-12481921D02*
X18831921Y-12410079D01*
X18760079Y-12410079D01*
X18760079Y-12481921D01*
X18831921Y-12481921D01*
X18745200Y-12649200D02*
X18846800Y-12750800D01*
X18846800Y-12649200D02*
X18745200Y-12750800D01*
X18831921Y-12735921D02*
X18831921Y-12664079D01*
X18760079Y-12664079D01*
X18760079Y-12735921D01*
X18831921Y-12735921D01*
X18745200Y-12903200D02*
X18846800Y-13004800D01*
X18846800Y-12903200D02*
X18745200Y-13004800D01*
X18831921Y-12989921D02*
X18831921Y-12918079D01*
X18760079Y-12918079D01*
X18760079Y-12989921D01*
X18831921Y-12989921D01*
D20*
X19120500Y-10168500D02*
X19230500Y-10278500D01*
X19230500Y-10168500D02*
X19120500Y-10278500D01*
X19175500Y-10278500D02*
X19230500Y-10223500D01*
X19175500Y-10168500D01*
X19120500Y-10223500D01*
X19175500Y-10278500D01*
X19245500Y-9918500D02*
X19355500Y-10028500D01*
X19355500Y-9918500D02*
X19245500Y-10028500D01*
X19300500Y-10028500D02*
X19355500Y-9973500D01*
X19300500Y-9918500D01*
X19245500Y-9973500D01*
X19300500Y-10028500D01*
X19695500Y-9918500D02*
X19805500Y-10028500D01*
X19805500Y-9918500D02*
X19695500Y-10028500D01*
X19750500Y-10028500D02*
X19805500Y-9973500D01*
X19750500Y-9918500D01*
X19695500Y-9973500D01*
X19750500Y-10028500D01*
X19820500Y-10168500D02*
X19930500Y-10278500D01*
X19930500Y-10168500D02*
X19820500Y-10278500D01*
X19875500Y-10278500D02*
X19930500Y-10223500D01*
X19875500Y-10168500D01*
X19820500Y-10223500D01*
X19875500Y-10278500D01*
D11*
X14037777Y-13775984D02*
X14037777Y-13575984D01*
X14037777Y-13575984D02*
X14085396Y-13575984D01*
X14085396Y-13575984D02*
X14113967Y-13585508D01*
X14113967Y-13585508D02*
X14133015Y-13604555D01*
X14133015Y-13604555D02*
X14142539Y-13623603D01*
X14142539Y-13623603D02*
X14152062Y-13661698D01*
X14152062Y-13661698D02*
X14152062Y-13690269D01*
X14152062Y-13690269D02*
X14142539Y-13728365D01*
X14142539Y-13728365D02*
X14133015Y-13747412D01*
X14133015Y-13747412D02*
X14113967Y-13766460D01*
X14113967Y-13766460D02*
X14085396Y-13775984D01*
X14085396Y-13775984D02*
X14037777Y-13775984D01*
X14237777Y-13775984D02*
X14237777Y-13642650D01*
X14237777Y-13680746D02*
X14247301Y-13661698D01*
X14247301Y-13661698D02*
X14256824Y-13652174D01*
X14256824Y-13652174D02*
X14275872Y-13642650D01*
X14275872Y-13642650D02*
X14294920Y-13642650D01*
X14361586Y-13775984D02*
X14361586Y-13642650D01*
X14361586Y-13575984D02*
X14352062Y-13585508D01*
X14352062Y-13585508D02*
X14361586Y-13595031D01*
X14361586Y-13595031D02*
X14371110Y-13585508D01*
X14371110Y-13585508D02*
X14361586Y-13575984D01*
X14361586Y-13575984D02*
X14361586Y-13595031D01*
X14485396Y-13775984D02*
X14466348Y-13766460D01*
X14466348Y-13766460D02*
X14456824Y-13747412D01*
X14456824Y-13747412D02*
X14456824Y-13575984D01*
X14590158Y-13775984D02*
X14571110Y-13766460D01*
X14571110Y-13766460D02*
X14561586Y-13747412D01*
X14561586Y-13747412D02*
X14561586Y-13575984D01*
X14818729Y-13775984D02*
X14818729Y-13575984D01*
X14818729Y-13575984D02*
X14885396Y-13718841D01*
X14885396Y-13718841D02*
X14952062Y-13575984D01*
X14952062Y-13575984D02*
X14952062Y-13775984D01*
X15133015Y-13775984D02*
X15133015Y-13671222D01*
X15133015Y-13671222D02*
X15123491Y-13652174D01*
X15123491Y-13652174D02*
X15104443Y-13642650D01*
X15104443Y-13642650D02*
X15066348Y-13642650D01*
X15066348Y-13642650D02*
X15047301Y-13652174D01*
X15133015Y-13766460D02*
X15113967Y-13775984D01*
X15113967Y-13775984D02*
X15066348Y-13775984D01*
X15066348Y-13775984D02*
X15047301Y-13766460D01*
X15047301Y-13766460D02*
X15037777Y-13747412D01*
X15037777Y-13747412D02*
X15037777Y-13728365D01*
X15037777Y-13728365D02*
X15047301Y-13709317D01*
X15047301Y-13709317D02*
X15066348Y-13699793D01*
X15066348Y-13699793D02*
X15113967Y-13699793D01*
X15113967Y-13699793D02*
X15133015Y-13690269D01*
X15228253Y-13642650D02*
X15228253Y-13842650D01*
X15228253Y-13652174D02*
X15247301Y-13642650D01*
X15247301Y-13642650D02*
X15285396Y-13642650D01*
X15285396Y-13642650D02*
X15304443Y-13652174D01*
X15304443Y-13652174D02*
X15313967Y-13661698D01*
X15313967Y-13661698D02*
X15323491Y-13680746D01*
X15323491Y-13680746D02*
X15323491Y-13737888D01*
X15323491Y-13737888D02*
X15313967Y-13756936D01*
X15313967Y-13756936D02*
X15304443Y-13766460D01*
X15304443Y-13766460D02*
X15285396Y-13775984D01*
X15285396Y-13775984D02*
X15247301Y-13775984D01*
X15247301Y-13775984D02*
X15228253Y-13766460D01*
X15409205Y-13756936D02*
X15418729Y-13766460D01*
X15418729Y-13766460D02*
X15409205Y-13775984D01*
X15409205Y-13775984D02*
X15399682Y-13766460D01*
X15399682Y-13766460D02*
X15409205Y-13756936D01*
X15409205Y-13756936D02*
X15409205Y-13775984D01*
X15409205Y-13652174D02*
X15418729Y-13661698D01*
X15418729Y-13661698D02*
X15409205Y-13671222D01*
X15409205Y-13671222D02*
X15399682Y-13661698D01*
X15399682Y-13661698D02*
X15409205Y-13652174D01*
X15409205Y-13652174D02*
X15409205Y-13671222D01*
D12*
X13717000Y-14074500D02*
X13777000Y-14134500D01*
X13777000Y-14074500D02*
X13717000Y-14134500D01*
D11*
X14075872Y-13995984D02*
X14094920Y-13995984D01*
X14094920Y-13995984D02*
X14113967Y-14005508D01*
X14113967Y-14005508D02*
X14123491Y-14015031D01*
X14123491Y-14015031D02*
X14133015Y-14034079D01*
X14133015Y-14034079D02*
X14142539Y-14072174D01*
X14142539Y-14072174D02*
X14142539Y-14119793D01*
X14142539Y-14119793D02*
X14133015Y-14157888D01*
X14133015Y-14157888D02*
X14123491Y-14176936D01*
X14123491Y-14176936D02*
X14113967Y-14186460D01*
X14113967Y-14186460D02*
X14094920Y-14195984D01*
X14094920Y-14195984D02*
X14075872Y-14195984D01*
X14075872Y-14195984D02*
X14056824Y-14186460D01*
X14056824Y-14186460D02*
X14047301Y-14176936D01*
X14047301Y-14176936D02*
X14037777Y-14157888D01*
X14037777Y-14157888D02*
X14028253Y-14119793D01*
X14028253Y-14119793D02*
X14028253Y-14072174D01*
X14028253Y-14072174D02*
X14037777Y-14034079D01*
X14037777Y-14034079D02*
X14047301Y-14015031D01*
X14047301Y-14015031D02*
X14056824Y-14005508D01*
X14056824Y-14005508D02*
X14075872Y-13995984D01*
X14228253Y-14176936D02*
X14237777Y-14186460D01*
X14237777Y-14186460D02*
X14228253Y-14195984D01*
X14228253Y-14195984D02*
X14218729Y-14186460D01*
X14218729Y-14186460D02*
X14228253Y-14176936D01*
X14228253Y-14176936D02*
X14228253Y-14195984D01*
X14409205Y-13995984D02*
X14371110Y-13995984D01*
X14371110Y-13995984D02*
X14352062Y-14005508D01*
X14352062Y-14005508D02*
X14342539Y-14015031D01*
X14342539Y-14015031D02*
X14323491Y-14043603D01*
X14323491Y-14043603D02*
X14313967Y-14081698D01*
X14313967Y-14081698D02*
X14313967Y-14157888D01*
X14313967Y-14157888D02*
X14323491Y-14176936D01*
X14323491Y-14176936D02*
X14333015Y-14186460D01*
X14333015Y-14186460D02*
X14352062Y-14195984D01*
X14352062Y-14195984D02*
X14390158Y-14195984D01*
X14390158Y-14195984D02*
X14409205Y-14186460D01*
X14409205Y-14186460D02*
X14418729Y-14176936D01*
X14418729Y-14176936D02*
X14428253Y-14157888D01*
X14428253Y-14157888D02*
X14428253Y-14110269D01*
X14428253Y-14110269D02*
X14418729Y-14091222D01*
X14418729Y-14091222D02*
X14409205Y-14081698D01*
X14409205Y-14081698D02*
X14390158Y-14072174D01*
X14390158Y-14072174D02*
X14352062Y-14072174D01*
X14352062Y-14072174D02*
X14333015Y-14081698D01*
X14333015Y-14081698D02*
X14323491Y-14091222D01*
X14323491Y-14091222D02*
X14313967Y-14110269D01*
X14552062Y-13995984D02*
X14571110Y-13995984D01*
X14571110Y-13995984D02*
X14590158Y-14005508D01*
X14590158Y-14005508D02*
X14599682Y-14015031D01*
X14599682Y-14015031D02*
X14609205Y-14034079D01*
X14609205Y-14034079D02*
X14618729Y-14072174D01*
X14618729Y-14072174D02*
X14618729Y-14119793D01*
X14618729Y-14119793D02*
X14609205Y-14157888D01*
X14609205Y-14157888D02*
X14599682Y-14176936D01*
X14599682Y-14176936D02*
X14590158Y-14186460D01*
X14590158Y-14186460D02*
X14571110Y-14195984D01*
X14571110Y-14195984D02*
X14552062Y-14195984D01*
X14552062Y-14195984D02*
X14533015Y-14186460D01*
X14533015Y-14186460D02*
X14523491Y-14176936D01*
X14523491Y-14176936D02*
X14513967Y-14157888D01*
X14513967Y-14157888D02*
X14504443Y-14119793D01*
X14504443Y-14119793D02*
X14504443Y-14072174D01*
X14504443Y-14072174D02*
X14513967Y-14034079D01*
X14513967Y-14034079D02*
X14523491Y-14015031D01*
X14523491Y-14015031D02*
X14533015Y-14005508D01*
X14533015Y-14005508D02*
X14552062Y-13995984D01*
X14742539Y-13995984D02*
X14761586Y-13995984D01*
X14761586Y-13995984D02*
X14780634Y-14005508D01*
X14780634Y-14005508D02*
X14790158Y-14015031D01*
X14790158Y-14015031D02*
X14799682Y-14034079D01*
X14799682Y-14034079D02*
X14809205Y-14072174D01*
X14809205Y-14072174D02*
X14809205Y-14119793D01*
X14809205Y-14119793D02*
X14799682Y-14157888D01*
X14799682Y-14157888D02*
X14790158Y-14176936D01*
X14790158Y-14176936D02*
X14780634Y-14186460D01*
X14780634Y-14186460D02*
X14761586Y-14195984D01*
X14761586Y-14195984D02*
X14742539Y-14195984D01*
X14742539Y-14195984D02*
X14723491Y-14186460D01*
X14723491Y-14186460D02*
X14713967Y-14176936D01*
X14713967Y-14176936D02*
X14704443Y-14157888D01*
X14704443Y-14157888D02*
X14694920Y-14119793D01*
X14694920Y-14119793D02*
X14694920Y-14072174D01*
X14694920Y-14072174D02*
X14704443Y-14034079D01*
X14704443Y-14034079D02*
X14713967Y-14015031D01*
X14713967Y-14015031D02*
X14723491Y-14005508D01*
X14723491Y-14005508D02*
X14742539Y-13995984D01*
X14894920Y-14195984D02*
X14894920Y-14062650D01*
X14894920Y-14081698D02*
X14904443Y-14072174D01*
X14904443Y-14072174D02*
X14923491Y-14062650D01*
X14923491Y-14062650D02*
X14952063Y-14062650D01*
X14952063Y-14062650D02*
X14971110Y-14072174D01*
X14971110Y-14072174D02*
X14980634Y-14091222D01*
X14980634Y-14091222D02*
X14980634Y-14195984D01*
X14980634Y-14091222D02*
X14990158Y-14072174D01*
X14990158Y-14072174D02*
X15009205Y-14062650D01*
X15009205Y-14062650D02*
X15037777Y-14062650D01*
X15037777Y-14062650D02*
X15056824Y-14072174D01*
X15056824Y-14072174D02*
X15066348Y-14091222D01*
X15066348Y-14091222D02*
X15066348Y-14195984D01*
X15161586Y-14195984D02*
X15161586Y-14062650D01*
X15161586Y-14081698D02*
X15171110Y-14072174D01*
X15171110Y-14072174D02*
X15190158Y-14062650D01*
X15190158Y-14062650D02*
X15218729Y-14062650D01*
X15218729Y-14062650D02*
X15237777Y-14072174D01*
X15237777Y-14072174D02*
X15247301Y-14091222D01*
X15247301Y-14091222D02*
X15247301Y-14195984D01*
X15247301Y-14091222D02*
X15256824Y-14072174D01*
X15256824Y-14072174D02*
X15275872Y-14062650D01*
X15275872Y-14062650D02*
X15304443Y-14062650D01*
X15304443Y-14062650D02*
X15323491Y-14072174D01*
X15323491Y-14072174D02*
X15333015Y-14091222D01*
X15333015Y-14091222D02*
X15333015Y-14195984D01*
X15723491Y-13986460D02*
X15552063Y-14243603D01*
X15980634Y-13995984D02*
X15999682Y-13995984D01*
X15999682Y-13995984D02*
X16018729Y-14005508D01*
X16018729Y-14005508D02*
X16028253Y-14015031D01*
X16028253Y-14015031D02*
X16037777Y-14034079D01*
X16037777Y-14034079D02*
X16047301Y-14072174D01*
X16047301Y-14072174D02*
X16047301Y-14119793D01*
X16047301Y-14119793D02*
X16037777Y-14157888D01*
X16037777Y-14157888D02*
X16028253Y-14176936D01*
X16028253Y-14176936D02*
X16018729Y-14186460D01*
X16018729Y-14186460D02*
X15999682Y-14195984D01*
X15999682Y-14195984D02*
X15980634Y-14195984D01*
X15980634Y-14195984D02*
X15961586Y-14186460D01*
X15961586Y-14186460D02*
X15952063Y-14176936D01*
X15952063Y-14176936D02*
X15942539Y-14157888D01*
X15942539Y-14157888D02*
X15933015Y-14119793D01*
X15933015Y-14119793D02*
X15933015Y-14072174D01*
X15933015Y-14072174D02*
X15942539Y-14034079D01*
X15942539Y-14034079D02*
X15952063Y-14015031D01*
X15952063Y-14015031D02*
X15961586Y-14005508D01*
X15961586Y-14005508D02*
X15980634Y-13995984D01*
X16133015Y-14176936D02*
X16142539Y-14186460D01*
X16142539Y-14186460D02*
X16133015Y-14195984D01*
X16133015Y-14195984D02*
X16123491Y-14186460D01*
X16123491Y-14186460D02*
X16133015Y-14176936D01*
X16133015Y-14176936D02*
X16133015Y-14195984D01*
X16266348Y-13995984D02*
X16285396Y-13995984D01*
X16285396Y-13995984D02*
X16304444Y-14005508D01*
X16304444Y-14005508D02*
X16313967Y-14015031D01*
X16313967Y-14015031D02*
X16323491Y-14034079D01*
X16323491Y-14034079D02*
X16333015Y-14072174D01*
X16333015Y-14072174D02*
X16333015Y-14119793D01*
X16333015Y-14119793D02*
X16323491Y-14157888D01*
X16323491Y-14157888D02*
X16313967Y-14176936D01*
X16313967Y-14176936D02*
X16304444Y-14186460D01*
X16304444Y-14186460D02*
X16285396Y-14195984D01*
X16285396Y-14195984D02*
X16266348Y-14195984D01*
X16266348Y-14195984D02*
X16247301Y-14186460D01*
X16247301Y-14186460D02*
X16237777Y-14176936D01*
X16237777Y-14176936D02*
X16228253Y-14157888D01*
X16228253Y-14157888D02*
X16218729Y-14119793D01*
X16218729Y-14119793D02*
X16218729Y-14072174D01*
X16218729Y-14072174D02*
X16228253Y-14034079D01*
X16228253Y-14034079D02*
X16237777Y-14015031D01*
X16237777Y-14015031D02*
X16247301Y-14005508D01*
X16247301Y-14005508D02*
X16266348Y-13995984D01*
X16409206Y-14015031D02*
X16418729Y-14005508D01*
X16418729Y-14005508D02*
X16437777Y-13995984D01*
X16437777Y-13995984D02*
X16485396Y-13995984D01*
X16485396Y-13995984D02*
X16504444Y-14005508D01*
X16504444Y-14005508D02*
X16513967Y-14015031D01*
X16513967Y-14015031D02*
X16523491Y-14034079D01*
X16523491Y-14034079D02*
X16523491Y-14053127D01*
X16523491Y-14053127D02*
X16513967Y-14081698D01*
X16513967Y-14081698D02*
X16399682Y-14195984D01*
X16399682Y-14195984D02*
X16523491Y-14195984D01*
X16590158Y-13995984D02*
X16713967Y-13995984D01*
X16713967Y-13995984D02*
X16647301Y-14072174D01*
X16647301Y-14072174D02*
X16675872Y-14072174D01*
X16675872Y-14072174D02*
X16694920Y-14081698D01*
X16694920Y-14081698D02*
X16704444Y-14091222D01*
X16704444Y-14091222D02*
X16713967Y-14110269D01*
X16713967Y-14110269D02*
X16713967Y-14157888D01*
X16713967Y-14157888D02*
X16704444Y-14176936D01*
X16704444Y-14176936D02*
X16694920Y-14186460D01*
X16694920Y-14186460D02*
X16675872Y-14195984D01*
X16675872Y-14195984D02*
X16618729Y-14195984D01*
X16618729Y-14195984D02*
X16599682Y-14186460D01*
X16599682Y-14186460D02*
X16590158Y-14176936D01*
X16885396Y-13995984D02*
X16847301Y-13995984D01*
X16847301Y-13995984D02*
X16828253Y-14005508D01*
X16828253Y-14005508D02*
X16818729Y-14015031D01*
X16818729Y-14015031D02*
X16799682Y-14043603D01*
X16799682Y-14043603D02*
X16790158Y-14081698D01*
X16790158Y-14081698D02*
X16790158Y-14157888D01*
X16790158Y-14157888D02*
X16799682Y-14176936D01*
X16799682Y-14176936D02*
X16809206Y-14186460D01*
X16809206Y-14186460D02*
X16828253Y-14195984D01*
X16828253Y-14195984D02*
X16866349Y-14195984D01*
X16866349Y-14195984D02*
X16885396Y-14186460D01*
X16885396Y-14186460D02*
X16894920Y-14176936D01*
X16894920Y-14176936D02*
X16904444Y-14157888D01*
X16904444Y-14157888D02*
X16904444Y-14110269D01*
X16904444Y-14110269D02*
X16894920Y-14091222D01*
X16894920Y-14091222D02*
X16885396Y-14081698D01*
X16885396Y-14081698D02*
X16866349Y-14072174D01*
X16866349Y-14072174D02*
X16828253Y-14072174D01*
X16828253Y-14072174D02*
X16809206Y-14081698D01*
X16809206Y-14081698D02*
X16799682Y-14091222D01*
X16799682Y-14091222D02*
X16790158Y-14110269D01*
X16980634Y-13995984D02*
X16980634Y-14034079D01*
X17056825Y-13995984D02*
X17056825Y-14034079D01*
X17352063Y-14272174D02*
X17342539Y-14262650D01*
X17342539Y-14262650D02*
X17323491Y-14234079D01*
X17323491Y-14234079D02*
X17313968Y-14215031D01*
X17313968Y-14215031D02*
X17304444Y-14186460D01*
X17304444Y-14186460D02*
X17294920Y-14138841D01*
X17294920Y-14138841D02*
X17294920Y-14100746D01*
X17294920Y-14100746D02*
X17304444Y-14053127D01*
X17304444Y-14053127D02*
X17313968Y-14024555D01*
X17313968Y-14024555D02*
X17323491Y-14005508D01*
X17323491Y-14005508D02*
X17342539Y-13976936D01*
X17342539Y-13976936D02*
X17352063Y-13967412D01*
X17409206Y-13995984D02*
X17533015Y-13995984D01*
X17533015Y-13995984D02*
X17466349Y-14072174D01*
X17466349Y-14072174D02*
X17494920Y-14072174D01*
X17494920Y-14072174D02*
X17513968Y-14081698D01*
X17513968Y-14081698D02*
X17523491Y-14091222D01*
X17523491Y-14091222D02*
X17533015Y-14110269D01*
X17533015Y-14110269D02*
X17533015Y-14157888D01*
X17533015Y-14157888D02*
X17523491Y-14176936D01*
X17523491Y-14176936D02*
X17513968Y-14186460D01*
X17513968Y-14186460D02*
X17494920Y-14195984D01*
X17494920Y-14195984D02*
X17437777Y-14195984D01*
X17437777Y-14195984D02*
X17418730Y-14186460D01*
X17418730Y-14186460D02*
X17409206Y-14176936D01*
X17656825Y-13995984D02*
X17675872Y-13995984D01*
X17675872Y-13995984D02*
X17694920Y-14005508D01*
X17694920Y-14005508D02*
X17704444Y-14015031D01*
X17704444Y-14015031D02*
X17713968Y-14034079D01*
X17713968Y-14034079D02*
X17723491Y-14072174D01*
X17723491Y-14072174D02*
X17723491Y-14119793D01*
X17723491Y-14119793D02*
X17713968Y-14157888D01*
X17713968Y-14157888D02*
X17704444Y-14176936D01*
X17704444Y-14176936D02*
X17694920Y-14186460D01*
X17694920Y-14186460D02*
X17675872Y-14195984D01*
X17675872Y-14195984D02*
X17656825Y-14195984D01*
X17656825Y-14195984D02*
X17637777Y-14186460D01*
X17637777Y-14186460D02*
X17628253Y-14176936D01*
X17628253Y-14176936D02*
X17618730Y-14157888D01*
X17618730Y-14157888D02*
X17609206Y-14119793D01*
X17609206Y-14119793D02*
X17609206Y-14072174D01*
X17609206Y-14072174D02*
X17618730Y-14034079D01*
X17618730Y-14034079D02*
X17628253Y-14015031D01*
X17628253Y-14015031D02*
X17637777Y-14005508D01*
X17637777Y-14005508D02*
X17656825Y-13995984D01*
X17961587Y-14195984D02*
X17961587Y-13995984D01*
X18047301Y-14195984D02*
X18047301Y-14091222D01*
X18047301Y-14091222D02*
X18037777Y-14072174D01*
X18037777Y-14072174D02*
X18018730Y-14062650D01*
X18018730Y-14062650D02*
X17990158Y-14062650D01*
X17990158Y-14062650D02*
X17971111Y-14072174D01*
X17971111Y-14072174D02*
X17961587Y-14081698D01*
X18171111Y-14195984D02*
X18152063Y-14186460D01*
X18152063Y-14186460D02*
X18142539Y-14176936D01*
X18142539Y-14176936D02*
X18133015Y-14157888D01*
X18133015Y-14157888D02*
X18133015Y-14100746D01*
X18133015Y-14100746D02*
X18142539Y-14081698D01*
X18142539Y-14081698D02*
X18152063Y-14072174D01*
X18152063Y-14072174D02*
X18171111Y-14062650D01*
X18171111Y-14062650D02*
X18199682Y-14062650D01*
X18199682Y-14062650D02*
X18218730Y-14072174D01*
X18218730Y-14072174D02*
X18228253Y-14081698D01*
X18228253Y-14081698D02*
X18237777Y-14100746D01*
X18237777Y-14100746D02*
X18237777Y-14157888D01*
X18237777Y-14157888D02*
X18228253Y-14176936D01*
X18228253Y-14176936D02*
X18218730Y-14186460D01*
X18218730Y-14186460D02*
X18199682Y-14195984D01*
X18199682Y-14195984D02*
X18171111Y-14195984D01*
X18352063Y-14195984D02*
X18333015Y-14186460D01*
X18333015Y-14186460D02*
X18323492Y-14167412D01*
X18323492Y-14167412D02*
X18323492Y-13995984D01*
X18504444Y-14186460D02*
X18485396Y-14195984D01*
X18485396Y-14195984D02*
X18447301Y-14195984D01*
X18447301Y-14195984D02*
X18428253Y-14186460D01*
X18428253Y-14186460D02*
X18418730Y-14167412D01*
X18418730Y-14167412D02*
X18418730Y-14091222D01*
X18418730Y-14091222D02*
X18428253Y-14072174D01*
X18428253Y-14072174D02*
X18447301Y-14062650D01*
X18447301Y-14062650D02*
X18485396Y-14062650D01*
X18485396Y-14062650D02*
X18504444Y-14072174D01*
X18504444Y-14072174D02*
X18513968Y-14091222D01*
X18513968Y-14091222D02*
X18513968Y-14110269D01*
X18513968Y-14110269D02*
X18418730Y-14129317D01*
X18590158Y-14186460D02*
X18609206Y-14195984D01*
X18609206Y-14195984D02*
X18647301Y-14195984D01*
X18647301Y-14195984D02*
X18666349Y-14186460D01*
X18666349Y-14186460D02*
X18675873Y-14167412D01*
X18675873Y-14167412D02*
X18675873Y-14157888D01*
X18675873Y-14157888D02*
X18666349Y-14138841D01*
X18666349Y-14138841D02*
X18647301Y-14129317D01*
X18647301Y-14129317D02*
X18618730Y-14129317D01*
X18618730Y-14129317D02*
X18599682Y-14119793D01*
X18599682Y-14119793D02*
X18590158Y-14100746D01*
X18590158Y-14100746D02*
X18590158Y-14091222D01*
X18590158Y-14091222D02*
X18599682Y-14072174D01*
X18599682Y-14072174D02*
X18618730Y-14062650D01*
X18618730Y-14062650D02*
X18647301Y-14062650D01*
X18647301Y-14062650D02*
X18666349Y-14072174D01*
X18742539Y-14272174D02*
X18752063Y-14262650D01*
X18752063Y-14262650D02*
X18771111Y-14234079D01*
X18771111Y-14234079D02*
X18780634Y-14215031D01*
X18780634Y-14215031D02*
X18790158Y-14186460D01*
X18790158Y-14186460D02*
X18799682Y-14138841D01*
X18799682Y-14138841D02*
X18799682Y-14100746D01*
X18799682Y-14100746D02*
X18790158Y-14053127D01*
X18790158Y-14053127D02*
X18780634Y-14024555D01*
X18780634Y-14024555D02*
X18771111Y-14005508D01*
X18771111Y-14005508D02*
X18752063Y-13976936D01*
X18752063Y-13976936D02*
X18742539Y-13967412D01*
D13*
X13777000Y-14368500D02*
G75*
G03*
X13777000Y-14368500I-35000J0D01*
G01*
D11*
X14075872Y-14259984D02*
X14094920Y-14259984D01*
X14094920Y-14259984D02*
X14113967Y-14269508D01*
X14113967Y-14269508D02*
X14123491Y-14279031D01*
X14123491Y-14279031D02*
X14133015Y-14298079D01*
X14133015Y-14298079D02*
X14142539Y-14336174D01*
X14142539Y-14336174D02*
X14142539Y-14383793D01*
X14142539Y-14383793D02*
X14133015Y-14421888D01*
X14133015Y-14421888D02*
X14123491Y-14440936D01*
X14123491Y-14440936D02*
X14113967Y-14450460D01*
X14113967Y-14450460D02*
X14094920Y-14459984D01*
X14094920Y-14459984D02*
X14075872Y-14459984D01*
X14075872Y-14459984D02*
X14056824Y-14450460D01*
X14056824Y-14450460D02*
X14047301Y-14440936D01*
X14047301Y-14440936D02*
X14037777Y-14421888D01*
X14037777Y-14421888D02*
X14028253Y-14383793D01*
X14028253Y-14383793D02*
X14028253Y-14336174D01*
X14028253Y-14336174D02*
X14037777Y-14298079D01*
X14037777Y-14298079D02*
X14047301Y-14279031D01*
X14047301Y-14279031D02*
X14056824Y-14269508D01*
X14056824Y-14269508D02*
X14075872Y-14259984D01*
X14228253Y-14440936D02*
X14237777Y-14450460D01*
X14237777Y-14450460D02*
X14228253Y-14459984D01*
X14228253Y-14459984D02*
X14218729Y-14450460D01*
X14218729Y-14450460D02*
X14228253Y-14440936D01*
X14228253Y-14440936D02*
X14228253Y-14459984D01*
X14304443Y-14259984D02*
X14437777Y-14259984D01*
X14437777Y-14259984D02*
X14352062Y-14459984D01*
X14552062Y-14259984D02*
X14571110Y-14259984D01*
X14571110Y-14259984D02*
X14590158Y-14269508D01*
X14590158Y-14269508D02*
X14599682Y-14279031D01*
X14599682Y-14279031D02*
X14609205Y-14298079D01*
X14609205Y-14298079D02*
X14618729Y-14336174D01*
X14618729Y-14336174D02*
X14618729Y-14383793D01*
X14618729Y-14383793D02*
X14609205Y-14421888D01*
X14609205Y-14421888D02*
X14599682Y-14440936D01*
X14599682Y-14440936D02*
X14590158Y-14450460D01*
X14590158Y-14450460D02*
X14571110Y-14459984D01*
X14571110Y-14459984D02*
X14552062Y-14459984D01*
X14552062Y-14459984D02*
X14533015Y-14450460D01*
X14533015Y-14450460D02*
X14523491Y-14440936D01*
X14523491Y-14440936D02*
X14513967Y-14421888D01*
X14513967Y-14421888D02*
X14504443Y-14383793D01*
X14504443Y-14383793D02*
X14504443Y-14336174D01*
X14504443Y-14336174D02*
X14513967Y-14298079D01*
X14513967Y-14298079D02*
X14523491Y-14279031D01*
X14523491Y-14279031D02*
X14533015Y-14269508D01*
X14533015Y-14269508D02*
X14552062Y-14259984D01*
X14742539Y-14259984D02*
X14761586Y-14259984D01*
X14761586Y-14259984D02*
X14780634Y-14269508D01*
X14780634Y-14269508D02*
X14790158Y-14279031D01*
X14790158Y-14279031D02*
X14799682Y-14298079D01*
X14799682Y-14298079D02*
X14809205Y-14336174D01*
X14809205Y-14336174D02*
X14809205Y-14383793D01*
X14809205Y-14383793D02*
X14799682Y-14421888D01*
X14799682Y-14421888D02*
X14790158Y-14440936D01*
X14790158Y-14440936D02*
X14780634Y-14450460D01*
X14780634Y-14450460D02*
X14761586Y-14459984D01*
X14761586Y-14459984D02*
X14742539Y-14459984D01*
X14742539Y-14459984D02*
X14723491Y-14450460D01*
X14723491Y-14450460D02*
X14713967Y-14440936D01*
X14713967Y-14440936D02*
X14704443Y-14421888D01*
X14704443Y-14421888D02*
X14694920Y-14383793D01*
X14694920Y-14383793D02*
X14694920Y-14336174D01*
X14694920Y-14336174D02*
X14704443Y-14298079D01*
X14704443Y-14298079D02*
X14713967Y-14279031D01*
X14713967Y-14279031D02*
X14723491Y-14269508D01*
X14723491Y-14269508D02*
X14742539Y-14259984D01*
X14894920Y-14459984D02*
X14894920Y-14326650D01*
X14894920Y-14345698D02*
X14904443Y-14336174D01*
X14904443Y-14336174D02*
X14923491Y-14326650D01*
X14923491Y-14326650D02*
X14952063Y-14326650D01*
X14952063Y-14326650D02*
X14971110Y-14336174D01*
X14971110Y-14336174D02*
X14980634Y-14355222D01*
X14980634Y-14355222D02*
X14980634Y-14459984D01*
X14980634Y-14355222D02*
X14990158Y-14336174D01*
X14990158Y-14336174D02*
X15009205Y-14326650D01*
X15009205Y-14326650D02*
X15037777Y-14326650D01*
X15037777Y-14326650D02*
X15056824Y-14336174D01*
X15056824Y-14336174D02*
X15066348Y-14355222D01*
X15066348Y-14355222D02*
X15066348Y-14459984D01*
X15161586Y-14459984D02*
X15161586Y-14326650D01*
X15161586Y-14345698D02*
X15171110Y-14336174D01*
X15171110Y-14336174D02*
X15190158Y-14326650D01*
X15190158Y-14326650D02*
X15218729Y-14326650D01*
X15218729Y-14326650D02*
X15237777Y-14336174D01*
X15237777Y-14336174D02*
X15247301Y-14355222D01*
X15247301Y-14355222D02*
X15247301Y-14459984D01*
X15247301Y-14355222D02*
X15256824Y-14336174D01*
X15256824Y-14336174D02*
X15275872Y-14326650D01*
X15275872Y-14326650D02*
X15304443Y-14326650D01*
X15304443Y-14326650D02*
X15323491Y-14336174D01*
X15323491Y-14336174D02*
X15333015Y-14355222D01*
X15333015Y-14355222D02*
X15333015Y-14459984D01*
X15723491Y-14250460D02*
X15552063Y-14507603D01*
X15980634Y-14259984D02*
X15999682Y-14259984D01*
X15999682Y-14259984D02*
X16018729Y-14269508D01*
X16018729Y-14269508D02*
X16028253Y-14279031D01*
X16028253Y-14279031D02*
X16037777Y-14298079D01*
X16037777Y-14298079D02*
X16047301Y-14336174D01*
X16047301Y-14336174D02*
X16047301Y-14383793D01*
X16047301Y-14383793D02*
X16037777Y-14421888D01*
X16037777Y-14421888D02*
X16028253Y-14440936D01*
X16028253Y-14440936D02*
X16018729Y-14450460D01*
X16018729Y-14450460D02*
X15999682Y-14459984D01*
X15999682Y-14459984D02*
X15980634Y-14459984D01*
X15980634Y-14459984D02*
X15961586Y-14450460D01*
X15961586Y-14450460D02*
X15952063Y-14440936D01*
X15952063Y-14440936D02*
X15942539Y-14421888D01*
X15942539Y-14421888D02*
X15933015Y-14383793D01*
X15933015Y-14383793D02*
X15933015Y-14336174D01*
X15933015Y-14336174D02*
X15942539Y-14298079D01*
X15942539Y-14298079D02*
X15952063Y-14279031D01*
X15952063Y-14279031D02*
X15961586Y-14269508D01*
X15961586Y-14269508D02*
X15980634Y-14259984D01*
X16133015Y-14440936D02*
X16142539Y-14450460D01*
X16142539Y-14450460D02*
X16133015Y-14459984D01*
X16133015Y-14459984D02*
X16123491Y-14450460D01*
X16123491Y-14450460D02*
X16133015Y-14440936D01*
X16133015Y-14440936D02*
X16133015Y-14459984D01*
X16266348Y-14259984D02*
X16285396Y-14259984D01*
X16285396Y-14259984D02*
X16304444Y-14269508D01*
X16304444Y-14269508D02*
X16313967Y-14279031D01*
X16313967Y-14279031D02*
X16323491Y-14298079D01*
X16323491Y-14298079D02*
X16333015Y-14336174D01*
X16333015Y-14336174D02*
X16333015Y-14383793D01*
X16333015Y-14383793D02*
X16323491Y-14421888D01*
X16323491Y-14421888D02*
X16313967Y-14440936D01*
X16313967Y-14440936D02*
X16304444Y-14450460D01*
X16304444Y-14450460D02*
X16285396Y-14459984D01*
X16285396Y-14459984D02*
X16266348Y-14459984D01*
X16266348Y-14459984D02*
X16247301Y-14450460D01*
X16247301Y-14450460D02*
X16237777Y-14440936D01*
X16237777Y-14440936D02*
X16228253Y-14421888D01*
X16228253Y-14421888D02*
X16218729Y-14383793D01*
X16218729Y-14383793D02*
X16218729Y-14336174D01*
X16218729Y-14336174D02*
X16228253Y-14298079D01*
X16228253Y-14298079D02*
X16237777Y-14279031D01*
X16237777Y-14279031D02*
X16247301Y-14269508D01*
X16247301Y-14269508D02*
X16266348Y-14259984D01*
X16409206Y-14279031D02*
X16418729Y-14269508D01*
X16418729Y-14269508D02*
X16437777Y-14259984D01*
X16437777Y-14259984D02*
X16485396Y-14259984D01*
X16485396Y-14259984D02*
X16504444Y-14269508D01*
X16504444Y-14269508D02*
X16513967Y-14279031D01*
X16513967Y-14279031D02*
X16523491Y-14298079D01*
X16523491Y-14298079D02*
X16523491Y-14317127D01*
X16523491Y-14317127D02*
X16513967Y-14345698D01*
X16513967Y-14345698D02*
X16399682Y-14459984D01*
X16399682Y-14459984D02*
X16523491Y-14459984D01*
X16590158Y-14259984D02*
X16723491Y-14259984D01*
X16723491Y-14259984D02*
X16637777Y-14459984D01*
X16885396Y-14259984D02*
X16847301Y-14259984D01*
X16847301Y-14259984D02*
X16828253Y-14269508D01*
X16828253Y-14269508D02*
X16818729Y-14279031D01*
X16818729Y-14279031D02*
X16799682Y-14307603D01*
X16799682Y-14307603D02*
X16790158Y-14345698D01*
X16790158Y-14345698D02*
X16790158Y-14421888D01*
X16790158Y-14421888D02*
X16799682Y-14440936D01*
X16799682Y-14440936D02*
X16809206Y-14450460D01*
X16809206Y-14450460D02*
X16828253Y-14459984D01*
X16828253Y-14459984D02*
X16866349Y-14459984D01*
X16866349Y-14459984D02*
X16885396Y-14450460D01*
X16885396Y-14450460D02*
X16894920Y-14440936D01*
X16894920Y-14440936D02*
X16904444Y-14421888D01*
X16904444Y-14421888D02*
X16904444Y-14374269D01*
X16904444Y-14374269D02*
X16894920Y-14355222D01*
X16894920Y-14355222D02*
X16885396Y-14345698D01*
X16885396Y-14345698D02*
X16866349Y-14336174D01*
X16866349Y-14336174D02*
X16828253Y-14336174D01*
X16828253Y-14336174D02*
X16809206Y-14345698D01*
X16809206Y-14345698D02*
X16799682Y-14355222D01*
X16799682Y-14355222D02*
X16790158Y-14374269D01*
X16980634Y-14259984D02*
X16980634Y-14298079D01*
X17056825Y-14259984D02*
X17056825Y-14298079D01*
X17352063Y-14536174D02*
X17342539Y-14526650D01*
X17342539Y-14526650D02*
X17323491Y-14498079D01*
X17323491Y-14498079D02*
X17313968Y-14479031D01*
X17313968Y-14479031D02*
X17304444Y-14450460D01*
X17304444Y-14450460D02*
X17294920Y-14402841D01*
X17294920Y-14402841D02*
X17294920Y-14364746D01*
X17294920Y-14364746D02*
X17304444Y-14317127D01*
X17304444Y-14317127D02*
X17313968Y-14288555D01*
X17313968Y-14288555D02*
X17323491Y-14269508D01*
X17323491Y-14269508D02*
X17342539Y-14240936D01*
X17342539Y-14240936D02*
X17352063Y-14231412D01*
X17418730Y-14279031D02*
X17428253Y-14269508D01*
X17428253Y-14269508D02*
X17447301Y-14259984D01*
X17447301Y-14259984D02*
X17494920Y-14259984D01*
X17494920Y-14259984D02*
X17513968Y-14269508D01*
X17513968Y-14269508D02*
X17523491Y-14279031D01*
X17523491Y-14279031D02*
X17533015Y-14298079D01*
X17533015Y-14298079D02*
X17533015Y-14317127D01*
X17533015Y-14317127D02*
X17523491Y-14345698D01*
X17523491Y-14345698D02*
X17409206Y-14459984D01*
X17409206Y-14459984D02*
X17533015Y-14459984D01*
X17771111Y-14459984D02*
X17771111Y-14259984D01*
X17856825Y-14459984D02*
X17856825Y-14355222D01*
X17856825Y-14355222D02*
X17847301Y-14336174D01*
X17847301Y-14336174D02*
X17828253Y-14326650D01*
X17828253Y-14326650D02*
X17799682Y-14326650D01*
X17799682Y-14326650D02*
X17780634Y-14336174D01*
X17780634Y-14336174D02*
X17771111Y-14345698D01*
X17980634Y-14459984D02*
X17961587Y-14450460D01*
X17961587Y-14450460D02*
X17952063Y-14440936D01*
X17952063Y-14440936D02*
X17942539Y-14421888D01*
X17942539Y-14421888D02*
X17942539Y-14364746D01*
X17942539Y-14364746D02*
X17952063Y-14345698D01*
X17952063Y-14345698D02*
X17961587Y-14336174D01*
X17961587Y-14336174D02*
X17980634Y-14326650D01*
X17980634Y-14326650D02*
X18009206Y-14326650D01*
X18009206Y-14326650D02*
X18028253Y-14336174D01*
X18028253Y-14336174D02*
X18037777Y-14345698D01*
X18037777Y-14345698D02*
X18047301Y-14364746D01*
X18047301Y-14364746D02*
X18047301Y-14421888D01*
X18047301Y-14421888D02*
X18037777Y-14440936D01*
X18037777Y-14440936D02*
X18028253Y-14450460D01*
X18028253Y-14450460D02*
X18009206Y-14459984D01*
X18009206Y-14459984D02*
X17980634Y-14459984D01*
X18161587Y-14459984D02*
X18142539Y-14450460D01*
X18142539Y-14450460D02*
X18133015Y-14431412D01*
X18133015Y-14431412D02*
X18133015Y-14259984D01*
X18313968Y-14450460D02*
X18294920Y-14459984D01*
X18294920Y-14459984D02*
X18256825Y-14459984D01*
X18256825Y-14459984D02*
X18237777Y-14450460D01*
X18237777Y-14450460D02*
X18228253Y-14431412D01*
X18228253Y-14431412D02*
X18228253Y-14355222D01*
X18228253Y-14355222D02*
X18237777Y-14336174D01*
X18237777Y-14336174D02*
X18256825Y-14326650D01*
X18256825Y-14326650D02*
X18294920Y-14326650D01*
X18294920Y-14326650D02*
X18313968Y-14336174D01*
X18313968Y-14336174D02*
X18323492Y-14355222D01*
X18323492Y-14355222D02*
X18323492Y-14374269D01*
X18323492Y-14374269D02*
X18228253Y-14393317D01*
X18399682Y-14450460D02*
X18418730Y-14459984D01*
X18418730Y-14459984D02*
X18456825Y-14459984D01*
X18456825Y-14459984D02*
X18475873Y-14450460D01*
X18475873Y-14450460D02*
X18485396Y-14431412D01*
X18485396Y-14431412D02*
X18485396Y-14421888D01*
X18485396Y-14421888D02*
X18475873Y-14402841D01*
X18475873Y-14402841D02*
X18456825Y-14393317D01*
X18456825Y-14393317D02*
X18428253Y-14393317D01*
X18428253Y-14393317D02*
X18409206Y-14383793D01*
X18409206Y-14383793D02*
X18399682Y-14364746D01*
X18399682Y-14364746D02*
X18399682Y-14355222D01*
X18399682Y-14355222D02*
X18409206Y-14336174D01*
X18409206Y-14336174D02*
X18428253Y-14326650D01*
X18428253Y-14326650D02*
X18456825Y-14326650D01*
X18456825Y-14326650D02*
X18475873Y-14336174D01*
X18552063Y-14536174D02*
X18561587Y-14526650D01*
X18561587Y-14526650D02*
X18580634Y-14498079D01*
X18580634Y-14498079D02*
X18590158Y-14479031D01*
X18590158Y-14479031D02*
X18599682Y-14450460D01*
X18599682Y-14450460D02*
X18609206Y-14402841D01*
X18609206Y-14402841D02*
X18609206Y-14364746D01*
X18609206Y-14364746D02*
X18599682Y-14317127D01*
X18599682Y-14317127D02*
X18590158Y-14288555D01*
X18590158Y-14288555D02*
X18580634Y-14269508D01*
X18580634Y-14269508D02*
X18561587Y-14240936D01*
X18561587Y-14240936D02*
X18552063Y-14231412D01*
D14*
X13739500Y-14595000D02*
X13739500Y-14670000D01*
X13702000Y-14632500D02*
X13777000Y-14632500D01*
D11*
X14075872Y-14523984D02*
X14094920Y-14523984D01*
X14094920Y-14523984D02*
X14113967Y-14533508D01*
X14113967Y-14533508D02*
X14123491Y-14543031D01*
X14123491Y-14543031D02*
X14133015Y-14562079D01*
X14133015Y-14562079D02*
X14142539Y-14600174D01*
X14142539Y-14600174D02*
X14142539Y-14647793D01*
X14142539Y-14647793D02*
X14133015Y-14685888D01*
X14133015Y-14685888D02*
X14123491Y-14704936D01*
X14123491Y-14704936D02*
X14113967Y-14714460D01*
X14113967Y-14714460D02*
X14094920Y-14723984D01*
X14094920Y-14723984D02*
X14075872Y-14723984D01*
X14075872Y-14723984D02*
X14056824Y-14714460D01*
X14056824Y-14714460D02*
X14047301Y-14704936D01*
X14047301Y-14704936D02*
X14037777Y-14685888D01*
X14037777Y-14685888D02*
X14028253Y-14647793D01*
X14028253Y-14647793D02*
X14028253Y-14600174D01*
X14028253Y-14600174D02*
X14037777Y-14562079D01*
X14037777Y-14562079D02*
X14047301Y-14543031D01*
X14047301Y-14543031D02*
X14056824Y-14533508D01*
X14056824Y-14533508D02*
X14075872Y-14523984D01*
X14228253Y-14704936D02*
X14237777Y-14714460D01*
X14237777Y-14714460D02*
X14228253Y-14723984D01*
X14228253Y-14723984D02*
X14218729Y-14714460D01*
X14218729Y-14714460D02*
X14228253Y-14704936D01*
X14228253Y-14704936D02*
X14228253Y-14723984D01*
X14304443Y-14523984D02*
X14437777Y-14523984D01*
X14437777Y-14523984D02*
X14352062Y-14723984D01*
X14609205Y-14523984D02*
X14513967Y-14523984D01*
X14513967Y-14523984D02*
X14504443Y-14619222D01*
X14504443Y-14619222D02*
X14513967Y-14609698D01*
X14513967Y-14609698D02*
X14533015Y-14600174D01*
X14533015Y-14600174D02*
X14580634Y-14600174D01*
X14580634Y-14600174D02*
X14599682Y-14609698D01*
X14599682Y-14609698D02*
X14609205Y-14619222D01*
X14609205Y-14619222D02*
X14618729Y-14638269D01*
X14618729Y-14638269D02*
X14618729Y-14685888D01*
X14618729Y-14685888D02*
X14609205Y-14704936D01*
X14609205Y-14704936D02*
X14599682Y-14714460D01*
X14599682Y-14714460D02*
X14580634Y-14723984D01*
X14580634Y-14723984D02*
X14533015Y-14723984D01*
X14533015Y-14723984D02*
X14513967Y-14714460D01*
X14513967Y-14714460D02*
X14504443Y-14704936D01*
X14742539Y-14523984D02*
X14761586Y-14523984D01*
X14761586Y-14523984D02*
X14780634Y-14533508D01*
X14780634Y-14533508D02*
X14790158Y-14543031D01*
X14790158Y-14543031D02*
X14799682Y-14562079D01*
X14799682Y-14562079D02*
X14809205Y-14600174D01*
X14809205Y-14600174D02*
X14809205Y-14647793D01*
X14809205Y-14647793D02*
X14799682Y-14685888D01*
X14799682Y-14685888D02*
X14790158Y-14704936D01*
X14790158Y-14704936D02*
X14780634Y-14714460D01*
X14780634Y-14714460D02*
X14761586Y-14723984D01*
X14761586Y-14723984D02*
X14742539Y-14723984D01*
X14742539Y-14723984D02*
X14723491Y-14714460D01*
X14723491Y-14714460D02*
X14713967Y-14704936D01*
X14713967Y-14704936D02*
X14704443Y-14685888D01*
X14704443Y-14685888D02*
X14694920Y-14647793D01*
X14694920Y-14647793D02*
X14694920Y-14600174D01*
X14694920Y-14600174D02*
X14704443Y-14562079D01*
X14704443Y-14562079D02*
X14713967Y-14543031D01*
X14713967Y-14543031D02*
X14723491Y-14533508D01*
X14723491Y-14533508D02*
X14742539Y-14523984D01*
X14894920Y-14723984D02*
X14894920Y-14590650D01*
X14894920Y-14609698D02*
X14904443Y-14600174D01*
X14904443Y-14600174D02*
X14923491Y-14590650D01*
X14923491Y-14590650D02*
X14952063Y-14590650D01*
X14952063Y-14590650D02*
X14971110Y-14600174D01*
X14971110Y-14600174D02*
X14980634Y-14619222D01*
X14980634Y-14619222D02*
X14980634Y-14723984D01*
X14980634Y-14619222D02*
X14990158Y-14600174D01*
X14990158Y-14600174D02*
X15009205Y-14590650D01*
X15009205Y-14590650D02*
X15037777Y-14590650D01*
X15037777Y-14590650D02*
X15056824Y-14600174D01*
X15056824Y-14600174D02*
X15066348Y-14619222D01*
X15066348Y-14619222D02*
X15066348Y-14723984D01*
X15161586Y-14723984D02*
X15161586Y-14590650D01*
X15161586Y-14609698D02*
X15171110Y-14600174D01*
X15171110Y-14600174D02*
X15190158Y-14590650D01*
X15190158Y-14590650D02*
X15218729Y-14590650D01*
X15218729Y-14590650D02*
X15237777Y-14600174D01*
X15237777Y-14600174D02*
X15247301Y-14619222D01*
X15247301Y-14619222D02*
X15247301Y-14723984D01*
X15247301Y-14619222D02*
X15256824Y-14600174D01*
X15256824Y-14600174D02*
X15275872Y-14590650D01*
X15275872Y-14590650D02*
X15304443Y-14590650D01*
X15304443Y-14590650D02*
X15323491Y-14600174D01*
X15323491Y-14600174D02*
X15333015Y-14619222D01*
X15333015Y-14619222D02*
X15333015Y-14723984D01*
X15723491Y-14514460D02*
X15552063Y-14771603D01*
X15980634Y-14523984D02*
X15999682Y-14523984D01*
X15999682Y-14523984D02*
X16018729Y-14533508D01*
X16018729Y-14533508D02*
X16028253Y-14543031D01*
X16028253Y-14543031D02*
X16037777Y-14562079D01*
X16037777Y-14562079D02*
X16047301Y-14600174D01*
X16047301Y-14600174D02*
X16047301Y-14647793D01*
X16047301Y-14647793D02*
X16037777Y-14685888D01*
X16037777Y-14685888D02*
X16028253Y-14704936D01*
X16028253Y-14704936D02*
X16018729Y-14714460D01*
X16018729Y-14714460D02*
X15999682Y-14723984D01*
X15999682Y-14723984D02*
X15980634Y-14723984D01*
X15980634Y-14723984D02*
X15961586Y-14714460D01*
X15961586Y-14714460D02*
X15952063Y-14704936D01*
X15952063Y-14704936D02*
X15942539Y-14685888D01*
X15942539Y-14685888D02*
X15933015Y-14647793D01*
X15933015Y-14647793D02*
X15933015Y-14600174D01*
X15933015Y-14600174D02*
X15942539Y-14562079D01*
X15942539Y-14562079D02*
X15952063Y-14543031D01*
X15952063Y-14543031D02*
X15961586Y-14533508D01*
X15961586Y-14533508D02*
X15980634Y-14523984D01*
X16133015Y-14704936D02*
X16142539Y-14714460D01*
X16142539Y-14714460D02*
X16133015Y-14723984D01*
X16133015Y-14723984D02*
X16123491Y-14714460D01*
X16123491Y-14714460D02*
X16133015Y-14704936D01*
X16133015Y-14704936D02*
X16133015Y-14723984D01*
X16266348Y-14523984D02*
X16285396Y-14523984D01*
X16285396Y-14523984D02*
X16304444Y-14533508D01*
X16304444Y-14533508D02*
X16313967Y-14543031D01*
X16313967Y-14543031D02*
X16323491Y-14562079D01*
X16323491Y-14562079D02*
X16333015Y-14600174D01*
X16333015Y-14600174D02*
X16333015Y-14647793D01*
X16333015Y-14647793D02*
X16323491Y-14685888D01*
X16323491Y-14685888D02*
X16313967Y-14704936D01*
X16313967Y-14704936D02*
X16304444Y-14714460D01*
X16304444Y-14714460D02*
X16285396Y-14723984D01*
X16285396Y-14723984D02*
X16266348Y-14723984D01*
X16266348Y-14723984D02*
X16247301Y-14714460D01*
X16247301Y-14714460D02*
X16237777Y-14704936D01*
X16237777Y-14704936D02*
X16228253Y-14685888D01*
X16228253Y-14685888D02*
X16218729Y-14647793D01*
X16218729Y-14647793D02*
X16218729Y-14600174D01*
X16218729Y-14600174D02*
X16228253Y-14562079D01*
X16228253Y-14562079D02*
X16237777Y-14543031D01*
X16237777Y-14543031D02*
X16247301Y-14533508D01*
X16247301Y-14533508D02*
X16266348Y-14523984D01*
X16409206Y-14543031D02*
X16418729Y-14533508D01*
X16418729Y-14533508D02*
X16437777Y-14523984D01*
X16437777Y-14523984D02*
X16485396Y-14523984D01*
X16485396Y-14523984D02*
X16504444Y-14533508D01*
X16504444Y-14533508D02*
X16513967Y-14543031D01*
X16513967Y-14543031D02*
X16523491Y-14562079D01*
X16523491Y-14562079D02*
X16523491Y-14581127D01*
X16523491Y-14581127D02*
X16513967Y-14609698D01*
X16513967Y-14609698D02*
X16399682Y-14723984D01*
X16399682Y-14723984D02*
X16523491Y-14723984D01*
X16618729Y-14723984D02*
X16656825Y-14723984D01*
X16656825Y-14723984D02*
X16675872Y-14714460D01*
X16675872Y-14714460D02*
X16685396Y-14704936D01*
X16685396Y-14704936D02*
X16704444Y-14676365D01*
X16704444Y-14676365D02*
X16713967Y-14638269D01*
X16713967Y-14638269D02*
X16713967Y-14562079D01*
X16713967Y-14562079D02*
X16704444Y-14543031D01*
X16704444Y-14543031D02*
X16694920Y-14533508D01*
X16694920Y-14533508D02*
X16675872Y-14523984D01*
X16675872Y-14523984D02*
X16637777Y-14523984D01*
X16637777Y-14523984D02*
X16618729Y-14533508D01*
X16618729Y-14533508D02*
X16609206Y-14543031D01*
X16609206Y-14543031D02*
X16599682Y-14562079D01*
X16599682Y-14562079D02*
X16599682Y-14609698D01*
X16599682Y-14609698D02*
X16609206Y-14628746D01*
X16609206Y-14628746D02*
X16618729Y-14638269D01*
X16618729Y-14638269D02*
X16637777Y-14647793D01*
X16637777Y-14647793D02*
X16675872Y-14647793D01*
X16675872Y-14647793D02*
X16694920Y-14638269D01*
X16694920Y-14638269D02*
X16704444Y-14628746D01*
X16704444Y-14628746D02*
X16713967Y-14609698D01*
X16894920Y-14523984D02*
X16799682Y-14523984D01*
X16799682Y-14523984D02*
X16790158Y-14619222D01*
X16790158Y-14619222D02*
X16799682Y-14609698D01*
X16799682Y-14609698D02*
X16818729Y-14600174D01*
X16818729Y-14600174D02*
X16866349Y-14600174D01*
X16866349Y-14600174D02*
X16885396Y-14609698D01*
X16885396Y-14609698D02*
X16894920Y-14619222D01*
X16894920Y-14619222D02*
X16904444Y-14638269D01*
X16904444Y-14638269D02*
X16904444Y-14685888D01*
X16904444Y-14685888D02*
X16894920Y-14704936D01*
X16894920Y-14704936D02*
X16885396Y-14714460D01*
X16885396Y-14714460D02*
X16866349Y-14723984D01*
X16866349Y-14723984D02*
X16818729Y-14723984D01*
X16818729Y-14723984D02*
X16799682Y-14714460D01*
X16799682Y-14714460D02*
X16790158Y-14704936D01*
X16980634Y-14523984D02*
X16980634Y-14562079D01*
X17056825Y-14523984D02*
X17056825Y-14562079D01*
X17352063Y-14800174D02*
X17342539Y-14790650D01*
X17342539Y-14790650D02*
X17323491Y-14762079D01*
X17323491Y-14762079D02*
X17313968Y-14743031D01*
X17313968Y-14743031D02*
X17304444Y-14714460D01*
X17304444Y-14714460D02*
X17294920Y-14666841D01*
X17294920Y-14666841D02*
X17294920Y-14628746D01*
X17294920Y-14628746D02*
X17304444Y-14581127D01*
X17304444Y-14581127D02*
X17313968Y-14552555D01*
X17313968Y-14552555D02*
X17323491Y-14533508D01*
X17323491Y-14533508D02*
X17342539Y-14504936D01*
X17342539Y-14504936D02*
X17352063Y-14495412D01*
X17533015Y-14723984D02*
X17418730Y-14723984D01*
X17475872Y-14723984D02*
X17475872Y-14523984D01*
X17475872Y-14523984D02*
X17456825Y-14552555D01*
X17456825Y-14552555D02*
X17437777Y-14571603D01*
X17437777Y-14571603D02*
X17418730Y-14581127D01*
X17647301Y-14609698D02*
X17628253Y-14600174D01*
X17628253Y-14600174D02*
X17618730Y-14590650D01*
X17618730Y-14590650D02*
X17609206Y-14571603D01*
X17609206Y-14571603D02*
X17609206Y-14562079D01*
X17609206Y-14562079D02*
X17618730Y-14543031D01*
X17618730Y-14543031D02*
X17628253Y-14533508D01*
X17628253Y-14533508D02*
X17647301Y-14523984D01*
X17647301Y-14523984D02*
X17685396Y-14523984D01*
X17685396Y-14523984D02*
X17704444Y-14533508D01*
X17704444Y-14533508D02*
X17713968Y-14543031D01*
X17713968Y-14543031D02*
X17723491Y-14562079D01*
X17723491Y-14562079D02*
X17723491Y-14571603D01*
X17723491Y-14571603D02*
X17713968Y-14590650D01*
X17713968Y-14590650D02*
X17704444Y-14600174D01*
X17704444Y-14600174D02*
X17685396Y-14609698D01*
X17685396Y-14609698D02*
X17647301Y-14609698D01*
X17647301Y-14609698D02*
X17628253Y-14619222D01*
X17628253Y-14619222D02*
X17618730Y-14628746D01*
X17618730Y-14628746D02*
X17609206Y-14647793D01*
X17609206Y-14647793D02*
X17609206Y-14685888D01*
X17609206Y-14685888D02*
X17618730Y-14704936D01*
X17618730Y-14704936D02*
X17628253Y-14714460D01*
X17628253Y-14714460D02*
X17647301Y-14723984D01*
X17647301Y-14723984D02*
X17685396Y-14723984D01*
X17685396Y-14723984D02*
X17704444Y-14714460D01*
X17704444Y-14714460D02*
X17713968Y-14704936D01*
X17713968Y-14704936D02*
X17723491Y-14685888D01*
X17723491Y-14685888D02*
X17723491Y-14647793D01*
X17723491Y-14647793D02*
X17713968Y-14628746D01*
X17713968Y-14628746D02*
X17704444Y-14619222D01*
X17704444Y-14619222D02*
X17685396Y-14609698D01*
X17961587Y-14723984D02*
X17961587Y-14523984D01*
X18047301Y-14723984D02*
X18047301Y-14619222D01*
X18047301Y-14619222D02*
X18037777Y-14600174D01*
X18037777Y-14600174D02*
X18018730Y-14590650D01*
X18018730Y-14590650D02*
X17990158Y-14590650D01*
X17990158Y-14590650D02*
X17971111Y-14600174D01*
X17971111Y-14600174D02*
X17961587Y-14609698D01*
X18171111Y-14723984D02*
X18152063Y-14714460D01*
X18152063Y-14714460D02*
X18142539Y-14704936D01*
X18142539Y-14704936D02*
X18133015Y-14685888D01*
X18133015Y-14685888D02*
X18133015Y-14628746D01*
X18133015Y-14628746D02*
X18142539Y-14609698D01*
X18142539Y-14609698D02*
X18152063Y-14600174D01*
X18152063Y-14600174D02*
X18171111Y-14590650D01*
X18171111Y-14590650D02*
X18199682Y-14590650D01*
X18199682Y-14590650D02*
X18218730Y-14600174D01*
X18218730Y-14600174D02*
X18228253Y-14609698D01*
X18228253Y-14609698D02*
X18237777Y-14628746D01*
X18237777Y-14628746D02*
X18237777Y-14685888D01*
X18237777Y-14685888D02*
X18228253Y-14704936D01*
X18228253Y-14704936D02*
X18218730Y-14714460D01*
X18218730Y-14714460D02*
X18199682Y-14723984D01*
X18199682Y-14723984D02*
X18171111Y-14723984D01*
X18352063Y-14723984D02*
X18333015Y-14714460D01*
X18333015Y-14714460D02*
X18323492Y-14695412D01*
X18323492Y-14695412D02*
X18323492Y-14523984D01*
X18504444Y-14714460D02*
X18485396Y-14723984D01*
X18485396Y-14723984D02*
X18447301Y-14723984D01*
X18447301Y-14723984D02*
X18428253Y-14714460D01*
X18428253Y-14714460D02*
X18418730Y-14695412D01*
X18418730Y-14695412D02*
X18418730Y-14619222D01*
X18418730Y-14619222D02*
X18428253Y-14600174D01*
X18428253Y-14600174D02*
X18447301Y-14590650D01*
X18447301Y-14590650D02*
X18485396Y-14590650D01*
X18485396Y-14590650D02*
X18504444Y-14600174D01*
X18504444Y-14600174D02*
X18513968Y-14619222D01*
X18513968Y-14619222D02*
X18513968Y-14638269D01*
X18513968Y-14638269D02*
X18418730Y-14657317D01*
X18590158Y-14714460D02*
X18609206Y-14723984D01*
X18609206Y-14723984D02*
X18647301Y-14723984D01*
X18647301Y-14723984D02*
X18666349Y-14714460D01*
X18666349Y-14714460D02*
X18675873Y-14695412D01*
X18675873Y-14695412D02*
X18675873Y-14685888D01*
X18675873Y-14685888D02*
X18666349Y-14666841D01*
X18666349Y-14666841D02*
X18647301Y-14657317D01*
X18647301Y-14657317D02*
X18618730Y-14657317D01*
X18618730Y-14657317D02*
X18599682Y-14647793D01*
X18599682Y-14647793D02*
X18590158Y-14628746D01*
X18590158Y-14628746D02*
X18590158Y-14619222D01*
X18590158Y-14619222D02*
X18599682Y-14600174D01*
X18599682Y-14600174D02*
X18618730Y-14590650D01*
X18618730Y-14590650D02*
X18647301Y-14590650D01*
X18647301Y-14590650D02*
X18666349Y-14600174D01*
X18742539Y-14800174D02*
X18752063Y-14790650D01*
X18752063Y-14790650D02*
X18771111Y-14762079D01*
X18771111Y-14762079D02*
X18780634Y-14743031D01*
X18780634Y-14743031D02*
X18790158Y-14714460D01*
X18790158Y-14714460D02*
X18799682Y-14666841D01*
X18799682Y-14666841D02*
X18799682Y-14628746D01*
X18799682Y-14628746D02*
X18790158Y-14581127D01*
X18790158Y-14581127D02*
X18780634Y-14552555D01*
X18780634Y-14552555D02*
X18771111Y-14533508D01*
X18771111Y-14533508D02*
X18752063Y-14504936D01*
X18752063Y-14504936D02*
X18742539Y-14495412D01*
D15*
X13765841Y-14923441D02*
X13765841Y-14869559D01*
X13711959Y-14869559D01*
X13711959Y-14923441D01*
X13765841Y-14923441D01*
D11*
X14075872Y-14787984D02*
X14094920Y-14787984D01*
X14094920Y-14787984D02*
X14113967Y-14797508D01*
X14113967Y-14797508D02*
X14123491Y-14807031D01*
X14123491Y-14807031D02*
X14133015Y-14826079D01*
X14133015Y-14826079D02*
X14142539Y-14864174D01*
X14142539Y-14864174D02*
X14142539Y-14911793D01*
X14142539Y-14911793D02*
X14133015Y-14949888D01*
X14133015Y-14949888D02*
X14123491Y-14968936D01*
X14123491Y-14968936D02*
X14113967Y-14978460D01*
X14113967Y-14978460D02*
X14094920Y-14987984D01*
X14094920Y-14987984D02*
X14075872Y-14987984D01*
X14075872Y-14987984D02*
X14056824Y-14978460D01*
X14056824Y-14978460D02*
X14047301Y-14968936D01*
X14047301Y-14968936D02*
X14037777Y-14949888D01*
X14037777Y-14949888D02*
X14028253Y-14911793D01*
X14028253Y-14911793D02*
X14028253Y-14864174D01*
X14028253Y-14864174D02*
X14037777Y-14826079D01*
X14037777Y-14826079D02*
X14047301Y-14807031D01*
X14047301Y-14807031D02*
X14056824Y-14797508D01*
X14056824Y-14797508D02*
X14075872Y-14787984D01*
X14228253Y-14968936D02*
X14237777Y-14978460D01*
X14237777Y-14978460D02*
X14228253Y-14987984D01*
X14228253Y-14987984D02*
X14218729Y-14978460D01*
X14218729Y-14978460D02*
X14228253Y-14968936D01*
X14228253Y-14968936D02*
X14228253Y-14987984D01*
X14304443Y-14787984D02*
X14437777Y-14787984D01*
X14437777Y-14787984D02*
X14352062Y-14987984D01*
X14599682Y-14787984D02*
X14561586Y-14787984D01*
X14561586Y-14787984D02*
X14542539Y-14797508D01*
X14542539Y-14797508D02*
X14533015Y-14807031D01*
X14533015Y-14807031D02*
X14513967Y-14835603D01*
X14513967Y-14835603D02*
X14504443Y-14873698D01*
X14504443Y-14873698D02*
X14504443Y-14949888D01*
X14504443Y-14949888D02*
X14513967Y-14968936D01*
X14513967Y-14968936D02*
X14523491Y-14978460D01*
X14523491Y-14978460D02*
X14542539Y-14987984D01*
X14542539Y-14987984D02*
X14580634Y-14987984D01*
X14580634Y-14987984D02*
X14599682Y-14978460D01*
X14599682Y-14978460D02*
X14609205Y-14968936D01*
X14609205Y-14968936D02*
X14618729Y-14949888D01*
X14618729Y-14949888D02*
X14618729Y-14902269D01*
X14618729Y-14902269D02*
X14609205Y-14883222D01*
X14609205Y-14883222D02*
X14599682Y-14873698D01*
X14599682Y-14873698D02*
X14580634Y-14864174D01*
X14580634Y-14864174D02*
X14542539Y-14864174D01*
X14542539Y-14864174D02*
X14523491Y-14873698D01*
X14523491Y-14873698D02*
X14513967Y-14883222D01*
X14513967Y-14883222D02*
X14504443Y-14902269D01*
X14694920Y-14807031D02*
X14704443Y-14797508D01*
X14704443Y-14797508D02*
X14723491Y-14787984D01*
X14723491Y-14787984D02*
X14771110Y-14787984D01*
X14771110Y-14787984D02*
X14790158Y-14797508D01*
X14790158Y-14797508D02*
X14799682Y-14807031D01*
X14799682Y-14807031D02*
X14809205Y-14826079D01*
X14809205Y-14826079D02*
X14809205Y-14845127D01*
X14809205Y-14845127D02*
X14799682Y-14873698D01*
X14799682Y-14873698D02*
X14685396Y-14987984D01*
X14685396Y-14987984D02*
X14809205Y-14987984D01*
X14894920Y-14987984D02*
X14894920Y-14854650D01*
X14894920Y-14873698D02*
X14904443Y-14864174D01*
X14904443Y-14864174D02*
X14923491Y-14854650D01*
X14923491Y-14854650D02*
X14952063Y-14854650D01*
X14952063Y-14854650D02*
X14971110Y-14864174D01*
X14971110Y-14864174D02*
X14980634Y-14883222D01*
X14980634Y-14883222D02*
X14980634Y-14987984D01*
X14980634Y-14883222D02*
X14990158Y-14864174D01*
X14990158Y-14864174D02*
X15009205Y-14854650D01*
X15009205Y-14854650D02*
X15037777Y-14854650D01*
X15037777Y-14854650D02*
X15056824Y-14864174D01*
X15056824Y-14864174D02*
X15066348Y-14883222D01*
X15066348Y-14883222D02*
X15066348Y-14987984D01*
X15161586Y-14987984D02*
X15161586Y-14854650D01*
X15161586Y-14873698D02*
X15171110Y-14864174D01*
X15171110Y-14864174D02*
X15190158Y-14854650D01*
X15190158Y-14854650D02*
X15218729Y-14854650D01*
X15218729Y-14854650D02*
X15237777Y-14864174D01*
X15237777Y-14864174D02*
X15247301Y-14883222D01*
X15247301Y-14883222D02*
X15247301Y-14987984D01*
X15247301Y-14883222D02*
X15256824Y-14864174D01*
X15256824Y-14864174D02*
X15275872Y-14854650D01*
X15275872Y-14854650D02*
X15304443Y-14854650D01*
X15304443Y-14854650D02*
X15323491Y-14864174D01*
X15323491Y-14864174D02*
X15333015Y-14883222D01*
X15333015Y-14883222D02*
X15333015Y-14987984D01*
X15723491Y-14778460D02*
X15552063Y-15035603D01*
X15980634Y-14787984D02*
X15999682Y-14787984D01*
X15999682Y-14787984D02*
X16018729Y-14797508D01*
X16018729Y-14797508D02*
X16028253Y-14807031D01*
X16028253Y-14807031D02*
X16037777Y-14826079D01*
X16037777Y-14826079D02*
X16047301Y-14864174D01*
X16047301Y-14864174D02*
X16047301Y-14911793D01*
X16047301Y-14911793D02*
X16037777Y-14949888D01*
X16037777Y-14949888D02*
X16028253Y-14968936D01*
X16028253Y-14968936D02*
X16018729Y-14978460D01*
X16018729Y-14978460D02*
X15999682Y-14987984D01*
X15999682Y-14987984D02*
X15980634Y-14987984D01*
X15980634Y-14987984D02*
X15961586Y-14978460D01*
X15961586Y-14978460D02*
X15952063Y-14968936D01*
X15952063Y-14968936D02*
X15942539Y-14949888D01*
X15942539Y-14949888D02*
X15933015Y-14911793D01*
X15933015Y-14911793D02*
X15933015Y-14864174D01*
X15933015Y-14864174D02*
X15942539Y-14826079D01*
X15942539Y-14826079D02*
X15952063Y-14807031D01*
X15952063Y-14807031D02*
X15961586Y-14797508D01*
X15961586Y-14797508D02*
X15980634Y-14787984D01*
X16133015Y-14968936D02*
X16142539Y-14978460D01*
X16142539Y-14978460D02*
X16133015Y-14987984D01*
X16133015Y-14987984D02*
X16123491Y-14978460D01*
X16123491Y-14978460D02*
X16133015Y-14968936D01*
X16133015Y-14968936D02*
X16133015Y-14987984D01*
X16266348Y-14787984D02*
X16285396Y-14787984D01*
X16285396Y-14787984D02*
X16304444Y-14797508D01*
X16304444Y-14797508D02*
X16313967Y-14807031D01*
X16313967Y-14807031D02*
X16323491Y-14826079D01*
X16323491Y-14826079D02*
X16333015Y-14864174D01*
X16333015Y-14864174D02*
X16333015Y-14911793D01*
X16333015Y-14911793D02*
X16323491Y-14949888D01*
X16323491Y-14949888D02*
X16313967Y-14968936D01*
X16313967Y-14968936D02*
X16304444Y-14978460D01*
X16304444Y-14978460D02*
X16285396Y-14987984D01*
X16285396Y-14987984D02*
X16266348Y-14987984D01*
X16266348Y-14987984D02*
X16247301Y-14978460D01*
X16247301Y-14978460D02*
X16237777Y-14968936D01*
X16237777Y-14968936D02*
X16228253Y-14949888D01*
X16228253Y-14949888D02*
X16218729Y-14911793D01*
X16218729Y-14911793D02*
X16218729Y-14864174D01*
X16218729Y-14864174D02*
X16228253Y-14826079D01*
X16228253Y-14826079D02*
X16237777Y-14807031D01*
X16237777Y-14807031D02*
X16247301Y-14797508D01*
X16247301Y-14797508D02*
X16266348Y-14787984D01*
X16399682Y-14787984D02*
X16523491Y-14787984D01*
X16523491Y-14787984D02*
X16456825Y-14864174D01*
X16456825Y-14864174D02*
X16485396Y-14864174D01*
X16485396Y-14864174D02*
X16504444Y-14873698D01*
X16504444Y-14873698D02*
X16513967Y-14883222D01*
X16513967Y-14883222D02*
X16523491Y-14902269D01*
X16523491Y-14902269D02*
X16523491Y-14949888D01*
X16523491Y-14949888D02*
X16513967Y-14968936D01*
X16513967Y-14968936D02*
X16504444Y-14978460D01*
X16504444Y-14978460D02*
X16485396Y-14987984D01*
X16485396Y-14987984D02*
X16428253Y-14987984D01*
X16428253Y-14987984D02*
X16409206Y-14978460D01*
X16409206Y-14978460D02*
X16399682Y-14968936D01*
X16647301Y-14787984D02*
X16666348Y-14787984D01*
X16666348Y-14787984D02*
X16685396Y-14797508D01*
X16685396Y-14797508D02*
X16694920Y-14807031D01*
X16694920Y-14807031D02*
X16704444Y-14826079D01*
X16704444Y-14826079D02*
X16713967Y-14864174D01*
X16713967Y-14864174D02*
X16713967Y-14911793D01*
X16713967Y-14911793D02*
X16704444Y-14949888D01*
X16704444Y-14949888D02*
X16694920Y-14968936D01*
X16694920Y-14968936D02*
X16685396Y-14978460D01*
X16685396Y-14978460D02*
X16666348Y-14987984D01*
X16666348Y-14987984D02*
X16647301Y-14987984D01*
X16647301Y-14987984D02*
X16628253Y-14978460D01*
X16628253Y-14978460D02*
X16618729Y-14968936D01*
X16618729Y-14968936D02*
X16609206Y-14949888D01*
X16609206Y-14949888D02*
X16599682Y-14911793D01*
X16599682Y-14911793D02*
X16599682Y-14864174D01*
X16599682Y-14864174D02*
X16609206Y-14826079D01*
X16609206Y-14826079D02*
X16618729Y-14807031D01*
X16618729Y-14807031D02*
X16628253Y-14797508D01*
X16628253Y-14797508D02*
X16647301Y-14787984D01*
X16837777Y-14787984D02*
X16856825Y-14787984D01*
X16856825Y-14787984D02*
X16875872Y-14797508D01*
X16875872Y-14797508D02*
X16885396Y-14807031D01*
X16885396Y-14807031D02*
X16894920Y-14826079D01*
X16894920Y-14826079D02*
X16904444Y-14864174D01*
X16904444Y-14864174D02*
X16904444Y-14911793D01*
X16904444Y-14911793D02*
X16894920Y-14949888D01*
X16894920Y-14949888D02*
X16885396Y-14968936D01*
X16885396Y-14968936D02*
X16875872Y-14978460D01*
X16875872Y-14978460D02*
X16856825Y-14987984D01*
X16856825Y-14987984D02*
X16837777Y-14987984D01*
X16837777Y-14987984D02*
X16818729Y-14978460D01*
X16818729Y-14978460D02*
X16809206Y-14968936D01*
X16809206Y-14968936D02*
X16799682Y-14949888D01*
X16799682Y-14949888D02*
X16790158Y-14911793D01*
X16790158Y-14911793D02*
X16790158Y-14864174D01*
X16790158Y-14864174D02*
X16799682Y-14826079D01*
X16799682Y-14826079D02*
X16809206Y-14807031D01*
X16809206Y-14807031D02*
X16818729Y-14797508D01*
X16818729Y-14797508D02*
X16837777Y-14787984D01*
X16980634Y-14787984D02*
X16980634Y-14826079D01*
X17056825Y-14787984D02*
X17056825Y-14826079D01*
X17352063Y-15064174D02*
X17342539Y-15054650D01*
X17342539Y-15054650D02*
X17323491Y-15026079D01*
X17323491Y-15026079D02*
X17313968Y-15007031D01*
X17313968Y-15007031D02*
X17304444Y-14978460D01*
X17304444Y-14978460D02*
X17294920Y-14930841D01*
X17294920Y-14930841D02*
X17294920Y-14892746D01*
X17294920Y-14892746D02*
X17304444Y-14845127D01*
X17304444Y-14845127D02*
X17313968Y-14816555D01*
X17313968Y-14816555D02*
X17323491Y-14797508D01*
X17323491Y-14797508D02*
X17342539Y-14768936D01*
X17342539Y-14768936D02*
X17352063Y-14759412D01*
X17409206Y-14787984D02*
X17542539Y-14787984D01*
X17542539Y-14787984D02*
X17456825Y-14987984D01*
X17771111Y-14987984D02*
X17771111Y-14787984D01*
X17856825Y-14987984D02*
X17856825Y-14883222D01*
X17856825Y-14883222D02*
X17847301Y-14864174D01*
X17847301Y-14864174D02*
X17828253Y-14854650D01*
X17828253Y-14854650D02*
X17799682Y-14854650D01*
X17799682Y-14854650D02*
X17780634Y-14864174D01*
X17780634Y-14864174D02*
X17771111Y-14873698D01*
X17980634Y-14987984D02*
X17961587Y-14978460D01*
X17961587Y-14978460D02*
X17952063Y-14968936D01*
X17952063Y-14968936D02*
X17942539Y-14949888D01*
X17942539Y-14949888D02*
X17942539Y-14892746D01*
X17942539Y-14892746D02*
X17952063Y-14873698D01*
X17952063Y-14873698D02*
X17961587Y-14864174D01*
X17961587Y-14864174D02*
X17980634Y-14854650D01*
X17980634Y-14854650D02*
X18009206Y-14854650D01*
X18009206Y-14854650D02*
X18028253Y-14864174D01*
X18028253Y-14864174D02*
X18037777Y-14873698D01*
X18037777Y-14873698D02*
X18047301Y-14892746D01*
X18047301Y-14892746D02*
X18047301Y-14949888D01*
X18047301Y-14949888D02*
X18037777Y-14968936D01*
X18037777Y-14968936D02*
X18028253Y-14978460D01*
X18028253Y-14978460D02*
X18009206Y-14987984D01*
X18009206Y-14987984D02*
X17980634Y-14987984D01*
X18161587Y-14987984D02*
X18142539Y-14978460D01*
X18142539Y-14978460D02*
X18133015Y-14959412D01*
X18133015Y-14959412D02*
X18133015Y-14787984D01*
X18313968Y-14978460D02*
X18294920Y-14987984D01*
X18294920Y-14987984D02*
X18256825Y-14987984D01*
X18256825Y-14987984D02*
X18237777Y-14978460D01*
X18237777Y-14978460D02*
X18228253Y-14959412D01*
X18228253Y-14959412D02*
X18228253Y-14883222D01*
X18228253Y-14883222D02*
X18237777Y-14864174D01*
X18237777Y-14864174D02*
X18256825Y-14854650D01*
X18256825Y-14854650D02*
X18294920Y-14854650D01*
X18294920Y-14854650D02*
X18313968Y-14864174D01*
X18313968Y-14864174D02*
X18323492Y-14883222D01*
X18323492Y-14883222D02*
X18323492Y-14902269D01*
X18323492Y-14902269D02*
X18228253Y-14921317D01*
X18399682Y-14978460D02*
X18418730Y-14987984D01*
X18418730Y-14987984D02*
X18456825Y-14987984D01*
X18456825Y-14987984D02*
X18475873Y-14978460D01*
X18475873Y-14978460D02*
X18485396Y-14959412D01*
X18485396Y-14959412D02*
X18485396Y-14949888D01*
X18485396Y-14949888D02*
X18475873Y-14930841D01*
X18475873Y-14930841D02*
X18456825Y-14921317D01*
X18456825Y-14921317D02*
X18428253Y-14921317D01*
X18428253Y-14921317D02*
X18409206Y-14911793D01*
X18409206Y-14911793D02*
X18399682Y-14892746D01*
X18399682Y-14892746D02*
X18399682Y-14883222D01*
X18399682Y-14883222D02*
X18409206Y-14864174D01*
X18409206Y-14864174D02*
X18428253Y-14854650D01*
X18428253Y-14854650D02*
X18456825Y-14854650D01*
X18456825Y-14854650D02*
X18475873Y-14864174D01*
X18552063Y-15064174D02*
X18561587Y-15054650D01*
X18561587Y-15054650D02*
X18580634Y-15026079D01*
X18580634Y-15026079D02*
X18590158Y-15007031D01*
X18590158Y-15007031D02*
X18599682Y-14978460D01*
X18599682Y-14978460D02*
X18609206Y-14930841D01*
X18609206Y-14930841D02*
X18609206Y-14892746D01*
X18609206Y-14892746D02*
X18599682Y-14845127D01*
X18599682Y-14845127D02*
X18590158Y-14816555D01*
X18590158Y-14816555D02*
X18580634Y-14797508D01*
X18580634Y-14797508D02*
X18561587Y-14768936D01*
X18561587Y-14768936D02*
X18552063Y-14759412D01*
D16*
X13737000Y-15200500D02*
X13777000Y-15160500D01*
X13737000Y-15120500D01*
X13697000Y-15160500D01*
X13737000Y-15200500D01*
D11*
X14075872Y-15051984D02*
X14094920Y-15051984D01*
X14094920Y-15051984D02*
X14113967Y-15061508D01*
X14113967Y-15061508D02*
X14123491Y-15071031D01*
X14123491Y-15071031D02*
X14133015Y-15090079D01*
X14133015Y-15090079D02*
X14142539Y-15128174D01*
X14142539Y-15128174D02*
X14142539Y-15175793D01*
X14142539Y-15175793D02*
X14133015Y-15213888D01*
X14133015Y-15213888D02*
X14123491Y-15232936D01*
X14123491Y-15232936D02*
X14113967Y-15242460D01*
X14113967Y-15242460D02*
X14094920Y-15251984D01*
X14094920Y-15251984D02*
X14075872Y-15251984D01*
X14075872Y-15251984D02*
X14056824Y-15242460D01*
X14056824Y-15242460D02*
X14047301Y-15232936D01*
X14047301Y-15232936D02*
X14037777Y-15213888D01*
X14037777Y-15213888D02*
X14028253Y-15175793D01*
X14028253Y-15175793D02*
X14028253Y-15128174D01*
X14028253Y-15128174D02*
X14037777Y-15090079D01*
X14037777Y-15090079D02*
X14047301Y-15071031D01*
X14047301Y-15071031D02*
X14056824Y-15061508D01*
X14056824Y-15061508D02*
X14075872Y-15051984D01*
X14228253Y-15232936D02*
X14237777Y-15242460D01*
X14237777Y-15242460D02*
X14228253Y-15251984D01*
X14228253Y-15251984D02*
X14218729Y-15242460D01*
X14218729Y-15242460D02*
X14228253Y-15232936D01*
X14228253Y-15232936D02*
X14228253Y-15251984D01*
X14352062Y-15137698D02*
X14333015Y-15128174D01*
X14333015Y-15128174D02*
X14323491Y-15118650D01*
X14323491Y-15118650D02*
X14313967Y-15099603D01*
X14313967Y-15099603D02*
X14313967Y-15090079D01*
X14313967Y-15090079D02*
X14323491Y-15071031D01*
X14323491Y-15071031D02*
X14333015Y-15061508D01*
X14333015Y-15061508D02*
X14352062Y-15051984D01*
X14352062Y-15051984D02*
X14390158Y-15051984D01*
X14390158Y-15051984D02*
X14409205Y-15061508D01*
X14409205Y-15061508D02*
X14418729Y-15071031D01*
X14418729Y-15071031D02*
X14428253Y-15090079D01*
X14428253Y-15090079D02*
X14428253Y-15099603D01*
X14428253Y-15099603D02*
X14418729Y-15118650D01*
X14418729Y-15118650D02*
X14409205Y-15128174D01*
X14409205Y-15128174D02*
X14390158Y-15137698D01*
X14390158Y-15137698D02*
X14352062Y-15137698D01*
X14352062Y-15137698D02*
X14333015Y-15147222D01*
X14333015Y-15147222D02*
X14323491Y-15156746D01*
X14323491Y-15156746D02*
X14313967Y-15175793D01*
X14313967Y-15175793D02*
X14313967Y-15213888D01*
X14313967Y-15213888D02*
X14323491Y-15232936D01*
X14323491Y-15232936D02*
X14333015Y-15242460D01*
X14333015Y-15242460D02*
X14352062Y-15251984D01*
X14352062Y-15251984D02*
X14390158Y-15251984D01*
X14390158Y-15251984D02*
X14409205Y-15242460D01*
X14409205Y-15242460D02*
X14418729Y-15232936D01*
X14418729Y-15232936D02*
X14428253Y-15213888D01*
X14428253Y-15213888D02*
X14428253Y-15175793D01*
X14428253Y-15175793D02*
X14418729Y-15156746D01*
X14418729Y-15156746D02*
X14409205Y-15147222D01*
X14409205Y-15147222D02*
X14390158Y-15137698D01*
X14552062Y-15051984D02*
X14571110Y-15051984D01*
X14571110Y-15051984D02*
X14590158Y-15061508D01*
X14590158Y-15061508D02*
X14599682Y-15071031D01*
X14599682Y-15071031D02*
X14609205Y-15090079D01*
X14609205Y-15090079D02*
X14618729Y-15128174D01*
X14618729Y-15128174D02*
X14618729Y-15175793D01*
X14618729Y-15175793D02*
X14609205Y-15213888D01*
X14609205Y-15213888D02*
X14599682Y-15232936D01*
X14599682Y-15232936D02*
X14590158Y-15242460D01*
X14590158Y-15242460D02*
X14571110Y-15251984D01*
X14571110Y-15251984D02*
X14552062Y-15251984D01*
X14552062Y-15251984D02*
X14533015Y-15242460D01*
X14533015Y-15242460D02*
X14523491Y-15232936D01*
X14523491Y-15232936D02*
X14513967Y-15213888D01*
X14513967Y-15213888D02*
X14504443Y-15175793D01*
X14504443Y-15175793D02*
X14504443Y-15128174D01*
X14504443Y-15128174D02*
X14513967Y-15090079D01*
X14513967Y-15090079D02*
X14523491Y-15071031D01*
X14523491Y-15071031D02*
X14533015Y-15061508D01*
X14533015Y-15061508D02*
X14552062Y-15051984D01*
X14742539Y-15051984D02*
X14761586Y-15051984D01*
X14761586Y-15051984D02*
X14780634Y-15061508D01*
X14780634Y-15061508D02*
X14790158Y-15071031D01*
X14790158Y-15071031D02*
X14799682Y-15090079D01*
X14799682Y-15090079D02*
X14809205Y-15128174D01*
X14809205Y-15128174D02*
X14809205Y-15175793D01*
X14809205Y-15175793D02*
X14799682Y-15213888D01*
X14799682Y-15213888D02*
X14790158Y-15232936D01*
X14790158Y-15232936D02*
X14780634Y-15242460D01*
X14780634Y-15242460D02*
X14761586Y-15251984D01*
X14761586Y-15251984D02*
X14742539Y-15251984D01*
X14742539Y-15251984D02*
X14723491Y-15242460D01*
X14723491Y-15242460D02*
X14713967Y-15232936D01*
X14713967Y-15232936D02*
X14704443Y-15213888D01*
X14704443Y-15213888D02*
X14694920Y-15175793D01*
X14694920Y-15175793D02*
X14694920Y-15128174D01*
X14694920Y-15128174D02*
X14704443Y-15090079D01*
X14704443Y-15090079D02*
X14713967Y-15071031D01*
X14713967Y-15071031D02*
X14723491Y-15061508D01*
X14723491Y-15061508D02*
X14742539Y-15051984D01*
X14894920Y-15251984D02*
X14894920Y-15118650D01*
X14894920Y-15137698D02*
X14904443Y-15128174D01*
X14904443Y-15128174D02*
X14923491Y-15118650D01*
X14923491Y-15118650D02*
X14952063Y-15118650D01*
X14952063Y-15118650D02*
X14971110Y-15128174D01*
X14971110Y-15128174D02*
X14980634Y-15147222D01*
X14980634Y-15147222D02*
X14980634Y-15251984D01*
X14980634Y-15147222D02*
X14990158Y-15128174D01*
X14990158Y-15128174D02*
X15009205Y-15118650D01*
X15009205Y-15118650D02*
X15037777Y-15118650D01*
X15037777Y-15118650D02*
X15056824Y-15128174D01*
X15056824Y-15128174D02*
X15066348Y-15147222D01*
X15066348Y-15147222D02*
X15066348Y-15251984D01*
X15161586Y-15251984D02*
X15161586Y-15118650D01*
X15161586Y-15137698D02*
X15171110Y-15128174D01*
X15171110Y-15128174D02*
X15190158Y-15118650D01*
X15190158Y-15118650D02*
X15218729Y-15118650D01*
X15218729Y-15118650D02*
X15237777Y-15128174D01*
X15237777Y-15128174D02*
X15247301Y-15147222D01*
X15247301Y-15147222D02*
X15247301Y-15251984D01*
X15247301Y-15147222D02*
X15256824Y-15128174D01*
X15256824Y-15128174D02*
X15275872Y-15118650D01*
X15275872Y-15118650D02*
X15304443Y-15118650D01*
X15304443Y-15118650D02*
X15323491Y-15128174D01*
X15323491Y-15128174D02*
X15333015Y-15147222D01*
X15333015Y-15147222D02*
X15333015Y-15251984D01*
X15723491Y-15042460D02*
X15552063Y-15299603D01*
X15980634Y-15051984D02*
X15999682Y-15051984D01*
X15999682Y-15051984D02*
X16018729Y-15061508D01*
X16018729Y-15061508D02*
X16028253Y-15071031D01*
X16028253Y-15071031D02*
X16037777Y-15090079D01*
X16037777Y-15090079D02*
X16047301Y-15128174D01*
X16047301Y-15128174D02*
X16047301Y-15175793D01*
X16047301Y-15175793D02*
X16037777Y-15213888D01*
X16037777Y-15213888D02*
X16028253Y-15232936D01*
X16028253Y-15232936D02*
X16018729Y-15242460D01*
X16018729Y-15242460D02*
X15999682Y-15251984D01*
X15999682Y-15251984D02*
X15980634Y-15251984D01*
X15980634Y-15251984D02*
X15961586Y-15242460D01*
X15961586Y-15242460D02*
X15952063Y-15232936D01*
X15952063Y-15232936D02*
X15942539Y-15213888D01*
X15942539Y-15213888D02*
X15933015Y-15175793D01*
X15933015Y-15175793D02*
X15933015Y-15128174D01*
X15933015Y-15128174D02*
X15942539Y-15090079D01*
X15942539Y-15090079D02*
X15952063Y-15071031D01*
X15952063Y-15071031D02*
X15961586Y-15061508D01*
X15961586Y-15061508D02*
X15980634Y-15051984D01*
X16133015Y-15232936D02*
X16142539Y-15242460D01*
X16142539Y-15242460D02*
X16133015Y-15251984D01*
X16133015Y-15251984D02*
X16123491Y-15242460D01*
X16123491Y-15242460D02*
X16133015Y-15232936D01*
X16133015Y-15232936D02*
X16133015Y-15251984D01*
X16266348Y-15051984D02*
X16285396Y-15051984D01*
X16285396Y-15051984D02*
X16304444Y-15061508D01*
X16304444Y-15061508D02*
X16313967Y-15071031D01*
X16313967Y-15071031D02*
X16323491Y-15090079D01*
X16323491Y-15090079D02*
X16333015Y-15128174D01*
X16333015Y-15128174D02*
X16333015Y-15175793D01*
X16333015Y-15175793D02*
X16323491Y-15213888D01*
X16323491Y-15213888D02*
X16313967Y-15232936D01*
X16313967Y-15232936D02*
X16304444Y-15242460D01*
X16304444Y-15242460D02*
X16285396Y-15251984D01*
X16285396Y-15251984D02*
X16266348Y-15251984D01*
X16266348Y-15251984D02*
X16247301Y-15242460D01*
X16247301Y-15242460D02*
X16237777Y-15232936D01*
X16237777Y-15232936D02*
X16228253Y-15213888D01*
X16228253Y-15213888D02*
X16218729Y-15175793D01*
X16218729Y-15175793D02*
X16218729Y-15128174D01*
X16218729Y-15128174D02*
X16228253Y-15090079D01*
X16228253Y-15090079D02*
X16237777Y-15071031D01*
X16237777Y-15071031D02*
X16247301Y-15061508D01*
X16247301Y-15061508D02*
X16266348Y-15051984D01*
X16399682Y-15051984D02*
X16523491Y-15051984D01*
X16523491Y-15051984D02*
X16456825Y-15128174D01*
X16456825Y-15128174D02*
X16485396Y-15128174D01*
X16485396Y-15128174D02*
X16504444Y-15137698D01*
X16504444Y-15137698D02*
X16513967Y-15147222D01*
X16513967Y-15147222D02*
X16523491Y-15166269D01*
X16523491Y-15166269D02*
X16523491Y-15213888D01*
X16523491Y-15213888D02*
X16513967Y-15232936D01*
X16513967Y-15232936D02*
X16504444Y-15242460D01*
X16504444Y-15242460D02*
X16485396Y-15251984D01*
X16485396Y-15251984D02*
X16428253Y-15251984D01*
X16428253Y-15251984D02*
X16409206Y-15242460D01*
X16409206Y-15242460D02*
X16399682Y-15232936D01*
X16713967Y-15251984D02*
X16599682Y-15251984D01*
X16656825Y-15251984D02*
X16656825Y-15051984D01*
X16656825Y-15051984D02*
X16637777Y-15080555D01*
X16637777Y-15080555D02*
X16618729Y-15099603D01*
X16618729Y-15099603D02*
X16599682Y-15109127D01*
X16894920Y-15051984D02*
X16799682Y-15051984D01*
X16799682Y-15051984D02*
X16790158Y-15147222D01*
X16790158Y-15147222D02*
X16799682Y-15137698D01*
X16799682Y-15137698D02*
X16818729Y-15128174D01*
X16818729Y-15128174D02*
X16866349Y-15128174D01*
X16866349Y-15128174D02*
X16885396Y-15137698D01*
X16885396Y-15137698D02*
X16894920Y-15147222D01*
X16894920Y-15147222D02*
X16904444Y-15166269D01*
X16904444Y-15166269D02*
X16904444Y-15213888D01*
X16904444Y-15213888D02*
X16894920Y-15232936D01*
X16894920Y-15232936D02*
X16885396Y-15242460D01*
X16885396Y-15242460D02*
X16866349Y-15251984D01*
X16866349Y-15251984D02*
X16818729Y-15251984D01*
X16818729Y-15251984D02*
X16799682Y-15242460D01*
X16799682Y-15242460D02*
X16790158Y-15232936D01*
X16980634Y-15051984D02*
X16980634Y-15090079D01*
X17056825Y-15051984D02*
X17056825Y-15090079D01*
X17352063Y-15328174D02*
X17342539Y-15318650D01*
X17342539Y-15318650D02*
X17323491Y-15290079D01*
X17323491Y-15290079D02*
X17313968Y-15271031D01*
X17313968Y-15271031D02*
X17304444Y-15242460D01*
X17304444Y-15242460D02*
X17294920Y-15194841D01*
X17294920Y-15194841D02*
X17294920Y-15156746D01*
X17294920Y-15156746D02*
X17304444Y-15109127D01*
X17304444Y-15109127D02*
X17313968Y-15080555D01*
X17313968Y-15080555D02*
X17323491Y-15061508D01*
X17323491Y-15061508D02*
X17342539Y-15032936D01*
X17342539Y-15032936D02*
X17352063Y-15023412D01*
X17533015Y-15251984D02*
X17418730Y-15251984D01*
X17475872Y-15251984D02*
X17475872Y-15051984D01*
X17475872Y-15051984D02*
X17456825Y-15080555D01*
X17456825Y-15080555D02*
X17437777Y-15099603D01*
X17437777Y-15099603D02*
X17418730Y-15109127D01*
X17704444Y-15118650D02*
X17704444Y-15251984D01*
X17656825Y-15042460D02*
X17609206Y-15185317D01*
X17609206Y-15185317D02*
X17733015Y-15185317D01*
X17961587Y-15251984D02*
X17961587Y-15051984D01*
X18047301Y-15251984D02*
X18047301Y-15147222D01*
X18047301Y-15147222D02*
X18037777Y-15128174D01*
X18037777Y-15128174D02*
X18018730Y-15118650D01*
X18018730Y-15118650D02*
X17990158Y-15118650D01*
X17990158Y-15118650D02*
X17971111Y-15128174D01*
X17971111Y-15128174D02*
X17961587Y-15137698D01*
X18171111Y-15251984D02*
X18152063Y-15242460D01*
X18152063Y-15242460D02*
X18142539Y-15232936D01*
X18142539Y-15232936D02*
X18133015Y-15213888D01*
X18133015Y-15213888D02*
X18133015Y-15156746D01*
X18133015Y-15156746D02*
X18142539Y-15137698D01*
X18142539Y-15137698D02*
X18152063Y-15128174D01*
X18152063Y-15128174D02*
X18171111Y-15118650D01*
X18171111Y-15118650D02*
X18199682Y-15118650D01*
X18199682Y-15118650D02*
X18218730Y-15128174D01*
X18218730Y-15128174D02*
X18228253Y-15137698D01*
X18228253Y-15137698D02*
X18237777Y-15156746D01*
X18237777Y-15156746D02*
X18237777Y-15213888D01*
X18237777Y-15213888D02*
X18228253Y-15232936D01*
X18228253Y-15232936D02*
X18218730Y-15242460D01*
X18218730Y-15242460D02*
X18199682Y-15251984D01*
X18199682Y-15251984D02*
X18171111Y-15251984D01*
X18352063Y-15251984D02*
X18333015Y-15242460D01*
X18333015Y-15242460D02*
X18323492Y-15223412D01*
X18323492Y-15223412D02*
X18323492Y-15051984D01*
X18504444Y-15242460D02*
X18485396Y-15251984D01*
X18485396Y-15251984D02*
X18447301Y-15251984D01*
X18447301Y-15251984D02*
X18428253Y-15242460D01*
X18428253Y-15242460D02*
X18418730Y-15223412D01*
X18418730Y-15223412D02*
X18418730Y-15147222D01*
X18418730Y-15147222D02*
X18428253Y-15128174D01*
X18428253Y-15128174D02*
X18447301Y-15118650D01*
X18447301Y-15118650D02*
X18485396Y-15118650D01*
X18485396Y-15118650D02*
X18504444Y-15128174D01*
X18504444Y-15128174D02*
X18513968Y-15147222D01*
X18513968Y-15147222D02*
X18513968Y-15166269D01*
X18513968Y-15166269D02*
X18418730Y-15185317D01*
X18590158Y-15242460D02*
X18609206Y-15251984D01*
X18609206Y-15251984D02*
X18647301Y-15251984D01*
X18647301Y-15251984D02*
X18666349Y-15242460D01*
X18666349Y-15242460D02*
X18675873Y-15223412D01*
X18675873Y-15223412D02*
X18675873Y-15213888D01*
X18675873Y-15213888D02*
X18666349Y-15194841D01*
X18666349Y-15194841D02*
X18647301Y-15185317D01*
X18647301Y-15185317D02*
X18618730Y-15185317D01*
X18618730Y-15185317D02*
X18599682Y-15175793D01*
X18599682Y-15175793D02*
X18590158Y-15156746D01*
X18590158Y-15156746D02*
X18590158Y-15147222D01*
X18590158Y-15147222D02*
X18599682Y-15128174D01*
X18599682Y-15128174D02*
X18618730Y-15118650D01*
X18618730Y-15118650D02*
X18647301Y-15118650D01*
X18647301Y-15118650D02*
X18666349Y-15128174D01*
X18742539Y-15328174D02*
X18752063Y-15318650D01*
X18752063Y-15318650D02*
X18771111Y-15290079D01*
X18771111Y-15290079D02*
X18780634Y-15271031D01*
X18780634Y-15271031D02*
X18790158Y-15242460D01*
X18790158Y-15242460D02*
X18799682Y-15194841D01*
X18799682Y-15194841D02*
X18799682Y-15156746D01*
X18799682Y-15156746D02*
X18790158Y-15109127D01*
X18790158Y-15109127D02*
X18780634Y-15080555D01*
X18780634Y-15080555D02*
X18771111Y-15061508D01*
X18771111Y-15061508D02*
X18752063Y-15032936D01*
X18752063Y-15032936D02*
X18742539Y-15023412D01*
D17*
X13687000Y-15379500D02*
X13777000Y-15469500D01*
X13777000Y-15379500D02*
X13687000Y-15469500D01*
X13777000Y-15424500D02*
G75*
G03*
X13777000Y-15424500I-45000J0D01*
G01*
D11*
X14075872Y-15315984D02*
X14094920Y-15315984D01*
X14094920Y-15315984D02*
X14113967Y-15325508D01*
X14113967Y-15325508D02*
X14123491Y-15335031D01*
X14123491Y-15335031D02*
X14133015Y-15354079D01*
X14133015Y-15354079D02*
X14142539Y-15392174D01*
X14142539Y-15392174D02*
X14142539Y-15439793D01*
X14142539Y-15439793D02*
X14133015Y-15477888D01*
X14133015Y-15477888D02*
X14123491Y-15496936D01*
X14123491Y-15496936D02*
X14113967Y-15506460D01*
X14113967Y-15506460D02*
X14094920Y-15515984D01*
X14094920Y-15515984D02*
X14075872Y-15515984D01*
X14075872Y-15515984D02*
X14056824Y-15506460D01*
X14056824Y-15506460D02*
X14047301Y-15496936D01*
X14047301Y-15496936D02*
X14037777Y-15477888D01*
X14037777Y-15477888D02*
X14028253Y-15439793D01*
X14028253Y-15439793D02*
X14028253Y-15392174D01*
X14028253Y-15392174D02*
X14037777Y-15354079D01*
X14037777Y-15354079D02*
X14047301Y-15335031D01*
X14047301Y-15335031D02*
X14056824Y-15325508D01*
X14056824Y-15325508D02*
X14075872Y-15315984D01*
X14228253Y-15496936D02*
X14237777Y-15506460D01*
X14237777Y-15506460D02*
X14228253Y-15515984D01*
X14228253Y-15515984D02*
X14218729Y-15506460D01*
X14218729Y-15506460D02*
X14228253Y-15496936D01*
X14228253Y-15496936D02*
X14228253Y-15515984D01*
X14333015Y-15515984D02*
X14371110Y-15515984D01*
X14371110Y-15515984D02*
X14390158Y-15506460D01*
X14390158Y-15506460D02*
X14399682Y-15496936D01*
X14399682Y-15496936D02*
X14418729Y-15468365D01*
X14418729Y-15468365D02*
X14428253Y-15430269D01*
X14428253Y-15430269D02*
X14428253Y-15354079D01*
X14428253Y-15354079D02*
X14418729Y-15335031D01*
X14418729Y-15335031D02*
X14409205Y-15325508D01*
X14409205Y-15325508D02*
X14390158Y-15315984D01*
X14390158Y-15315984D02*
X14352062Y-15315984D01*
X14352062Y-15315984D02*
X14333015Y-15325508D01*
X14333015Y-15325508D02*
X14323491Y-15335031D01*
X14323491Y-15335031D02*
X14313967Y-15354079D01*
X14313967Y-15354079D02*
X14313967Y-15401698D01*
X14313967Y-15401698D02*
X14323491Y-15420746D01*
X14323491Y-15420746D02*
X14333015Y-15430269D01*
X14333015Y-15430269D02*
X14352062Y-15439793D01*
X14352062Y-15439793D02*
X14390158Y-15439793D01*
X14390158Y-15439793D02*
X14409205Y-15430269D01*
X14409205Y-15430269D02*
X14418729Y-15420746D01*
X14418729Y-15420746D02*
X14428253Y-15401698D01*
X14552062Y-15315984D02*
X14571110Y-15315984D01*
X14571110Y-15315984D02*
X14590158Y-15325508D01*
X14590158Y-15325508D02*
X14599682Y-15335031D01*
X14599682Y-15335031D02*
X14609205Y-15354079D01*
X14609205Y-15354079D02*
X14618729Y-15392174D01*
X14618729Y-15392174D02*
X14618729Y-15439793D01*
X14618729Y-15439793D02*
X14609205Y-15477888D01*
X14609205Y-15477888D02*
X14599682Y-15496936D01*
X14599682Y-15496936D02*
X14590158Y-15506460D01*
X14590158Y-15506460D02*
X14571110Y-15515984D01*
X14571110Y-15515984D02*
X14552062Y-15515984D01*
X14552062Y-15515984D02*
X14533015Y-15506460D01*
X14533015Y-15506460D02*
X14523491Y-15496936D01*
X14523491Y-15496936D02*
X14513967Y-15477888D01*
X14513967Y-15477888D02*
X14504443Y-15439793D01*
X14504443Y-15439793D02*
X14504443Y-15392174D01*
X14504443Y-15392174D02*
X14513967Y-15354079D01*
X14513967Y-15354079D02*
X14523491Y-15335031D01*
X14523491Y-15335031D02*
X14533015Y-15325508D01*
X14533015Y-15325508D02*
X14552062Y-15315984D01*
X14742539Y-15315984D02*
X14761586Y-15315984D01*
X14761586Y-15315984D02*
X14780634Y-15325508D01*
X14780634Y-15325508D02*
X14790158Y-15335031D01*
X14790158Y-15335031D02*
X14799682Y-15354079D01*
X14799682Y-15354079D02*
X14809205Y-15392174D01*
X14809205Y-15392174D02*
X14809205Y-15439793D01*
X14809205Y-15439793D02*
X14799682Y-15477888D01*
X14799682Y-15477888D02*
X14790158Y-15496936D01*
X14790158Y-15496936D02*
X14780634Y-15506460D01*
X14780634Y-15506460D02*
X14761586Y-15515984D01*
X14761586Y-15515984D02*
X14742539Y-15515984D01*
X14742539Y-15515984D02*
X14723491Y-15506460D01*
X14723491Y-15506460D02*
X14713967Y-15496936D01*
X14713967Y-15496936D02*
X14704443Y-15477888D01*
X14704443Y-15477888D02*
X14694920Y-15439793D01*
X14694920Y-15439793D02*
X14694920Y-15392174D01*
X14694920Y-15392174D02*
X14704443Y-15354079D01*
X14704443Y-15354079D02*
X14713967Y-15335031D01*
X14713967Y-15335031D02*
X14723491Y-15325508D01*
X14723491Y-15325508D02*
X14742539Y-15315984D01*
X14894920Y-15515984D02*
X14894920Y-15382650D01*
X14894920Y-15401698D02*
X14904443Y-15392174D01*
X14904443Y-15392174D02*
X14923491Y-15382650D01*
X14923491Y-15382650D02*
X14952063Y-15382650D01*
X14952063Y-15382650D02*
X14971110Y-15392174D01*
X14971110Y-15392174D02*
X14980634Y-15411222D01*
X14980634Y-15411222D02*
X14980634Y-15515984D01*
X14980634Y-15411222D02*
X14990158Y-15392174D01*
X14990158Y-15392174D02*
X15009205Y-15382650D01*
X15009205Y-15382650D02*
X15037777Y-15382650D01*
X15037777Y-15382650D02*
X15056824Y-15392174D01*
X15056824Y-15392174D02*
X15066348Y-15411222D01*
X15066348Y-15411222D02*
X15066348Y-15515984D01*
X15161586Y-15515984D02*
X15161586Y-15382650D01*
X15161586Y-15401698D02*
X15171110Y-15392174D01*
X15171110Y-15392174D02*
X15190158Y-15382650D01*
X15190158Y-15382650D02*
X15218729Y-15382650D01*
X15218729Y-15382650D02*
X15237777Y-15392174D01*
X15237777Y-15392174D02*
X15247301Y-15411222D01*
X15247301Y-15411222D02*
X15247301Y-15515984D01*
X15247301Y-15411222D02*
X15256824Y-15392174D01*
X15256824Y-15392174D02*
X15275872Y-15382650D01*
X15275872Y-15382650D02*
X15304443Y-15382650D01*
X15304443Y-15382650D02*
X15323491Y-15392174D01*
X15323491Y-15392174D02*
X15333015Y-15411222D01*
X15333015Y-15411222D02*
X15333015Y-15515984D01*
X15723491Y-15306460D02*
X15552063Y-15563603D01*
X15980634Y-15315984D02*
X15999682Y-15315984D01*
X15999682Y-15315984D02*
X16018729Y-15325508D01*
X16018729Y-15325508D02*
X16028253Y-15335031D01*
X16028253Y-15335031D02*
X16037777Y-15354079D01*
X16037777Y-15354079D02*
X16047301Y-15392174D01*
X16047301Y-15392174D02*
X16047301Y-15439793D01*
X16047301Y-15439793D02*
X16037777Y-15477888D01*
X16037777Y-15477888D02*
X16028253Y-15496936D01*
X16028253Y-15496936D02*
X16018729Y-15506460D01*
X16018729Y-15506460D02*
X15999682Y-15515984D01*
X15999682Y-15515984D02*
X15980634Y-15515984D01*
X15980634Y-15515984D02*
X15961586Y-15506460D01*
X15961586Y-15506460D02*
X15952063Y-15496936D01*
X15952063Y-15496936D02*
X15942539Y-15477888D01*
X15942539Y-15477888D02*
X15933015Y-15439793D01*
X15933015Y-15439793D02*
X15933015Y-15392174D01*
X15933015Y-15392174D02*
X15942539Y-15354079D01*
X15942539Y-15354079D02*
X15952063Y-15335031D01*
X15952063Y-15335031D02*
X15961586Y-15325508D01*
X15961586Y-15325508D02*
X15980634Y-15315984D01*
X16133015Y-15496936D02*
X16142539Y-15506460D01*
X16142539Y-15506460D02*
X16133015Y-15515984D01*
X16133015Y-15515984D02*
X16123491Y-15506460D01*
X16123491Y-15506460D02*
X16133015Y-15496936D01*
X16133015Y-15496936D02*
X16133015Y-15515984D01*
X16266348Y-15315984D02*
X16285396Y-15315984D01*
X16285396Y-15315984D02*
X16304444Y-15325508D01*
X16304444Y-15325508D02*
X16313967Y-15335031D01*
X16313967Y-15335031D02*
X16323491Y-15354079D01*
X16323491Y-15354079D02*
X16333015Y-15392174D01*
X16333015Y-15392174D02*
X16333015Y-15439793D01*
X16333015Y-15439793D02*
X16323491Y-15477888D01*
X16323491Y-15477888D02*
X16313967Y-15496936D01*
X16313967Y-15496936D02*
X16304444Y-15506460D01*
X16304444Y-15506460D02*
X16285396Y-15515984D01*
X16285396Y-15515984D02*
X16266348Y-15515984D01*
X16266348Y-15515984D02*
X16247301Y-15506460D01*
X16247301Y-15506460D02*
X16237777Y-15496936D01*
X16237777Y-15496936D02*
X16228253Y-15477888D01*
X16228253Y-15477888D02*
X16218729Y-15439793D01*
X16218729Y-15439793D02*
X16218729Y-15392174D01*
X16218729Y-15392174D02*
X16228253Y-15354079D01*
X16228253Y-15354079D02*
X16237777Y-15335031D01*
X16237777Y-15335031D02*
X16247301Y-15325508D01*
X16247301Y-15325508D02*
X16266348Y-15315984D01*
X16399682Y-15315984D02*
X16523491Y-15315984D01*
X16523491Y-15315984D02*
X16456825Y-15392174D01*
X16456825Y-15392174D02*
X16485396Y-15392174D01*
X16485396Y-15392174D02*
X16504444Y-15401698D01*
X16504444Y-15401698D02*
X16513967Y-15411222D01*
X16513967Y-15411222D02*
X16523491Y-15430269D01*
X16523491Y-15430269D02*
X16523491Y-15477888D01*
X16523491Y-15477888D02*
X16513967Y-15496936D01*
X16513967Y-15496936D02*
X16504444Y-15506460D01*
X16504444Y-15506460D02*
X16485396Y-15515984D01*
X16485396Y-15515984D02*
X16428253Y-15515984D01*
X16428253Y-15515984D02*
X16409206Y-15506460D01*
X16409206Y-15506460D02*
X16399682Y-15496936D01*
X16704444Y-15315984D02*
X16609206Y-15315984D01*
X16609206Y-15315984D02*
X16599682Y-15411222D01*
X16599682Y-15411222D02*
X16609206Y-15401698D01*
X16609206Y-15401698D02*
X16628253Y-15392174D01*
X16628253Y-15392174D02*
X16675872Y-15392174D01*
X16675872Y-15392174D02*
X16694920Y-15401698D01*
X16694920Y-15401698D02*
X16704444Y-15411222D01*
X16704444Y-15411222D02*
X16713967Y-15430269D01*
X16713967Y-15430269D02*
X16713967Y-15477888D01*
X16713967Y-15477888D02*
X16704444Y-15496936D01*
X16704444Y-15496936D02*
X16694920Y-15506460D01*
X16694920Y-15506460D02*
X16675872Y-15515984D01*
X16675872Y-15515984D02*
X16628253Y-15515984D01*
X16628253Y-15515984D02*
X16609206Y-15506460D01*
X16609206Y-15506460D02*
X16599682Y-15496936D01*
X16885396Y-15382650D02*
X16885396Y-15515984D01*
X16837777Y-15306460D02*
X16790158Y-15449317D01*
X16790158Y-15449317D02*
X16913968Y-15449317D01*
X16980634Y-15315984D02*
X16980634Y-15354079D01*
X17056825Y-15315984D02*
X17056825Y-15354079D01*
X17352063Y-15592174D02*
X17342539Y-15582650D01*
X17342539Y-15582650D02*
X17323491Y-15554079D01*
X17323491Y-15554079D02*
X17313968Y-15535031D01*
X17313968Y-15535031D02*
X17304444Y-15506460D01*
X17304444Y-15506460D02*
X17294920Y-15458841D01*
X17294920Y-15458841D02*
X17294920Y-15420746D01*
X17294920Y-15420746D02*
X17304444Y-15373127D01*
X17304444Y-15373127D02*
X17313968Y-15344555D01*
X17313968Y-15344555D02*
X17323491Y-15325508D01*
X17323491Y-15325508D02*
X17342539Y-15296936D01*
X17342539Y-15296936D02*
X17352063Y-15287412D01*
X17418730Y-15335031D02*
X17428253Y-15325508D01*
X17428253Y-15325508D02*
X17447301Y-15315984D01*
X17447301Y-15315984D02*
X17494920Y-15315984D01*
X17494920Y-15315984D02*
X17513968Y-15325508D01*
X17513968Y-15325508D02*
X17523491Y-15335031D01*
X17523491Y-15335031D02*
X17533015Y-15354079D01*
X17533015Y-15354079D02*
X17533015Y-15373127D01*
X17533015Y-15373127D02*
X17523491Y-15401698D01*
X17523491Y-15401698D02*
X17409206Y-15515984D01*
X17409206Y-15515984D02*
X17533015Y-15515984D01*
X17771111Y-15515984D02*
X17771111Y-15315984D01*
X17856825Y-15515984D02*
X17856825Y-15411222D01*
X17856825Y-15411222D02*
X17847301Y-15392174D01*
X17847301Y-15392174D02*
X17828253Y-15382650D01*
X17828253Y-15382650D02*
X17799682Y-15382650D01*
X17799682Y-15382650D02*
X17780634Y-15392174D01*
X17780634Y-15392174D02*
X17771111Y-15401698D01*
X17980634Y-15515984D02*
X17961587Y-15506460D01*
X17961587Y-15506460D02*
X17952063Y-15496936D01*
X17952063Y-15496936D02*
X17942539Y-15477888D01*
X17942539Y-15477888D02*
X17942539Y-15420746D01*
X17942539Y-15420746D02*
X17952063Y-15401698D01*
X17952063Y-15401698D02*
X17961587Y-15392174D01*
X17961587Y-15392174D02*
X17980634Y-15382650D01*
X17980634Y-15382650D02*
X18009206Y-15382650D01*
X18009206Y-15382650D02*
X18028253Y-15392174D01*
X18028253Y-15392174D02*
X18037777Y-15401698D01*
X18037777Y-15401698D02*
X18047301Y-15420746D01*
X18047301Y-15420746D02*
X18047301Y-15477888D01*
X18047301Y-15477888D02*
X18037777Y-15496936D01*
X18037777Y-15496936D02*
X18028253Y-15506460D01*
X18028253Y-15506460D02*
X18009206Y-15515984D01*
X18009206Y-15515984D02*
X17980634Y-15515984D01*
X18161587Y-15515984D02*
X18142539Y-15506460D01*
X18142539Y-15506460D02*
X18133015Y-15487412D01*
X18133015Y-15487412D02*
X18133015Y-15315984D01*
X18313968Y-15506460D02*
X18294920Y-15515984D01*
X18294920Y-15515984D02*
X18256825Y-15515984D01*
X18256825Y-15515984D02*
X18237777Y-15506460D01*
X18237777Y-15506460D02*
X18228253Y-15487412D01*
X18228253Y-15487412D02*
X18228253Y-15411222D01*
X18228253Y-15411222D02*
X18237777Y-15392174D01*
X18237777Y-15392174D02*
X18256825Y-15382650D01*
X18256825Y-15382650D02*
X18294920Y-15382650D01*
X18294920Y-15382650D02*
X18313968Y-15392174D01*
X18313968Y-15392174D02*
X18323492Y-15411222D01*
X18323492Y-15411222D02*
X18323492Y-15430269D01*
X18323492Y-15430269D02*
X18228253Y-15449317D01*
X18399682Y-15506460D02*
X18418730Y-15515984D01*
X18418730Y-15515984D02*
X18456825Y-15515984D01*
X18456825Y-15515984D02*
X18475873Y-15506460D01*
X18475873Y-15506460D02*
X18485396Y-15487412D01*
X18485396Y-15487412D02*
X18485396Y-15477888D01*
X18485396Y-15477888D02*
X18475873Y-15458841D01*
X18475873Y-15458841D02*
X18456825Y-15449317D01*
X18456825Y-15449317D02*
X18428253Y-15449317D01*
X18428253Y-15449317D02*
X18409206Y-15439793D01*
X18409206Y-15439793D02*
X18399682Y-15420746D01*
X18399682Y-15420746D02*
X18399682Y-15411222D01*
X18399682Y-15411222D02*
X18409206Y-15392174D01*
X18409206Y-15392174D02*
X18428253Y-15382650D01*
X18428253Y-15382650D02*
X18456825Y-15382650D01*
X18456825Y-15382650D02*
X18475873Y-15392174D01*
X18552063Y-15592174D02*
X18561587Y-15582650D01*
X18561587Y-15582650D02*
X18580634Y-15554079D01*
X18580634Y-15554079D02*
X18590158Y-15535031D01*
X18590158Y-15535031D02*
X18599682Y-15506460D01*
X18599682Y-15506460D02*
X18609206Y-15458841D01*
X18609206Y-15458841D02*
X18609206Y-15420746D01*
X18609206Y-15420746D02*
X18599682Y-15373127D01*
X18599682Y-15373127D02*
X18590158Y-15344555D01*
X18590158Y-15344555D02*
X18580634Y-15325508D01*
X18580634Y-15325508D02*
X18561587Y-15296936D01*
X18561587Y-15296936D02*
X18552063Y-15287412D01*
D18*
X13677000Y-15638500D02*
X13777000Y-15738500D01*
X13777000Y-15638500D02*
X13677000Y-15738500D01*
X13727000Y-15638500D02*
X13727000Y-15738500D01*
X13677000Y-15688500D02*
X13777000Y-15688500D01*
D11*
X14142539Y-15779984D02*
X14028253Y-15779984D01*
X14085396Y-15779984D02*
X14085396Y-15579984D01*
X14085396Y-15579984D02*
X14066348Y-15608555D01*
X14066348Y-15608555D02*
X14047301Y-15627603D01*
X14047301Y-15627603D02*
X14028253Y-15637127D01*
X14228253Y-15760936D02*
X14237777Y-15770460D01*
X14237777Y-15770460D02*
X14228253Y-15779984D01*
X14228253Y-15779984D02*
X14218729Y-15770460D01*
X14218729Y-15770460D02*
X14228253Y-15760936D01*
X14228253Y-15760936D02*
X14228253Y-15779984D01*
X14361586Y-15579984D02*
X14380634Y-15579984D01*
X14380634Y-15579984D02*
X14399682Y-15589508D01*
X14399682Y-15589508D02*
X14409205Y-15599031D01*
X14409205Y-15599031D02*
X14418729Y-15618079D01*
X14418729Y-15618079D02*
X14428253Y-15656174D01*
X14428253Y-15656174D02*
X14428253Y-15703793D01*
X14428253Y-15703793D02*
X14418729Y-15741888D01*
X14418729Y-15741888D02*
X14409205Y-15760936D01*
X14409205Y-15760936D02*
X14399682Y-15770460D01*
X14399682Y-15770460D02*
X14380634Y-15779984D01*
X14380634Y-15779984D02*
X14361586Y-15779984D01*
X14361586Y-15779984D02*
X14342539Y-15770460D01*
X14342539Y-15770460D02*
X14333015Y-15760936D01*
X14333015Y-15760936D02*
X14323491Y-15741888D01*
X14323491Y-15741888D02*
X14313967Y-15703793D01*
X14313967Y-15703793D02*
X14313967Y-15656174D01*
X14313967Y-15656174D02*
X14323491Y-15618079D01*
X14323491Y-15618079D02*
X14333015Y-15599031D01*
X14333015Y-15599031D02*
X14342539Y-15589508D01*
X14342539Y-15589508D02*
X14361586Y-15579984D01*
X14552062Y-15579984D02*
X14571110Y-15579984D01*
X14571110Y-15579984D02*
X14590158Y-15589508D01*
X14590158Y-15589508D02*
X14599682Y-15599031D01*
X14599682Y-15599031D02*
X14609205Y-15618079D01*
X14609205Y-15618079D02*
X14618729Y-15656174D01*
X14618729Y-15656174D02*
X14618729Y-15703793D01*
X14618729Y-15703793D02*
X14609205Y-15741888D01*
X14609205Y-15741888D02*
X14599682Y-15760936D01*
X14599682Y-15760936D02*
X14590158Y-15770460D01*
X14590158Y-15770460D02*
X14571110Y-15779984D01*
X14571110Y-15779984D02*
X14552062Y-15779984D01*
X14552062Y-15779984D02*
X14533015Y-15770460D01*
X14533015Y-15770460D02*
X14523491Y-15760936D01*
X14523491Y-15760936D02*
X14513967Y-15741888D01*
X14513967Y-15741888D02*
X14504443Y-15703793D01*
X14504443Y-15703793D02*
X14504443Y-15656174D01*
X14504443Y-15656174D02*
X14513967Y-15618079D01*
X14513967Y-15618079D02*
X14523491Y-15599031D01*
X14523491Y-15599031D02*
X14533015Y-15589508D01*
X14533015Y-15589508D02*
X14552062Y-15579984D01*
X14742539Y-15579984D02*
X14761586Y-15579984D01*
X14761586Y-15579984D02*
X14780634Y-15589508D01*
X14780634Y-15589508D02*
X14790158Y-15599031D01*
X14790158Y-15599031D02*
X14799682Y-15618079D01*
X14799682Y-15618079D02*
X14809205Y-15656174D01*
X14809205Y-15656174D02*
X14809205Y-15703793D01*
X14809205Y-15703793D02*
X14799682Y-15741888D01*
X14799682Y-15741888D02*
X14790158Y-15760936D01*
X14790158Y-15760936D02*
X14780634Y-15770460D01*
X14780634Y-15770460D02*
X14761586Y-15779984D01*
X14761586Y-15779984D02*
X14742539Y-15779984D01*
X14742539Y-15779984D02*
X14723491Y-15770460D01*
X14723491Y-15770460D02*
X14713967Y-15760936D01*
X14713967Y-15760936D02*
X14704443Y-15741888D01*
X14704443Y-15741888D02*
X14694920Y-15703793D01*
X14694920Y-15703793D02*
X14694920Y-15656174D01*
X14694920Y-15656174D02*
X14704443Y-15618079D01*
X14704443Y-15618079D02*
X14713967Y-15599031D01*
X14713967Y-15599031D02*
X14723491Y-15589508D01*
X14723491Y-15589508D02*
X14742539Y-15579984D01*
X14894920Y-15779984D02*
X14894920Y-15646650D01*
X14894920Y-15665698D02*
X14904443Y-15656174D01*
X14904443Y-15656174D02*
X14923491Y-15646650D01*
X14923491Y-15646650D02*
X14952063Y-15646650D01*
X14952063Y-15646650D02*
X14971110Y-15656174D01*
X14971110Y-15656174D02*
X14980634Y-15675222D01*
X14980634Y-15675222D02*
X14980634Y-15779984D01*
X14980634Y-15675222D02*
X14990158Y-15656174D01*
X14990158Y-15656174D02*
X15009205Y-15646650D01*
X15009205Y-15646650D02*
X15037777Y-15646650D01*
X15037777Y-15646650D02*
X15056824Y-15656174D01*
X15056824Y-15656174D02*
X15066348Y-15675222D01*
X15066348Y-15675222D02*
X15066348Y-15779984D01*
X15161586Y-15779984D02*
X15161586Y-15646650D01*
X15161586Y-15665698D02*
X15171110Y-15656174D01*
X15171110Y-15656174D02*
X15190158Y-15646650D01*
X15190158Y-15646650D02*
X15218729Y-15646650D01*
X15218729Y-15646650D02*
X15237777Y-15656174D01*
X15237777Y-15656174D02*
X15247301Y-15675222D01*
X15247301Y-15675222D02*
X15247301Y-15779984D01*
X15247301Y-15675222D02*
X15256824Y-15656174D01*
X15256824Y-15656174D02*
X15275872Y-15646650D01*
X15275872Y-15646650D02*
X15304443Y-15646650D01*
X15304443Y-15646650D02*
X15323491Y-15656174D01*
X15323491Y-15656174D02*
X15333015Y-15675222D01*
X15333015Y-15675222D02*
X15333015Y-15779984D01*
X15723491Y-15570460D02*
X15552063Y-15827603D01*
X15980634Y-15579984D02*
X15999682Y-15579984D01*
X15999682Y-15579984D02*
X16018729Y-15589508D01*
X16018729Y-15589508D02*
X16028253Y-15599031D01*
X16028253Y-15599031D02*
X16037777Y-15618079D01*
X16037777Y-15618079D02*
X16047301Y-15656174D01*
X16047301Y-15656174D02*
X16047301Y-15703793D01*
X16047301Y-15703793D02*
X16037777Y-15741888D01*
X16037777Y-15741888D02*
X16028253Y-15760936D01*
X16028253Y-15760936D02*
X16018729Y-15770460D01*
X16018729Y-15770460D02*
X15999682Y-15779984D01*
X15999682Y-15779984D02*
X15980634Y-15779984D01*
X15980634Y-15779984D02*
X15961586Y-15770460D01*
X15961586Y-15770460D02*
X15952063Y-15760936D01*
X15952063Y-15760936D02*
X15942539Y-15741888D01*
X15942539Y-15741888D02*
X15933015Y-15703793D01*
X15933015Y-15703793D02*
X15933015Y-15656174D01*
X15933015Y-15656174D02*
X15942539Y-15618079D01*
X15942539Y-15618079D02*
X15952063Y-15599031D01*
X15952063Y-15599031D02*
X15961586Y-15589508D01*
X15961586Y-15589508D02*
X15980634Y-15579984D01*
X16133015Y-15760936D02*
X16142539Y-15770460D01*
X16142539Y-15770460D02*
X16133015Y-15779984D01*
X16133015Y-15779984D02*
X16123491Y-15770460D01*
X16123491Y-15770460D02*
X16133015Y-15760936D01*
X16133015Y-15760936D02*
X16133015Y-15779984D01*
X16266348Y-15579984D02*
X16285396Y-15579984D01*
X16285396Y-15579984D02*
X16304444Y-15589508D01*
X16304444Y-15589508D02*
X16313967Y-15599031D01*
X16313967Y-15599031D02*
X16323491Y-15618079D01*
X16323491Y-15618079D02*
X16333015Y-15656174D01*
X16333015Y-15656174D02*
X16333015Y-15703793D01*
X16333015Y-15703793D02*
X16323491Y-15741888D01*
X16323491Y-15741888D02*
X16313967Y-15760936D01*
X16313967Y-15760936D02*
X16304444Y-15770460D01*
X16304444Y-15770460D02*
X16285396Y-15779984D01*
X16285396Y-15779984D02*
X16266348Y-15779984D01*
X16266348Y-15779984D02*
X16247301Y-15770460D01*
X16247301Y-15770460D02*
X16237777Y-15760936D01*
X16237777Y-15760936D02*
X16228253Y-15741888D01*
X16228253Y-15741888D02*
X16218729Y-15703793D01*
X16218729Y-15703793D02*
X16218729Y-15656174D01*
X16218729Y-15656174D02*
X16228253Y-15618079D01*
X16228253Y-15618079D02*
X16237777Y-15599031D01*
X16237777Y-15599031D02*
X16247301Y-15589508D01*
X16247301Y-15589508D02*
X16266348Y-15579984D01*
X16399682Y-15579984D02*
X16523491Y-15579984D01*
X16523491Y-15579984D02*
X16456825Y-15656174D01*
X16456825Y-15656174D02*
X16485396Y-15656174D01*
X16485396Y-15656174D02*
X16504444Y-15665698D01*
X16504444Y-15665698D02*
X16513967Y-15675222D01*
X16513967Y-15675222D02*
X16523491Y-15694269D01*
X16523491Y-15694269D02*
X16523491Y-15741888D01*
X16523491Y-15741888D02*
X16513967Y-15760936D01*
X16513967Y-15760936D02*
X16504444Y-15770460D01*
X16504444Y-15770460D02*
X16485396Y-15779984D01*
X16485396Y-15779984D02*
X16428253Y-15779984D01*
X16428253Y-15779984D02*
X16409206Y-15770460D01*
X16409206Y-15770460D02*
X16399682Y-15760936D01*
X16618729Y-15779984D02*
X16656825Y-15779984D01*
X16656825Y-15779984D02*
X16675872Y-15770460D01*
X16675872Y-15770460D02*
X16685396Y-15760936D01*
X16685396Y-15760936D02*
X16704444Y-15732365D01*
X16704444Y-15732365D02*
X16713967Y-15694269D01*
X16713967Y-15694269D02*
X16713967Y-15618079D01*
X16713967Y-15618079D02*
X16704444Y-15599031D01*
X16704444Y-15599031D02*
X16694920Y-15589508D01*
X16694920Y-15589508D02*
X16675872Y-15579984D01*
X16675872Y-15579984D02*
X16637777Y-15579984D01*
X16637777Y-15579984D02*
X16618729Y-15589508D01*
X16618729Y-15589508D02*
X16609206Y-15599031D01*
X16609206Y-15599031D02*
X16599682Y-15618079D01*
X16599682Y-15618079D02*
X16599682Y-15665698D01*
X16599682Y-15665698D02*
X16609206Y-15684746D01*
X16609206Y-15684746D02*
X16618729Y-15694269D01*
X16618729Y-15694269D02*
X16637777Y-15703793D01*
X16637777Y-15703793D02*
X16675872Y-15703793D01*
X16675872Y-15703793D02*
X16694920Y-15694269D01*
X16694920Y-15694269D02*
X16704444Y-15684746D01*
X16704444Y-15684746D02*
X16713967Y-15665698D01*
X16885396Y-15646650D02*
X16885396Y-15779984D01*
X16837777Y-15570460D02*
X16790158Y-15713317D01*
X16790158Y-15713317D02*
X16913968Y-15713317D01*
X16980634Y-15579984D02*
X16980634Y-15618079D01*
X17056825Y-15579984D02*
X17056825Y-15618079D01*
X17352063Y-15856174D02*
X17342539Y-15846650D01*
X17342539Y-15846650D02*
X17323491Y-15818079D01*
X17323491Y-15818079D02*
X17313968Y-15799031D01*
X17313968Y-15799031D02*
X17304444Y-15770460D01*
X17304444Y-15770460D02*
X17294920Y-15722841D01*
X17294920Y-15722841D02*
X17294920Y-15684746D01*
X17294920Y-15684746D02*
X17304444Y-15637127D01*
X17304444Y-15637127D02*
X17313968Y-15608555D01*
X17313968Y-15608555D02*
X17323491Y-15589508D01*
X17323491Y-15589508D02*
X17342539Y-15560936D01*
X17342539Y-15560936D02*
X17352063Y-15551412D01*
X17513968Y-15579984D02*
X17475872Y-15579984D01*
X17475872Y-15579984D02*
X17456825Y-15589508D01*
X17456825Y-15589508D02*
X17447301Y-15599031D01*
X17447301Y-15599031D02*
X17428253Y-15627603D01*
X17428253Y-15627603D02*
X17418730Y-15665698D01*
X17418730Y-15665698D02*
X17418730Y-15741888D01*
X17418730Y-15741888D02*
X17428253Y-15760936D01*
X17428253Y-15760936D02*
X17437777Y-15770460D01*
X17437777Y-15770460D02*
X17456825Y-15779984D01*
X17456825Y-15779984D02*
X17494920Y-15779984D01*
X17494920Y-15779984D02*
X17513968Y-15770460D01*
X17513968Y-15770460D02*
X17523491Y-15760936D01*
X17523491Y-15760936D02*
X17533015Y-15741888D01*
X17533015Y-15741888D02*
X17533015Y-15694269D01*
X17533015Y-15694269D02*
X17523491Y-15675222D01*
X17523491Y-15675222D02*
X17513968Y-15665698D01*
X17513968Y-15665698D02*
X17494920Y-15656174D01*
X17494920Y-15656174D02*
X17456825Y-15656174D01*
X17456825Y-15656174D02*
X17437777Y-15665698D01*
X17437777Y-15665698D02*
X17428253Y-15675222D01*
X17428253Y-15675222D02*
X17418730Y-15694269D01*
X17599682Y-15579984D02*
X17723491Y-15579984D01*
X17723491Y-15579984D02*
X17656825Y-15656174D01*
X17656825Y-15656174D02*
X17685396Y-15656174D01*
X17685396Y-15656174D02*
X17704444Y-15665698D01*
X17704444Y-15665698D02*
X17713968Y-15675222D01*
X17713968Y-15675222D02*
X17723491Y-15694269D01*
X17723491Y-15694269D02*
X17723491Y-15741888D01*
X17723491Y-15741888D02*
X17713968Y-15760936D01*
X17713968Y-15760936D02*
X17704444Y-15770460D01*
X17704444Y-15770460D02*
X17685396Y-15779984D01*
X17685396Y-15779984D02*
X17628253Y-15779984D01*
X17628253Y-15779984D02*
X17609206Y-15770460D01*
X17609206Y-15770460D02*
X17599682Y-15760936D01*
X17961587Y-15779984D02*
X17961587Y-15579984D01*
X18047301Y-15779984D02*
X18047301Y-15675222D01*
X18047301Y-15675222D02*
X18037777Y-15656174D01*
X18037777Y-15656174D02*
X18018730Y-15646650D01*
X18018730Y-15646650D02*
X17990158Y-15646650D01*
X17990158Y-15646650D02*
X17971111Y-15656174D01*
X17971111Y-15656174D02*
X17961587Y-15665698D01*
X18171111Y-15779984D02*
X18152063Y-15770460D01*
X18152063Y-15770460D02*
X18142539Y-15760936D01*
X18142539Y-15760936D02*
X18133015Y-15741888D01*
X18133015Y-15741888D02*
X18133015Y-15684746D01*
X18133015Y-15684746D02*
X18142539Y-15665698D01*
X18142539Y-15665698D02*
X18152063Y-15656174D01*
X18152063Y-15656174D02*
X18171111Y-15646650D01*
X18171111Y-15646650D02*
X18199682Y-15646650D01*
X18199682Y-15646650D02*
X18218730Y-15656174D01*
X18218730Y-15656174D02*
X18228253Y-15665698D01*
X18228253Y-15665698D02*
X18237777Y-15684746D01*
X18237777Y-15684746D02*
X18237777Y-15741888D01*
X18237777Y-15741888D02*
X18228253Y-15760936D01*
X18228253Y-15760936D02*
X18218730Y-15770460D01*
X18218730Y-15770460D02*
X18199682Y-15779984D01*
X18199682Y-15779984D02*
X18171111Y-15779984D01*
X18352063Y-15779984D02*
X18333015Y-15770460D01*
X18333015Y-15770460D02*
X18323492Y-15751412D01*
X18323492Y-15751412D02*
X18323492Y-15579984D01*
X18504444Y-15770460D02*
X18485396Y-15779984D01*
X18485396Y-15779984D02*
X18447301Y-15779984D01*
X18447301Y-15779984D02*
X18428253Y-15770460D01*
X18428253Y-15770460D02*
X18418730Y-15751412D01*
X18418730Y-15751412D02*
X18418730Y-15675222D01*
X18418730Y-15675222D02*
X18428253Y-15656174D01*
X18428253Y-15656174D02*
X18447301Y-15646650D01*
X18447301Y-15646650D02*
X18485396Y-15646650D01*
X18485396Y-15646650D02*
X18504444Y-15656174D01*
X18504444Y-15656174D02*
X18513968Y-15675222D01*
X18513968Y-15675222D02*
X18513968Y-15694269D01*
X18513968Y-15694269D02*
X18418730Y-15713317D01*
X18590158Y-15770460D02*
X18609206Y-15779984D01*
X18609206Y-15779984D02*
X18647301Y-15779984D01*
X18647301Y-15779984D02*
X18666349Y-15770460D01*
X18666349Y-15770460D02*
X18675873Y-15751412D01*
X18675873Y-15751412D02*
X18675873Y-15741888D01*
X18675873Y-15741888D02*
X18666349Y-15722841D01*
X18666349Y-15722841D02*
X18647301Y-15713317D01*
X18647301Y-15713317D02*
X18618730Y-15713317D01*
X18618730Y-15713317D02*
X18599682Y-15703793D01*
X18599682Y-15703793D02*
X18590158Y-15684746D01*
X18590158Y-15684746D02*
X18590158Y-15675222D01*
X18590158Y-15675222D02*
X18599682Y-15656174D01*
X18599682Y-15656174D02*
X18618730Y-15646650D01*
X18618730Y-15646650D02*
X18647301Y-15646650D01*
X18647301Y-15646650D02*
X18666349Y-15656174D01*
X18742539Y-15856174D02*
X18752063Y-15846650D01*
X18752063Y-15846650D02*
X18771111Y-15818079D01*
X18771111Y-15818079D02*
X18780634Y-15799031D01*
X18780634Y-15799031D02*
X18790158Y-15770460D01*
X18790158Y-15770460D02*
X18799682Y-15722841D01*
X18799682Y-15722841D02*
X18799682Y-15684746D01*
X18799682Y-15684746D02*
X18790158Y-15637127D01*
X18790158Y-15637127D02*
X18780634Y-15608555D01*
X18780634Y-15608555D02*
X18771111Y-15589508D01*
X18771111Y-15589508D02*
X18752063Y-15560936D01*
X18752063Y-15560936D02*
X18742539Y-15551412D01*
D19*
X13675400Y-15901700D02*
X13777000Y-16003300D01*
X13777000Y-15901700D02*
X13675400Y-16003300D01*
X13762121Y-15988421D02*
X13762121Y-15916579D01*
X13690279Y-15916579D01*
X13690279Y-15988421D01*
X13762121Y-15988421D01*
D11*
X14142539Y-16043984D02*
X14028253Y-16043984D01*
X14085396Y-16043984D02*
X14085396Y-15843984D01*
X14085396Y-15843984D02*
X14066348Y-15872555D01*
X14066348Y-15872555D02*
X14047301Y-15891603D01*
X14047301Y-15891603D02*
X14028253Y-15901127D01*
X14228253Y-16024936D02*
X14237777Y-16034460D01*
X14237777Y-16034460D02*
X14228253Y-16043984D01*
X14228253Y-16043984D02*
X14218729Y-16034460D01*
X14218729Y-16034460D02*
X14228253Y-16024936D01*
X14228253Y-16024936D02*
X14228253Y-16043984D01*
X14361586Y-15843984D02*
X14380634Y-15843984D01*
X14380634Y-15843984D02*
X14399682Y-15853508D01*
X14399682Y-15853508D02*
X14409205Y-15863031D01*
X14409205Y-15863031D02*
X14418729Y-15882079D01*
X14418729Y-15882079D02*
X14428253Y-15920174D01*
X14428253Y-15920174D02*
X14428253Y-15967793D01*
X14428253Y-15967793D02*
X14418729Y-16005888D01*
X14418729Y-16005888D02*
X14409205Y-16024936D01*
X14409205Y-16024936D02*
X14399682Y-16034460D01*
X14399682Y-16034460D02*
X14380634Y-16043984D01*
X14380634Y-16043984D02*
X14361586Y-16043984D01*
X14361586Y-16043984D02*
X14342539Y-16034460D01*
X14342539Y-16034460D02*
X14333015Y-16024936D01*
X14333015Y-16024936D02*
X14323491Y-16005888D01*
X14323491Y-16005888D02*
X14313967Y-15967793D01*
X14313967Y-15967793D02*
X14313967Y-15920174D01*
X14313967Y-15920174D02*
X14323491Y-15882079D01*
X14323491Y-15882079D02*
X14333015Y-15863031D01*
X14333015Y-15863031D02*
X14342539Y-15853508D01*
X14342539Y-15853508D02*
X14361586Y-15843984D01*
X14618729Y-16043984D02*
X14504443Y-16043984D01*
X14561586Y-16043984D02*
X14561586Y-15843984D01*
X14561586Y-15843984D02*
X14542539Y-15872555D01*
X14542539Y-15872555D02*
X14523491Y-15891603D01*
X14523491Y-15891603D02*
X14504443Y-15901127D01*
X14790158Y-15843984D02*
X14752062Y-15843984D01*
X14752062Y-15843984D02*
X14733015Y-15853508D01*
X14733015Y-15853508D02*
X14723491Y-15863031D01*
X14723491Y-15863031D02*
X14704443Y-15891603D01*
X14704443Y-15891603D02*
X14694920Y-15929698D01*
X14694920Y-15929698D02*
X14694920Y-16005888D01*
X14694920Y-16005888D02*
X14704443Y-16024936D01*
X14704443Y-16024936D02*
X14713967Y-16034460D01*
X14713967Y-16034460D02*
X14733015Y-16043984D01*
X14733015Y-16043984D02*
X14771110Y-16043984D01*
X14771110Y-16043984D02*
X14790158Y-16034460D01*
X14790158Y-16034460D02*
X14799682Y-16024936D01*
X14799682Y-16024936D02*
X14809205Y-16005888D01*
X14809205Y-16005888D02*
X14809205Y-15958269D01*
X14809205Y-15958269D02*
X14799682Y-15939222D01*
X14799682Y-15939222D02*
X14790158Y-15929698D01*
X14790158Y-15929698D02*
X14771110Y-15920174D01*
X14771110Y-15920174D02*
X14733015Y-15920174D01*
X14733015Y-15920174D02*
X14713967Y-15929698D01*
X14713967Y-15929698D02*
X14704443Y-15939222D01*
X14704443Y-15939222D02*
X14694920Y-15958269D01*
X14894920Y-16043984D02*
X14894920Y-15910650D01*
X14894920Y-15929698D02*
X14904443Y-15920174D01*
X14904443Y-15920174D02*
X14923491Y-15910650D01*
X14923491Y-15910650D02*
X14952063Y-15910650D01*
X14952063Y-15910650D02*
X14971110Y-15920174D01*
X14971110Y-15920174D02*
X14980634Y-15939222D01*
X14980634Y-15939222D02*
X14980634Y-16043984D01*
X14980634Y-15939222D02*
X14990158Y-15920174D01*
X14990158Y-15920174D02*
X15009205Y-15910650D01*
X15009205Y-15910650D02*
X15037777Y-15910650D01*
X15037777Y-15910650D02*
X15056824Y-15920174D01*
X15056824Y-15920174D02*
X15066348Y-15939222D01*
X15066348Y-15939222D02*
X15066348Y-16043984D01*
X15161586Y-16043984D02*
X15161586Y-15910650D01*
X15161586Y-15929698D02*
X15171110Y-15920174D01*
X15171110Y-15920174D02*
X15190158Y-15910650D01*
X15190158Y-15910650D02*
X15218729Y-15910650D01*
X15218729Y-15910650D02*
X15237777Y-15920174D01*
X15237777Y-15920174D02*
X15247301Y-15939222D01*
X15247301Y-15939222D02*
X15247301Y-16043984D01*
X15247301Y-15939222D02*
X15256824Y-15920174D01*
X15256824Y-15920174D02*
X15275872Y-15910650D01*
X15275872Y-15910650D02*
X15304443Y-15910650D01*
X15304443Y-15910650D02*
X15323491Y-15920174D01*
X15323491Y-15920174D02*
X15333015Y-15939222D01*
X15333015Y-15939222D02*
X15333015Y-16043984D01*
X15723491Y-15834460D02*
X15552063Y-16091603D01*
X15980634Y-15843984D02*
X15999682Y-15843984D01*
X15999682Y-15843984D02*
X16018729Y-15853508D01*
X16018729Y-15853508D02*
X16028253Y-15863031D01*
X16028253Y-15863031D02*
X16037777Y-15882079D01*
X16037777Y-15882079D02*
X16047301Y-15920174D01*
X16047301Y-15920174D02*
X16047301Y-15967793D01*
X16047301Y-15967793D02*
X16037777Y-16005888D01*
X16037777Y-16005888D02*
X16028253Y-16024936D01*
X16028253Y-16024936D02*
X16018729Y-16034460D01*
X16018729Y-16034460D02*
X15999682Y-16043984D01*
X15999682Y-16043984D02*
X15980634Y-16043984D01*
X15980634Y-16043984D02*
X15961586Y-16034460D01*
X15961586Y-16034460D02*
X15952063Y-16024936D01*
X15952063Y-16024936D02*
X15942539Y-16005888D01*
X15942539Y-16005888D02*
X15933015Y-15967793D01*
X15933015Y-15967793D02*
X15933015Y-15920174D01*
X15933015Y-15920174D02*
X15942539Y-15882079D01*
X15942539Y-15882079D02*
X15952063Y-15863031D01*
X15952063Y-15863031D02*
X15961586Y-15853508D01*
X15961586Y-15853508D02*
X15980634Y-15843984D01*
X16133015Y-16024936D02*
X16142539Y-16034460D01*
X16142539Y-16034460D02*
X16133015Y-16043984D01*
X16133015Y-16043984D02*
X16123491Y-16034460D01*
X16123491Y-16034460D02*
X16133015Y-16024936D01*
X16133015Y-16024936D02*
X16133015Y-16043984D01*
X16266348Y-15843984D02*
X16285396Y-15843984D01*
X16285396Y-15843984D02*
X16304444Y-15853508D01*
X16304444Y-15853508D02*
X16313967Y-15863031D01*
X16313967Y-15863031D02*
X16323491Y-15882079D01*
X16323491Y-15882079D02*
X16333015Y-15920174D01*
X16333015Y-15920174D02*
X16333015Y-15967793D01*
X16333015Y-15967793D02*
X16323491Y-16005888D01*
X16323491Y-16005888D02*
X16313967Y-16024936D01*
X16313967Y-16024936D02*
X16304444Y-16034460D01*
X16304444Y-16034460D02*
X16285396Y-16043984D01*
X16285396Y-16043984D02*
X16266348Y-16043984D01*
X16266348Y-16043984D02*
X16247301Y-16034460D01*
X16247301Y-16034460D02*
X16237777Y-16024936D01*
X16237777Y-16024936D02*
X16228253Y-16005888D01*
X16228253Y-16005888D02*
X16218729Y-15967793D01*
X16218729Y-15967793D02*
X16218729Y-15920174D01*
X16218729Y-15920174D02*
X16228253Y-15882079D01*
X16228253Y-15882079D02*
X16237777Y-15863031D01*
X16237777Y-15863031D02*
X16247301Y-15853508D01*
X16247301Y-15853508D02*
X16266348Y-15843984D01*
X16504444Y-15910650D02*
X16504444Y-16043984D01*
X16456825Y-15834460D02*
X16409206Y-15977317D01*
X16409206Y-15977317D02*
X16533015Y-15977317D01*
X16647301Y-15843984D02*
X16666348Y-15843984D01*
X16666348Y-15843984D02*
X16685396Y-15853508D01*
X16685396Y-15853508D02*
X16694920Y-15863031D01*
X16694920Y-15863031D02*
X16704444Y-15882079D01*
X16704444Y-15882079D02*
X16713967Y-15920174D01*
X16713967Y-15920174D02*
X16713967Y-15967793D01*
X16713967Y-15967793D02*
X16704444Y-16005888D01*
X16704444Y-16005888D02*
X16694920Y-16024936D01*
X16694920Y-16024936D02*
X16685396Y-16034460D01*
X16685396Y-16034460D02*
X16666348Y-16043984D01*
X16666348Y-16043984D02*
X16647301Y-16043984D01*
X16647301Y-16043984D02*
X16628253Y-16034460D01*
X16628253Y-16034460D02*
X16618729Y-16024936D01*
X16618729Y-16024936D02*
X16609206Y-16005888D01*
X16609206Y-16005888D02*
X16599682Y-15967793D01*
X16599682Y-15967793D02*
X16599682Y-15920174D01*
X16599682Y-15920174D02*
X16609206Y-15882079D01*
X16609206Y-15882079D02*
X16618729Y-15863031D01*
X16618729Y-15863031D02*
X16628253Y-15853508D01*
X16628253Y-15853508D02*
X16647301Y-15843984D01*
X16837777Y-15843984D02*
X16856825Y-15843984D01*
X16856825Y-15843984D02*
X16875872Y-15853508D01*
X16875872Y-15853508D02*
X16885396Y-15863031D01*
X16885396Y-15863031D02*
X16894920Y-15882079D01*
X16894920Y-15882079D02*
X16904444Y-15920174D01*
X16904444Y-15920174D02*
X16904444Y-15967793D01*
X16904444Y-15967793D02*
X16894920Y-16005888D01*
X16894920Y-16005888D02*
X16885396Y-16024936D01*
X16885396Y-16024936D02*
X16875872Y-16034460D01*
X16875872Y-16034460D02*
X16856825Y-16043984D01*
X16856825Y-16043984D02*
X16837777Y-16043984D01*
X16837777Y-16043984D02*
X16818729Y-16034460D01*
X16818729Y-16034460D02*
X16809206Y-16024936D01*
X16809206Y-16024936D02*
X16799682Y-16005888D01*
X16799682Y-16005888D02*
X16790158Y-15967793D01*
X16790158Y-15967793D02*
X16790158Y-15920174D01*
X16790158Y-15920174D02*
X16799682Y-15882079D01*
X16799682Y-15882079D02*
X16809206Y-15863031D01*
X16809206Y-15863031D02*
X16818729Y-15853508D01*
X16818729Y-15853508D02*
X16837777Y-15843984D01*
X16980634Y-15843984D02*
X16980634Y-15882079D01*
X17056825Y-15843984D02*
X17056825Y-15882079D01*
X17352063Y-16120174D02*
X17342539Y-16110650D01*
X17342539Y-16110650D02*
X17323491Y-16082079D01*
X17323491Y-16082079D02*
X17313968Y-16063031D01*
X17313968Y-16063031D02*
X17304444Y-16034460D01*
X17304444Y-16034460D02*
X17294920Y-15986841D01*
X17294920Y-15986841D02*
X17294920Y-15948746D01*
X17294920Y-15948746D02*
X17304444Y-15901127D01*
X17304444Y-15901127D02*
X17313968Y-15872555D01*
X17313968Y-15872555D02*
X17323491Y-15853508D01*
X17323491Y-15853508D02*
X17342539Y-15824936D01*
X17342539Y-15824936D02*
X17352063Y-15815412D01*
X17409206Y-15843984D02*
X17533015Y-15843984D01*
X17533015Y-15843984D02*
X17466349Y-15920174D01*
X17466349Y-15920174D02*
X17494920Y-15920174D01*
X17494920Y-15920174D02*
X17513968Y-15929698D01*
X17513968Y-15929698D02*
X17523491Y-15939222D01*
X17523491Y-15939222D02*
X17533015Y-15958269D01*
X17533015Y-15958269D02*
X17533015Y-16005888D01*
X17533015Y-16005888D02*
X17523491Y-16024936D01*
X17523491Y-16024936D02*
X17513968Y-16034460D01*
X17513968Y-16034460D02*
X17494920Y-16043984D01*
X17494920Y-16043984D02*
X17437777Y-16043984D01*
X17437777Y-16043984D02*
X17418730Y-16034460D01*
X17418730Y-16034460D02*
X17409206Y-16024936D01*
X17723491Y-16043984D02*
X17609206Y-16043984D01*
X17666349Y-16043984D02*
X17666349Y-15843984D01*
X17666349Y-15843984D02*
X17647301Y-15872555D01*
X17647301Y-15872555D02*
X17628253Y-15891603D01*
X17628253Y-15891603D02*
X17609206Y-15901127D01*
X17961587Y-16043984D02*
X17961587Y-15843984D01*
X18047301Y-16043984D02*
X18047301Y-15939222D01*
X18047301Y-15939222D02*
X18037777Y-15920174D01*
X18037777Y-15920174D02*
X18018730Y-15910650D01*
X18018730Y-15910650D02*
X17990158Y-15910650D01*
X17990158Y-15910650D02*
X17971111Y-15920174D01*
X17971111Y-15920174D02*
X17961587Y-15929698D01*
X18171111Y-16043984D02*
X18152063Y-16034460D01*
X18152063Y-16034460D02*
X18142539Y-16024936D01*
X18142539Y-16024936D02*
X18133015Y-16005888D01*
X18133015Y-16005888D02*
X18133015Y-15948746D01*
X18133015Y-15948746D02*
X18142539Y-15929698D01*
X18142539Y-15929698D02*
X18152063Y-15920174D01*
X18152063Y-15920174D02*
X18171111Y-15910650D01*
X18171111Y-15910650D02*
X18199682Y-15910650D01*
X18199682Y-15910650D02*
X18218730Y-15920174D01*
X18218730Y-15920174D02*
X18228253Y-15929698D01*
X18228253Y-15929698D02*
X18237777Y-15948746D01*
X18237777Y-15948746D02*
X18237777Y-16005888D01*
X18237777Y-16005888D02*
X18228253Y-16024936D01*
X18228253Y-16024936D02*
X18218730Y-16034460D01*
X18218730Y-16034460D02*
X18199682Y-16043984D01*
X18199682Y-16043984D02*
X18171111Y-16043984D01*
X18352063Y-16043984D02*
X18333015Y-16034460D01*
X18333015Y-16034460D02*
X18323492Y-16015412D01*
X18323492Y-16015412D02*
X18323492Y-15843984D01*
X18504444Y-16034460D02*
X18485396Y-16043984D01*
X18485396Y-16043984D02*
X18447301Y-16043984D01*
X18447301Y-16043984D02*
X18428253Y-16034460D01*
X18428253Y-16034460D02*
X18418730Y-16015412D01*
X18418730Y-16015412D02*
X18418730Y-15939222D01*
X18418730Y-15939222D02*
X18428253Y-15920174D01*
X18428253Y-15920174D02*
X18447301Y-15910650D01*
X18447301Y-15910650D02*
X18485396Y-15910650D01*
X18485396Y-15910650D02*
X18504444Y-15920174D01*
X18504444Y-15920174D02*
X18513968Y-15939222D01*
X18513968Y-15939222D02*
X18513968Y-15958269D01*
X18513968Y-15958269D02*
X18418730Y-15977317D01*
X18590158Y-16034460D02*
X18609206Y-16043984D01*
X18609206Y-16043984D02*
X18647301Y-16043984D01*
X18647301Y-16043984D02*
X18666349Y-16034460D01*
X18666349Y-16034460D02*
X18675873Y-16015412D01*
X18675873Y-16015412D02*
X18675873Y-16005888D01*
X18675873Y-16005888D02*
X18666349Y-15986841D01*
X18666349Y-15986841D02*
X18647301Y-15977317D01*
X18647301Y-15977317D02*
X18618730Y-15977317D01*
X18618730Y-15977317D02*
X18599682Y-15967793D01*
X18599682Y-15967793D02*
X18590158Y-15948746D01*
X18590158Y-15948746D02*
X18590158Y-15939222D01*
X18590158Y-15939222D02*
X18599682Y-15920174D01*
X18599682Y-15920174D02*
X18618730Y-15910650D01*
X18618730Y-15910650D02*
X18647301Y-15910650D01*
X18647301Y-15910650D02*
X18666349Y-15920174D01*
X18742539Y-16120174D02*
X18752063Y-16110650D01*
X18752063Y-16110650D02*
X18771111Y-16082079D01*
X18771111Y-16082079D02*
X18780634Y-16063031D01*
X18780634Y-16063031D02*
X18790158Y-16034460D01*
X18790158Y-16034460D02*
X18799682Y-15986841D01*
X18799682Y-15986841D02*
X18799682Y-15948746D01*
X18799682Y-15948746D02*
X18790158Y-15901127D01*
X18790158Y-15901127D02*
X18780634Y-15872555D01*
X18780634Y-15872555D02*
X18771111Y-15853508D01*
X18771111Y-15853508D02*
X18752063Y-15824936D01*
X18752063Y-15824936D02*
X18742539Y-15815412D01*
D20*
X13667000Y-16161500D02*
X13777000Y-16271500D01*
X13777000Y-16161500D02*
X13667000Y-16271500D01*
X13722000Y-16271500D02*
X13777000Y-16216500D01*
X13722000Y-16161500D01*
X13667000Y-16216500D01*
X13722000Y-16271500D01*
D11*
X14142539Y-16307984D02*
X14028253Y-16307984D01*
X14085396Y-16307984D02*
X14085396Y-16107984D01*
X14085396Y-16107984D02*
X14066348Y-16136555D01*
X14066348Y-16136555D02*
X14047301Y-16155603D01*
X14047301Y-16155603D02*
X14028253Y-16165127D01*
X14228253Y-16288936D02*
X14237777Y-16298460D01*
X14237777Y-16298460D02*
X14228253Y-16307984D01*
X14228253Y-16307984D02*
X14218729Y-16298460D01*
X14218729Y-16298460D02*
X14228253Y-16288936D01*
X14228253Y-16288936D02*
X14228253Y-16307984D01*
X14428253Y-16307984D02*
X14313967Y-16307984D01*
X14371110Y-16307984D02*
X14371110Y-16107984D01*
X14371110Y-16107984D02*
X14352062Y-16136555D01*
X14352062Y-16136555D02*
X14333015Y-16155603D01*
X14333015Y-16155603D02*
X14313967Y-16165127D01*
X14552062Y-16107984D02*
X14571110Y-16107984D01*
X14571110Y-16107984D02*
X14590158Y-16117508D01*
X14590158Y-16117508D02*
X14599682Y-16127031D01*
X14599682Y-16127031D02*
X14609205Y-16146079D01*
X14609205Y-16146079D02*
X14618729Y-16184174D01*
X14618729Y-16184174D02*
X14618729Y-16231793D01*
X14618729Y-16231793D02*
X14609205Y-16269888D01*
X14609205Y-16269888D02*
X14599682Y-16288936D01*
X14599682Y-16288936D02*
X14590158Y-16298460D01*
X14590158Y-16298460D02*
X14571110Y-16307984D01*
X14571110Y-16307984D02*
X14552062Y-16307984D01*
X14552062Y-16307984D02*
X14533015Y-16298460D01*
X14533015Y-16298460D02*
X14523491Y-16288936D01*
X14523491Y-16288936D02*
X14513967Y-16269888D01*
X14513967Y-16269888D02*
X14504443Y-16231793D01*
X14504443Y-16231793D02*
X14504443Y-16184174D01*
X14504443Y-16184174D02*
X14513967Y-16146079D01*
X14513967Y-16146079D02*
X14523491Y-16127031D01*
X14523491Y-16127031D02*
X14533015Y-16117508D01*
X14533015Y-16117508D02*
X14552062Y-16107984D01*
X14742539Y-16107984D02*
X14761586Y-16107984D01*
X14761586Y-16107984D02*
X14780634Y-16117508D01*
X14780634Y-16117508D02*
X14790158Y-16127031D01*
X14790158Y-16127031D02*
X14799682Y-16146079D01*
X14799682Y-16146079D02*
X14809205Y-16184174D01*
X14809205Y-16184174D02*
X14809205Y-16231793D01*
X14809205Y-16231793D02*
X14799682Y-16269888D01*
X14799682Y-16269888D02*
X14790158Y-16288936D01*
X14790158Y-16288936D02*
X14780634Y-16298460D01*
X14780634Y-16298460D02*
X14761586Y-16307984D01*
X14761586Y-16307984D02*
X14742539Y-16307984D01*
X14742539Y-16307984D02*
X14723491Y-16298460D01*
X14723491Y-16298460D02*
X14713967Y-16288936D01*
X14713967Y-16288936D02*
X14704443Y-16269888D01*
X14704443Y-16269888D02*
X14694920Y-16231793D01*
X14694920Y-16231793D02*
X14694920Y-16184174D01*
X14694920Y-16184174D02*
X14704443Y-16146079D01*
X14704443Y-16146079D02*
X14713967Y-16127031D01*
X14713967Y-16127031D02*
X14723491Y-16117508D01*
X14723491Y-16117508D02*
X14742539Y-16107984D01*
X14894920Y-16307984D02*
X14894920Y-16174650D01*
X14894920Y-16193698D02*
X14904443Y-16184174D01*
X14904443Y-16184174D02*
X14923491Y-16174650D01*
X14923491Y-16174650D02*
X14952063Y-16174650D01*
X14952063Y-16174650D02*
X14971110Y-16184174D01*
X14971110Y-16184174D02*
X14980634Y-16203222D01*
X14980634Y-16203222D02*
X14980634Y-16307984D01*
X14980634Y-16203222D02*
X14990158Y-16184174D01*
X14990158Y-16184174D02*
X15009205Y-16174650D01*
X15009205Y-16174650D02*
X15037777Y-16174650D01*
X15037777Y-16174650D02*
X15056824Y-16184174D01*
X15056824Y-16184174D02*
X15066348Y-16203222D01*
X15066348Y-16203222D02*
X15066348Y-16307984D01*
X15161586Y-16307984D02*
X15161586Y-16174650D01*
X15161586Y-16193698D02*
X15171110Y-16184174D01*
X15171110Y-16184174D02*
X15190158Y-16174650D01*
X15190158Y-16174650D02*
X15218729Y-16174650D01*
X15218729Y-16174650D02*
X15237777Y-16184174D01*
X15237777Y-16184174D02*
X15247301Y-16203222D01*
X15247301Y-16203222D02*
X15247301Y-16307984D01*
X15247301Y-16203222D02*
X15256824Y-16184174D01*
X15256824Y-16184174D02*
X15275872Y-16174650D01*
X15275872Y-16174650D02*
X15304443Y-16174650D01*
X15304443Y-16174650D02*
X15323491Y-16184174D01*
X15323491Y-16184174D02*
X15333015Y-16203222D01*
X15333015Y-16203222D02*
X15333015Y-16307984D01*
X15723491Y-16098460D02*
X15552063Y-16355603D01*
X15980634Y-16107984D02*
X15999682Y-16107984D01*
X15999682Y-16107984D02*
X16018729Y-16117508D01*
X16018729Y-16117508D02*
X16028253Y-16127031D01*
X16028253Y-16127031D02*
X16037777Y-16146079D01*
X16037777Y-16146079D02*
X16047301Y-16184174D01*
X16047301Y-16184174D02*
X16047301Y-16231793D01*
X16047301Y-16231793D02*
X16037777Y-16269888D01*
X16037777Y-16269888D02*
X16028253Y-16288936D01*
X16028253Y-16288936D02*
X16018729Y-16298460D01*
X16018729Y-16298460D02*
X15999682Y-16307984D01*
X15999682Y-16307984D02*
X15980634Y-16307984D01*
X15980634Y-16307984D02*
X15961586Y-16298460D01*
X15961586Y-16298460D02*
X15952063Y-16288936D01*
X15952063Y-16288936D02*
X15942539Y-16269888D01*
X15942539Y-16269888D02*
X15933015Y-16231793D01*
X15933015Y-16231793D02*
X15933015Y-16184174D01*
X15933015Y-16184174D02*
X15942539Y-16146079D01*
X15942539Y-16146079D02*
X15952063Y-16127031D01*
X15952063Y-16127031D02*
X15961586Y-16117508D01*
X15961586Y-16117508D02*
X15980634Y-16107984D01*
X16133015Y-16288936D02*
X16142539Y-16298460D01*
X16142539Y-16298460D02*
X16133015Y-16307984D01*
X16133015Y-16307984D02*
X16123491Y-16298460D01*
X16123491Y-16298460D02*
X16133015Y-16288936D01*
X16133015Y-16288936D02*
X16133015Y-16307984D01*
X16266348Y-16107984D02*
X16285396Y-16107984D01*
X16285396Y-16107984D02*
X16304444Y-16117508D01*
X16304444Y-16117508D02*
X16313967Y-16127031D01*
X16313967Y-16127031D02*
X16323491Y-16146079D01*
X16323491Y-16146079D02*
X16333015Y-16184174D01*
X16333015Y-16184174D02*
X16333015Y-16231793D01*
X16333015Y-16231793D02*
X16323491Y-16269888D01*
X16323491Y-16269888D02*
X16313967Y-16288936D01*
X16313967Y-16288936D02*
X16304444Y-16298460D01*
X16304444Y-16298460D02*
X16285396Y-16307984D01*
X16285396Y-16307984D02*
X16266348Y-16307984D01*
X16266348Y-16307984D02*
X16247301Y-16298460D01*
X16247301Y-16298460D02*
X16237777Y-16288936D01*
X16237777Y-16288936D02*
X16228253Y-16269888D01*
X16228253Y-16269888D02*
X16218729Y-16231793D01*
X16218729Y-16231793D02*
X16218729Y-16184174D01*
X16218729Y-16184174D02*
X16228253Y-16146079D01*
X16228253Y-16146079D02*
X16237777Y-16127031D01*
X16237777Y-16127031D02*
X16247301Y-16117508D01*
X16247301Y-16117508D02*
X16266348Y-16107984D01*
X16504444Y-16174650D02*
X16504444Y-16307984D01*
X16456825Y-16098460D02*
X16409206Y-16241317D01*
X16409206Y-16241317D02*
X16533015Y-16241317D01*
X16590158Y-16107984D02*
X16713967Y-16107984D01*
X16713967Y-16107984D02*
X16647301Y-16184174D01*
X16647301Y-16184174D02*
X16675872Y-16184174D01*
X16675872Y-16184174D02*
X16694920Y-16193698D01*
X16694920Y-16193698D02*
X16704444Y-16203222D01*
X16704444Y-16203222D02*
X16713967Y-16222269D01*
X16713967Y-16222269D02*
X16713967Y-16269888D01*
X16713967Y-16269888D02*
X16704444Y-16288936D01*
X16704444Y-16288936D02*
X16694920Y-16298460D01*
X16694920Y-16298460D02*
X16675872Y-16307984D01*
X16675872Y-16307984D02*
X16618729Y-16307984D01*
X16618729Y-16307984D02*
X16599682Y-16298460D01*
X16599682Y-16298460D02*
X16590158Y-16288936D01*
X16780634Y-16107984D02*
X16904444Y-16107984D01*
X16904444Y-16107984D02*
X16837777Y-16184174D01*
X16837777Y-16184174D02*
X16866349Y-16184174D01*
X16866349Y-16184174D02*
X16885396Y-16193698D01*
X16885396Y-16193698D02*
X16894920Y-16203222D01*
X16894920Y-16203222D02*
X16904444Y-16222269D01*
X16904444Y-16222269D02*
X16904444Y-16269888D01*
X16904444Y-16269888D02*
X16894920Y-16288936D01*
X16894920Y-16288936D02*
X16885396Y-16298460D01*
X16885396Y-16298460D02*
X16866349Y-16307984D01*
X16866349Y-16307984D02*
X16809206Y-16307984D01*
X16809206Y-16307984D02*
X16790158Y-16298460D01*
X16790158Y-16298460D02*
X16780634Y-16288936D01*
X16980634Y-16107984D02*
X16980634Y-16146079D01*
X17056825Y-16107984D02*
X17056825Y-16146079D01*
X17352063Y-16384174D02*
X17342539Y-16374650D01*
X17342539Y-16374650D02*
X17323491Y-16346079D01*
X17323491Y-16346079D02*
X17313968Y-16327031D01*
X17313968Y-16327031D02*
X17304444Y-16298460D01*
X17304444Y-16298460D02*
X17294920Y-16250841D01*
X17294920Y-16250841D02*
X17294920Y-16212746D01*
X17294920Y-16212746D02*
X17304444Y-16165127D01*
X17304444Y-16165127D02*
X17313968Y-16136555D01*
X17313968Y-16136555D02*
X17323491Y-16117508D01*
X17323491Y-16117508D02*
X17342539Y-16088936D01*
X17342539Y-16088936D02*
X17352063Y-16079412D01*
X17513968Y-16174650D02*
X17513968Y-16307984D01*
X17466349Y-16098460D02*
X17418730Y-16241317D01*
X17418730Y-16241317D02*
X17542539Y-16241317D01*
X17771111Y-16307984D02*
X17771111Y-16107984D01*
X17856825Y-16307984D02*
X17856825Y-16203222D01*
X17856825Y-16203222D02*
X17847301Y-16184174D01*
X17847301Y-16184174D02*
X17828253Y-16174650D01*
X17828253Y-16174650D02*
X17799682Y-16174650D01*
X17799682Y-16174650D02*
X17780634Y-16184174D01*
X17780634Y-16184174D02*
X17771111Y-16193698D01*
X17980634Y-16307984D02*
X17961587Y-16298460D01*
X17961587Y-16298460D02*
X17952063Y-16288936D01*
X17952063Y-16288936D02*
X17942539Y-16269888D01*
X17942539Y-16269888D02*
X17942539Y-16212746D01*
X17942539Y-16212746D02*
X17952063Y-16193698D01*
X17952063Y-16193698D02*
X17961587Y-16184174D01*
X17961587Y-16184174D02*
X17980634Y-16174650D01*
X17980634Y-16174650D02*
X18009206Y-16174650D01*
X18009206Y-16174650D02*
X18028253Y-16184174D01*
X18028253Y-16184174D02*
X18037777Y-16193698D01*
X18037777Y-16193698D02*
X18047301Y-16212746D01*
X18047301Y-16212746D02*
X18047301Y-16269888D01*
X18047301Y-16269888D02*
X18037777Y-16288936D01*
X18037777Y-16288936D02*
X18028253Y-16298460D01*
X18028253Y-16298460D02*
X18009206Y-16307984D01*
X18009206Y-16307984D02*
X17980634Y-16307984D01*
X18161587Y-16307984D02*
X18142539Y-16298460D01*
X18142539Y-16298460D02*
X18133015Y-16279412D01*
X18133015Y-16279412D02*
X18133015Y-16107984D01*
X18313968Y-16298460D02*
X18294920Y-16307984D01*
X18294920Y-16307984D02*
X18256825Y-16307984D01*
X18256825Y-16307984D02*
X18237777Y-16298460D01*
X18237777Y-16298460D02*
X18228253Y-16279412D01*
X18228253Y-16279412D02*
X18228253Y-16203222D01*
X18228253Y-16203222D02*
X18237777Y-16184174D01*
X18237777Y-16184174D02*
X18256825Y-16174650D01*
X18256825Y-16174650D02*
X18294920Y-16174650D01*
X18294920Y-16174650D02*
X18313968Y-16184174D01*
X18313968Y-16184174D02*
X18323492Y-16203222D01*
X18323492Y-16203222D02*
X18323492Y-16222269D01*
X18323492Y-16222269D02*
X18228253Y-16241317D01*
X18399682Y-16298460D02*
X18418730Y-16307984D01*
X18418730Y-16307984D02*
X18456825Y-16307984D01*
X18456825Y-16307984D02*
X18475873Y-16298460D01*
X18475873Y-16298460D02*
X18485396Y-16279412D01*
X18485396Y-16279412D02*
X18485396Y-16269888D01*
X18485396Y-16269888D02*
X18475873Y-16250841D01*
X18475873Y-16250841D02*
X18456825Y-16241317D01*
X18456825Y-16241317D02*
X18428253Y-16241317D01*
X18428253Y-16241317D02*
X18409206Y-16231793D01*
X18409206Y-16231793D02*
X18399682Y-16212746D01*
X18399682Y-16212746D02*
X18399682Y-16203222D01*
X18399682Y-16203222D02*
X18409206Y-16184174D01*
X18409206Y-16184174D02*
X18428253Y-16174650D01*
X18428253Y-16174650D02*
X18456825Y-16174650D01*
X18456825Y-16174650D02*
X18475873Y-16184174D01*
X18552063Y-16384174D02*
X18561587Y-16374650D01*
X18561587Y-16374650D02*
X18580634Y-16346079D01*
X18580634Y-16346079D02*
X18590158Y-16327031D01*
X18590158Y-16327031D02*
X18599682Y-16298460D01*
X18599682Y-16298460D02*
X18609206Y-16250841D01*
X18609206Y-16250841D02*
X18609206Y-16212746D01*
X18609206Y-16212746D02*
X18599682Y-16165127D01*
X18599682Y-16165127D02*
X18590158Y-16136555D01*
X18590158Y-16136555D02*
X18580634Y-16117508D01*
X18580634Y-16117508D02*
X18561587Y-16088936D01*
X18561587Y-16088936D02*
X18552063Y-16079412D01*
M02*
