M48
INCH
T1C0.0236
T2C0.0276
T3C0.0295
T4C0.0300
T5C0.0315
T6C0.0354
T7C0.0394
T8C0.0400
T9C0.0433
%
G90
G05
T1
X0.19Y0.885
X0.23Y0.835
X0.665Y0.13
X0.745Y0.09
X1.0213Y0.1506
X1.08Y0.89
X1.08Y0.85
X1.235Y0.9484
X1.445Y1.06
X1.475Y0.3
X1.61Y0.495
X1.65Y0.6
X1.7Y0.675
X1.7Y0.125
X1.7Y0.075
X1.725Y0.81
X1.725Y0.75
X1.725Y0.225
X1.775Y0.35
X1.775Y0.25
X1.79Y-0.025
X1.97Y0.85
X2.32Y0.135
X2.6Y0.02
T2
X2.55Y0.95
X2.75Y0.95
T3
X0.225Y0.6799
X0.225Y0.6012
X0.225Y0.5224
X0.225Y0.4437
X0.225Y0.365
X0.225Y0.2862
X0.225Y0.2075
X0.225Y0.1287
X0.225Y0.05
X0.4701Y0.0
X0.5488Y0.0
X0.6276Y0.0
X0.7063Y0.0
X0.785Y0.0
X0.8638Y0.0
X0.9425Y0.0
X1.0213Y0.0
X1.1Y0.0
T4
X1.4077Y1.1083
X1.4077Y0.2106
X1.5061Y1.3189
X1.5061Y0.0
X1.6439Y0.0
X1.7423Y1.1555
X1.7423Y0.1634
T5
X0.88Y1.2989
X0.88Y1.1611
X1.13Y1.2984
X1.13Y1.1016
X2.1Y0.2469
X2.1Y0.05
X2.25Y0.275
X2.25Y-0.025
X2.35Y0.275
X2.35Y-0.025
X2.45Y0.275
X2.45Y-0.025
X2.55Y0.275
X2.55Y-0.025
T6
X2.4508Y1.1388
X2.5508Y1.1388
T7
X-0.0276Y0.45
X-0.0276Y0.35
X-0.0276Y0.25
X-0.0276Y0.15
X-0.025Y0.925
X-0.025Y0.825
X-0.025Y0.725
X-0.025Y0.625
X0.0724Y0.45
X0.0724Y0.35
X0.0724Y0.25
X0.0724Y0.15
X0.4106Y0.823
X0.4814Y0.8937
X0.5521Y0.9644
X0.9294Y1.0
X1.0294Y1.0
X1.1294Y1.0
X1.425Y1.0
X1.525Y1.0
X1.625Y1.0
X1.725Y1.0
X2.0606Y0.823
X2.1313Y0.8937
X2.202Y0.9644
X2.7Y1.1
X2.7Y0.0
X2.8Y1.1
X2.8Y0.0
X2.8035Y0.45
X2.8035Y0.35
X2.8035Y0.25
X2.8035Y0.15
X2.9Y1.1
X2.9Y0.925
X2.9Y0.825
X2.9Y0.725
X2.9Y0.625
X2.9Y0.0
X2.9035Y0.45
X2.9035Y0.35
X2.9035Y0.25
X2.9035Y0.15
X3.0Y1.1
X3.0Y0.0
T8
X1.275Y1.2
X1.275Y1.1
X1.275Y1.0
X1.275Y0.9
X1.275Y0.8
X1.275Y0.7
X1.275Y0.6
X1.275Y0.5
X1.275Y0.4
X1.275Y0.3
X1.275Y0.2
X1.275Y0.1
X1.375Y0.1
X1.3902Y0.8547
X1.3902Y0.7547
X1.3902Y0.4447
X1.3902Y0.3447
X1.475Y0.1
X1.575Y0.1
X1.875Y1.2
X1.875Y1.1
X1.875Y1.0
X1.875Y0.9
X1.875Y0.8
X1.875Y0.7
X1.875Y0.6
X1.875Y0.5
X1.875Y0.4
X1.875Y0.3
X1.875Y0.2
X1.875Y0.1
T9
X2.0244Y1.175
X2.0736Y1.2734
X2.2508Y1.2734
X2.3Y1.175
T0
M30
