%TF.GenerationSoftware,KiCad,Pcbnew,7.0.7*%
%TF.CreationDate,2023-10-01T14:42:12+02:00*%
%TF.ProjectId,Angle_Ana_Sw,416e676c-655f-4416-9e61-5f53772e6b69,1.0*%
%TF.SameCoordinates,Original*%
%TF.FileFunction,Legend,Top*%
%TF.FilePolarity,Positive*%
%FSLAX46Y46*%
G04 Gerber Fmt 4.6, Leading zero omitted, Abs format (unit mm)*
G04 Created by KiCad (PCBNEW 7.0.7) date 2023-10-01 14:42:12*
%MOMM*%
%LPD*%
G01*
G04 APERTURE LIST*
%ADD10C,0.150000*%
%ADD11C,0.075000*%
%ADD12C,0.120000*%
G04 APERTURE END LIST*
D10*
X216300207Y-128806580D02*
X216252588Y-128854200D01*
X216252588Y-128854200D02*
X216109731Y-128901819D01*
X216109731Y-128901819D02*
X216014493Y-128901819D01*
X216014493Y-128901819D02*
X215871636Y-128854200D01*
X215871636Y-128854200D02*
X215776398Y-128758961D01*
X215776398Y-128758961D02*
X215728779Y-128663723D01*
X215728779Y-128663723D02*
X215681160Y-128473247D01*
X215681160Y-128473247D02*
X215681160Y-128330390D01*
X215681160Y-128330390D02*
X215728779Y-128139914D01*
X215728779Y-128139914D02*
X215776398Y-128044676D01*
X215776398Y-128044676D02*
X215871636Y-127949438D01*
X215871636Y-127949438D02*
X216014493Y-127901819D01*
X216014493Y-127901819D02*
X216109731Y-127901819D01*
X216109731Y-127901819D02*
X216252588Y-127949438D01*
X216252588Y-127949438D02*
X216300207Y-127997057D01*
X216776398Y-128901819D02*
X216966874Y-128901819D01*
X216966874Y-128901819D02*
X217062112Y-128854200D01*
X217062112Y-128854200D02*
X217109731Y-128806580D01*
X217109731Y-128806580D02*
X217204969Y-128663723D01*
X217204969Y-128663723D02*
X217252588Y-128473247D01*
X217252588Y-128473247D02*
X217252588Y-128092295D01*
X217252588Y-128092295D02*
X217204969Y-127997057D01*
X217204969Y-127997057D02*
X217157350Y-127949438D01*
X217157350Y-127949438D02*
X217062112Y-127901819D01*
X217062112Y-127901819D02*
X216871636Y-127901819D01*
X216871636Y-127901819D02*
X216776398Y-127949438D01*
X216776398Y-127949438D02*
X216728779Y-127997057D01*
X216728779Y-127997057D02*
X216681160Y-128092295D01*
X216681160Y-128092295D02*
X216681160Y-128330390D01*
X216681160Y-128330390D02*
X216728779Y-128425628D01*
X216728779Y-128425628D02*
X216776398Y-128473247D01*
X216776398Y-128473247D02*
X216871636Y-128520866D01*
X216871636Y-128520866D02*
X217062112Y-128520866D01*
X217062112Y-128520866D02*
X217157350Y-128473247D01*
X217157350Y-128473247D02*
X217204969Y-128425628D01*
X217204969Y-128425628D02*
X217252588Y-128330390D01*
X149752207Y-129314580D02*
X149704588Y-129362200D01*
X149704588Y-129362200D02*
X149561731Y-129409819D01*
X149561731Y-129409819D02*
X149466493Y-129409819D01*
X149466493Y-129409819D02*
X149323636Y-129362200D01*
X149323636Y-129362200D02*
X149228398Y-129266961D01*
X149228398Y-129266961D02*
X149180779Y-129171723D01*
X149180779Y-129171723D02*
X149133160Y-128981247D01*
X149133160Y-128981247D02*
X149133160Y-128838390D01*
X149133160Y-128838390D02*
X149180779Y-128647914D01*
X149180779Y-128647914D02*
X149228398Y-128552676D01*
X149228398Y-128552676D02*
X149323636Y-128457438D01*
X149323636Y-128457438D02*
X149466493Y-128409819D01*
X149466493Y-128409819D02*
X149561731Y-128409819D01*
X149561731Y-128409819D02*
X149704588Y-128457438D01*
X149704588Y-128457438D02*
X149752207Y-128505057D01*
X150228398Y-129409819D02*
X150418874Y-129409819D01*
X150418874Y-129409819D02*
X150514112Y-129362200D01*
X150514112Y-129362200D02*
X150561731Y-129314580D01*
X150561731Y-129314580D02*
X150656969Y-129171723D01*
X150656969Y-129171723D02*
X150704588Y-128981247D01*
X150704588Y-128981247D02*
X150704588Y-128600295D01*
X150704588Y-128600295D02*
X150656969Y-128505057D01*
X150656969Y-128505057D02*
X150609350Y-128457438D01*
X150609350Y-128457438D02*
X150514112Y-128409819D01*
X150514112Y-128409819D02*
X150323636Y-128409819D01*
X150323636Y-128409819D02*
X150228398Y-128457438D01*
X150228398Y-128457438D02*
X150180779Y-128505057D01*
X150180779Y-128505057D02*
X150133160Y-128600295D01*
X150133160Y-128600295D02*
X150133160Y-128838390D01*
X150133160Y-128838390D02*
X150180779Y-128933628D01*
X150180779Y-128933628D02*
X150228398Y-128981247D01*
X150228398Y-128981247D02*
X150323636Y-129028866D01*
X150323636Y-129028866D02*
X150514112Y-129028866D01*
X150514112Y-129028866D02*
X150609350Y-128981247D01*
X150609350Y-128981247D02*
X150656969Y-128933628D01*
X150656969Y-128933628D02*
X150704588Y-128838390D01*
X216173207Y-121059580D02*
X216125588Y-121107200D01*
X216125588Y-121107200D02*
X215982731Y-121154819D01*
X215982731Y-121154819D02*
X215887493Y-121154819D01*
X215887493Y-121154819D02*
X215744636Y-121107200D01*
X215744636Y-121107200D02*
X215649398Y-121011961D01*
X215649398Y-121011961D02*
X215601779Y-120916723D01*
X215601779Y-120916723D02*
X215554160Y-120726247D01*
X215554160Y-120726247D02*
X215554160Y-120583390D01*
X215554160Y-120583390D02*
X215601779Y-120392914D01*
X215601779Y-120392914D02*
X215649398Y-120297676D01*
X215649398Y-120297676D02*
X215744636Y-120202438D01*
X215744636Y-120202438D02*
X215887493Y-120154819D01*
X215887493Y-120154819D02*
X215982731Y-120154819D01*
X215982731Y-120154819D02*
X216125588Y-120202438D01*
X216125588Y-120202438D02*
X216173207Y-120250057D01*
X217125588Y-121154819D02*
X216554160Y-121154819D01*
X216839874Y-121154819D02*
X216839874Y-120154819D01*
X216839874Y-120154819D02*
X216744636Y-120297676D01*
X216744636Y-120297676D02*
X216649398Y-120392914D01*
X216649398Y-120392914D02*
X216554160Y-120440533D01*
X218030350Y-120154819D02*
X217554160Y-120154819D01*
X217554160Y-120154819D02*
X217506541Y-120631009D01*
X217506541Y-120631009D02*
X217554160Y-120583390D01*
X217554160Y-120583390D02*
X217649398Y-120535771D01*
X217649398Y-120535771D02*
X217887493Y-120535771D01*
X217887493Y-120535771D02*
X217982731Y-120583390D01*
X217982731Y-120583390D02*
X218030350Y-120631009D01*
X218030350Y-120631009D02*
X218077969Y-120726247D01*
X218077969Y-120726247D02*
X218077969Y-120964342D01*
X218077969Y-120964342D02*
X218030350Y-121059580D01*
X218030350Y-121059580D02*
X217982731Y-121107200D01*
X217982731Y-121107200D02*
X217887493Y-121154819D01*
X217887493Y-121154819D02*
X217649398Y-121154819D01*
X217649398Y-121154819D02*
X217554160Y-121107200D01*
X217554160Y-121107200D02*
X217506541Y-121059580D01*
X152800207Y-128298580D02*
X152752588Y-128346200D01*
X152752588Y-128346200D02*
X152609731Y-128393819D01*
X152609731Y-128393819D02*
X152514493Y-128393819D01*
X152514493Y-128393819D02*
X152371636Y-128346200D01*
X152371636Y-128346200D02*
X152276398Y-128250961D01*
X152276398Y-128250961D02*
X152228779Y-128155723D01*
X152228779Y-128155723D02*
X152181160Y-127965247D01*
X152181160Y-127965247D02*
X152181160Y-127822390D01*
X152181160Y-127822390D02*
X152228779Y-127631914D01*
X152228779Y-127631914D02*
X152276398Y-127536676D01*
X152276398Y-127536676D02*
X152371636Y-127441438D01*
X152371636Y-127441438D02*
X152514493Y-127393819D01*
X152514493Y-127393819D02*
X152609731Y-127393819D01*
X152609731Y-127393819D02*
X152752588Y-127441438D01*
X152752588Y-127441438D02*
X152800207Y-127489057D01*
X153752588Y-128393819D02*
X153181160Y-128393819D01*
X153466874Y-128393819D02*
X153466874Y-127393819D01*
X153466874Y-127393819D02*
X153371636Y-127536676D01*
X153371636Y-127536676D02*
X153276398Y-127631914D01*
X153276398Y-127631914D02*
X153181160Y-127679533D01*
X208172207Y-128806580D02*
X208124588Y-128854200D01*
X208124588Y-128854200D02*
X207981731Y-128901819D01*
X207981731Y-128901819D02*
X207886493Y-128901819D01*
X207886493Y-128901819D02*
X207743636Y-128854200D01*
X207743636Y-128854200D02*
X207648398Y-128758961D01*
X207648398Y-128758961D02*
X207600779Y-128663723D01*
X207600779Y-128663723D02*
X207553160Y-128473247D01*
X207553160Y-128473247D02*
X207553160Y-128330390D01*
X207553160Y-128330390D02*
X207600779Y-128139914D01*
X207600779Y-128139914D02*
X207648398Y-128044676D01*
X207648398Y-128044676D02*
X207743636Y-127949438D01*
X207743636Y-127949438D02*
X207886493Y-127901819D01*
X207886493Y-127901819D02*
X207981731Y-127901819D01*
X207981731Y-127901819D02*
X208124588Y-127949438D01*
X208124588Y-127949438D02*
X208172207Y-127997057D01*
X209124588Y-128901819D02*
X208553160Y-128901819D01*
X208838874Y-128901819D02*
X208838874Y-127901819D01*
X208838874Y-127901819D02*
X208743636Y-128044676D01*
X208743636Y-128044676D02*
X208648398Y-128139914D01*
X208648398Y-128139914D02*
X208553160Y-128187533D01*
X209743636Y-127901819D02*
X209838874Y-127901819D01*
X209838874Y-127901819D02*
X209934112Y-127949438D01*
X209934112Y-127949438D02*
X209981731Y-127997057D01*
X209981731Y-127997057D02*
X210029350Y-128092295D01*
X210029350Y-128092295D02*
X210076969Y-128282771D01*
X210076969Y-128282771D02*
X210076969Y-128520866D01*
X210076969Y-128520866D02*
X210029350Y-128711342D01*
X210029350Y-128711342D02*
X209981731Y-128806580D01*
X209981731Y-128806580D02*
X209934112Y-128854200D01*
X209934112Y-128854200D02*
X209838874Y-128901819D01*
X209838874Y-128901819D02*
X209743636Y-128901819D01*
X209743636Y-128901819D02*
X209648398Y-128854200D01*
X209648398Y-128854200D02*
X209600779Y-128806580D01*
X209600779Y-128806580D02*
X209553160Y-128711342D01*
X209553160Y-128711342D02*
X209505541Y-128520866D01*
X209505541Y-128520866D02*
X209505541Y-128282771D01*
X209505541Y-128282771D02*
X209553160Y-128092295D01*
X209553160Y-128092295D02*
X209600779Y-127997057D01*
X209600779Y-127997057D02*
X209648398Y-127949438D01*
X209648398Y-127949438D02*
X209743636Y-127901819D01*
X166643207Y-128171580D02*
X166595588Y-128219200D01*
X166595588Y-128219200D02*
X166452731Y-128266819D01*
X166452731Y-128266819D02*
X166357493Y-128266819D01*
X166357493Y-128266819D02*
X166214636Y-128219200D01*
X166214636Y-128219200D02*
X166119398Y-128123961D01*
X166119398Y-128123961D02*
X166071779Y-128028723D01*
X166071779Y-128028723D02*
X166024160Y-127838247D01*
X166024160Y-127838247D02*
X166024160Y-127695390D01*
X166024160Y-127695390D02*
X166071779Y-127504914D01*
X166071779Y-127504914D02*
X166119398Y-127409676D01*
X166119398Y-127409676D02*
X166214636Y-127314438D01*
X166214636Y-127314438D02*
X166357493Y-127266819D01*
X166357493Y-127266819D02*
X166452731Y-127266819D01*
X166452731Y-127266819D02*
X166595588Y-127314438D01*
X166595588Y-127314438D02*
X166643207Y-127362057D01*
X167214636Y-127695390D02*
X167119398Y-127647771D01*
X167119398Y-127647771D02*
X167071779Y-127600152D01*
X167071779Y-127600152D02*
X167024160Y-127504914D01*
X167024160Y-127504914D02*
X167024160Y-127457295D01*
X167024160Y-127457295D02*
X167071779Y-127362057D01*
X167071779Y-127362057D02*
X167119398Y-127314438D01*
X167119398Y-127314438D02*
X167214636Y-127266819D01*
X167214636Y-127266819D02*
X167405112Y-127266819D01*
X167405112Y-127266819D02*
X167500350Y-127314438D01*
X167500350Y-127314438D02*
X167547969Y-127362057D01*
X167547969Y-127362057D02*
X167595588Y-127457295D01*
X167595588Y-127457295D02*
X167595588Y-127504914D01*
X167595588Y-127504914D02*
X167547969Y-127600152D01*
X167547969Y-127600152D02*
X167500350Y-127647771D01*
X167500350Y-127647771D02*
X167405112Y-127695390D01*
X167405112Y-127695390D02*
X167214636Y-127695390D01*
X167214636Y-127695390D02*
X167119398Y-127743009D01*
X167119398Y-127743009D02*
X167071779Y-127790628D01*
X167071779Y-127790628D02*
X167024160Y-127885866D01*
X167024160Y-127885866D02*
X167024160Y-128076342D01*
X167024160Y-128076342D02*
X167071779Y-128171580D01*
X167071779Y-128171580D02*
X167119398Y-128219200D01*
X167119398Y-128219200D02*
X167214636Y-128266819D01*
X167214636Y-128266819D02*
X167405112Y-128266819D01*
X167405112Y-128266819D02*
X167500350Y-128219200D01*
X167500350Y-128219200D02*
X167547969Y-128171580D01*
X167547969Y-128171580D02*
X167595588Y-128076342D01*
X167595588Y-128076342D02*
X167595588Y-127885866D01*
X167595588Y-127885866D02*
X167547969Y-127790628D01*
X167547969Y-127790628D02*
X167500350Y-127743009D01*
X167500350Y-127743009D02*
X167405112Y-127695390D01*
X208299207Y-121059580D02*
X208251588Y-121107200D01*
X208251588Y-121107200D02*
X208108731Y-121154819D01*
X208108731Y-121154819D02*
X208013493Y-121154819D01*
X208013493Y-121154819D02*
X207870636Y-121107200D01*
X207870636Y-121107200D02*
X207775398Y-121011961D01*
X207775398Y-121011961D02*
X207727779Y-120916723D01*
X207727779Y-120916723D02*
X207680160Y-120726247D01*
X207680160Y-120726247D02*
X207680160Y-120583390D01*
X207680160Y-120583390D02*
X207727779Y-120392914D01*
X207727779Y-120392914D02*
X207775398Y-120297676D01*
X207775398Y-120297676D02*
X207870636Y-120202438D01*
X207870636Y-120202438D02*
X208013493Y-120154819D01*
X208013493Y-120154819D02*
X208108731Y-120154819D01*
X208108731Y-120154819D02*
X208251588Y-120202438D01*
X208251588Y-120202438D02*
X208299207Y-120250057D01*
X209251588Y-121154819D02*
X208680160Y-121154819D01*
X208965874Y-121154819D02*
X208965874Y-120154819D01*
X208965874Y-120154819D02*
X208870636Y-120297676D01*
X208870636Y-120297676D02*
X208775398Y-120392914D01*
X208775398Y-120392914D02*
X208680160Y-120440533D01*
X210108731Y-120154819D02*
X209918255Y-120154819D01*
X209918255Y-120154819D02*
X209823017Y-120202438D01*
X209823017Y-120202438D02*
X209775398Y-120250057D01*
X209775398Y-120250057D02*
X209680160Y-120392914D01*
X209680160Y-120392914D02*
X209632541Y-120583390D01*
X209632541Y-120583390D02*
X209632541Y-120964342D01*
X209632541Y-120964342D02*
X209680160Y-121059580D01*
X209680160Y-121059580D02*
X209727779Y-121107200D01*
X209727779Y-121107200D02*
X209823017Y-121154819D01*
X209823017Y-121154819D02*
X210013493Y-121154819D01*
X210013493Y-121154819D02*
X210108731Y-121107200D01*
X210108731Y-121107200D02*
X210156350Y-121059580D01*
X210156350Y-121059580D02*
X210203969Y-120964342D01*
X210203969Y-120964342D02*
X210203969Y-120726247D01*
X210203969Y-120726247D02*
X210156350Y-120631009D01*
X210156350Y-120631009D02*
X210108731Y-120583390D01*
X210108731Y-120583390D02*
X210013493Y-120535771D01*
X210013493Y-120535771D02*
X209823017Y-120535771D01*
X209823017Y-120535771D02*
X209727779Y-120583390D01*
X209727779Y-120583390D02*
X209680160Y-120631009D01*
X209680160Y-120631009D02*
X209632541Y-120726247D01*
X149879207Y-115344580D02*
X149831588Y-115392200D01*
X149831588Y-115392200D02*
X149688731Y-115439819D01*
X149688731Y-115439819D02*
X149593493Y-115439819D01*
X149593493Y-115439819D02*
X149450636Y-115392200D01*
X149450636Y-115392200D02*
X149355398Y-115296961D01*
X149355398Y-115296961D02*
X149307779Y-115201723D01*
X149307779Y-115201723D02*
X149260160Y-115011247D01*
X149260160Y-115011247D02*
X149260160Y-114868390D01*
X149260160Y-114868390D02*
X149307779Y-114677914D01*
X149307779Y-114677914D02*
X149355398Y-114582676D01*
X149355398Y-114582676D02*
X149450636Y-114487438D01*
X149450636Y-114487438D02*
X149593493Y-114439819D01*
X149593493Y-114439819D02*
X149688731Y-114439819D01*
X149688731Y-114439819D02*
X149831588Y-114487438D01*
X149831588Y-114487438D02*
X149879207Y-114535057D01*
X150831588Y-115439819D02*
X150260160Y-115439819D01*
X150545874Y-115439819D02*
X150545874Y-114439819D01*
X150545874Y-114439819D02*
X150450636Y-114582676D01*
X150450636Y-114582676D02*
X150355398Y-114677914D01*
X150355398Y-114677914D02*
X150260160Y-114725533D01*
X151688731Y-114439819D02*
X151498255Y-114439819D01*
X151498255Y-114439819D02*
X151403017Y-114487438D01*
X151403017Y-114487438D02*
X151355398Y-114535057D01*
X151355398Y-114535057D02*
X151260160Y-114677914D01*
X151260160Y-114677914D02*
X151212541Y-114868390D01*
X151212541Y-114868390D02*
X151212541Y-115249342D01*
X151212541Y-115249342D02*
X151260160Y-115344580D01*
X151260160Y-115344580D02*
X151307779Y-115392200D01*
X151307779Y-115392200D02*
X151403017Y-115439819D01*
X151403017Y-115439819D02*
X151593493Y-115439819D01*
X151593493Y-115439819D02*
X151688731Y-115392200D01*
X151688731Y-115392200D02*
X151736350Y-115344580D01*
X151736350Y-115344580D02*
X151783969Y-115249342D01*
X151783969Y-115249342D02*
X151783969Y-115011247D01*
X151783969Y-115011247D02*
X151736350Y-114916009D01*
X151736350Y-114916009D02*
X151688731Y-114868390D01*
X151688731Y-114868390D02*
X151593493Y-114820771D01*
X151593493Y-114820771D02*
X151403017Y-114820771D01*
X151403017Y-114820771D02*
X151307779Y-114868390D01*
X151307779Y-114868390D02*
X151260160Y-114916009D01*
X151260160Y-114916009D02*
X151212541Y-115011247D01*
X192251753Y-106898750D02*
X191679333Y-107471170D01*
X191679333Y-107471170D02*
X191645661Y-107572185D01*
X191645661Y-107572185D02*
X191645661Y-107639529D01*
X191645661Y-107639529D02*
X191679333Y-107740544D01*
X191679333Y-107740544D02*
X191814020Y-107875231D01*
X191814020Y-107875231D02*
X191915035Y-107908903D01*
X191915035Y-107908903D02*
X191982379Y-107908903D01*
X191982379Y-107908903D02*
X192083394Y-107875231D01*
X192083394Y-107875231D02*
X192655814Y-107302811D01*
X192891516Y-107673201D02*
X192958859Y-107673201D01*
X192958859Y-107673201D02*
X193059875Y-107706872D01*
X193059875Y-107706872D02*
X193228233Y-107875231D01*
X193228233Y-107875231D02*
X193261905Y-107976246D01*
X193261905Y-107976246D02*
X193261905Y-108043590D01*
X193261905Y-108043590D02*
X193228233Y-108144605D01*
X193228233Y-108144605D02*
X193160890Y-108211949D01*
X193160890Y-108211949D02*
X193026203Y-108279292D01*
X193026203Y-108279292D02*
X192218081Y-108279292D01*
X192218081Y-108279292D02*
X192655814Y-108717025D01*
X155851868Y-105012145D02*
X155279448Y-105584565D01*
X155279448Y-105584565D02*
X155245776Y-105685580D01*
X155245776Y-105685580D02*
X155245776Y-105752924D01*
X155245776Y-105752924D02*
X155279448Y-105853939D01*
X155279448Y-105853939D02*
X155414135Y-105988626D01*
X155414135Y-105988626D02*
X155515150Y-106022298D01*
X155515150Y-106022298D02*
X155582494Y-106022298D01*
X155582494Y-106022298D02*
X155683509Y-105988626D01*
X155683509Y-105988626D02*
X156255929Y-105416206D01*
X156659990Y-106291672D02*
X156188585Y-106763076D01*
X156761005Y-105853939D02*
X156087570Y-106190657D01*
X156087570Y-106190657D02*
X156525303Y-106628389D01*
X186094761Y-99514819D02*
X185761428Y-99038628D01*
X185523333Y-99514819D02*
X185523333Y-98514819D01*
X185523333Y-98514819D02*
X185904285Y-98514819D01*
X185904285Y-98514819D02*
X185999523Y-98562438D01*
X185999523Y-98562438D02*
X186047142Y-98610057D01*
X186047142Y-98610057D02*
X186094761Y-98705295D01*
X186094761Y-98705295D02*
X186094761Y-98848152D01*
X186094761Y-98848152D02*
X186047142Y-98943390D01*
X186047142Y-98943390D02*
X185999523Y-98991009D01*
X185999523Y-98991009D02*
X185904285Y-99038628D01*
X185904285Y-99038628D02*
X185523333Y-99038628D01*
X186380476Y-98514819D02*
X186713809Y-99514819D01*
X186713809Y-99514819D02*
X187047142Y-98514819D01*
X187904285Y-99514819D02*
X187332857Y-99514819D01*
X187618571Y-99514819D02*
X187618571Y-98514819D01*
X187618571Y-98514819D02*
X187523333Y-98657676D01*
X187523333Y-98657676D02*
X187428095Y-98752914D01*
X187428095Y-98752914D02*
X187332857Y-98800533D01*
D11*
X186282409Y-104509047D02*
X185782409Y-104509047D01*
X185782409Y-104509047D02*
X185782409Y-104389999D01*
X185782409Y-104389999D02*
X185806219Y-104318571D01*
X185806219Y-104318571D02*
X185853838Y-104270952D01*
X185853838Y-104270952D02*
X185901457Y-104247142D01*
X185901457Y-104247142D02*
X185996695Y-104223333D01*
X185996695Y-104223333D02*
X186068123Y-104223333D01*
X186068123Y-104223333D02*
X186163361Y-104247142D01*
X186163361Y-104247142D02*
X186210980Y-104270952D01*
X186210980Y-104270952D02*
X186258600Y-104318571D01*
X186258600Y-104318571D02*
X186282409Y-104389999D01*
X186282409Y-104389999D02*
X186282409Y-104509047D01*
X185782409Y-103913809D02*
X185782409Y-103866190D01*
X185782409Y-103866190D02*
X185806219Y-103818571D01*
X185806219Y-103818571D02*
X185830028Y-103794761D01*
X185830028Y-103794761D02*
X185877647Y-103770952D01*
X185877647Y-103770952D02*
X185972885Y-103747142D01*
X185972885Y-103747142D02*
X186091933Y-103747142D01*
X186091933Y-103747142D02*
X186187171Y-103770952D01*
X186187171Y-103770952D02*
X186234790Y-103794761D01*
X186234790Y-103794761D02*
X186258600Y-103818571D01*
X186258600Y-103818571D02*
X186282409Y-103866190D01*
X186282409Y-103866190D02*
X186282409Y-103913809D01*
X186282409Y-103913809D02*
X186258600Y-103961428D01*
X186258600Y-103961428D02*
X186234790Y-103985237D01*
X186234790Y-103985237D02*
X186187171Y-104009047D01*
X186187171Y-104009047D02*
X186091933Y-104032856D01*
X186091933Y-104032856D02*
X185972885Y-104032856D01*
X185972885Y-104032856D02*
X185877647Y-104009047D01*
X185877647Y-104009047D02*
X185830028Y-103985237D01*
X185830028Y-103985237D02*
X185806219Y-103961428D01*
X185806219Y-103961428D02*
X185782409Y-103913809D01*
D12*
%TO.C,U2*%
X196266057Y-105703050D02*
X197206509Y-106643502D01*
X195325605Y-106643502D02*
X196266057Y-105703050D01*
X194427579Y-107541528D02*
X190793050Y-111176057D01*
X194427579Y-107541528D02*
X196308483Y-109422432D01*
X190793050Y-111176057D02*
X192673954Y-113056961D01*
X196308483Y-109422432D02*
X192673954Y-113056961D01*
%TO.C,U4*%
X154357557Y-105703050D02*
X155298009Y-106643502D01*
X153417105Y-106643502D02*
X154357557Y-105703050D01*
X152519079Y-107541528D02*
X148884550Y-111176057D01*
X152519079Y-107541528D02*
X154399983Y-109422432D01*
X148884550Y-111176057D02*
X150765454Y-113056961D01*
X154399983Y-109422432D02*
X150765454Y-113056961D01*
%TO.C,RV1*%
X175640000Y-132830000D02*
X175640000Y-97830000D01*
X185040000Y-132830000D02*
X175640000Y-132830000D01*
X175640000Y-97830000D02*
X185040000Y-97830000D01*
X185040000Y-97830000D02*
X185040000Y-132830000D01*
%TD*%
M02*
