%TF.GenerationSoftware,KiCad,Pcbnew,7.0.7*%
%TF.CreationDate,2023-09-10T17:47:14+02:00*%
%TF.ProjectId,Angle&Ana&Sw,416e676c-6526-4416-9e61-2653772e6b69,1.0*%
%TF.SameCoordinates,Original*%
%TF.FileFunction,AssemblyDrawing,Top*%
%FSLAX46Y46*%
G04 Gerber Fmt 4.6, Leading zero omitted, Abs format (unit mm)*
G04 Created by KiCad (PCBNEW 7.0.7) date 2023-09-10 17:47:14*
%MOMM*%
%LPD*%
G01*
G04 APERTURE LIST*
%ADD10C,0.100000*%
%ADD11C,0.150000*%
G04 APERTURE END LIST*
D10*
X142624525Y-132080000D02*
G75*
G03*
X140335000Y-129790475I-2289525J0D01*
G01*
X200660000Y-116205000D02*
X201930000Y-116205000D01*
X158750000Y-116205000D02*
X160020000Y-116205000D01*
X137800000Y-129794000D02*
X137800000Y-100711000D01*
X218059000Y-98425000D02*
G75*
G03*
X220345000Y-100711000I2286000J0D01*
G01*
X142621000Y-98425000D02*
X142621000Y-95885000D01*
X159385000Y-115570000D02*
X159385000Y-116840000D01*
X142624525Y-132080000D02*
X142624525Y-134620000D01*
X220345000Y-100711000D02*
X222885000Y-100711000D01*
X140335000Y-100711000D02*
X137795000Y-100711000D01*
X222900000Y-100711000D02*
X222900000Y-129794000D01*
X201295000Y-115570000D02*
X201295000Y-116840000D01*
X142624525Y-134620000D02*
X218059000Y-134620000D01*
X183540000Y-103170000D02*
G75*
G03*
X183540000Y-103170000I-3200000J0D01*
G01*
X140335000Y-129790475D02*
X137795000Y-129790475D01*
X142621000Y-95885000D02*
X218059000Y-95885000D01*
X218059000Y-98425000D02*
G75*
G03*
X220345000Y-100711000I2286000J0D01*
G01*
X218059000Y-98425000D02*
X218059000Y-95885000D01*
X218059000Y-132080000D02*
X218059000Y-134600000D01*
X140335000Y-100711000D02*
G75*
G03*
X142621000Y-98425000I0J2286000D01*
G01*
X196440000Y-115570000D02*
G75*
G03*
X196440000Y-115570000I-16100000J0D01*
G01*
X220345000Y-129794000D02*
X222900000Y-129794000D01*
X220345000Y-129794000D02*
G75*
G03*
X218059000Y-132080000I0J-2286000D01*
G01*
D11*
X224044333Y-135671152D02*
X224044333Y-136337819D01*
X223806238Y-135290200D02*
X223568143Y-136004485D01*
X223568143Y-136004485D02*
X224187190Y-136004485D01*
X224615762Y-136290200D02*
X224615762Y-136337819D01*
X224615762Y-136337819D02*
X224568143Y-136433057D01*
X224568143Y-136433057D02*
X224520524Y-136480676D01*
X225187190Y-135766390D02*
X225091952Y-135718771D01*
X225091952Y-135718771D02*
X225044333Y-135671152D01*
X225044333Y-135671152D02*
X224996714Y-135575914D01*
X224996714Y-135575914D02*
X224996714Y-135528295D01*
X224996714Y-135528295D02*
X225044333Y-135433057D01*
X225044333Y-135433057D02*
X225091952Y-135385438D01*
X225091952Y-135385438D02*
X225187190Y-135337819D01*
X225187190Y-135337819D02*
X225377666Y-135337819D01*
X225377666Y-135337819D02*
X225472904Y-135385438D01*
X225472904Y-135385438D02*
X225520523Y-135433057D01*
X225520523Y-135433057D02*
X225568142Y-135528295D01*
X225568142Y-135528295D02*
X225568142Y-135575914D01*
X225568142Y-135575914D02*
X225520523Y-135671152D01*
X225520523Y-135671152D02*
X225472904Y-135718771D01*
X225472904Y-135718771D02*
X225377666Y-135766390D01*
X225377666Y-135766390D02*
X225187190Y-135766390D01*
X225187190Y-135766390D02*
X225091952Y-135814009D01*
X225091952Y-135814009D02*
X225044333Y-135861628D01*
X225044333Y-135861628D02*
X224996714Y-135956866D01*
X224996714Y-135956866D02*
X224996714Y-136147342D01*
X224996714Y-136147342D02*
X225044333Y-136242580D01*
X225044333Y-136242580D02*
X225091952Y-136290200D01*
X225091952Y-136290200D02*
X225187190Y-136337819D01*
X225187190Y-136337819D02*
X225377666Y-136337819D01*
X225377666Y-136337819D02*
X225472904Y-136290200D01*
X225472904Y-136290200D02*
X225520523Y-136242580D01*
X225520523Y-136242580D02*
X225568142Y-136147342D01*
X225568142Y-136147342D02*
X225568142Y-135956866D01*
X225568142Y-135956866D02*
X225520523Y-135861628D01*
X225520523Y-135861628D02*
X225472904Y-135814009D01*
X225472904Y-135814009D02*
X225377666Y-135766390D01*
X225901476Y-135337819D02*
X226520523Y-135337819D01*
X226520523Y-135337819D02*
X226187190Y-135718771D01*
X226187190Y-135718771D02*
X226330047Y-135718771D01*
X226330047Y-135718771D02*
X226425285Y-135766390D01*
X226425285Y-135766390D02*
X226472904Y-135814009D01*
X226472904Y-135814009D02*
X226520523Y-135909247D01*
X226520523Y-135909247D02*
X226520523Y-136147342D01*
X226520523Y-136147342D02*
X226472904Y-136242580D01*
X226472904Y-136242580D02*
X226425285Y-136290200D01*
X226425285Y-136290200D02*
X226330047Y-136337819D01*
X226330047Y-136337819D02*
X226044333Y-136337819D01*
X226044333Y-136337819D02*
X225949095Y-136290200D01*
X225949095Y-136290200D02*
X225901476Y-136242580D01*
X227472904Y-136337819D02*
X226901476Y-136337819D01*
X227187190Y-136337819D02*
X227187190Y-135337819D01*
X227187190Y-135337819D02*
X227091952Y-135480676D01*
X227091952Y-135480676D02*
X226996714Y-135575914D01*
X226996714Y-135575914D02*
X226901476Y-135623533D01*
X228091952Y-135337819D02*
X228187190Y-135337819D01*
X228187190Y-135337819D02*
X228282428Y-135385438D01*
X228282428Y-135385438D02*
X228330047Y-135433057D01*
X228330047Y-135433057D02*
X228377666Y-135528295D01*
X228377666Y-135528295D02*
X228425285Y-135718771D01*
X228425285Y-135718771D02*
X228425285Y-135956866D01*
X228425285Y-135956866D02*
X228377666Y-136147342D01*
X228377666Y-136147342D02*
X228330047Y-136242580D01*
X228330047Y-136242580D02*
X228282428Y-136290200D01*
X228282428Y-136290200D02*
X228187190Y-136337819D01*
X228187190Y-136337819D02*
X228091952Y-136337819D01*
X228091952Y-136337819D02*
X227996714Y-136290200D01*
X227996714Y-136290200D02*
X227949095Y-136242580D01*
X227949095Y-136242580D02*
X227901476Y-136147342D01*
X227901476Y-136147342D02*
X227853857Y-135956866D01*
X227853857Y-135956866D02*
X227853857Y-135718771D01*
X227853857Y-135718771D02*
X227901476Y-135528295D01*
X227901476Y-135528295D02*
X227949095Y-135433057D01*
X227949095Y-135433057D02*
X227996714Y-135385438D01*
X227996714Y-135385438D02*
X228091952Y-135337819D01*
X229615762Y-136337819D02*
X229615762Y-135671152D01*
X229615762Y-135766390D02*
X229663381Y-135718771D01*
X229663381Y-135718771D02*
X229758619Y-135671152D01*
X229758619Y-135671152D02*
X229901476Y-135671152D01*
X229901476Y-135671152D02*
X229996714Y-135718771D01*
X229996714Y-135718771D02*
X230044333Y-135814009D01*
X230044333Y-135814009D02*
X230044333Y-136337819D01*
X230044333Y-135814009D02*
X230091952Y-135718771D01*
X230091952Y-135718771D02*
X230187190Y-135671152D01*
X230187190Y-135671152D02*
X230330047Y-135671152D01*
X230330047Y-135671152D02*
X230425286Y-135718771D01*
X230425286Y-135718771D02*
X230472905Y-135814009D01*
X230472905Y-135814009D02*
X230472905Y-136337819D01*
X230949095Y-136337819D02*
X230949095Y-135671152D01*
X230949095Y-135766390D02*
X230996714Y-135718771D01*
X230996714Y-135718771D02*
X231091952Y-135671152D01*
X231091952Y-135671152D02*
X231234809Y-135671152D01*
X231234809Y-135671152D02*
X231330047Y-135718771D01*
X231330047Y-135718771D02*
X231377666Y-135814009D01*
X231377666Y-135814009D02*
X231377666Y-136337819D01*
X231377666Y-135814009D02*
X231425285Y-135718771D01*
X231425285Y-135718771D02*
X231520523Y-135671152D01*
X231520523Y-135671152D02*
X231663380Y-135671152D01*
X231663380Y-135671152D02*
X231758619Y-135718771D01*
X231758619Y-135718771D02*
X231806238Y-135814009D01*
X231806238Y-135814009D02*
X231806238Y-136337819D01*
D10*
X218054000Y-135120000D02*
X218054000Y-137619420D01*
X222885000Y-135120000D02*
X222885000Y-137619420D01*
X218054000Y-137033000D02*
X222885000Y-137033000D01*
X218054000Y-137033000D02*
X222885000Y-137033000D01*
X218054000Y-137033000D02*
X219180504Y-136446579D01*
X218054000Y-137033000D02*
X219180504Y-137619421D01*
X222885000Y-137033000D02*
X221758496Y-137619421D01*
X222885000Y-137033000D02*
X221758496Y-136446579D01*
D11*
X224063152Y-128761666D02*
X224729819Y-128761666D01*
X223682200Y-128999761D02*
X224396485Y-129237856D01*
X224396485Y-129237856D02*
X224396485Y-128618809D01*
X224682200Y-128190237D02*
X224729819Y-128190237D01*
X224729819Y-128190237D02*
X224825057Y-128237856D01*
X224825057Y-128237856D02*
X224872676Y-128285475D01*
X224158390Y-127618809D02*
X224110771Y-127714047D01*
X224110771Y-127714047D02*
X224063152Y-127761666D01*
X224063152Y-127761666D02*
X223967914Y-127809285D01*
X223967914Y-127809285D02*
X223920295Y-127809285D01*
X223920295Y-127809285D02*
X223825057Y-127761666D01*
X223825057Y-127761666D02*
X223777438Y-127714047D01*
X223777438Y-127714047D02*
X223729819Y-127618809D01*
X223729819Y-127618809D02*
X223729819Y-127428333D01*
X223729819Y-127428333D02*
X223777438Y-127333095D01*
X223777438Y-127333095D02*
X223825057Y-127285476D01*
X223825057Y-127285476D02*
X223920295Y-127237857D01*
X223920295Y-127237857D02*
X223967914Y-127237857D01*
X223967914Y-127237857D02*
X224063152Y-127285476D01*
X224063152Y-127285476D02*
X224110771Y-127333095D01*
X224110771Y-127333095D02*
X224158390Y-127428333D01*
X224158390Y-127428333D02*
X224158390Y-127618809D01*
X224158390Y-127618809D02*
X224206009Y-127714047D01*
X224206009Y-127714047D02*
X224253628Y-127761666D01*
X224253628Y-127761666D02*
X224348866Y-127809285D01*
X224348866Y-127809285D02*
X224539342Y-127809285D01*
X224539342Y-127809285D02*
X224634580Y-127761666D01*
X224634580Y-127761666D02*
X224682200Y-127714047D01*
X224682200Y-127714047D02*
X224729819Y-127618809D01*
X224729819Y-127618809D02*
X224729819Y-127428333D01*
X224729819Y-127428333D02*
X224682200Y-127333095D01*
X224682200Y-127333095D02*
X224634580Y-127285476D01*
X224634580Y-127285476D02*
X224539342Y-127237857D01*
X224539342Y-127237857D02*
X224348866Y-127237857D01*
X224348866Y-127237857D02*
X224253628Y-127285476D01*
X224253628Y-127285476D02*
X224206009Y-127333095D01*
X224206009Y-127333095D02*
X224158390Y-127428333D01*
X223825057Y-126856904D02*
X223777438Y-126809285D01*
X223777438Y-126809285D02*
X223729819Y-126714047D01*
X223729819Y-126714047D02*
X223729819Y-126475952D01*
X223729819Y-126475952D02*
X223777438Y-126380714D01*
X223777438Y-126380714D02*
X223825057Y-126333095D01*
X223825057Y-126333095D02*
X223920295Y-126285476D01*
X223920295Y-126285476D02*
X224015533Y-126285476D01*
X224015533Y-126285476D02*
X224158390Y-126333095D01*
X224158390Y-126333095D02*
X224729819Y-126904523D01*
X224729819Y-126904523D02*
X224729819Y-126285476D01*
X223729819Y-125428333D02*
X223729819Y-125618809D01*
X223729819Y-125618809D02*
X223777438Y-125714047D01*
X223777438Y-125714047D02*
X223825057Y-125761666D01*
X223825057Y-125761666D02*
X223967914Y-125856904D01*
X223967914Y-125856904D02*
X224158390Y-125904523D01*
X224158390Y-125904523D02*
X224539342Y-125904523D01*
X224539342Y-125904523D02*
X224634580Y-125856904D01*
X224634580Y-125856904D02*
X224682200Y-125809285D01*
X224682200Y-125809285D02*
X224729819Y-125714047D01*
X224729819Y-125714047D02*
X224729819Y-125523571D01*
X224729819Y-125523571D02*
X224682200Y-125428333D01*
X224682200Y-125428333D02*
X224634580Y-125380714D01*
X224634580Y-125380714D02*
X224539342Y-125333095D01*
X224539342Y-125333095D02*
X224301247Y-125333095D01*
X224301247Y-125333095D02*
X224206009Y-125380714D01*
X224206009Y-125380714D02*
X224158390Y-125428333D01*
X224158390Y-125428333D02*
X224110771Y-125523571D01*
X224110771Y-125523571D02*
X224110771Y-125714047D01*
X224110771Y-125714047D02*
X224158390Y-125809285D01*
X224158390Y-125809285D02*
X224206009Y-125856904D01*
X224206009Y-125856904D02*
X224301247Y-125904523D01*
X223729819Y-124714047D02*
X223729819Y-124618809D01*
X223729819Y-124618809D02*
X223777438Y-124523571D01*
X223777438Y-124523571D02*
X223825057Y-124475952D01*
X223825057Y-124475952D02*
X223920295Y-124428333D01*
X223920295Y-124428333D02*
X224110771Y-124380714D01*
X224110771Y-124380714D02*
X224348866Y-124380714D01*
X224348866Y-124380714D02*
X224539342Y-124428333D01*
X224539342Y-124428333D02*
X224634580Y-124475952D01*
X224634580Y-124475952D02*
X224682200Y-124523571D01*
X224682200Y-124523571D02*
X224729819Y-124618809D01*
X224729819Y-124618809D02*
X224729819Y-124714047D01*
X224729819Y-124714047D02*
X224682200Y-124809285D01*
X224682200Y-124809285D02*
X224634580Y-124856904D01*
X224634580Y-124856904D02*
X224539342Y-124904523D01*
X224539342Y-124904523D02*
X224348866Y-124952142D01*
X224348866Y-124952142D02*
X224110771Y-124952142D01*
X224110771Y-124952142D02*
X223920295Y-124904523D01*
X223920295Y-124904523D02*
X223825057Y-124856904D01*
X223825057Y-124856904D02*
X223777438Y-124809285D01*
X223777438Y-124809285D02*
X223729819Y-124714047D01*
X224729819Y-123190237D02*
X224063152Y-123190237D01*
X224158390Y-123190237D02*
X224110771Y-123142618D01*
X224110771Y-123142618D02*
X224063152Y-123047380D01*
X224063152Y-123047380D02*
X224063152Y-122904523D01*
X224063152Y-122904523D02*
X224110771Y-122809285D01*
X224110771Y-122809285D02*
X224206009Y-122761666D01*
X224206009Y-122761666D02*
X224729819Y-122761666D01*
X224206009Y-122761666D02*
X224110771Y-122714047D01*
X224110771Y-122714047D02*
X224063152Y-122618809D01*
X224063152Y-122618809D02*
X224063152Y-122475952D01*
X224063152Y-122475952D02*
X224110771Y-122380713D01*
X224110771Y-122380713D02*
X224206009Y-122333094D01*
X224206009Y-122333094D02*
X224729819Y-122333094D01*
X224729819Y-121856904D02*
X224063152Y-121856904D01*
X224158390Y-121856904D02*
X224110771Y-121809285D01*
X224110771Y-121809285D02*
X224063152Y-121714047D01*
X224063152Y-121714047D02*
X224063152Y-121571190D01*
X224063152Y-121571190D02*
X224110771Y-121475952D01*
X224110771Y-121475952D02*
X224206009Y-121428333D01*
X224206009Y-121428333D02*
X224729819Y-121428333D01*
X224206009Y-121428333D02*
X224110771Y-121380714D01*
X224110771Y-121380714D02*
X224063152Y-121285476D01*
X224063152Y-121285476D02*
X224063152Y-121142619D01*
X224063152Y-121142619D02*
X224110771Y-121047380D01*
X224110771Y-121047380D02*
X224206009Y-120999761D01*
X224206009Y-120999761D02*
X224729819Y-120999761D01*
D10*
X218559000Y-134620000D02*
X226011420Y-134620000D01*
X218559000Y-129794000D02*
X226011420Y-129794000D01*
X225425000Y-134620000D02*
X225425000Y-129794000D01*
X225425000Y-134620000D02*
X225425000Y-129794000D01*
X225425000Y-134620000D02*
X224838579Y-133493496D01*
X225425000Y-134620000D02*
X226011421Y-133493496D01*
X225425000Y-129794000D02*
X226011421Y-130920504D01*
X225425000Y-129794000D02*
X224838579Y-130920504D01*
D11*
X226015819Y-119919165D02*
X226015819Y-119300118D01*
X226015819Y-119300118D02*
X226396771Y-119633451D01*
X226396771Y-119633451D02*
X226396771Y-119490594D01*
X226396771Y-119490594D02*
X226444390Y-119395356D01*
X226444390Y-119395356D02*
X226492009Y-119347737D01*
X226492009Y-119347737D02*
X226587247Y-119300118D01*
X226587247Y-119300118D02*
X226825342Y-119300118D01*
X226825342Y-119300118D02*
X226920580Y-119347737D01*
X226920580Y-119347737D02*
X226968200Y-119395356D01*
X226968200Y-119395356D02*
X227015819Y-119490594D01*
X227015819Y-119490594D02*
X227015819Y-119776308D01*
X227015819Y-119776308D02*
X226968200Y-119871546D01*
X226968200Y-119871546D02*
X226920580Y-119919165D01*
X226444390Y-118728689D02*
X226396771Y-118823927D01*
X226396771Y-118823927D02*
X226349152Y-118871546D01*
X226349152Y-118871546D02*
X226253914Y-118919165D01*
X226253914Y-118919165D02*
X226206295Y-118919165D01*
X226206295Y-118919165D02*
X226111057Y-118871546D01*
X226111057Y-118871546D02*
X226063438Y-118823927D01*
X226063438Y-118823927D02*
X226015819Y-118728689D01*
X226015819Y-118728689D02*
X226015819Y-118538213D01*
X226015819Y-118538213D02*
X226063438Y-118442975D01*
X226063438Y-118442975D02*
X226111057Y-118395356D01*
X226111057Y-118395356D02*
X226206295Y-118347737D01*
X226206295Y-118347737D02*
X226253914Y-118347737D01*
X226253914Y-118347737D02*
X226349152Y-118395356D01*
X226349152Y-118395356D02*
X226396771Y-118442975D01*
X226396771Y-118442975D02*
X226444390Y-118538213D01*
X226444390Y-118538213D02*
X226444390Y-118728689D01*
X226444390Y-118728689D02*
X226492009Y-118823927D01*
X226492009Y-118823927D02*
X226539628Y-118871546D01*
X226539628Y-118871546D02*
X226634866Y-118919165D01*
X226634866Y-118919165D02*
X226825342Y-118919165D01*
X226825342Y-118919165D02*
X226920580Y-118871546D01*
X226920580Y-118871546D02*
X226968200Y-118823927D01*
X226968200Y-118823927D02*
X227015819Y-118728689D01*
X227015819Y-118728689D02*
X227015819Y-118538213D01*
X227015819Y-118538213D02*
X226968200Y-118442975D01*
X226968200Y-118442975D02*
X226920580Y-118395356D01*
X226920580Y-118395356D02*
X226825342Y-118347737D01*
X226825342Y-118347737D02*
X226634866Y-118347737D01*
X226634866Y-118347737D02*
X226539628Y-118395356D01*
X226539628Y-118395356D02*
X226492009Y-118442975D01*
X226492009Y-118442975D02*
X226444390Y-118538213D01*
X226968200Y-117871546D02*
X227015819Y-117871546D01*
X227015819Y-117871546D02*
X227111057Y-117919165D01*
X227111057Y-117919165D02*
X227158676Y-117966784D01*
X226015819Y-117538213D02*
X226015819Y-116871547D01*
X226015819Y-116871547D02*
X227015819Y-117300118D01*
X226015819Y-116585832D02*
X226015819Y-115966785D01*
X226015819Y-115966785D02*
X226396771Y-116300118D01*
X226396771Y-116300118D02*
X226396771Y-116157261D01*
X226396771Y-116157261D02*
X226444390Y-116062023D01*
X226444390Y-116062023D02*
X226492009Y-116014404D01*
X226492009Y-116014404D02*
X226587247Y-115966785D01*
X226587247Y-115966785D02*
X226825342Y-115966785D01*
X226825342Y-115966785D02*
X226920580Y-116014404D01*
X226920580Y-116014404D02*
X226968200Y-116062023D01*
X226968200Y-116062023D02*
X227015819Y-116157261D01*
X227015819Y-116157261D02*
X227015819Y-116442975D01*
X227015819Y-116442975D02*
X226968200Y-116538213D01*
X226968200Y-116538213D02*
X226920580Y-116585832D01*
X226015819Y-115062023D02*
X226015819Y-115538213D01*
X226015819Y-115538213D02*
X226492009Y-115585832D01*
X226492009Y-115585832D02*
X226444390Y-115538213D01*
X226444390Y-115538213D02*
X226396771Y-115442975D01*
X226396771Y-115442975D02*
X226396771Y-115204880D01*
X226396771Y-115204880D02*
X226444390Y-115109642D01*
X226444390Y-115109642D02*
X226492009Y-115062023D01*
X226492009Y-115062023D02*
X226587247Y-115014404D01*
X226587247Y-115014404D02*
X226825342Y-115014404D01*
X226825342Y-115014404D02*
X226920580Y-115062023D01*
X226920580Y-115062023D02*
X226968200Y-115109642D01*
X226968200Y-115109642D02*
X227015819Y-115204880D01*
X227015819Y-115204880D02*
X227015819Y-115442975D01*
X227015819Y-115442975D02*
X226968200Y-115538213D01*
X226968200Y-115538213D02*
X226920580Y-115585832D01*
X226015819Y-114395356D02*
X226015819Y-114300118D01*
X226015819Y-114300118D02*
X226063438Y-114204880D01*
X226063438Y-114204880D02*
X226111057Y-114157261D01*
X226111057Y-114157261D02*
X226206295Y-114109642D01*
X226206295Y-114109642D02*
X226396771Y-114062023D01*
X226396771Y-114062023D02*
X226634866Y-114062023D01*
X226634866Y-114062023D02*
X226825342Y-114109642D01*
X226825342Y-114109642D02*
X226920580Y-114157261D01*
X226920580Y-114157261D02*
X226968200Y-114204880D01*
X226968200Y-114204880D02*
X227015819Y-114300118D01*
X227015819Y-114300118D02*
X227015819Y-114395356D01*
X227015819Y-114395356D02*
X226968200Y-114490594D01*
X226968200Y-114490594D02*
X226920580Y-114538213D01*
X226920580Y-114538213D02*
X226825342Y-114585832D01*
X226825342Y-114585832D02*
X226634866Y-114633451D01*
X226634866Y-114633451D02*
X226396771Y-114633451D01*
X226396771Y-114633451D02*
X226206295Y-114585832D01*
X226206295Y-114585832D02*
X226111057Y-114538213D01*
X226111057Y-114538213D02*
X226063438Y-114490594D01*
X226063438Y-114490594D02*
X226015819Y-114395356D01*
X227015819Y-112871546D02*
X226349152Y-112871546D01*
X226444390Y-112871546D02*
X226396771Y-112823927D01*
X226396771Y-112823927D02*
X226349152Y-112728689D01*
X226349152Y-112728689D02*
X226349152Y-112585832D01*
X226349152Y-112585832D02*
X226396771Y-112490594D01*
X226396771Y-112490594D02*
X226492009Y-112442975D01*
X226492009Y-112442975D02*
X227015819Y-112442975D01*
X226492009Y-112442975D02*
X226396771Y-112395356D01*
X226396771Y-112395356D02*
X226349152Y-112300118D01*
X226349152Y-112300118D02*
X226349152Y-112157261D01*
X226349152Y-112157261D02*
X226396771Y-112062022D01*
X226396771Y-112062022D02*
X226492009Y-112014403D01*
X226492009Y-112014403D02*
X227015819Y-112014403D01*
X227015819Y-111538213D02*
X226349152Y-111538213D01*
X226444390Y-111538213D02*
X226396771Y-111490594D01*
X226396771Y-111490594D02*
X226349152Y-111395356D01*
X226349152Y-111395356D02*
X226349152Y-111252499D01*
X226349152Y-111252499D02*
X226396771Y-111157261D01*
X226396771Y-111157261D02*
X226492009Y-111109642D01*
X226492009Y-111109642D02*
X227015819Y-111109642D01*
X226492009Y-111109642D02*
X226396771Y-111062023D01*
X226396771Y-111062023D02*
X226349152Y-110966785D01*
X226349152Y-110966785D02*
X226349152Y-110823928D01*
X226349152Y-110823928D02*
X226396771Y-110728689D01*
X226396771Y-110728689D02*
X226492009Y-110681070D01*
X226492009Y-110681070D02*
X227015819Y-110681070D01*
D10*
X218554000Y-134620000D02*
X228297420Y-134620000D01*
X218554000Y-95885000D02*
X228297420Y-95885000D01*
X227711000Y-134620000D02*
X227711000Y-95885000D01*
X227711000Y-134620000D02*
X227711000Y-95885000D01*
X227711000Y-134620000D02*
X227124579Y-133493496D01*
X227711000Y-134620000D02*
X228297421Y-133493496D01*
X227711000Y-95885000D02*
X228297421Y-97011504D01*
X227711000Y-95885000D02*
X227124579Y-97011504D01*
D11*
X224063152Y-109076666D02*
X224729819Y-109076666D01*
X223682200Y-109314761D02*
X224396485Y-109552856D01*
X224396485Y-109552856D02*
X224396485Y-108933809D01*
X224682200Y-108505237D02*
X224729819Y-108505237D01*
X224729819Y-108505237D02*
X224825057Y-108552856D01*
X224825057Y-108552856D02*
X224872676Y-108600475D01*
X224158390Y-107933809D02*
X224110771Y-108029047D01*
X224110771Y-108029047D02*
X224063152Y-108076666D01*
X224063152Y-108076666D02*
X223967914Y-108124285D01*
X223967914Y-108124285D02*
X223920295Y-108124285D01*
X223920295Y-108124285D02*
X223825057Y-108076666D01*
X223825057Y-108076666D02*
X223777438Y-108029047D01*
X223777438Y-108029047D02*
X223729819Y-107933809D01*
X223729819Y-107933809D02*
X223729819Y-107743333D01*
X223729819Y-107743333D02*
X223777438Y-107648095D01*
X223777438Y-107648095D02*
X223825057Y-107600476D01*
X223825057Y-107600476D02*
X223920295Y-107552857D01*
X223920295Y-107552857D02*
X223967914Y-107552857D01*
X223967914Y-107552857D02*
X224063152Y-107600476D01*
X224063152Y-107600476D02*
X224110771Y-107648095D01*
X224110771Y-107648095D02*
X224158390Y-107743333D01*
X224158390Y-107743333D02*
X224158390Y-107933809D01*
X224158390Y-107933809D02*
X224206009Y-108029047D01*
X224206009Y-108029047D02*
X224253628Y-108076666D01*
X224253628Y-108076666D02*
X224348866Y-108124285D01*
X224348866Y-108124285D02*
X224539342Y-108124285D01*
X224539342Y-108124285D02*
X224634580Y-108076666D01*
X224634580Y-108076666D02*
X224682200Y-108029047D01*
X224682200Y-108029047D02*
X224729819Y-107933809D01*
X224729819Y-107933809D02*
X224729819Y-107743333D01*
X224729819Y-107743333D02*
X224682200Y-107648095D01*
X224682200Y-107648095D02*
X224634580Y-107600476D01*
X224634580Y-107600476D02*
X224539342Y-107552857D01*
X224539342Y-107552857D02*
X224348866Y-107552857D01*
X224348866Y-107552857D02*
X224253628Y-107600476D01*
X224253628Y-107600476D02*
X224206009Y-107648095D01*
X224206009Y-107648095D02*
X224158390Y-107743333D01*
X223825057Y-107171904D02*
X223777438Y-107124285D01*
X223777438Y-107124285D02*
X223729819Y-107029047D01*
X223729819Y-107029047D02*
X223729819Y-106790952D01*
X223729819Y-106790952D02*
X223777438Y-106695714D01*
X223777438Y-106695714D02*
X223825057Y-106648095D01*
X223825057Y-106648095D02*
X223920295Y-106600476D01*
X223920295Y-106600476D02*
X224015533Y-106600476D01*
X224015533Y-106600476D02*
X224158390Y-106648095D01*
X224158390Y-106648095D02*
X224729819Y-107219523D01*
X224729819Y-107219523D02*
X224729819Y-106600476D01*
X223729819Y-105743333D02*
X223729819Y-105933809D01*
X223729819Y-105933809D02*
X223777438Y-106029047D01*
X223777438Y-106029047D02*
X223825057Y-106076666D01*
X223825057Y-106076666D02*
X223967914Y-106171904D01*
X223967914Y-106171904D02*
X224158390Y-106219523D01*
X224158390Y-106219523D02*
X224539342Y-106219523D01*
X224539342Y-106219523D02*
X224634580Y-106171904D01*
X224634580Y-106171904D02*
X224682200Y-106124285D01*
X224682200Y-106124285D02*
X224729819Y-106029047D01*
X224729819Y-106029047D02*
X224729819Y-105838571D01*
X224729819Y-105838571D02*
X224682200Y-105743333D01*
X224682200Y-105743333D02*
X224634580Y-105695714D01*
X224634580Y-105695714D02*
X224539342Y-105648095D01*
X224539342Y-105648095D02*
X224301247Y-105648095D01*
X224301247Y-105648095D02*
X224206009Y-105695714D01*
X224206009Y-105695714D02*
X224158390Y-105743333D01*
X224158390Y-105743333D02*
X224110771Y-105838571D01*
X224110771Y-105838571D02*
X224110771Y-106029047D01*
X224110771Y-106029047D02*
X224158390Y-106124285D01*
X224158390Y-106124285D02*
X224206009Y-106171904D01*
X224206009Y-106171904D02*
X224301247Y-106219523D01*
X223729819Y-105029047D02*
X223729819Y-104933809D01*
X223729819Y-104933809D02*
X223777438Y-104838571D01*
X223777438Y-104838571D02*
X223825057Y-104790952D01*
X223825057Y-104790952D02*
X223920295Y-104743333D01*
X223920295Y-104743333D02*
X224110771Y-104695714D01*
X224110771Y-104695714D02*
X224348866Y-104695714D01*
X224348866Y-104695714D02*
X224539342Y-104743333D01*
X224539342Y-104743333D02*
X224634580Y-104790952D01*
X224634580Y-104790952D02*
X224682200Y-104838571D01*
X224682200Y-104838571D02*
X224729819Y-104933809D01*
X224729819Y-104933809D02*
X224729819Y-105029047D01*
X224729819Y-105029047D02*
X224682200Y-105124285D01*
X224682200Y-105124285D02*
X224634580Y-105171904D01*
X224634580Y-105171904D02*
X224539342Y-105219523D01*
X224539342Y-105219523D02*
X224348866Y-105267142D01*
X224348866Y-105267142D02*
X224110771Y-105267142D01*
X224110771Y-105267142D02*
X223920295Y-105219523D01*
X223920295Y-105219523D02*
X223825057Y-105171904D01*
X223825057Y-105171904D02*
X223777438Y-105124285D01*
X223777438Y-105124285D02*
X223729819Y-105029047D01*
X224729819Y-103505237D02*
X224063152Y-103505237D01*
X224158390Y-103505237D02*
X224110771Y-103457618D01*
X224110771Y-103457618D02*
X224063152Y-103362380D01*
X224063152Y-103362380D02*
X224063152Y-103219523D01*
X224063152Y-103219523D02*
X224110771Y-103124285D01*
X224110771Y-103124285D02*
X224206009Y-103076666D01*
X224206009Y-103076666D02*
X224729819Y-103076666D01*
X224206009Y-103076666D02*
X224110771Y-103029047D01*
X224110771Y-103029047D02*
X224063152Y-102933809D01*
X224063152Y-102933809D02*
X224063152Y-102790952D01*
X224063152Y-102790952D02*
X224110771Y-102695713D01*
X224110771Y-102695713D02*
X224206009Y-102648094D01*
X224206009Y-102648094D02*
X224729819Y-102648094D01*
X224729819Y-102171904D02*
X224063152Y-102171904D01*
X224158390Y-102171904D02*
X224110771Y-102124285D01*
X224110771Y-102124285D02*
X224063152Y-102029047D01*
X224063152Y-102029047D02*
X224063152Y-101886190D01*
X224063152Y-101886190D02*
X224110771Y-101790952D01*
X224110771Y-101790952D02*
X224206009Y-101743333D01*
X224206009Y-101743333D02*
X224729819Y-101743333D01*
X224206009Y-101743333D02*
X224110771Y-101695714D01*
X224110771Y-101695714D02*
X224063152Y-101600476D01*
X224063152Y-101600476D02*
X224063152Y-101457619D01*
X224063152Y-101457619D02*
X224110771Y-101362380D01*
X224110771Y-101362380D02*
X224206009Y-101314761D01*
X224206009Y-101314761D02*
X224729819Y-101314761D01*
D10*
X223385000Y-100711000D02*
X226011420Y-100711000D01*
X223385000Y-95885000D02*
X226011420Y-95885000D01*
X225425000Y-100711000D02*
X225425000Y-95885000D01*
X225425000Y-100711000D02*
X225425000Y-95885000D01*
X225425000Y-100711000D02*
X224838579Y-99584496D01*
X225425000Y-100711000D02*
X226011421Y-99584496D01*
X225425000Y-95885000D02*
X226011421Y-97011504D01*
X225425000Y-95885000D02*
X224838579Y-97011504D01*
D11*
X143526333Y-135925152D02*
X143526333Y-136591819D01*
X143288238Y-135544200D02*
X143050143Y-136258485D01*
X143050143Y-136258485D02*
X143669190Y-136258485D01*
X144097762Y-136544200D02*
X144097762Y-136591819D01*
X144097762Y-136591819D02*
X144050143Y-136687057D01*
X144050143Y-136687057D02*
X144002524Y-136734676D01*
X144669190Y-136020390D02*
X144573952Y-135972771D01*
X144573952Y-135972771D02*
X144526333Y-135925152D01*
X144526333Y-135925152D02*
X144478714Y-135829914D01*
X144478714Y-135829914D02*
X144478714Y-135782295D01*
X144478714Y-135782295D02*
X144526333Y-135687057D01*
X144526333Y-135687057D02*
X144573952Y-135639438D01*
X144573952Y-135639438D02*
X144669190Y-135591819D01*
X144669190Y-135591819D02*
X144859666Y-135591819D01*
X144859666Y-135591819D02*
X144954904Y-135639438D01*
X144954904Y-135639438D02*
X145002523Y-135687057D01*
X145002523Y-135687057D02*
X145050142Y-135782295D01*
X145050142Y-135782295D02*
X145050142Y-135829914D01*
X145050142Y-135829914D02*
X145002523Y-135925152D01*
X145002523Y-135925152D02*
X144954904Y-135972771D01*
X144954904Y-135972771D02*
X144859666Y-136020390D01*
X144859666Y-136020390D02*
X144669190Y-136020390D01*
X144669190Y-136020390D02*
X144573952Y-136068009D01*
X144573952Y-136068009D02*
X144526333Y-136115628D01*
X144526333Y-136115628D02*
X144478714Y-136210866D01*
X144478714Y-136210866D02*
X144478714Y-136401342D01*
X144478714Y-136401342D02*
X144526333Y-136496580D01*
X144526333Y-136496580D02*
X144573952Y-136544200D01*
X144573952Y-136544200D02*
X144669190Y-136591819D01*
X144669190Y-136591819D02*
X144859666Y-136591819D01*
X144859666Y-136591819D02*
X144954904Y-136544200D01*
X144954904Y-136544200D02*
X145002523Y-136496580D01*
X145002523Y-136496580D02*
X145050142Y-136401342D01*
X145050142Y-136401342D02*
X145050142Y-136210866D01*
X145050142Y-136210866D02*
X145002523Y-136115628D01*
X145002523Y-136115628D02*
X144954904Y-136068009D01*
X144954904Y-136068009D02*
X144859666Y-136020390D01*
X145431095Y-135687057D02*
X145478714Y-135639438D01*
X145478714Y-135639438D02*
X145573952Y-135591819D01*
X145573952Y-135591819D02*
X145812047Y-135591819D01*
X145812047Y-135591819D02*
X145907285Y-135639438D01*
X145907285Y-135639438D02*
X145954904Y-135687057D01*
X145954904Y-135687057D02*
X146002523Y-135782295D01*
X146002523Y-135782295D02*
X146002523Y-135877533D01*
X146002523Y-135877533D02*
X145954904Y-136020390D01*
X145954904Y-136020390D02*
X145383476Y-136591819D01*
X145383476Y-136591819D02*
X146002523Y-136591819D01*
X146859666Y-135591819D02*
X146669190Y-135591819D01*
X146669190Y-135591819D02*
X146573952Y-135639438D01*
X146573952Y-135639438D02*
X146526333Y-135687057D01*
X146526333Y-135687057D02*
X146431095Y-135829914D01*
X146431095Y-135829914D02*
X146383476Y-136020390D01*
X146383476Y-136020390D02*
X146383476Y-136401342D01*
X146383476Y-136401342D02*
X146431095Y-136496580D01*
X146431095Y-136496580D02*
X146478714Y-136544200D01*
X146478714Y-136544200D02*
X146573952Y-136591819D01*
X146573952Y-136591819D02*
X146764428Y-136591819D01*
X146764428Y-136591819D02*
X146859666Y-136544200D01*
X146859666Y-136544200D02*
X146907285Y-136496580D01*
X146907285Y-136496580D02*
X146954904Y-136401342D01*
X146954904Y-136401342D02*
X146954904Y-136163247D01*
X146954904Y-136163247D02*
X146907285Y-136068009D01*
X146907285Y-136068009D02*
X146859666Y-136020390D01*
X146859666Y-136020390D02*
X146764428Y-135972771D01*
X146764428Y-135972771D02*
X146573952Y-135972771D01*
X146573952Y-135972771D02*
X146478714Y-136020390D01*
X146478714Y-136020390D02*
X146431095Y-136068009D01*
X146431095Y-136068009D02*
X146383476Y-136163247D01*
X147573952Y-135591819D02*
X147669190Y-135591819D01*
X147669190Y-135591819D02*
X147764428Y-135639438D01*
X147764428Y-135639438D02*
X147812047Y-135687057D01*
X147812047Y-135687057D02*
X147859666Y-135782295D01*
X147859666Y-135782295D02*
X147907285Y-135972771D01*
X147907285Y-135972771D02*
X147907285Y-136210866D01*
X147907285Y-136210866D02*
X147859666Y-136401342D01*
X147859666Y-136401342D02*
X147812047Y-136496580D01*
X147812047Y-136496580D02*
X147764428Y-136544200D01*
X147764428Y-136544200D02*
X147669190Y-136591819D01*
X147669190Y-136591819D02*
X147573952Y-136591819D01*
X147573952Y-136591819D02*
X147478714Y-136544200D01*
X147478714Y-136544200D02*
X147431095Y-136496580D01*
X147431095Y-136496580D02*
X147383476Y-136401342D01*
X147383476Y-136401342D02*
X147335857Y-136210866D01*
X147335857Y-136210866D02*
X147335857Y-135972771D01*
X147335857Y-135972771D02*
X147383476Y-135782295D01*
X147383476Y-135782295D02*
X147431095Y-135687057D01*
X147431095Y-135687057D02*
X147478714Y-135639438D01*
X147478714Y-135639438D02*
X147573952Y-135591819D01*
X149097762Y-136591819D02*
X149097762Y-135925152D01*
X149097762Y-136020390D02*
X149145381Y-135972771D01*
X149145381Y-135972771D02*
X149240619Y-135925152D01*
X149240619Y-135925152D02*
X149383476Y-135925152D01*
X149383476Y-135925152D02*
X149478714Y-135972771D01*
X149478714Y-135972771D02*
X149526333Y-136068009D01*
X149526333Y-136068009D02*
X149526333Y-136591819D01*
X149526333Y-136068009D02*
X149573952Y-135972771D01*
X149573952Y-135972771D02*
X149669190Y-135925152D01*
X149669190Y-135925152D02*
X149812047Y-135925152D01*
X149812047Y-135925152D02*
X149907286Y-135972771D01*
X149907286Y-135972771D02*
X149954905Y-136068009D01*
X149954905Y-136068009D02*
X149954905Y-136591819D01*
X150431095Y-136591819D02*
X150431095Y-135925152D01*
X150431095Y-136020390D02*
X150478714Y-135972771D01*
X150478714Y-135972771D02*
X150573952Y-135925152D01*
X150573952Y-135925152D02*
X150716809Y-135925152D01*
X150716809Y-135925152D02*
X150812047Y-135972771D01*
X150812047Y-135972771D02*
X150859666Y-136068009D01*
X150859666Y-136068009D02*
X150859666Y-136591819D01*
X150859666Y-136068009D02*
X150907285Y-135972771D01*
X150907285Y-135972771D02*
X151002523Y-135925152D01*
X151002523Y-135925152D02*
X151145380Y-135925152D01*
X151145380Y-135925152D02*
X151240619Y-135972771D01*
X151240619Y-135972771D02*
X151288238Y-136068009D01*
X151288238Y-136068009D02*
X151288238Y-136591819D01*
D10*
X142621000Y-135120000D02*
X142621000Y-137873420D01*
X137795000Y-135120000D02*
X137795000Y-137873420D01*
X142621000Y-137287000D02*
X137795000Y-137287000D01*
X142621000Y-137287000D02*
X137795000Y-137287000D01*
X142621000Y-137287000D02*
X141494496Y-137873421D01*
X142621000Y-137287000D02*
X141494496Y-136700579D01*
X137795000Y-137287000D02*
X138921504Y-136700579D01*
X137795000Y-137287000D02*
X138921504Y-137873421D01*
D11*
X175913929Y-137671390D02*
X175818691Y-137623771D01*
X175818691Y-137623771D02*
X175771072Y-137576152D01*
X175771072Y-137576152D02*
X175723453Y-137480914D01*
X175723453Y-137480914D02*
X175723453Y-137433295D01*
X175723453Y-137433295D02*
X175771072Y-137338057D01*
X175771072Y-137338057D02*
X175818691Y-137290438D01*
X175818691Y-137290438D02*
X175913929Y-137242819D01*
X175913929Y-137242819D02*
X176104405Y-137242819D01*
X176104405Y-137242819D02*
X176199643Y-137290438D01*
X176199643Y-137290438D02*
X176247262Y-137338057D01*
X176247262Y-137338057D02*
X176294881Y-137433295D01*
X176294881Y-137433295D02*
X176294881Y-137480914D01*
X176294881Y-137480914D02*
X176247262Y-137576152D01*
X176247262Y-137576152D02*
X176199643Y-137623771D01*
X176199643Y-137623771D02*
X176104405Y-137671390D01*
X176104405Y-137671390D02*
X175913929Y-137671390D01*
X175913929Y-137671390D02*
X175818691Y-137719009D01*
X175818691Y-137719009D02*
X175771072Y-137766628D01*
X175771072Y-137766628D02*
X175723453Y-137861866D01*
X175723453Y-137861866D02*
X175723453Y-138052342D01*
X175723453Y-138052342D02*
X175771072Y-138147580D01*
X175771072Y-138147580D02*
X175818691Y-138195200D01*
X175818691Y-138195200D02*
X175913929Y-138242819D01*
X175913929Y-138242819D02*
X176104405Y-138242819D01*
X176104405Y-138242819D02*
X176199643Y-138195200D01*
X176199643Y-138195200D02*
X176247262Y-138147580D01*
X176247262Y-138147580D02*
X176294881Y-138052342D01*
X176294881Y-138052342D02*
X176294881Y-137861866D01*
X176294881Y-137861866D02*
X176247262Y-137766628D01*
X176247262Y-137766628D02*
X176199643Y-137719009D01*
X176199643Y-137719009D02*
X176104405Y-137671390D01*
X177199643Y-137242819D02*
X176723453Y-137242819D01*
X176723453Y-137242819D02*
X176675834Y-137719009D01*
X176675834Y-137719009D02*
X176723453Y-137671390D01*
X176723453Y-137671390D02*
X176818691Y-137623771D01*
X176818691Y-137623771D02*
X177056786Y-137623771D01*
X177056786Y-137623771D02*
X177152024Y-137671390D01*
X177152024Y-137671390D02*
X177199643Y-137719009D01*
X177199643Y-137719009D02*
X177247262Y-137814247D01*
X177247262Y-137814247D02*
X177247262Y-138052342D01*
X177247262Y-138052342D02*
X177199643Y-138147580D01*
X177199643Y-138147580D02*
X177152024Y-138195200D01*
X177152024Y-138195200D02*
X177056786Y-138242819D01*
X177056786Y-138242819D02*
X176818691Y-138242819D01*
X176818691Y-138242819D02*
X176723453Y-138195200D01*
X176723453Y-138195200D02*
X176675834Y-138147580D01*
X177723453Y-138195200D02*
X177723453Y-138242819D01*
X177723453Y-138242819D02*
X177675834Y-138338057D01*
X177675834Y-138338057D02*
X177628215Y-138385676D01*
X178342500Y-137242819D02*
X178437738Y-137242819D01*
X178437738Y-137242819D02*
X178532976Y-137290438D01*
X178532976Y-137290438D02*
X178580595Y-137338057D01*
X178580595Y-137338057D02*
X178628214Y-137433295D01*
X178628214Y-137433295D02*
X178675833Y-137623771D01*
X178675833Y-137623771D02*
X178675833Y-137861866D01*
X178675833Y-137861866D02*
X178628214Y-138052342D01*
X178628214Y-138052342D02*
X178580595Y-138147580D01*
X178580595Y-138147580D02*
X178532976Y-138195200D01*
X178532976Y-138195200D02*
X178437738Y-138242819D01*
X178437738Y-138242819D02*
X178342500Y-138242819D01*
X178342500Y-138242819D02*
X178247262Y-138195200D01*
X178247262Y-138195200D02*
X178199643Y-138147580D01*
X178199643Y-138147580D02*
X178152024Y-138052342D01*
X178152024Y-138052342D02*
X178104405Y-137861866D01*
X178104405Y-137861866D02*
X178104405Y-137623771D01*
X178104405Y-137623771D02*
X178152024Y-137433295D01*
X178152024Y-137433295D02*
X178199643Y-137338057D01*
X178199643Y-137338057D02*
X178247262Y-137290438D01*
X178247262Y-137290438D02*
X178342500Y-137242819D01*
X179247262Y-137671390D02*
X179152024Y-137623771D01*
X179152024Y-137623771D02*
X179104405Y-137576152D01*
X179104405Y-137576152D02*
X179056786Y-137480914D01*
X179056786Y-137480914D02*
X179056786Y-137433295D01*
X179056786Y-137433295D02*
X179104405Y-137338057D01*
X179104405Y-137338057D02*
X179152024Y-137290438D01*
X179152024Y-137290438D02*
X179247262Y-137242819D01*
X179247262Y-137242819D02*
X179437738Y-137242819D01*
X179437738Y-137242819D02*
X179532976Y-137290438D01*
X179532976Y-137290438D02*
X179580595Y-137338057D01*
X179580595Y-137338057D02*
X179628214Y-137433295D01*
X179628214Y-137433295D02*
X179628214Y-137480914D01*
X179628214Y-137480914D02*
X179580595Y-137576152D01*
X179580595Y-137576152D02*
X179532976Y-137623771D01*
X179532976Y-137623771D02*
X179437738Y-137671390D01*
X179437738Y-137671390D02*
X179247262Y-137671390D01*
X179247262Y-137671390D02*
X179152024Y-137719009D01*
X179152024Y-137719009D02*
X179104405Y-137766628D01*
X179104405Y-137766628D02*
X179056786Y-137861866D01*
X179056786Y-137861866D02*
X179056786Y-138052342D01*
X179056786Y-138052342D02*
X179104405Y-138147580D01*
X179104405Y-138147580D02*
X179152024Y-138195200D01*
X179152024Y-138195200D02*
X179247262Y-138242819D01*
X179247262Y-138242819D02*
X179437738Y-138242819D01*
X179437738Y-138242819D02*
X179532976Y-138195200D01*
X179532976Y-138195200D02*
X179580595Y-138147580D01*
X179580595Y-138147580D02*
X179628214Y-138052342D01*
X179628214Y-138052342D02*
X179628214Y-137861866D01*
X179628214Y-137861866D02*
X179580595Y-137766628D01*
X179580595Y-137766628D02*
X179532976Y-137719009D01*
X179532976Y-137719009D02*
X179437738Y-137671390D01*
X180532976Y-137242819D02*
X180056786Y-137242819D01*
X180056786Y-137242819D02*
X180009167Y-137719009D01*
X180009167Y-137719009D02*
X180056786Y-137671390D01*
X180056786Y-137671390D02*
X180152024Y-137623771D01*
X180152024Y-137623771D02*
X180390119Y-137623771D01*
X180390119Y-137623771D02*
X180485357Y-137671390D01*
X180485357Y-137671390D02*
X180532976Y-137719009D01*
X180532976Y-137719009D02*
X180580595Y-137814247D01*
X180580595Y-137814247D02*
X180580595Y-138052342D01*
X180580595Y-138052342D02*
X180532976Y-138147580D01*
X180532976Y-138147580D02*
X180485357Y-138195200D01*
X180485357Y-138195200D02*
X180390119Y-138242819D01*
X180390119Y-138242819D02*
X180152024Y-138242819D01*
X180152024Y-138242819D02*
X180056786Y-138195200D01*
X180056786Y-138195200D02*
X180009167Y-138147580D01*
X181199643Y-137242819D02*
X181294881Y-137242819D01*
X181294881Y-137242819D02*
X181390119Y-137290438D01*
X181390119Y-137290438D02*
X181437738Y-137338057D01*
X181437738Y-137338057D02*
X181485357Y-137433295D01*
X181485357Y-137433295D02*
X181532976Y-137623771D01*
X181532976Y-137623771D02*
X181532976Y-137861866D01*
X181532976Y-137861866D02*
X181485357Y-138052342D01*
X181485357Y-138052342D02*
X181437738Y-138147580D01*
X181437738Y-138147580D02*
X181390119Y-138195200D01*
X181390119Y-138195200D02*
X181294881Y-138242819D01*
X181294881Y-138242819D02*
X181199643Y-138242819D01*
X181199643Y-138242819D02*
X181104405Y-138195200D01*
X181104405Y-138195200D02*
X181056786Y-138147580D01*
X181056786Y-138147580D02*
X181009167Y-138052342D01*
X181009167Y-138052342D02*
X180961548Y-137861866D01*
X180961548Y-137861866D02*
X180961548Y-137623771D01*
X180961548Y-137623771D02*
X181009167Y-137433295D01*
X181009167Y-137433295D02*
X181056786Y-137338057D01*
X181056786Y-137338057D02*
X181104405Y-137290438D01*
X181104405Y-137290438D02*
X181199643Y-137242819D01*
X182723453Y-138242819D02*
X182723453Y-137576152D01*
X182723453Y-137671390D02*
X182771072Y-137623771D01*
X182771072Y-137623771D02*
X182866310Y-137576152D01*
X182866310Y-137576152D02*
X183009167Y-137576152D01*
X183009167Y-137576152D02*
X183104405Y-137623771D01*
X183104405Y-137623771D02*
X183152024Y-137719009D01*
X183152024Y-137719009D02*
X183152024Y-138242819D01*
X183152024Y-137719009D02*
X183199643Y-137623771D01*
X183199643Y-137623771D02*
X183294881Y-137576152D01*
X183294881Y-137576152D02*
X183437738Y-137576152D01*
X183437738Y-137576152D02*
X183532977Y-137623771D01*
X183532977Y-137623771D02*
X183580596Y-137719009D01*
X183580596Y-137719009D02*
X183580596Y-138242819D01*
X184056786Y-138242819D02*
X184056786Y-137576152D01*
X184056786Y-137671390D02*
X184104405Y-137623771D01*
X184104405Y-137623771D02*
X184199643Y-137576152D01*
X184199643Y-137576152D02*
X184342500Y-137576152D01*
X184342500Y-137576152D02*
X184437738Y-137623771D01*
X184437738Y-137623771D02*
X184485357Y-137719009D01*
X184485357Y-137719009D02*
X184485357Y-138242819D01*
X184485357Y-137719009D02*
X184532976Y-137623771D01*
X184532976Y-137623771D02*
X184628214Y-137576152D01*
X184628214Y-137576152D02*
X184771071Y-137576152D01*
X184771071Y-137576152D02*
X184866310Y-137623771D01*
X184866310Y-137623771D02*
X184913929Y-137719009D01*
X184913929Y-137719009D02*
X184913929Y-138242819D01*
D10*
X222885000Y-130294000D02*
X222885000Y-139524420D01*
X137800000Y-130294000D02*
X137800000Y-139524420D01*
X222885000Y-138938000D02*
X137800000Y-138938000D01*
X222885000Y-138938000D02*
X137800000Y-138938000D01*
X222885000Y-138938000D02*
X221758496Y-139524421D01*
X222885000Y-138938000D02*
X221758496Y-138351579D01*
X137800000Y-138938000D02*
X138926504Y-138351579D01*
X137800000Y-138938000D02*
X138926504Y-139524421D01*
D11*
X191738380Y-115810021D02*
X192445487Y-116517128D01*
X191772052Y-115843693D02*
X191805724Y-115742677D01*
X191805724Y-115742677D02*
X191940411Y-115607990D01*
X191940411Y-115607990D02*
X192041426Y-115574319D01*
X192041426Y-115574319D02*
X192108770Y-115574319D01*
X192108770Y-115574319D02*
X192209785Y-115607990D01*
X192209785Y-115607990D02*
X192411815Y-115810021D01*
X192411815Y-115810021D02*
X192445487Y-115911036D01*
X192445487Y-115911036D02*
X192445487Y-115978380D01*
X192445487Y-115978380D02*
X192411815Y-116079395D01*
X192411815Y-116079395D02*
X192277128Y-116214082D01*
X192277128Y-116214082D02*
X192176113Y-116247754D01*
X192075098Y-115001899D02*
X192512831Y-114564166D01*
X192512831Y-114564166D02*
X192546503Y-115069242D01*
X192546503Y-115069242D02*
X192647518Y-114968227D01*
X192647518Y-114968227D02*
X192748533Y-114934555D01*
X192748533Y-114934555D02*
X192815877Y-114934555D01*
X192815877Y-114934555D02*
X192916892Y-114968227D01*
X192916892Y-114968227D02*
X193085251Y-115136586D01*
X193085251Y-115136586D02*
X193118922Y-115237601D01*
X193118922Y-115237601D02*
X193118922Y-115304944D01*
X193118922Y-115304944D02*
X193085251Y-115405960D01*
X193085251Y-115405960D02*
X192883220Y-115607990D01*
X192883220Y-115607990D02*
X192782205Y-115641662D01*
X192782205Y-115641662D02*
X192714861Y-115641662D01*
X192950564Y-114126433D02*
X193017907Y-114059090D01*
X193017907Y-114059090D02*
X193118922Y-114025418D01*
X193118922Y-114025418D02*
X193186266Y-114025418D01*
X193186266Y-114025418D02*
X193287281Y-114059090D01*
X193287281Y-114059090D02*
X193455640Y-114160105D01*
X193455640Y-114160105D02*
X193623999Y-114328464D01*
X193623999Y-114328464D02*
X193725014Y-114496822D01*
X193725014Y-114496822D02*
X193758686Y-114597838D01*
X193758686Y-114597838D02*
X193758686Y-114665181D01*
X193758686Y-114665181D02*
X193725014Y-114766196D01*
X193725014Y-114766196D02*
X193657670Y-114833540D01*
X193657670Y-114833540D02*
X193556655Y-114867212D01*
X193556655Y-114867212D02*
X193489312Y-114867212D01*
X193489312Y-114867212D02*
X193388296Y-114833540D01*
X193388296Y-114833540D02*
X193219938Y-114732525D01*
X193219938Y-114732525D02*
X193051579Y-114564166D01*
X193051579Y-114564166D02*
X192950564Y-114395807D01*
X192950564Y-114395807D02*
X192916892Y-114294792D01*
X192916892Y-114294792D02*
X192916892Y-114227448D01*
X192916892Y-114227448D02*
X192950564Y-114126433D01*
X194566808Y-113924403D02*
X194162747Y-114328464D01*
X194364777Y-114126433D02*
X193657670Y-113419326D01*
X193657670Y-113419326D02*
X193691342Y-113587685D01*
X193691342Y-113587685D02*
X193691342Y-113722372D01*
X193691342Y-113722372D02*
X193657670Y-113823387D01*
X194499464Y-112577532D02*
X194162747Y-112914250D01*
X194162747Y-112914250D02*
X194465792Y-113284639D01*
X194465792Y-113284639D02*
X194465792Y-113217296D01*
X194465792Y-113217296D02*
X194499464Y-113116280D01*
X194499464Y-113116280D02*
X194667823Y-112947922D01*
X194667823Y-112947922D02*
X194768838Y-112914250D01*
X194768838Y-112914250D02*
X194836182Y-112914250D01*
X194836182Y-112914250D02*
X194937197Y-112947922D01*
X194937197Y-112947922D02*
X195105556Y-113116280D01*
X195105556Y-113116280D02*
X195139228Y-113217296D01*
X195139228Y-113217296D02*
X195139228Y-113284639D01*
X195139228Y-113284639D02*
X195105556Y-113385655D01*
X195105556Y-113385655D02*
X194937197Y-113554013D01*
X194937197Y-113554013D02*
X194836182Y-113587685D01*
X194836182Y-113587685D02*
X194768838Y-113587685D01*
X195442273Y-113183624D02*
X195981021Y-112644876D01*
X195543289Y-112005112D02*
X196183052Y-112308158D01*
X196183052Y-112308158D02*
X195880006Y-111668395D01*
X196991174Y-111500036D02*
X196587113Y-111904097D01*
X196789144Y-111702067D02*
X196082037Y-110994960D01*
X196082037Y-110994960D02*
X196115709Y-111163319D01*
X196115709Y-111163319D02*
X196115709Y-111298006D01*
X196115709Y-111298006D02*
X196082037Y-111399021D01*
X197193205Y-111432693D02*
X197731953Y-110893944D01*
X198102342Y-110321525D02*
X198068670Y-110422540D01*
X198068670Y-110422540D02*
X197933983Y-110557227D01*
X197933983Y-110557227D02*
X197832968Y-110590899D01*
X197832968Y-110590899D02*
X197765625Y-110590899D01*
X197765625Y-110590899D02*
X197664609Y-110557227D01*
X197664609Y-110557227D02*
X197462579Y-110355196D01*
X197462579Y-110355196D02*
X197428907Y-110254181D01*
X197428907Y-110254181D02*
X197428907Y-110186838D01*
X197428907Y-110186838D02*
X197462579Y-110085822D01*
X197462579Y-110085822D02*
X197597266Y-109951135D01*
X197597266Y-109951135D02*
X197698281Y-109917464D01*
X197900312Y-109648089D02*
X198506403Y-109984807D01*
X198506403Y-109984807D02*
X198304373Y-109513402D01*
X198304373Y-109513402D02*
X198775777Y-109715433D01*
X198775777Y-109715433D02*
X198439060Y-109109341D01*
X198405388Y-108671609D02*
X198843121Y-108233876D01*
X198843121Y-108233876D02*
X198876793Y-108738952D01*
X198876793Y-108738952D02*
X198977808Y-108637937D01*
X198977808Y-108637937D02*
X199078823Y-108604265D01*
X199078823Y-108604265D02*
X199146167Y-108604265D01*
X199146167Y-108604265D02*
X199247182Y-108637937D01*
X199247182Y-108637937D02*
X199415541Y-108806296D01*
X199415541Y-108806296D02*
X199449212Y-108907311D01*
X199449212Y-108907311D02*
X199449212Y-108974654D01*
X199449212Y-108974654D02*
X199415541Y-109075670D01*
X199415541Y-109075670D02*
X199213510Y-109277700D01*
X199213510Y-109277700D02*
X199112495Y-109311372D01*
X199112495Y-109311372D02*
X199045151Y-109311372D01*
X199449212Y-107627784D02*
X199314525Y-107762471D01*
X199314525Y-107762471D02*
X199280854Y-107863487D01*
X199280854Y-107863487D02*
X199280854Y-107930830D01*
X199280854Y-107930830D02*
X199314525Y-108099189D01*
X199314525Y-108099189D02*
X199415541Y-108267548D01*
X199415541Y-108267548D02*
X199684915Y-108536922D01*
X199684915Y-108536922D02*
X199785930Y-108570593D01*
X199785930Y-108570593D02*
X199853273Y-108570593D01*
X199853273Y-108570593D02*
X199954289Y-108536922D01*
X199954289Y-108536922D02*
X200088976Y-108402235D01*
X200088976Y-108402235D02*
X200122647Y-108301219D01*
X200122647Y-108301219D02*
X200122647Y-108233876D01*
X200122647Y-108233876D02*
X200088976Y-108132861D01*
X200088976Y-108132861D02*
X199920617Y-107964502D01*
X199920617Y-107964502D02*
X199819602Y-107930830D01*
X199819602Y-107930830D02*
X199752258Y-107930830D01*
X199752258Y-107930830D02*
X199651243Y-107964502D01*
X199651243Y-107964502D02*
X199516556Y-108099189D01*
X199516556Y-108099189D02*
X199482884Y-108200204D01*
X199482884Y-108200204D02*
X199482884Y-108267548D01*
X199482884Y-108267548D02*
X199516556Y-108368563D01*
X199954289Y-107122708D02*
X200021632Y-107055365D01*
X200021632Y-107055365D02*
X200122647Y-107021693D01*
X200122647Y-107021693D02*
X200189991Y-107021693D01*
X200189991Y-107021693D02*
X200291006Y-107055365D01*
X200291006Y-107055365D02*
X200459365Y-107156380D01*
X200459365Y-107156380D02*
X200627724Y-107324739D01*
X200627724Y-107324739D02*
X200728739Y-107493097D01*
X200728739Y-107493097D02*
X200762411Y-107594113D01*
X200762411Y-107594113D02*
X200762411Y-107661456D01*
X200762411Y-107661456D02*
X200728739Y-107762471D01*
X200728739Y-107762471D02*
X200661395Y-107829815D01*
X200661395Y-107829815D02*
X200560380Y-107863487D01*
X200560380Y-107863487D02*
X200493037Y-107863487D01*
X200493037Y-107863487D02*
X200392021Y-107829815D01*
X200392021Y-107829815D02*
X200223663Y-107728800D01*
X200223663Y-107728800D02*
X200055304Y-107560441D01*
X200055304Y-107560441D02*
X199954289Y-107392082D01*
X199954289Y-107392082D02*
X199920617Y-107291067D01*
X199920617Y-107291067D02*
X199920617Y-107223723D01*
X199920617Y-107223723D02*
X199954289Y-107122708D01*
X193545755Y-109533251D02*
X194118175Y-110105671D01*
X194118175Y-110105671D02*
X194219190Y-110139343D01*
X194219190Y-110139343D02*
X194286534Y-110139343D01*
X194286534Y-110139343D02*
X194387549Y-110105671D01*
X194387549Y-110105671D02*
X194522236Y-109970984D01*
X194522236Y-109970984D02*
X194555908Y-109869969D01*
X194555908Y-109869969D02*
X194555908Y-109802625D01*
X194555908Y-109802625D02*
X194522236Y-109701610D01*
X194522236Y-109701610D02*
X193949816Y-109129190D01*
X194320206Y-108893488D02*
X194320206Y-108826145D01*
X194320206Y-108826145D02*
X194353877Y-108725129D01*
X194353877Y-108725129D02*
X194522236Y-108556771D01*
X194522236Y-108556771D02*
X194623251Y-108523099D01*
X194623251Y-108523099D02*
X194690595Y-108523099D01*
X194690595Y-108523099D02*
X194791610Y-108556771D01*
X194791610Y-108556771D02*
X194858954Y-108624114D01*
X194858954Y-108624114D02*
X194926297Y-108758801D01*
X194926297Y-108758801D02*
X194926297Y-109566923D01*
X194926297Y-109566923D02*
X195364030Y-109129190D01*
X146526380Y-111492021D02*
X147233487Y-112199128D01*
X146560052Y-111525693D02*
X146593724Y-111424677D01*
X146593724Y-111424677D02*
X146728411Y-111289990D01*
X146728411Y-111289990D02*
X146829426Y-111256319D01*
X146829426Y-111256319D02*
X146896770Y-111256319D01*
X146896770Y-111256319D02*
X146997785Y-111289990D01*
X146997785Y-111289990D02*
X147199815Y-111492021D01*
X147199815Y-111492021D02*
X147233487Y-111593036D01*
X147233487Y-111593036D02*
X147233487Y-111660380D01*
X147233487Y-111660380D02*
X147199815Y-111761395D01*
X147199815Y-111761395D02*
X147065128Y-111896082D01*
X147065128Y-111896082D02*
X146964113Y-111929754D01*
X146863098Y-110683899D02*
X147300831Y-110246166D01*
X147300831Y-110246166D02*
X147334503Y-110751242D01*
X147334503Y-110751242D02*
X147435518Y-110650227D01*
X147435518Y-110650227D02*
X147536533Y-110616555D01*
X147536533Y-110616555D02*
X147603877Y-110616555D01*
X147603877Y-110616555D02*
X147704892Y-110650227D01*
X147704892Y-110650227D02*
X147873251Y-110818586D01*
X147873251Y-110818586D02*
X147906922Y-110919601D01*
X147906922Y-110919601D02*
X147906922Y-110986944D01*
X147906922Y-110986944D02*
X147873251Y-111087960D01*
X147873251Y-111087960D02*
X147671220Y-111289990D01*
X147671220Y-111289990D02*
X147570205Y-111323662D01*
X147570205Y-111323662D02*
X147502861Y-111323662D01*
X147738564Y-109808433D02*
X147805907Y-109741090D01*
X147805907Y-109741090D02*
X147906922Y-109707418D01*
X147906922Y-109707418D02*
X147974266Y-109707418D01*
X147974266Y-109707418D02*
X148075281Y-109741090D01*
X148075281Y-109741090D02*
X148243640Y-109842105D01*
X148243640Y-109842105D02*
X148411999Y-110010464D01*
X148411999Y-110010464D02*
X148513014Y-110178822D01*
X148513014Y-110178822D02*
X148546686Y-110279838D01*
X148546686Y-110279838D02*
X148546686Y-110347181D01*
X148546686Y-110347181D02*
X148513014Y-110448196D01*
X148513014Y-110448196D02*
X148445670Y-110515540D01*
X148445670Y-110515540D02*
X148344655Y-110549212D01*
X148344655Y-110549212D02*
X148277312Y-110549212D01*
X148277312Y-110549212D02*
X148176296Y-110515540D01*
X148176296Y-110515540D02*
X148007938Y-110414525D01*
X148007938Y-110414525D02*
X147839579Y-110246166D01*
X147839579Y-110246166D02*
X147738564Y-110077807D01*
X147738564Y-110077807D02*
X147704892Y-109976792D01*
X147704892Y-109976792D02*
X147704892Y-109909448D01*
X147704892Y-109909448D02*
X147738564Y-109808433D01*
X149354808Y-109606403D02*
X148950747Y-110010464D01*
X149152777Y-109808433D02*
X148445670Y-109101326D01*
X148445670Y-109101326D02*
X148479342Y-109269685D01*
X148479342Y-109269685D02*
X148479342Y-109404372D01*
X148479342Y-109404372D02*
X148445670Y-109505387D01*
X149287464Y-108259532D02*
X148950747Y-108596250D01*
X148950747Y-108596250D02*
X149253792Y-108966639D01*
X149253792Y-108966639D02*
X149253792Y-108899296D01*
X149253792Y-108899296D02*
X149287464Y-108798280D01*
X149287464Y-108798280D02*
X149455823Y-108629922D01*
X149455823Y-108629922D02*
X149556838Y-108596250D01*
X149556838Y-108596250D02*
X149624182Y-108596250D01*
X149624182Y-108596250D02*
X149725197Y-108629922D01*
X149725197Y-108629922D02*
X149893556Y-108798280D01*
X149893556Y-108798280D02*
X149927228Y-108899296D01*
X149927228Y-108899296D02*
X149927228Y-108966639D01*
X149927228Y-108966639D02*
X149893556Y-109067655D01*
X149893556Y-109067655D02*
X149725197Y-109236013D01*
X149725197Y-109236013D02*
X149624182Y-109269685D01*
X149624182Y-109269685D02*
X149556838Y-109269685D01*
X150230273Y-108865624D02*
X150769021Y-108326876D01*
X150331289Y-107687112D02*
X150971052Y-107990158D01*
X150971052Y-107990158D02*
X150668006Y-107350395D01*
X151779174Y-107182036D02*
X151375113Y-107586097D01*
X151577144Y-107384067D02*
X150870037Y-106676960D01*
X150870037Y-106676960D02*
X150903709Y-106845319D01*
X150903709Y-106845319D02*
X150903709Y-106980006D01*
X150903709Y-106980006D02*
X150870037Y-107081021D01*
X151981205Y-107114693D02*
X152519953Y-106575944D01*
X152890342Y-106003525D02*
X152856670Y-106104540D01*
X152856670Y-106104540D02*
X152721983Y-106239227D01*
X152721983Y-106239227D02*
X152620968Y-106272899D01*
X152620968Y-106272899D02*
X152553625Y-106272899D01*
X152553625Y-106272899D02*
X152452609Y-106239227D01*
X152452609Y-106239227D02*
X152250579Y-106037196D01*
X152250579Y-106037196D02*
X152216907Y-105936181D01*
X152216907Y-105936181D02*
X152216907Y-105868838D01*
X152216907Y-105868838D02*
X152250579Y-105767822D01*
X152250579Y-105767822D02*
X152385266Y-105633135D01*
X152385266Y-105633135D02*
X152486281Y-105599464D01*
X152688312Y-105330089D02*
X153294403Y-105666807D01*
X153294403Y-105666807D02*
X153092373Y-105195402D01*
X153092373Y-105195402D02*
X153563777Y-105397433D01*
X153563777Y-105397433D02*
X153227060Y-104791341D01*
X153193388Y-104353609D02*
X153631121Y-103915876D01*
X153631121Y-103915876D02*
X153664793Y-104420952D01*
X153664793Y-104420952D02*
X153765808Y-104319937D01*
X153765808Y-104319937D02*
X153866823Y-104286265D01*
X153866823Y-104286265D02*
X153934167Y-104286265D01*
X153934167Y-104286265D02*
X154035182Y-104319937D01*
X154035182Y-104319937D02*
X154203541Y-104488296D01*
X154203541Y-104488296D02*
X154237212Y-104589311D01*
X154237212Y-104589311D02*
X154237212Y-104656654D01*
X154237212Y-104656654D02*
X154203541Y-104757670D01*
X154203541Y-104757670D02*
X154001510Y-104959700D01*
X154001510Y-104959700D02*
X153900495Y-104993372D01*
X153900495Y-104993372D02*
X153833151Y-104993372D01*
X154237212Y-103309784D02*
X154102525Y-103444471D01*
X154102525Y-103444471D02*
X154068854Y-103545487D01*
X154068854Y-103545487D02*
X154068854Y-103612830D01*
X154068854Y-103612830D02*
X154102525Y-103781189D01*
X154102525Y-103781189D02*
X154203541Y-103949548D01*
X154203541Y-103949548D02*
X154472915Y-104218922D01*
X154472915Y-104218922D02*
X154573930Y-104252593D01*
X154573930Y-104252593D02*
X154641273Y-104252593D01*
X154641273Y-104252593D02*
X154742289Y-104218922D01*
X154742289Y-104218922D02*
X154876976Y-104084235D01*
X154876976Y-104084235D02*
X154910647Y-103983219D01*
X154910647Y-103983219D02*
X154910647Y-103915876D01*
X154910647Y-103915876D02*
X154876976Y-103814861D01*
X154876976Y-103814861D02*
X154708617Y-103646502D01*
X154708617Y-103646502D02*
X154607602Y-103612830D01*
X154607602Y-103612830D02*
X154540258Y-103612830D01*
X154540258Y-103612830D02*
X154439243Y-103646502D01*
X154439243Y-103646502D02*
X154304556Y-103781189D01*
X154304556Y-103781189D02*
X154270884Y-103882204D01*
X154270884Y-103882204D02*
X154270884Y-103949548D01*
X154270884Y-103949548D02*
X154304556Y-104050563D01*
X154742289Y-102804708D02*
X154809632Y-102737365D01*
X154809632Y-102737365D02*
X154910647Y-102703693D01*
X154910647Y-102703693D02*
X154977991Y-102703693D01*
X154977991Y-102703693D02*
X155079006Y-102737365D01*
X155079006Y-102737365D02*
X155247365Y-102838380D01*
X155247365Y-102838380D02*
X155415724Y-103006739D01*
X155415724Y-103006739D02*
X155516739Y-103175097D01*
X155516739Y-103175097D02*
X155550411Y-103276113D01*
X155550411Y-103276113D02*
X155550411Y-103343456D01*
X155550411Y-103343456D02*
X155516739Y-103444471D01*
X155516739Y-103444471D02*
X155449395Y-103511815D01*
X155449395Y-103511815D02*
X155348380Y-103545487D01*
X155348380Y-103545487D02*
X155281037Y-103545487D01*
X155281037Y-103545487D02*
X155180021Y-103511815D01*
X155180021Y-103511815D02*
X155011663Y-103410800D01*
X155011663Y-103410800D02*
X154843304Y-103242441D01*
X154843304Y-103242441D02*
X154742289Y-103074082D01*
X154742289Y-103074082D02*
X154708617Y-102973067D01*
X154708617Y-102973067D02*
X154708617Y-102905723D01*
X154708617Y-102905723D02*
X154742289Y-102804708D01*
X151637255Y-109533251D02*
X152209675Y-110105671D01*
X152209675Y-110105671D02*
X152310690Y-110139343D01*
X152310690Y-110139343D02*
X152378034Y-110139343D01*
X152378034Y-110139343D02*
X152479049Y-110105671D01*
X152479049Y-110105671D02*
X152613736Y-109970984D01*
X152613736Y-109970984D02*
X152647408Y-109869969D01*
X152647408Y-109869969D02*
X152647408Y-109802625D01*
X152647408Y-109802625D02*
X152613736Y-109701610D01*
X152613736Y-109701610D02*
X152041316Y-109129190D01*
X152916782Y-108725129D02*
X153388186Y-109196534D01*
X152479049Y-108624114D02*
X152815767Y-109297549D01*
X152815767Y-109297549D02*
X153253499Y-108859816D01*
X179522523Y-118056819D02*
X178951095Y-118056819D01*
X179236809Y-118056819D02*
X179236809Y-117056819D01*
X179236809Y-117056819D02*
X179141571Y-117199676D01*
X179141571Y-117199676D02*
X179046333Y-117294914D01*
X179046333Y-117294914D02*
X178951095Y-117342533D01*
X180141571Y-117056819D02*
X180236809Y-117056819D01*
X180236809Y-117056819D02*
X180332047Y-117104438D01*
X180332047Y-117104438D02*
X180379666Y-117152057D01*
X180379666Y-117152057D02*
X180427285Y-117247295D01*
X180427285Y-117247295D02*
X180474904Y-117437771D01*
X180474904Y-117437771D02*
X180474904Y-117675866D01*
X180474904Y-117675866D02*
X180427285Y-117866342D01*
X180427285Y-117866342D02*
X180379666Y-117961580D01*
X180379666Y-117961580D02*
X180332047Y-118009200D01*
X180332047Y-118009200D02*
X180236809Y-118056819D01*
X180236809Y-118056819D02*
X180141571Y-118056819D01*
X180141571Y-118056819D02*
X180046333Y-118009200D01*
X180046333Y-118009200D02*
X179998714Y-117961580D01*
X179998714Y-117961580D02*
X179951095Y-117866342D01*
X179951095Y-117866342D02*
X179903476Y-117675866D01*
X179903476Y-117675866D02*
X179903476Y-117437771D01*
X179903476Y-117437771D02*
X179951095Y-117247295D01*
X179951095Y-117247295D02*
X179998714Y-117152057D01*
X179998714Y-117152057D02*
X180046333Y-117104438D01*
X180046333Y-117104438D02*
X180141571Y-117056819D01*
X180903476Y-118056819D02*
X180903476Y-117056819D01*
X181474904Y-118056819D02*
X181046333Y-117485390D01*
X181474904Y-117056819D02*
X180903476Y-117628247D01*
X179744761Y-116024819D02*
X179411428Y-115548628D01*
X179173333Y-116024819D02*
X179173333Y-115024819D01*
X179173333Y-115024819D02*
X179554285Y-115024819D01*
X179554285Y-115024819D02*
X179649523Y-115072438D01*
X179649523Y-115072438D02*
X179697142Y-115120057D01*
X179697142Y-115120057D02*
X179744761Y-115215295D01*
X179744761Y-115215295D02*
X179744761Y-115358152D01*
X179744761Y-115358152D02*
X179697142Y-115453390D01*
X179697142Y-115453390D02*
X179649523Y-115501009D01*
X179649523Y-115501009D02*
X179554285Y-115548628D01*
X179554285Y-115548628D02*
X179173333Y-115548628D01*
X180030476Y-115024819D02*
X180363809Y-116024819D01*
X180363809Y-116024819D02*
X180697142Y-115024819D01*
X181554285Y-116024819D02*
X180982857Y-116024819D01*
X181268571Y-116024819D02*
X181268571Y-115024819D01*
X181268571Y-115024819D02*
X181173333Y-115167676D01*
X181173333Y-115167676D02*
X181078095Y-115262914D01*
X181078095Y-115262914D02*
X180982857Y-115310533D01*
D10*
%TO.C,U2*%
X195817044Y-106236916D02*
X196715069Y-106236916D01*
X190877903Y-111176057D02*
X195817044Y-106236916D01*
X196715069Y-106236916D02*
X198062108Y-107583954D01*
X198062108Y-107583954D02*
X192673954Y-112972108D01*
X192673954Y-112972108D02*
X190877903Y-111176057D01*
X205867000Y-116205000D02*
G75*
G03*
X205867000Y-116205000I-4572000J0D01*
G01*
%TO.C,U4*%
X153908544Y-106236916D02*
X154806569Y-106236916D01*
X148969403Y-111176057D02*
X153908544Y-106236916D01*
X154806569Y-106236916D02*
X156153608Y-107583954D01*
X156153608Y-107583954D02*
X150765454Y-112972108D01*
X150765454Y-112972108D02*
X148969403Y-111176057D01*
X163958500Y-116205000D02*
G75*
G03*
X163958500Y-116205000I-4572000J0D01*
G01*
%TO.C,RV1*%
X175640000Y-132830000D02*
X175640000Y-97830000D01*
X185040000Y-132830000D02*
X175640000Y-132830000D01*
X185040000Y-132830000D02*
X185040000Y-97830000D01*
X185040000Y-97830000D02*
X175640000Y-97830000D01*
%TD*%
M02*
