%TF.GenerationSoftware,KiCad,Pcbnew,(6.0.8)*%
%TF.CreationDate,2022-11-01T17:44:15+01:00*%
%TF.ProjectId,BURC_16SwitchEncoder_JRFormat,42555243-5f31-4365-9377-69746368456e,v1.0*%
%TF.SameCoordinates,Original*%
%TF.FileFunction,Soldermask,Top*%
%TF.FilePolarity,Negative*%
%FSLAX46Y46*%
G04 Gerber Fmt 4.6, Leading zero omitted, Abs format (unit mm)*
G04 Created by KiCad (PCBNEW (6.0.8)) date 2022-11-01 17:44:15*
%MOMM*%
%LPD*%
G01*
G04 APERTURE LIST*
%ADD10R,1.700000X1.700000*%
%ADD11O,1.700000X1.700000*%
%ADD12O,3.000000X2.500000*%
%ADD13C,2.500000*%
G04 APERTURE END LIST*
D10*
%TO.C,J4*%
X185420000Y-119380000D03*
D11*
X182880000Y-119380000D03*
X180340000Y-119380000D03*
X177800000Y-119380000D03*
%TD*%
D12*
%TO.C,SW12*%
X162560000Y-109220000D03*
X162560000Y-114300000D03*
%TD*%
D13*
%TO.C,REF\u002A\u002A*%
X167005000Y-131445000D03*
%TD*%
%TO.C,REF\u002A\u002A*%
X129540000Y-131445000D03*
%TD*%
D12*
%TO.C,SW7*%
X153035000Y-96520000D03*
X153035000Y-101600000D03*
%TD*%
%TO.C,SW5*%
X133985000Y-96520000D03*
X133985000Y-101600000D03*
%TD*%
D10*
%TO.C,J2*%
X180340000Y-129540000D03*
D11*
X182880000Y-129540000D03*
X185420000Y-129540000D03*
%TD*%
D12*
%TO.C,SW13*%
X133985000Y-121920000D03*
X133985000Y-127000000D03*
%TD*%
%TO.C,SW10*%
X143510000Y-109220000D03*
X143510000Y-114300000D03*
%TD*%
%TO.C,SW1*%
X133985000Y-83820000D03*
X133985000Y-88900000D03*
%TD*%
%TO.C,SW3*%
X153035000Y-83820000D03*
X153035000Y-88900000D03*
%TD*%
%TO.C,SW16*%
X162560000Y-121920000D03*
X162560000Y-127000000D03*
%TD*%
%TO.C,SW8*%
X162560000Y-96520000D03*
X162560000Y-101600000D03*
%TD*%
%TO.C,SW9*%
X133985000Y-109220000D03*
X133985000Y-114300000D03*
%TD*%
%TO.C,SW2*%
X143510000Y-83820000D03*
X143510000Y-88900000D03*
%TD*%
D13*
%TO.C,REF\u002A\u002A*%
X167005000Y-78740000D03*
%TD*%
%TO.C,REF\u002A\u002A*%
X130175000Y-78740000D03*
%TD*%
D12*
%TO.C,SW4*%
X162560000Y-83820000D03*
X162560000Y-88900000D03*
%TD*%
%TO.C,SW15*%
X153035000Y-121920000D03*
X153035000Y-127000000D03*
%TD*%
%TO.C,SW6*%
X143510000Y-96520000D03*
X143510000Y-101600000D03*
%TD*%
%TO.C,SW14*%
X143510000Y-121920000D03*
X143510000Y-127000000D03*
%TD*%
%TO.C,SW11*%
X153035000Y-109220000D03*
X153035000Y-114300000D03*
%TD*%
M02*
