%TF.GenerationSoftware,KiCad,Pcbnew,(6.0.8)*%
%TF.CreationDate,2022-11-01T17:44:22+01:00*%
%TF.ProjectId,BURC_16SwitchEncoder_JRFormat,42555243-5f31-4365-9377-69746368456e,v1.0*%
%TF.SameCoordinates,Original*%
%TF.FileFunction,Drillmap*%
%TF.FilePolarity,Positive*%
%FSLAX45Y45*%
G04 Gerber Fmt 4.5, Leading zero omitted, Abs format (unit mm)*
G04 Created by KiCad (PCBNEW (6.0.8)) date 2022-11-01 17:44:22*
%MOMM*%
%LPD*%
G01*
G04 APERTURE LIST*
%ADD10C,0.050000*%
%ADD11C,0.100000*%
%ADD12C,0.200000*%
G04 APERTURE END LIST*
D10*
X16920000Y-13350000D02*
X16920000Y-11580000D01*
X13085000Y-10200000D02*
X13085000Y-11580000D01*
D11*
X13085000Y-10000000D02*
X13085000Y-9476500D01*
D10*
X12800000Y-13350000D02*
X16920000Y-13350000D01*
X13085000Y-11580000D02*
X12800000Y-11580000D01*
X16635000Y-9476500D02*
X16921261Y-9476500D01*
X16920000Y-11580000D02*
X16635000Y-11580000D01*
X16635000Y-10000000D02*
X16450000Y-10000000D01*
D11*
X13270000Y-10200000D02*
G75*
G03*
X13270000Y-10000000I0J100000D01*
G01*
D10*
X16450000Y-10200000D02*
X16635000Y-10200000D01*
X16635000Y-10000000D02*
X16635000Y-9476500D01*
D11*
X16921261Y-7670000D02*
X12798739Y-7670000D01*
X16921261Y-9476500D02*
X16921261Y-7670000D01*
X13085000Y-10200000D02*
X13270000Y-10200000D01*
X12798739Y-7670000D02*
X12798739Y-9476500D01*
D10*
X16635000Y-10200000D02*
X16635000Y-11580000D01*
X12800000Y-11580000D02*
X12800000Y-13350000D01*
D11*
X13270000Y-10000000D02*
X13085000Y-10000000D01*
X12798739Y-9476500D02*
X13085000Y-9476500D01*
D10*
X16450000Y-10000000D02*
G75*
G03*
X16450000Y-10200000I0J-100000D01*
G01*
D12*
D11*
X17730000Y-11888000D02*
X17830000Y-11988000D01*
X17830000Y-11888000D02*
X17730000Y-11988000D01*
X17984000Y-11888000D02*
X18084000Y-11988000D01*
X18084000Y-11888000D02*
X17984000Y-11988000D01*
X17984000Y-12904000D02*
X18084000Y-13004000D01*
X18084000Y-12904000D02*
X17984000Y-13004000D01*
X18238000Y-11888000D02*
X18338000Y-11988000D01*
X18338000Y-11888000D02*
X18238000Y-11988000D01*
X18238000Y-12904000D02*
X18338000Y-13004000D01*
X18338000Y-12904000D02*
X18238000Y-13004000D01*
X18492000Y-11888000D02*
X18592000Y-11988000D01*
X18592000Y-11888000D02*
X18492000Y-11988000D01*
X18492000Y-12904000D02*
X18592000Y-13004000D01*
X18592000Y-12904000D02*
X18492000Y-13004000D01*
D12*
X13498500Y-8382000D02*
G75*
G03*
X13498500Y-8382000I-100000J0D01*
G01*
X13498500Y-8890000D02*
G75*
G03*
X13498500Y-8890000I-100000J0D01*
G01*
X13498500Y-9652000D02*
G75*
G03*
X13498500Y-9652000I-100000J0D01*
G01*
X13498500Y-10160000D02*
G75*
G03*
X13498500Y-10160000I-100000J0D01*
G01*
X13498500Y-10922000D02*
G75*
G03*
X13498500Y-10922000I-100000J0D01*
G01*
X13498500Y-11430000D02*
G75*
G03*
X13498500Y-11430000I-100000J0D01*
G01*
X13498500Y-12192000D02*
G75*
G03*
X13498500Y-12192000I-100000J0D01*
G01*
X13498500Y-12700000D02*
G75*
G03*
X13498500Y-12700000I-100000J0D01*
G01*
X14451000Y-8382000D02*
G75*
G03*
X14451000Y-8382000I-100000J0D01*
G01*
X14451000Y-8890000D02*
G75*
G03*
X14451000Y-8890000I-100000J0D01*
G01*
X14451000Y-9652000D02*
G75*
G03*
X14451000Y-9652000I-100000J0D01*
G01*
X14451000Y-10160000D02*
G75*
G03*
X14451000Y-10160000I-100000J0D01*
G01*
X14451000Y-10922000D02*
G75*
G03*
X14451000Y-10922000I-100000J0D01*
G01*
X14451000Y-11430000D02*
G75*
G03*
X14451000Y-11430000I-100000J0D01*
G01*
X14451000Y-12192000D02*
G75*
G03*
X14451000Y-12192000I-100000J0D01*
G01*
X14451000Y-12700000D02*
G75*
G03*
X14451000Y-12700000I-100000J0D01*
G01*
X15403500Y-8382000D02*
G75*
G03*
X15403500Y-8382000I-100000J0D01*
G01*
X15403500Y-8890000D02*
G75*
G03*
X15403500Y-8890000I-100000J0D01*
G01*
X15403500Y-9652000D02*
G75*
G03*
X15403500Y-9652000I-100000J0D01*
G01*
X15403500Y-10160000D02*
G75*
G03*
X15403500Y-10160000I-100000J0D01*
G01*
X15403500Y-10922000D02*
G75*
G03*
X15403500Y-10922000I-100000J0D01*
G01*
X15403500Y-11430000D02*
G75*
G03*
X15403500Y-11430000I-100000J0D01*
G01*
X15403500Y-12192000D02*
G75*
G03*
X15403500Y-12192000I-100000J0D01*
G01*
X15403500Y-12700000D02*
G75*
G03*
X15403500Y-12700000I-100000J0D01*
G01*
X16356000Y-8382000D02*
G75*
G03*
X16356000Y-8382000I-100000J0D01*
G01*
X16356000Y-8890000D02*
G75*
G03*
X16356000Y-8890000I-100000J0D01*
G01*
X16356000Y-9652000D02*
G75*
G03*
X16356000Y-9652000I-100000J0D01*
G01*
X16356000Y-10160000D02*
G75*
G03*
X16356000Y-10160000I-100000J0D01*
G01*
X16356000Y-10922000D02*
G75*
G03*
X16356000Y-10922000I-100000J0D01*
G01*
X16356000Y-11430000D02*
G75*
G03*
X16356000Y-11430000I-100000J0D01*
G01*
X16356000Y-12192000D02*
G75*
G03*
X16356000Y-12192000I-100000J0D01*
G01*
X16356000Y-12700000D02*
G75*
G03*
X16356000Y-12700000I-100000J0D01*
G01*
X13051358Y-13662976D02*
X13051358Y-13462976D01*
X13098977Y-13462976D01*
X13127549Y-13472500D01*
X13146596Y-13491548D01*
X13156120Y-13510595D01*
X13165644Y-13548690D01*
X13165644Y-13577262D01*
X13156120Y-13615357D01*
X13146596Y-13634405D01*
X13127549Y-13653452D01*
X13098977Y-13662976D01*
X13051358Y-13662976D01*
X13251358Y-13662976D02*
X13251358Y-13529643D01*
X13251358Y-13567738D02*
X13260882Y-13548690D01*
X13270406Y-13539167D01*
X13289453Y-13529643D01*
X13308501Y-13529643D01*
X13375168Y-13662976D02*
X13375168Y-13529643D01*
X13375168Y-13462976D02*
X13365644Y-13472500D01*
X13375168Y-13482024D01*
X13384691Y-13472500D01*
X13375168Y-13462976D01*
X13375168Y-13482024D01*
X13498977Y-13662976D02*
X13479930Y-13653452D01*
X13470406Y-13634405D01*
X13470406Y-13462976D01*
X13603739Y-13662976D02*
X13584691Y-13653452D01*
X13575168Y-13634405D01*
X13575168Y-13462976D01*
X13832311Y-13662976D02*
X13832311Y-13462976D01*
X13898977Y-13605833D01*
X13965644Y-13462976D01*
X13965644Y-13662976D01*
X14146596Y-13662976D02*
X14146596Y-13558214D01*
X14137072Y-13539167D01*
X14118025Y-13529643D01*
X14079930Y-13529643D01*
X14060882Y-13539167D01*
X14146596Y-13653452D02*
X14127549Y-13662976D01*
X14079930Y-13662976D01*
X14060882Y-13653452D01*
X14051358Y-13634405D01*
X14051358Y-13615357D01*
X14060882Y-13596309D01*
X14079930Y-13586786D01*
X14127549Y-13586786D01*
X14146596Y-13577262D01*
X14241834Y-13529643D02*
X14241834Y-13729643D01*
X14241834Y-13539167D02*
X14260882Y-13529643D01*
X14298977Y-13529643D01*
X14318025Y-13539167D01*
X14327549Y-13548690D01*
X14337072Y-13567738D01*
X14337072Y-13624881D01*
X14327549Y-13643928D01*
X14318025Y-13653452D01*
X14298977Y-13662976D01*
X14260882Y-13662976D01*
X14241834Y-13653452D01*
X14422787Y-13643928D02*
X14432311Y-13653452D01*
X14422787Y-13662976D01*
X14413263Y-13653452D01*
X14422787Y-13643928D01*
X14422787Y-13662976D01*
X14422787Y-13539167D02*
X14432311Y-13548690D01*
X14422787Y-13558214D01*
X14413263Y-13548690D01*
X14422787Y-13539167D01*
X14422787Y-13558214D01*
D11*
X12693739Y-13942500D02*
X12793739Y-14042500D01*
X12793739Y-13942500D02*
X12693739Y-14042500D01*
D12*
X13156120Y-14082976D02*
X13041834Y-14082976D01*
X13098977Y-14082976D02*
X13098977Y-13882976D01*
X13079930Y-13911548D01*
X13060882Y-13930595D01*
X13041834Y-13940119D01*
X13241834Y-14063928D02*
X13251358Y-14073452D01*
X13241834Y-14082976D01*
X13232311Y-14073452D01*
X13241834Y-14063928D01*
X13241834Y-14082976D01*
X13375168Y-13882976D02*
X13394215Y-13882976D01*
X13413263Y-13892500D01*
X13422787Y-13902024D01*
X13432311Y-13921071D01*
X13441834Y-13959167D01*
X13441834Y-14006786D01*
X13432311Y-14044881D01*
X13422787Y-14063928D01*
X13413263Y-14073452D01*
X13394215Y-14082976D01*
X13375168Y-14082976D01*
X13356120Y-14073452D01*
X13346596Y-14063928D01*
X13337072Y-14044881D01*
X13327549Y-14006786D01*
X13327549Y-13959167D01*
X13337072Y-13921071D01*
X13346596Y-13902024D01*
X13356120Y-13892500D01*
X13375168Y-13882976D01*
X13565644Y-13882976D02*
X13584691Y-13882976D01*
X13603739Y-13892500D01*
X13613263Y-13902024D01*
X13622787Y-13921071D01*
X13632311Y-13959167D01*
X13632311Y-14006786D01*
X13622787Y-14044881D01*
X13613263Y-14063928D01*
X13603739Y-14073452D01*
X13584691Y-14082976D01*
X13565644Y-14082976D01*
X13546596Y-14073452D01*
X13537072Y-14063928D01*
X13527549Y-14044881D01*
X13518025Y-14006786D01*
X13518025Y-13959167D01*
X13527549Y-13921071D01*
X13537072Y-13902024D01*
X13546596Y-13892500D01*
X13565644Y-13882976D01*
X13756120Y-13882976D02*
X13775168Y-13882976D01*
X13794215Y-13892500D01*
X13803739Y-13902024D01*
X13813263Y-13921071D01*
X13822787Y-13959167D01*
X13822787Y-14006786D01*
X13813263Y-14044881D01*
X13803739Y-14063928D01*
X13794215Y-14073452D01*
X13775168Y-14082976D01*
X13756120Y-14082976D01*
X13737072Y-14073452D01*
X13727549Y-14063928D01*
X13718025Y-14044881D01*
X13708501Y-14006786D01*
X13708501Y-13959167D01*
X13718025Y-13921071D01*
X13727549Y-13902024D01*
X13737072Y-13892500D01*
X13756120Y-13882976D01*
X13908501Y-14082976D02*
X13908501Y-13949643D01*
X13908501Y-13968690D02*
X13918025Y-13959167D01*
X13937072Y-13949643D01*
X13965644Y-13949643D01*
X13984691Y-13959167D01*
X13994215Y-13978214D01*
X13994215Y-14082976D01*
X13994215Y-13978214D02*
X14003739Y-13959167D01*
X14022787Y-13949643D01*
X14051358Y-13949643D01*
X14070406Y-13959167D01*
X14079930Y-13978214D01*
X14079930Y-14082976D01*
X14175168Y-14082976D02*
X14175168Y-13949643D01*
X14175168Y-13968690D02*
X14184691Y-13959167D01*
X14203739Y-13949643D01*
X14232311Y-13949643D01*
X14251358Y-13959167D01*
X14260882Y-13978214D01*
X14260882Y-14082976D01*
X14260882Y-13978214D02*
X14270406Y-13959167D01*
X14289453Y-13949643D01*
X14318025Y-13949643D01*
X14337072Y-13959167D01*
X14346596Y-13978214D01*
X14346596Y-14082976D01*
X14737072Y-13873452D02*
X14565644Y-14130595D01*
X14994215Y-13882976D02*
X15013263Y-13882976D01*
X15032311Y-13892500D01*
X15041834Y-13902024D01*
X15051358Y-13921071D01*
X15060882Y-13959167D01*
X15060882Y-14006786D01*
X15051358Y-14044881D01*
X15041834Y-14063928D01*
X15032311Y-14073452D01*
X15013263Y-14082976D01*
X14994215Y-14082976D01*
X14975168Y-14073452D01*
X14965644Y-14063928D01*
X14956120Y-14044881D01*
X14946596Y-14006786D01*
X14946596Y-13959167D01*
X14956120Y-13921071D01*
X14965644Y-13902024D01*
X14975168Y-13892500D01*
X14994215Y-13882976D01*
X15146596Y-14063928D02*
X15156120Y-14073452D01*
X15146596Y-14082976D01*
X15137072Y-14073452D01*
X15146596Y-14063928D01*
X15146596Y-14082976D01*
X15279930Y-13882976D02*
X15298977Y-13882976D01*
X15318025Y-13892500D01*
X15327549Y-13902024D01*
X15337072Y-13921071D01*
X15346596Y-13959167D01*
X15346596Y-14006786D01*
X15337072Y-14044881D01*
X15327549Y-14063928D01*
X15318025Y-14073452D01*
X15298977Y-14082976D01*
X15279930Y-14082976D01*
X15260882Y-14073452D01*
X15251358Y-14063928D01*
X15241834Y-14044881D01*
X15232311Y-14006786D01*
X15232311Y-13959167D01*
X15241834Y-13921071D01*
X15251358Y-13902024D01*
X15260882Y-13892500D01*
X15279930Y-13882976D01*
X15413263Y-13882976D02*
X15537072Y-13882976D01*
X15470406Y-13959167D01*
X15498977Y-13959167D01*
X15518025Y-13968690D01*
X15527549Y-13978214D01*
X15537072Y-13997262D01*
X15537072Y-14044881D01*
X15527549Y-14063928D01*
X15518025Y-14073452D01*
X15498977Y-14082976D01*
X15441834Y-14082976D01*
X15422787Y-14073452D01*
X15413263Y-14063928D01*
X15632311Y-14082976D02*
X15670406Y-14082976D01*
X15689453Y-14073452D01*
X15698977Y-14063928D01*
X15718025Y-14035357D01*
X15727549Y-13997262D01*
X15727549Y-13921071D01*
X15718025Y-13902024D01*
X15708501Y-13892500D01*
X15689453Y-13882976D01*
X15651358Y-13882976D01*
X15632311Y-13892500D01*
X15622787Y-13902024D01*
X15613263Y-13921071D01*
X15613263Y-13968690D01*
X15622787Y-13987738D01*
X15632311Y-13997262D01*
X15651358Y-14006786D01*
X15689453Y-14006786D01*
X15708501Y-13997262D01*
X15718025Y-13987738D01*
X15727549Y-13968690D01*
X15898977Y-13949643D02*
X15898977Y-14082976D01*
X15851358Y-13873452D02*
X15803739Y-14016309D01*
X15927549Y-14016309D01*
X15994215Y-13882976D02*
X15994215Y-13921071D01*
X16070406Y-13882976D02*
X16070406Y-13921071D01*
X16365644Y-14159167D02*
X16356120Y-14149643D01*
X16337072Y-14121071D01*
X16327549Y-14102024D01*
X16318025Y-14073452D01*
X16308501Y-14025833D01*
X16308501Y-13987738D01*
X16318025Y-13940119D01*
X16327549Y-13911548D01*
X16337072Y-13892500D01*
X16356120Y-13863928D01*
X16365644Y-13854405D01*
X16422787Y-13882976D02*
X16556120Y-13882976D01*
X16470406Y-14082976D01*
X16784692Y-14082976D02*
X16784692Y-13882976D01*
X16870406Y-14082976D02*
X16870406Y-13978214D01*
X16860882Y-13959167D01*
X16841834Y-13949643D01*
X16813263Y-13949643D01*
X16794215Y-13959167D01*
X16784692Y-13968690D01*
X16994215Y-14082976D02*
X16975168Y-14073452D01*
X16965644Y-14063928D01*
X16956120Y-14044881D01*
X16956120Y-13987738D01*
X16965644Y-13968690D01*
X16975168Y-13959167D01*
X16994215Y-13949643D01*
X17022787Y-13949643D01*
X17041834Y-13959167D01*
X17051358Y-13968690D01*
X17060882Y-13987738D01*
X17060882Y-14044881D01*
X17051358Y-14063928D01*
X17041834Y-14073452D01*
X17022787Y-14082976D01*
X16994215Y-14082976D01*
X17175168Y-14082976D02*
X17156120Y-14073452D01*
X17146596Y-14054405D01*
X17146596Y-13882976D01*
X17327549Y-14073452D02*
X17308501Y-14082976D01*
X17270406Y-14082976D01*
X17251358Y-14073452D01*
X17241834Y-14054405D01*
X17241834Y-13978214D01*
X17251358Y-13959167D01*
X17270406Y-13949643D01*
X17308501Y-13949643D01*
X17327549Y-13959167D01*
X17337073Y-13978214D01*
X17337073Y-13997262D01*
X17241834Y-14016309D01*
X17413263Y-14073452D02*
X17432311Y-14082976D01*
X17470406Y-14082976D01*
X17489453Y-14073452D01*
X17498977Y-14054405D01*
X17498977Y-14044881D01*
X17489453Y-14025833D01*
X17470406Y-14016309D01*
X17441834Y-14016309D01*
X17422787Y-14006786D01*
X17413263Y-13987738D01*
X17413263Y-13978214D01*
X17422787Y-13959167D01*
X17441834Y-13949643D01*
X17470406Y-13949643D01*
X17489453Y-13959167D01*
X17565644Y-14159167D02*
X17575168Y-14149643D01*
X17594215Y-14121071D01*
X17603739Y-14102024D01*
X17613263Y-14073452D01*
X17622787Y-14025833D01*
X17622787Y-13987738D01*
X17613263Y-13940119D01*
X17603739Y-13911548D01*
X17594215Y-13892500D01*
X17575168Y-13863928D01*
X17565644Y-13854405D01*
X12793739Y-14256500D02*
G75*
G03*
X12793739Y-14256500I-100000J0D01*
G01*
X13041834Y-14166024D02*
X13051358Y-14156500D01*
X13070406Y-14146976D01*
X13118025Y-14146976D01*
X13137072Y-14156500D01*
X13146596Y-14166024D01*
X13156120Y-14185071D01*
X13156120Y-14204119D01*
X13146596Y-14232690D01*
X13032311Y-14346976D01*
X13156120Y-14346976D01*
X13241834Y-14327928D02*
X13251358Y-14337452D01*
X13241834Y-14346976D01*
X13232311Y-14337452D01*
X13241834Y-14327928D01*
X13241834Y-14346976D01*
X13375168Y-14146976D02*
X13394215Y-14146976D01*
X13413263Y-14156500D01*
X13422787Y-14166024D01*
X13432311Y-14185071D01*
X13441834Y-14223167D01*
X13441834Y-14270786D01*
X13432311Y-14308881D01*
X13422787Y-14327928D01*
X13413263Y-14337452D01*
X13394215Y-14346976D01*
X13375168Y-14346976D01*
X13356120Y-14337452D01*
X13346596Y-14327928D01*
X13337072Y-14308881D01*
X13327549Y-14270786D01*
X13327549Y-14223167D01*
X13337072Y-14185071D01*
X13346596Y-14166024D01*
X13356120Y-14156500D01*
X13375168Y-14146976D01*
X13565644Y-14146976D02*
X13584691Y-14146976D01*
X13603739Y-14156500D01*
X13613263Y-14166024D01*
X13622787Y-14185071D01*
X13632311Y-14223167D01*
X13632311Y-14270786D01*
X13622787Y-14308881D01*
X13613263Y-14327928D01*
X13603739Y-14337452D01*
X13584691Y-14346976D01*
X13565644Y-14346976D01*
X13546596Y-14337452D01*
X13537072Y-14327928D01*
X13527549Y-14308881D01*
X13518025Y-14270786D01*
X13518025Y-14223167D01*
X13527549Y-14185071D01*
X13537072Y-14166024D01*
X13546596Y-14156500D01*
X13565644Y-14146976D01*
X13756120Y-14146976D02*
X13775168Y-14146976D01*
X13794215Y-14156500D01*
X13803739Y-14166024D01*
X13813263Y-14185071D01*
X13822787Y-14223167D01*
X13822787Y-14270786D01*
X13813263Y-14308881D01*
X13803739Y-14327928D01*
X13794215Y-14337452D01*
X13775168Y-14346976D01*
X13756120Y-14346976D01*
X13737072Y-14337452D01*
X13727549Y-14327928D01*
X13718025Y-14308881D01*
X13708501Y-14270786D01*
X13708501Y-14223167D01*
X13718025Y-14185071D01*
X13727549Y-14166024D01*
X13737072Y-14156500D01*
X13756120Y-14146976D01*
X13908501Y-14346976D02*
X13908501Y-14213643D01*
X13908501Y-14232690D02*
X13918025Y-14223167D01*
X13937072Y-14213643D01*
X13965644Y-14213643D01*
X13984691Y-14223167D01*
X13994215Y-14242214D01*
X13994215Y-14346976D01*
X13994215Y-14242214D02*
X14003739Y-14223167D01*
X14022787Y-14213643D01*
X14051358Y-14213643D01*
X14070406Y-14223167D01*
X14079930Y-14242214D01*
X14079930Y-14346976D01*
X14175168Y-14346976D02*
X14175168Y-14213643D01*
X14175168Y-14232690D02*
X14184691Y-14223167D01*
X14203739Y-14213643D01*
X14232311Y-14213643D01*
X14251358Y-14223167D01*
X14260882Y-14242214D01*
X14260882Y-14346976D01*
X14260882Y-14242214D02*
X14270406Y-14223167D01*
X14289453Y-14213643D01*
X14318025Y-14213643D01*
X14337072Y-14223167D01*
X14346596Y-14242214D01*
X14346596Y-14346976D01*
X14737072Y-14137452D02*
X14565644Y-14394595D01*
X14994215Y-14146976D02*
X15013263Y-14146976D01*
X15032311Y-14156500D01*
X15041834Y-14166024D01*
X15051358Y-14185071D01*
X15060882Y-14223167D01*
X15060882Y-14270786D01*
X15051358Y-14308881D01*
X15041834Y-14327928D01*
X15032311Y-14337452D01*
X15013263Y-14346976D01*
X14994215Y-14346976D01*
X14975168Y-14337452D01*
X14965644Y-14327928D01*
X14956120Y-14308881D01*
X14946596Y-14270786D01*
X14946596Y-14223167D01*
X14956120Y-14185071D01*
X14965644Y-14166024D01*
X14975168Y-14156500D01*
X14994215Y-14146976D01*
X15146596Y-14327928D02*
X15156120Y-14337452D01*
X15146596Y-14346976D01*
X15137072Y-14337452D01*
X15146596Y-14327928D01*
X15146596Y-14346976D01*
X15279930Y-14146976D02*
X15298977Y-14146976D01*
X15318025Y-14156500D01*
X15327549Y-14166024D01*
X15337072Y-14185071D01*
X15346596Y-14223167D01*
X15346596Y-14270786D01*
X15337072Y-14308881D01*
X15327549Y-14327928D01*
X15318025Y-14337452D01*
X15298977Y-14346976D01*
X15279930Y-14346976D01*
X15260882Y-14337452D01*
X15251358Y-14327928D01*
X15241834Y-14308881D01*
X15232311Y-14270786D01*
X15232311Y-14223167D01*
X15241834Y-14185071D01*
X15251358Y-14166024D01*
X15260882Y-14156500D01*
X15279930Y-14146976D01*
X15413263Y-14146976D02*
X15546596Y-14146976D01*
X15460882Y-14346976D01*
X15651358Y-14232690D02*
X15632311Y-14223167D01*
X15622787Y-14213643D01*
X15613263Y-14194595D01*
X15613263Y-14185071D01*
X15622787Y-14166024D01*
X15632311Y-14156500D01*
X15651358Y-14146976D01*
X15689453Y-14146976D01*
X15708501Y-14156500D01*
X15718025Y-14166024D01*
X15727549Y-14185071D01*
X15727549Y-14194595D01*
X15718025Y-14213643D01*
X15708501Y-14223167D01*
X15689453Y-14232690D01*
X15651358Y-14232690D01*
X15632311Y-14242214D01*
X15622787Y-14251738D01*
X15613263Y-14270786D01*
X15613263Y-14308881D01*
X15622787Y-14327928D01*
X15632311Y-14337452D01*
X15651358Y-14346976D01*
X15689453Y-14346976D01*
X15708501Y-14337452D01*
X15718025Y-14327928D01*
X15727549Y-14308881D01*
X15727549Y-14270786D01*
X15718025Y-14251738D01*
X15708501Y-14242214D01*
X15689453Y-14232690D01*
X15794215Y-14146976D02*
X15927549Y-14146976D01*
X15841834Y-14346976D01*
X15994215Y-14146976D02*
X15994215Y-14185071D01*
X16070406Y-14146976D02*
X16070406Y-14185071D01*
X16365644Y-14423167D02*
X16356120Y-14413643D01*
X16337072Y-14385071D01*
X16327549Y-14366024D01*
X16318025Y-14337452D01*
X16308501Y-14289833D01*
X16308501Y-14251738D01*
X16318025Y-14204119D01*
X16327549Y-14175548D01*
X16337072Y-14156500D01*
X16356120Y-14127928D01*
X16365644Y-14118405D01*
X16422787Y-14146976D02*
X16546596Y-14146976D01*
X16479930Y-14223167D01*
X16508501Y-14223167D01*
X16527549Y-14232690D01*
X16537072Y-14242214D01*
X16546596Y-14261262D01*
X16546596Y-14308881D01*
X16537072Y-14327928D01*
X16527549Y-14337452D01*
X16508501Y-14346976D01*
X16451358Y-14346976D01*
X16432311Y-14337452D01*
X16422787Y-14327928D01*
X16622787Y-14166024D02*
X16632311Y-14156500D01*
X16651358Y-14146976D01*
X16698977Y-14146976D01*
X16718025Y-14156500D01*
X16727549Y-14166024D01*
X16737072Y-14185071D01*
X16737072Y-14204119D01*
X16727549Y-14232690D01*
X16613263Y-14346976D01*
X16737072Y-14346976D01*
X16975168Y-14346976D02*
X16975168Y-14146976D01*
X17060882Y-14346976D02*
X17060882Y-14242214D01*
X17051358Y-14223167D01*
X17032311Y-14213643D01*
X17003739Y-14213643D01*
X16984692Y-14223167D01*
X16975168Y-14232690D01*
X17184692Y-14346976D02*
X17165644Y-14337452D01*
X17156120Y-14327928D01*
X17146596Y-14308881D01*
X17146596Y-14251738D01*
X17156120Y-14232690D01*
X17165644Y-14223167D01*
X17184692Y-14213643D01*
X17213263Y-14213643D01*
X17232311Y-14223167D01*
X17241834Y-14232690D01*
X17251358Y-14251738D01*
X17251358Y-14308881D01*
X17241834Y-14327928D01*
X17232311Y-14337452D01*
X17213263Y-14346976D01*
X17184692Y-14346976D01*
X17365644Y-14346976D02*
X17346596Y-14337452D01*
X17337073Y-14318405D01*
X17337073Y-14146976D01*
X17518025Y-14337452D02*
X17498977Y-14346976D01*
X17460882Y-14346976D01*
X17441834Y-14337452D01*
X17432311Y-14318405D01*
X17432311Y-14242214D01*
X17441834Y-14223167D01*
X17460882Y-14213643D01*
X17498977Y-14213643D01*
X17518025Y-14223167D01*
X17527549Y-14242214D01*
X17527549Y-14261262D01*
X17432311Y-14280309D01*
X17603739Y-14337452D02*
X17622787Y-14346976D01*
X17660882Y-14346976D01*
X17679930Y-14337452D01*
X17689453Y-14318405D01*
X17689453Y-14308881D01*
X17679930Y-14289833D01*
X17660882Y-14280309D01*
X17632311Y-14280309D01*
X17613263Y-14270786D01*
X17603739Y-14251738D01*
X17603739Y-14242214D01*
X17613263Y-14223167D01*
X17632311Y-14213643D01*
X17660882Y-14213643D01*
X17679930Y-14223167D01*
X17756120Y-14423167D02*
X17765644Y-14413643D01*
X17784692Y-14385071D01*
X17794215Y-14366024D01*
X17803739Y-14337452D01*
X17813263Y-14289833D01*
X17813263Y-14251738D01*
X17803739Y-14204119D01*
X17794215Y-14175548D01*
X17784692Y-14156500D01*
X17765644Y-14127928D01*
X17756120Y-14118405D01*
M02*
