%TF.GenerationSoftware,KiCad,Pcbnew,(6.0.8)*%
%TF.CreationDate,2022-11-01T17:44:15+01:00*%
%TF.ProjectId,BURC_16SwitchEncoder_JRFormat,42555243-5f31-4365-9377-69746368456e,v1.0*%
%TF.SameCoordinates,Original*%
%TF.FileFunction,AssemblyDrawing,Top*%
%FSLAX46Y46*%
G04 Gerber Fmt 4.6, Leading zero omitted, Abs format (unit mm)*
G04 Created by KiCad (PCBNEW (6.0.8)) date 2022-11-01 17:44:15*
%MOMM*%
%LPD*%
G01*
G04 APERTURE LIST*
%ADD10C,0.100000*%
%ADD11C,0.150000*%
G04 APERTURE END LIST*
D10*
X130810000Y-83185000D02*
X132080000Y-83820000D01*
X164060000Y-124460000D02*
X165100000Y-125095000D01*
X136435000Y-86360000D02*
G75*
G03*
X136435000Y-86360000I-2450000J0D01*
G01*
X155560000Y-86360000D02*
G75*
G03*
X155560000Y-86360000I-2450000J0D01*
G01*
X165085000Y-86360000D02*
G75*
G03*
X165085000Y-86360000I-2450000J0D01*
G01*
X155485000Y-99060000D02*
G75*
G03*
X155485000Y-99060000I-2450000J0D01*
G01*
X136435000Y-111760000D02*
G75*
G03*
X136435000Y-111760000I-2450000J0D01*
G01*
X166500000Y-100000000D02*
X166500000Y-115400000D01*
X155485000Y-124460000D02*
G75*
G03*
X155485000Y-124460000I-2450000J0D01*
G01*
X164060000Y-124460000D02*
G75*
G03*
X164060000Y-124460000I-1500000J0D01*
G01*
X164060000Y-124460000D02*
X165100000Y-123825000D01*
X173355000Y-122555000D02*
X172085000Y-123825000D01*
X166500000Y-95000000D02*
X169400000Y-95000000D01*
X132715000Y-83820000D02*
X120015000Y-83820000D01*
X145885000Y-99060000D02*
G75*
G03*
X145885000Y-99060000I-2450000J0D01*
G01*
X169400000Y-133700000D02*
X169400000Y-115400000D01*
X127800000Y-76500000D02*
X127800000Y-94900000D01*
X136360000Y-99060000D02*
G75*
G03*
X136360000Y-99060000I-2450000J0D01*
G01*
X145960000Y-86360000D02*
G75*
G03*
X145960000Y-86360000I-2450000J0D01*
G01*
X123825000Y-81915000D02*
X122555000Y-83185000D01*
X169400000Y-95000000D02*
X169400000Y-76500000D01*
X145960000Y-111760000D02*
G75*
G03*
X145960000Y-111760000I-2450000J0D01*
G01*
X145960000Y-124460000D02*
G75*
G03*
X145960000Y-124460000I-2450000J0D01*
G01*
X130700000Y-94900000D02*
X127800000Y-94900000D01*
X130700000Y-115400000D02*
X127800000Y-115400000D01*
X165900000Y-119400000D02*
X165900000Y-132100000D01*
X158300000Y-132100000D02*
X158300000Y-119400000D01*
X164060000Y-124460000D02*
X175260000Y-124460000D01*
X130700000Y-100000000D02*
X130700000Y-94900000D01*
X130700000Y-115400000D02*
X130700000Y-100000000D01*
X169400000Y-76500000D02*
X127800000Y-76500000D01*
X123825000Y-82550000D02*
G75*
G03*
X123825000Y-82550000I-635000J0D01*
G01*
X165010000Y-99060000D02*
G75*
G03*
X165010000Y-99060000I-2450000J0D01*
G01*
X165010000Y-111760000D02*
G75*
G03*
X165010000Y-111760000I-2450000J0D01*
G01*
X173355000Y-123190000D02*
G75*
G03*
X173355000Y-123190000I-635000J0D01*
G01*
X169400000Y-115400000D02*
X166500000Y-115400000D01*
X165900000Y-132100000D02*
X158300000Y-132100000D01*
X166500000Y-95000000D02*
X166500000Y-100000000D01*
X155485000Y-111760000D02*
G75*
G03*
X155485000Y-111760000I-2450000J0D01*
G01*
X127800000Y-133700000D02*
X169400000Y-133700000D01*
X127800000Y-115400000D02*
X127800000Y-133700000D01*
X158300000Y-119400000D02*
X165900000Y-119400000D01*
X136435000Y-124460000D02*
G75*
G03*
X136435000Y-124460000I-2450000J0D01*
G01*
X132080000Y-83820000D02*
X130810000Y-84455000D01*
D11*
X124571190Y-82335714D02*
X124571190Y-83002380D01*
X124333095Y-81954761D02*
X124095000Y-82669047D01*
X124714047Y-82669047D01*
X125095000Y-82907142D02*
X125142619Y-82954761D01*
X125095000Y-83002380D01*
X125047380Y-82954761D01*
X125095000Y-82907142D01*
X125095000Y-83002380D01*
X125618809Y-83002380D02*
X125809285Y-83002380D01*
X125904523Y-82954761D01*
X125952142Y-82907142D01*
X126047380Y-82764285D01*
X126095000Y-82573809D01*
X126095000Y-82192857D01*
X126047380Y-82097619D01*
X125999761Y-82050000D01*
X125904523Y-82002380D01*
X125714047Y-82002380D01*
X125618809Y-82050000D01*
X125571190Y-82097619D01*
X125523571Y-82192857D01*
X125523571Y-82430952D01*
X125571190Y-82526190D01*
X125618809Y-82573809D01*
X125714047Y-82621428D01*
X125904523Y-82621428D01*
X125999761Y-82573809D01*
X126047380Y-82526190D01*
X126095000Y-82430952D01*
X113546428Y-83002380D02*
X112975000Y-83002380D01*
X113260714Y-83002380D02*
X113260714Y-82002380D01*
X113165476Y-82145238D01*
X113070238Y-82240476D01*
X112975000Y-82288095D01*
X114451190Y-82002380D02*
X113975000Y-82002380D01*
X113927380Y-82478571D01*
X113975000Y-82430952D01*
X114070238Y-82383333D01*
X114308333Y-82383333D01*
X114403571Y-82430952D01*
X114451190Y-82478571D01*
X114498809Y-82573809D01*
X114498809Y-82811904D01*
X114451190Y-82907142D01*
X114403571Y-82954761D01*
X114308333Y-83002380D01*
X114070238Y-83002380D01*
X113975000Y-82954761D01*
X113927380Y-82907142D01*
X115689285Y-82335714D02*
X115689285Y-83335714D01*
X115689285Y-82383333D02*
X115784523Y-82335714D01*
X115975000Y-82335714D01*
X116070238Y-82383333D01*
X116117857Y-82430952D01*
X116165476Y-82526190D01*
X116165476Y-82811904D01*
X116117857Y-82907142D01*
X116070238Y-82954761D01*
X115975000Y-83002380D01*
X115784523Y-83002380D01*
X115689285Y-82954761D01*
X116975000Y-82954761D02*
X116879761Y-83002380D01*
X116689285Y-83002380D01*
X116594047Y-82954761D01*
X116546428Y-82859523D01*
X116546428Y-82478571D01*
X116594047Y-82383333D01*
X116689285Y-82335714D01*
X116879761Y-82335714D01*
X116975000Y-82383333D01*
X117022619Y-82478571D01*
X117022619Y-82573809D01*
X116546428Y-82669047D01*
X117451190Y-83002380D02*
X117451190Y-82335714D01*
X117451190Y-82526190D02*
X117498809Y-82430952D01*
X117546428Y-82383333D01*
X117641666Y-82335714D01*
X117736904Y-82335714D01*
X118498809Y-82954761D02*
X118403571Y-83002380D01*
X118213095Y-83002380D01*
X118117857Y-82954761D01*
X118070238Y-82907142D01*
X118022619Y-82811904D01*
X118022619Y-82526190D01*
X118070238Y-82430952D01*
X118117857Y-82383333D01*
X118213095Y-82335714D01*
X118403571Y-82335714D01*
X118498809Y-82383333D01*
X118308333Y-83050000D02*
X118403571Y-83097619D01*
X118451190Y-83192857D01*
X118403571Y-83288095D01*
X118308333Y-83335714D01*
X118165476Y-83335714D01*
X119355952Y-83002380D02*
X119355952Y-82478571D01*
X119308333Y-82383333D01*
X119213095Y-82335714D01*
X119022619Y-82335714D01*
X118927380Y-82383333D01*
X119355952Y-82954761D02*
X119260714Y-83002380D01*
X119022619Y-83002380D01*
X118927380Y-82954761D01*
X118879761Y-82859523D01*
X118879761Y-82764285D01*
X118927380Y-82669047D01*
X119022619Y-82621428D01*
X119260714Y-82621428D01*
X119355952Y-82573809D01*
X120260714Y-82335714D02*
X120260714Y-83145238D01*
X120213095Y-83240476D01*
X120165476Y-83288095D01*
X120070238Y-83335714D01*
X119927380Y-83335714D01*
X119832142Y-83288095D01*
X120260714Y-82954761D02*
X120165476Y-83002380D01*
X119975000Y-83002380D01*
X119879761Y-82954761D01*
X119832142Y-82907142D01*
X119784523Y-82811904D01*
X119784523Y-82526190D01*
X119832142Y-82430952D01*
X119879761Y-82383333D01*
X119975000Y-82335714D01*
X120165476Y-82335714D01*
X120260714Y-82383333D01*
X121117857Y-82954761D02*
X121022619Y-83002380D01*
X120832142Y-83002380D01*
X120736904Y-82954761D01*
X120689285Y-82859523D01*
X120689285Y-82478571D01*
X120736904Y-82383333D01*
X120832142Y-82335714D01*
X121022619Y-82335714D01*
X121117857Y-82383333D01*
X121165476Y-82478571D01*
X121165476Y-82573809D01*
X120689285Y-82669047D01*
X121546428Y-82954761D02*
X121641666Y-83002380D01*
X121832142Y-83002380D01*
X121927380Y-82954761D01*
X121975000Y-82859523D01*
X121975000Y-82811904D01*
X121927380Y-82716666D01*
X121832142Y-82669047D01*
X121689285Y-82669047D01*
X121594047Y-82621428D01*
X121546428Y-82526190D01*
X121546428Y-82478571D01*
X121594047Y-82383333D01*
X121689285Y-82335714D01*
X121832142Y-82335714D01*
X121927380Y-82383333D01*
X173656666Y-122642380D02*
X174275714Y-122642380D01*
X173942380Y-123023333D01*
X174085238Y-123023333D01*
X174180476Y-123070952D01*
X174228095Y-123118571D01*
X174275714Y-123213809D01*
X174275714Y-123451904D01*
X174228095Y-123547142D01*
X174180476Y-123594761D01*
X174085238Y-123642380D01*
X173799523Y-123642380D01*
X173704285Y-123594761D01*
X173656666Y-123547142D01*
X144457142Y-72295714D02*
X144457142Y-72962380D01*
X144219047Y-71914761D02*
X143980952Y-72629047D01*
X144600000Y-72629047D01*
X145504761Y-72962380D02*
X144933333Y-72962380D01*
X145219047Y-72962380D02*
X145219047Y-71962380D01*
X145123809Y-72105238D01*
X145028571Y-72200476D01*
X144933333Y-72248095D01*
X145980952Y-72914761D02*
X145980952Y-72962380D01*
X145933333Y-73057619D01*
X145885714Y-73105238D01*
X146838095Y-71962380D02*
X146647619Y-71962380D01*
X146552380Y-72010000D01*
X146504761Y-72057619D01*
X146409523Y-72200476D01*
X146361904Y-72390952D01*
X146361904Y-72771904D01*
X146409523Y-72867142D01*
X146457142Y-72914761D01*
X146552380Y-72962380D01*
X146742857Y-72962380D01*
X146838095Y-72914761D01*
X146885714Y-72867142D01*
X146933333Y-72771904D01*
X146933333Y-72533809D01*
X146885714Y-72438571D01*
X146838095Y-72390952D01*
X146742857Y-72343333D01*
X146552380Y-72343333D01*
X146457142Y-72390952D01*
X146409523Y-72438571D01*
X146361904Y-72533809D01*
X147552380Y-71962380D02*
X147647619Y-71962380D01*
X147742857Y-72010000D01*
X147790476Y-72057619D01*
X147838095Y-72152857D01*
X147885714Y-72343333D01*
X147885714Y-72581428D01*
X147838095Y-72771904D01*
X147790476Y-72867142D01*
X147742857Y-72914761D01*
X147647619Y-72962380D01*
X147552380Y-72962380D01*
X147457142Y-72914761D01*
X147409523Y-72867142D01*
X147361904Y-72771904D01*
X147314285Y-72581428D01*
X147314285Y-72343333D01*
X147361904Y-72152857D01*
X147409523Y-72057619D01*
X147457142Y-72010000D01*
X147552380Y-71962380D01*
X148504761Y-71962380D02*
X148600000Y-71962380D01*
X148695238Y-72010000D01*
X148742857Y-72057619D01*
X148790476Y-72152857D01*
X148838095Y-72343333D01*
X148838095Y-72581428D01*
X148790476Y-72771904D01*
X148742857Y-72867142D01*
X148695238Y-72914761D01*
X148600000Y-72962380D01*
X148504761Y-72962380D01*
X148409523Y-72914761D01*
X148361904Y-72867142D01*
X148314285Y-72771904D01*
X148266666Y-72581428D01*
X148266666Y-72343333D01*
X148314285Y-72152857D01*
X148361904Y-72057619D01*
X148409523Y-72010000D01*
X148504761Y-71962380D01*
X149457142Y-71962380D02*
X149552380Y-71962380D01*
X149647619Y-72010000D01*
X149695238Y-72057619D01*
X149742857Y-72152857D01*
X149790476Y-72343333D01*
X149790476Y-72581428D01*
X149742857Y-72771904D01*
X149695238Y-72867142D01*
X149647619Y-72914761D01*
X149552380Y-72962380D01*
X149457142Y-72962380D01*
X149361904Y-72914761D01*
X149314285Y-72867142D01*
X149266666Y-72771904D01*
X149219047Y-72581428D01*
X149219047Y-72343333D01*
X149266666Y-72152857D01*
X149314285Y-72057619D01*
X149361904Y-72010000D01*
X149457142Y-71962380D01*
X150980952Y-72962380D02*
X150980952Y-72295714D01*
X150980952Y-72390952D02*
X151028571Y-72343333D01*
X151123809Y-72295714D01*
X151266666Y-72295714D01*
X151361904Y-72343333D01*
X151409523Y-72438571D01*
X151409523Y-72962380D01*
X151409523Y-72438571D02*
X151457142Y-72343333D01*
X151552380Y-72295714D01*
X151695238Y-72295714D01*
X151790476Y-72343333D01*
X151838095Y-72438571D01*
X151838095Y-72962380D01*
X152314285Y-72962380D02*
X152314285Y-72295714D01*
X152314285Y-72390952D02*
X152361904Y-72343333D01*
X152457142Y-72295714D01*
X152600000Y-72295714D01*
X152695238Y-72343333D01*
X152742857Y-72438571D01*
X152742857Y-72962380D01*
X152742857Y-72438571D02*
X152790476Y-72343333D01*
X152885714Y-72295714D01*
X153028571Y-72295714D01*
X153123809Y-72343333D01*
X153171428Y-72438571D01*
X153171428Y-72962380D01*
D10*
X127800000Y-76000000D02*
X127800000Y-73073580D01*
X169400000Y-76000000D02*
X169400000Y-73073580D01*
X127800000Y-73660000D02*
X169400000Y-73660000D01*
X127800000Y-73660000D02*
X169400000Y-73660000D01*
X127800000Y-73660000D02*
X128926504Y-74246421D01*
X127800000Y-73660000D02*
X128926504Y-73073579D01*
X169400000Y-73660000D02*
X168273496Y-73073579D01*
X169400000Y-73660000D02*
X168273496Y-74246421D01*
D11*
X134699880Y-79312380D02*
X134890357Y-79312380D01*
X134985595Y-79264761D01*
X135033214Y-79217142D01*
X135128452Y-79074285D01*
X135176071Y-78883809D01*
X135176071Y-78502857D01*
X135128452Y-78407619D01*
X135080833Y-78360000D01*
X134985595Y-78312380D01*
X134795119Y-78312380D01*
X134699880Y-78360000D01*
X134652261Y-78407619D01*
X134604642Y-78502857D01*
X134604642Y-78740952D01*
X134652261Y-78836190D01*
X134699880Y-78883809D01*
X134795119Y-78931428D01*
X134985595Y-78931428D01*
X135080833Y-78883809D01*
X135128452Y-78836190D01*
X135176071Y-78740952D01*
X135652261Y-79264761D02*
X135652261Y-79312380D01*
X135604642Y-79407619D01*
X135557023Y-79455238D01*
X136557023Y-78312380D02*
X136080833Y-78312380D01*
X136033214Y-78788571D01*
X136080833Y-78740952D01*
X136176071Y-78693333D01*
X136414166Y-78693333D01*
X136509404Y-78740952D01*
X136557023Y-78788571D01*
X136604642Y-78883809D01*
X136604642Y-79121904D01*
X136557023Y-79217142D01*
X136509404Y-79264761D01*
X136414166Y-79312380D01*
X136176071Y-79312380D01*
X136080833Y-79264761D01*
X136033214Y-79217142D01*
X136985595Y-78407619D02*
X137033214Y-78360000D01*
X137128452Y-78312380D01*
X137366547Y-78312380D01*
X137461785Y-78360000D01*
X137509404Y-78407619D01*
X137557023Y-78502857D01*
X137557023Y-78598095D01*
X137509404Y-78740952D01*
X136937976Y-79312380D01*
X137557023Y-79312380D01*
X138461785Y-78312380D02*
X137985595Y-78312380D01*
X137937976Y-78788571D01*
X137985595Y-78740952D01*
X138080833Y-78693333D01*
X138318928Y-78693333D01*
X138414166Y-78740952D01*
X138461785Y-78788571D01*
X138509404Y-78883809D01*
X138509404Y-79121904D01*
X138461785Y-79217142D01*
X138414166Y-79264761D01*
X138318928Y-79312380D01*
X138080833Y-79312380D01*
X137985595Y-79264761D01*
X137937976Y-79217142D01*
X139128452Y-78312380D02*
X139223690Y-78312380D01*
X139318928Y-78360000D01*
X139366547Y-78407619D01*
X139414166Y-78502857D01*
X139461785Y-78693333D01*
X139461785Y-78931428D01*
X139414166Y-79121904D01*
X139366547Y-79217142D01*
X139318928Y-79264761D01*
X139223690Y-79312380D01*
X139128452Y-79312380D01*
X139033214Y-79264761D01*
X138985595Y-79217142D01*
X138937976Y-79121904D01*
X138890357Y-78931428D01*
X138890357Y-78693333D01*
X138937976Y-78502857D01*
X138985595Y-78407619D01*
X139033214Y-78360000D01*
X139128452Y-78312380D01*
X140652261Y-79312380D02*
X140652261Y-78645714D01*
X140652261Y-78740952D02*
X140699880Y-78693333D01*
X140795119Y-78645714D01*
X140937976Y-78645714D01*
X141033214Y-78693333D01*
X141080833Y-78788571D01*
X141080833Y-79312380D01*
X141080833Y-78788571D02*
X141128452Y-78693333D01*
X141223690Y-78645714D01*
X141366547Y-78645714D01*
X141461785Y-78693333D01*
X141509404Y-78788571D01*
X141509404Y-79312380D01*
X141985595Y-79312380D02*
X141985595Y-78645714D01*
X141985595Y-78740952D02*
X142033214Y-78693333D01*
X142128452Y-78645714D01*
X142271309Y-78645714D01*
X142366547Y-78693333D01*
X142414166Y-78788571D01*
X142414166Y-79312380D01*
X142414166Y-78788571D02*
X142461785Y-78693333D01*
X142557023Y-78645714D01*
X142699880Y-78645714D01*
X142795119Y-78693333D01*
X142842738Y-78788571D01*
X142842738Y-79312380D01*
D10*
X133985000Y-85860000D02*
X133985000Y-79423580D01*
X143510000Y-85860000D02*
X143510000Y-79423580D01*
X133985000Y-80010000D02*
X143510000Y-80010000D01*
X133985000Y-80010000D02*
X143510000Y-80010000D01*
X133985000Y-80010000D02*
X135111504Y-80596421D01*
X133985000Y-80010000D02*
X135111504Y-79423579D01*
X143510000Y-80010000D02*
X142383496Y-79423579D01*
X143510000Y-80010000D02*
X142383496Y-80596421D01*
D11*
X125667381Y-96757619D02*
X125667381Y-97329047D01*
X125667381Y-97043333D02*
X124667381Y-97043333D01*
X124810239Y-97138571D01*
X124905477Y-97233809D01*
X124953096Y-97329047D01*
X124762620Y-96376666D02*
X124715001Y-96329047D01*
X124667381Y-96233809D01*
X124667381Y-95995714D01*
X124715001Y-95900476D01*
X124762620Y-95852857D01*
X124857858Y-95805238D01*
X124953096Y-95805238D01*
X125095953Y-95852857D01*
X125667381Y-96424285D01*
X125667381Y-95805238D01*
X125619762Y-95329047D02*
X125667381Y-95329047D01*
X125762620Y-95376666D01*
X125810239Y-95424285D01*
X124667381Y-94995714D02*
X124667381Y-94329047D01*
X125667381Y-94757619D01*
X124667381Y-93757619D02*
X124667381Y-93662380D01*
X124715001Y-93567142D01*
X124762620Y-93519523D01*
X124857858Y-93471904D01*
X125048334Y-93424285D01*
X125286429Y-93424285D01*
X125476905Y-93471904D01*
X125572143Y-93519523D01*
X125619762Y-93567142D01*
X125667381Y-93662380D01*
X125667381Y-93757619D01*
X125619762Y-93852857D01*
X125572143Y-93900476D01*
X125476905Y-93948095D01*
X125286429Y-93995714D01*
X125048334Y-93995714D01*
X124857858Y-93948095D01*
X124762620Y-93900476D01*
X124715001Y-93852857D01*
X124667381Y-93757619D01*
X124667381Y-92805238D02*
X124667381Y-92710000D01*
X124715001Y-92614761D01*
X124762620Y-92567142D01*
X124857858Y-92519523D01*
X125048334Y-92471904D01*
X125286429Y-92471904D01*
X125476905Y-92519523D01*
X125572143Y-92567142D01*
X125619762Y-92614761D01*
X125667381Y-92710000D01*
X125667381Y-92805238D01*
X125619762Y-92900476D01*
X125572143Y-92948095D01*
X125476905Y-92995714D01*
X125286429Y-93043333D01*
X125048334Y-93043333D01*
X124857858Y-92995714D01*
X124762620Y-92948095D01*
X124715001Y-92900476D01*
X124667381Y-92805238D01*
X124667381Y-91852857D02*
X124667381Y-91757619D01*
X124715001Y-91662380D01*
X124762620Y-91614761D01*
X124857858Y-91567142D01*
X125048334Y-91519523D01*
X125286429Y-91519523D01*
X125476905Y-91567142D01*
X125572143Y-91614761D01*
X125619762Y-91662380D01*
X125667381Y-91757619D01*
X125667381Y-91852857D01*
X125619762Y-91948095D01*
X125572143Y-91995714D01*
X125476905Y-92043333D01*
X125286429Y-92090952D01*
X125048334Y-92090952D01*
X124857858Y-92043333D01*
X124762620Y-91995714D01*
X124715001Y-91948095D01*
X124667381Y-91852857D01*
X125667381Y-90329047D02*
X125000715Y-90329047D01*
X125095953Y-90329047D02*
X125048334Y-90281428D01*
X125000715Y-90186190D01*
X125000715Y-90043333D01*
X125048334Y-89948095D01*
X125143572Y-89900476D01*
X125667381Y-89900476D01*
X125143572Y-89900476D02*
X125048334Y-89852857D01*
X125000715Y-89757619D01*
X125000715Y-89614761D01*
X125048334Y-89519523D01*
X125143572Y-89471904D01*
X125667381Y-89471904D01*
X125667381Y-88995714D02*
X125000715Y-88995714D01*
X125095953Y-88995714D02*
X125048334Y-88948095D01*
X125000715Y-88852857D01*
X125000715Y-88710000D01*
X125048334Y-88614761D01*
X125143572Y-88567142D01*
X125667381Y-88567142D01*
X125143572Y-88567142D02*
X125048334Y-88519523D01*
X125000715Y-88424285D01*
X125000715Y-88281428D01*
X125048334Y-88186190D01*
X125143572Y-88138571D01*
X125667381Y-88138571D01*
D10*
X134120000Y-86360000D02*
X125778581Y-86360000D01*
X134120000Y-99060000D02*
X125778581Y-99060000D01*
X126365001Y-86360000D02*
X126365001Y-99060000D01*
X126365001Y-86360000D02*
X126365001Y-99060000D01*
X126365001Y-86360000D02*
X125778580Y-87486504D01*
X126365001Y-86360000D02*
X126951422Y-87486504D01*
X126365001Y-99060000D02*
X126951422Y-97933496D01*
X126365001Y-99060000D02*
X125778580Y-97933496D01*
D11*
X125667380Y-122157619D02*
X125667380Y-122729047D01*
X125667380Y-122443333D02*
X124667380Y-122443333D01*
X124810238Y-122538571D01*
X124905476Y-122633809D01*
X124953095Y-122729047D01*
X124762619Y-121776666D02*
X124715000Y-121729047D01*
X124667380Y-121633809D01*
X124667380Y-121395714D01*
X124715000Y-121300476D01*
X124762619Y-121252857D01*
X124857857Y-121205238D01*
X124953095Y-121205238D01*
X125095952Y-121252857D01*
X125667380Y-121824285D01*
X125667380Y-121205238D01*
X125619761Y-120729047D02*
X125667380Y-120729047D01*
X125762619Y-120776666D01*
X125810238Y-120824285D01*
X124667380Y-120395714D02*
X124667380Y-119729047D01*
X125667380Y-120157619D01*
X124667380Y-119157619D02*
X124667380Y-119062380D01*
X124715000Y-118967142D01*
X124762619Y-118919523D01*
X124857857Y-118871904D01*
X125048333Y-118824285D01*
X125286428Y-118824285D01*
X125476904Y-118871904D01*
X125572142Y-118919523D01*
X125619761Y-118967142D01*
X125667380Y-119062380D01*
X125667380Y-119157619D01*
X125619761Y-119252857D01*
X125572142Y-119300476D01*
X125476904Y-119348095D01*
X125286428Y-119395714D01*
X125048333Y-119395714D01*
X124857857Y-119348095D01*
X124762619Y-119300476D01*
X124715000Y-119252857D01*
X124667380Y-119157619D01*
X124667380Y-118205238D02*
X124667380Y-118110000D01*
X124715000Y-118014761D01*
X124762619Y-117967142D01*
X124857857Y-117919523D01*
X125048333Y-117871904D01*
X125286428Y-117871904D01*
X125476904Y-117919523D01*
X125572142Y-117967142D01*
X125619761Y-118014761D01*
X125667380Y-118110000D01*
X125667380Y-118205238D01*
X125619761Y-118300476D01*
X125572142Y-118348095D01*
X125476904Y-118395714D01*
X125286428Y-118443333D01*
X125048333Y-118443333D01*
X124857857Y-118395714D01*
X124762619Y-118348095D01*
X124715000Y-118300476D01*
X124667380Y-118205238D01*
X124667380Y-117252857D02*
X124667380Y-117157619D01*
X124715000Y-117062380D01*
X124762619Y-117014761D01*
X124857857Y-116967142D01*
X125048333Y-116919523D01*
X125286428Y-116919523D01*
X125476904Y-116967142D01*
X125572142Y-117014761D01*
X125619761Y-117062380D01*
X125667380Y-117157619D01*
X125667380Y-117252857D01*
X125619761Y-117348095D01*
X125572142Y-117395714D01*
X125476904Y-117443333D01*
X125286428Y-117490952D01*
X125048333Y-117490952D01*
X124857857Y-117443333D01*
X124762619Y-117395714D01*
X124715000Y-117348095D01*
X124667380Y-117252857D01*
X125667380Y-115729047D02*
X125000714Y-115729047D01*
X125095952Y-115729047D02*
X125048333Y-115681428D01*
X125000714Y-115586190D01*
X125000714Y-115443333D01*
X125048333Y-115348095D01*
X125143571Y-115300476D01*
X125667380Y-115300476D01*
X125143571Y-115300476D02*
X125048333Y-115252857D01*
X125000714Y-115157619D01*
X125000714Y-115014761D01*
X125048333Y-114919523D01*
X125143571Y-114871904D01*
X125667380Y-114871904D01*
X125667380Y-114395714D02*
X125000714Y-114395714D01*
X125095952Y-114395714D02*
X125048333Y-114348095D01*
X125000714Y-114252857D01*
X125000714Y-114110000D01*
X125048333Y-114014761D01*
X125143571Y-113967142D01*
X125667380Y-113967142D01*
X125143571Y-113967142D02*
X125048333Y-113919523D01*
X125000714Y-113824285D01*
X125000714Y-113681428D01*
X125048333Y-113586190D01*
X125143571Y-113538571D01*
X125667380Y-113538571D01*
D10*
X134120000Y-124460000D02*
X125778580Y-124460000D01*
X134120000Y-111760000D02*
X125778580Y-111760000D01*
X126365000Y-124460000D02*
X126365000Y-111760000D01*
X126365000Y-124460000D02*
X126365000Y-111760000D01*
X126365000Y-124460000D02*
X126951421Y-123333496D01*
X126365000Y-124460000D02*
X125778579Y-123333496D01*
X126365000Y-111760000D02*
X125778579Y-112886504D01*
X126365000Y-111760000D02*
X126951421Y-112886504D01*
D11*
X144224880Y-79312380D02*
X144415357Y-79312380D01*
X144510595Y-79264761D01*
X144558214Y-79217142D01*
X144653452Y-79074285D01*
X144701071Y-78883809D01*
X144701071Y-78502857D01*
X144653452Y-78407619D01*
X144605833Y-78360000D01*
X144510595Y-78312380D01*
X144320119Y-78312380D01*
X144224880Y-78360000D01*
X144177261Y-78407619D01*
X144129642Y-78502857D01*
X144129642Y-78740952D01*
X144177261Y-78836190D01*
X144224880Y-78883809D01*
X144320119Y-78931428D01*
X144510595Y-78931428D01*
X144605833Y-78883809D01*
X144653452Y-78836190D01*
X144701071Y-78740952D01*
X145177261Y-79264761D02*
X145177261Y-79312380D01*
X145129642Y-79407619D01*
X145082023Y-79455238D01*
X146082023Y-78312380D02*
X145605833Y-78312380D01*
X145558214Y-78788571D01*
X145605833Y-78740952D01*
X145701071Y-78693333D01*
X145939166Y-78693333D01*
X146034404Y-78740952D01*
X146082023Y-78788571D01*
X146129642Y-78883809D01*
X146129642Y-79121904D01*
X146082023Y-79217142D01*
X146034404Y-79264761D01*
X145939166Y-79312380D01*
X145701071Y-79312380D01*
X145605833Y-79264761D01*
X145558214Y-79217142D01*
X146510595Y-78407619D02*
X146558214Y-78360000D01*
X146653452Y-78312380D01*
X146891547Y-78312380D01*
X146986785Y-78360000D01*
X147034404Y-78407619D01*
X147082023Y-78502857D01*
X147082023Y-78598095D01*
X147034404Y-78740952D01*
X146462976Y-79312380D01*
X147082023Y-79312380D01*
X147986785Y-78312380D02*
X147510595Y-78312380D01*
X147462976Y-78788571D01*
X147510595Y-78740952D01*
X147605833Y-78693333D01*
X147843928Y-78693333D01*
X147939166Y-78740952D01*
X147986785Y-78788571D01*
X148034404Y-78883809D01*
X148034404Y-79121904D01*
X147986785Y-79217142D01*
X147939166Y-79264761D01*
X147843928Y-79312380D01*
X147605833Y-79312380D01*
X147510595Y-79264761D01*
X147462976Y-79217142D01*
X148653452Y-78312380D02*
X148748690Y-78312380D01*
X148843928Y-78360000D01*
X148891547Y-78407619D01*
X148939166Y-78502857D01*
X148986785Y-78693333D01*
X148986785Y-78931428D01*
X148939166Y-79121904D01*
X148891547Y-79217142D01*
X148843928Y-79264761D01*
X148748690Y-79312380D01*
X148653452Y-79312380D01*
X148558214Y-79264761D01*
X148510595Y-79217142D01*
X148462976Y-79121904D01*
X148415357Y-78931428D01*
X148415357Y-78693333D01*
X148462976Y-78502857D01*
X148510595Y-78407619D01*
X148558214Y-78360000D01*
X148653452Y-78312380D01*
X150177261Y-79312380D02*
X150177261Y-78645714D01*
X150177261Y-78740952D02*
X150224880Y-78693333D01*
X150320119Y-78645714D01*
X150462976Y-78645714D01*
X150558214Y-78693333D01*
X150605833Y-78788571D01*
X150605833Y-79312380D01*
X150605833Y-78788571D02*
X150653452Y-78693333D01*
X150748690Y-78645714D01*
X150891547Y-78645714D01*
X150986785Y-78693333D01*
X151034404Y-78788571D01*
X151034404Y-79312380D01*
X151510595Y-79312380D02*
X151510595Y-78645714D01*
X151510595Y-78740952D02*
X151558214Y-78693333D01*
X151653452Y-78645714D01*
X151796309Y-78645714D01*
X151891547Y-78693333D01*
X151939166Y-78788571D01*
X151939166Y-79312380D01*
X151939166Y-78788571D02*
X151986785Y-78693333D01*
X152082023Y-78645714D01*
X152224880Y-78645714D01*
X152320119Y-78693333D01*
X152367738Y-78788571D01*
X152367738Y-79312380D01*
D10*
X153035000Y-85860000D02*
X153035000Y-79423580D01*
X143510000Y-85860000D02*
X143510000Y-79423580D01*
X153035000Y-80010000D02*
X143510000Y-80010000D01*
X153035000Y-80010000D02*
X143510000Y-80010000D01*
X153035000Y-80010000D02*
X151908496Y-79423579D01*
X153035000Y-80010000D02*
X151908496Y-80596421D01*
X143510000Y-80010000D02*
X144636504Y-80596421D01*
X143510000Y-80010000D02*
X144636504Y-79423579D01*
D11*
X153749880Y-79312380D02*
X153940357Y-79312380D01*
X154035595Y-79264761D01*
X154083214Y-79217142D01*
X154178452Y-79074285D01*
X154226071Y-78883809D01*
X154226071Y-78502857D01*
X154178452Y-78407619D01*
X154130833Y-78360000D01*
X154035595Y-78312380D01*
X153845119Y-78312380D01*
X153749880Y-78360000D01*
X153702261Y-78407619D01*
X153654642Y-78502857D01*
X153654642Y-78740952D01*
X153702261Y-78836190D01*
X153749880Y-78883809D01*
X153845119Y-78931428D01*
X154035595Y-78931428D01*
X154130833Y-78883809D01*
X154178452Y-78836190D01*
X154226071Y-78740952D01*
X154702261Y-79264761D02*
X154702261Y-79312380D01*
X154654642Y-79407619D01*
X154607023Y-79455238D01*
X155607023Y-78312380D02*
X155130833Y-78312380D01*
X155083214Y-78788571D01*
X155130833Y-78740952D01*
X155226071Y-78693333D01*
X155464166Y-78693333D01*
X155559404Y-78740952D01*
X155607023Y-78788571D01*
X155654642Y-78883809D01*
X155654642Y-79121904D01*
X155607023Y-79217142D01*
X155559404Y-79264761D01*
X155464166Y-79312380D01*
X155226071Y-79312380D01*
X155130833Y-79264761D01*
X155083214Y-79217142D01*
X156035595Y-78407619D02*
X156083214Y-78360000D01*
X156178452Y-78312380D01*
X156416547Y-78312380D01*
X156511785Y-78360000D01*
X156559404Y-78407619D01*
X156607023Y-78502857D01*
X156607023Y-78598095D01*
X156559404Y-78740952D01*
X155987976Y-79312380D01*
X156607023Y-79312380D01*
X157511785Y-78312380D02*
X157035595Y-78312380D01*
X156987976Y-78788571D01*
X157035595Y-78740952D01*
X157130833Y-78693333D01*
X157368928Y-78693333D01*
X157464166Y-78740952D01*
X157511785Y-78788571D01*
X157559404Y-78883809D01*
X157559404Y-79121904D01*
X157511785Y-79217142D01*
X157464166Y-79264761D01*
X157368928Y-79312380D01*
X157130833Y-79312380D01*
X157035595Y-79264761D01*
X156987976Y-79217142D01*
X158178452Y-78312380D02*
X158273690Y-78312380D01*
X158368928Y-78360000D01*
X158416547Y-78407619D01*
X158464166Y-78502857D01*
X158511785Y-78693333D01*
X158511785Y-78931428D01*
X158464166Y-79121904D01*
X158416547Y-79217142D01*
X158368928Y-79264761D01*
X158273690Y-79312380D01*
X158178452Y-79312380D01*
X158083214Y-79264761D01*
X158035595Y-79217142D01*
X157987976Y-79121904D01*
X157940357Y-78931428D01*
X157940357Y-78693333D01*
X157987976Y-78502857D01*
X158035595Y-78407619D01*
X158083214Y-78360000D01*
X158178452Y-78312380D01*
X159702261Y-79312380D02*
X159702261Y-78645714D01*
X159702261Y-78740952D02*
X159749880Y-78693333D01*
X159845119Y-78645714D01*
X159987976Y-78645714D01*
X160083214Y-78693333D01*
X160130833Y-78788571D01*
X160130833Y-79312380D01*
X160130833Y-78788571D02*
X160178452Y-78693333D01*
X160273690Y-78645714D01*
X160416547Y-78645714D01*
X160511785Y-78693333D01*
X160559404Y-78788571D01*
X160559404Y-79312380D01*
X161035595Y-79312380D02*
X161035595Y-78645714D01*
X161035595Y-78740952D02*
X161083214Y-78693333D01*
X161178452Y-78645714D01*
X161321309Y-78645714D01*
X161416547Y-78693333D01*
X161464166Y-78788571D01*
X161464166Y-79312380D01*
X161464166Y-78788571D02*
X161511785Y-78693333D01*
X161607023Y-78645714D01*
X161749880Y-78645714D01*
X161845119Y-78693333D01*
X161892738Y-78788571D01*
X161892738Y-79312380D01*
D10*
X162560000Y-85860000D02*
X162560000Y-79423580D01*
X153035000Y-85860000D02*
X153035000Y-79423580D01*
X162560000Y-80010000D02*
X153035000Y-80010000D01*
X162560000Y-80010000D02*
X153035000Y-80010000D01*
X162560000Y-80010000D02*
X161433496Y-79423579D01*
X162560000Y-80010000D02*
X161433496Y-80596421D01*
X153035000Y-80010000D02*
X154161504Y-80596421D01*
X153035000Y-80010000D02*
X154161504Y-79423579D01*
D11*
X120222380Y-109195238D02*
X120222380Y-109671428D01*
X120698571Y-109719047D01*
X120650952Y-109671428D01*
X120603333Y-109576190D01*
X120603333Y-109338095D01*
X120650952Y-109242857D01*
X120698571Y-109195238D01*
X120793809Y-109147619D01*
X121031904Y-109147619D01*
X121127142Y-109195238D01*
X121174761Y-109242857D01*
X121222380Y-109338095D01*
X121222380Y-109576190D01*
X121174761Y-109671428D01*
X121127142Y-109719047D01*
X120222380Y-108814285D02*
X120222380Y-108147619D01*
X121222380Y-108576190D01*
X121174761Y-107719047D02*
X121222380Y-107719047D01*
X121317619Y-107766666D01*
X121365238Y-107814285D01*
X120317619Y-107338095D02*
X120270000Y-107290476D01*
X120222380Y-107195238D01*
X120222380Y-106957142D01*
X120270000Y-106861904D01*
X120317619Y-106814285D01*
X120412857Y-106766666D01*
X120508095Y-106766666D01*
X120650952Y-106814285D01*
X121222380Y-107385714D01*
X121222380Y-106766666D01*
X120222380Y-106147619D02*
X120222380Y-106052380D01*
X120270000Y-105957142D01*
X120317619Y-105909523D01*
X120412857Y-105861904D01*
X120603333Y-105814285D01*
X120841428Y-105814285D01*
X121031904Y-105861904D01*
X121127142Y-105909523D01*
X121174761Y-105957142D01*
X121222380Y-106052380D01*
X121222380Y-106147619D01*
X121174761Y-106242857D01*
X121127142Y-106290476D01*
X121031904Y-106338095D01*
X120841428Y-106385714D01*
X120603333Y-106385714D01*
X120412857Y-106338095D01*
X120317619Y-106290476D01*
X120270000Y-106242857D01*
X120222380Y-106147619D01*
X120222380Y-105195238D02*
X120222380Y-105100000D01*
X120270000Y-105004761D01*
X120317619Y-104957142D01*
X120412857Y-104909523D01*
X120603333Y-104861904D01*
X120841428Y-104861904D01*
X121031904Y-104909523D01*
X121127142Y-104957142D01*
X121174761Y-105004761D01*
X121222380Y-105100000D01*
X121222380Y-105195238D01*
X121174761Y-105290476D01*
X121127142Y-105338095D01*
X121031904Y-105385714D01*
X120841428Y-105433333D01*
X120603333Y-105433333D01*
X120412857Y-105385714D01*
X120317619Y-105338095D01*
X120270000Y-105290476D01*
X120222380Y-105195238D01*
X120222380Y-104242857D02*
X120222380Y-104147619D01*
X120270000Y-104052380D01*
X120317619Y-104004761D01*
X120412857Y-103957142D01*
X120603333Y-103909523D01*
X120841428Y-103909523D01*
X121031904Y-103957142D01*
X121127142Y-104004761D01*
X121174761Y-104052380D01*
X121222380Y-104147619D01*
X121222380Y-104242857D01*
X121174761Y-104338095D01*
X121127142Y-104385714D01*
X121031904Y-104433333D01*
X120841428Y-104480952D01*
X120603333Y-104480952D01*
X120412857Y-104433333D01*
X120317619Y-104385714D01*
X120270000Y-104338095D01*
X120222380Y-104242857D01*
X121222380Y-102719047D02*
X120555714Y-102719047D01*
X120650952Y-102719047D02*
X120603333Y-102671428D01*
X120555714Y-102576190D01*
X120555714Y-102433333D01*
X120603333Y-102338095D01*
X120698571Y-102290476D01*
X121222380Y-102290476D01*
X120698571Y-102290476D02*
X120603333Y-102242857D01*
X120555714Y-102147619D01*
X120555714Y-102004761D01*
X120603333Y-101909523D01*
X120698571Y-101861904D01*
X121222380Y-101861904D01*
X121222380Y-101385714D02*
X120555714Y-101385714D01*
X120650952Y-101385714D02*
X120603333Y-101338095D01*
X120555714Y-101242857D01*
X120555714Y-101100000D01*
X120603333Y-101004761D01*
X120698571Y-100957142D01*
X121222380Y-100957142D01*
X120698571Y-100957142D02*
X120603333Y-100909523D01*
X120555714Y-100814285D01*
X120555714Y-100671428D01*
X120603333Y-100576190D01*
X120698571Y-100528571D01*
X121222380Y-100528571D01*
D10*
X127300000Y-133700000D02*
X121333580Y-133700000D01*
X127300000Y-76500000D02*
X121333580Y-76500000D01*
X121920000Y-133700000D02*
X121920000Y-76500000D01*
X121920000Y-133700000D02*
X121920000Y-76500000D01*
X121920000Y-133700000D02*
X122506421Y-132573496D01*
X121920000Y-133700000D02*
X121333579Y-132573496D01*
X121920000Y-76500000D02*
X121333579Y-77626504D01*
X121920000Y-76500000D02*
X122506421Y-77626504D01*
D11*
X125667380Y-109457619D02*
X125667380Y-110029047D01*
X125667380Y-109743333D02*
X124667380Y-109743333D01*
X124810238Y-109838571D01*
X124905476Y-109933809D01*
X124953095Y-110029047D01*
X124762619Y-109076666D02*
X124715000Y-109029047D01*
X124667380Y-108933809D01*
X124667380Y-108695714D01*
X124715000Y-108600476D01*
X124762619Y-108552857D01*
X124857857Y-108505238D01*
X124953095Y-108505238D01*
X125095952Y-108552857D01*
X125667380Y-109124285D01*
X125667380Y-108505238D01*
X125619761Y-108029047D02*
X125667380Y-108029047D01*
X125762619Y-108076666D01*
X125810238Y-108124285D01*
X124667380Y-107695714D02*
X124667380Y-107029047D01*
X125667380Y-107457619D01*
X124667380Y-106457619D02*
X124667380Y-106362380D01*
X124715000Y-106267142D01*
X124762619Y-106219523D01*
X124857857Y-106171904D01*
X125048333Y-106124285D01*
X125286428Y-106124285D01*
X125476904Y-106171904D01*
X125572142Y-106219523D01*
X125619761Y-106267142D01*
X125667380Y-106362380D01*
X125667380Y-106457619D01*
X125619761Y-106552857D01*
X125572142Y-106600476D01*
X125476904Y-106648095D01*
X125286428Y-106695714D01*
X125048333Y-106695714D01*
X124857857Y-106648095D01*
X124762619Y-106600476D01*
X124715000Y-106552857D01*
X124667380Y-106457619D01*
X124667380Y-105505238D02*
X124667380Y-105410000D01*
X124715000Y-105314761D01*
X124762619Y-105267142D01*
X124857857Y-105219523D01*
X125048333Y-105171904D01*
X125286428Y-105171904D01*
X125476904Y-105219523D01*
X125572142Y-105267142D01*
X125619761Y-105314761D01*
X125667380Y-105410000D01*
X125667380Y-105505238D01*
X125619761Y-105600476D01*
X125572142Y-105648095D01*
X125476904Y-105695714D01*
X125286428Y-105743333D01*
X125048333Y-105743333D01*
X124857857Y-105695714D01*
X124762619Y-105648095D01*
X124715000Y-105600476D01*
X124667380Y-105505238D01*
X124667380Y-104552857D02*
X124667380Y-104457619D01*
X124715000Y-104362380D01*
X124762619Y-104314761D01*
X124857857Y-104267142D01*
X125048333Y-104219523D01*
X125286428Y-104219523D01*
X125476904Y-104267142D01*
X125572142Y-104314761D01*
X125619761Y-104362380D01*
X125667380Y-104457619D01*
X125667380Y-104552857D01*
X125619761Y-104648095D01*
X125572142Y-104695714D01*
X125476904Y-104743333D01*
X125286428Y-104790952D01*
X125048333Y-104790952D01*
X124857857Y-104743333D01*
X124762619Y-104695714D01*
X124715000Y-104648095D01*
X124667380Y-104552857D01*
X125667380Y-103029047D02*
X125000714Y-103029047D01*
X125095952Y-103029047D02*
X125048333Y-102981428D01*
X125000714Y-102886190D01*
X125000714Y-102743333D01*
X125048333Y-102648095D01*
X125143571Y-102600476D01*
X125667380Y-102600476D01*
X125143571Y-102600476D02*
X125048333Y-102552857D01*
X125000714Y-102457619D01*
X125000714Y-102314761D01*
X125048333Y-102219523D01*
X125143571Y-102171904D01*
X125667380Y-102171904D01*
X125667380Y-101695714D02*
X125000714Y-101695714D01*
X125095952Y-101695714D02*
X125048333Y-101648095D01*
X125000714Y-101552857D01*
X125000714Y-101410000D01*
X125048333Y-101314761D01*
X125143571Y-101267142D01*
X125667380Y-101267142D01*
X125143571Y-101267142D02*
X125048333Y-101219523D01*
X125000714Y-101124285D01*
X125000714Y-100981428D01*
X125048333Y-100886190D01*
X125143571Y-100838571D01*
X125667380Y-100838571D01*
D10*
X134120000Y-111760000D02*
X125778580Y-111760000D01*
X134120000Y-99060000D02*
X125778580Y-99060000D01*
X126365000Y-111760000D02*
X126365000Y-99060000D01*
X126365000Y-111760000D02*
X126365000Y-99060000D01*
X126365000Y-111760000D02*
X126951421Y-110633496D01*
X126365000Y-111760000D02*
X125778579Y-110633496D01*
X126365000Y-99060000D02*
X125778579Y-100186504D01*
X126365000Y-99060000D02*
X126951421Y-100186504D01*
D11*
%TO.C,J4*%
X180633809Y-122372380D02*
X180633809Y-121372380D01*
X181062380Y-121467619D02*
X181110000Y-121420000D01*
X181205238Y-121372380D01*
X181443333Y-121372380D01*
X181538571Y-121420000D01*
X181586190Y-121467619D01*
X181633809Y-121562857D01*
X181633809Y-121658095D01*
X181586190Y-121800952D01*
X181014761Y-122372380D01*
X181633809Y-122372380D01*
X182633809Y-122277142D02*
X182586190Y-122324761D01*
X182443333Y-122372380D01*
X182348095Y-122372380D01*
X182205238Y-122324761D01*
X182110000Y-122229523D01*
X182062380Y-122134285D01*
X182014761Y-121943809D01*
X182014761Y-121800952D01*
X182062380Y-121610476D01*
X182110000Y-121515238D01*
X182205238Y-121420000D01*
X182348095Y-121372380D01*
X182443333Y-121372380D01*
X182586190Y-121420000D01*
X182633809Y-121467619D01*
X186777380Y-120030833D02*
X187491666Y-120030833D01*
X187634523Y-120078452D01*
X187729761Y-120173690D01*
X187777380Y-120316547D01*
X187777380Y-120411785D01*
X187110714Y-119126071D02*
X187777380Y-119126071D01*
X186729761Y-119364166D02*
X187444047Y-119602261D01*
X187444047Y-118983214D01*
%TO.C,SW12*%
X160750476Y-113434761D02*
X160893333Y-113482380D01*
X161131428Y-113482380D01*
X161226666Y-113434761D01*
X161274285Y-113387142D01*
X161321904Y-113291904D01*
X161321904Y-113196666D01*
X161274285Y-113101428D01*
X161226666Y-113053809D01*
X161131428Y-113006190D01*
X160940952Y-112958571D01*
X160845714Y-112910952D01*
X160798095Y-112863333D01*
X160750476Y-112768095D01*
X160750476Y-112672857D01*
X160798095Y-112577619D01*
X160845714Y-112530000D01*
X160940952Y-112482380D01*
X161179047Y-112482380D01*
X161321904Y-112530000D01*
X161655238Y-112482380D02*
X161893333Y-113482380D01*
X162083809Y-112768095D01*
X162274285Y-113482380D01*
X162512380Y-112482380D01*
X163417142Y-113482380D02*
X162845714Y-113482380D01*
X163131428Y-113482380D02*
X163131428Y-112482380D01*
X163036190Y-112625238D01*
X162940952Y-112720476D01*
X162845714Y-112768095D01*
X163798095Y-112577619D02*
X163845714Y-112530000D01*
X163940952Y-112482380D01*
X164179047Y-112482380D01*
X164274285Y-112530000D01*
X164321904Y-112577619D01*
X164369523Y-112672857D01*
X164369523Y-112768095D01*
X164321904Y-112910952D01*
X163750476Y-113482380D01*
X164369523Y-113482380D01*
%TO.C,SW7*%
X151701666Y-99464761D02*
X151844523Y-99512380D01*
X152082619Y-99512380D01*
X152177857Y-99464761D01*
X152225476Y-99417142D01*
X152273095Y-99321904D01*
X152273095Y-99226666D01*
X152225476Y-99131428D01*
X152177857Y-99083809D01*
X152082619Y-99036190D01*
X151892142Y-98988571D01*
X151796904Y-98940952D01*
X151749285Y-98893333D01*
X151701666Y-98798095D01*
X151701666Y-98702857D01*
X151749285Y-98607619D01*
X151796904Y-98560000D01*
X151892142Y-98512380D01*
X152130238Y-98512380D01*
X152273095Y-98560000D01*
X152606428Y-98512380D02*
X152844523Y-99512380D01*
X153035000Y-98798095D01*
X153225476Y-99512380D01*
X153463571Y-98512380D01*
X153749285Y-98512380D02*
X154415952Y-98512380D01*
X153987380Y-99512380D01*
%TO.C,SW5*%
X132726666Y-100734761D02*
X132869523Y-100782380D01*
X133107619Y-100782380D01*
X133202857Y-100734761D01*
X133250476Y-100687142D01*
X133298095Y-100591904D01*
X133298095Y-100496666D01*
X133250476Y-100401428D01*
X133202857Y-100353809D01*
X133107619Y-100306190D01*
X132917142Y-100258571D01*
X132821904Y-100210952D01*
X132774285Y-100163333D01*
X132726666Y-100068095D01*
X132726666Y-99972857D01*
X132774285Y-99877619D01*
X132821904Y-99830000D01*
X132917142Y-99782380D01*
X133155238Y-99782380D01*
X133298095Y-99830000D01*
X133631428Y-99782380D02*
X133869523Y-100782380D01*
X134060000Y-100068095D01*
X134250476Y-100782380D01*
X134488571Y-99782380D01*
X135345714Y-99782380D02*
X134869523Y-99782380D01*
X134821904Y-100258571D01*
X134869523Y-100210952D01*
X134964761Y-100163333D01*
X135202857Y-100163333D01*
X135298095Y-100210952D01*
X135345714Y-100258571D01*
X135393333Y-100353809D01*
X135393333Y-100591904D01*
X135345714Y-100687142D01*
X135298095Y-100734761D01*
X135202857Y-100782380D01*
X134964761Y-100782380D01*
X134869523Y-100734761D01*
X134821904Y-100687142D01*
%TO.C,J2*%
X181269761Y-131557380D02*
X181841190Y-131557380D01*
X181555476Y-132557380D02*
X181555476Y-131557380D01*
X182174523Y-132033571D02*
X182507857Y-132033571D01*
X182650714Y-132557380D02*
X182174523Y-132557380D01*
X182174523Y-131557380D01*
X182650714Y-131557380D01*
X183031666Y-132509761D02*
X183174523Y-132557380D01*
X183412619Y-132557380D01*
X183507857Y-132509761D01*
X183555476Y-132462142D01*
X183603095Y-132366904D01*
X183603095Y-132271666D01*
X183555476Y-132176428D01*
X183507857Y-132128809D01*
X183412619Y-132081190D01*
X183222142Y-132033571D01*
X183126904Y-131985952D01*
X183079285Y-131938333D01*
X183031666Y-131843095D01*
X183031666Y-131747857D01*
X183079285Y-131652619D01*
X183126904Y-131605000D01*
X183222142Y-131557380D01*
X183460238Y-131557380D01*
X183603095Y-131605000D01*
X183888809Y-131557380D02*
X184460238Y-131557380D01*
X184174523Y-132557380D02*
X184174523Y-131557380D01*
X182546666Y-128992380D02*
X182546666Y-129706666D01*
X182499047Y-129849523D01*
X182403809Y-129944761D01*
X182260952Y-129992380D01*
X182165714Y-129992380D01*
X182975238Y-129087619D02*
X183022857Y-129040000D01*
X183118095Y-128992380D01*
X183356190Y-128992380D01*
X183451428Y-129040000D01*
X183499047Y-129087619D01*
X183546666Y-129182857D01*
X183546666Y-129278095D01*
X183499047Y-129420952D01*
X182927619Y-129992380D01*
X183546666Y-129992380D01*
%TO.C,SW13*%
X132175476Y-126134761D02*
X132318333Y-126182380D01*
X132556428Y-126182380D01*
X132651666Y-126134761D01*
X132699285Y-126087142D01*
X132746904Y-125991904D01*
X132746904Y-125896666D01*
X132699285Y-125801428D01*
X132651666Y-125753809D01*
X132556428Y-125706190D01*
X132365952Y-125658571D01*
X132270714Y-125610952D01*
X132223095Y-125563333D01*
X132175476Y-125468095D01*
X132175476Y-125372857D01*
X132223095Y-125277619D01*
X132270714Y-125230000D01*
X132365952Y-125182380D01*
X132604047Y-125182380D01*
X132746904Y-125230000D01*
X133080238Y-125182380D02*
X133318333Y-126182380D01*
X133508809Y-125468095D01*
X133699285Y-126182380D01*
X133937380Y-125182380D01*
X134842142Y-126182380D02*
X134270714Y-126182380D01*
X134556428Y-126182380D02*
X134556428Y-125182380D01*
X134461190Y-125325238D01*
X134365952Y-125420476D01*
X134270714Y-125468095D01*
X135175476Y-125182380D02*
X135794523Y-125182380D01*
X135461190Y-125563333D01*
X135604047Y-125563333D01*
X135699285Y-125610952D01*
X135746904Y-125658571D01*
X135794523Y-125753809D01*
X135794523Y-125991904D01*
X135746904Y-126087142D01*
X135699285Y-126134761D01*
X135604047Y-126182380D01*
X135318333Y-126182380D01*
X135223095Y-126134761D01*
X135175476Y-126087142D01*
%TO.C,SW10*%
X141700476Y-113434761D02*
X141843333Y-113482380D01*
X142081428Y-113482380D01*
X142176666Y-113434761D01*
X142224285Y-113387142D01*
X142271904Y-113291904D01*
X142271904Y-113196666D01*
X142224285Y-113101428D01*
X142176666Y-113053809D01*
X142081428Y-113006190D01*
X141890952Y-112958571D01*
X141795714Y-112910952D01*
X141748095Y-112863333D01*
X141700476Y-112768095D01*
X141700476Y-112672857D01*
X141748095Y-112577619D01*
X141795714Y-112530000D01*
X141890952Y-112482380D01*
X142129047Y-112482380D01*
X142271904Y-112530000D01*
X142605238Y-112482380D02*
X142843333Y-113482380D01*
X143033809Y-112768095D01*
X143224285Y-113482380D01*
X143462380Y-112482380D01*
X144367142Y-113482380D02*
X143795714Y-113482380D01*
X144081428Y-113482380D02*
X144081428Y-112482380D01*
X143986190Y-112625238D01*
X143890952Y-112720476D01*
X143795714Y-112768095D01*
X144986190Y-112482380D02*
X145081428Y-112482380D01*
X145176666Y-112530000D01*
X145224285Y-112577619D01*
X145271904Y-112672857D01*
X145319523Y-112863333D01*
X145319523Y-113101428D01*
X145271904Y-113291904D01*
X145224285Y-113387142D01*
X145176666Y-113434761D01*
X145081428Y-113482380D01*
X144986190Y-113482380D01*
X144890952Y-113434761D01*
X144843333Y-113387142D01*
X144795714Y-113291904D01*
X144748095Y-113101428D01*
X144748095Y-112863333D01*
X144795714Y-112672857D01*
X144843333Y-112577619D01*
X144890952Y-112530000D01*
X144986190Y-112482380D01*
%TO.C,SW1*%
X132651666Y-88034761D02*
X132794523Y-88082380D01*
X133032619Y-88082380D01*
X133127857Y-88034761D01*
X133175476Y-87987142D01*
X133223095Y-87891904D01*
X133223095Y-87796666D01*
X133175476Y-87701428D01*
X133127857Y-87653809D01*
X133032619Y-87606190D01*
X132842142Y-87558571D01*
X132746904Y-87510952D01*
X132699285Y-87463333D01*
X132651666Y-87368095D01*
X132651666Y-87272857D01*
X132699285Y-87177619D01*
X132746904Y-87130000D01*
X132842142Y-87082380D01*
X133080238Y-87082380D01*
X133223095Y-87130000D01*
X133556428Y-87082380D02*
X133794523Y-88082380D01*
X133985000Y-87368095D01*
X134175476Y-88082380D01*
X134413571Y-87082380D01*
X135318333Y-88082380D02*
X134746904Y-88082380D01*
X135032619Y-88082380D02*
X135032619Y-87082380D01*
X134937380Y-87225238D01*
X134842142Y-87320476D01*
X134746904Y-87368095D01*
%TO.C,SW3*%
X151701666Y-88034761D02*
X151844523Y-88082380D01*
X152082619Y-88082380D01*
X152177857Y-88034761D01*
X152225476Y-87987142D01*
X152273095Y-87891904D01*
X152273095Y-87796666D01*
X152225476Y-87701428D01*
X152177857Y-87653809D01*
X152082619Y-87606190D01*
X151892142Y-87558571D01*
X151796904Y-87510952D01*
X151749285Y-87463333D01*
X151701666Y-87368095D01*
X151701666Y-87272857D01*
X151749285Y-87177619D01*
X151796904Y-87130000D01*
X151892142Y-87082380D01*
X152130238Y-87082380D01*
X152273095Y-87130000D01*
X152606428Y-87082380D02*
X152844523Y-88082380D01*
X153035000Y-87368095D01*
X153225476Y-88082380D01*
X153463571Y-87082380D01*
X153749285Y-87082380D02*
X154368333Y-87082380D01*
X154035000Y-87463333D01*
X154177857Y-87463333D01*
X154273095Y-87510952D01*
X154320714Y-87558571D01*
X154368333Y-87653809D01*
X154368333Y-87891904D01*
X154320714Y-87987142D01*
X154273095Y-88034761D01*
X154177857Y-88082380D01*
X153892142Y-88082380D01*
X153796904Y-88034761D01*
X153749285Y-87987142D01*
%TO.C,SW16*%
X160750476Y-127364761D02*
X160893333Y-127412380D01*
X161131428Y-127412380D01*
X161226666Y-127364761D01*
X161274285Y-127317142D01*
X161321904Y-127221904D01*
X161321904Y-127126666D01*
X161274285Y-127031428D01*
X161226666Y-126983809D01*
X161131428Y-126936190D01*
X160940952Y-126888571D01*
X160845714Y-126840952D01*
X160798095Y-126793333D01*
X160750476Y-126698095D01*
X160750476Y-126602857D01*
X160798095Y-126507619D01*
X160845714Y-126460000D01*
X160940952Y-126412380D01*
X161179047Y-126412380D01*
X161321904Y-126460000D01*
X161655238Y-126412380D02*
X161893333Y-127412380D01*
X162083809Y-126698095D01*
X162274285Y-127412380D01*
X162512380Y-126412380D01*
X163417142Y-127412380D02*
X162845714Y-127412380D01*
X163131428Y-127412380D02*
X163131428Y-126412380D01*
X163036190Y-126555238D01*
X162940952Y-126650476D01*
X162845714Y-126698095D01*
X164274285Y-126412380D02*
X164083809Y-126412380D01*
X163988571Y-126460000D01*
X163940952Y-126507619D01*
X163845714Y-126650476D01*
X163798095Y-126840952D01*
X163798095Y-127221904D01*
X163845714Y-127317142D01*
X163893333Y-127364761D01*
X163988571Y-127412380D01*
X164179047Y-127412380D01*
X164274285Y-127364761D01*
X164321904Y-127317142D01*
X164369523Y-127221904D01*
X164369523Y-126983809D01*
X164321904Y-126888571D01*
X164274285Y-126840952D01*
X164179047Y-126793333D01*
X163988571Y-126793333D01*
X163893333Y-126840952D01*
X163845714Y-126888571D01*
X163798095Y-126983809D01*
%TO.C,SW8*%
X161226666Y-99464761D02*
X161369523Y-99512380D01*
X161607619Y-99512380D01*
X161702857Y-99464761D01*
X161750476Y-99417142D01*
X161798095Y-99321904D01*
X161798095Y-99226666D01*
X161750476Y-99131428D01*
X161702857Y-99083809D01*
X161607619Y-99036190D01*
X161417142Y-98988571D01*
X161321904Y-98940952D01*
X161274285Y-98893333D01*
X161226666Y-98798095D01*
X161226666Y-98702857D01*
X161274285Y-98607619D01*
X161321904Y-98560000D01*
X161417142Y-98512380D01*
X161655238Y-98512380D01*
X161798095Y-98560000D01*
X162131428Y-98512380D02*
X162369523Y-99512380D01*
X162560000Y-98798095D01*
X162750476Y-99512380D01*
X162988571Y-98512380D01*
X163512380Y-98940952D02*
X163417142Y-98893333D01*
X163369523Y-98845714D01*
X163321904Y-98750476D01*
X163321904Y-98702857D01*
X163369523Y-98607619D01*
X163417142Y-98560000D01*
X163512380Y-98512380D01*
X163702857Y-98512380D01*
X163798095Y-98560000D01*
X163845714Y-98607619D01*
X163893333Y-98702857D01*
X163893333Y-98750476D01*
X163845714Y-98845714D01*
X163798095Y-98893333D01*
X163702857Y-98940952D01*
X163512380Y-98940952D01*
X163417142Y-98988571D01*
X163369523Y-99036190D01*
X163321904Y-99131428D01*
X163321904Y-99321904D01*
X163369523Y-99417142D01*
X163417142Y-99464761D01*
X163512380Y-99512380D01*
X163702857Y-99512380D01*
X163798095Y-99464761D01*
X163845714Y-99417142D01*
X163893333Y-99321904D01*
X163893333Y-99131428D01*
X163845714Y-99036190D01*
X163798095Y-98988571D01*
X163702857Y-98940952D01*
%TO.C,SW9*%
X132651666Y-113434761D02*
X132794523Y-113482380D01*
X133032619Y-113482380D01*
X133127857Y-113434761D01*
X133175476Y-113387142D01*
X133223095Y-113291904D01*
X133223095Y-113196666D01*
X133175476Y-113101428D01*
X133127857Y-113053809D01*
X133032619Y-113006190D01*
X132842142Y-112958571D01*
X132746904Y-112910952D01*
X132699285Y-112863333D01*
X132651666Y-112768095D01*
X132651666Y-112672857D01*
X132699285Y-112577619D01*
X132746904Y-112530000D01*
X132842142Y-112482380D01*
X133080238Y-112482380D01*
X133223095Y-112530000D01*
X133556428Y-112482380D02*
X133794523Y-113482380D01*
X133985000Y-112768095D01*
X134175476Y-113482380D01*
X134413571Y-112482380D01*
X134842142Y-113482380D02*
X135032619Y-113482380D01*
X135127857Y-113434761D01*
X135175476Y-113387142D01*
X135270714Y-113244285D01*
X135318333Y-113053809D01*
X135318333Y-112672857D01*
X135270714Y-112577619D01*
X135223095Y-112530000D01*
X135127857Y-112482380D01*
X134937380Y-112482380D01*
X134842142Y-112530000D01*
X134794523Y-112577619D01*
X134746904Y-112672857D01*
X134746904Y-112910952D01*
X134794523Y-113006190D01*
X134842142Y-113053809D01*
X134937380Y-113101428D01*
X135127857Y-113101428D01*
X135223095Y-113053809D01*
X135270714Y-113006190D01*
X135318333Y-112910952D01*
%TO.C,SW2*%
X142176666Y-88034761D02*
X142319523Y-88082380D01*
X142557619Y-88082380D01*
X142652857Y-88034761D01*
X142700476Y-87987142D01*
X142748095Y-87891904D01*
X142748095Y-87796666D01*
X142700476Y-87701428D01*
X142652857Y-87653809D01*
X142557619Y-87606190D01*
X142367142Y-87558571D01*
X142271904Y-87510952D01*
X142224285Y-87463333D01*
X142176666Y-87368095D01*
X142176666Y-87272857D01*
X142224285Y-87177619D01*
X142271904Y-87130000D01*
X142367142Y-87082380D01*
X142605238Y-87082380D01*
X142748095Y-87130000D01*
X143081428Y-87082380D02*
X143319523Y-88082380D01*
X143510000Y-87368095D01*
X143700476Y-88082380D01*
X143938571Y-87082380D01*
X144271904Y-87177619D02*
X144319523Y-87130000D01*
X144414761Y-87082380D01*
X144652857Y-87082380D01*
X144748095Y-87130000D01*
X144795714Y-87177619D01*
X144843333Y-87272857D01*
X144843333Y-87368095D01*
X144795714Y-87510952D01*
X144224285Y-88082380D01*
X144843333Y-88082380D01*
%TO.C,SW4*%
X161226666Y-88034761D02*
X161369523Y-88082380D01*
X161607619Y-88082380D01*
X161702857Y-88034761D01*
X161750476Y-87987142D01*
X161798095Y-87891904D01*
X161798095Y-87796666D01*
X161750476Y-87701428D01*
X161702857Y-87653809D01*
X161607619Y-87606190D01*
X161417142Y-87558571D01*
X161321904Y-87510952D01*
X161274285Y-87463333D01*
X161226666Y-87368095D01*
X161226666Y-87272857D01*
X161274285Y-87177619D01*
X161321904Y-87130000D01*
X161417142Y-87082380D01*
X161655238Y-87082380D01*
X161798095Y-87130000D01*
X162131428Y-87082380D02*
X162369523Y-88082380D01*
X162560000Y-87368095D01*
X162750476Y-88082380D01*
X162988571Y-87082380D01*
X163798095Y-87415714D02*
X163798095Y-88082380D01*
X163560000Y-87034761D02*
X163321904Y-87749047D01*
X163940952Y-87749047D01*
%TO.C,SW15*%
X151225476Y-126134761D02*
X151368333Y-126182380D01*
X151606428Y-126182380D01*
X151701666Y-126134761D01*
X151749285Y-126087142D01*
X151796904Y-125991904D01*
X151796904Y-125896666D01*
X151749285Y-125801428D01*
X151701666Y-125753809D01*
X151606428Y-125706190D01*
X151415952Y-125658571D01*
X151320714Y-125610952D01*
X151273095Y-125563333D01*
X151225476Y-125468095D01*
X151225476Y-125372857D01*
X151273095Y-125277619D01*
X151320714Y-125230000D01*
X151415952Y-125182380D01*
X151654047Y-125182380D01*
X151796904Y-125230000D01*
X152130238Y-125182380D02*
X152368333Y-126182380D01*
X152558809Y-125468095D01*
X152749285Y-126182380D01*
X152987380Y-125182380D01*
X153892142Y-126182380D02*
X153320714Y-126182380D01*
X153606428Y-126182380D02*
X153606428Y-125182380D01*
X153511190Y-125325238D01*
X153415952Y-125420476D01*
X153320714Y-125468095D01*
X154796904Y-125182380D02*
X154320714Y-125182380D01*
X154273095Y-125658571D01*
X154320714Y-125610952D01*
X154415952Y-125563333D01*
X154654047Y-125563333D01*
X154749285Y-125610952D01*
X154796904Y-125658571D01*
X154844523Y-125753809D01*
X154844523Y-125991904D01*
X154796904Y-126087142D01*
X154749285Y-126134761D01*
X154654047Y-126182380D01*
X154415952Y-126182380D01*
X154320714Y-126134761D01*
X154273095Y-126087142D01*
%TO.C,SW6*%
X142176666Y-99464761D02*
X142319523Y-99512380D01*
X142557619Y-99512380D01*
X142652857Y-99464761D01*
X142700476Y-99417142D01*
X142748095Y-99321904D01*
X142748095Y-99226666D01*
X142700476Y-99131428D01*
X142652857Y-99083809D01*
X142557619Y-99036190D01*
X142367142Y-98988571D01*
X142271904Y-98940952D01*
X142224285Y-98893333D01*
X142176666Y-98798095D01*
X142176666Y-98702857D01*
X142224285Y-98607619D01*
X142271904Y-98560000D01*
X142367142Y-98512380D01*
X142605238Y-98512380D01*
X142748095Y-98560000D01*
X143081428Y-98512380D02*
X143319523Y-99512380D01*
X143510000Y-98798095D01*
X143700476Y-99512380D01*
X143938571Y-98512380D01*
X144748095Y-98512380D02*
X144557619Y-98512380D01*
X144462380Y-98560000D01*
X144414761Y-98607619D01*
X144319523Y-98750476D01*
X144271904Y-98940952D01*
X144271904Y-99321904D01*
X144319523Y-99417142D01*
X144367142Y-99464761D01*
X144462380Y-99512380D01*
X144652857Y-99512380D01*
X144748095Y-99464761D01*
X144795714Y-99417142D01*
X144843333Y-99321904D01*
X144843333Y-99083809D01*
X144795714Y-98988571D01*
X144748095Y-98940952D01*
X144652857Y-98893333D01*
X144462380Y-98893333D01*
X144367142Y-98940952D01*
X144319523Y-98988571D01*
X144271904Y-99083809D01*
%TO.C,SW14*%
X141700476Y-126134761D02*
X141843333Y-126182380D01*
X142081428Y-126182380D01*
X142176666Y-126134761D01*
X142224285Y-126087142D01*
X142271904Y-125991904D01*
X142271904Y-125896666D01*
X142224285Y-125801428D01*
X142176666Y-125753809D01*
X142081428Y-125706190D01*
X141890952Y-125658571D01*
X141795714Y-125610952D01*
X141748095Y-125563333D01*
X141700476Y-125468095D01*
X141700476Y-125372857D01*
X141748095Y-125277619D01*
X141795714Y-125230000D01*
X141890952Y-125182380D01*
X142129047Y-125182380D01*
X142271904Y-125230000D01*
X142605238Y-125182380D02*
X142843333Y-126182380D01*
X143033809Y-125468095D01*
X143224285Y-126182380D01*
X143462380Y-125182380D01*
X144367142Y-126182380D02*
X143795714Y-126182380D01*
X144081428Y-126182380D02*
X144081428Y-125182380D01*
X143986190Y-125325238D01*
X143890952Y-125420476D01*
X143795714Y-125468095D01*
X145224285Y-125515714D02*
X145224285Y-126182380D01*
X144986190Y-125134761D02*
X144748095Y-125849047D01*
X145367142Y-125849047D01*
%TO.C,SW11*%
X151225476Y-113434761D02*
X151368333Y-113482380D01*
X151606428Y-113482380D01*
X151701666Y-113434761D01*
X151749285Y-113387142D01*
X151796904Y-113291904D01*
X151796904Y-113196666D01*
X151749285Y-113101428D01*
X151701666Y-113053809D01*
X151606428Y-113006190D01*
X151415952Y-112958571D01*
X151320714Y-112910952D01*
X151273095Y-112863333D01*
X151225476Y-112768095D01*
X151225476Y-112672857D01*
X151273095Y-112577619D01*
X151320714Y-112530000D01*
X151415952Y-112482380D01*
X151654047Y-112482380D01*
X151796904Y-112530000D01*
X152130238Y-112482380D02*
X152368333Y-113482380D01*
X152558809Y-112768095D01*
X152749285Y-113482380D01*
X152987380Y-112482380D01*
X153892142Y-113482380D02*
X153320714Y-113482380D01*
X153606428Y-113482380D02*
X153606428Y-112482380D01*
X153511190Y-112625238D01*
X153415952Y-112720476D01*
X153320714Y-112768095D01*
X154844523Y-113482380D02*
X154273095Y-113482380D01*
X154558809Y-113482380D02*
X154558809Y-112482380D01*
X154463571Y-112625238D01*
X154368333Y-112720476D01*
X154273095Y-112768095D01*
D10*
%TO.C,J4*%
X176530000Y-118110000D02*
X186055000Y-118110000D01*
X186690000Y-118745000D02*
X186690000Y-120650000D01*
X186690000Y-120650000D02*
X176530000Y-120650000D01*
X176530000Y-120650000D02*
X176530000Y-118110000D01*
X186055000Y-118110000D02*
X186690000Y-118745000D01*
%TO.C,J2*%
X179070000Y-130810000D02*
X179070000Y-128905000D01*
X186690000Y-128270000D02*
X186690000Y-130810000D01*
X179070000Y-128905000D02*
X179705000Y-128270000D01*
X186690000Y-130810000D02*
X179070000Y-130810000D01*
X179705000Y-128270000D02*
X186690000Y-128270000D01*
%TD*%
M02*
