%TF.GenerationSoftware,KiCad,Pcbnew,(6.0.8)*%
%TF.CreationDate,2022-11-01T17:44:15+01:00*%
%TF.ProjectId,BURC_16SwitchEncoder_JRFormat,42555243-5f31-4365-9377-69746368456e,v1.0*%
%TF.SameCoordinates,Original*%
%TF.FileFunction,Legend,Top*%
%TF.FilePolarity,Positive*%
%FSLAX46Y46*%
G04 Gerber Fmt 4.6, Leading zero omitted, Abs format (unit mm)*
G04 Created by KiCad (PCBNEW (6.0.8)) date 2022-11-01 17:44:15*
%MOMM*%
%LPD*%
G01*
G04 APERTURE LIST*
%ADD10C,0.170000*%
%ADD11C,0.150000*%
%ADD12C,0.120000*%
G04 APERTURE END LIST*
D10*
X166770476Y-129350452D02*
X167600476Y-129073785D01*
X166770476Y-128797119D01*
X167600476Y-128085690D02*
X167600476Y-128559976D01*
X167600476Y-128322833D02*
X166770476Y-128322833D01*
X166889047Y-128401880D01*
X166968095Y-128480928D01*
X167007619Y-128559976D01*
X167521428Y-127729976D02*
X167560952Y-127690452D01*
X167600476Y-127729976D01*
X167560952Y-127769500D01*
X167521428Y-127729976D01*
X167600476Y-127729976D01*
X166770476Y-127176642D02*
X166770476Y-127097595D01*
X166810000Y-127018547D01*
X166849523Y-126979023D01*
X166928571Y-126939500D01*
X167086666Y-126899976D01*
X167284285Y-126899976D01*
X167442380Y-126939500D01*
X167521428Y-126979023D01*
X167560952Y-127018547D01*
X167600476Y-127097595D01*
X167600476Y-127176642D01*
X167560952Y-127255690D01*
X167521428Y-127295214D01*
X167442380Y-127334738D01*
X167284285Y-127374261D01*
X167086666Y-127374261D01*
X166928571Y-127334738D01*
X166849523Y-127295214D01*
X166810000Y-127255690D01*
X166770476Y-127176642D01*
X167165714Y-125635214D02*
X167205238Y-125516642D01*
X167244761Y-125477119D01*
X167323809Y-125437595D01*
X167442380Y-125437595D01*
X167521428Y-125477119D01*
X167560952Y-125516642D01*
X167600476Y-125595690D01*
X167600476Y-125911880D01*
X166770476Y-125911880D01*
X166770476Y-125635214D01*
X166810000Y-125556166D01*
X166849523Y-125516642D01*
X166928571Y-125477119D01*
X167007619Y-125477119D01*
X167086666Y-125516642D01*
X167126190Y-125556166D01*
X167165714Y-125635214D01*
X167165714Y-125911880D01*
X166770476Y-125081880D02*
X167442380Y-125081880D01*
X167521428Y-125042357D01*
X167560952Y-125002833D01*
X167600476Y-124923785D01*
X167600476Y-124765690D01*
X167560952Y-124686642D01*
X167521428Y-124647119D01*
X167442380Y-124607595D01*
X166770476Y-124607595D01*
X167600476Y-123738071D02*
X167205238Y-124014738D01*
X167600476Y-124212357D02*
X166770476Y-124212357D01*
X166770476Y-123896166D01*
X166810000Y-123817119D01*
X166849523Y-123777595D01*
X166928571Y-123738071D01*
X167047142Y-123738071D01*
X167126190Y-123777595D01*
X167165714Y-123817119D01*
X167205238Y-123896166D01*
X167205238Y-124212357D01*
X167521428Y-122908071D02*
X167560952Y-122947595D01*
X167600476Y-123066166D01*
X167600476Y-123145214D01*
X167560952Y-123263785D01*
X167481904Y-123342833D01*
X167402857Y-123382357D01*
X167244761Y-123421880D01*
X167126190Y-123421880D01*
X166968095Y-123382357D01*
X166889047Y-123342833D01*
X166810000Y-123263785D01*
X166770476Y-123145214D01*
X166770476Y-123066166D01*
X166810000Y-122947595D01*
X166849523Y-122908071D01*
X166730952Y-121959500D02*
X167798095Y-122670928D01*
X166770476Y-121445690D02*
X167363333Y-121445690D01*
X167481904Y-121485214D01*
X167560952Y-121564261D01*
X167600476Y-121682833D01*
X167600476Y-121761880D01*
X167600476Y-120576166D02*
X167205238Y-120852833D01*
X167600476Y-121050452D02*
X166770476Y-121050452D01*
X166770476Y-120734261D01*
X166810000Y-120655214D01*
X166849523Y-120615690D01*
X166928571Y-120576166D01*
X167047142Y-120576166D01*
X167126190Y-120615690D01*
X167165714Y-120655214D01*
X167205238Y-120734261D01*
X167205238Y-121050452D01*
D11*
%TO.C,J4*%
X187416666Y-118832380D02*
X187416666Y-119546666D01*
X187369047Y-119689523D01*
X187273809Y-119784761D01*
X187130952Y-119832380D01*
X187035714Y-119832380D01*
X188321428Y-119165714D02*
X188321428Y-119832380D01*
X188083333Y-118784761D02*
X187845238Y-119499047D01*
X188464285Y-119499047D01*
%TO.C,SW12*%
X160750476Y-112164761D02*
X160893333Y-112212380D01*
X161131428Y-112212380D01*
X161226666Y-112164761D01*
X161274285Y-112117142D01*
X161321904Y-112021904D01*
X161321904Y-111926666D01*
X161274285Y-111831428D01*
X161226666Y-111783809D01*
X161131428Y-111736190D01*
X160940952Y-111688571D01*
X160845714Y-111640952D01*
X160798095Y-111593333D01*
X160750476Y-111498095D01*
X160750476Y-111402857D01*
X160798095Y-111307619D01*
X160845714Y-111260000D01*
X160940952Y-111212380D01*
X161179047Y-111212380D01*
X161321904Y-111260000D01*
X161655238Y-111212380D02*
X161893333Y-112212380D01*
X162083809Y-111498095D01*
X162274285Y-112212380D01*
X162512380Y-111212380D01*
X163417142Y-112212380D02*
X162845714Y-112212380D01*
X163131428Y-112212380D02*
X163131428Y-111212380D01*
X163036190Y-111355238D01*
X162940952Y-111450476D01*
X162845714Y-111498095D01*
X163798095Y-111307619D02*
X163845714Y-111260000D01*
X163940952Y-111212380D01*
X164179047Y-111212380D01*
X164274285Y-111260000D01*
X164321904Y-111307619D01*
X164369523Y-111402857D01*
X164369523Y-111498095D01*
X164321904Y-111640952D01*
X163750476Y-112212380D01*
X164369523Y-112212380D01*
%TO.C,SW7*%
X151701666Y-99464761D02*
X151844523Y-99512380D01*
X152082619Y-99512380D01*
X152177857Y-99464761D01*
X152225476Y-99417142D01*
X152273095Y-99321904D01*
X152273095Y-99226666D01*
X152225476Y-99131428D01*
X152177857Y-99083809D01*
X152082619Y-99036190D01*
X151892142Y-98988571D01*
X151796904Y-98940952D01*
X151749285Y-98893333D01*
X151701666Y-98798095D01*
X151701666Y-98702857D01*
X151749285Y-98607619D01*
X151796904Y-98560000D01*
X151892142Y-98512380D01*
X152130238Y-98512380D01*
X152273095Y-98560000D01*
X152606428Y-98512380D02*
X152844523Y-99512380D01*
X153035000Y-98798095D01*
X153225476Y-99512380D01*
X153463571Y-98512380D01*
X153749285Y-98512380D02*
X154415952Y-98512380D01*
X153987380Y-99512380D01*
%TO.C,SW5*%
X132651666Y-99464761D02*
X132794523Y-99512380D01*
X133032619Y-99512380D01*
X133127857Y-99464761D01*
X133175476Y-99417142D01*
X133223095Y-99321904D01*
X133223095Y-99226666D01*
X133175476Y-99131428D01*
X133127857Y-99083809D01*
X133032619Y-99036190D01*
X132842142Y-98988571D01*
X132746904Y-98940952D01*
X132699285Y-98893333D01*
X132651666Y-98798095D01*
X132651666Y-98702857D01*
X132699285Y-98607619D01*
X132746904Y-98560000D01*
X132842142Y-98512380D01*
X133080238Y-98512380D01*
X133223095Y-98560000D01*
X133556428Y-98512380D02*
X133794523Y-99512380D01*
X133985000Y-98798095D01*
X134175476Y-99512380D01*
X134413571Y-98512380D01*
X135270714Y-98512380D02*
X134794523Y-98512380D01*
X134746904Y-98988571D01*
X134794523Y-98940952D01*
X134889761Y-98893333D01*
X135127857Y-98893333D01*
X135223095Y-98940952D01*
X135270714Y-98988571D01*
X135318333Y-99083809D01*
X135318333Y-99321904D01*
X135270714Y-99417142D01*
X135223095Y-99464761D01*
X135127857Y-99512380D01*
X134889761Y-99512380D01*
X134794523Y-99464761D01*
X134746904Y-99417142D01*
%TO.C,J2*%
X177451666Y-128992380D02*
X177451666Y-129706666D01*
X177404047Y-129849523D01*
X177308809Y-129944761D01*
X177165952Y-129992380D01*
X177070714Y-129992380D01*
X177880238Y-129087619D02*
X177927857Y-129040000D01*
X178023095Y-128992380D01*
X178261190Y-128992380D01*
X178356428Y-129040000D01*
X178404047Y-129087619D01*
X178451666Y-129182857D01*
X178451666Y-129278095D01*
X178404047Y-129420952D01*
X177832619Y-129992380D01*
X178451666Y-129992380D01*
%TO.C,SW13*%
X132175476Y-124864761D02*
X132318333Y-124912380D01*
X132556428Y-124912380D01*
X132651666Y-124864761D01*
X132699285Y-124817142D01*
X132746904Y-124721904D01*
X132746904Y-124626666D01*
X132699285Y-124531428D01*
X132651666Y-124483809D01*
X132556428Y-124436190D01*
X132365952Y-124388571D01*
X132270714Y-124340952D01*
X132223095Y-124293333D01*
X132175476Y-124198095D01*
X132175476Y-124102857D01*
X132223095Y-124007619D01*
X132270714Y-123960000D01*
X132365952Y-123912380D01*
X132604047Y-123912380D01*
X132746904Y-123960000D01*
X133080238Y-123912380D02*
X133318333Y-124912380D01*
X133508809Y-124198095D01*
X133699285Y-124912380D01*
X133937380Y-123912380D01*
X134842142Y-124912380D02*
X134270714Y-124912380D01*
X134556428Y-124912380D02*
X134556428Y-123912380D01*
X134461190Y-124055238D01*
X134365952Y-124150476D01*
X134270714Y-124198095D01*
X135175476Y-123912380D02*
X135794523Y-123912380D01*
X135461190Y-124293333D01*
X135604047Y-124293333D01*
X135699285Y-124340952D01*
X135746904Y-124388571D01*
X135794523Y-124483809D01*
X135794523Y-124721904D01*
X135746904Y-124817142D01*
X135699285Y-124864761D01*
X135604047Y-124912380D01*
X135318333Y-124912380D01*
X135223095Y-124864761D01*
X135175476Y-124817142D01*
%TO.C,SW10*%
X141700476Y-112164761D02*
X141843333Y-112212380D01*
X142081428Y-112212380D01*
X142176666Y-112164761D01*
X142224285Y-112117142D01*
X142271904Y-112021904D01*
X142271904Y-111926666D01*
X142224285Y-111831428D01*
X142176666Y-111783809D01*
X142081428Y-111736190D01*
X141890952Y-111688571D01*
X141795714Y-111640952D01*
X141748095Y-111593333D01*
X141700476Y-111498095D01*
X141700476Y-111402857D01*
X141748095Y-111307619D01*
X141795714Y-111260000D01*
X141890952Y-111212380D01*
X142129047Y-111212380D01*
X142271904Y-111260000D01*
X142605238Y-111212380D02*
X142843333Y-112212380D01*
X143033809Y-111498095D01*
X143224285Y-112212380D01*
X143462380Y-111212380D01*
X144367142Y-112212380D02*
X143795714Y-112212380D01*
X144081428Y-112212380D02*
X144081428Y-111212380D01*
X143986190Y-111355238D01*
X143890952Y-111450476D01*
X143795714Y-111498095D01*
X144986190Y-111212380D02*
X145081428Y-111212380D01*
X145176666Y-111260000D01*
X145224285Y-111307619D01*
X145271904Y-111402857D01*
X145319523Y-111593333D01*
X145319523Y-111831428D01*
X145271904Y-112021904D01*
X145224285Y-112117142D01*
X145176666Y-112164761D01*
X145081428Y-112212380D01*
X144986190Y-112212380D01*
X144890952Y-112164761D01*
X144843333Y-112117142D01*
X144795714Y-112021904D01*
X144748095Y-111831428D01*
X144748095Y-111593333D01*
X144795714Y-111402857D01*
X144843333Y-111307619D01*
X144890952Y-111260000D01*
X144986190Y-111212380D01*
%TO.C,SW1*%
X132651666Y-86764761D02*
X132794523Y-86812380D01*
X133032619Y-86812380D01*
X133127857Y-86764761D01*
X133175476Y-86717142D01*
X133223095Y-86621904D01*
X133223095Y-86526666D01*
X133175476Y-86431428D01*
X133127857Y-86383809D01*
X133032619Y-86336190D01*
X132842142Y-86288571D01*
X132746904Y-86240952D01*
X132699285Y-86193333D01*
X132651666Y-86098095D01*
X132651666Y-86002857D01*
X132699285Y-85907619D01*
X132746904Y-85860000D01*
X132842142Y-85812380D01*
X133080238Y-85812380D01*
X133223095Y-85860000D01*
X133556428Y-85812380D02*
X133794523Y-86812380D01*
X133985000Y-86098095D01*
X134175476Y-86812380D01*
X134413571Y-85812380D01*
X135318333Y-86812380D02*
X134746904Y-86812380D01*
X135032619Y-86812380D02*
X135032619Y-85812380D01*
X134937380Y-85955238D01*
X134842142Y-86050476D01*
X134746904Y-86098095D01*
%TO.C,SW3*%
X151701666Y-86764761D02*
X151844523Y-86812380D01*
X152082619Y-86812380D01*
X152177857Y-86764761D01*
X152225476Y-86717142D01*
X152273095Y-86621904D01*
X152273095Y-86526666D01*
X152225476Y-86431428D01*
X152177857Y-86383809D01*
X152082619Y-86336190D01*
X151892142Y-86288571D01*
X151796904Y-86240952D01*
X151749285Y-86193333D01*
X151701666Y-86098095D01*
X151701666Y-86002857D01*
X151749285Y-85907619D01*
X151796904Y-85860000D01*
X151892142Y-85812380D01*
X152130238Y-85812380D01*
X152273095Y-85860000D01*
X152606428Y-85812380D02*
X152844523Y-86812380D01*
X153035000Y-86098095D01*
X153225476Y-86812380D01*
X153463571Y-85812380D01*
X153749285Y-85812380D02*
X154368333Y-85812380D01*
X154035000Y-86193333D01*
X154177857Y-86193333D01*
X154273095Y-86240952D01*
X154320714Y-86288571D01*
X154368333Y-86383809D01*
X154368333Y-86621904D01*
X154320714Y-86717142D01*
X154273095Y-86764761D01*
X154177857Y-86812380D01*
X153892142Y-86812380D01*
X153796904Y-86764761D01*
X153749285Y-86717142D01*
%TO.C,SW16*%
X160750476Y-124864761D02*
X160893333Y-124912380D01*
X161131428Y-124912380D01*
X161226666Y-124864761D01*
X161274285Y-124817142D01*
X161321904Y-124721904D01*
X161321904Y-124626666D01*
X161274285Y-124531428D01*
X161226666Y-124483809D01*
X161131428Y-124436190D01*
X160940952Y-124388571D01*
X160845714Y-124340952D01*
X160798095Y-124293333D01*
X160750476Y-124198095D01*
X160750476Y-124102857D01*
X160798095Y-124007619D01*
X160845714Y-123960000D01*
X160940952Y-123912380D01*
X161179047Y-123912380D01*
X161321904Y-123960000D01*
X161655238Y-123912380D02*
X161893333Y-124912380D01*
X162083809Y-124198095D01*
X162274285Y-124912380D01*
X162512380Y-123912380D01*
X163417142Y-124912380D02*
X162845714Y-124912380D01*
X163131428Y-124912380D02*
X163131428Y-123912380D01*
X163036190Y-124055238D01*
X162940952Y-124150476D01*
X162845714Y-124198095D01*
X164274285Y-123912380D02*
X164083809Y-123912380D01*
X163988571Y-123960000D01*
X163940952Y-124007619D01*
X163845714Y-124150476D01*
X163798095Y-124340952D01*
X163798095Y-124721904D01*
X163845714Y-124817142D01*
X163893333Y-124864761D01*
X163988571Y-124912380D01*
X164179047Y-124912380D01*
X164274285Y-124864761D01*
X164321904Y-124817142D01*
X164369523Y-124721904D01*
X164369523Y-124483809D01*
X164321904Y-124388571D01*
X164274285Y-124340952D01*
X164179047Y-124293333D01*
X163988571Y-124293333D01*
X163893333Y-124340952D01*
X163845714Y-124388571D01*
X163798095Y-124483809D01*
%TO.C,SW8*%
X161226666Y-99464761D02*
X161369523Y-99512380D01*
X161607619Y-99512380D01*
X161702857Y-99464761D01*
X161750476Y-99417142D01*
X161798095Y-99321904D01*
X161798095Y-99226666D01*
X161750476Y-99131428D01*
X161702857Y-99083809D01*
X161607619Y-99036190D01*
X161417142Y-98988571D01*
X161321904Y-98940952D01*
X161274285Y-98893333D01*
X161226666Y-98798095D01*
X161226666Y-98702857D01*
X161274285Y-98607619D01*
X161321904Y-98560000D01*
X161417142Y-98512380D01*
X161655238Y-98512380D01*
X161798095Y-98560000D01*
X162131428Y-98512380D02*
X162369523Y-99512380D01*
X162560000Y-98798095D01*
X162750476Y-99512380D01*
X162988571Y-98512380D01*
X163512380Y-98940952D02*
X163417142Y-98893333D01*
X163369523Y-98845714D01*
X163321904Y-98750476D01*
X163321904Y-98702857D01*
X163369523Y-98607619D01*
X163417142Y-98560000D01*
X163512380Y-98512380D01*
X163702857Y-98512380D01*
X163798095Y-98560000D01*
X163845714Y-98607619D01*
X163893333Y-98702857D01*
X163893333Y-98750476D01*
X163845714Y-98845714D01*
X163798095Y-98893333D01*
X163702857Y-98940952D01*
X163512380Y-98940952D01*
X163417142Y-98988571D01*
X163369523Y-99036190D01*
X163321904Y-99131428D01*
X163321904Y-99321904D01*
X163369523Y-99417142D01*
X163417142Y-99464761D01*
X163512380Y-99512380D01*
X163702857Y-99512380D01*
X163798095Y-99464761D01*
X163845714Y-99417142D01*
X163893333Y-99321904D01*
X163893333Y-99131428D01*
X163845714Y-99036190D01*
X163798095Y-98988571D01*
X163702857Y-98940952D01*
%TO.C,SW9*%
X132651666Y-112164761D02*
X132794523Y-112212380D01*
X133032619Y-112212380D01*
X133127857Y-112164761D01*
X133175476Y-112117142D01*
X133223095Y-112021904D01*
X133223095Y-111926666D01*
X133175476Y-111831428D01*
X133127857Y-111783809D01*
X133032619Y-111736190D01*
X132842142Y-111688571D01*
X132746904Y-111640952D01*
X132699285Y-111593333D01*
X132651666Y-111498095D01*
X132651666Y-111402857D01*
X132699285Y-111307619D01*
X132746904Y-111260000D01*
X132842142Y-111212380D01*
X133080238Y-111212380D01*
X133223095Y-111260000D01*
X133556428Y-111212380D02*
X133794523Y-112212380D01*
X133985000Y-111498095D01*
X134175476Y-112212380D01*
X134413571Y-111212380D01*
X134842142Y-112212380D02*
X135032619Y-112212380D01*
X135127857Y-112164761D01*
X135175476Y-112117142D01*
X135270714Y-111974285D01*
X135318333Y-111783809D01*
X135318333Y-111402857D01*
X135270714Y-111307619D01*
X135223095Y-111260000D01*
X135127857Y-111212380D01*
X134937380Y-111212380D01*
X134842142Y-111260000D01*
X134794523Y-111307619D01*
X134746904Y-111402857D01*
X134746904Y-111640952D01*
X134794523Y-111736190D01*
X134842142Y-111783809D01*
X134937380Y-111831428D01*
X135127857Y-111831428D01*
X135223095Y-111783809D01*
X135270714Y-111736190D01*
X135318333Y-111640952D01*
%TO.C,SW2*%
X142176666Y-86764761D02*
X142319523Y-86812380D01*
X142557619Y-86812380D01*
X142652857Y-86764761D01*
X142700476Y-86717142D01*
X142748095Y-86621904D01*
X142748095Y-86526666D01*
X142700476Y-86431428D01*
X142652857Y-86383809D01*
X142557619Y-86336190D01*
X142367142Y-86288571D01*
X142271904Y-86240952D01*
X142224285Y-86193333D01*
X142176666Y-86098095D01*
X142176666Y-86002857D01*
X142224285Y-85907619D01*
X142271904Y-85860000D01*
X142367142Y-85812380D01*
X142605238Y-85812380D01*
X142748095Y-85860000D01*
X143081428Y-85812380D02*
X143319523Y-86812380D01*
X143510000Y-86098095D01*
X143700476Y-86812380D01*
X143938571Y-85812380D01*
X144271904Y-85907619D02*
X144319523Y-85860000D01*
X144414761Y-85812380D01*
X144652857Y-85812380D01*
X144748095Y-85860000D01*
X144795714Y-85907619D01*
X144843333Y-86002857D01*
X144843333Y-86098095D01*
X144795714Y-86240952D01*
X144224285Y-86812380D01*
X144843333Y-86812380D01*
%TO.C,SW4*%
X161226666Y-86764761D02*
X161369523Y-86812380D01*
X161607619Y-86812380D01*
X161702857Y-86764761D01*
X161750476Y-86717142D01*
X161798095Y-86621904D01*
X161798095Y-86526666D01*
X161750476Y-86431428D01*
X161702857Y-86383809D01*
X161607619Y-86336190D01*
X161417142Y-86288571D01*
X161321904Y-86240952D01*
X161274285Y-86193333D01*
X161226666Y-86098095D01*
X161226666Y-86002857D01*
X161274285Y-85907619D01*
X161321904Y-85860000D01*
X161417142Y-85812380D01*
X161655238Y-85812380D01*
X161798095Y-85860000D01*
X162131428Y-85812380D02*
X162369523Y-86812380D01*
X162560000Y-86098095D01*
X162750476Y-86812380D01*
X162988571Y-85812380D01*
X163798095Y-86145714D02*
X163798095Y-86812380D01*
X163560000Y-85764761D02*
X163321904Y-86479047D01*
X163940952Y-86479047D01*
%TO.C,SW15*%
X151225476Y-124864761D02*
X151368333Y-124912380D01*
X151606428Y-124912380D01*
X151701666Y-124864761D01*
X151749285Y-124817142D01*
X151796904Y-124721904D01*
X151796904Y-124626666D01*
X151749285Y-124531428D01*
X151701666Y-124483809D01*
X151606428Y-124436190D01*
X151415952Y-124388571D01*
X151320714Y-124340952D01*
X151273095Y-124293333D01*
X151225476Y-124198095D01*
X151225476Y-124102857D01*
X151273095Y-124007619D01*
X151320714Y-123960000D01*
X151415952Y-123912380D01*
X151654047Y-123912380D01*
X151796904Y-123960000D01*
X152130238Y-123912380D02*
X152368333Y-124912380D01*
X152558809Y-124198095D01*
X152749285Y-124912380D01*
X152987380Y-123912380D01*
X153892142Y-124912380D02*
X153320714Y-124912380D01*
X153606428Y-124912380D02*
X153606428Y-123912380D01*
X153511190Y-124055238D01*
X153415952Y-124150476D01*
X153320714Y-124198095D01*
X154796904Y-123912380D02*
X154320714Y-123912380D01*
X154273095Y-124388571D01*
X154320714Y-124340952D01*
X154415952Y-124293333D01*
X154654047Y-124293333D01*
X154749285Y-124340952D01*
X154796904Y-124388571D01*
X154844523Y-124483809D01*
X154844523Y-124721904D01*
X154796904Y-124817142D01*
X154749285Y-124864761D01*
X154654047Y-124912380D01*
X154415952Y-124912380D01*
X154320714Y-124864761D01*
X154273095Y-124817142D01*
%TO.C,SW6*%
X142176666Y-99464761D02*
X142319523Y-99512380D01*
X142557619Y-99512380D01*
X142652857Y-99464761D01*
X142700476Y-99417142D01*
X142748095Y-99321904D01*
X142748095Y-99226666D01*
X142700476Y-99131428D01*
X142652857Y-99083809D01*
X142557619Y-99036190D01*
X142367142Y-98988571D01*
X142271904Y-98940952D01*
X142224285Y-98893333D01*
X142176666Y-98798095D01*
X142176666Y-98702857D01*
X142224285Y-98607619D01*
X142271904Y-98560000D01*
X142367142Y-98512380D01*
X142605238Y-98512380D01*
X142748095Y-98560000D01*
X143081428Y-98512380D02*
X143319523Y-99512380D01*
X143510000Y-98798095D01*
X143700476Y-99512380D01*
X143938571Y-98512380D01*
X144748095Y-98512380D02*
X144557619Y-98512380D01*
X144462380Y-98560000D01*
X144414761Y-98607619D01*
X144319523Y-98750476D01*
X144271904Y-98940952D01*
X144271904Y-99321904D01*
X144319523Y-99417142D01*
X144367142Y-99464761D01*
X144462380Y-99512380D01*
X144652857Y-99512380D01*
X144748095Y-99464761D01*
X144795714Y-99417142D01*
X144843333Y-99321904D01*
X144843333Y-99083809D01*
X144795714Y-98988571D01*
X144748095Y-98940952D01*
X144652857Y-98893333D01*
X144462380Y-98893333D01*
X144367142Y-98940952D01*
X144319523Y-98988571D01*
X144271904Y-99083809D01*
%TO.C,SW14*%
X141700476Y-124864761D02*
X141843333Y-124912380D01*
X142081428Y-124912380D01*
X142176666Y-124864761D01*
X142224285Y-124817142D01*
X142271904Y-124721904D01*
X142271904Y-124626666D01*
X142224285Y-124531428D01*
X142176666Y-124483809D01*
X142081428Y-124436190D01*
X141890952Y-124388571D01*
X141795714Y-124340952D01*
X141748095Y-124293333D01*
X141700476Y-124198095D01*
X141700476Y-124102857D01*
X141748095Y-124007619D01*
X141795714Y-123960000D01*
X141890952Y-123912380D01*
X142129047Y-123912380D01*
X142271904Y-123960000D01*
X142605238Y-123912380D02*
X142843333Y-124912380D01*
X143033809Y-124198095D01*
X143224285Y-124912380D01*
X143462380Y-123912380D01*
X144367142Y-124912380D02*
X143795714Y-124912380D01*
X144081428Y-124912380D02*
X144081428Y-123912380D01*
X143986190Y-124055238D01*
X143890952Y-124150476D01*
X143795714Y-124198095D01*
X145224285Y-124245714D02*
X145224285Y-124912380D01*
X144986190Y-123864761D02*
X144748095Y-124579047D01*
X145367142Y-124579047D01*
%TO.C,SW11*%
X151225476Y-112164761D02*
X151368333Y-112212380D01*
X151606428Y-112212380D01*
X151701666Y-112164761D01*
X151749285Y-112117142D01*
X151796904Y-112021904D01*
X151796904Y-111926666D01*
X151749285Y-111831428D01*
X151701666Y-111783809D01*
X151606428Y-111736190D01*
X151415952Y-111688571D01*
X151320714Y-111640952D01*
X151273095Y-111593333D01*
X151225476Y-111498095D01*
X151225476Y-111402857D01*
X151273095Y-111307619D01*
X151320714Y-111260000D01*
X151415952Y-111212380D01*
X151654047Y-111212380D01*
X151796904Y-111260000D01*
X152130238Y-111212380D02*
X152368333Y-112212380D01*
X152558809Y-111498095D01*
X152749285Y-112212380D01*
X152987380Y-111212380D01*
X153892142Y-112212380D02*
X153320714Y-112212380D01*
X153606428Y-112212380D02*
X153606428Y-111212380D01*
X153511190Y-111355238D01*
X153415952Y-111450476D01*
X153320714Y-111498095D01*
X154844523Y-112212380D02*
X154273095Y-112212380D01*
X154558809Y-112212380D02*
X154558809Y-111212380D01*
X154463571Y-111355238D01*
X154368333Y-111450476D01*
X154273095Y-111498095D01*
D12*
%TO.C,J4*%
X186750000Y-118050000D02*
X186750000Y-119380000D01*
X176470000Y-118050000D02*
X176470000Y-120710000D01*
X185420000Y-118050000D02*
X186750000Y-118050000D01*
X184150000Y-118050000D02*
X184150000Y-120710000D01*
X184150000Y-120710000D02*
X176470000Y-120710000D01*
X184150000Y-118050000D02*
X176470000Y-118050000D01*
%TO.C,SW12*%
X165060000Y-107660000D02*
X165060000Y-115860000D01*
X160060000Y-115860000D02*
X160060000Y-107660000D01*
X165060000Y-115860000D02*
X160060000Y-115860000D01*
X160060000Y-107660000D02*
X165060000Y-107660000D01*
%TO.C,SW7*%
X155535000Y-103160000D02*
X150535000Y-103160000D01*
X150535000Y-94960000D02*
X155535000Y-94960000D01*
X155535000Y-94960000D02*
X155535000Y-103160000D01*
X150535000Y-103160000D02*
X150535000Y-94960000D01*
%TO.C,SW5*%
X136485000Y-94960000D02*
X136485000Y-103160000D01*
X131485000Y-94960000D02*
X136485000Y-94960000D01*
X131485000Y-103160000D02*
X131485000Y-94960000D01*
X136485000Y-103160000D02*
X131485000Y-103160000D01*
%TO.C,J2*%
X179010000Y-129540000D02*
X179010000Y-128210000D01*
X186750000Y-130870000D02*
X186750000Y-128210000D01*
X181610000Y-130870000D02*
X186750000Y-130870000D01*
X181610000Y-130870000D02*
X181610000Y-128210000D01*
X181610000Y-128210000D02*
X186750000Y-128210000D01*
X179010000Y-128210000D02*
X180340000Y-128210000D01*
%TO.C,SW13*%
X131485000Y-120360000D02*
X136485000Y-120360000D01*
X136485000Y-128560000D02*
X131485000Y-128560000D01*
X136485000Y-120360000D02*
X136485000Y-128560000D01*
X131485000Y-128560000D02*
X131485000Y-120360000D01*
%TO.C,SW10*%
X146010000Y-115860000D02*
X141010000Y-115860000D01*
X141010000Y-115860000D02*
X141010000Y-107660000D01*
X141010000Y-107660000D02*
X146010000Y-107660000D01*
X146010000Y-107660000D02*
X146010000Y-115860000D01*
%TO.C,SW1*%
X136485000Y-90460000D02*
X131485000Y-90460000D01*
X131485000Y-90460000D02*
X131485000Y-82260000D01*
X136485000Y-82260000D02*
X136485000Y-90460000D01*
X131485000Y-82260000D02*
X136485000Y-82260000D01*
%TO.C,SW3*%
X150535000Y-82260000D02*
X155535000Y-82260000D01*
X155535000Y-82260000D02*
X155535000Y-90460000D01*
X155535000Y-90460000D02*
X150535000Y-90460000D01*
X150535000Y-90460000D02*
X150535000Y-82260000D01*
%TO.C,SW16*%
X160060000Y-128560000D02*
X160060000Y-120360000D01*
X165060000Y-128560000D02*
X160060000Y-128560000D01*
X165060000Y-120360000D02*
X165060000Y-128560000D01*
X160060000Y-120360000D02*
X165060000Y-120360000D01*
%TO.C,SW8*%
X160060000Y-94960000D02*
X165060000Y-94960000D01*
X160060000Y-103160000D02*
X160060000Y-94960000D01*
X165060000Y-103160000D02*
X160060000Y-103160000D01*
X165060000Y-94960000D02*
X165060000Y-103160000D01*
%TO.C,SW9*%
X131485000Y-115860000D02*
X131485000Y-107660000D01*
X136485000Y-107660000D02*
X136485000Y-115860000D01*
X131485000Y-107660000D02*
X136485000Y-107660000D01*
X136485000Y-115860000D02*
X131485000Y-115860000D01*
%TO.C,SW2*%
X141010000Y-90460000D02*
X141010000Y-82260000D01*
X146010000Y-90460000D02*
X141010000Y-90460000D01*
X141010000Y-82260000D02*
X146010000Y-82260000D01*
X146010000Y-82260000D02*
X146010000Y-90460000D01*
%TO.C,SW4*%
X165060000Y-82260000D02*
X165060000Y-90460000D01*
X165060000Y-90460000D02*
X160060000Y-90460000D01*
X160060000Y-90460000D02*
X160060000Y-82260000D01*
X160060000Y-82260000D02*
X165060000Y-82260000D01*
%TO.C,SW15*%
X155535000Y-128560000D02*
X150535000Y-128560000D01*
X150535000Y-120360000D02*
X155535000Y-120360000D01*
X155535000Y-120360000D02*
X155535000Y-128560000D01*
X150535000Y-128560000D02*
X150535000Y-120360000D01*
%TO.C,SW6*%
X146010000Y-94960000D02*
X146010000Y-103160000D01*
X146010000Y-103160000D02*
X141010000Y-103160000D01*
X141010000Y-94960000D02*
X146010000Y-94960000D01*
X141010000Y-103160000D02*
X141010000Y-94960000D01*
%TO.C,SW14*%
X141010000Y-120360000D02*
X146010000Y-120360000D01*
X141010000Y-128560000D02*
X141010000Y-120360000D01*
X146010000Y-120360000D02*
X146010000Y-128560000D01*
X146010000Y-128560000D02*
X141010000Y-128560000D01*
%TO.C,SW11*%
X155535000Y-107660000D02*
X155535000Y-115860000D01*
X150535000Y-115860000D02*
X150535000Y-107660000D01*
X155535000Y-115860000D02*
X150535000Y-115860000D01*
X150535000Y-107660000D02*
X155535000Y-107660000D01*
%TD*%
M02*
