M48
; DRILL file {KiCad (6.0.8)} date Tue Nov  1 17:44:24 2022
; FORMAT={-:-/ absolute / inch / decimal}
; #@! TF.CreationDate,2022-11-01T17:44:24+01:00
; #@! TF.GenerationSoftware,Kicad,Pcbnew,(6.0.8)
; #@! TF.FileFunction,Plated,1,2,PTH
FMAT,2
INCH
; #@! TA.AperFunction,Plated,PTH,ComponentDrill
T1C0.0394
; #@! TA.AperFunction,Plated,PTH,ComponentDrill
T2C0.0787
%
G90
G05
T1
X7.0Y-4.7
X7.1Y-4.7
X7.1Y-5.1
X7.2Y-4.7
X7.2Y-5.1
X7.3Y-4.7
X7.3Y-5.1
T2
X5.275Y-3.3
X5.275Y-3.5
X5.275Y-3.8
X5.275Y-4.0
X5.275Y-4.3
X5.275Y-4.5
X5.275Y-4.8
X5.275Y-5.0
X5.65Y-3.3
X5.65Y-3.5
X5.65Y-3.8
X5.65Y-4.0
X5.65Y-4.3
X5.65Y-4.5
X5.65Y-4.8
X5.65Y-5.0
X6.025Y-3.3
X6.025Y-3.5
X6.025Y-3.8
X6.025Y-4.0
X6.025Y-4.3
X6.025Y-4.5
X6.025Y-4.8
X6.025Y-5.0
X6.4Y-3.3
X6.4Y-3.5
X6.4Y-3.8
X6.4Y-4.0
X6.4Y-4.3
X6.4Y-4.5
X6.4Y-4.8
X6.4Y-5.0
T0
M30
