%TF.GenerationSoftware,KiCad,Pcbnew,(6.0.8)*%
%TF.CreationDate,2022-11-01T17:44:22+01:00*%
%TF.ProjectId,BURC_16SwitchEncoder_JRFormat,42555243-5f31-4365-9377-69746368456e,v1.0*%
%TF.SameCoordinates,Original*%
%TF.FileFunction,Drillmap*%
%TF.FilePolarity,Positive*%
%FSLAX45Y45*%
G04 Gerber Fmt 4.5, Leading zero omitted, Abs format (unit mm)*
G04 Created by KiCad (PCBNEW (6.0.8)) date 2022-11-01 17:44:22*
%MOMM*%
%LPD*%
G01*
G04 APERTURE LIST*
%ADD10C,0.050000*%
%ADD11C,0.100000*%
%ADD12C,0.200000*%
%ADD13C,0.250000*%
G04 APERTURE END LIST*
D10*
X16920000Y-13350000D02*
X16920000Y-11580000D01*
X13085000Y-10200000D02*
X13085000Y-11580000D01*
D11*
X13085000Y-10000000D02*
X13085000Y-9476500D01*
D10*
X12800000Y-13350000D02*
X16920000Y-13350000D01*
X13085000Y-11580000D02*
X12800000Y-11580000D01*
X16635000Y-9476500D02*
X16921261Y-9476500D01*
X16920000Y-11580000D02*
X16635000Y-11580000D01*
X16635000Y-10000000D02*
X16450000Y-10000000D01*
D11*
X13270000Y-10200000D02*
G75*
G03*
X13270000Y-10000000I0J100000D01*
G01*
D10*
X16450000Y-10200000D02*
X16635000Y-10200000D01*
X16635000Y-10000000D02*
X16635000Y-9476500D01*
D11*
X16921261Y-7670000D02*
X12798739Y-7670000D01*
X16921261Y-9476500D02*
X16921261Y-7670000D01*
X13085000Y-10200000D02*
X13270000Y-10200000D01*
X12798739Y-7670000D02*
X12798739Y-9476500D01*
D10*
X16635000Y-10200000D02*
X16635000Y-11580000D01*
X12800000Y-11580000D02*
X12800000Y-13350000D01*
D11*
X13270000Y-10000000D02*
X13085000Y-10000000D01*
X12798739Y-9476500D02*
X13085000Y-9476500D01*
D10*
X16450000Y-10000000D02*
G75*
G03*
X16450000Y-10200000I0J-100000D01*
G01*
D12*
D13*
X12829000Y-13019500D02*
X13079000Y-13269500D01*
X13079000Y-13019500D02*
X12829000Y-13269500D01*
X12892500Y-7749000D02*
X13142500Y-7999000D01*
X13142500Y-7749000D02*
X12892500Y-7999000D01*
X16575500Y-7749000D02*
X16825500Y-7999000D01*
X16825500Y-7749000D02*
X16575500Y-7999000D01*
X16575500Y-13019500D02*
X16825500Y-13269500D01*
X16825500Y-13019500D02*
X16575500Y-13269500D01*
D12*
X13051358Y-13662976D02*
X13051358Y-13462976D01*
X13098977Y-13462976D01*
X13127549Y-13472500D01*
X13146596Y-13491548D01*
X13156120Y-13510595D01*
X13165644Y-13548690D01*
X13165644Y-13577262D01*
X13156120Y-13615357D01*
X13146596Y-13634405D01*
X13127549Y-13653452D01*
X13098977Y-13662976D01*
X13051358Y-13662976D01*
X13251358Y-13662976D02*
X13251358Y-13529643D01*
X13251358Y-13567738D02*
X13260882Y-13548690D01*
X13270406Y-13539167D01*
X13289453Y-13529643D01*
X13308501Y-13529643D01*
X13375168Y-13662976D02*
X13375168Y-13529643D01*
X13375168Y-13462976D02*
X13365644Y-13472500D01*
X13375168Y-13482024D01*
X13384691Y-13472500D01*
X13375168Y-13462976D01*
X13375168Y-13482024D01*
X13498977Y-13662976D02*
X13479930Y-13653452D01*
X13470406Y-13634405D01*
X13470406Y-13462976D01*
X13603739Y-13662976D02*
X13584691Y-13653452D01*
X13575168Y-13634405D01*
X13575168Y-13462976D01*
X13832311Y-13662976D02*
X13832311Y-13462976D01*
X13898977Y-13605833D01*
X13965644Y-13462976D01*
X13965644Y-13662976D01*
X14146596Y-13662976D02*
X14146596Y-13558214D01*
X14137072Y-13539167D01*
X14118025Y-13529643D01*
X14079930Y-13529643D01*
X14060882Y-13539167D01*
X14146596Y-13653452D02*
X14127549Y-13662976D01*
X14079930Y-13662976D01*
X14060882Y-13653452D01*
X14051358Y-13634405D01*
X14051358Y-13615357D01*
X14060882Y-13596309D01*
X14079930Y-13586786D01*
X14127549Y-13586786D01*
X14146596Y-13577262D01*
X14241834Y-13529643D02*
X14241834Y-13729643D01*
X14241834Y-13539167D02*
X14260882Y-13529643D01*
X14298977Y-13529643D01*
X14318025Y-13539167D01*
X14327549Y-13548690D01*
X14337072Y-13567738D01*
X14337072Y-13624881D01*
X14327549Y-13643928D01*
X14318025Y-13653452D01*
X14298977Y-13662976D01*
X14260882Y-13662976D01*
X14241834Y-13653452D01*
X14422787Y-13643928D02*
X14432311Y-13653452D01*
X14422787Y-13662976D01*
X14413263Y-13653452D01*
X14422787Y-13643928D01*
X14422787Y-13662976D01*
X14422787Y-13539167D02*
X14432311Y-13548690D01*
X14422787Y-13558214D01*
X14413263Y-13548690D01*
X14422787Y-13539167D01*
X14422787Y-13558214D01*
X12593739Y-13892500D02*
X12793739Y-14092500D01*
X12793739Y-13892500D02*
X12593739Y-14092500D01*
X13041834Y-13902024D02*
X13051358Y-13892500D01*
X13070406Y-13882976D01*
X13118025Y-13882976D01*
X13137072Y-13892500D01*
X13146596Y-13902024D01*
X13156120Y-13921071D01*
X13156120Y-13940119D01*
X13146596Y-13968690D01*
X13032311Y-14082976D01*
X13156120Y-14082976D01*
X13241834Y-14063928D02*
X13251358Y-14073452D01*
X13241834Y-14082976D01*
X13232311Y-14073452D01*
X13241834Y-14063928D01*
X13241834Y-14082976D01*
X13432311Y-13882976D02*
X13337072Y-13882976D01*
X13327549Y-13978214D01*
X13337072Y-13968690D01*
X13356120Y-13959167D01*
X13403739Y-13959167D01*
X13422787Y-13968690D01*
X13432311Y-13978214D01*
X13441834Y-13997262D01*
X13441834Y-14044881D01*
X13432311Y-14063928D01*
X13422787Y-14073452D01*
X13403739Y-14082976D01*
X13356120Y-14082976D01*
X13337072Y-14073452D01*
X13327549Y-14063928D01*
X13565644Y-13882976D02*
X13584691Y-13882976D01*
X13603739Y-13892500D01*
X13613263Y-13902024D01*
X13622787Y-13921071D01*
X13632311Y-13959167D01*
X13632311Y-14006786D01*
X13622787Y-14044881D01*
X13613263Y-14063928D01*
X13603739Y-14073452D01*
X13584691Y-14082976D01*
X13565644Y-14082976D01*
X13546596Y-14073452D01*
X13537072Y-14063928D01*
X13527549Y-14044881D01*
X13518025Y-14006786D01*
X13518025Y-13959167D01*
X13527549Y-13921071D01*
X13537072Y-13902024D01*
X13546596Y-13892500D01*
X13565644Y-13882976D01*
X13756120Y-13882976D02*
X13775168Y-13882976D01*
X13794215Y-13892500D01*
X13803739Y-13902024D01*
X13813263Y-13921071D01*
X13822787Y-13959167D01*
X13822787Y-14006786D01*
X13813263Y-14044881D01*
X13803739Y-14063928D01*
X13794215Y-14073452D01*
X13775168Y-14082976D01*
X13756120Y-14082976D01*
X13737072Y-14073452D01*
X13727549Y-14063928D01*
X13718025Y-14044881D01*
X13708501Y-14006786D01*
X13708501Y-13959167D01*
X13718025Y-13921071D01*
X13727549Y-13902024D01*
X13737072Y-13892500D01*
X13756120Y-13882976D01*
X13908501Y-14082976D02*
X13908501Y-13949643D01*
X13908501Y-13968690D02*
X13918025Y-13959167D01*
X13937072Y-13949643D01*
X13965644Y-13949643D01*
X13984691Y-13959167D01*
X13994215Y-13978214D01*
X13994215Y-14082976D01*
X13994215Y-13978214D02*
X14003739Y-13959167D01*
X14022787Y-13949643D01*
X14051358Y-13949643D01*
X14070406Y-13959167D01*
X14079930Y-13978214D01*
X14079930Y-14082976D01*
X14175168Y-14082976D02*
X14175168Y-13949643D01*
X14175168Y-13968690D02*
X14184691Y-13959167D01*
X14203739Y-13949643D01*
X14232311Y-13949643D01*
X14251358Y-13959167D01*
X14260882Y-13978214D01*
X14260882Y-14082976D01*
X14260882Y-13978214D02*
X14270406Y-13959167D01*
X14289453Y-13949643D01*
X14318025Y-13949643D01*
X14337072Y-13959167D01*
X14346596Y-13978214D01*
X14346596Y-14082976D01*
X14737072Y-13873452D02*
X14565644Y-14130595D01*
X14994215Y-13882976D02*
X15013263Y-13882976D01*
X15032311Y-13892500D01*
X15041834Y-13902024D01*
X15051358Y-13921071D01*
X15060882Y-13959167D01*
X15060882Y-14006786D01*
X15051358Y-14044881D01*
X15041834Y-14063928D01*
X15032311Y-14073452D01*
X15013263Y-14082976D01*
X14994215Y-14082976D01*
X14975168Y-14073452D01*
X14965644Y-14063928D01*
X14956120Y-14044881D01*
X14946596Y-14006786D01*
X14946596Y-13959167D01*
X14956120Y-13921071D01*
X14965644Y-13902024D01*
X14975168Y-13892500D01*
X14994215Y-13882976D01*
X15146596Y-14063928D02*
X15156120Y-14073452D01*
X15146596Y-14082976D01*
X15137072Y-14073452D01*
X15146596Y-14063928D01*
X15146596Y-14082976D01*
X15279930Y-13882976D02*
X15298977Y-13882976D01*
X15318025Y-13892500D01*
X15327549Y-13902024D01*
X15337072Y-13921071D01*
X15346596Y-13959167D01*
X15346596Y-14006786D01*
X15337072Y-14044881D01*
X15327549Y-14063928D01*
X15318025Y-14073452D01*
X15298977Y-14082976D01*
X15279930Y-14082976D01*
X15260882Y-14073452D01*
X15251358Y-14063928D01*
X15241834Y-14044881D01*
X15232311Y-14006786D01*
X15232311Y-13959167D01*
X15241834Y-13921071D01*
X15251358Y-13902024D01*
X15260882Y-13892500D01*
X15279930Y-13882976D01*
X15441834Y-14082976D02*
X15479930Y-14082976D01*
X15498977Y-14073452D01*
X15508501Y-14063928D01*
X15527549Y-14035357D01*
X15537072Y-13997262D01*
X15537072Y-13921071D01*
X15527549Y-13902024D01*
X15518025Y-13892500D01*
X15498977Y-13882976D01*
X15460882Y-13882976D01*
X15441834Y-13892500D01*
X15432311Y-13902024D01*
X15422787Y-13921071D01*
X15422787Y-13968690D01*
X15432311Y-13987738D01*
X15441834Y-13997262D01*
X15460882Y-14006786D01*
X15498977Y-14006786D01*
X15518025Y-13997262D01*
X15527549Y-13987738D01*
X15537072Y-13968690D01*
X15651358Y-13968690D02*
X15632311Y-13959167D01*
X15622787Y-13949643D01*
X15613263Y-13930595D01*
X15613263Y-13921071D01*
X15622787Y-13902024D01*
X15632311Y-13892500D01*
X15651358Y-13882976D01*
X15689453Y-13882976D01*
X15708501Y-13892500D01*
X15718025Y-13902024D01*
X15727549Y-13921071D01*
X15727549Y-13930595D01*
X15718025Y-13949643D01*
X15708501Y-13959167D01*
X15689453Y-13968690D01*
X15651358Y-13968690D01*
X15632311Y-13978214D01*
X15622787Y-13987738D01*
X15613263Y-14006786D01*
X15613263Y-14044881D01*
X15622787Y-14063928D01*
X15632311Y-14073452D01*
X15651358Y-14082976D01*
X15689453Y-14082976D01*
X15708501Y-14073452D01*
X15718025Y-14063928D01*
X15727549Y-14044881D01*
X15727549Y-14006786D01*
X15718025Y-13987738D01*
X15708501Y-13978214D01*
X15689453Y-13968690D01*
X15898977Y-13949643D02*
X15898977Y-14082976D01*
X15851358Y-13873452D02*
X15803739Y-14016309D01*
X15927549Y-14016309D01*
X15994215Y-13882976D02*
X15994215Y-13921071D01*
X16070406Y-13882976D02*
X16070406Y-13921071D01*
X16365644Y-14159167D02*
X16356120Y-14149643D01*
X16337072Y-14121071D01*
X16327549Y-14102024D01*
X16318025Y-14073452D01*
X16308501Y-14025833D01*
X16308501Y-13987738D01*
X16318025Y-13940119D01*
X16327549Y-13911548D01*
X16337072Y-13892500D01*
X16356120Y-13863928D01*
X16365644Y-13854405D01*
X16527549Y-13949643D02*
X16527549Y-14082976D01*
X16479930Y-13873452D02*
X16432311Y-14016309D01*
X16556120Y-14016309D01*
X16784692Y-14082976D02*
X16784692Y-13882976D01*
X16870406Y-14082976D02*
X16870406Y-13978214D01*
X16860882Y-13959167D01*
X16841834Y-13949643D01*
X16813263Y-13949643D01*
X16794215Y-13959167D01*
X16784692Y-13968690D01*
X16994215Y-14082976D02*
X16975168Y-14073452D01*
X16965644Y-14063928D01*
X16956120Y-14044881D01*
X16956120Y-13987738D01*
X16965644Y-13968690D01*
X16975168Y-13959167D01*
X16994215Y-13949643D01*
X17022787Y-13949643D01*
X17041834Y-13959167D01*
X17051358Y-13968690D01*
X17060882Y-13987738D01*
X17060882Y-14044881D01*
X17051358Y-14063928D01*
X17041834Y-14073452D01*
X17022787Y-14082976D01*
X16994215Y-14082976D01*
X17175168Y-14082976D02*
X17156120Y-14073452D01*
X17146596Y-14054405D01*
X17146596Y-13882976D01*
X17327549Y-14073452D02*
X17308501Y-14082976D01*
X17270406Y-14082976D01*
X17251358Y-14073452D01*
X17241834Y-14054405D01*
X17241834Y-13978214D01*
X17251358Y-13959167D01*
X17270406Y-13949643D01*
X17308501Y-13949643D01*
X17327549Y-13959167D01*
X17337073Y-13978214D01*
X17337073Y-13997262D01*
X17241834Y-14016309D01*
X17413263Y-14073452D02*
X17432311Y-14082976D01*
X17470406Y-14082976D01*
X17489453Y-14073452D01*
X17498977Y-14054405D01*
X17498977Y-14044881D01*
X17489453Y-14025833D01*
X17470406Y-14016309D01*
X17441834Y-14016309D01*
X17422787Y-14006786D01*
X17413263Y-13987738D01*
X17413263Y-13978214D01*
X17422787Y-13959167D01*
X17441834Y-13949643D01*
X17470406Y-13949643D01*
X17489453Y-13959167D01*
X17565644Y-14159167D02*
X17575168Y-14149643D01*
X17594215Y-14121071D01*
X17603739Y-14102024D01*
X17613263Y-14073452D01*
X17622787Y-14025833D01*
X17622787Y-13987738D01*
X17613263Y-13940119D01*
X17603739Y-13911548D01*
X17594215Y-13892500D01*
X17575168Y-13863928D01*
X17565644Y-13854405D01*
X17927549Y-14159167D02*
X17918025Y-14149643D01*
X17898977Y-14121071D01*
X17889453Y-14102024D01*
X17879930Y-14073452D01*
X17870406Y-14025833D01*
X17870406Y-13987738D01*
X17879930Y-13940119D01*
X17889453Y-13911548D01*
X17898977Y-13892500D01*
X17918025Y-13863928D01*
X17927549Y-13854405D01*
X18003739Y-13949643D02*
X18003739Y-14082976D01*
X18003739Y-13968690D02*
X18013263Y-13959167D01*
X18032311Y-13949643D01*
X18060882Y-13949643D01*
X18079930Y-13959167D01*
X18089453Y-13978214D01*
X18089453Y-14082976D01*
X18213263Y-14082976D02*
X18194215Y-14073452D01*
X18184692Y-14063928D01*
X18175168Y-14044881D01*
X18175168Y-13987738D01*
X18184692Y-13968690D01*
X18194215Y-13959167D01*
X18213263Y-13949643D01*
X18241834Y-13949643D01*
X18260882Y-13959167D01*
X18270406Y-13968690D01*
X18279930Y-13987738D01*
X18279930Y-14044881D01*
X18270406Y-14063928D01*
X18260882Y-14073452D01*
X18241834Y-14082976D01*
X18213263Y-14082976D01*
X18337073Y-13949643D02*
X18413263Y-13949643D01*
X18365644Y-13882976D02*
X18365644Y-14054405D01*
X18375168Y-14073452D01*
X18394215Y-14082976D01*
X18413263Y-14082976D01*
X18632311Y-13949643D02*
X18632311Y-14149643D01*
X18632311Y-13959167D02*
X18651358Y-13949643D01*
X18689453Y-13949643D01*
X18708501Y-13959167D01*
X18718025Y-13968690D01*
X18727549Y-13987738D01*
X18727549Y-14044881D01*
X18718025Y-14063928D01*
X18708501Y-14073452D01*
X18689453Y-14082976D01*
X18651358Y-14082976D01*
X18632311Y-14073452D01*
X18841834Y-14082976D02*
X18822787Y-14073452D01*
X18813263Y-14054405D01*
X18813263Y-13882976D01*
X19003739Y-14082976D02*
X19003739Y-13978214D01*
X18994215Y-13959167D01*
X18975168Y-13949643D01*
X18937073Y-13949643D01*
X18918025Y-13959167D01*
X19003739Y-14073452D02*
X18984692Y-14082976D01*
X18937073Y-14082976D01*
X18918025Y-14073452D01*
X18908501Y-14054405D01*
X18908501Y-14035357D01*
X18918025Y-14016309D01*
X18937073Y-14006786D01*
X18984692Y-14006786D01*
X19003739Y-13997262D01*
X19070406Y-13949643D02*
X19146596Y-13949643D01*
X19098977Y-13882976D02*
X19098977Y-14054405D01*
X19108501Y-14073452D01*
X19127549Y-14082976D01*
X19146596Y-14082976D01*
X19289453Y-14073452D02*
X19270406Y-14082976D01*
X19232311Y-14082976D01*
X19213263Y-14073452D01*
X19203739Y-14054405D01*
X19203739Y-13978214D01*
X19213263Y-13959167D01*
X19232311Y-13949643D01*
X19270406Y-13949643D01*
X19289453Y-13959167D01*
X19298977Y-13978214D01*
X19298977Y-13997262D01*
X19203739Y-14016309D01*
X19470406Y-14082976D02*
X19470406Y-13882976D01*
X19470406Y-14073452D02*
X19451358Y-14082976D01*
X19413263Y-14082976D01*
X19394215Y-14073452D01*
X19384692Y-14063928D01*
X19375168Y-14044881D01*
X19375168Y-13987738D01*
X19384692Y-13968690D01*
X19394215Y-13959167D01*
X19413263Y-13949643D01*
X19451358Y-13949643D01*
X19470406Y-13959167D01*
X19546596Y-14159167D02*
X19556120Y-14149643D01*
X19575168Y-14121071D01*
X19584692Y-14102024D01*
X19594215Y-14073452D01*
X19603739Y-14025833D01*
X19603739Y-13987738D01*
X19594215Y-13940119D01*
X19584692Y-13911548D01*
X19575168Y-13892500D01*
X19556120Y-13863928D01*
X19546596Y-13854405D01*
M02*
