0
SECTION
2
ENTITIES
0
LINE
8
0
10
148.63
20
-87.305
11
153.63
21
-87.305
0
LINE
8
0
10
153.63
20
-94.305
11
148.63
21
-94.305
0
LINE
8
0
10
153.63
20
-87.305
11
153.63
21
-94.305
0
LINE
8
0
10
148.63
20
-94.305
11
148.63
21
-87.305
0
LINE
8
0
10
163.79
20
-79.685
11
163.79
21
-86.685
0
LINE
8
0
10
158.79
20
-86.685
11
158.79
21
-79.685
0
LINE
8
0
10
158.79
20
-79.685
11
163.79
21
-79.685
0
LINE
8
0
10
163.79
20
-86.685
11
158.79
21
-86.685
0
LINE
8
0
10
153.63
20
-86.685
11
148.63
21
-86.685
0
LINE
8
0
10
148.63
20
-86.685
11
148.63
21
-79.685
0
LINE
8
0
10
148.63
20
-79.685
11
153.63
21
-79.685
0
LINE
8
0
10
153.63
20
-79.685
11
153.63
21
-86.685
0
LINE
8
0
10
148.55
20
-87.305
11
148.55
21
-94.305
0
LINE
8
0
10
148.55
20
-94.305
11
143.55
21
-94.305
0
LINE
8
0
10
143.55
20
-94.305
11
143.55
21
-87.305
0
LINE
8
0
10
143.55
20
-87.305
11
148.55
21
-87.305
0
LINE
8
0
10
163.79
20
-87.305
11
163.79
21
-94.305
0
LINE
8
0
10
163.79
20
-94.305
11
158.79
21
-94.305
0
LINE
8
0
10
158.79
20
-87.305
11
163.79
21
-87.305
0
LINE
8
0
10
158.79
20
-94.305
11
158.79
21
-87.305
0
LINE
8
0
10
128.31
20
-79.685
11
133.31
21
-79.685
0
LINE
8
0
10
133.31
20
-79.685
11
133.31
21
-86.685
0
LINE
8
0
10
128.31
20
-86.685
11
128.31
21
-79.685
0
LINE
8
0
10
133.31
20
-86.685
11
128.31
21
-86.685
0
LINE
8
0
10
143.47
20
-79.685
11
143.47
21
-86.685
0
LINE
8
0
10
138.47
20
-86.685
11
138.47
21
-79.685
0
LINE
8
0
10
138.47
20
-79.685
11
143.47
21
-79.685
0
LINE
8
0
10
143.47
20
-86.685
11
138.47
21
-86.685
0
LINE
8
0
10
128.31
20
-94.305
11
128.31
21
-87.305
0
LINE
8
0
10
128.31
20
-87.305
11
133.31
21
-87.305
0
LINE
8
0
10
133.31
20
-94.305
11
128.31
21
-94.305
0
LINE
8
0
10
133.31
20
-87.305
11
133.31
21
-94.305
0
LINE
8
FCrtYd
62
7
10
155.255
20
-120.43
11
155.255
21
-118.33
0
LINE
8
FCrtYd
62
7
10
148.275
20
-118.33
11
148.275
21
-120.43
0
LINE
8
FCrtYd
62
7
10
155.255
20
-118.33
11
148.275
21
-118.33
0
LINE
8
FCrtYd
62
7
10
148.275
20
-120.43
11
155.255
21
-120.43
0
LINE
8
FFab
62
5
10
154.305
20
-119.38
11
153.565
21
-119.38
0
LINE
8
FFab
62
5
10
149.965
20
-118.58
11
149.965
21
-120.18
0
LINE
8
FFab
62
5
10
149.965
20
-120.18
11
153.565
21
-120.18
0
LINE
8
FFab
62
5
10
149.225
20
-119.38
11
149.965
21
-119.38
0
LINE
8
FFab
62
5
10
153.565
20
-120.18
11
153.565
21
-118.58
0
LINE
8
FFab
62
5
10
153.565
20
-118.58
11
149.965
21
-118.58
0
LINE
8
FCrtYd
62
7
10
150.175
20
-117.89
11
150.175
21
-115.79
0
LINE
8
FCrtYd
62
7
10
150.175
20
-115.79
11
143.195
21
-115.79
0
LINE
8
FCrtYd
62
7
10
143.195
20
-117.89
11
150.175
21
-117.89
0
LINE
8
FCrtYd
62
7
10
143.195
20
-115.79
11
143.195
21
-117.89
0
LINE
8
FFab
62
5
10
148.485
20
-116.04
11
144.885
21
-116.04
0
LINE
8
FFab
62
5
10
144.145
20
-116.84
11
144.885
21
-116.84
0
LINE
8
FFab
62
5
10
149.225
20
-116.84
11
148.485
21
-116.84
0
LINE
8
FFab
62
5
10
144.885
20
-116.04
11
144.885
21
-117.64
0
LINE
8
FFab
62
5
10
148.485
20
-117.64
11
148.485
21
-116.04
0
LINE
8
FFab
62
5
10
144.885
20
-117.64
11
148.485
21
-117.64
0
LINE
8
0
10
163.87
20
-86.685
11
163.87
21
-79.685
0
LINE
8
0
10
168.87
20
-86.685
11
163.87
21
-86.685
0
LINE
8
0
10
163.87
20
-79.685
11
168.87
21
-79.685
0
LINE
8
0
10
168.87
20
-79.685
11
168.87
21
-86.685
0
LINE
8
0
10
163.87
20
-87.305
11
168.87
21
-87.305
0
LINE
8
0
10
168.87
20
-87.305
11
168.87
21
-94.305
0
LINE
8
0
10
168.87
20
-94.305
11
163.87
21
-94.305
0
LINE
8
0
10
163.87
20
-94.305
11
163.87
21
-87.305
0
LINE
8
FCrtYd
62
7
10
166.05
20
-115.985
11
166.05
21
-113.885
0
LINE
8
FCrtYd
62
7
10
159.07
20
-115.985
11
166.05
21
-115.985
0
LINE
8
FCrtYd
62
7
10
166.05
20
-113.885
11
159.07
21
-113.885
0
LINE
8
FCrtYd
62
7
10
159.07
20
-113.885
11
159.07
21
-115.985
0
LINE
8
FFab
62
5
10
160.76
20
-114.135
11
160.76
21
-115.735
0
LINE
8
FFab
62
5
10
164.36
20
-114.135
11
160.76
21
-114.135
0
LINE
8
FFab
62
5
10
160.02
20
-114.935
11
160.76
21
-114.935
0
LINE
8
FFab
62
5
10
164.36
20
-115.735
11
164.36
21
-114.135
0
LINE
8
FFab
62
5
10
165.1
20
-114.935
11
164.36
21
-114.935
0
LINE
8
FFab
62
5
10
160.76
20
-115.735
11
164.36
21
-115.735
0
LINE
8
0
10
133.39
20
-79.685
11
138.39
21
-79.685
0
LINE
8
0
10
138.39
20
-79.685
11
138.39
21
-86.685
0
LINE
8
0
10
138.39
20
-86.685
11
133.39
21
-86.685
0
LINE
8
0
10
133.39
20
-86.685
11
133.39
21
-79.685
0
LINE
8
0
10
148.55
20
-79.685
11
148.55
21
-86.685
0
LINE
8
0
10
143.55
20
-86.685
11
143.55
21
-79.685
0
LINE
8
0
10
148.55
20
-86.685
11
143.55
21
-86.685
0
LINE
8
0
10
143.55
20
-79.685
11
148.55
21
-79.685
0
LINE
8
FCrtYd
62
7
10
132.61
20
-124.555
11
129.01
21
-124.555
0
LINE
8
FCrtYd
62
7
10
129.01
20
-135.755
11
132.61
21
-135.755
0
LINE
8
FCrtYd
62
7
10
129.01
20
-124.555
11
129.01
21
-135.755
0
LINE
8
FCrtYd
62
7
10
132.61
20
-135.755
11
132.61
21
-124.555
0
LINE
8
FFab
62
5
10
130.175
20
-125.085
11
132.08
21
-125.085
0
LINE
8
FFab
62
5
10
132.08
20
-125.085
11
132.08
21
-135.245
0
LINE
8
FFab
62
5
10
129.54
20
-125.72
11
130.175
21
-125.085
0
LINE
8
FFab
62
5
10
132.08
20
-135.245
11
129.54
21
-135.245
0
LINE
8
FFab
62
5
10
129.54
20
-135.245
11
129.54
21
-125.72
0
LINE
8
FCrtYd
62
7
10
163.83
20
-95.315
11
133.35
21
-95.315
0
LINE
8
FCrtYd
62
7
10
163.83
20
-95.315
11
163.83
21
-113.095
0
LINE
8
FCrtYd
62
7
10
133.35
20
-95.315
11
133.35
21
-113.095
0
LINE
8
FCrtYd
62
7
10
133.35
20
-113.095
11
163.83
21
-113.095
0
LINE
8
FFab
62
5
10
163.83
20
-95.315
11
163.83
21
-113.095
0
LINE
8
0
10
133.39
20
-87.305
11
138.39
21
-87.305
0
LINE
8
0
10
138.39
20
-94.305
11
133.39
21
-94.305
0
LINE
8
0
10
133.39
20
-94.305
11
133.39
21
-87.305
0
LINE
8
0
10
138.39
20
-87.305
11
138.39
21
-94.305
0
LINE
8
FCrtYd
62
7
10
159.07
20
-118.525
11
166.05
21
-118.525
0
LINE
8
FCrtYd
62
7
10
166.05
20
-118.525
11
166.05
21
-116.425
0
LINE
8
FCrtYd
62
7
10
166.05
20
-116.425
11
159.07
21
-116.425
0
LINE
8
FCrtYd
62
7
10
159.07
20
-116.425
11
159.07
21
-118.525
0
LINE
8
FFab
62
5
10
164.36
20
-118.275
11
164.36
21
-116.675
0
LINE
8
FFab
62
5
10
160.02
20
-117.475
11
160.76
21
-117.475
0
LINE
8
FFab
62
5
10
165.1
20
-117.475
11
164.36
21
-117.475
0
LINE
8
FFab
62
5
10
160.76
20
-118.275
11
164.36
21
-118.275
0
LINE
8
FFab
62
5
10
164.36
20
-116.675
11
160.76
21
-116.675
0
LINE
8
FFab
62
5
10
160.76
20
-116.675
11
160.76
21
-118.275
0
LINE
8
0
10
153.71
20
-86.685
11
153.71
21
-79.685
0
LINE
8
0
10
158.71
20
-86.685
11
153.71
21
-86.685
0
LINE
8
0
10
158.71
20
-79.685
11
158.71
21
-86.685
0
LINE
8
0
10
153.71
20
-79.685
11
158.71
21
-79.685
0
LINE
8
0
10
138.47
20
-87.305
11
143.47
21
-87.305
0
LINE
8
0
10
143.47
20
-87.305
11
143.47
21
-94.305
0
LINE
8
0
10
143.47
20
-94.305
11
138.47
21
-94.305
0
LINE
8
0
10
138.47
20
-94.305
11
138.47
21
-87.305
0
CIRCLE
8
Cmts
62
1
10
132.715
20
-130.81
40
2.1
0
CIRCLE
8
FCrtYd
62
7
10
132.715
20
-130.81
40
2.35
0
LINE
8
FCrtYd
62
7
10
141.51
20
-118.64
11
141.51
21
-115.04
0
LINE
8
FCrtYd
62
7
10
135.36
20
-118.64
11
141.51
21
-118.64
0
LINE
8
FCrtYd
62
7
10
141.51
20
-115.04
11
135.36
21
-115.04
0
LINE
8
FCrtYd
62
7
10
135.36
20
-115.04
11
135.36
21
-118.64
0
LINE
8
FFab
62
5
10
135.89
20
-117.475
11
135.89
21
-115.57
0
LINE
8
FFab
62
5
10
140.97
20
-118.11
11
136.525
21
-118.11
0
LINE
8
FFab
62
5
10
140.97
20
-115.57
11
140.97
21
-118.11
0
LINE
8
FFab
62
5
10
135.89
20
-115.57
11
140.97
21
-115.57
0
LINE
8
FFab
62
5
10
136.525
20
-118.11
11
135.89
21
-117.475
0
LINE
8
FCrtYd
62
7
10
146.495
20
-120.46
11
146.495
21
-125.2
0
LINE
8
FCrtYd
62
7
10
151.955
20
-125.2
11
146.495
21
-125.2
0
LINE
8
FCrtYd
62
7
10
151.955
20
-125.2
11
151.955
21
-120.46
0
LINE
8
FCrtYd
62
7
10
146.495
20
-120.46
11
151.955
21
-120.46
0
LINE
8
FFab
62
5
10
147.455
20
-124.94
11
150.955
21
-124.94
0
ARC
8
FFab
62
5
10
147.471375
20
-124.943625
30
0
40
2.755629
50
28.131309
51
26.861309
0
ARC
8
FFab
62
5
10
149.225
20
-120.71
30
0
40
2.755628
50
-144.634016
51
-147.657641
0
LINE
8
0
10
158.71
20
-94.305
11
153.71
21
-94.305
0
LINE
8
0
10
153.71
20
-87.305
11
158.71
21
-87.305
0
LINE
8
0
10
153.71
20
-94.305
11
153.71
21
-87.305
0
LINE
8
0
10
158.71
20
-87.305
11
158.71
21
-94.305
0
LINE
8
Edge
62
2
10
166.354854
20
-77.009892
11
166.354854
21
-76.717284
0
LINE
8
Edge
62
2
10
130.873236
20
-133.197392
11
130.873236
21
-133.49
0
LINE
8
Edge
62
2
10
169.184574
20
-130.632246
11
169.2
21
-115.8
0
LINE
8
Edge
62
2
10
130.85
20
-102.0
11
130.85
21
-115.8
0
LINE
8
Edge
62
2
10
129.749032
20
-130.989878
11
129.98576
21
-131.203238
0
LINE
8
Edge
62
2
10
167.134794
20
-131.306362
11
167.392604
21
-131.119164
0
LINE
8
Edge
62
2
10
166.841772
20
-78.509254
11
166.682514
21
-78.233156
0
LINE
8
Edge
62
2
10
168.919238
20
-79.85901
11
168.607326
21
-79.792716
0
LINE
8
Edge
62
2
10
130.85
20
-100.0
11
130.85
21
-94.765
0
LINE
8
Edge
62
2
10
166.497
20
-132.014514
11
166.684452
21
-131.75645
0
LINE
8
Edge
62
2
10
166.897812
20
-131.519722
11
167.134794
21
-131.306362
0
LINE
8
Edge
62
2
10
130.873236
20
-133.5
11
166.01
21
-133.5
0
LINE
8
Edge
62
2
10
129.215124
20
-130.642914
11
129.490968
21
-130.802426
0
LINE
8
Edge
62
2
10
166.109142
20
-132.884718
11
166.207694
21
-132.581696
0
LINE
8
Edge
62
2
10
130.358228
20
-78.509254
11
130.17103
21
-78.767064
0
LINE
8
Edge
62
2
10
130.85
20
-115.8
11
128.0
21
-115.8
0
LINE
8
Edge
62
2
10
129.490968
20
-130.802426
11
129.749032
21
-130.989878
0
LINE
8
Edge
62
2
10
169.212608
20
-79.889744
11
168.919238
21
-79.85901
0
LINE
8
Edge
62
2
10
167.392604
20
-131.119164
11
167.668702
21
-130.959906
0
LINE
8
Edge
62
2
10
168.891966
20
-130.632246
11
169.184574
21
-130.632246
0
LINE
8
Edge
62
2
10
168.263062
20
-130.731814
11
168.574974
21
-130.66552
0
LINE
8
Edge
62
2
10
166.35
20
-94.765
11
169.212608
21
-94.765
0
LINE
8
Edge
62
2
10
169.2
20
-115.8
11
166.35
21
-115.8
0
LINE
8
Edge
62
2
10
167.668702
20
-130.959906
11
167.96004
21
-130.830112
0
LINE
8
Edge
62
2
10
128.620764
20
-130.414568
11
128.923786
21
-130.51312
0
LINE
8
Edge
62
2
10
130.745578
20
-77.638796
11
130.647026
21
-77.941818
0
LINE
8
Edge
62
2
10
168.607326
20
-79.792716
11
168.304304
21
-79.694164
0
LINE
8
Edge
62
2
10
166.35
20
-100.0
11
164.5
21
-100.0
0
LINE
8
Edge
62
2
10
168.304304
20
-79.694164
11
168.012966
21
-79.56437
0
LINE
8
Edge
62
2
10
130.811872
20
-77.326884
11
130.745578
21
-77.638796
0
ARC
8
Edge
62
2
10
132.7
20
-100.0
30
0
40
1.414214
50
-177.7
51
-45.0
0
LINE
8
Edge
62
2
10
164.5
20
-102.0
11
166.35
21
-102.0
0
LINE
8
Edge
62
2
10
129.95767
20
-79.004046
11
129.720942
21
-79.217406
0
LINE
8
Edge
62
2
10
168.012966
20
-79.56437
11
167.737122
21
-79.404858
0
LINE
8
Edge
62
2
10
129.187034
20
-79.56437
11
128.895696
21
-79.69391
0
LINE
8
Edge
62
2
10
130.545576
20
-131.974128
11
130.67537
21
-132.265466
0
LINE
8
Edge
62
2
10
166.35
20
-100.0
11
166.35
21
-94.765
0
LINE
8
Edge
62
2
10
130.517486
20
-78.233156
11
130.358228
21
-78.509254
0
LINE
8
Edge
62
2
10
167.737122
20
-79.404858
11
167.479058
21
-79.217406
0
LINE
8
Edge
62
2
10
166.354854
20
-76.717284
11
130.844892
21
-76.717284
0
LINE
8
Edge
62
2
10
169.212608
20
-94.765
11
169.212608
21
-79.889744
0
LINE
8
Edge
62
2
10
130.839962
20
-132.8804
11
130.873236
21
-133.197392
0
LINE
8
Edge
62
2
10
166.207694
20
-132.581696
11
166.337488
21
-132.290358
0
LINE
8
Edge
62
2
10
167.479058
20
-79.217406
11
167.24233
21
-79.004046
0
LINE
8
Edge
62
2
10
167.02897
20
-78.767064
11
166.841772
21
-78.509254
0
LINE
8
Edge
62
2
10
166.337488
20
-132.290358
11
166.497
21
-132.014514
0
LINE
8
Edge
62
2
10
128.923786
20
-130.51312
11
129.215124
21
-130.642914
0
LINE
8
Edge
62
2
10
129.98576
20
-131.203238
11
130.19912
21
-131.44022
0
LINE
8
Edge
62
2
10
166.55272
20
-77.941818
11
166.454422
21
-77.638796
0
LINE
8
Edge
62
2
10
128.280762
20
-79.85901
11
127.987392
21
-79.889744
0
LINE
8
Edge
62
2
10
167.96004
20
-130.830112
11
168.263062
21
-130.731814
0
LINE
8
Edge
62
2
10
130.17103
20
-78.767064
11
129.95767
21
-79.004046
0
LINE
8
Edge
62
2
10
130.845146
20
-77.009892
11
130.811872
21
-77.326884
0
LINE
8
Edge
62
2
10
128.015482
20
-130.31754
11
128.308852
21
-130.348274
0
LINE
8
Edge
62
2
10
166.388128
20
-77.326884
11
166.354854
21
-77.009892
0
LINE
8
Edge
62
2
10
129.462878
20
-79.404858
11
129.187034
21
-79.56437
0
LINE
8
Edge
62
2
10
128.592674
20
-79.792462
11
128.280762
21
-79.85901
0
LINE
8
Edge
62
2
10
130.647026
20
-77.941818
11
130.517486
21
-78.233156
0
LINE
8
Edge
62
2
10
166.042848
20
-133.19663
11
166.109142
21
-132.884718
0
LINE
8
Edge
62
2
10
166.684452
20
-131.75645
11
166.897812
21
-131.519722
0
LINE
8
Edge
62
2
10
130.386318
20
-131.69803
11
130.545576
21
-131.974128
0
LINE
8
Edge
62
2
10
128.895696
20
-79.69391
11
128.592674
21
-79.792462
0
LINE
8
Edge
62
2
10
130.85
20
-102.0
11
132.7
21
-102.0
0
LINE
8
Edge
62
2
10
166.012114
20
-133.49
11
166.042848
21
-133.19663
0
LINE
8
Edge
62
2
10
166.454422
20
-77.638796
11
166.388128
21
-77.326884
0
LINE
8
Edge
62
2
10
130.844892
20
-76.717284
11
130.845146
21
-77.009892
0
LINE
8
Edge
62
2
10
128.308852
20
-130.348274
11
128.620764
21
-130.414568
0
LINE
8
Edge
62
2
10
127.987392
20
-79.889744
11
127.987392
21
-94.765
0
LINE
8
Edge
62
2
10
167.24233
20
-79.004046
11
167.02897
21
-78.767064
0
LINE
8
Edge
62
2
10
129.720942
20
-79.217406
11
129.462878
21
-79.404858
0
LINE
8
Edge
62
2
10
166.682514
20
-78.233156
11
166.55272
21
-77.941818
0
LINE
8
Edge
62
2
10
130.67537
20
-132.265466
11
130.773668
21
-132.568488
0
LINE
8
Edge
62
2
10
166.35
20
-102.0
11
166.35
21
-115.8
0
LINE
8
Edge
62
2
10
130.19912
20
-131.44022
11
130.386318
21
-131.69803
0
LINE
8
Edge
62
2
10
128.0
20
-115.8
11
128.015482
21
-130.31754
0
LINE
8
Edge
62
2
10
168.574974
20
-130.66552
11
168.891966
21
-130.632246
0
LINE
8
Edge
62
2
10
132.7
20
-100.0
11
130.85
21
-100.0
0
LINE
8
Edge
62
2
10
127.987392
20
-94.765
11
130.85
21
-94.765
0
ARC
8
Edge
62
2
10
164.5
20
-102.0
30
0
40
1.414214
50
-29.5
51
135.0
0
LINE
8
Edge
62
2
10
130.773668
20
-132.568488
11
130.839962
21
-132.8804
0
LINE
8
Margin
62
9
10
166.0
20
-99.5
11
166.0
21
-94.0
0
LINE
8
Margin
62
9
10
168.5
20
-116.5
11
166.0
21
-116.5
0
LINE
8
Margin
62
9
10
168.5
20
-94.0
11
168.5
21
-77.0
0
LINE
8
Margin
62
9
10
128.5
20
-133.0
11
168.5
21
-133.0
0
LINE
8
Margin
62
9
10
128.5
20
-116.5
11
128.5
21
-133.0
0
LINE
8
Margin
62
9
10
128.5
20
-94.5
11
131.5
21
-94.5
0
LINE
8
Margin
62
9
10
128.5
20
-77.0
11
128.5
21
-94.5
0
LINE
8
Margin
62
9
10
166.0
20
-94.0
11
168.5
21
-94.0
0
LINE
8
Margin
62
9
10
168.5
20
-77.0
11
128.5
21
-77.0
0
LINE
8
Margin
62
9
10
131.5
20
-99.5
11
131.5
21
-116.5
0
LINE
8
Margin
62
9
10
131.5
20
-94.5
11
131.5
21
-99.5
0
LINE
8
Margin
62
9
10
168.5
20
-133.0
11
168.5
21
-116.5
0
LINE
8
Margin
62
9
10
131.5
20
-116.5
11
128.5
21
-116.5
0
LINE
8
Margin
62
9
10
166.0
20
-116.5
11
166.0
21
-99.5
0
LINE
8
FFab
62
5
10
166.5
20
-102.0
11
166.5
21
-115.4
0
LINE
8
FFab
62
5
10
132.7
20
-102.0
11
130.7
21
-102.0
0
ARC
8
FFab
62
5
10
164.5
20
-102.0
30
0
40
1.414214
50
-29.5
51
135.0
0
LINE
8
FFab
62
5
10
166.5
20
-95.0
11
169.4
21
-95.0
0
LINE
8
FFab
62
5
10
169.4
20
-133.7
11
169.4
21
-115.4
0
LINE
8
FFab
62
5
10
127.8
20
-76.5
11
127.8
21
-94.9
0
ARC
8
FFab
62
5
10
132.7
20
-100.0
30
0
40
1.414214
50
-177.7
51
-45.0
0
LINE
8
FFab
62
5
10
169.4
20
-95.0
11
169.4
21
-76.5
0
LINE
8
FFab
62
5
10
130.7
20
-94.9
11
127.8
21
-94.9
0
LINE
8
FFab
62
5
10
130.7
20
-115.4
11
127.8
21
-115.4
0
LINE
8
FFab
62
5
10
130.7
20
-100.0
11
130.7
21
-94.9
0
LINE
8
FFab
62
5
10
130.7
20
-115.4
11
130.7
21
-102.0
0
LINE
8
FFab
62
5
10
166.5
20
-102.0
11
164.5
21
-102.0
0
LINE
8
FFab
62
5
10
169.4
20
-76.5
11
127.8
21
-76.5
0
LINE
8
FFab
62
5
10
169.4
20
-115.4
11
166.5
21
-115.4
0
LINE
8
FFab
62
5
10
166.5
20
-100.0
11
164.5
21
-100.0
0
LINE
8
FFab
62
5
10
166.5
20
-95.0
11
166.5
21
-100.0
0
LINE
8
FFab
62
5
10
132.7
20
-100.0
11
130.7
21
-100.0
0
LINE
8
FFab
62
5
10
127.8
20
-133.7
11
169.4
21
-133.7
0
LINE
8
FFab
62
5
10
127.8
20
-115.4
11
127.8
21
-133.7
0
ENDSEC
0
EOF
