%TF.GenerationSoftware,KiCad,Pcbnew,(6.0.7)*%
%TF.CreationDate,2022-08-14T18:42:22+02:00*%
%TF.ProjectId,BURC_Encoder_JRFormat,42555243-5f45-46e6-936f-6465725f4a52,v1.0*%
%TF.SameCoordinates,Original*%
%TF.FileFunction,Soldermask,Bot*%
%TF.FilePolarity,Negative*%
%FSLAX46Y46*%
G04 Gerber Fmt 4.6, Leading zero omitted, Abs format (unit mm)*
G04 Created by KiCad (PCBNEW (6.0.7)) date 2022-08-14 18:42:22*
%MOMM*%
%LPD*%
G01*
G04 APERTURE LIST*
%ADD10R,1.700000X1.700000*%
%ADD11O,1.700000X1.700000*%
%ADD12C,1.700000*%
%ADD13C,3.500000*%
%ADD14C,1.778000*%
%ADD15O,3.333600X1.766800*%
%ADD16O,1.600000X1.600000*%
%ADD17C,2.100000*%
G04 APERTURE END LIST*
D10*
%TO.C,J4*%
X129540000Y-121920000D03*
D11*
X129540000Y-124460000D03*
X129540000Y-127000000D03*
X129540000Y-129540000D03*
%TD*%
D12*
%TO.C,SW12*%
X151130000Y-88265000D03*
X151130000Y-93345000D03*
%TD*%
D13*
%TO.C,U2*%
X153630000Y-120595000D03*
X151130000Y-129595000D03*
X148630000Y-120595000D03*
%TD*%
D12*
%TO.C,SW7*%
X161290000Y-80645000D03*
X161290000Y-85725000D03*
%TD*%
%TO.C,SW5*%
X151130000Y-80645000D03*
X151130000Y-85725000D03*
%TD*%
D10*
%TO.C,J2*%
X132080000Y-106680000D03*
D11*
X132080000Y-109220000D03*
X132080000Y-111760000D03*
%TD*%
D14*
%TO.C,J1*%
X164659221Y-120719532D03*
X164659221Y-128339532D03*
X164659221Y-123259532D03*
X164659221Y-125799532D03*
X164659221Y-130879532D03*
D15*
X160849221Y-120719532D03*
X160849221Y-123259532D03*
X160849221Y-125799532D03*
X160849221Y-128339532D03*
X160849221Y-130879532D03*
%TD*%
D12*
%TO.C,SW13*%
X146050000Y-88265000D03*
X146050000Y-93345000D03*
%TD*%
%TO.C,SW10*%
X161290000Y-88265000D03*
X161290000Y-93345000D03*
%TD*%
%TO.C,SW1*%
X130810000Y-80645000D03*
X130810000Y-85725000D03*
%TD*%
%TO.C,SW3*%
X140970000Y-80645000D03*
X140970000Y-85725000D03*
%TD*%
%TO.C,SW16*%
X130810000Y-88265000D03*
X130810000Y-93345000D03*
%TD*%
%TO.C,SW8*%
X166370000Y-80645000D03*
X166370000Y-85725000D03*
%TD*%
%TO.C,SW9*%
X166370000Y-88265000D03*
X166370000Y-93345000D03*
%TD*%
%TO.C,SW2*%
X135890000Y-80645000D03*
X135890000Y-85725000D03*
%TD*%
D13*
%TO.C,U3*%
X138390000Y-120595000D03*
X135890000Y-129595000D03*
X133390000Y-120595000D03*
%TD*%
D12*
%TO.C,SW4*%
X146050000Y-80645000D03*
X146050000Y-85725000D03*
%TD*%
D16*
%TO.C,U1*%
X137160000Y-111825000D03*
X139700000Y-111825000D03*
X142240000Y-111825000D03*
X144780000Y-111825000D03*
X147320000Y-111825000D03*
X149860000Y-111825000D03*
X152400000Y-111825000D03*
X154940000Y-111825000D03*
X157480000Y-111825000D03*
X160020000Y-111825000D03*
X162560000Y-111825000D03*
X162560000Y-96585000D03*
X160020000Y-96585000D03*
X157480000Y-96585000D03*
X154940000Y-96585000D03*
X152400000Y-96585000D03*
X149860000Y-96585000D03*
X147320000Y-96585000D03*
X144780000Y-96585000D03*
X142240000Y-96585000D03*
X139700000Y-96585000D03*
X137160000Y-96585000D03*
X134620000Y-96585000D03*
X143510000Y-99125000D03*
X146050000Y-99125000D03*
X153670000Y-99125000D03*
X156210000Y-99125000D03*
%TD*%
D12*
%TO.C,SW15*%
X135890000Y-88265000D03*
X135890000Y-93345000D03*
%TD*%
%TO.C,SW6*%
X156210000Y-80645000D03*
X156210000Y-85725000D03*
%TD*%
%TO.C,SW14*%
X140970000Y-88265000D03*
X140970000Y-93345000D03*
%TD*%
D17*
%TO.C,REF\u002A\u002A*%
X143510000Y-131445000D03*
%TD*%
D10*
%TO.C,J3*%
X140335000Y-115570000D03*
D11*
X142875000Y-115570000D03*
%TD*%
D12*
%TO.C,SW11*%
X156210000Y-88265000D03*
X156210000Y-93345000D03*
%TD*%
M02*
