%TF.GenerationSoftware,KiCad,Pcbnew,(6.0.7)*%
%TF.CreationDate,2022-08-14T18:42:13+02:00*%
%TF.ProjectId,BURC_Encoder_JRFormat,42555243-5f45-46e6-936f-6465725f4a52,v1.0*%
%TF.SameCoordinates,Original*%
%TF.FileFunction,Drillmap*%
%TF.FilePolarity,Positive*%
%FSLAX45Y45*%
G04 Gerber Fmt 4.5, Leading zero omitted, Abs format (unit mm)*
G04 Created by KiCad (PCBNEW (6.0.7)) date 2022-08-14 18:42:13*
%MOMM*%
%LPD*%
G01*
G04 APERTURE LIST*
%ADD10C,0.100000*%
%ADD11C,0.050000*%
%ADD12C,0.200000*%
%ADD13C,0.040000*%
%ADD14C,0.106680*%
%ADD15C,0.110000*%
%ADD16C,0.250000*%
G04 APERTURE END LIST*
D10*
X16635485Y-7700989D02*
X16635485Y-7671728D01*
X13087324Y-13319739D02*
X13087324Y-13349000D01*
D11*
X16918457Y-13063225D02*
X16920000Y-11580000D01*
X13085000Y-10200000D02*
X13085000Y-11580000D01*
D10*
X12974903Y-13098988D02*
X12998576Y-13120324D01*
X16713479Y-13130636D02*
X16739260Y-13111916D01*
X16684177Y-7850925D02*
X16668251Y-7823316D01*
X16891924Y-7985901D02*
X16860733Y-7979272D01*
X13085000Y-10000000D02*
X13085000Y-9476500D01*
X16649700Y-13201451D02*
X16668445Y-13175645D01*
X16689781Y-13151972D02*
X16713479Y-13130636D01*
D11*
X13087324Y-13350000D02*
X16601000Y-13350000D01*
D10*
X12921512Y-13064291D02*
X12949097Y-13080243D01*
X16610914Y-13288472D02*
X16620769Y-13258170D01*
X13035823Y-7850925D02*
X13017103Y-7876706D01*
D11*
X13085000Y-11580000D02*
X12800000Y-11580000D01*
D10*
X12949097Y-13080243D02*
X12974903Y-13098988D01*
X16921261Y-7988974D02*
X16891924Y-7985901D01*
X16739260Y-13111916D02*
X16766870Y-13095991D01*
X16889197Y-13063225D02*
X16918457Y-13063225D01*
X16826306Y-13073181D02*
X16857497Y-13066552D01*
D11*
X16635000Y-9476500D02*
X16921261Y-9476500D01*
X16920000Y-11580000D02*
X16635000Y-11580000D01*
D10*
X16766870Y-13095991D02*
X16796004Y-13083011D01*
X12862076Y-13041457D02*
X12892379Y-13051312D01*
X13074558Y-7763880D02*
X13064703Y-7794182D01*
X16860733Y-7979272D02*
X16830430Y-7969416D01*
D11*
X16635000Y-10000000D02*
X16450000Y-10000000D01*
D10*
X16830430Y-7969416D02*
X16801297Y-7956437D01*
X13081187Y-7732688D02*
X13074558Y-7763880D01*
X13270000Y-10200000D02*
G75*
G03*
X13270000Y-10000000I0J100000D01*
G01*
D11*
X16450000Y-10200000D02*
X16635000Y-10200000D01*
D10*
X12995767Y-7900405D02*
X12972094Y-7921741D01*
X16801297Y-7956437D02*
X16773712Y-7940486D01*
X12918703Y-7956437D02*
X12889570Y-7969391D01*
X13054558Y-13197413D02*
X13067537Y-13226547D01*
D11*
X16635000Y-10000000D02*
X16635000Y-9476500D01*
D10*
X13051749Y-7823316D02*
X13035823Y-7850925D01*
X16773712Y-7940486D02*
X16747906Y-7921741D01*
X16635485Y-7671728D02*
X13084489Y-7671728D01*
X16921261Y-9476500D02*
X16921261Y-7988974D01*
X13083996Y-13288040D02*
X13087324Y-13319739D01*
X16620769Y-13258170D02*
X16633749Y-13229036D01*
X16747906Y-7921741D02*
X16724233Y-7900405D01*
X16702897Y-7876706D02*
X16684177Y-7850925D01*
X16633749Y-13229036D02*
X16649700Y-13201451D01*
X12892379Y-13051312D02*
X12921512Y-13064291D01*
X12998576Y-13120324D02*
X13019912Y-13144022D01*
X16655272Y-7794182D02*
X16645442Y-7763880D01*
X12828076Y-7985901D02*
X12798739Y-7988974D01*
X16796004Y-13083011D02*
X16826306Y-13073181D01*
X13017103Y-7876706D02*
X12995767Y-7900405D01*
X13084515Y-7700989D02*
X13081187Y-7732688D01*
X12801548Y-13031754D02*
X12830885Y-13034827D01*
X16638813Y-7732688D02*
X16635485Y-7700989D01*
X12946288Y-7940486D02*
X12918703Y-7956437D01*
X12859267Y-7979246D02*
X12828076Y-7985901D01*
X13064703Y-7794182D02*
X13051749Y-7823316D01*
X16604285Y-13319663D02*
X16610914Y-13288472D01*
X16668445Y-13175645D02*
X16689781Y-13151972D01*
X13038632Y-13169803D02*
X13054558Y-13197413D01*
X12889570Y-7969391D02*
X12859267Y-7979246D01*
X13085000Y-10200000D02*
X13270000Y-10200000D01*
X16601211Y-13349000D02*
X16604285Y-13319663D01*
X16645442Y-7763880D02*
X16638813Y-7732688D01*
X13084489Y-7671728D02*
X13084515Y-7700989D01*
X12830885Y-13034827D02*
X12862076Y-13041457D01*
X12798739Y-7988974D02*
X12798739Y-9476500D01*
X16724233Y-7900405D02*
X16702897Y-7876706D01*
X12972094Y-7921741D02*
X12946288Y-7940486D01*
X16668251Y-7823316D02*
X16655272Y-7794182D01*
X13067537Y-13226547D02*
X13077367Y-13256849D01*
D11*
X16635000Y-10200000D02*
X16635000Y-11580000D01*
D10*
X13019912Y-13144022D02*
X13038632Y-13169803D01*
D11*
X12800000Y-11580000D02*
X12801548Y-13031754D01*
D10*
X16857497Y-13066552D02*
X16889197Y-13063225D01*
X13270000Y-10000000D02*
X13085000Y-10000000D01*
X12798739Y-9476500D02*
X13085000Y-9476500D01*
D11*
X16450000Y-10000000D02*
G75*
G03*
X16450000Y-10200000I0J-100000D01*
G01*
D10*
X13077367Y-13256849D02*
X13083996Y-13288040D01*
D12*
D13*
X13632500Y-10521000D02*
X13672500Y-10561000D01*
X13672500Y-10521000D02*
X13632500Y-10561000D01*
X14318300Y-12070400D02*
X14358300Y-12110400D01*
X14358300Y-12070400D02*
X14318300Y-12110400D01*
X15131100Y-11625900D02*
X15171100Y-11665900D01*
X15171100Y-11625900D02*
X15131100Y-11665900D01*
X15664500Y-11565000D02*
X15704500Y-11605000D01*
X15704500Y-11565000D02*
X15664500Y-11605000D01*
D10*
X13004000Y-12192000D02*
G75*
G03*
X13004000Y-12192000I-50000J0D01*
G01*
X13004000Y-12446000D02*
G75*
G03*
X13004000Y-12446000I-50000J0D01*
G01*
X13004000Y-12700000D02*
G75*
G03*
X13004000Y-12700000I-50000J0D01*
G01*
X13004000Y-12954000D02*
G75*
G03*
X13004000Y-12954000I-50000J0D01*
G01*
X13258000Y-10668000D02*
G75*
G03*
X13258000Y-10668000I-50000J0D01*
G01*
X13258000Y-10922000D02*
G75*
G03*
X13258000Y-10922000I-50000J0D01*
G01*
X13258000Y-11176000D02*
G75*
G03*
X13258000Y-11176000I-50000J0D01*
G01*
X13512000Y-9658500D02*
G75*
G03*
X13512000Y-9658500I-50000J0D01*
G01*
X13766000Y-9658500D02*
G75*
G03*
X13766000Y-9658500I-50000J0D01*
G01*
X13766000Y-11182500D02*
G75*
G03*
X13766000Y-11182500I-50000J0D01*
G01*
X14020000Y-9658500D02*
G75*
G03*
X14020000Y-9658500I-50000J0D01*
G01*
X14020000Y-11182500D02*
G75*
G03*
X14020000Y-11182500I-50000J0D01*
G01*
X14083500Y-11557000D02*
G75*
G03*
X14083500Y-11557000I-50000J0D01*
G01*
X14274000Y-9658500D02*
G75*
G03*
X14274000Y-9658500I-50000J0D01*
G01*
X14274000Y-11182500D02*
G75*
G03*
X14274000Y-11182500I-50000J0D01*
G01*
X14337500Y-11557000D02*
G75*
G03*
X14337500Y-11557000I-50000J0D01*
G01*
X14401000Y-9912500D02*
G75*
G03*
X14401000Y-9912500I-50000J0D01*
G01*
X14528000Y-9658500D02*
G75*
G03*
X14528000Y-9658500I-50000J0D01*
G01*
X14528000Y-11182500D02*
G75*
G03*
X14528000Y-11182500I-50000J0D01*
G01*
X14655000Y-9912500D02*
G75*
G03*
X14655000Y-9912500I-50000J0D01*
G01*
X14782000Y-9658500D02*
G75*
G03*
X14782000Y-9658500I-50000J0D01*
G01*
X14782000Y-11182500D02*
G75*
G03*
X14782000Y-11182500I-50000J0D01*
G01*
X15036000Y-9658500D02*
G75*
G03*
X15036000Y-9658500I-50000J0D01*
G01*
X15036000Y-11182500D02*
G75*
G03*
X15036000Y-11182500I-50000J0D01*
G01*
X15290000Y-9658500D02*
G75*
G03*
X15290000Y-9658500I-50000J0D01*
G01*
X15290000Y-11182500D02*
G75*
G03*
X15290000Y-11182500I-50000J0D01*
G01*
X15417000Y-9912500D02*
G75*
G03*
X15417000Y-9912500I-50000J0D01*
G01*
X15544000Y-9658500D02*
G75*
G03*
X15544000Y-9658500I-50000J0D01*
G01*
X15544000Y-11182500D02*
G75*
G03*
X15544000Y-11182500I-50000J0D01*
G01*
X15671000Y-9912500D02*
G75*
G03*
X15671000Y-9912500I-50000J0D01*
G01*
X15798000Y-9658500D02*
G75*
G03*
X15798000Y-9658500I-50000J0D01*
G01*
X15798000Y-11182500D02*
G75*
G03*
X15798000Y-11182500I-50000J0D01*
G01*
X16052000Y-9658500D02*
G75*
G03*
X16052000Y-9658500I-50000J0D01*
G01*
X16052000Y-11182500D02*
G75*
G03*
X16052000Y-11182500I-50000J0D01*
G01*
X16306000Y-9658500D02*
G75*
G03*
X16306000Y-9658500I-50000J0D01*
G01*
X16306000Y-11182500D02*
G75*
G03*
X16306000Y-11182500I-50000J0D01*
G01*
D14*
X16084922Y-12018613D02*
X16084922Y-12125293D01*
X16031582Y-12071953D02*
X16138262Y-12071953D01*
X16084922Y-12272613D02*
X16084922Y-12379293D01*
X16031582Y-12325953D02*
X16138262Y-12325953D01*
X16084922Y-12526613D02*
X16084922Y-12633293D01*
X16031582Y-12579953D02*
X16138262Y-12579953D01*
X16084922Y-12780613D02*
X16084922Y-12887293D01*
X16031582Y-12833953D02*
X16138262Y-12833953D01*
X16084922Y-13034613D02*
X16084922Y-13141293D01*
X16031582Y-13087953D02*
X16138262Y-13087953D01*
D15*
X13119891Y-8103391D02*
X13119891Y-8025609D01*
X13042109Y-8025609D01*
X13042109Y-8103391D01*
X13119891Y-8103391D01*
X13119891Y-8611391D02*
X13119891Y-8533609D01*
X13042109Y-8533609D01*
X13042109Y-8611391D01*
X13119891Y-8611391D01*
X13119891Y-8865391D02*
X13119891Y-8787609D01*
X13042109Y-8787609D01*
X13042109Y-8865391D01*
X13119891Y-8865391D01*
X13119891Y-9373391D02*
X13119891Y-9295609D01*
X13042109Y-9295609D01*
X13042109Y-9373391D01*
X13119891Y-9373391D01*
X13627891Y-8103391D02*
X13627891Y-8025609D01*
X13550109Y-8025609D01*
X13550109Y-8103391D01*
X13627891Y-8103391D01*
X13627891Y-8611391D02*
X13627891Y-8533609D01*
X13550109Y-8533609D01*
X13550109Y-8611391D01*
X13627891Y-8611391D01*
X13627891Y-8865391D02*
X13627891Y-8787609D01*
X13550109Y-8787609D01*
X13550109Y-8865391D01*
X13627891Y-8865391D01*
X13627891Y-9373391D02*
X13627891Y-9295609D01*
X13550109Y-9295609D01*
X13550109Y-9373391D01*
X13627891Y-9373391D01*
X14135891Y-8103391D02*
X14135891Y-8025609D01*
X14058109Y-8025609D01*
X14058109Y-8103391D01*
X14135891Y-8103391D01*
X14135891Y-8611391D02*
X14135891Y-8533609D01*
X14058109Y-8533609D01*
X14058109Y-8611391D01*
X14135891Y-8611391D01*
X14135891Y-8865391D02*
X14135891Y-8787609D01*
X14058109Y-8787609D01*
X14058109Y-8865391D01*
X14135891Y-8865391D01*
X14135891Y-9373391D02*
X14135891Y-9295609D01*
X14058109Y-9295609D01*
X14058109Y-9373391D01*
X14135891Y-9373391D01*
X14643891Y-8103391D02*
X14643891Y-8025609D01*
X14566109Y-8025609D01*
X14566109Y-8103391D01*
X14643891Y-8103391D01*
X14643891Y-8611391D02*
X14643891Y-8533609D01*
X14566109Y-8533609D01*
X14566109Y-8611391D01*
X14643891Y-8611391D01*
X14643891Y-8865391D02*
X14643891Y-8787609D01*
X14566109Y-8787609D01*
X14566109Y-8865391D01*
X14643891Y-8865391D01*
X14643891Y-9373391D02*
X14643891Y-9295609D01*
X14566109Y-9295609D01*
X14566109Y-9373391D01*
X14643891Y-9373391D01*
X15151891Y-8103391D02*
X15151891Y-8025609D01*
X15074109Y-8025609D01*
X15074109Y-8103391D01*
X15151891Y-8103391D01*
X15151891Y-8611391D02*
X15151891Y-8533609D01*
X15074109Y-8533609D01*
X15074109Y-8611391D01*
X15151891Y-8611391D01*
X15151891Y-8865391D02*
X15151891Y-8787609D01*
X15074109Y-8787609D01*
X15074109Y-8865391D01*
X15151891Y-8865391D01*
X15151891Y-9373391D02*
X15151891Y-9295609D01*
X15074109Y-9295609D01*
X15074109Y-9373391D01*
X15151891Y-9373391D01*
X15659891Y-8103391D02*
X15659891Y-8025609D01*
X15582109Y-8025609D01*
X15582109Y-8103391D01*
X15659891Y-8103391D01*
X15659891Y-8611391D02*
X15659891Y-8533609D01*
X15582109Y-8533609D01*
X15582109Y-8611391D01*
X15659891Y-8611391D01*
X15659891Y-8865391D02*
X15659891Y-8787609D01*
X15582109Y-8787609D01*
X15582109Y-8865391D01*
X15659891Y-8865391D01*
X15659891Y-9373391D02*
X15659891Y-9295609D01*
X15582109Y-9295609D01*
X15582109Y-9373391D01*
X15659891Y-9373391D01*
X16167891Y-8103391D02*
X16167891Y-8025609D01*
X16090109Y-8025609D01*
X16090109Y-8103391D01*
X16167891Y-8103391D01*
X16167891Y-8611391D02*
X16167891Y-8533609D01*
X16090109Y-8533609D01*
X16090109Y-8611391D01*
X16167891Y-8611391D01*
X16167891Y-8865391D02*
X16167891Y-8787609D01*
X16090109Y-8787609D01*
X16090109Y-8865391D01*
X16167891Y-8865391D01*
X16167891Y-9373391D02*
X16167891Y-9295609D01*
X16090109Y-9295609D01*
X16090109Y-9373391D01*
X16167891Y-9373391D01*
X16675891Y-8103391D02*
X16675891Y-8025609D01*
X16598109Y-8025609D01*
X16598109Y-8103391D01*
X16675891Y-8103391D01*
X16675891Y-8611391D02*
X16675891Y-8533609D01*
X16598109Y-8533609D01*
X16598109Y-8611391D01*
X16675891Y-8611391D01*
X16675891Y-8865391D02*
X16675891Y-8787609D01*
X16598109Y-8787609D01*
X16598109Y-8865391D01*
X16675891Y-8865391D01*
X16675891Y-9373391D02*
X16675891Y-9295609D01*
X16598109Y-9295609D01*
X16598109Y-9373391D01*
X16675891Y-9373391D01*
D16*
X13339000Y-12184500D02*
X13464000Y-12059500D01*
X13339000Y-11934500D01*
X13214000Y-12059500D01*
X13339000Y-12184500D01*
D12*
X13214000Y-12034500D02*
X13214000Y-12084500D01*
X13464000Y-12034500D02*
X13464000Y-12084500D01*
X13214000Y-12084500D02*
G75*
G03*
X13464000Y-12084500I125000J0D01*
G01*
X13464000Y-12034500D02*
G75*
G03*
X13214000Y-12034500I-125000J0D01*
G01*
D16*
X13589000Y-13084500D02*
X13714000Y-12959500D01*
X13589000Y-12834500D01*
X13464000Y-12959500D01*
X13589000Y-13084500D01*
X13839000Y-12184500D02*
X13964000Y-12059500D01*
X13839000Y-11934500D01*
X13714000Y-12059500D01*
X13839000Y-12184500D01*
X14863000Y-12184500D02*
X14988000Y-12059500D01*
X14863000Y-11934500D01*
X14738000Y-12059500D01*
X14863000Y-12184500D01*
D12*
X14738000Y-12034500D02*
X14738000Y-12084500D01*
X14988000Y-12034500D02*
X14988000Y-12084500D01*
X14738000Y-12084500D02*
G75*
G03*
X14988000Y-12084500I125000J0D01*
G01*
X14988000Y-12034500D02*
G75*
G03*
X14738000Y-12034500I-125000J0D01*
G01*
D16*
X15113000Y-13084500D02*
X15238000Y-12959500D01*
X15113000Y-12834500D01*
X14988000Y-12959500D01*
X15113000Y-13084500D01*
X15363000Y-12184500D02*
X15488000Y-12059500D01*
X15363000Y-11934500D01*
X15238000Y-12059500D01*
X15363000Y-12184500D01*
D12*
X13051358Y-13664476D02*
X13051358Y-13464476D01*
X13098977Y-13464476D01*
X13127549Y-13474000D01*
X13146596Y-13493048D01*
X13156120Y-13512095D01*
X13165644Y-13550190D01*
X13165644Y-13578762D01*
X13156120Y-13616857D01*
X13146596Y-13635905D01*
X13127549Y-13654952D01*
X13098977Y-13664476D01*
X13051358Y-13664476D01*
X13251358Y-13664476D02*
X13251358Y-13531143D01*
X13251358Y-13569238D02*
X13260882Y-13550190D01*
X13270406Y-13540667D01*
X13289453Y-13531143D01*
X13308501Y-13531143D01*
X13375168Y-13664476D02*
X13375168Y-13531143D01*
X13375168Y-13464476D02*
X13365644Y-13474000D01*
X13375168Y-13483524D01*
X13384691Y-13474000D01*
X13375168Y-13464476D01*
X13375168Y-13483524D01*
X13498977Y-13664476D02*
X13479930Y-13654952D01*
X13470406Y-13635905D01*
X13470406Y-13464476D01*
X13603739Y-13664476D02*
X13584691Y-13654952D01*
X13575168Y-13635905D01*
X13575168Y-13464476D01*
X13832311Y-13664476D02*
X13832311Y-13464476D01*
X13898977Y-13607333D01*
X13965644Y-13464476D01*
X13965644Y-13664476D01*
X14146596Y-13664476D02*
X14146596Y-13559714D01*
X14137072Y-13540667D01*
X14118025Y-13531143D01*
X14079930Y-13531143D01*
X14060882Y-13540667D01*
X14146596Y-13654952D02*
X14127549Y-13664476D01*
X14079930Y-13664476D01*
X14060882Y-13654952D01*
X14051358Y-13635905D01*
X14051358Y-13616857D01*
X14060882Y-13597809D01*
X14079930Y-13588286D01*
X14127549Y-13588286D01*
X14146596Y-13578762D01*
X14241834Y-13531143D02*
X14241834Y-13731143D01*
X14241834Y-13540667D02*
X14260882Y-13531143D01*
X14298977Y-13531143D01*
X14318025Y-13540667D01*
X14327549Y-13550190D01*
X14337072Y-13569238D01*
X14337072Y-13626381D01*
X14327549Y-13645428D01*
X14318025Y-13654952D01*
X14298977Y-13664476D01*
X14260882Y-13664476D01*
X14241834Y-13654952D01*
X14422787Y-13645428D02*
X14432311Y-13654952D01*
X14422787Y-13664476D01*
X14413263Y-13654952D01*
X14422787Y-13645428D01*
X14422787Y-13664476D01*
X14422787Y-13540667D02*
X14432311Y-13550190D01*
X14422787Y-13559714D01*
X14413263Y-13550190D01*
X14422787Y-13540667D01*
X14422787Y-13559714D01*
D13*
X12753739Y-13974000D02*
X12793739Y-14014000D01*
X12793739Y-13974000D02*
X12753739Y-14014000D01*
D12*
X13089453Y-13884476D02*
X13108501Y-13884476D01*
X13127549Y-13894000D01*
X13137072Y-13903524D01*
X13146596Y-13922571D01*
X13156120Y-13960667D01*
X13156120Y-14008286D01*
X13146596Y-14046381D01*
X13137072Y-14065428D01*
X13127549Y-14074952D01*
X13108501Y-14084476D01*
X13089453Y-14084476D01*
X13070406Y-14074952D01*
X13060882Y-14065428D01*
X13051358Y-14046381D01*
X13041834Y-14008286D01*
X13041834Y-13960667D01*
X13051358Y-13922571D01*
X13060882Y-13903524D01*
X13070406Y-13894000D01*
X13089453Y-13884476D01*
X13241834Y-14065428D02*
X13251358Y-14074952D01*
X13241834Y-14084476D01*
X13232311Y-14074952D01*
X13241834Y-14065428D01*
X13241834Y-14084476D01*
X13422787Y-13951143D02*
X13422787Y-14084476D01*
X13375168Y-13874952D02*
X13327549Y-14017809D01*
X13451358Y-14017809D01*
X13565644Y-13884476D02*
X13584691Y-13884476D01*
X13603739Y-13894000D01*
X13613263Y-13903524D01*
X13622787Y-13922571D01*
X13632311Y-13960667D01*
X13632311Y-14008286D01*
X13622787Y-14046381D01*
X13613263Y-14065428D01*
X13603739Y-14074952D01*
X13584691Y-14084476D01*
X13565644Y-14084476D01*
X13546596Y-14074952D01*
X13537072Y-14065428D01*
X13527549Y-14046381D01*
X13518025Y-14008286D01*
X13518025Y-13960667D01*
X13527549Y-13922571D01*
X13537072Y-13903524D01*
X13546596Y-13894000D01*
X13565644Y-13884476D01*
X13756120Y-13884476D02*
X13775168Y-13884476D01*
X13794215Y-13894000D01*
X13803739Y-13903524D01*
X13813263Y-13922571D01*
X13822787Y-13960667D01*
X13822787Y-14008286D01*
X13813263Y-14046381D01*
X13803739Y-14065428D01*
X13794215Y-14074952D01*
X13775168Y-14084476D01*
X13756120Y-14084476D01*
X13737072Y-14074952D01*
X13727549Y-14065428D01*
X13718025Y-14046381D01*
X13708501Y-14008286D01*
X13708501Y-13960667D01*
X13718025Y-13922571D01*
X13727549Y-13903524D01*
X13737072Y-13894000D01*
X13756120Y-13884476D01*
X13908501Y-14084476D02*
X13908501Y-13951143D01*
X13908501Y-13970190D02*
X13918025Y-13960667D01*
X13937072Y-13951143D01*
X13965644Y-13951143D01*
X13984691Y-13960667D01*
X13994215Y-13979714D01*
X13994215Y-14084476D01*
X13994215Y-13979714D02*
X14003739Y-13960667D01*
X14022787Y-13951143D01*
X14051358Y-13951143D01*
X14070406Y-13960667D01*
X14079930Y-13979714D01*
X14079930Y-14084476D01*
X14175168Y-14084476D02*
X14175168Y-13951143D01*
X14175168Y-13970190D02*
X14184691Y-13960667D01*
X14203739Y-13951143D01*
X14232311Y-13951143D01*
X14251358Y-13960667D01*
X14260882Y-13979714D01*
X14260882Y-14084476D01*
X14260882Y-13979714D02*
X14270406Y-13960667D01*
X14289453Y-13951143D01*
X14318025Y-13951143D01*
X14337072Y-13960667D01*
X14346596Y-13979714D01*
X14346596Y-14084476D01*
X14737072Y-13874952D02*
X14565644Y-14132095D01*
X14994215Y-13884476D02*
X15013263Y-13884476D01*
X15032311Y-13894000D01*
X15041834Y-13903524D01*
X15051358Y-13922571D01*
X15060882Y-13960667D01*
X15060882Y-14008286D01*
X15051358Y-14046381D01*
X15041834Y-14065428D01*
X15032311Y-14074952D01*
X15013263Y-14084476D01*
X14994215Y-14084476D01*
X14975168Y-14074952D01*
X14965644Y-14065428D01*
X14956120Y-14046381D01*
X14946596Y-14008286D01*
X14946596Y-13960667D01*
X14956120Y-13922571D01*
X14965644Y-13903524D01*
X14975168Y-13894000D01*
X14994215Y-13884476D01*
X15146596Y-14065428D02*
X15156120Y-14074952D01*
X15146596Y-14084476D01*
X15137072Y-14074952D01*
X15146596Y-14065428D01*
X15146596Y-14084476D01*
X15279930Y-13884476D02*
X15298977Y-13884476D01*
X15318025Y-13894000D01*
X15327549Y-13903524D01*
X15337072Y-13922571D01*
X15346596Y-13960667D01*
X15346596Y-14008286D01*
X15337072Y-14046381D01*
X15327549Y-14065428D01*
X15318025Y-14074952D01*
X15298977Y-14084476D01*
X15279930Y-14084476D01*
X15260882Y-14074952D01*
X15251358Y-14065428D01*
X15241834Y-14046381D01*
X15232311Y-14008286D01*
X15232311Y-13960667D01*
X15241834Y-13922571D01*
X15251358Y-13903524D01*
X15260882Y-13894000D01*
X15279930Y-13884476D01*
X15537072Y-14084476D02*
X15422787Y-14084476D01*
X15479930Y-14084476D02*
X15479930Y-13884476D01*
X15460882Y-13913048D01*
X15441834Y-13932095D01*
X15422787Y-13941619D01*
X15718025Y-13884476D02*
X15622787Y-13884476D01*
X15613263Y-13979714D01*
X15622787Y-13970190D01*
X15641834Y-13960667D01*
X15689453Y-13960667D01*
X15708501Y-13970190D01*
X15718025Y-13979714D01*
X15727549Y-13998762D01*
X15727549Y-14046381D01*
X15718025Y-14065428D01*
X15708501Y-14074952D01*
X15689453Y-14084476D01*
X15641834Y-14084476D01*
X15622787Y-14074952D01*
X15613263Y-14065428D01*
X15794215Y-13884476D02*
X15927549Y-13884476D01*
X15841834Y-14084476D01*
X15994215Y-13884476D02*
X15994215Y-13922571D01*
X16070406Y-13884476D02*
X16070406Y-13922571D01*
X16365644Y-14160667D02*
X16356120Y-14151143D01*
X16337072Y-14122571D01*
X16327549Y-14103524D01*
X16318025Y-14074952D01*
X16308501Y-14027333D01*
X16308501Y-13989238D01*
X16318025Y-13941619D01*
X16327549Y-13913048D01*
X16337072Y-13894000D01*
X16356120Y-13865428D01*
X16365644Y-13855905D01*
X16527549Y-13951143D02*
X16527549Y-14084476D01*
X16479930Y-13874952D02*
X16432311Y-14017809D01*
X16556120Y-14017809D01*
X16784692Y-14084476D02*
X16784692Y-13884476D01*
X16870406Y-14084476D02*
X16870406Y-13979714D01*
X16860882Y-13960667D01*
X16841834Y-13951143D01*
X16813263Y-13951143D01*
X16794215Y-13960667D01*
X16784692Y-13970190D01*
X16994215Y-14084476D02*
X16975168Y-14074952D01*
X16965644Y-14065428D01*
X16956120Y-14046381D01*
X16956120Y-13989238D01*
X16965644Y-13970190D01*
X16975168Y-13960667D01*
X16994215Y-13951143D01*
X17022787Y-13951143D01*
X17041834Y-13960667D01*
X17051358Y-13970190D01*
X17060882Y-13989238D01*
X17060882Y-14046381D01*
X17051358Y-14065428D01*
X17041834Y-14074952D01*
X17022787Y-14084476D01*
X16994215Y-14084476D01*
X17175168Y-14084476D02*
X17156120Y-14074952D01*
X17146596Y-14055905D01*
X17146596Y-13884476D01*
X17327549Y-14074952D02*
X17308501Y-14084476D01*
X17270406Y-14084476D01*
X17251358Y-14074952D01*
X17241834Y-14055905D01*
X17241834Y-13979714D01*
X17251358Y-13960667D01*
X17270406Y-13951143D01*
X17308501Y-13951143D01*
X17327549Y-13960667D01*
X17337073Y-13979714D01*
X17337073Y-13998762D01*
X17241834Y-14017809D01*
X17413263Y-14074952D02*
X17432311Y-14084476D01*
X17470406Y-14084476D01*
X17489453Y-14074952D01*
X17498977Y-14055905D01*
X17498977Y-14046381D01*
X17489453Y-14027333D01*
X17470406Y-14017809D01*
X17441834Y-14017809D01*
X17422787Y-14008286D01*
X17413263Y-13989238D01*
X17413263Y-13979714D01*
X17422787Y-13960667D01*
X17441834Y-13951143D01*
X17470406Y-13951143D01*
X17489453Y-13960667D01*
X17565644Y-14160667D02*
X17575168Y-14151143D01*
X17594215Y-14122571D01*
X17603739Y-14103524D01*
X17613263Y-14074952D01*
X17622787Y-14027333D01*
X17622787Y-13989238D01*
X17613263Y-13941619D01*
X17603739Y-13913048D01*
X17594215Y-13894000D01*
X17575168Y-13865428D01*
X17565644Y-13855905D01*
D10*
X12793739Y-14258000D02*
G75*
G03*
X12793739Y-14258000I-50000J0D01*
G01*
D12*
X13156120Y-14348476D02*
X13041834Y-14348476D01*
X13098977Y-14348476D02*
X13098977Y-14148476D01*
X13079930Y-14177048D01*
X13060882Y-14196095D01*
X13041834Y-14205619D01*
X13241834Y-14329428D02*
X13251358Y-14338952D01*
X13241834Y-14348476D01*
X13232311Y-14338952D01*
X13241834Y-14329428D01*
X13241834Y-14348476D01*
X13375168Y-14148476D02*
X13394215Y-14148476D01*
X13413263Y-14158000D01*
X13422787Y-14167524D01*
X13432311Y-14186571D01*
X13441834Y-14224667D01*
X13441834Y-14272286D01*
X13432311Y-14310381D01*
X13422787Y-14329428D01*
X13413263Y-14338952D01*
X13394215Y-14348476D01*
X13375168Y-14348476D01*
X13356120Y-14338952D01*
X13346596Y-14329428D01*
X13337072Y-14310381D01*
X13327549Y-14272286D01*
X13327549Y-14224667D01*
X13337072Y-14186571D01*
X13346596Y-14167524D01*
X13356120Y-14158000D01*
X13375168Y-14148476D01*
X13565644Y-14148476D02*
X13584691Y-14148476D01*
X13603739Y-14158000D01*
X13613263Y-14167524D01*
X13622787Y-14186571D01*
X13632311Y-14224667D01*
X13632311Y-14272286D01*
X13622787Y-14310381D01*
X13613263Y-14329428D01*
X13603739Y-14338952D01*
X13584691Y-14348476D01*
X13565644Y-14348476D01*
X13546596Y-14338952D01*
X13537072Y-14329428D01*
X13527549Y-14310381D01*
X13518025Y-14272286D01*
X13518025Y-14224667D01*
X13527549Y-14186571D01*
X13537072Y-14167524D01*
X13546596Y-14158000D01*
X13565644Y-14148476D01*
X13756120Y-14148476D02*
X13775168Y-14148476D01*
X13794215Y-14158000D01*
X13803739Y-14167524D01*
X13813263Y-14186571D01*
X13822787Y-14224667D01*
X13822787Y-14272286D01*
X13813263Y-14310381D01*
X13803739Y-14329428D01*
X13794215Y-14338952D01*
X13775168Y-14348476D01*
X13756120Y-14348476D01*
X13737072Y-14338952D01*
X13727549Y-14329428D01*
X13718025Y-14310381D01*
X13708501Y-14272286D01*
X13708501Y-14224667D01*
X13718025Y-14186571D01*
X13727549Y-14167524D01*
X13737072Y-14158000D01*
X13756120Y-14148476D01*
X13908501Y-14348476D02*
X13908501Y-14215143D01*
X13908501Y-14234190D02*
X13918025Y-14224667D01*
X13937072Y-14215143D01*
X13965644Y-14215143D01*
X13984691Y-14224667D01*
X13994215Y-14243714D01*
X13994215Y-14348476D01*
X13994215Y-14243714D02*
X14003739Y-14224667D01*
X14022787Y-14215143D01*
X14051358Y-14215143D01*
X14070406Y-14224667D01*
X14079930Y-14243714D01*
X14079930Y-14348476D01*
X14175168Y-14348476D02*
X14175168Y-14215143D01*
X14175168Y-14234190D02*
X14184691Y-14224667D01*
X14203739Y-14215143D01*
X14232311Y-14215143D01*
X14251358Y-14224667D01*
X14260882Y-14243714D01*
X14260882Y-14348476D01*
X14260882Y-14243714D02*
X14270406Y-14224667D01*
X14289453Y-14215143D01*
X14318025Y-14215143D01*
X14337072Y-14224667D01*
X14346596Y-14243714D01*
X14346596Y-14348476D01*
X14737072Y-14138952D02*
X14565644Y-14396095D01*
X14994215Y-14148476D02*
X15013263Y-14148476D01*
X15032311Y-14158000D01*
X15041834Y-14167524D01*
X15051358Y-14186571D01*
X15060882Y-14224667D01*
X15060882Y-14272286D01*
X15051358Y-14310381D01*
X15041834Y-14329428D01*
X15032311Y-14338952D01*
X15013263Y-14348476D01*
X14994215Y-14348476D01*
X14975168Y-14338952D01*
X14965644Y-14329428D01*
X14956120Y-14310381D01*
X14946596Y-14272286D01*
X14946596Y-14224667D01*
X14956120Y-14186571D01*
X14965644Y-14167524D01*
X14975168Y-14158000D01*
X14994215Y-14148476D01*
X15146596Y-14329428D02*
X15156120Y-14338952D01*
X15146596Y-14348476D01*
X15137072Y-14338952D01*
X15146596Y-14329428D01*
X15146596Y-14348476D01*
X15279930Y-14148476D02*
X15298977Y-14148476D01*
X15318025Y-14158000D01*
X15327549Y-14167524D01*
X15337072Y-14186571D01*
X15346596Y-14224667D01*
X15346596Y-14272286D01*
X15337072Y-14310381D01*
X15327549Y-14329428D01*
X15318025Y-14338952D01*
X15298977Y-14348476D01*
X15279930Y-14348476D01*
X15260882Y-14338952D01*
X15251358Y-14329428D01*
X15241834Y-14310381D01*
X15232311Y-14272286D01*
X15232311Y-14224667D01*
X15241834Y-14186571D01*
X15251358Y-14167524D01*
X15260882Y-14158000D01*
X15279930Y-14148476D01*
X15413263Y-14148476D02*
X15537072Y-14148476D01*
X15470406Y-14224667D01*
X15498977Y-14224667D01*
X15518025Y-14234190D01*
X15527549Y-14243714D01*
X15537072Y-14262762D01*
X15537072Y-14310381D01*
X15527549Y-14329428D01*
X15518025Y-14338952D01*
X15498977Y-14348476D01*
X15441834Y-14348476D01*
X15422787Y-14338952D01*
X15413263Y-14329428D01*
X15632311Y-14348476D02*
X15670406Y-14348476D01*
X15689453Y-14338952D01*
X15698977Y-14329428D01*
X15718025Y-14300857D01*
X15727549Y-14262762D01*
X15727549Y-14186571D01*
X15718025Y-14167524D01*
X15708501Y-14158000D01*
X15689453Y-14148476D01*
X15651358Y-14148476D01*
X15632311Y-14158000D01*
X15622787Y-14167524D01*
X15613263Y-14186571D01*
X15613263Y-14234190D01*
X15622787Y-14253238D01*
X15632311Y-14262762D01*
X15651358Y-14272286D01*
X15689453Y-14272286D01*
X15708501Y-14262762D01*
X15718025Y-14253238D01*
X15727549Y-14234190D01*
X15898977Y-14215143D02*
X15898977Y-14348476D01*
X15851358Y-14138952D02*
X15803739Y-14281809D01*
X15927549Y-14281809D01*
X15994215Y-14148476D02*
X15994215Y-14186571D01*
X16070406Y-14148476D02*
X16070406Y-14186571D01*
X16365644Y-14424667D02*
X16356120Y-14415143D01*
X16337072Y-14386571D01*
X16327549Y-14367524D01*
X16318025Y-14338952D01*
X16308501Y-14291333D01*
X16308501Y-14253238D01*
X16318025Y-14205619D01*
X16327549Y-14177048D01*
X16337072Y-14158000D01*
X16356120Y-14129428D01*
X16365644Y-14119905D01*
X16422787Y-14148476D02*
X16546596Y-14148476D01*
X16479930Y-14224667D01*
X16508501Y-14224667D01*
X16527549Y-14234190D01*
X16537072Y-14243714D01*
X16546596Y-14262762D01*
X16546596Y-14310381D01*
X16537072Y-14329428D01*
X16527549Y-14338952D01*
X16508501Y-14348476D01*
X16451358Y-14348476D01*
X16432311Y-14338952D01*
X16422787Y-14329428D01*
X16718025Y-14148476D02*
X16679930Y-14148476D01*
X16660882Y-14158000D01*
X16651358Y-14167524D01*
X16632311Y-14196095D01*
X16622787Y-14234190D01*
X16622787Y-14310381D01*
X16632311Y-14329428D01*
X16641834Y-14338952D01*
X16660882Y-14348476D01*
X16698977Y-14348476D01*
X16718025Y-14338952D01*
X16727549Y-14329428D01*
X16737072Y-14310381D01*
X16737072Y-14262762D01*
X16727549Y-14243714D01*
X16718025Y-14234190D01*
X16698977Y-14224667D01*
X16660882Y-14224667D01*
X16641834Y-14234190D01*
X16632311Y-14243714D01*
X16622787Y-14262762D01*
X16975168Y-14348476D02*
X16975168Y-14148476D01*
X17060882Y-14348476D02*
X17060882Y-14243714D01*
X17051358Y-14224667D01*
X17032311Y-14215143D01*
X17003739Y-14215143D01*
X16984692Y-14224667D01*
X16975168Y-14234190D01*
X17184692Y-14348476D02*
X17165644Y-14338952D01*
X17156120Y-14329428D01*
X17146596Y-14310381D01*
X17146596Y-14253238D01*
X17156120Y-14234190D01*
X17165644Y-14224667D01*
X17184692Y-14215143D01*
X17213263Y-14215143D01*
X17232311Y-14224667D01*
X17241834Y-14234190D01*
X17251358Y-14253238D01*
X17251358Y-14310381D01*
X17241834Y-14329428D01*
X17232311Y-14338952D01*
X17213263Y-14348476D01*
X17184692Y-14348476D01*
X17365644Y-14348476D02*
X17346596Y-14338952D01*
X17337073Y-14319905D01*
X17337073Y-14148476D01*
X17518025Y-14338952D02*
X17498977Y-14348476D01*
X17460882Y-14348476D01*
X17441834Y-14338952D01*
X17432311Y-14319905D01*
X17432311Y-14243714D01*
X17441834Y-14224667D01*
X17460882Y-14215143D01*
X17498977Y-14215143D01*
X17518025Y-14224667D01*
X17527549Y-14243714D01*
X17527549Y-14262762D01*
X17432311Y-14281809D01*
X17603739Y-14338952D02*
X17622787Y-14348476D01*
X17660882Y-14348476D01*
X17679930Y-14338952D01*
X17689453Y-14319905D01*
X17689453Y-14310381D01*
X17679930Y-14291333D01*
X17660882Y-14281809D01*
X17632311Y-14281809D01*
X17613263Y-14272286D01*
X17603739Y-14253238D01*
X17603739Y-14243714D01*
X17613263Y-14224667D01*
X17632311Y-14215143D01*
X17660882Y-14215143D01*
X17679930Y-14224667D01*
X17756120Y-14424667D02*
X17765644Y-14415143D01*
X17784692Y-14386571D01*
X17794215Y-14367524D01*
X17803739Y-14338952D01*
X17813263Y-14291333D01*
X17813263Y-14253238D01*
X17803739Y-14205619D01*
X17794215Y-14177048D01*
X17784692Y-14158000D01*
X17765644Y-14129428D01*
X17756120Y-14119905D01*
D14*
X12740399Y-14468660D02*
X12740399Y-14575340D01*
X12687059Y-14522000D02*
X12793739Y-14522000D01*
D12*
X13156120Y-14612476D02*
X13041834Y-14612476D01*
X13098977Y-14612476D02*
X13098977Y-14412476D01*
X13079930Y-14441048D01*
X13060882Y-14460095D01*
X13041834Y-14469619D01*
X13241834Y-14593428D02*
X13251358Y-14602952D01*
X13241834Y-14612476D01*
X13232311Y-14602952D01*
X13241834Y-14593428D01*
X13241834Y-14612476D01*
X13375168Y-14412476D02*
X13394215Y-14412476D01*
X13413263Y-14422000D01*
X13422787Y-14431524D01*
X13432311Y-14450571D01*
X13441834Y-14488667D01*
X13441834Y-14536286D01*
X13432311Y-14574381D01*
X13422787Y-14593428D01*
X13413263Y-14602952D01*
X13394215Y-14612476D01*
X13375168Y-14612476D01*
X13356120Y-14602952D01*
X13346596Y-14593428D01*
X13337072Y-14574381D01*
X13327549Y-14536286D01*
X13327549Y-14488667D01*
X13337072Y-14450571D01*
X13346596Y-14431524D01*
X13356120Y-14422000D01*
X13375168Y-14412476D01*
X13613263Y-14412476D02*
X13575168Y-14412476D01*
X13556120Y-14422000D01*
X13546596Y-14431524D01*
X13527549Y-14460095D01*
X13518025Y-14498190D01*
X13518025Y-14574381D01*
X13527549Y-14593428D01*
X13537072Y-14602952D01*
X13556120Y-14612476D01*
X13594215Y-14612476D01*
X13613263Y-14602952D01*
X13622787Y-14593428D01*
X13632311Y-14574381D01*
X13632311Y-14526762D01*
X13622787Y-14507714D01*
X13613263Y-14498190D01*
X13594215Y-14488667D01*
X13556120Y-14488667D01*
X13537072Y-14498190D01*
X13527549Y-14507714D01*
X13518025Y-14526762D01*
X13698977Y-14412476D02*
X13832311Y-14412476D01*
X13746596Y-14612476D01*
X13908501Y-14612476D02*
X13908501Y-14479143D01*
X13908501Y-14498190D02*
X13918025Y-14488667D01*
X13937072Y-14479143D01*
X13965644Y-14479143D01*
X13984691Y-14488667D01*
X13994215Y-14507714D01*
X13994215Y-14612476D01*
X13994215Y-14507714D02*
X14003739Y-14488667D01*
X14022787Y-14479143D01*
X14051358Y-14479143D01*
X14070406Y-14488667D01*
X14079930Y-14507714D01*
X14079930Y-14612476D01*
X14175168Y-14612476D02*
X14175168Y-14479143D01*
X14175168Y-14498190D02*
X14184691Y-14488667D01*
X14203739Y-14479143D01*
X14232311Y-14479143D01*
X14251358Y-14488667D01*
X14260882Y-14507714D01*
X14260882Y-14612476D01*
X14260882Y-14507714D02*
X14270406Y-14488667D01*
X14289453Y-14479143D01*
X14318025Y-14479143D01*
X14337072Y-14488667D01*
X14346596Y-14507714D01*
X14346596Y-14612476D01*
X14737072Y-14402952D02*
X14565644Y-14660095D01*
X14994215Y-14412476D02*
X15013263Y-14412476D01*
X15032311Y-14422000D01*
X15041834Y-14431524D01*
X15051358Y-14450571D01*
X15060882Y-14488667D01*
X15060882Y-14536286D01*
X15051358Y-14574381D01*
X15041834Y-14593428D01*
X15032311Y-14602952D01*
X15013263Y-14612476D01*
X14994215Y-14612476D01*
X14975168Y-14602952D01*
X14965644Y-14593428D01*
X14956120Y-14574381D01*
X14946596Y-14536286D01*
X14946596Y-14488667D01*
X14956120Y-14450571D01*
X14965644Y-14431524D01*
X14975168Y-14422000D01*
X14994215Y-14412476D01*
X15146596Y-14593428D02*
X15156120Y-14602952D01*
X15146596Y-14612476D01*
X15137072Y-14602952D01*
X15146596Y-14593428D01*
X15146596Y-14612476D01*
X15279930Y-14412476D02*
X15298977Y-14412476D01*
X15318025Y-14422000D01*
X15327549Y-14431524D01*
X15337072Y-14450571D01*
X15346596Y-14488667D01*
X15346596Y-14536286D01*
X15337072Y-14574381D01*
X15327549Y-14593428D01*
X15318025Y-14602952D01*
X15298977Y-14612476D01*
X15279930Y-14612476D01*
X15260882Y-14602952D01*
X15251358Y-14593428D01*
X15241834Y-14574381D01*
X15232311Y-14536286D01*
X15232311Y-14488667D01*
X15241834Y-14450571D01*
X15251358Y-14431524D01*
X15260882Y-14422000D01*
X15279930Y-14412476D01*
X15518025Y-14479143D02*
X15518025Y-14612476D01*
X15470406Y-14402952D02*
X15422787Y-14545809D01*
X15546596Y-14545809D01*
X15613263Y-14431524D02*
X15622787Y-14422000D01*
X15641834Y-14412476D01*
X15689453Y-14412476D01*
X15708501Y-14422000D01*
X15718025Y-14431524D01*
X15727549Y-14450571D01*
X15727549Y-14469619D01*
X15718025Y-14498190D01*
X15603739Y-14612476D01*
X15727549Y-14612476D01*
X15851358Y-14412476D02*
X15870406Y-14412476D01*
X15889453Y-14422000D01*
X15898977Y-14431524D01*
X15908501Y-14450571D01*
X15918025Y-14488667D01*
X15918025Y-14536286D01*
X15908501Y-14574381D01*
X15898977Y-14593428D01*
X15889453Y-14602952D01*
X15870406Y-14612476D01*
X15851358Y-14612476D01*
X15832311Y-14602952D01*
X15822787Y-14593428D01*
X15813263Y-14574381D01*
X15803739Y-14536286D01*
X15803739Y-14488667D01*
X15813263Y-14450571D01*
X15822787Y-14431524D01*
X15832311Y-14422000D01*
X15851358Y-14412476D01*
X15994215Y-14412476D02*
X15994215Y-14450571D01*
X16070406Y-14412476D02*
X16070406Y-14450571D01*
X16365644Y-14688667D02*
X16356120Y-14679143D01*
X16337072Y-14650571D01*
X16327549Y-14631524D01*
X16318025Y-14602952D01*
X16308501Y-14555333D01*
X16308501Y-14517238D01*
X16318025Y-14469619D01*
X16327549Y-14441048D01*
X16337072Y-14422000D01*
X16356120Y-14393428D01*
X16365644Y-14383905D01*
X16537072Y-14412476D02*
X16441834Y-14412476D01*
X16432311Y-14507714D01*
X16441834Y-14498190D01*
X16460882Y-14488667D01*
X16508501Y-14488667D01*
X16527549Y-14498190D01*
X16537072Y-14507714D01*
X16546596Y-14526762D01*
X16546596Y-14574381D01*
X16537072Y-14593428D01*
X16527549Y-14602952D01*
X16508501Y-14612476D01*
X16460882Y-14612476D01*
X16441834Y-14602952D01*
X16432311Y-14593428D01*
X16784692Y-14612476D02*
X16784692Y-14412476D01*
X16870406Y-14612476D02*
X16870406Y-14507714D01*
X16860882Y-14488667D01*
X16841834Y-14479143D01*
X16813263Y-14479143D01*
X16794215Y-14488667D01*
X16784692Y-14498190D01*
X16994215Y-14612476D02*
X16975168Y-14602952D01*
X16965644Y-14593428D01*
X16956120Y-14574381D01*
X16956120Y-14517238D01*
X16965644Y-14498190D01*
X16975168Y-14488667D01*
X16994215Y-14479143D01*
X17022787Y-14479143D01*
X17041834Y-14488667D01*
X17051358Y-14498190D01*
X17060882Y-14517238D01*
X17060882Y-14574381D01*
X17051358Y-14593428D01*
X17041834Y-14602952D01*
X17022787Y-14612476D01*
X16994215Y-14612476D01*
X17175168Y-14612476D02*
X17156120Y-14602952D01*
X17146596Y-14583905D01*
X17146596Y-14412476D01*
X17327549Y-14602952D02*
X17308501Y-14612476D01*
X17270406Y-14612476D01*
X17251358Y-14602952D01*
X17241834Y-14583905D01*
X17241834Y-14507714D01*
X17251358Y-14488667D01*
X17270406Y-14479143D01*
X17308501Y-14479143D01*
X17327549Y-14488667D01*
X17337073Y-14507714D01*
X17337073Y-14526762D01*
X17241834Y-14545809D01*
X17413263Y-14602952D02*
X17432311Y-14612476D01*
X17470406Y-14612476D01*
X17489453Y-14602952D01*
X17498977Y-14583905D01*
X17498977Y-14574381D01*
X17489453Y-14555333D01*
X17470406Y-14545809D01*
X17441834Y-14545809D01*
X17422787Y-14536286D01*
X17413263Y-14517238D01*
X17413263Y-14507714D01*
X17422787Y-14488667D01*
X17441834Y-14479143D01*
X17470406Y-14479143D01*
X17489453Y-14488667D01*
X17565644Y-14688667D02*
X17575168Y-14679143D01*
X17594215Y-14650571D01*
X17603739Y-14631524D01*
X17613263Y-14602952D01*
X17622787Y-14555333D01*
X17622787Y-14517238D01*
X17613263Y-14469619D01*
X17603739Y-14441048D01*
X17594215Y-14422000D01*
X17575168Y-14393428D01*
X17565644Y-14383905D01*
D15*
X12777630Y-14824891D02*
X12777630Y-14747109D01*
X12699848Y-14747109D01*
X12699848Y-14824891D01*
X12777630Y-14824891D01*
D12*
X13156120Y-14876476D02*
X13041834Y-14876476D01*
X13098977Y-14876476D02*
X13098977Y-14676476D01*
X13079930Y-14705048D01*
X13060882Y-14724095D01*
X13041834Y-14733619D01*
X13241834Y-14857428D02*
X13251358Y-14866952D01*
X13241834Y-14876476D01*
X13232311Y-14866952D01*
X13241834Y-14857428D01*
X13241834Y-14876476D01*
X13441834Y-14876476D02*
X13327549Y-14876476D01*
X13384691Y-14876476D02*
X13384691Y-14676476D01*
X13365644Y-14705048D01*
X13346596Y-14724095D01*
X13327549Y-14733619D01*
X13565644Y-14676476D02*
X13584691Y-14676476D01*
X13603739Y-14686000D01*
X13613263Y-14695524D01*
X13622787Y-14714571D01*
X13632311Y-14752667D01*
X13632311Y-14800286D01*
X13622787Y-14838381D01*
X13613263Y-14857428D01*
X13603739Y-14866952D01*
X13584691Y-14876476D01*
X13565644Y-14876476D01*
X13546596Y-14866952D01*
X13537072Y-14857428D01*
X13527549Y-14838381D01*
X13518025Y-14800286D01*
X13518025Y-14752667D01*
X13527549Y-14714571D01*
X13537072Y-14695524D01*
X13546596Y-14686000D01*
X13565644Y-14676476D01*
X13756120Y-14676476D02*
X13775168Y-14676476D01*
X13794215Y-14686000D01*
X13803739Y-14695524D01*
X13813263Y-14714571D01*
X13822787Y-14752667D01*
X13822787Y-14800286D01*
X13813263Y-14838381D01*
X13803739Y-14857428D01*
X13794215Y-14866952D01*
X13775168Y-14876476D01*
X13756120Y-14876476D01*
X13737072Y-14866952D01*
X13727549Y-14857428D01*
X13718025Y-14838381D01*
X13708501Y-14800286D01*
X13708501Y-14752667D01*
X13718025Y-14714571D01*
X13727549Y-14695524D01*
X13737072Y-14686000D01*
X13756120Y-14676476D01*
X13908501Y-14876476D02*
X13908501Y-14743143D01*
X13908501Y-14762190D02*
X13918025Y-14752667D01*
X13937072Y-14743143D01*
X13965644Y-14743143D01*
X13984691Y-14752667D01*
X13994215Y-14771714D01*
X13994215Y-14876476D01*
X13994215Y-14771714D02*
X14003739Y-14752667D01*
X14022787Y-14743143D01*
X14051358Y-14743143D01*
X14070406Y-14752667D01*
X14079930Y-14771714D01*
X14079930Y-14876476D01*
X14175168Y-14876476D02*
X14175168Y-14743143D01*
X14175168Y-14762190D02*
X14184691Y-14752667D01*
X14203739Y-14743143D01*
X14232311Y-14743143D01*
X14251358Y-14752667D01*
X14260882Y-14771714D01*
X14260882Y-14876476D01*
X14260882Y-14771714D02*
X14270406Y-14752667D01*
X14289453Y-14743143D01*
X14318025Y-14743143D01*
X14337072Y-14752667D01*
X14346596Y-14771714D01*
X14346596Y-14876476D01*
X14737072Y-14666952D02*
X14565644Y-14924095D01*
X14994215Y-14676476D02*
X15013263Y-14676476D01*
X15032311Y-14686000D01*
X15041834Y-14695524D01*
X15051358Y-14714571D01*
X15060882Y-14752667D01*
X15060882Y-14800286D01*
X15051358Y-14838381D01*
X15041834Y-14857428D01*
X15032311Y-14866952D01*
X15013263Y-14876476D01*
X14994215Y-14876476D01*
X14975168Y-14866952D01*
X14965644Y-14857428D01*
X14956120Y-14838381D01*
X14946596Y-14800286D01*
X14946596Y-14752667D01*
X14956120Y-14714571D01*
X14965644Y-14695524D01*
X14975168Y-14686000D01*
X14994215Y-14676476D01*
X15146596Y-14857428D02*
X15156120Y-14866952D01*
X15146596Y-14876476D01*
X15137072Y-14866952D01*
X15146596Y-14857428D01*
X15146596Y-14876476D01*
X15279930Y-14676476D02*
X15298977Y-14676476D01*
X15318025Y-14686000D01*
X15327549Y-14695524D01*
X15337072Y-14714571D01*
X15346596Y-14752667D01*
X15346596Y-14800286D01*
X15337072Y-14838381D01*
X15327549Y-14857428D01*
X15318025Y-14866952D01*
X15298977Y-14876476D01*
X15279930Y-14876476D01*
X15260882Y-14866952D01*
X15251358Y-14857428D01*
X15241834Y-14838381D01*
X15232311Y-14800286D01*
X15232311Y-14752667D01*
X15241834Y-14714571D01*
X15251358Y-14695524D01*
X15260882Y-14686000D01*
X15279930Y-14676476D01*
X15518025Y-14743143D02*
X15518025Y-14876476D01*
X15470406Y-14666952D02*
X15422787Y-14809809D01*
X15546596Y-14809809D01*
X15603739Y-14676476D02*
X15727549Y-14676476D01*
X15660882Y-14752667D01*
X15689453Y-14752667D01*
X15708501Y-14762190D01*
X15718025Y-14771714D01*
X15727549Y-14790762D01*
X15727549Y-14838381D01*
X15718025Y-14857428D01*
X15708501Y-14866952D01*
X15689453Y-14876476D01*
X15632311Y-14876476D01*
X15613263Y-14866952D01*
X15603739Y-14857428D01*
X15794215Y-14676476D02*
X15918025Y-14676476D01*
X15851358Y-14752667D01*
X15879930Y-14752667D01*
X15898977Y-14762190D01*
X15908501Y-14771714D01*
X15918025Y-14790762D01*
X15918025Y-14838381D01*
X15908501Y-14857428D01*
X15898977Y-14866952D01*
X15879930Y-14876476D01*
X15822787Y-14876476D01*
X15803739Y-14866952D01*
X15794215Y-14857428D01*
X15994215Y-14676476D02*
X15994215Y-14714571D01*
X16070406Y-14676476D02*
X16070406Y-14714571D01*
X16365644Y-14952667D02*
X16356120Y-14943143D01*
X16337072Y-14914571D01*
X16327549Y-14895524D01*
X16318025Y-14866952D01*
X16308501Y-14819333D01*
X16308501Y-14781238D01*
X16318025Y-14733619D01*
X16327549Y-14705048D01*
X16337072Y-14686000D01*
X16356120Y-14657428D01*
X16365644Y-14647905D01*
X16422787Y-14676476D02*
X16546596Y-14676476D01*
X16479930Y-14752667D01*
X16508501Y-14752667D01*
X16527549Y-14762190D01*
X16537072Y-14771714D01*
X16546596Y-14790762D01*
X16546596Y-14838381D01*
X16537072Y-14857428D01*
X16527549Y-14866952D01*
X16508501Y-14876476D01*
X16451358Y-14876476D01*
X16432311Y-14866952D01*
X16422787Y-14857428D01*
X16622787Y-14695524D02*
X16632311Y-14686000D01*
X16651358Y-14676476D01*
X16698977Y-14676476D01*
X16718025Y-14686000D01*
X16727549Y-14695524D01*
X16737072Y-14714571D01*
X16737072Y-14733619D01*
X16727549Y-14762190D01*
X16613263Y-14876476D01*
X16737072Y-14876476D01*
X16975168Y-14876476D02*
X16975168Y-14676476D01*
X17060882Y-14876476D02*
X17060882Y-14771714D01*
X17051358Y-14752667D01*
X17032311Y-14743143D01*
X17003739Y-14743143D01*
X16984692Y-14752667D01*
X16975168Y-14762190D01*
X17184692Y-14876476D02*
X17165644Y-14866952D01*
X17156120Y-14857428D01*
X17146596Y-14838381D01*
X17146596Y-14781238D01*
X17156120Y-14762190D01*
X17165644Y-14752667D01*
X17184692Y-14743143D01*
X17213263Y-14743143D01*
X17232311Y-14752667D01*
X17241834Y-14762190D01*
X17251358Y-14781238D01*
X17251358Y-14838381D01*
X17241834Y-14857428D01*
X17232311Y-14866952D01*
X17213263Y-14876476D01*
X17184692Y-14876476D01*
X17365644Y-14876476D02*
X17346596Y-14866952D01*
X17337073Y-14847905D01*
X17337073Y-14676476D01*
X17518025Y-14866952D02*
X17498977Y-14876476D01*
X17460882Y-14876476D01*
X17441834Y-14866952D01*
X17432311Y-14847905D01*
X17432311Y-14771714D01*
X17441834Y-14752667D01*
X17460882Y-14743143D01*
X17498977Y-14743143D01*
X17518025Y-14752667D01*
X17527549Y-14771714D01*
X17527549Y-14790762D01*
X17432311Y-14809809D01*
X17603739Y-14866952D02*
X17622787Y-14876476D01*
X17660882Y-14876476D01*
X17679930Y-14866952D01*
X17689453Y-14847905D01*
X17689453Y-14838381D01*
X17679930Y-14819333D01*
X17660882Y-14809809D01*
X17632311Y-14809809D01*
X17613263Y-14800286D01*
X17603739Y-14781238D01*
X17603739Y-14771714D01*
X17613263Y-14752667D01*
X17632311Y-14743143D01*
X17660882Y-14743143D01*
X17679930Y-14752667D01*
X17756120Y-14952667D02*
X17765644Y-14943143D01*
X17784692Y-14914571D01*
X17794215Y-14895524D01*
X17803739Y-14866952D01*
X17813263Y-14819333D01*
X17813263Y-14781238D01*
X17803739Y-14733619D01*
X17794215Y-14705048D01*
X17784692Y-14686000D01*
X17765644Y-14657428D01*
X17756120Y-14647905D01*
X12693739Y-15150000D02*
X12793739Y-15050000D01*
X12693739Y-14950000D01*
X12593739Y-15050000D01*
X12693739Y-15150000D01*
X13041834Y-14959524D02*
X13051358Y-14950000D01*
X13070406Y-14940476D01*
X13118025Y-14940476D01*
X13137072Y-14950000D01*
X13146596Y-14959524D01*
X13156120Y-14978571D01*
X13156120Y-14997619D01*
X13146596Y-15026190D01*
X13032311Y-15140476D01*
X13156120Y-15140476D01*
X13241834Y-15121428D02*
X13251358Y-15130952D01*
X13241834Y-15140476D01*
X13232311Y-15130952D01*
X13241834Y-15121428D01*
X13241834Y-15140476D01*
X13432311Y-14940476D02*
X13337072Y-14940476D01*
X13327549Y-15035714D01*
X13337072Y-15026190D01*
X13356120Y-15016667D01*
X13403739Y-15016667D01*
X13422787Y-15026190D01*
X13432311Y-15035714D01*
X13441834Y-15054762D01*
X13441834Y-15102381D01*
X13432311Y-15121428D01*
X13422787Y-15130952D01*
X13403739Y-15140476D01*
X13356120Y-15140476D01*
X13337072Y-15130952D01*
X13327549Y-15121428D01*
X13565644Y-14940476D02*
X13584691Y-14940476D01*
X13603739Y-14950000D01*
X13613263Y-14959524D01*
X13622787Y-14978571D01*
X13632311Y-15016667D01*
X13632311Y-15064286D01*
X13622787Y-15102381D01*
X13613263Y-15121428D01*
X13603739Y-15130952D01*
X13584691Y-15140476D01*
X13565644Y-15140476D01*
X13546596Y-15130952D01*
X13537072Y-15121428D01*
X13527549Y-15102381D01*
X13518025Y-15064286D01*
X13518025Y-15016667D01*
X13527549Y-14978571D01*
X13537072Y-14959524D01*
X13546596Y-14950000D01*
X13565644Y-14940476D01*
X13756120Y-14940476D02*
X13775168Y-14940476D01*
X13794215Y-14950000D01*
X13803739Y-14959524D01*
X13813263Y-14978571D01*
X13822787Y-15016667D01*
X13822787Y-15064286D01*
X13813263Y-15102381D01*
X13803739Y-15121428D01*
X13794215Y-15130952D01*
X13775168Y-15140476D01*
X13756120Y-15140476D01*
X13737072Y-15130952D01*
X13727549Y-15121428D01*
X13718025Y-15102381D01*
X13708501Y-15064286D01*
X13708501Y-15016667D01*
X13718025Y-14978571D01*
X13727549Y-14959524D01*
X13737072Y-14950000D01*
X13756120Y-14940476D01*
X13908501Y-15140476D02*
X13908501Y-15007143D01*
X13908501Y-15026190D02*
X13918025Y-15016667D01*
X13937072Y-15007143D01*
X13965644Y-15007143D01*
X13984691Y-15016667D01*
X13994215Y-15035714D01*
X13994215Y-15140476D01*
X13994215Y-15035714D02*
X14003739Y-15016667D01*
X14022787Y-15007143D01*
X14051358Y-15007143D01*
X14070406Y-15016667D01*
X14079930Y-15035714D01*
X14079930Y-15140476D01*
X14175168Y-15140476D02*
X14175168Y-15007143D01*
X14175168Y-15026190D02*
X14184691Y-15016667D01*
X14203739Y-15007143D01*
X14232311Y-15007143D01*
X14251358Y-15016667D01*
X14260882Y-15035714D01*
X14260882Y-15140476D01*
X14260882Y-15035714D02*
X14270406Y-15016667D01*
X14289453Y-15007143D01*
X14318025Y-15007143D01*
X14337072Y-15016667D01*
X14346596Y-15035714D01*
X14346596Y-15140476D01*
X14737072Y-14930952D02*
X14565644Y-15188095D01*
X14994215Y-14940476D02*
X15013263Y-14940476D01*
X15032311Y-14950000D01*
X15041834Y-14959524D01*
X15051358Y-14978571D01*
X15060882Y-15016667D01*
X15060882Y-15064286D01*
X15051358Y-15102381D01*
X15041834Y-15121428D01*
X15032311Y-15130952D01*
X15013263Y-15140476D01*
X14994215Y-15140476D01*
X14975168Y-15130952D01*
X14965644Y-15121428D01*
X14956120Y-15102381D01*
X14946596Y-15064286D01*
X14946596Y-15016667D01*
X14956120Y-14978571D01*
X14965644Y-14959524D01*
X14975168Y-14950000D01*
X14994215Y-14940476D01*
X15146596Y-15121428D02*
X15156120Y-15130952D01*
X15146596Y-15140476D01*
X15137072Y-15130952D01*
X15146596Y-15121428D01*
X15146596Y-15140476D01*
X15279930Y-14940476D02*
X15298977Y-14940476D01*
X15318025Y-14950000D01*
X15327549Y-14959524D01*
X15337072Y-14978571D01*
X15346596Y-15016667D01*
X15346596Y-15064286D01*
X15337072Y-15102381D01*
X15327549Y-15121428D01*
X15318025Y-15130952D01*
X15298977Y-15140476D01*
X15279930Y-15140476D01*
X15260882Y-15130952D01*
X15251358Y-15121428D01*
X15241834Y-15102381D01*
X15232311Y-15064286D01*
X15232311Y-15016667D01*
X15241834Y-14978571D01*
X15251358Y-14959524D01*
X15260882Y-14950000D01*
X15279930Y-14940476D01*
X15441834Y-15140476D02*
X15479930Y-15140476D01*
X15498977Y-15130952D01*
X15508501Y-15121428D01*
X15527549Y-15092857D01*
X15537072Y-15054762D01*
X15537072Y-14978571D01*
X15527549Y-14959524D01*
X15518025Y-14950000D01*
X15498977Y-14940476D01*
X15460882Y-14940476D01*
X15441834Y-14950000D01*
X15432311Y-14959524D01*
X15422787Y-14978571D01*
X15422787Y-15026190D01*
X15432311Y-15045238D01*
X15441834Y-15054762D01*
X15460882Y-15064286D01*
X15498977Y-15064286D01*
X15518025Y-15054762D01*
X15527549Y-15045238D01*
X15537072Y-15026190D01*
X15651358Y-15026190D02*
X15632311Y-15016667D01*
X15622787Y-15007143D01*
X15613263Y-14988095D01*
X15613263Y-14978571D01*
X15622787Y-14959524D01*
X15632311Y-14950000D01*
X15651358Y-14940476D01*
X15689453Y-14940476D01*
X15708501Y-14950000D01*
X15718025Y-14959524D01*
X15727549Y-14978571D01*
X15727549Y-14988095D01*
X15718025Y-15007143D01*
X15708501Y-15016667D01*
X15689453Y-15026190D01*
X15651358Y-15026190D01*
X15632311Y-15035714D01*
X15622787Y-15045238D01*
X15613263Y-15064286D01*
X15613263Y-15102381D01*
X15622787Y-15121428D01*
X15632311Y-15130952D01*
X15651358Y-15140476D01*
X15689453Y-15140476D01*
X15708501Y-15130952D01*
X15718025Y-15121428D01*
X15727549Y-15102381D01*
X15727549Y-15064286D01*
X15718025Y-15045238D01*
X15708501Y-15035714D01*
X15689453Y-15026190D01*
X15898977Y-15007143D02*
X15898977Y-15140476D01*
X15851358Y-14930952D02*
X15803739Y-15073809D01*
X15927549Y-15073809D01*
X15994215Y-14940476D02*
X15994215Y-14978571D01*
X16070406Y-14940476D02*
X16070406Y-14978571D01*
X16365644Y-15216667D02*
X16356120Y-15207143D01*
X16337072Y-15178571D01*
X16327549Y-15159524D01*
X16318025Y-15130952D01*
X16308501Y-15083333D01*
X16308501Y-15045238D01*
X16318025Y-14997619D01*
X16327549Y-14969048D01*
X16337072Y-14950000D01*
X16356120Y-14921428D01*
X16365644Y-14911905D01*
X16527549Y-15007143D02*
X16527549Y-15140476D01*
X16479930Y-14930952D02*
X16432311Y-15073809D01*
X16556120Y-15073809D01*
X16784692Y-15140476D02*
X16784692Y-14940476D01*
X16870406Y-15140476D02*
X16870406Y-15035714D01*
X16860882Y-15016667D01*
X16841834Y-15007143D01*
X16813263Y-15007143D01*
X16794215Y-15016667D01*
X16784692Y-15026190D01*
X16994215Y-15140476D02*
X16975168Y-15130952D01*
X16965644Y-15121428D01*
X16956120Y-15102381D01*
X16956120Y-15045238D01*
X16965644Y-15026190D01*
X16975168Y-15016667D01*
X16994215Y-15007143D01*
X17022787Y-15007143D01*
X17041834Y-15016667D01*
X17051358Y-15026190D01*
X17060882Y-15045238D01*
X17060882Y-15102381D01*
X17051358Y-15121428D01*
X17041834Y-15130952D01*
X17022787Y-15140476D01*
X16994215Y-15140476D01*
X17175168Y-15140476D02*
X17156120Y-15130952D01*
X17146596Y-15111905D01*
X17146596Y-14940476D01*
X17327549Y-15130952D02*
X17308501Y-15140476D01*
X17270406Y-15140476D01*
X17251358Y-15130952D01*
X17241834Y-15111905D01*
X17241834Y-15035714D01*
X17251358Y-15016667D01*
X17270406Y-15007143D01*
X17308501Y-15007143D01*
X17327549Y-15016667D01*
X17337073Y-15035714D01*
X17337073Y-15054762D01*
X17241834Y-15073809D01*
X17413263Y-15130952D02*
X17432311Y-15140476D01*
X17470406Y-15140476D01*
X17489453Y-15130952D01*
X17498977Y-15111905D01*
X17498977Y-15102381D01*
X17489453Y-15083333D01*
X17470406Y-15073809D01*
X17441834Y-15073809D01*
X17422787Y-15064286D01*
X17413263Y-15045238D01*
X17413263Y-15035714D01*
X17422787Y-15016667D01*
X17441834Y-15007143D01*
X17470406Y-15007143D01*
X17489453Y-15016667D01*
X17737073Y-15064286D02*
X17889453Y-15064286D01*
X17813263Y-15140476D02*
X17813263Y-14988095D01*
X18127549Y-14959524D02*
X18137073Y-14950000D01*
X18156120Y-14940476D01*
X18203739Y-14940476D01*
X18222787Y-14950000D01*
X18232311Y-14959524D01*
X18241834Y-14978571D01*
X18241834Y-14997619D01*
X18232311Y-15026190D01*
X18118025Y-15140476D01*
X18241834Y-15140476D01*
X18470406Y-15130952D02*
X18489453Y-15140476D01*
X18527549Y-15140476D01*
X18546596Y-15130952D01*
X18556120Y-15111905D01*
X18556120Y-15102381D01*
X18546596Y-15083333D01*
X18527549Y-15073809D01*
X18498977Y-15073809D01*
X18479930Y-15064286D01*
X18470406Y-15045238D01*
X18470406Y-15035714D01*
X18479930Y-15016667D01*
X18498977Y-15007143D01*
X18527549Y-15007143D01*
X18546596Y-15016667D01*
X18670406Y-15140476D02*
X18651358Y-15130952D01*
X18641834Y-15111905D01*
X18641834Y-14940476D01*
X18775168Y-15140476D02*
X18756120Y-15130952D01*
X18746596Y-15121428D01*
X18737073Y-15102381D01*
X18737073Y-15045238D01*
X18746596Y-15026190D01*
X18756120Y-15016667D01*
X18775168Y-15007143D01*
X18803739Y-15007143D01*
X18822787Y-15016667D01*
X18832311Y-15026190D01*
X18841834Y-15045238D01*
X18841834Y-15102381D01*
X18832311Y-15121428D01*
X18822787Y-15130952D01*
X18803739Y-15140476D01*
X18775168Y-15140476D01*
X18898977Y-15007143D02*
X18975168Y-15007143D01*
X18927549Y-14940476D02*
X18927549Y-15111905D01*
X18937073Y-15130952D01*
X18956120Y-15140476D01*
X18975168Y-15140476D01*
X19032311Y-15130952D02*
X19051358Y-15140476D01*
X19089453Y-15140476D01*
X19108501Y-15130952D01*
X19118025Y-15111905D01*
X19118025Y-15102381D01*
X19108501Y-15083333D01*
X19089453Y-15073809D01*
X19060882Y-15073809D01*
X19041834Y-15064286D01*
X19032311Y-15045238D01*
X19032311Y-15035714D01*
X19041834Y-15016667D01*
X19060882Y-15007143D01*
X19089453Y-15007143D01*
X19108501Y-15016667D01*
X19184692Y-15216667D02*
X19194215Y-15207143D01*
X19213263Y-15178571D01*
X19222787Y-15159524D01*
X19232311Y-15130952D01*
X19241834Y-15083333D01*
X19241834Y-15045238D01*
X19232311Y-14997619D01*
X19222787Y-14969048D01*
X19213263Y-14950000D01*
X19194215Y-14921428D01*
X19184692Y-14911905D01*
M02*
