%TF.GenerationSoftware,KiCad,Pcbnew,(6.0.7)*%
%TF.CreationDate,2022-08-14T18:42:22+02:00*%
%TF.ProjectId,BURC_Encoder_JRFormat,42555243-5f45-46e6-936f-6465725f4a52,v1.0*%
%TF.SameCoordinates,Original*%
%TF.FileFunction,Legend,Top*%
%TF.FilePolarity,Positive*%
%FSLAX46Y46*%
G04 Gerber Fmt 4.6, Leading zero omitted, Abs format (unit mm)*
G04 Created by KiCad (PCBNEW (6.0.7)) date 2022-08-14 18:42:22*
%MOMM*%
%LPD*%
G01*
G04 APERTURE LIST*
%ADD10C,0.170000*%
%ADD11C,0.150000*%
%ADD12C,0.210000*%
%ADD13C,0.120000*%
%ADD14C,0.254000*%
G04 APERTURE END LIST*
D10*
X166770476Y-129350452D02*
X167600476Y-129073785D01*
X166770476Y-128797119D01*
X167600476Y-128085690D02*
X167600476Y-128559976D01*
X167600476Y-128322833D02*
X166770476Y-128322833D01*
X166889047Y-128401880D01*
X166968095Y-128480928D01*
X167007619Y-128559976D01*
X167521428Y-127729976D02*
X167560952Y-127690452D01*
X167600476Y-127729976D01*
X167560952Y-127769500D01*
X167521428Y-127729976D01*
X167600476Y-127729976D01*
X166770476Y-127176642D02*
X166770476Y-127097595D01*
X166810000Y-127018547D01*
X166849523Y-126979023D01*
X166928571Y-126939500D01*
X167086666Y-126899976D01*
X167284285Y-126899976D01*
X167442380Y-126939500D01*
X167521428Y-126979023D01*
X167560952Y-127018547D01*
X167600476Y-127097595D01*
X167600476Y-127176642D01*
X167560952Y-127255690D01*
X167521428Y-127295214D01*
X167442380Y-127334738D01*
X167284285Y-127374261D01*
X167086666Y-127374261D01*
X166928571Y-127334738D01*
X166849523Y-127295214D01*
X166810000Y-127255690D01*
X166770476Y-127176642D01*
X167165714Y-125635214D02*
X167205238Y-125516642D01*
X167244761Y-125477119D01*
X167323809Y-125437595D01*
X167442380Y-125437595D01*
X167521428Y-125477119D01*
X167560952Y-125516642D01*
X167600476Y-125595690D01*
X167600476Y-125911880D01*
X166770476Y-125911880D01*
X166770476Y-125635214D01*
X166810000Y-125556166D01*
X166849523Y-125516642D01*
X166928571Y-125477119D01*
X167007619Y-125477119D01*
X167086666Y-125516642D01*
X167126190Y-125556166D01*
X167165714Y-125635214D01*
X167165714Y-125911880D01*
X166770476Y-125081880D02*
X167442380Y-125081880D01*
X167521428Y-125042357D01*
X167560952Y-125002833D01*
X167600476Y-124923785D01*
X167600476Y-124765690D01*
X167560952Y-124686642D01*
X167521428Y-124647119D01*
X167442380Y-124607595D01*
X166770476Y-124607595D01*
X167600476Y-123738071D02*
X167205238Y-124014738D01*
X167600476Y-124212357D02*
X166770476Y-124212357D01*
X166770476Y-123896166D01*
X166810000Y-123817119D01*
X166849523Y-123777595D01*
X166928571Y-123738071D01*
X167047142Y-123738071D01*
X167126190Y-123777595D01*
X167165714Y-123817119D01*
X167205238Y-123896166D01*
X167205238Y-124212357D01*
X167521428Y-122908071D02*
X167560952Y-122947595D01*
X167600476Y-123066166D01*
X167600476Y-123145214D01*
X167560952Y-123263785D01*
X167481904Y-123342833D01*
X167402857Y-123382357D01*
X167244761Y-123421880D01*
X167126190Y-123421880D01*
X166968095Y-123382357D01*
X166889047Y-123342833D01*
X166810000Y-123263785D01*
X166770476Y-123145214D01*
X166770476Y-123066166D01*
X166810000Y-122947595D01*
X166849523Y-122908071D01*
X166730952Y-121959500D02*
X167798095Y-122670928D01*
X166770476Y-121445690D02*
X167363333Y-121445690D01*
X167481904Y-121485214D01*
X167560952Y-121564261D01*
X167600476Y-121682833D01*
X167600476Y-121761880D01*
X167600476Y-120576166D02*
X167205238Y-120852833D01*
X167600476Y-121050452D02*
X166770476Y-121050452D01*
X166770476Y-120734261D01*
X166810000Y-120655214D01*
X166849523Y-120615690D01*
X166928571Y-120576166D01*
X167047142Y-120576166D01*
X167126190Y-120615690D01*
X167165714Y-120655214D01*
X167205238Y-120734261D01*
X167205238Y-121050452D01*
D11*
%TO.C,J4*%
X129206666Y-119042380D02*
X129206666Y-119756666D01*
X129159047Y-119899523D01*
X129063809Y-119994761D01*
X128920952Y-120042380D01*
X128825714Y-120042380D01*
X130111428Y-119375714D02*
X130111428Y-120042380D01*
X129873333Y-118994761D02*
X129635238Y-119709047D01*
X130254285Y-119709047D01*
%TO.C,SW12*%
X149320476Y-91209761D02*
X149463333Y-91257380D01*
X149701428Y-91257380D01*
X149796666Y-91209761D01*
X149844285Y-91162142D01*
X149891904Y-91066904D01*
X149891904Y-90971666D01*
X149844285Y-90876428D01*
X149796666Y-90828809D01*
X149701428Y-90781190D01*
X149510952Y-90733571D01*
X149415714Y-90685952D01*
X149368095Y-90638333D01*
X149320476Y-90543095D01*
X149320476Y-90447857D01*
X149368095Y-90352619D01*
X149415714Y-90305000D01*
X149510952Y-90257380D01*
X149749047Y-90257380D01*
X149891904Y-90305000D01*
X150225238Y-90257380D02*
X150463333Y-91257380D01*
X150653809Y-90543095D01*
X150844285Y-91257380D01*
X151082380Y-90257380D01*
X151987142Y-91257380D02*
X151415714Y-91257380D01*
X151701428Y-91257380D02*
X151701428Y-90257380D01*
X151606190Y-90400238D01*
X151510952Y-90495476D01*
X151415714Y-90543095D01*
X152368095Y-90352619D02*
X152415714Y-90305000D01*
X152510952Y-90257380D01*
X152749047Y-90257380D01*
X152844285Y-90305000D01*
X152891904Y-90352619D01*
X152939523Y-90447857D01*
X152939523Y-90543095D01*
X152891904Y-90685952D01*
X152320476Y-91257380D01*
X152939523Y-91257380D01*
%TO.C,U2*%
X144653095Y-117562380D02*
X144653095Y-118371904D01*
X144700714Y-118467142D01*
X144748333Y-118514761D01*
X144843571Y-118562380D01*
X145034047Y-118562380D01*
X145129285Y-118514761D01*
X145176904Y-118467142D01*
X145224523Y-118371904D01*
X145224523Y-117562380D01*
X145653095Y-117657619D02*
X145700714Y-117610000D01*
X145795952Y-117562380D01*
X146034047Y-117562380D01*
X146129285Y-117610000D01*
X146176904Y-117657619D01*
X146224523Y-117752857D01*
X146224523Y-117848095D01*
X146176904Y-117990952D01*
X145605476Y-118562380D01*
X146224523Y-118562380D01*
%TO.C,SW7*%
X159956666Y-83589761D02*
X160099523Y-83637380D01*
X160337619Y-83637380D01*
X160432857Y-83589761D01*
X160480476Y-83542142D01*
X160528095Y-83446904D01*
X160528095Y-83351666D01*
X160480476Y-83256428D01*
X160432857Y-83208809D01*
X160337619Y-83161190D01*
X160147142Y-83113571D01*
X160051904Y-83065952D01*
X160004285Y-83018333D01*
X159956666Y-82923095D01*
X159956666Y-82827857D01*
X160004285Y-82732619D01*
X160051904Y-82685000D01*
X160147142Y-82637380D01*
X160385238Y-82637380D01*
X160528095Y-82685000D01*
X160861428Y-82637380D02*
X161099523Y-83637380D01*
X161290000Y-82923095D01*
X161480476Y-83637380D01*
X161718571Y-82637380D01*
X162004285Y-82637380D02*
X162670952Y-82637380D01*
X162242380Y-83637380D01*
%TO.C,SW5*%
X149796666Y-83589761D02*
X149939523Y-83637380D01*
X150177619Y-83637380D01*
X150272857Y-83589761D01*
X150320476Y-83542142D01*
X150368095Y-83446904D01*
X150368095Y-83351666D01*
X150320476Y-83256428D01*
X150272857Y-83208809D01*
X150177619Y-83161190D01*
X149987142Y-83113571D01*
X149891904Y-83065952D01*
X149844285Y-83018333D01*
X149796666Y-82923095D01*
X149796666Y-82827857D01*
X149844285Y-82732619D01*
X149891904Y-82685000D01*
X149987142Y-82637380D01*
X150225238Y-82637380D01*
X150368095Y-82685000D01*
X150701428Y-82637380D02*
X150939523Y-83637380D01*
X151130000Y-82923095D01*
X151320476Y-83637380D01*
X151558571Y-82637380D01*
X152415714Y-82637380D02*
X151939523Y-82637380D01*
X151891904Y-83113571D01*
X151939523Y-83065952D01*
X152034761Y-83018333D01*
X152272857Y-83018333D01*
X152368095Y-83065952D01*
X152415714Y-83113571D01*
X152463333Y-83208809D01*
X152463333Y-83446904D01*
X152415714Y-83542142D01*
X152368095Y-83589761D01*
X152272857Y-83637380D01*
X152034761Y-83637380D01*
X151939523Y-83589761D01*
X151891904Y-83542142D01*
%TO.C,J2*%
X131746666Y-103362380D02*
X131746666Y-104076666D01*
X131699047Y-104219523D01*
X131603809Y-104314761D01*
X131460952Y-104362380D01*
X131365714Y-104362380D01*
X132175238Y-103457619D02*
X132222857Y-103410000D01*
X132318095Y-103362380D01*
X132556190Y-103362380D01*
X132651428Y-103410000D01*
X132699047Y-103457619D01*
X132746666Y-103552857D01*
X132746666Y-103648095D01*
X132699047Y-103790952D01*
X132127619Y-104362380D01*
X132746666Y-104362380D01*
D12*
%TO.C,J1*%
X163220309Y-117766912D02*
X163220309Y-118481198D01*
X163172690Y-118624055D01*
X163077452Y-118719293D01*
X162934595Y-118766912D01*
X162839357Y-118766912D01*
X164220309Y-118766912D02*
X163648880Y-118766912D01*
X163934595Y-118766912D02*
X163934595Y-117766912D01*
X163839357Y-117909770D01*
X163744119Y-118005008D01*
X163648880Y-118052627D01*
D11*
%TO.C,SW13*%
X144240476Y-91209761D02*
X144383333Y-91257380D01*
X144621428Y-91257380D01*
X144716666Y-91209761D01*
X144764285Y-91162142D01*
X144811904Y-91066904D01*
X144811904Y-90971666D01*
X144764285Y-90876428D01*
X144716666Y-90828809D01*
X144621428Y-90781190D01*
X144430952Y-90733571D01*
X144335714Y-90685952D01*
X144288095Y-90638333D01*
X144240476Y-90543095D01*
X144240476Y-90447857D01*
X144288095Y-90352619D01*
X144335714Y-90305000D01*
X144430952Y-90257380D01*
X144669047Y-90257380D01*
X144811904Y-90305000D01*
X145145238Y-90257380D02*
X145383333Y-91257380D01*
X145573809Y-90543095D01*
X145764285Y-91257380D01*
X146002380Y-90257380D01*
X146907142Y-91257380D02*
X146335714Y-91257380D01*
X146621428Y-91257380D02*
X146621428Y-90257380D01*
X146526190Y-90400238D01*
X146430952Y-90495476D01*
X146335714Y-90543095D01*
X147240476Y-90257380D02*
X147859523Y-90257380D01*
X147526190Y-90638333D01*
X147669047Y-90638333D01*
X147764285Y-90685952D01*
X147811904Y-90733571D01*
X147859523Y-90828809D01*
X147859523Y-91066904D01*
X147811904Y-91162142D01*
X147764285Y-91209761D01*
X147669047Y-91257380D01*
X147383333Y-91257380D01*
X147288095Y-91209761D01*
X147240476Y-91162142D01*
%TO.C,SW10*%
X159480476Y-91209761D02*
X159623333Y-91257380D01*
X159861428Y-91257380D01*
X159956666Y-91209761D01*
X160004285Y-91162142D01*
X160051904Y-91066904D01*
X160051904Y-90971666D01*
X160004285Y-90876428D01*
X159956666Y-90828809D01*
X159861428Y-90781190D01*
X159670952Y-90733571D01*
X159575714Y-90685952D01*
X159528095Y-90638333D01*
X159480476Y-90543095D01*
X159480476Y-90447857D01*
X159528095Y-90352619D01*
X159575714Y-90305000D01*
X159670952Y-90257380D01*
X159909047Y-90257380D01*
X160051904Y-90305000D01*
X160385238Y-90257380D02*
X160623333Y-91257380D01*
X160813809Y-90543095D01*
X161004285Y-91257380D01*
X161242380Y-90257380D01*
X162147142Y-91257380D02*
X161575714Y-91257380D01*
X161861428Y-91257380D02*
X161861428Y-90257380D01*
X161766190Y-90400238D01*
X161670952Y-90495476D01*
X161575714Y-90543095D01*
X162766190Y-90257380D02*
X162861428Y-90257380D01*
X162956666Y-90305000D01*
X163004285Y-90352619D01*
X163051904Y-90447857D01*
X163099523Y-90638333D01*
X163099523Y-90876428D01*
X163051904Y-91066904D01*
X163004285Y-91162142D01*
X162956666Y-91209761D01*
X162861428Y-91257380D01*
X162766190Y-91257380D01*
X162670952Y-91209761D01*
X162623333Y-91162142D01*
X162575714Y-91066904D01*
X162528095Y-90876428D01*
X162528095Y-90638333D01*
X162575714Y-90447857D01*
X162623333Y-90352619D01*
X162670952Y-90305000D01*
X162766190Y-90257380D01*
%TO.C,SW1*%
X129476666Y-83589761D02*
X129619523Y-83637380D01*
X129857619Y-83637380D01*
X129952857Y-83589761D01*
X130000476Y-83542142D01*
X130048095Y-83446904D01*
X130048095Y-83351666D01*
X130000476Y-83256428D01*
X129952857Y-83208809D01*
X129857619Y-83161190D01*
X129667142Y-83113571D01*
X129571904Y-83065952D01*
X129524285Y-83018333D01*
X129476666Y-82923095D01*
X129476666Y-82827857D01*
X129524285Y-82732619D01*
X129571904Y-82685000D01*
X129667142Y-82637380D01*
X129905238Y-82637380D01*
X130048095Y-82685000D01*
X130381428Y-82637380D02*
X130619523Y-83637380D01*
X130810000Y-82923095D01*
X131000476Y-83637380D01*
X131238571Y-82637380D01*
X132143333Y-83637380D02*
X131571904Y-83637380D01*
X131857619Y-83637380D02*
X131857619Y-82637380D01*
X131762380Y-82780238D01*
X131667142Y-82875476D01*
X131571904Y-82923095D01*
%TO.C,SW3*%
X139636666Y-83589761D02*
X139779523Y-83637380D01*
X140017619Y-83637380D01*
X140112857Y-83589761D01*
X140160476Y-83542142D01*
X140208095Y-83446904D01*
X140208095Y-83351666D01*
X140160476Y-83256428D01*
X140112857Y-83208809D01*
X140017619Y-83161190D01*
X139827142Y-83113571D01*
X139731904Y-83065952D01*
X139684285Y-83018333D01*
X139636666Y-82923095D01*
X139636666Y-82827857D01*
X139684285Y-82732619D01*
X139731904Y-82685000D01*
X139827142Y-82637380D01*
X140065238Y-82637380D01*
X140208095Y-82685000D01*
X140541428Y-82637380D02*
X140779523Y-83637380D01*
X140970000Y-82923095D01*
X141160476Y-83637380D01*
X141398571Y-82637380D01*
X141684285Y-82637380D02*
X142303333Y-82637380D01*
X141970000Y-83018333D01*
X142112857Y-83018333D01*
X142208095Y-83065952D01*
X142255714Y-83113571D01*
X142303333Y-83208809D01*
X142303333Y-83446904D01*
X142255714Y-83542142D01*
X142208095Y-83589761D01*
X142112857Y-83637380D01*
X141827142Y-83637380D01*
X141731904Y-83589761D01*
X141684285Y-83542142D01*
%TO.C,SW16*%
X129000476Y-91209761D02*
X129143333Y-91257380D01*
X129381428Y-91257380D01*
X129476666Y-91209761D01*
X129524285Y-91162142D01*
X129571904Y-91066904D01*
X129571904Y-90971666D01*
X129524285Y-90876428D01*
X129476666Y-90828809D01*
X129381428Y-90781190D01*
X129190952Y-90733571D01*
X129095714Y-90685952D01*
X129048095Y-90638333D01*
X129000476Y-90543095D01*
X129000476Y-90447857D01*
X129048095Y-90352619D01*
X129095714Y-90305000D01*
X129190952Y-90257380D01*
X129429047Y-90257380D01*
X129571904Y-90305000D01*
X129905238Y-90257380D02*
X130143333Y-91257380D01*
X130333809Y-90543095D01*
X130524285Y-91257380D01*
X130762380Y-90257380D01*
X131667142Y-91257380D02*
X131095714Y-91257380D01*
X131381428Y-91257380D02*
X131381428Y-90257380D01*
X131286190Y-90400238D01*
X131190952Y-90495476D01*
X131095714Y-90543095D01*
X132524285Y-90257380D02*
X132333809Y-90257380D01*
X132238571Y-90305000D01*
X132190952Y-90352619D01*
X132095714Y-90495476D01*
X132048095Y-90685952D01*
X132048095Y-91066904D01*
X132095714Y-91162142D01*
X132143333Y-91209761D01*
X132238571Y-91257380D01*
X132429047Y-91257380D01*
X132524285Y-91209761D01*
X132571904Y-91162142D01*
X132619523Y-91066904D01*
X132619523Y-90828809D01*
X132571904Y-90733571D01*
X132524285Y-90685952D01*
X132429047Y-90638333D01*
X132238571Y-90638333D01*
X132143333Y-90685952D01*
X132095714Y-90733571D01*
X132048095Y-90828809D01*
%TO.C,R4*%
X159117380Y-116016666D02*
X158641190Y-116350000D01*
X159117380Y-116588095D02*
X158117380Y-116588095D01*
X158117380Y-116207142D01*
X158165000Y-116111904D01*
X158212619Y-116064285D01*
X158307857Y-116016666D01*
X158450714Y-116016666D01*
X158545952Y-116064285D01*
X158593571Y-116111904D01*
X158641190Y-116207142D01*
X158641190Y-116588095D01*
X158450714Y-115159523D02*
X159117380Y-115159523D01*
X158069761Y-115397619D02*
X158784047Y-115635714D01*
X158784047Y-115016666D01*
%TO.C,R1*%
X147788333Y-114371380D02*
X147455000Y-113895190D01*
X147216904Y-114371380D02*
X147216904Y-113371380D01*
X147597857Y-113371380D01*
X147693095Y-113419000D01*
X147740714Y-113466619D01*
X147788333Y-113561857D01*
X147788333Y-113704714D01*
X147740714Y-113799952D01*
X147693095Y-113847571D01*
X147597857Y-113895190D01*
X147216904Y-113895190D01*
X148740714Y-114371380D02*
X148169285Y-114371380D01*
X148455000Y-114371380D02*
X148455000Y-113371380D01*
X148359761Y-113514238D01*
X148264523Y-113609476D01*
X148169285Y-113657095D01*
%TO.C,SW8*%
X165036666Y-83589761D02*
X165179523Y-83637380D01*
X165417619Y-83637380D01*
X165512857Y-83589761D01*
X165560476Y-83542142D01*
X165608095Y-83446904D01*
X165608095Y-83351666D01*
X165560476Y-83256428D01*
X165512857Y-83208809D01*
X165417619Y-83161190D01*
X165227142Y-83113571D01*
X165131904Y-83065952D01*
X165084285Y-83018333D01*
X165036666Y-82923095D01*
X165036666Y-82827857D01*
X165084285Y-82732619D01*
X165131904Y-82685000D01*
X165227142Y-82637380D01*
X165465238Y-82637380D01*
X165608095Y-82685000D01*
X165941428Y-82637380D02*
X166179523Y-83637380D01*
X166370000Y-82923095D01*
X166560476Y-83637380D01*
X166798571Y-82637380D01*
X167322380Y-83065952D02*
X167227142Y-83018333D01*
X167179523Y-82970714D01*
X167131904Y-82875476D01*
X167131904Y-82827857D01*
X167179523Y-82732619D01*
X167227142Y-82685000D01*
X167322380Y-82637380D01*
X167512857Y-82637380D01*
X167608095Y-82685000D01*
X167655714Y-82732619D01*
X167703333Y-82827857D01*
X167703333Y-82875476D01*
X167655714Y-82970714D01*
X167608095Y-83018333D01*
X167512857Y-83065952D01*
X167322380Y-83065952D01*
X167227142Y-83113571D01*
X167179523Y-83161190D01*
X167131904Y-83256428D01*
X167131904Y-83446904D01*
X167179523Y-83542142D01*
X167227142Y-83589761D01*
X167322380Y-83637380D01*
X167512857Y-83637380D01*
X167608095Y-83589761D01*
X167655714Y-83542142D01*
X167703333Y-83446904D01*
X167703333Y-83256428D01*
X167655714Y-83161190D01*
X167608095Y-83113571D01*
X167512857Y-83065952D01*
%TO.C,SW9*%
X165036666Y-91209761D02*
X165179523Y-91257380D01*
X165417619Y-91257380D01*
X165512857Y-91209761D01*
X165560476Y-91162142D01*
X165608095Y-91066904D01*
X165608095Y-90971666D01*
X165560476Y-90876428D01*
X165512857Y-90828809D01*
X165417619Y-90781190D01*
X165227142Y-90733571D01*
X165131904Y-90685952D01*
X165084285Y-90638333D01*
X165036666Y-90543095D01*
X165036666Y-90447857D01*
X165084285Y-90352619D01*
X165131904Y-90305000D01*
X165227142Y-90257380D01*
X165465238Y-90257380D01*
X165608095Y-90305000D01*
X165941428Y-90257380D02*
X166179523Y-91257380D01*
X166370000Y-90543095D01*
X166560476Y-91257380D01*
X166798571Y-90257380D01*
X167227142Y-91257380D02*
X167417619Y-91257380D01*
X167512857Y-91209761D01*
X167560476Y-91162142D01*
X167655714Y-91019285D01*
X167703333Y-90828809D01*
X167703333Y-90447857D01*
X167655714Y-90352619D01*
X167608095Y-90305000D01*
X167512857Y-90257380D01*
X167322380Y-90257380D01*
X167227142Y-90305000D01*
X167179523Y-90352619D01*
X167131904Y-90447857D01*
X167131904Y-90685952D01*
X167179523Y-90781190D01*
X167227142Y-90828809D01*
X167322380Y-90876428D01*
X167512857Y-90876428D01*
X167608095Y-90828809D01*
X167655714Y-90781190D01*
X167703333Y-90685952D01*
%TO.C,R3*%
X162292380Y-116016666D02*
X161816190Y-116350000D01*
X162292380Y-116588095D02*
X161292380Y-116588095D01*
X161292380Y-116207142D01*
X161340000Y-116111904D01*
X161387619Y-116064285D01*
X161482857Y-116016666D01*
X161625714Y-116016666D01*
X161720952Y-116064285D01*
X161768571Y-116111904D01*
X161816190Y-116207142D01*
X161816190Y-116588095D01*
X161292380Y-115683333D02*
X161292380Y-115064285D01*
X161673333Y-115397619D01*
X161673333Y-115254761D01*
X161720952Y-115159523D01*
X161768571Y-115111904D01*
X161863809Y-115064285D01*
X162101904Y-115064285D01*
X162197142Y-115111904D01*
X162244761Y-115159523D01*
X162292380Y-115254761D01*
X162292380Y-115540476D01*
X162244761Y-115635714D01*
X162197142Y-115683333D01*
%TO.C,SW2*%
X134556666Y-83589761D02*
X134699523Y-83637380D01*
X134937619Y-83637380D01*
X135032857Y-83589761D01*
X135080476Y-83542142D01*
X135128095Y-83446904D01*
X135128095Y-83351666D01*
X135080476Y-83256428D01*
X135032857Y-83208809D01*
X134937619Y-83161190D01*
X134747142Y-83113571D01*
X134651904Y-83065952D01*
X134604285Y-83018333D01*
X134556666Y-82923095D01*
X134556666Y-82827857D01*
X134604285Y-82732619D01*
X134651904Y-82685000D01*
X134747142Y-82637380D01*
X134985238Y-82637380D01*
X135128095Y-82685000D01*
X135461428Y-82637380D02*
X135699523Y-83637380D01*
X135890000Y-82923095D01*
X136080476Y-83637380D01*
X136318571Y-82637380D01*
X136651904Y-82732619D02*
X136699523Y-82685000D01*
X136794761Y-82637380D01*
X137032857Y-82637380D01*
X137128095Y-82685000D01*
X137175714Y-82732619D01*
X137223333Y-82827857D01*
X137223333Y-82923095D01*
X137175714Y-83065952D01*
X136604285Y-83637380D01*
X137223333Y-83637380D01*
%TO.C,U3*%
X129921095Y-117689380D02*
X129921095Y-118498904D01*
X129968714Y-118594142D01*
X130016333Y-118641761D01*
X130111571Y-118689380D01*
X130302047Y-118689380D01*
X130397285Y-118641761D01*
X130444904Y-118594142D01*
X130492523Y-118498904D01*
X130492523Y-117689380D01*
X130873476Y-117689380D02*
X131492523Y-117689380D01*
X131159190Y-118070333D01*
X131302047Y-118070333D01*
X131397285Y-118117952D01*
X131444904Y-118165571D01*
X131492523Y-118260809D01*
X131492523Y-118498904D01*
X131444904Y-118594142D01*
X131397285Y-118641761D01*
X131302047Y-118689380D01*
X131016333Y-118689380D01*
X130921095Y-118641761D01*
X130873476Y-118594142D01*
%TO.C,SW4*%
X144716666Y-83589761D02*
X144859523Y-83637380D01*
X145097619Y-83637380D01*
X145192857Y-83589761D01*
X145240476Y-83542142D01*
X145288095Y-83446904D01*
X145288095Y-83351666D01*
X145240476Y-83256428D01*
X145192857Y-83208809D01*
X145097619Y-83161190D01*
X144907142Y-83113571D01*
X144811904Y-83065952D01*
X144764285Y-83018333D01*
X144716666Y-82923095D01*
X144716666Y-82827857D01*
X144764285Y-82732619D01*
X144811904Y-82685000D01*
X144907142Y-82637380D01*
X145145238Y-82637380D01*
X145288095Y-82685000D01*
X145621428Y-82637380D02*
X145859523Y-83637380D01*
X146050000Y-82923095D01*
X146240476Y-83637380D01*
X146478571Y-82637380D01*
X147288095Y-82970714D02*
X147288095Y-83637380D01*
X147050000Y-82589761D02*
X146811904Y-83304047D01*
X147430952Y-83304047D01*
%TO.C,U1*%
X134072380Y-115061904D02*
X134881904Y-115061904D01*
X134977142Y-115014285D01*
X135024761Y-114966666D01*
X135072380Y-114871428D01*
X135072380Y-114680952D01*
X135024761Y-114585714D01*
X134977142Y-114538095D01*
X134881904Y-114490476D01*
X134072380Y-114490476D01*
X135072380Y-113490476D02*
X135072380Y-114061904D01*
X135072380Y-113776190D02*
X134072380Y-113776190D01*
X134215238Y-113871428D01*
X134310476Y-113966666D01*
X134358095Y-114061904D01*
%TO.C,SW15*%
X134080476Y-91209761D02*
X134223333Y-91257380D01*
X134461428Y-91257380D01*
X134556666Y-91209761D01*
X134604285Y-91162142D01*
X134651904Y-91066904D01*
X134651904Y-90971666D01*
X134604285Y-90876428D01*
X134556666Y-90828809D01*
X134461428Y-90781190D01*
X134270952Y-90733571D01*
X134175714Y-90685952D01*
X134128095Y-90638333D01*
X134080476Y-90543095D01*
X134080476Y-90447857D01*
X134128095Y-90352619D01*
X134175714Y-90305000D01*
X134270952Y-90257380D01*
X134509047Y-90257380D01*
X134651904Y-90305000D01*
X134985238Y-90257380D02*
X135223333Y-91257380D01*
X135413809Y-90543095D01*
X135604285Y-91257380D01*
X135842380Y-90257380D01*
X136747142Y-91257380D02*
X136175714Y-91257380D01*
X136461428Y-91257380D02*
X136461428Y-90257380D01*
X136366190Y-90400238D01*
X136270952Y-90495476D01*
X136175714Y-90543095D01*
X137651904Y-90257380D02*
X137175714Y-90257380D01*
X137128095Y-90733571D01*
X137175714Y-90685952D01*
X137270952Y-90638333D01*
X137509047Y-90638333D01*
X137604285Y-90685952D01*
X137651904Y-90733571D01*
X137699523Y-90828809D01*
X137699523Y-91066904D01*
X137651904Y-91162142D01*
X137604285Y-91209761D01*
X137509047Y-91257380D01*
X137270952Y-91257380D01*
X137175714Y-91209761D01*
X137128095Y-91162142D01*
%TO.C,R2*%
X164832380Y-116016666D02*
X164356190Y-116350000D01*
X164832380Y-116588095D02*
X163832380Y-116588095D01*
X163832380Y-116207142D01*
X163880000Y-116111904D01*
X163927619Y-116064285D01*
X164022857Y-116016666D01*
X164165714Y-116016666D01*
X164260952Y-116064285D01*
X164308571Y-116111904D01*
X164356190Y-116207142D01*
X164356190Y-116588095D01*
X163927619Y-115635714D02*
X163880000Y-115588095D01*
X163832380Y-115492857D01*
X163832380Y-115254761D01*
X163880000Y-115159523D01*
X163927619Y-115111904D01*
X164022857Y-115064285D01*
X164118095Y-115064285D01*
X164260952Y-115111904D01*
X164832380Y-115683333D01*
X164832380Y-115064285D01*
%TO.C,SW6*%
X154876666Y-83589761D02*
X155019523Y-83637380D01*
X155257619Y-83637380D01*
X155352857Y-83589761D01*
X155400476Y-83542142D01*
X155448095Y-83446904D01*
X155448095Y-83351666D01*
X155400476Y-83256428D01*
X155352857Y-83208809D01*
X155257619Y-83161190D01*
X155067142Y-83113571D01*
X154971904Y-83065952D01*
X154924285Y-83018333D01*
X154876666Y-82923095D01*
X154876666Y-82827857D01*
X154924285Y-82732619D01*
X154971904Y-82685000D01*
X155067142Y-82637380D01*
X155305238Y-82637380D01*
X155448095Y-82685000D01*
X155781428Y-82637380D02*
X156019523Y-83637380D01*
X156210000Y-82923095D01*
X156400476Y-83637380D01*
X156638571Y-82637380D01*
X157448095Y-82637380D02*
X157257619Y-82637380D01*
X157162380Y-82685000D01*
X157114761Y-82732619D01*
X157019523Y-82875476D01*
X156971904Y-83065952D01*
X156971904Y-83446904D01*
X157019523Y-83542142D01*
X157067142Y-83589761D01*
X157162380Y-83637380D01*
X157352857Y-83637380D01*
X157448095Y-83589761D01*
X157495714Y-83542142D01*
X157543333Y-83446904D01*
X157543333Y-83208809D01*
X157495714Y-83113571D01*
X157448095Y-83065952D01*
X157352857Y-83018333D01*
X157162380Y-83018333D01*
X157067142Y-83065952D01*
X157019523Y-83113571D01*
X156971904Y-83208809D01*
%TO.C,SW14*%
X139160476Y-91209761D02*
X139303333Y-91257380D01*
X139541428Y-91257380D01*
X139636666Y-91209761D01*
X139684285Y-91162142D01*
X139731904Y-91066904D01*
X139731904Y-90971666D01*
X139684285Y-90876428D01*
X139636666Y-90828809D01*
X139541428Y-90781190D01*
X139350952Y-90733571D01*
X139255714Y-90685952D01*
X139208095Y-90638333D01*
X139160476Y-90543095D01*
X139160476Y-90447857D01*
X139208095Y-90352619D01*
X139255714Y-90305000D01*
X139350952Y-90257380D01*
X139589047Y-90257380D01*
X139731904Y-90305000D01*
X140065238Y-90257380D02*
X140303333Y-91257380D01*
X140493809Y-90543095D01*
X140684285Y-91257380D01*
X140922380Y-90257380D01*
X141827142Y-91257380D02*
X141255714Y-91257380D01*
X141541428Y-91257380D02*
X141541428Y-90257380D01*
X141446190Y-90400238D01*
X141350952Y-90495476D01*
X141255714Y-90543095D01*
X142684285Y-90590714D02*
X142684285Y-91257380D01*
X142446190Y-90209761D02*
X142208095Y-90924047D01*
X142827142Y-90924047D01*
%TO.C,J3*%
X137671666Y-115022380D02*
X137671666Y-115736666D01*
X137624047Y-115879523D01*
X137528809Y-115974761D01*
X137385952Y-116022380D01*
X137290714Y-116022380D01*
X138052619Y-115022380D02*
X138671666Y-115022380D01*
X138338333Y-115403333D01*
X138481190Y-115403333D01*
X138576428Y-115450952D01*
X138624047Y-115498571D01*
X138671666Y-115593809D01*
X138671666Y-115831904D01*
X138624047Y-115927142D01*
X138576428Y-115974761D01*
X138481190Y-116022380D01*
X138195476Y-116022380D01*
X138100238Y-115974761D01*
X138052619Y-115927142D01*
%TO.C,Q1*%
X151034761Y-114466619D02*
X150939523Y-114419000D01*
X150844285Y-114323761D01*
X150701428Y-114180904D01*
X150606190Y-114133285D01*
X150510952Y-114133285D01*
X150558571Y-114371380D02*
X150463333Y-114323761D01*
X150368095Y-114228523D01*
X150320476Y-114038047D01*
X150320476Y-113704714D01*
X150368095Y-113514238D01*
X150463333Y-113419000D01*
X150558571Y-113371380D01*
X150749047Y-113371380D01*
X150844285Y-113419000D01*
X150939523Y-113514238D01*
X150987142Y-113704714D01*
X150987142Y-114038047D01*
X150939523Y-114228523D01*
X150844285Y-114323761D01*
X150749047Y-114371380D01*
X150558571Y-114371380D01*
X151939523Y-114371380D02*
X151368095Y-114371380D01*
X151653809Y-114371380D02*
X151653809Y-113371380D01*
X151558571Y-113514238D01*
X151463333Y-113609476D01*
X151368095Y-113657095D01*
%TO.C,SW11*%
X154400476Y-91209761D02*
X154543333Y-91257380D01*
X154781428Y-91257380D01*
X154876666Y-91209761D01*
X154924285Y-91162142D01*
X154971904Y-91066904D01*
X154971904Y-90971666D01*
X154924285Y-90876428D01*
X154876666Y-90828809D01*
X154781428Y-90781190D01*
X154590952Y-90733571D01*
X154495714Y-90685952D01*
X154448095Y-90638333D01*
X154400476Y-90543095D01*
X154400476Y-90447857D01*
X154448095Y-90352619D01*
X154495714Y-90305000D01*
X154590952Y-90257380D01*
X154829047Y-90257380D01*
X154971904Y-90305000D01*
X155305238Y-90257380D02*
X155543333Y-91257380D01*
X155733809Y-90543095D01*
X155924285Y-91257380D01*
X156162380Y-90257380D01*
X157067142Y-91257380D02*
X156495714Y-91257380D01*
X156781428Y-91257380D02*
X156781428Y-90257380D01*
X156686190Y-90400238D01*
X156590952Y-90495476D01*
X156495714Y-90543095D01*
X158019523Y-91257380D02*
X157448095Y-91257380D01*
X157733809Y-91257380D02*
X157733809Y-90257380D01*
X157638571Y-90400238D01*
X157543333Y-90495476D01*
X157448095Y-90543095D01*
D13*
%TO.C,J4*%
X128210000Y-120590000D02*
X129540000Y-120590000D01*
X128210000Y-130870000D02*
X130870000Y-130870000D01*
X128210000Y-121920000D02*
X128210000Y-120590000D01*
X128210000Y-123190000D02*
X130870000Y-123190000D01*
X130870000Y-123190000D02*
X130870000Y-130870000D01*
X128210000Y-123190000D02*
X128210000Y-130870000D01*
%TO.C,SW12*%
X148630000Y-87305000D02*
X153630000Y-87305000D01*
X153630000Y-87305000D02*
X153630000Y-94305000D01*
X153630000Y-94305000D02*
X148630000Y-94305000D01*
X148630000Y-94305000D02*
X148630000Y-87305000D01*
%TO.C,U2*%
X150130000Y-124095000D02*
X152130000Y-124095000D01*
X152630000Y-125095000D02*
G75*
G03*
X152630000Y-125095000I-1500000J0D01*
G01*
X158630000Y-125095000D02*
G75*
G03*
X158630000Y-125095000I-7500000J0D01*
G01*
X155630000Y-125095000D02*
G75*
G03*
X155630000Y-125095000I-4500000J0D01*
G01*
%TO.C,SW7*%
X163790000Y-79685000D02*
X163790000Y-86685000D01*
X163790000Y-86685000D02*
X158790000Y-86685000D01*
X158790000Y-86685000D02*
X158790000Y-79685000D01*
X158790000Y-79685000D02*
X163790000Y-79685000D01*
%TO.C,SW5*%
X148630000Y-86685000D02*
X148630000Y-79685000D01*
X153630000Y-86685000D02*
X148630000Y-86685000D01*
X148630000Y-79685000D02*
X153630000Y-79685000D01*
X153630000Y-79685000D02*
X153630000Y-86685000D01*
%TO.C,J2*%
X132080000Y-105350000D02*
X133410000Y-105350000D01*
X130750000Y-113090000D02*
X133410000Y-113090000D01*
X130750000Y-107950000D02*
X130750000Y-113090000D01*
X130750000Y-107950000D02*
X133410000Y-107950000D01*
X133410000Y-107950000D02*
X133410000Y-113090000D01*
X133410000Y-105350000D02*
X133410000Y-106680000D01*
D14*
%TO.C,J1*%
X165929221Y-119449532D02*
X158309221Y-119449532D01*
X158817221Y-120084532D02*
X158817221Y-131514532D01*
X158309221Y-120084532D02*
X158817221Y-120084532D01*
X158817221Y-131514532D02*
X158309221Y-131514532D01*
X165929221Y-132149532D02*
X165929221Y-119449532D01*
X158309221Y-132149532D02*
X165929221Y-132149532D01*
X158309221Y-131514532D02*
X158309221Y-132149532D01*
X158309221Y-119449532D02*
X158309221Y-120084532D01*
D13*
%TO.C,SW13*%
X148550000Y-87305000D02*
X148550000Y-94305000D01*
X148550000Y-94305000D02*
X143550000Y-94305000D01*
X143550000Y-94305000D02*
X143550000Y-87305000D01*
X143550000Y-87305000D02*
X148550000Y-87305000D01*
%TO.C,SW10*%
X163790000Y-94305000D02*
X158790000Y-94305000D01*
X163790000Y-87305000D02*
X163790000Y-94305000D01*
X158790000Y-94305000D02*
X158790000Y-87305000D01*
X158790000Y-87305000D02*
X163790000Y-87305000D01*
%TO.C,SW1*%
X128310000Y-79685000D02*
X133310000Y-79685000D01*
X128310000Y-86685000D02*
X128310000Y-79685000D01*
X133310000Y-86685000D02*
X128310000Y-86685000D01*
X133310000Y-79685000D02*
X133310000Y-86685000D01*
%TO.C,SW3*%
X138470000Y-79685000D02*
X143470000Y-79685000D01*
X138470000Y-86685000D02*
X138470000Y-79685000D01*
X143470000Y-86685000D02*
X138470000Y-86685000D01*
X143470000Y-79685000D02*
X143470000Y-86685000D01*
%TO.C,SW16*%
X128310000Y-87305000D02*
X133310000Y-87305000D01*
X133310000Y-94305000D02*
X128310000Y-94305000D01*
X128310000Y-94305000D02*
X128310000Y-87305000D01*
X133310000Y-87305000D02*
X133310000Y-94305000D01*
%TO.C,R4*%
X155935000Y-115122936D02*
X155935000Y-116577064D01*
X157755000Y-115122936D02*
X157755000Y-116577064D01*
%TO.C,R1*%
X147227936Y-116480000D02*
X148682064Y-116480000D01*
X147227936Y-114660000D02*
X148682064Y-114660000D01*
%TO.C,SW8*%
X163870000Y-86685000D02*
X163870000Y-79685000D01*
X168870000Y-86685000D02*
X163870000Y-86685000D01*
X163870000Y-79685000D02*
X168870000Y-79685000D01*
X168870000Y-79685000D02*
X168870000Y-86685000D01*
%TO.C,SW9*%
X168870000Y-94305000D02*
X163870000Y-94305000D01*
X168870000Y-87305000D02*
X168870000Y-94305000D01*
X163870000Y-94305000D02*
X163870000Y-87305000D01*
X163870000Y-87305000D02*
X168870000Y-87305000D01*
%TO.C,R3*%
X159110000Y-115122936D02*
X159110000Y-116577064D01*
X160930000Y-115122936D02*
X160930000Y-116577064D01*
%TO.C,SW2*%
X138390000Y-86685000D02*
X133390000Y-86685000D01*
X133390000Y-86685000D02*
X133390000Y-79685000D01*
X138390000Y-79685000D02*
X138390000Y-86685000D01*
X133390000Y-79685000D02*
X138390000Y-79685000D01*
%TO.C,U3*%
X134890000Y-124095000D02*
X136890000Y-124095000D01*
X137390000Y-125095000D02*
G75*
G03*
X137390000Y-125095000I-1500000J0D01*
G01*
X143390000Y-125095000D02*
G75*
G03*
X143390000Y-125095000I-7500000J0D01*
G01*
X140390000Y-125095000D02*
G75*
G03*
X140390000Y-125095000I-4500000J0D01*
G01*
%TO.C,SW4*%
X148550000Y-79685000D02*
X148550000Y-86685000D01*
X148550000Y-86685000D02*
X143550000Y-86685000D01*
X143550000Y-79685000D02*
X148550000Y-79685000D01*
X143550000Y-86685000D02*
X143550000Y-79685000D01*
%TO.C,U1*%
X133350000Y-97855000D02*
X163830000Y-97920000D01*
X163830000Y-97920000D02*
X163830000Y-95250000D01*
X135890000Y-110555000D02*
X133350000Y-110555000D01*
X163830000Y-110490000D02*
X163830000Y-97920000D01*
X163830000Y-95185000D02*
X133350000Y-95185000D01*
X135890000Y-110555000D02*
X135890000Y-113095000D01*
X133350000Y-113095000D02*
X163830000Y-113095000D01*
X163830000Y-110490000D02*
X163830000Y-113095000D01*
X135890000Y-110555000D02*
X163830000Y-110555000D01*
X133350000Y-97855000D02*
X133350000Y-95185000D01*
X133350000Y-110555000D02*
X133350000Y-97855000D01*
X133350000Y-113095000D02*
X133350000Y-110555000D01*
%TO.C,SW15*%
X133390000Y-94305000D02*
X133390000Y-87305000D01*
X133390000Y-87305000D02*
X138390000Y-87305000D01*
X138390000Y-87305000D02*
X138390000Y-94305000D01*
X138390000Y-94305000D02*
X133390000Y-94305000D01*
%TO.C,R2*%
X161650000Y-115122936D02*
X161650000Y-116577064D01*
X163470000Y-115122936D02*
X163470000Y-116577064D01*
%TO.C,SW6*%
X153710000Y-86685000D02*
X153710000Y-79685000D01*
X158710000Y-86685000D02*
X153710000Y-86685000D01*
X158710000Y-79685000D02*
X158710000Y-86685000D01*
X153710000Y-79685000D02*
X158710000Y-79685000D01*
%TO.C,SW14*%
X143470000Y-94305000D02*
X138470000Y-94305000D01*
X138470000Y-94305000D02*
X138470000Y-87305000D01*
X138470000Y-87305000D02*
X143470000Y-87305000D01*
X143470000Y-87305000D02*
X143470000Y-94305000D01*
%TO.C,J3*%
X141605000Y-116900000D02*
X144205000Y-116900000D01*
X140335000Y-116900000D02*
X139005000Y-116900000D01*
X141605000Y-116900000D02*
X141605000Y-114240000D01*
X144205000Y-116900000D02*
X144205000Y-114240000D01*
X141605000Y-114240000D02*
X144205000Y-114240000D01*
X139005000Y-116900000D02*
X139005000Y-115570000D01*
%TO.C,Q1*%
X153035000Y-114010000D02*
X153685000Y-114010000D01*
X153035000Y-114010000D02*
X152385000Y-114010000D01*
X153035000Y-117130000D02*
X154710000Y-117130000D01*
X153035000Y-117130000D02*
X152385000Y-117130000D01*
%TO.C,SW11*%
X153710000Y-87305000D02*
X158710000Y-87305000D01*
X158710000Y-94305000D02*
X153710000Y-94305000D01*
X153710000Y-94305000D02*
X153710000Y-87305000D01*
X158710000Y-87305000D02*
X158710000Y-94305000D01*
%TD*%
M02*
