M48
; DRILL file {KiCad (6.0.7)} date Sun Aug 14 18:42:16 2022
; FORMAT={-:-/ absolute / inch / decimal}
; #@! TF.CreationDate,2022-08-14T18:42:16+02:00
; #@! TF.GenerationSoftware,Kicad,Pcbnew,(6.0.7)
; #@! TF.FileFunction,Plated,1,2,PTH
FMAT,2
INCH
; #@! TA.AperFunction,Plated,PTH,ViaDrill
T1C0.0157
; #@! TA.AperFunction,Plated,PTH,ComponentDrill
T2C0.0394
; #@! TA.AperFunction,Plated,PTH,ComponentDrill
T3C0.0420
; #@! TA.AperFunction,Plated,PTH,ComponentDrill
T4C0.0433
; #@! TA.AperFunction,Plated,PTH,ComponentDrill
T5C0.0984
%
G90
G05
T1
X5.375Y-4.15
X5.645Y-4.76
X5.965Y-4.585
X6.175Y-4.561
T2
X5.1Y-4.8
X5.1Y-4.9
X5.1Y-5.0
X5.1Y-5.1
X5.2Y-4.2
X5.2Y-4.3
X5.2Y-4.4
X5.3Y-3.8026
X5.4Y-3.8026
X5.4Y-4.4026
X5.5Y-3.8026
X5.5Y-4.4026
X5.525Y-4.55
X5.6Y-3.8026
X5.6Y-4.4026
X5.625Y-4.55
X5.65Y-3.9026
X5.7Y-3.8026
X5.7Y-4.4026
X5.75Y-3.9026
X5.8Y-3.8026
X5.8Y-4.4026
X5.9Y-3.8026
X5.9Y-4.4026
X6.0Y-3.8026
X6.0Y-4.4026
X6.05Y-3.9026
X6.1Y-3.8026
X6.1Y-4.4026
X6.15Y-3.9026
X6.2Y-3.8026
X6.2Y-4.4026
X6.3Y-3.8026
X6.3Y-4.4026
X6.4Y-3.8026
X6.4Y-4.4026
T3
X6.3326Y-4.7527
X6.3326Y-4.8527
X6.3326Y-4.9527
X6.3326Y-5.0527
X6.3326Y-5.1527
T4
X5.15Y-3.175
X5.15Y-3.375
X5.15Y-3.475
X5.15Y-3.675
X5.35Y-3.175
X5.35Y-3.375
X5.35Y-3.475
X5.35Y-3.675
X5.55Y-3.175
X5.55Y-3.375
X5.55Y-3.475
X5.55Y-3.675
X5.75Y-3.175
X5.75Y-3.375
X5.75Y-3.475
X5.75Y-3.675
X5.95Y-3.175
X5.95Y-3.375
X5.95Y-3.475
X5.95Y-3.675
X6.15Y-3.175
X6.15Y-3.375
X6.15Y-3.475
X6.15Y-3.675
X6.35Y-3.175
X6.35Y-3.375
X6.35Y-3.475
X6.35Y-3.675
X6.55Y-3.175
X6.55Y-3.375
X6.55Y-3.475
X6.55Y-3.675
T5
X5.35Y-5.1022
X5.4484Y-4.7478
X5.95Y-5.1022
X6.0484Y-4.7478
T5
G00X5.2516Y-4.738
M15
G01X5.2516Y-4.7577
M16
G05
G00X5.8516Y-4.738
M15
G01X5.8516Y-4.7577
M16
G05
T0
M30
